{"duration": 300, "scale": 16, "width": 1280, "effects": [], "sample_rate": 44100, "channel_layout": 3, "height": 720, "tick_pixels": 100, "settings": {}, "version": {"libopenshot": "0.1.9", "openshot-qt": "2.4.1"}, "history": {"undo": [{"old_values": {"perspective_c3_y": {"Points": [{"co": {"Y": -1.0, "X": 1.0}, "interpolation": 2}]}, "duration": 86400.0, "scale": 1, "perspective_c2_y": {"Points": [{"co": {"Y": -1.0, "X": 1.0}, "interpolation": 2}]}, "perspective_c4_y": {"Points": [{"co": {"Y": -1.0, "X": 1.0}, "interpolation": 2}]}, "effects": [], "perspective_c2_x": {"Points": [{"co": {"Y": -1.0, "X": 1.0}, "interpolation": 2}]}, "display": 0, "wave_color": {"blue": {"Points": [{"co": {"Y": 255.0, "X": 1.0}, "interpolation": 0, "handle_type": 0, "handle_left": {"Y": 1.0, "X": 0.5}, "handle_right": {"Y": 0.0, "X": 0.5}}]}, "alpha": {"Points": [{"co": {"Y": 255.0, "X": 1.0}, "interpolation": 0, "handle_type": 0, "handle_left": {"Y": 1.0, "X": 0.5}, "handle_right": {"Y": 0.0, "X": 0.5}}]}, "green": {"Points": [{"co": {"Y": 123.0, "X": 1.0}, "interpolation": 0, "handle_type": 0, "handle_left": {"Y": 1.0, "X": 0.5}, "handle_right": {"Y": 0.0, "X": 0.5}}]}, "red": {"Points": [{"co": {"Y": 0.0, "X": 1.0}, "interpolation": 0, "handle_type": 0, "handle_left": {"Y": 1.0, "X": 0.5}, "handle_right": {"Y": 0.0, "X": 0.5}}]}}, "scale_y": {"Points": [{"co": {"Y": 1.0, "X": 1.0}, "interpolation": 2}]}, "shear_y": {"Points": [{"co": {"Y": 0.0, "X": 1.0}, "interpolation": 2}]}, "location_x": {"Points": [{"co": {"Y": 0.0, "X": 1.0}, "interpolation": 2}]}, "crop_width": {"Points": [{"co": {"Y": -1.0, "X": 1.0}, "interpolation": 2}]}, "image": "/home/milind/.openshot_qt/thumbnail/1JJFCFURL5.png", "location_y": {"Points": [{"co": {"Y": 0.0, "X": 1.0}, "interpolation": 2}]}, "start": 0.0, "scale_x": {"Points": [{"co": {"Y": 1.0, "X": 1.0}, "interpolation": 2}]}, "has_audio": {"Points": [{"co": {"Y": -1.0, "X": 1.0}, "interpolation": 2}]}, "waveform": false, "time": {"Points": [{"co": {"Y": 1.0, "X": 1.0}, "interpolation": 2}]}, "perspective_c3_x": {"Points": [{"co": {"Y": -1.0, "X": 1.0}, "interpolation": 2}]}, "channel_mapping": {"Points": [{"co": {"Y": -1.0, "X": 1.0}, "interpolation": 2}]}, "perspective_c1_x": {"Points": [{"co": {"Y": -1.0, "X": 1.0}, "interpolation": 2}]}, "position": 19.2, "alpha": {"Points": [{"co": {"Y": 1.0, "X": 1.0}, "interpolation": 2}]}, "reader": {"height": 1104, "duration": 86400.0, "type": "QtImageReader", "width": 1920, "display_ratio": {"num": 40, "den": 23}, "video_bit_rate": 0, "sample_rate": 0, "video_length": "2592000", "has_audio": false, "path": "/home/milind/Data/Projects/CTTdemo/assets/closing.svg", "video_stream_index": -1, "pixel_ratio": {"num": 1, "den": 1}, "channel_layout": 4, "channels": 0, "audio_bit_rate": 0, "video_timebase": {"num": 1, "den": 30}, "has_video": true, "file_size": "8478720", "acodec": "", "interlaced_frame": false, "audio_stream_index": -1, "audio_timebase": {"num": 1, "den": 1}, "top_field_first": true, "has_single_image": true, "fps": {"num": 30, "den": 1}, "vcodec": "", "pixel_format": -1}, "volume": {"Points": [{"co": {"Y": 1.0, "X": 1.0}, "interpolation": 2}]}, "shear_x": {"Points": [{"co": {"Y": 0.0, "X": 1.0}, "interpolation": 2}]}, "file_id": "1JJFCFURL5", "rotation": {"Points": [{"co": {"Y": 0.0, "X": 1.0}, "interpolation": 2}]}, "title": "closing.svg", "crop_height": {"Points": [{"co": {"Y": -1.0, "X": 1.0}, "interpolation": 2}]}, "perspective_c1_y": {"Points": [{"co": {"Y": -1.0, "X": 1.0}, "interpolation": 2}]}, "layer": 4, "channel_filter": {"Points": [{"co": {"Y": -1.0, "X": 1.0}, "interpolation": 2}]}, "end": 10.0, "id": "1JADABT8ES", "gravity": 4, "anchor": 0, "has_video": {"Points": [{"co": {"Y": -1.0, "X": 1.0}, "interpolation": 2}]}, "crop_x": {"Points": [{"co": {"Y": 0.0, "X": 1.0}, "interpolation": 2}]}, "perspective_c4_x": {"Points": [{"co": {"Y": -1.0, "X": 1.0}, "interpolation": 2}]}, "crop_y": {"Points": [{"co": {"Y": 0.0, "X": 1.0}, "interpolation": 2}]}}, "type": "update", "key": ["clips", {"id": "1JADABT8ES"}], "value": {"image": "/home/milind/.openshot_qt/thumbnail/1JJFCFURL5.png", "start": 0, "end": 10, "layer": 4, "position": 21.24, "id": "1JADABT8ES"}, "partial": false}, {"old_values": [{"image": "/home/milind/.openshot_qt/thumbnail/89VB9QOG5Q.png", "duration": 21.0, "scale": 1, "perspective_c2_y": {"Points": [{"co": {"Y": -1.0, "X": 1.0}, "interpolation": 2}]}, "time": {"Points": [{"co": {"Y": 1.0, "X": 1.0}, "interpolation": 2}]}, "title": "Demo-03-Renaming copy pasted Time-Slots.mkv", "perspective_c2_x": {"Points": [{"co": {"Y": -1.0, "X": 1.0}, "interpolation": 2}]}, "waveform": false, "wave_color": {"blue": {"Points": [{"co": {"Y": 255.0, "X": 1.0}, "interpolation": 0, "handle_type": 0, "handle_left": {"Y": 1.0, "X": 0.5}, "handle_right": {"Y": 0.0, "X": 0.5}}]}, "alpha": {"Points": [{"co": {"Y": 255.0, "X": 1.0}, "interpolation": 0, "handle_type": 0, "handle_left": {"Y": 1.0, "X": 0.5}, "handle_right": {"Y": 0.0, "X": 0.5}}]}, "red": {"Points": [{"co": {"Y": 0.0, "X": 1.0}, "interpolation": 0, "handle_type": 0, "handle_left": {"Y": 1.0, "X": 0.5}, "handle_right": {"Y": 0.0, "X": 0.5}}]}, "green": {"Points": [{"co": {"Y": 123.0, "X": 1.0}, "interpolation": 0, "handle_type": 0, "handle_left": {"Y": 1.0, "X": 0.5}, "handle_right": {"Y": 0.0, "X": 0.5}}]}}, "scale_y": {"Points": [{"co": {"Y": 1.0, "X": 1.0}, "interpolation": 2}]}, "shear_y": {"Points": [{"co": {"Y": 0.0, "X": 1.0}, "interpolation": 2}]}, "scale_x": {"Points": [{"co": {"Y": 1.0, "X": 1.0}, "interpolation": 2}]}, "crop_width": {"Points": [{"co": {"Y": -1.0, "X": 1.0}, "interpolation": 2}]}, "location_y": {"Points": [{"co": {"Y": 0.0, "X": 1.0}, "interpolation": 2}]}, "start": 0, "location_x": {"Points": [{"co": {"Y": 0.0, "X": 1.0}, "interpolation": 2}]}, "has_audio": {"Points": [{"co": {"Y": -1.0, "X": 1.0}, "interpolation": 2}]}, "perspective_c4_y": {"Points": [{"co": {"Y": -1.0, "X": 1.0}, "interpolation": 2}]}, "perspective_c3_x": {"Points": [{"co": {"Y": -1.0, "X": 1.0}, "interpolation": 2}]}, "channel_mapping": {"Points": [{"co": {"Y": -1.0, "X": 1.0}, "interpolation": 2}]}, "layer": 4, "position": 0, "alpha": {"Points": [{"co": {"Y": 1.0, "X": 1.0}, "interpolation": 2}, {"co": {"Y": 0.0, "X": 1.0}, "interpolation": 0, "handle_type": 0, "handle_left": {"Y": 1.0, "X": 0.5}, "handle_right": {"Y": 0.0, "X": 0.5}}, {"co": {"Y": 1.0, "X": 73.0}, "interpolation": 0, "handle_type": 0, "handle_left": {"Y": 1.0, "X": 0.5}, "handle_right": {"Y": 0.0, "X": 0.5}}, {"co": {"Y": 1.0, "X": 433.0}, "interpolation": 0, "handle_type": 0, "handle_left": {"Y": 1.0, "X": 0.5}, "handle_right": {"Y": 0.0, "X": 0.5}}, {"co": {"Y": 0.0, "X": 505.0}, "interpolation": 0, "handle_type": 0, "handle_left": {"Y": 1.0, "X": 0.5}, "handle_right": {"Y": 0.0, "X": 0.5}}]}, "reader": {"duration": 21.0, "type": "FFmpegReader", "width": 1366, "display_ratio": {"num": 683, "den": 384}, "video_bit_rate": 0, "sample_rate": 0, "video_length": "525", "has_audio": false, "path": "/home/milind/Data/Projects/CTTdemo/Demo-03-Renaming copy pasted Time-Slots.mkv", "video_stream_index": 0, "channel_layout": 4, "channels": 0, "audio_bit_rate": 0, "video_timebase": {"num": 1, "den": 1000}, "fps": {"num": 25, "den": 1}, "has_video": true, "file_size": "191199", "acodec": "", "vcodec": "h264", "interlaced_frame": false, "audio_stream_index": -1, "audio_timebase": {"num": 1, "den": 1}, "top_field_first": true, "has_single_image": false, "height": 768, "pixel_ratio": {"num": 1, "den": 1}, "pixel_format": 0}, "volume": {"Points": [{"co": {"Y": 1.0, "X": 1.0}, "interpolation": 2}]}, "shear_x": {"Points": [{"co": {"Y": 0.0, "X": 1.0}, "interpolation": 2}]}, "file_id": "89VB9QOG5Q", "rotation": {"Points": [{"co": {"Y": 0.0, "X": 1.0}, "interpolation": 2}]}, "effects": [], "crop_height": {"Points": [{"co": {"Y": -1.0, "X": 1.0}, "interpolation": 2}]}, "perspective_c1_y": {"Points": [{"co": {"Y": -1.0, "X": 1.0}, "interpolation": 2}]}, "anchor": 0, "channel_filter": {"Points": [{"co": {"Y": -1.0, "X": 1.0}, "interpolation": 2}]}, "perspective_c1_x": {"Points": [{"co": {"Y": -1.0, "X": 1.0}, "interpolation": 2}]}, "display": 0, "perspective_c3_y": {"Points": [{"co": {"Y": -1.0, "X": 1.0}, "interpolation": 2}]}, "id": "DST1B0379I", "gravity": 4, "crop_x": {"Points": [{"co": {"Y": 0.0, "X": 1.0}, "interpolation": 2}]}, "has_video": {"Points": [{"co": {"Y": -1.0, "X": 1.0}, "interpolation": 2}]}, "end": 21, "perspective_c4_x": {"Points": [{"co": {"Y": -1.0, "X": 1.0}, "interpolation": 2}]}, "crop_y": {"Points": [{"co": {"Y": 0.0, "X": 1.0}, "interpolation": 2}]}}, {"perspective_c3_y": {"Points": [{"co": {"Y": -1.0, "X": 1.0}, "interpolation": 2}]}, "duration": 86400.0, "image": "/home/milind/.openshot_qt/thumbnail/0KW4LO7TNI.png", "perspective_c2_y": {"Points": [{"co": {"Y": -1.0, "X": 1.0}, "interpolation": 2}]}, "time": {"Points": [{"co": {"Y": 1.0, "X": 1.0}, "interpolation": 2}]}, "title": "ILUG-MSG.svg", "perspective_c2_x": {"Points": [{"co": {"Y": -1.0, "X": 1.0}, "interpolation": 2}]}, "display": 0, "wave_color": {"blue": {"Points": [{"co": {"Y": 255.0, "X": 1.0}, "interpolation": 0, "handle_type": 0, "handle_left": {"Y": 1.0, "X": 0.5}, "handle_right": {"Y": 0.0, "X": 0.5}}]}, "alpha": {"Points": [{"co": {"Y": 255.0, "X": 1.0}, "interpolation": 0, "handle_type": 0, "handle_left": {"Y": 1.0, "X": 0.5}, "handle_right": {"Y": 0.0, "X": 0.5}}]}, "green": {"Points": [{"co": {"Y": 123.0, "X": 1.0}, "interpolation": 0, "handle_type": 0, "handle_left": {"Y": 1.0, "X": 0.5}, "handle_right": {"Y": 0.0, "X": 0.5}}]}, "red": {"Points": [{"co": {"Y": 0.0, "X": 1.0}, "interpolation": 0, "handle_type": 0, "handle_left": {"Y": 1.0, "X": 0.5}, "handle_right": {"Y": 0.0, "X": 0.5}}]}}, "alpha": {"Points": [{"co": {"Y": 1.0, "X": 1.0}, "interpolation": 2}]}, "gravity": 4, "shear_y": {"Points": [{"co": {"Y": 0.0, "X": 1.0}, "interpolation": 2}]}, "scale": 1, "location_x": {"Points": [{"co": {"Y": 0.0, "X": 1.0}, "interpolation": 2}]}, "crop_width": {"Points": [{"co": {"Y": -1.0, "X": 1.0}, "interpolation": 2}]}, "location_y": {"Points": [{"co": {"Y": 0.0, "X": 1.0}, "interpolation": 2}]}, "start": 0, "scale_x": {"Points": [{"co": {"Y": 1.0, "X": 1.0}, "interpolation": 2}]}, "has_audio": {"Points": [{"co": {"Y": -1.0, "X": 1.0}, "interpolation": 2}]}, "perspective_c4_y": {"Points": [{"co": {"Y": -1.0, "X": 1.0}, "interpolation": 2}]}, "perspective_c3_x": {"Points": [{"co": {"Y": -1.0, "X": 1.0}, "interpolation": 2}]}, "layer": 4, "position": 45.44, "id": "6RUAPKL7GZ", "perspective_c1_y": {"Points": [{"co": {"Y": -1.0, "X": 1.0}, "interpolation": 2}]}, "reader": {"height": 1104, "duration": 86400.0, "type": "QtImageReader", "width": 1920, "display_ratio": {"num": 40, "den": 23}, "video_bit_rate": 0, "sample_rate": 0, "video_length": "2592000", "has_audio": false, "path": "/home/milind/Data/Projects/CTTdemo/assets/ILUG-MSG.svg", "video_stream_index": -1, "pixel_ratio": {"num": 1, "den": 1}, "channel_layout": 4, "channels": 0, "audio_bit_rate": 0, "video_timebase": {"num": 1, "den": 30}, "has_video": true, "file_size": "8478720", "acodec": "", "interlaced_frame": false, "audio_stream_index": -1, "audio_timebase": {"num": 1, "den": 1}, "top_field_first": true, "has_single_image": true, "fps": {"num": 30, "den": 1}, "vcodec": "", "pixel_format": -1}, "volume": {"Points": [{"co": {"Y": 1.0, "X": 1.0}, "interpolation": 2}]}, "shear_x": {"Points": [{"co": {"Y": 0.0, "X": 1.0}, "interpolation": 2}]}, "file_id": "0KW4LO7TNI", "rotation": {"Points": [{"co": {"Y": 0.0, "X": 1.0}, "interpolation": 2}]}, "effects": [], "crop_height": {"Points": [{"co": {"Y": -1.0, "X": 1.0}, "interpolation": 2}]}, "channel_mapping": {"Points": [{"co": {"Y": -1.0, "X": 1.0}, "interpolation": 2}]}, "anchor": 0, "channel_filter": {"Points": [{"co": {"Y": -1.0, "X": 1.0}, "interpolation": 2}]}, "perspective_c1_x": {"Points": [{"co": {"Y": -1.0, "X": 1.0}, "interpolation": 2}]}, "waveform": false, "has_video": {"Points": [{"co": {"Y": -1.0, "X": 1.0}, "interpolation": 2}]}, "scale_y": {"Points": [{"co": {"Y": 1.0, "X": 1.0}, "interpolation": 2}]}, "crop_x": {"Points": [{"co": {"Y": 0.0, "X": 1.0}, "interpolation": 2}]}, "end": 10, "perspective_c4_x": {"Points": [{"co": {"Y": -1.0, "X": 1.0}, "interpolation": 2}]}, "crop_y": {"Points": [{"co": {"Y": 0.0, "X": 1.0}, "interpolation": 2}]}}, {"perspective_c3_y": {"Points": [{"co": {"Y": -1.0, "X": 1.0}, "interpolation": 2}]}, "duration": 86400.0, "image": "/home/milind/.openshot_qt/thumbnail/1JJFCFURL5.png", "perspective_c2_y": {"Points": [{"co": {"Y": -1.0, "X": 1.0}, "interpolation": 2}]}, "time": {"Points": [{"co": {"Y": 1.0, "X": 1.0}, "interpolation": 2}]}, "title": "closing.svg", "perspective_c2_x": {"Points": [{"co": {"Y": -1.0, "X": 1.0}, "interpolation": 2}]}, "display": 0, "wave_color": {"blue": {"Points": [{"co": {"Y": 255.0, "X": 1.0}, "interpolation": 0, "handle_type": 0, "handle_left": {"Y": 1.0, "X": 0.5}, "handle_right": {"Y": 0.0, "X": 0.5}}]}, "alpha": {"Points": [{"co": {"Y": 255.0, "X": 1.0}, "interpolation": 0, "handle_type": 0, "handle_left": {"Y": 1.0, "X": 0.5}, "handle_right": {"Y": 0.0, "X": 0.5}}]}, "green": {"Points": [{"co": {"Y": 123.0, "X": 1.0}, "interpolation": 0, "handle_type": 0, "handle_left": {"Y": 1.0, "X": 0.5}, "handle_right": {"Y": 0.0, "X": 0.5}}]}, "red": {"Points": [{"co": {"Y": 0.0, "X": 1.0}, "interpolation": 0, "handle_type": 0, "handle_left": {"Y": 1.0, "X": 0.5}, "handle_right": {"Y": 0.0, "X": 0.5}}]}}, "alpha": {"Points": [{"co": {"Y": 1.0, "X": 1.0}, "interpolation": 2}]}, "gravity": 4, "shear_y": {"Points": [{"co": {"Y": 0.0, "X": 1.0}, "interpolation": 2}]}, "scale": 1, "location_x": {"Points": [{"co": {"Y": 0.0, "X": 1.0}, "interpolation": 2}]}, "crop_width": {"Points": [{"co": {"Y": -1.0, "X": 1.0}, "interpolation": 2}]}, "location_y": {"Points": [{"co": {"Y": 0.0, "X": 1.0}, "interpolation": 2}]}, "start": 0, "scale_x": {"Points": [{"co": {"Y": 1.0, "X": 1.0}, "interpolation": 2}]}, "has_audio": {"Points": [{"co": {"Y": -1.0, "X": 1.0}, "interpolation": 2}]}, "perspective_c4_y": {"Points": [{"co": {"Y": -1.0, "X": 1.0}, "interpolation": 2}]}, "perspective_c3_x": {"Points": [{"co": {"Y": -1.0, "X": 1.0}, "interpolation": 2}]}, "layer": 4, "position": 21.24, "id": "1JADABT8ES", "perspective_c1_y": {"Points": [{"co": {"Y": -1.0, "X": 1.0}, "interpolation": 2}]}, "reader": {"height": 1104, "duration": 86400.0, "type": "QtImageReader", "width": 1920, "display_ratio": {"num": 40, "den": 23}, "video_bit_rate": 0, "sample_rate": 0, "video_length": "2592000", "has_audio": false, "path": "/home/milind/Data/Projects/CTTdemo/assets/closing.svg", "video_stream_index": -1, "pixel_ratio": {"num": 1, "den": 1}, "channel_layout": 4, "channels": 0, "audio_bit_rate": 0, "video_timebase": {"num": 1, "den": 30}, "has_video": true, "file_size": "8478720", "acodec": "", "interlaced_frame": false, "audio_stream_index": -1, "audio_timebase": {"num": 1, "den": 1}, "top_field_first": true, "has_single_image": true, "fps": {"num": 30, "den": 1}, "vcodec": "", "pixel_format": -1}, "volume": {"Points": [{"co": {"Y": 1.0, "X": 1.0}, "interpolation": 2}]}, "shear_x": {"Points": [{"co": {"Y": 0.0, "X": 1.0}, "interpolation": 2}]}, "file_id": "1JJFCFURL5", "rotation": {"Points": [{"co": {"Y": 0.0, "X": 1.0}, "interpolation": 2}]}, "effects": [], "crop_height": {"Points": [{"co": {"Y": -1.0, "X": 1.0}, "interpolation": 2}]}, "channel_mapping": {"Points": [{"co": {"Y": -1.0, "X": 1.0}, "interpolation": 2}]}, "anchor": 0, "channel_filter": {"Points": [{"co": {"Y": -1.0, "X": 1.0}, "interpolation": 2}]}, "perspective_c1_x": {"Points": [{"co": {"Y": -1.0, "X": 1.0}, "interpolation": 2}]}, "waveform": false, "has_video": {"Points": [{"co": {"Y": -1.0, "X": 1.0}, "interpolation": 2}]}, "scale_y": {"Points": [{"co": {"Y": 1.0, "X": 1.0}, "interpolation": 2}]}, "crop_x": {"Points": [{"co": {"Y": 0.0, "X": 1.0}, "interpolation": 2}]}, "end": 10, "perspective_c4_x": {"Points": [{"co": {"Y": -1.0, "X": 1.0}, "interpolation": 2}]}, "crop_y": {"Points": [{"co": {"Y": 0.0, "X": 1.0}, "interpolation": 2}]}}], "type": "insert", "key": ["clips"], "value": {"perspective_c3_y": {"Points": [{"co": {"Y": -1.0, "X": 1.0}, "interpolation": 2}]}, "duration": 86400.0, "image": "/home/milind/.openshot_qt/thumbnail/1JJFCFURL5.png", "perspective_c2_y": {"Points": [{"co": {"Y": -1.0, "X": 1.0}, "interpolation": 2}]}, "time": {"Points": [{"co": {"Y": 1.0, "X": 1.0}, "interpolation": 2}]}, "title": "closing.svg", "perspective_c2_x": {"Points": [{"co": {"Y": -1.0, "X": 1.0}, "interpolation": 2}]}, "display": 0, "wave_color": {"blue": {"Points": [{"co": {"Y": 255.0, "X": 1.0}, "interpolation": 0, "handle_type": 0, "handle_left": {"Y": 1.0, "X": 0.5}, "handle_right": {"Y": 0.0, "X": 0.5}}]}, "red": {"Points": [{"co": {"Y": 0.0, "X": 1.0}, "interpolation": 0, "handle_type": 0, "handle_left": {"Y": 1.0, "X": 0.5}, "handle_right": {"Y": 0.0, "X": 0.5}}]}, "green": {"Points": [{"co": {"Y": 123.0, "X": 1.0}, "interpolation": 0, "handle_type": 0, "handle_left": {"Y": 1.0, "X": 0.5}, "handle_right": {"Y": 0.0, "X": 0.5}}]}, "alpha": {"Points": [{"co": {"Y": 255.0, "X": 1.0}, "interpolation": 0, "handle_type": 0, "handle_left": {"Y": 1.0, "X": 0.5}, "handle_right": {"Y": 0.0, "X": 0.5}}]}}, "scale_y": {"Points": [{"co": {"Y": 1.0, "X": 1.0}, "interpolation": 2}]}, "shear_y": {"Points": [{"co": {"Y": 0.0, "X": 1.0}, "interpolation": 2}]}, "scale": 1, "location_x": {"Points": [{"co": {"Y": 0.0, "X": 1.0}, "interpolation": 2}]}, "crop_width": {"Points": [{"co": {"Y": -1.0, "X": 1.0}, "interpolation": 2}]}, "id": "Y4HR9DGMO3", "location_y": {"Points": [{"co": {"Y": 0.0, "X": 1.0}, "interpolation": 2}]}, "start": 0, "scale_x": {"Points": [{"co": {"Y": 1.0, "X": 1.0}, "interpolation": 2}]}, "has_audio": {"Points": [{"co": {"Y": -1.0, "X": 1.0}, "interpolation": 2}]}, "waveform": false, "perspective_c4_y": {"Points": [{"co": {"Y": -1.0, "X": 1.0}, "interpolation": 2}]}, "perspective_c3_x": {"Points": [{"co": {"Y": -1.0, "X": 1.0}, "interpolation": 2}]}, "channel_mapping": {"Points": [{"co": {"Y": -1.0, "X": 1.0}, "interpolation": 2}]}, "layer": 4, "position": 31, "has_video": {"Points": [{"co": {"Y": -1.0, "X": 1.0}, "interpolation": 2}]}, "reader": {"duration": 86400.0, "type": "QtImageReader", "audio_timebase": {"num": 1, "den": 1}, "width": 1920, "display_ratio": {"num": 40, "den": 23}, "video_bit_rate": 0, "sample_rate": 0, "video_length": "2592000", "has_audio": false, "path": "/home/milind/Data/Projects/CTTdemo/assets/closing.svg", "video_stream_index": -1, "channel_layout": 4, "channels": 0, "audio_bit_rate": 0, "video_timebase": {"num": 1, "den": 30}, "fps": {"num": 30, "den": 1}, "has_video": true, "acodec": "", "vcodec": "", "interlaced_frame": false, "audio_stream_index": -1, "file_size": "8478720", "top_field_first": true, "has_single_image": true, "height": 1104, "pixel_ratio": {"num": 1, "den": 1}, "pixel_format": -1}, "volume": {"Points": [{"co": {"Y": 1.0, "X": 1.0}, "interpolation": 2}]}, "shear_x": {"Points": [{"co": {"Y": 0.0, "X": 1.0}, "interpolation": 2}]}, "file_id": "1JJFCFURL5", "rotation": {"Points": [{"co": {"Y": 0.0, "X": 1.0}, "interpolation": 2}]}, "effects": [], "crop_height": {"Points": [{"co": {"Y": -1.0, "X": 1.0}, "interpolation": 2}]}, "perspective_c1_y": {"Points": [{"co": {"Y": -1.0, "X": 1.0}, "interpolation": 2}]}, "anchor": 0, "channel_filter": {"Points": [{"co": {"Y": -1.0, "X": 1.0}, "interpolation": 2}]}, "perspective_c1_x": {"Points": [{"co": {"Y": -1.0, "X": 1.0}, "interpolation": 2}]}, "end": 10, "alpha": {"Points": [{"co": {"Y": 1.0, "X": 1.0}, "interpolation": 2}]}, "gravity": 4, "crop_x": {"Points": [{"co": {"Y": 0.0, "X": 1.0}, "interpolation": 2}]}, "perspective_c4_x": {"Points": [{"co": {"Y": -1.0, "X": 1.0}, "interpolation": 2}]}, "crop_y": {"Points": [{"co": {"Y": 0.0, "X": 1.0}, "interpolation": 2}]}}, "partial": false}, {"old_values": {"perspective_c3_y": {"Points": [{"co": {"Y": -1.0, "X": 1.0}, "interpolation": 2}]}, "duration": 86400.0, "scale": 1, "perspective_c2_y": {"Points": [{"co": {"Y": -1.0, "X": 1.0}, "interpolation": 2}]}, "perspective_c4_y": {"Points": [{"co": {"Y": -1.0, "X": 1.0}, "interpolation": 2}]}, "effects": [], "perspective_c2_x": {"Points": [{"co": {"Y": -1.0, "X": 1.0}, "interpolation": 2}]}, "display": 0, "wave_color": {"blue": {"Points": [{"co": {"Y": 255.0, "X": 1.0}, "interpolation": 0, "handle_type": 0, "handle_left": {"Y": 1.0, "X": 0.5}, "handle_right": {"Y": 0.0, "X": 0.5}}]}, "alpha": {"Points": [{"co": {"Y": 255.0, "X": 1.0}, "interpolation": 0, "handle_type": 0, "handle_left": {"Y": 1.0, "X": 0.5}, "handle_right": {"Y": 0.0, "X": 0.5}}]}, "green": {"Points": [{"co": {"Y": 123.0, "X": 1.0}, "interpolation": 0, "handle_type": 0, "handle_left": {"Y": 1.0, "X": 0.5}, "handle_right": {"Y": 0.0, "X": 0.5}}]}, "red": {"Points": [{"co": {"Y": 0.0, "X": 1.0}, "interpolation": 0, "handle_type": 0, "handle_left": {"Y": 1.0, "X": 0.5}, "handle_right": {"Y": 0.0, "X": 0.5}}]}}, "scale_y": {"Points": [{"co": {"Y": 1.0, "X": 1.0}, "interpolation": 2}]}, "shear_y": {"Points": [{"co": {"Y": 0.0, "X": 1.0}, "interpolation": 2}]}, "location_x": {"Points": [{"co": {"Y": 0.0, "X": 1.0}, "interpolation": 2}]}, "crop_width": {"Points": [{"co": {"Y": -1.0, "X": 1.0}, "interpolation": 2}]}, "image": "/home/milind/.openshot_qt/thumbnail/1JJFCFURL5.png", "location_y": {"Points": [{"co": {"Y": 0.0, "X": 1.0}, "interpolation": 2}]}, "start": 0.0, "scale_x": {"Points": [{"co": {"Y": 1.0, "X": 1.0}, "interpolation": 2}]}, "has_audio": {"Points": [{"co": {"Y": -1.0, "X": 1.0}, "interpolation": 2}]}, "waveform": false, "time": {"Points": [{"co": {"Y": 1.0, "X": 1.0}, "interpolation": 2}]}, "perspective_c3_x": {"Points": [{"co": {"Y": -1.0, "X": 1.0}, "interpolation": 2}]}, "channel_mapping": {"Points": [{"co": {"Y": -1.0, "X": 1.0}, "interpolation": 2}]}, "perspective_c1_x": {"Points": [{"co": {"Y": -1.0, "X": 1.0}, "interpolation": 2}]}, "position": 32.48, "alpha": {"Points": [{"co": {"Y": 1.0, "X": 1.0}, "interpolation": 2}]}, "reader": {"height": 1104, "duration": 86400.0, "type": "QtImageReader", "width": 1920, "display_ratio": {"num": 40, "den": 23}, "video_bit_rate": 0, "sample_rate": 0, "video_length": "2592000", "has_audio": false, "path": "/home/milind/Data/Projects/CTTdemo/assets/closing.svg", "video_stream_index": -1, "pixel_ratio": {"num": 1, "den": 1}, "channel_layout": 4, "channels": 0, "audio_bit_rate": 0, "video_timebase": {"num": 1, "den": 30}, "has_video": true, "file_size": "8478720", "acodec": "", "interlaced_frame": false, "audio_stream_index": -1, "audio_timebase": {"num": 1, "den": 1}, "top_field_first": true, "has_single_image": true, "fps": {"num": 30, "den": 1}, "vcodec": "", "pixel_format": -1}, "volume": {"Points": [{"co": {"Y": 1.0, "X": 1.0}, "interpolation": 2}]}, "shear_x": {"Points": [{"co": {"Y": 0.0, "X": 1.0}, "interpolation": 2}]}, "file_id": "1JJFCFURL5", "rotation": {"Points": [{"co": {"Y": 0.0, "X": 1.0}, "interpolation": 2}]}, "title": "closing.svg", "crop_height": {"Points": [{"co": {"Y": -1.0, "X": 1.0}, "interpolation": 2}]}, "perspective_c1_y": {"Points": [{"co": {"Y": -1.0, "X": 1.0}, "interpolation": 2}]}, "layer": 4, "channel_filter": {"Points": [{"co": {"Y": -1.0, "X": 1.0}, "interpolation": 2}]}, "end": 10.0, "id": "Y4HR9DGMO3", "gravity": 4, "anchor": 0, "has_video": {"Points": [{"co": {"Y": -1.0, "X": 1.0}, "interpolation": 2}]}, "crop_x": {"Points": [{"co": {"Y": 0.0, "X": 1.0}, "interpolation": 2}]}, "perspective_c4_x": {"Points": [{"co": {"Y": -1.0, "X": 1.0}, "interpolation": 2}]}, "crop_y": {"Points": [{"co": {"Y": 0.0, "X": 1.0}, "interpolation": 2}]}}, "type": "update", "key": ["clips", {"id": "Y4HR9DGMO3"}], "value": {"image": "/home/milind/.openshot_qt/thumbnail/1JJFCFURL5.png", "start": 0, "end": 10, "layer": 4, "position": 31, "id": "Y4HR9DGMO3"}, "partial": false}, {"old_values": {"height": 1104, "duration": 86400.0, "type": "QtImageReader", "audio_timebase": {"num": 1, "den": 1}, "width": 1920, "display_ratio": {"num": 40, "den": 23}, "video_bit_rate": 0, "sample_rate": 0, "video_length": "2592000", "channel_layout": 4, "path": "/home/milind/Data/Projects/CTTdemo/assets/closing.svg", "video_stream_index": -1, "pixel_ratio": {"num": 1, "den": 1}, "has_audio": false, "channels": 0, "audio_bit_rate": 0, "video_timebase": {"num": 1, "den": 30}, "has_video": true, "pixel_format": -1, "acodec": "", "interlaced_frame": false, "audio_stream_index": -1, "file_size": "8478720", "top_field_first": true, "has_single_image": true, "id": "1JJFCFURL5", "fps": {"num": 30, "den": 1}, "vcodec": "", "media_type": "image"}, "type": "delete", "key": ["files", {"id": "1JJFCFURL5"}], "value": null, "partial": false}, {"old_values": {"perspective_c3_y": {"Points": [{"co": {"Y": -1.0, "X": 1.0}, "interpolation": 2}]}, "duration": 86400.0, "image": "/home/milind/.openshot_qt/thumbnail/1JJFCFURL5.png", "perspective_c2_y": {"Points": [{"co": {"Y": -1.0, "X": 1.0}, "interpolation": 2}]}, "time": {"Points": [{"co": {"Y": 1.0, "X": 1.0}, "interpolation": 2}]}, "title": "closing.svg", "perspective_c2_x": {"Points": [{"co": {"Y": -1.0, "X": 1.0}, "interpolation": 2}]}, "display": 0, "wave_color": {"blue": {"Points": [{"co": {"Y": 255.0, "X": 1.0}, "interpolation": 0, "handle_type": 0, "handle_left": {"Y": 1.0, "X": 0.5}, "handle_right": {"Y": 0.0, "X": 0.5}}]}, "alpha": {"Points": [{"co": {"Y": 255.0, "X": 1.0}, "interpolation": 0, "handle_type": 0, "handle_left": {"Y": 1.0, "X": 0.5}, "handle_right": {"Y": 0.0, "X": 0.5}}]}, "green": {"Points": [{"co": {"Y": 123.0, "X": 1.0}, "interpolation": 0, "handle_type": 0, "handle_left": {"Y": 1.0, "X": 0.5}, "handle_right": {"Y": 0.0, "X": 0.5}}]}, "red": {"Points": [{"co": {"Y": 0.0, "X": 1.0}, "interpolation": 0, "handle_type": 0, "handle_left": {"Y": 1.0, "X": 0.5}, "handle_right": {"Y": 0.0, "X": 0.5}}]}}, "alpha": {"Points": [{"co": {"Y": 1.0, "X": 1.0}, "interpolation": 2}]}, "gravity": 4, "shear_y": {"Points": [{"co": {"Y": 0.0, "X": 1.0}, "interpolation": 2}]}, "scale": 1, "location_x": {"Points": [{"co": {"Y": 0.0, "X": 1.0}, "interpolation": 2}]}, "crop_width": {"Points": [{"co": {"Y": -1.0, "X": 1.0}, "interpolation": 2}]}, "location_y": {"Points": [{"co": {"Y": 0.0, "X": 1.0}, "interpolation": 2}]}, "start": 0, "scale_x": {"Points": [{"co": {"Y": 1.0, "X": 1.0}, "interpolation": 2}]}, "has_audio": {"Points": [{"co": {"Y": -1.0, "X": 1.0}, "interpolation": 2}]}, "perspective_c4_y": {"Points": [{"co": {"Y": -1.0, "X": 1.0}, "interpolation": 2}]}, "perspective_c3_x": {"Points": [{"co": {"Y": -1.0, "X": 1.0}, "interpolation": 2}]}, "layer": 4, "position": 21.24, "id": "1JADABT8ES", "perspective_c1_y": {"Points": [{"co": {"Y": -1.0, "X": 1.0}, "interpolation": 2}]}, "reader": {"height": 1104, "duration": 86400.0, "type": "QtImageReader", "width": 1920, "display_ratio": {"num": 40, "den": 23}, "video_bit_rate": 0, "sample_rate": 0, "video_length": "2592000", "has_audio": false, "path": "/home/milind/Data/Projects/CTTdemo/assets/closing.svg", "video_stream_index": -1, "pixel_ratio": {"num": 1, "den": 1}, "channel_layout": 4, "channels": 0, "audio_bit_rate": 0, "video_timebase": {"num": 1, "den": 30}, "has_video": true, "file_size": "8478720", "acodec": "", "interlaced_frame": false, "audio_stream_index": -1, "audio_timebase": {"num": 1, "den": 1}, "top_field_first": true, "has_single_image": true, "fps": {"num": 30, "den": 1}, "vcodec": "", "pixel_format": -1}, "volume": {"Points": [{"co": {"Y": 1.0, "X": 1.0}, "interpolation": 2}]}, "shear_x": {"Points": [{"co": {"Y": 0.0, "X": 1.0}, "interpolation": 2}]}, "file_id": "1JJFCFURL5", "rotation": {"Points": [{"co": {"Y": 0.0, "X": 1.0}, "interpolation": 2}]}, "effects": [], "crop_height": {"Points": [{"co": {"Y": -1.0, "X": 1.0}, "interpolation": 2}]}, "channel_mapping": {"Points": [{"co": {"Y": -1.0, "X": 1.0}, "interpolation": 2}]}, "anchor": 0, "channel_filter": {"Points": [{"co": {"Y": -1.0, "X": 1.0}, "interpolation": 2}]}, "perspective_c1_x": {"Points": [{"co": {"Y": -1.0, "X": 1.0}, "interpolation": 2}]}, "waveform": false, "has_video": {"Points": [{"co": {"Y": -1.0, "X": 1.0}, "interpolation": 2}]}, "scale_y": {"Points": [{"co": {"Y": 1.0, "X": 1.0}, "interpolation": 2}]}, "crop_x": {"Points": [{"co": {"Y": 0.0, "X": 1.0}, "interpolation": 2}]}, "end": 10, "perspective_c4_x": {"Points": [{"co": {"Y": -1.0, "X": 1.0}, "interpolation": 2}]}, "crop_y": {"Points": [{"co": {"Y": 0.0, "X": 1.0}, "interpolation": 2}]}}, "type": "delete", "key": ["clips", {"id": "1JADABT8ES"}], "value": null, "partial": false}, {"old_values": {"perspective_c3_y": {"Points": [{"co": {"Y": -1.0, "X": 1.0}, "interpolation": 2}]}, "duration": 86400.0, "image": "/home/milind/.openshot_qt/thumbnail/1JJFCFURL5.png", "perspective_c2_y": {"Points": [{"co": {"Y": -1.0, "X": 1.0}, "interpolation": 2}]}, "time": {"Points": [{"co": {"Y": 1.0, "X": 1.0}, "interpolation": 2}]}, "title": "closing.svg", "perspective_c2_x": {"Points": [{"co": {"Y": -1.0, "X": 1.0}, "interpolation": 2}]}, "display": 0, "wave_color": {"blue": {"Points": [{"co": {"Y": 255.0, "X": 1.0}, "interpolation": 0, "handle_type": 0, "handle_left": {"Y": 1.0, "X": 0.5}, "handle_right": {"Y": 0.0, "X": 0.5}}]}, "alpha": {"Points": [{"co": {"Y": 255.0, "X": 1.0}, "interpolation": 0, "handle_type": 0, "handle_left": {"Y": 1.0, "X": 0.5}, "handle_right": {"Y": 0.0, "X": 0.5}}]}, "green": {"Points": [{"co": {"Y": 123.0, "X": 1.0}, "interpolation": 0, "handle_type": 0, "handle_left": {"Y": 1.0, "X": 0.5}, "handle_right": {"Y": 0.0, "X": 0.5}}]}, "red": {"Points": [{"co": {"Y": 0.0, "X": 1.0}, "interpolation": 0, "handle_type": 0, "handle_left": {"Y": 1.0, "X": 0.5}, "handle_right": {"Y": 0.0, "X": 0.5}}]}}, "alpha": {"Points": [{"co": {"Y": 1.0, "X": 1.0}, "interpolation": 2}]}, "gravity": 4, "shear_y": {"Points": [{"co": {"Y": 0.0, "X": 1.0}, "interpolation": 2}]}, "scale": 1, "location_x": {"Points": [{"co": {"Y": 0.0, "X": 1.0}, "interpolation": 2}]}, "crop_width": {"Points": [{"co": {"Y": -1.0, "X": 1.0}, "interpolation": 2}]}, "location_y": {"Points": [{"co": {"Y": 0.0, "X": 1.0}, "interpolation": 2}]}, "start": 0, "scale_x": {"Points": [{"co": {"Y": 1.0, "X": 1.0}, "interpolation": 2}]}, "has_audio": {"Points": [{"co": {"Y": -1.0, "X": 1.0}, "interpolation": 2}]}, "perspective_c4_y": {"Points": [{"co": {"Y": -1.0, "X": 1.0}, "interpolation": 2}]}, "perspective_c3_x": {"Points": [{"co": {"Y": -1.0, "X": 1.0}, "interpolation": 2}]}, "layer": 4, "position": 31, "id": "Y4HR9DGMO3", "perspective_c1_y": {"Points": [{"co": {"Y": -1.0, "X": 1.0}, "interpolation": 2}]}, "reader": {"height": 1104, "duration": 86400.0, "type": "QtImageReader", "width": 1920, "display_ratio": {"num": 40, "den": 23}, "video_bit_rate": 0, "sample_rate": 0, "video_length": "2592000", "has_audio": false, "path": "/home/milind/Data/Projects/CTTdemo/assets/closing.svg", "video_stream_index": -1, "pixel_ratio": {"num": 1, "den": 1}, "channel_layout": 4, "channels": 0, "audio_bit_rate": 0, "video_timebase": {"num": 1, "den": 30}, "has_video": true, "file_size": "8478720", "acodec": "", "interlaced_frame": false, "audio_stream_index": -1, "audio_timebase": {"num": 1, "den": 1}, "top_field_first": true, "has_single_image": true, "fps": {"num": 30, "den": 1}, "vcodec": "", "pixel_format": -1}, "volume": {"Points": [{"co": {"Y": 1.0, "X": 1.0}, "interpolation": 2}]}, "shear_x": {"Points": [{"co": {"Y": 0.0, "X": 1.0}, "interpolation": 2}]}, "file_id": "1JJFCFURL5", "rotation": {"Points": [{"co": {"Y": 0.0, "X": 1.0}, "interpolation": 2}]}, "effects": [], "crop_height": {"Points": [{"co": {"Y": -1.0, "X": 1.0}, "interpolation": 2}]}, "channel_mapping": {"Points": [{"co": {"Y": -1.0, "X": 1.0}, "interpolation": 2}]}, "anchor": 0, "channel_filter": {"Points": [{"co": {"Y": -1.0, "X": 1.0}, "interpolation": 2}]}, "perspective_c1_x": {"Points": [{"co": {"Y": -1.0, "X": 1.0}, "interpolation": 2}]}, "waveform": false, "has_video": {"Points": [{"co": {"Y": -1.0, "X": 1.0}, "interpolation": 2}]}, "scale_y": {"Points": [{"co": {"Y": 1.0, "X": 1.0}, "interpolation": 2}]}, "crop_x": {"Points": [{"co": {"Y": 0.0, "X": 1.0}, "interpolation": 2}]}, "end": 10, "perspective_c4_x": {"Points": [{"co": {"Y": -1.0, "X": 1.0}, "interpolation": 2}]}, "crop_y": {"Points": [{"co": {"Y": 0.0, "X": 1.0}, "interpolation": 2}]}}, "type": "delete", "key": ["clips", {"id": "Y4HR9DGMO3"}], "value": null, "partial": false}, {"old_values": {"height": 1104, "duration": 86400.0, "type": "QtImageReader", "audio_timebase": {"num": 1, "den": 1}, "width": 1920, "display_ratio": {"num": 40, "den": 23}, "video_bit_rate": 0, "sample_rate": 0, "video_length": "2592000", "channel_layout": 4, "path": "/home/milind/Data/Projects/CTTdemo/assets/ILUG-MSG.svg", "video_stream_index": -1, "pixel_ratio": {"num": 1, "den": 1}, "has_audio": false, "channels": 0, "audio_bit_rate": 0, "video_timebase": {"num": 1, "den": 30}, "has_video": true, "pixel_format": -1, "acodec": "", "interlaced_frame": false, "audio_stream_index": -1, "file_size": "8478720", "top_field_first": true, "has_single_image": true, "id": "0KW4LO7TNI", "fps": {"num": 30, "den": 1}, "vcodec": "", "media_type": "image"}, "type": "delete", "key": ["files", {"id": "0KW4LO7TNI"}], "value": null, "partial": false}, {"old_values": {"perspective_c3_y": {"Points": [{"co": {"Y": -1.0, "X": 1.0}, "interpolation": 2}]}, "duration": 86400.0, "image": "/home/milind/.openshot_qt/thumbnail/0KW4LO7TNI.png", "perspective_c2_y": {"Points": [{"co": {"Y": -1.0, "X": 1.0}, "interpolation": 2}]}, "time": {"Points": [{"co": {"Y": 1.0, "X": 1.0}, "interpolation": 2}]}, "title": "ILUG-MSG.svg", "perspective_c2_x": {"Points": [{"co": {"Y": -1.0, "X": 1.0}, "interpolation": 2}]}, "display": 0, "wave_color": {"blue": {"Points": [{"co": {"Y": 255.0, "X": 1.0}, "interpolation": 0, "handle_type": 0, "handle_left": {"Y": 1.0, "X": 0.5}, "handle_right": {"Y": 0.0, "X": 0.5}}]}, "alpha": {"Points": [{"co": {"Y": 255.0, "X": 1.0}, "interpolation": 0, "handle_type": 0, "handle_left": {"Y": 1.0, "X": 0.5}, "handle_right": {"Y": 0.0, "X": 0.5}}]}, "green": {"Points": [{"co": {"Y": 123.0, "X": 1.0}, "interpolation": 0, "handle_type": 0, "handle_left": {"Y": 1.0, "X": 0.5}, "handle_right": {"Y": 0.0, "X": 0.5}}]}, "red": {"Points": [{"co": {"Y": 0.0, "X": 1.0}, "interpolation": 0, "handle_type": 0, "handle_left": {"Y": 1.0, "X": 0.5}, "handle_right": {"Y": 0.0, "X": 0.5}}]}}, "alpha": {"Points": [{"co": {"Y": 1.0, "X": 1.0}, "interpolation": 2}]}, "gravity": 4, "shear_y": {"Points": [{"co": {"Y": 0.0, "X": 1.0}, "interpolation": 2}]}, "scale": 1, "location_x": {"Points": [{"co": {"Y": 0.0, "X": 1.0}, "interpolation": 2}]}, "crop_width": {"Points": [{"co": {"Y": -1.0, "X": 1.0}, "interpolation": 2}]}, "location_y": {"Points": [{"co": {"Y": 0.0, "X": 1.0}, "interpolation": 2}]}, "start": 0, "scale_x": {"Points": [{"co": {"Y": 1.0, "X": 1.0}, "interpolation": 2}]}, "has_audio": {"Points": [{"co": {"Y": -1.0, "X": 1.0}, "interpolation": 2}]}, "perspective_c4_y": {"Points": [{"co": {"Y": -1.0, "X": 1.0}, "interpolation": 2}]}, "perspective_c3_x": {"Points": [{"co": {"Y": -1.0, "X": 1.0}, "interpolation": 2}]}, "layer": 4, "position": 45.44, "id": "6RUAPKL7GZ", "perspective_c1_y": {"Points": [{"co": {"Y": -1.0, "X": 1.0}, "interpolation": 2}]}, "reader": {"height": 1104, "duration": 86400.0, "type": "QtImageReader", "width": 1920, "display_ratio": {"num": 40, "den": 23}, "video_bit_rate": 0, "sample_rate": 0, "video_length": "2592000", "has_audio": false, "path": "/home/milind/Data/Projects/CTTdemo/assets/ILUG-MSG.svg", "video_stream_index": -1, "pixel_ratio": {"num": 1, "den": 1}, "channel_layout": 4, "channels": 0, "audio_bit_rate": 0, "video_timebase": {"num": 1, "den": 30}, "has_video": true, "file_size": "8478720", "acodec": "", "interlaced_frame": false, "audio_stream_index": -1, "audio_timebase": {"num": 1, "den": 1}, "top_field_first": true, "has_single_image": true, "fps": {"num": 30, "den": 1}, "vcodec": "", "pixel_format": -1}, "volume": {"Points": [{"co": {"Y": 1.0, "X": 1.0}, "interpolation": 2}]}, "shear_x": {"Points": [{"co": {"Y": 0.0, "X": 1.0}, "interpolation": 2}]}, "file_id": "0KW4LO7TNI", "rotation": {"Points": [{"co": {"Y": 0.0, "X": 1.0}, "interpolation": 2}]}, "effects": [], "crop_height": {"Points": [{"co": {"Y": -1.0, "X": 1.0}, "interpolation": 2}]}, "channel_mapping": {"Points": [{"co": {"Y": -1.0, "X": 1.0}, "interpolation": 2}]}, "anchor": 0, "channel_filter": {"Points": [{"co": {"Y": -1.0, "X": 1.0}, "interpolation": 2}]}, "perspective_c1_x": {"Points": [{"co": {"Y": -1.0, "X": 1.0}, "interpolation": 2}]}, "waveform": false, "has_video": {"Points": [{"co": {"Y": -1.0, "X": 1.0}, "interpolation": 2}]}, "scale_y": {"Points": [{"co": {"Y": 1.0, "X": 1.0}, "interpolation": 2}]}, "crop_x": {"Points": [{"co": {"Y": 0.0, "X": 1.0}, "interpolation": 2}]}, "end": 10, "perspective_c4_x": {"Points": [{"co": {"Y": -1.0, "X": 1.0}, "interpolation": 2}]}, "crop_y": {"Points": [{"co": {"Y": 0.0, "X": 1.0}, "interpolation": 2}]}}, "type": "delete", "key": ["clips", {"id": "6RUAPKL7GZ"}], "value": null, "partial": false}, {"old_values": [{"duration": 21.0, "type": "FFmpegReader", "width": 1366, "display_ratio": {"num": 683, "den": 384}, "video_bit_rate": 0, "sample_rate": 0, "video_length": "525", "has_audio": false, "path": "/home/milind/Data/Projects/CTTdemo/Demo-03-Renaming copy pasted Time-Slots.mkv", "video_stream_index": 0, "channel_layout": 4, "channels": 0, "audio_bit_rate": 0, "video_timebase": {"num": 1, "den": 1000}, "fps": {"num": 25, "den": 1}, "has_video": true, "file_size": "191199", "media_type": "video", "acodec": "", "vcodec": "h264", "interlaced_frame": false, "audio_stream_index": -1, "audio_timebase": {"num": 1, "den": 1}, "top_field_first": true, "has_single_image": false, "id": "89VB9QOG5Q", "height": 768, "pixel_ratio": {"num": 1, "den": 1}, "pixel_format": 0}], "type": "insert", "key": ["files"], "value": {"duration": 86400.0, "type": "QtImageReader", "width": 1920, "display_ratio": {"num": 40, "den": 23}, "video_bit_rate": 0, "sample_rate": 0, "video_length": "2592000", "has_audio": false, "path": "/home/milind/Data/Projects/CTTdemo/assets/ILUG-MSG.svg", "video_stream_index": -1, "channel_layout": 4, "channels": 0, "audio_bit_rate": 0, "video_timebase": {"num": 1, "den": 30}, "fps": {"num": 30, "den": 1}, "has_video": true, "file_size": "8478720", "media_type": "image", "acodec": "", "vcodec": "", "interlaced_frame": false, "audio_stream_index": -1, "audio_timebase": {"num": 1, "den": 1}, "top_field_first": true, "has_single_image": true, "id": "U6UPRJY8FR", "height": 1104, "pixel_ratio": {"num": 1, "den": 1}, "pixel_format": -1}, "partial": false}, {"old_values": [{"duration": 21.0, "type": "FFmpegReader", "width": 1366, "display_ratio": {"num": 683, "den": 384}, "video_bit_rate": 0, "sample_rate": 0, "video_length": "525", "has_audio": false, "path": "/home/milind/Data/Projects/CTTdemo/Demo-03-Renaming copy pasted Time-Slots.mkv", "video_stream_index": 0, "channel_layout": 4, "channels": 0, "audio_bit_rate": 0, "video_timebase": {"num": 1, "den": 1000}, "fps": {"num": 25, "den": 1}, "has_video": true, "file_size": "191199", "media_type": "video", "acodec": "", "vcodec": "h264", "interlaced_frame": false, "audio_stream_index": -1, "audio_timebase": {"num": 1, "den": 1}, "top_field_first": true, "has_single_image": false, "id": "89VB9QOG5Q", "height": 768, "pixel_ratio": {"num": 1, "den": 1}, "pixel_format": 0}, {"height": 1104, "duration": 86400.0, "type": "QtImageReader", "audio_timebase": {"num": 1, "den": 1}, "width": 1920, "display_ratio": {"num": 40, "den": 23}, "video_bit_rate": 0, "sample_rate": 0, "video_length": "2592000", "channel_layout": 4, "path": "/home/milind/Data/Projects/CTTdemo/assets/ILUG-MSG.svg", "video_stream_index": -1, "pixel_ratio": {"num": 1, "den": 1}, "has_audio": false, "channels": 0, "audio_bit_rate": 0, "video_timebase": {"num": 1, "den": 30}, "has_video": true, "pixel_format": -1, "acodec": "", "interlaced_frame": false, "audio_stream_index": -1, "file_size": "8478720", "top_field_first": true, "has_single_image": true, "id": "U6UPRJY8FR", "fps": {"num": 30, "den": 1}, "vcodec": "", "media_type": "image"}], "type": "insert", "key": ["files"], "value": {"duration": 86400.0, "type": "QtImageReader", "width": 1920, "display_ratio": {"num": 40, "den": 23}, "video_bit_rate": 0, "sample_rate": 0, "video_length": "2592000", "has_audio": false, "path": "/home/milind/Data/Projects/CTTdemo/assets/closing.svg", "video_stream_index": -1, "channel_layout": 4, "channels": 0, "audio_bit_rate": 0, "video_timebase": {"num": 1, "den": 30}, "fps": {"num": 30, "den": 1}, "has_video": true, "file_size": "8478720", "media_type": "image", "acodec": "", "vcodec": "", "interlaced_frame": false, "audio_stream_index": -1, "audio_timebase": {"num": 1, "den": 1}, "top_field_first": true, "has_single_image": true, "id": "P98G6MPRX5", "height": 1104, "pixel_ratio": {"num": 1, "den": 1}, "pixel_format": -1}, "partial": false}, {"old_values": [{"image": "/home/milind/.openshot_qt/thumbnail/89VB9QOG5Q.png", "duration": 21.0, "scale": 1, "perspective_c2_y": {"Points": [{"co": {"Y": -1.0, "X": 1.0}, "interpolation": 2}]}, "time": {"Points": [{"co": {"Y": 1.0, "X": 1.0}, "interpolation": 2}]}, "title": "Demo-03-Renaming copy pasted Time-Slots.mkv", "perspective_c2_x": {"Points": [{"co": {"Y": -1.0, "X": 1.0}, "interpolation": 2}]}, "waveform": false, "wave_color": {"blue": {"Points": [{"co": {"Y": 255.0, "X": 1.0}, "interpolation": 0, "handle_type": 0, "handle_left": {"Y": 1.0, "X": 0.5}, "handle_right": {"Y": 0.0, "X": 0.5}}]}, "alpha": {"Points": [{"co": {"Y": 255.0, "X": 1.0}, "interpolation": 0, "handle_type": 0, "handle_left": {"Y": 1.0, "X": 0.5}, "handle_right": {"Y": 0.0, "X": 0.5}}]}, "red": {"Points": [{"co": {"Y": 0.0, "X": 1.0}, "interpolation": 0, "handle_type": 0, "handle_left": {"Y": 1.0, "X": 0.5}, "handle_right": {"Y": 0.0, "X": 0.5}}]}, "green": {"Points": [{"co": {"Y": 123.0, "X": 1.0}, "interpolation": 0, "handle_type": 0, "handle_left": {"Y": 1.0, "X": 0.5}, "handle_right": {"Y": 0.0, "X": 0.5}}]}}, "scale_y": {"Points": [{"co": {"Y": 1.0, "X": 1.0}, "interpolation": 2}]}, "shear_y": {"Points": [{"co": {"Y": 0.0, "X": 1.0}, "interpolation": 2}]}, "scale_x": {"Points": [{"co": {"Y": 1.0, "X": 1.0}, "interpolation": 2}]}, "crop_width": {"Points": [{"co": {"Y": -1.0, "X": 1.0}, "interpolation": 2}]}, "location_y": {"Points": [{"co": {"Y": 0.0, "X": 1.0}, "interpolation": 2}]}, "start": 0, "location_x": {"Points": [{"co": {"Y": 0.0, "X": 1.0}, "interpolation": 2}]}, "has_audio": {"Points": [{"co": {"Y": -1.0, "X": 1.0}, "interpolation": 2}]}, "perspective_c4_y": {"Points": [{"co": {"Y": -1.0, "X": 1.0}, "interpolation": 2}]}, "perspective_c3_x": {"Points": [{"co": {"Y": -1.0, "X": 1.0}, "interpolation": 2}]}, "channel_mapping": {"Points": [{"co": {"Y": -1.0, "X": 1.0}, "interpolation": 2}]}, "layer": 4, "position": 0, "alpha": {"Points": [{"co": {"Y": 1.0, "X": 1.0}, "interpolation": 2}, {"co": {"Y": 0.0, "X": 1.0}, "interpolation": 0, "handle_type": 0, "handle_left": {"Y": 1.0, "X": 0.5}, "handle_right": {"Y": 0.0, "X": 0.5}}, {"co": {"Y": 1.0, "X": 73.0}, "interpolation": 0, "handle_type": 0, "handle_left": {"Y": 1.0, "X": 0.5}, "handle_right": {"Y": 0.0, "X": 0.5}}, {"co": {"Y": 1.0, "X": 433.0}, "interpolation": 0, "handle_type": 0, "handle_left": {"Y": 1.0, "X": 0.5}, "handle_right": {"Y": 0.0, "X": 0.5}}, {"co": {"Y": 0.0, "X": 505.0}, "interpolation": 0, "handle_type": 0, "handle_left": {"Y": 1.0, "X": 0.5}, "handle_right": {"Y": 0.0, "X": 0.5}}]}, "reader": {"duration": 21.0, "type": "FFmpegReader", "width": 1366, "display_ratio": {"num": 683, "den": 384}, "video_bit_rate": 0, "sample_rate": 0, "video_length": "525", "has_audio": false, "path": "/home/milind/Data/Projects/CTTdemo/Demo-03-Renaming copy pasted Time-Slots.mkv", "video_stream_index": 0, "channel_layout": 4, "channels": 0, "audio_bit_rate": 0, "video_timebase": {"num": 1, "den": 1000}, "fps": {"num": 25, "den": 1}, "has_video": true, "file_size": "191199", "acodec": "", "vcodec": "h264", "interlaced_frame": false, "audio_stream_index": -1, "audio_timebase": {"num": 1, "den": 1}, "top_field_first": true, "has_single_image": false, "height": 768, "pixel_ratio": {"num": 1, "den": 1}, "pixel_format": 0}, "volume": {"Points": [{"co": {"Y": 1.0, "X": 1.0}, "interpolation": 2}]}, "shear_x": {"Points": [{"co": {"Y": 0.0, "X": 1.0}, "interpolation": 2}]}, "file_id": "89VB9QOG5Q", "rotation": {"Points": [{"co": {"Y": 0.0, "X": 1.0}, "interpolation": 2}]}, "effects": [], "crop_height": {"Points": [{"co": {"Y": -1.0, "X": 1.0}, "interpolation": 2}]}, "perspective_c1_y": {"Points": [{"co": {"Y": -1.0, "X": 1.0}, "interpolation": 2}]}, "anchor": 0, "channel_filter": {"Points": [{"co": {"Y": -1.0, "X": 1.0}, "interpolation": 2}]}, "perspective_c1_x": {"Points": [{"co": {"Y": -1.0, "X": 1.0}, "interpolation": 2}]}, "display": 0, "perspective_c3_y": {"Points": [{"co": {"Y": -1.0, "X": 1.0}, "interpolation": 2}]}, "id": "DST1B0379I", "gravity": 4, "crop_x": {"Points": [{"co": {"Y": 0.0, "X": 1.0}, "interpolation": 2}]}, "has_video": {"Points": [{"co": {"Y": -1.0, "X": 1.0}, "interpolation": 2}]}, "end": 21, "perspective_c4_x": {"Points": [{"co": {"Y": -1.0, "X": 1.0}, "interpolation": 2}]}, "crop_y": {"Points": [{"co": {"Y": 0.0, "X": 1.0}, "interpolation": 2}]}}], "type": "insert", "key": ["clips"], "value": {"perspective_c3_y": {"Points": [{"co": {"Y": -1.0, "X": 1.0}, "interpolation": 2}]}, "duration": 86400.0, "image": "/home/milind/.openshot_qt/thumbnail/P98G6MPRX5.png", "perspective_c2_y": {"Points": [{"co": {"Y": -1.0, "X": 1.0}, "interpolation": 2}]}, "time": {"Points": [{"co": {"Y": 1.0, "X": 1.0}, "interpolation": 2}]}, "title": "closing.svg", "perspective_c2_x": {"Points": [{"co": {"Y": -1.0, "X": 1.0}, "interpolation": 2}]}, "display": 0, "wave_color": {"blue": {"Points": [{"co": {"Y": 255.0, "X": 1.0}, "interpolation": 0, "handle_type": 0, "handle_left": {"Y": 1.0, "X": 0.5}, "handle_right": {"Y": 0.0, "X": 0.5}}]}, "red": {"Points": [{"co": {"Y": 0.0, "X": 1.0}, "interpolation": 0, "handle_type": 0, "handle_left": {"Y": 1.0, "X": 0.5}, "handle_right": {"Y": 0.0, "X": 0.5}}]}, "green": {"Points": [{"co": {"Y": 123.0, "X": 1.0}, "interpolation": 0, "handle_type": 0, "handle_left": {"Y": 1.0, "X": 0.5}, "handle_right": {"Y": 0.0, "X": 0.5}}]}, "alpha": {"Points": [{"co": {"Y": 255.0, "X": 1.0}, "interpolation": 0, "handle_type": 0, "handle_left": {"Y": 1.0, "X": 0.5}, "handle_right": {"Y": 0.0, "X": 0.5}}]}}, "scale_y": {"Points": [{"co": {"Y": 1.0, "X": 1.0}, "interpolation": 2}]}, "shear_y": {"Points": [{"co": {"Y": 0.0, "X": 1.0}, "interpolation": 2}]}, "scale": 1, "location_x": {"Points": [{"co": {"Y": 0.0, "X": 1.0}, "interpolation": 2}, {"co": {"Y": 0.0, "X": 1.0}, "interpolation": 0, "handle_type": 0, "handle_left": {"Y": 1.0, "X": 0.5}, "handle_right": {"Y": 0.0, "X": 0.5}}, {"co": {"Y": 0.0, "X": 25.0}, "interpolation": 0, "handle_type": 0, "handle_left": {"Y": 1.0, "X": 0.5}, "handle_right": {"Y": 0.0, "X": 0.5}}]}, "crop_width": {"Points": [{"co": {"Y": -1.0, "X": 1.0}, "interpolation": 2}]}, "id": "O7P5OITE5D", "location_y": {"Points": [{"co": {"Y": 0.0, "X": 1.0}, "interpolation": 2}, {"co": {"Y": 1.0, "X": 1.0}, "interpolation": 0, "handle_type": 0, "handle_left": {"Y": 1.0, "X": 0.5}, "handle_right": {"Y": 0.0, "X": 0.5}}, {"co": {"Y": 0.0, "X": 25.0}, "interpolation": 0, "handle_type": 0, "handle_left": {"Y": 1.0, "X": 0.5}, "handle_right": {"Y": 0.0, "X": 0.5}}]}, "start": 0, "scale_x": {"Points": [{"co": {"Y": 1.0, "X": 1.0}, "interpolation": 2}]}, "has_audio": {"Points": [{"co": {"Y": -1.0, "X": 1.0}, "interpolation": 2}]}, "waveform": false, "perspective_c4_y": {"Points": [{"co": {"Y": -1.0, "X": 1.0}, "interpolation": 2}]}, "perspective_c3_x": {"Points": [{"co": {"Y": -1.0, "X": 1.0}, "interpolation": 2}]}, "channel_mapping": {"Points": [{"co": {"Y": -1.0, "X": 1.0}, "interpolation": 2}]}, "layer": 4, "position": 21.24, "has_video": {"Points": [{"co": {"Y": -1.0, "X": 1.0}, "interpolation": 2}]}, "reader": {"duration": 86400.0, "type": "QtImageReader", "audio_timebase": {"num": 1, "den": 1}, "width": 1920, "display_ratio": {"num": 40, "den": 23}, "video_bit_rate": 0, "sample_rate": 0, "video_length": "2592000", "has_audio": false, "path": "/home/milind/Data/Projects/CTTdemo/assets/closing.svg", "video_stream_index": -1, "channel_layout": 4, "channels": 0, "audio_bit_rate": 0, "video_timebase": {"num": 1, "den": 30}, "fps": {"num": 30, "den": 1}, "has_video": true, "acodec": "", "vcodec": "", "interlaced_frame": false, "audio_stream_index": -1, "file_size": "8478720", "top_field_first": true, "has_single_image": true, "height": 1104, "pixel_ratio": {"num": 1, "den": 1}, "pixel_format": -1}, "volume": {"Points": [{"co": {"Y": 1.0, "X": 1.0}, "interpolation": 2}]}, "shear_x": {"Points": [{"co": {"Y": 0.0, "X": 1.0}, "interpolation": 2}]}, "file_id": "P98G6MPRX5", "rotation": {"Points": [{"co": {"Y": 0.0, "X": 1.0}, "interpolation": 2}]}, "effects": [], "crop_height": {"Points": [{"co": {"Y": -1.0, "X": 1.0}, "interpolation": 2}]}, "perspective_c1_y": {"Points": [{"co": {"Y": -1.0, "X": 1.0}, "interpolation": 2}]}, "anchor": 0, "channel_filter": {"Points": [{"co": {"Y": -1.0, "X": 1.0}, "interpolation": 2}]}, "perspective_c1_x": {"Points": [{"co": {"Y": -1.0, "X": 1.0}, "interpolation": 2}]}, "end": 10, "alpha": {"Points": [{"co": {"Y": 1.0, "X": 1.0}, "interpolation": 2}, {"co": {"Y": 0.0, "X": 1.0}, "interpolation": 0, "handle_type": 0, "handle_left": {"Y": 1.0, "X": 0.5}, "handle_right": {"Y": 0.0, "X": 0.5}}, {"co": {"Y": 1.0, "X": 73.0}, "interpolation": 0, "handle_type": 0, "handle_left": {"Y": 1.0, "X": 0.5}, "handle_right": {"Y": 0.0, "X": 0.5}}]}, "gravity": 4, "crop_x": {"Points": [{"co": {"Y": 0.0, "X": 1.0}, "interpolation": 2}]}, "perspective_c4_x": {"Points": [{"co": {"Y": -1.0, "X": 1.0}, "interpolation": 2}]}, "crop_y": {"Points": [{"co": {"Y": 0.0, "X": 1.0}, "interpolation": 2}]}}, "partial": false}, {"old_values": {"perspective_c3_y": {"Points": [{"co": {"Y": -1.0, "X": 1.0}, "interpolation": 2}]}, "duration": 86400.0, "scale": 1, "perspective_c2_y": {"Points": [{"co": {"Y": -1.0, "X": 1.0}, "interpolation": 2}]}, "perspective_c4_y": {"Points": [{"co": {"Y": -1.0, "X": 1.0}, "interpolation": 2}]}, "effects": [], "perspective_c2_x": {"Points": [{"co": {"Y": -1.0, "X": 1.0}, "interpolation": 2}]}, "display": 0, "wave_color": {"blue": {"Points": [{"co": {"Y": 255.0, "X": 1.0}, "interpolation": 0, "handle_type": 0, "handle_left": {"Y": 1.0, "X": 0.5}, "handle_right": {"Y": 0.0, "X": 0.5}}]}, "alpha": {"Points": [{"co": {"Y": 255.0, "X": 1.0}, "interpolation": 0, "handle_type": 0, "handle_left": {"Y": 1.0, "X": 0.5}, "handle_right": {"Y": 0.0, "X": 0.5}}]}, "green": {"Points": [{"co": {"Y": 123.0, "X": 1.0}, "interpolation": 0, "handle_type": 0, "handle_left": {"Y": 1.0, "X": 0.5}, "handle_right": {"Y": 0.0, "X": 0.5}}]}, "red": {"Points": [{"co": {"Y": 0.0, "X": 1.0}, "interpolation": 0, "handle_type": 0, "handle_left": {"Y": 1.0, "X": 0.5}, "handle_right": {"Y": 0.0, "X": 0.5}}]}}, "scale_y": {"Points": [{"co": {"Y": 1.0, "X": 1.0}, "interpolation": 2}]}, "shear_y": {"Points": [{"co": {"Y": 0.0, "X": 1.0}, "interpolation": 2}]}, "location_x": {"Points": [{"co": {"Y": 0.0, "X": 1.0}, "interpolation": 2}]}, "crop_width": {"Points": [{"co": {"Y": -1.0, "X": 1.0}, "interpolation": 2}]}, "image": "/home/milind/.openshot_qt/thumbnail/P98G6MPRX5.png", "location_y": {"Points": [{"co": {"Y": 0.0, "X": 1.0}, "interpolation": 2}]}, "start": 0.0, "scale_x": {"Points": [{"co": {"Y": 1.0, "X": 1.0}, "interpolation": 2}]}, "has_audio": {"Points": [{"co": {"Y": -1.0, "X": 1.0}, "interpolation": 2}]}, "waveform": false, "time": {"Points": [{"co": {"Y": 1.0, "X": 1.0}, "interpolation": 2}]}, "perspective_c3_x": {"Points": [{"co": {"Y": -1.0, "X": 1.0}, "interpolation": 2}]}, "channel_mapping": {"Points": [{"co": {"Y": -1.0, "X": 1.0}, "interpolation": 2}]}, "perspective_c1_x": {"Points": [{"co": {"Y": -1.0, "X": 1.0}, "interpolation": 2}]}, "position": 18.24, "alpha": {"Points": [{"co": {"Y": 1.0, "X": 1.0}, "interpolation": 2}]}, "reader": {"height": 1104, "duration": 86400.0, "type": "QtImageReader", "width": 1920, "display_ratio": {"num": 40, "den": 23}, "video_bit_rate": 0, "sample_rate": 0, "video_length": "2592000", "has_audio": false, "path": "/home/milind/Data/Projects/CTTdemo/assets/closing.svg", "video_stream_index": -1, "pixel_ratio": {"num": 1, "den": 1}, "channel_layout": 4, "channels": 0, "audio_bit_rate": 0, "video_timebase": {"num": 1, "den": 30}, "has_video": true, "file_size": "8478720", "acodec": "", "interlaced_frame": false, "audio_stream_index": -1, "audio_timebase": {"num": 1, "den": 1}, "top_field_first": true, "has_single_image": true, "fps": {"num": 30, "den": 1}, "vcodec": "", "pixel_format": -1}, "volume": {"Points": [{"co": {"Y": 1.0, "X": 1.0}, "interpolation": 2}]}, "shear_x": {"Points": [{"co": {"Y": 0.0, "X": 1.0}, "interpolation": 2}]}, "file_id": "P98G6MPRX5", "rotation": {"Points": [{"co": {"Y": 0.0, "X": 1.0}, "interpolation": 2}]}, "title": "closing.svg", "crop_height": {"Points": [{"co": {"Y": -1.0, "X": 1.0}, "interpolation": 2}]}, "perspective_c1_y": {"Points": [{"co": {"Y": -1.0, "X": 1.0}, "interpolation": 2}]}, "layer": 4, "channel_filter": {"Points": [{"co": {"Y": -1.0, "X": 1.0}, "interpolation": 2}]}, "end": 10.0, "id": "O7P5OITE5D", "gravity": 4, "anchor": 0, "has_video": {"Points": [{"co": {"Y": -1.0, "X": 1.0}, "interpolation": 2}]}, "crop_x": {"Points": [{"co": {"Y": 0.0, "X": 1.0}, "interpolation": 2}]}, "perspective_c4_x": {"Points": [{"co": {"Y": -1.0, "X": 1.0}, "interpolation": 2}]}, "crop_y": {"Points": [{"co": {"Y": 0.0, "X": 1.0}, "interpolation": 2}]}}, "type": "update", "key": ["clips", {"id": "O7P5OITE5D"}], "value": {"image": "/home/milind/.openshot_qt/thumbnail/P98G6MPRX5.png", "start": 0, "end": 10, "layer": 4, "position": 21.24, "id": "O7P5OITE5D"}, "partial": false}, {"old_values": [{"image": "/home/milind/.openshot_qt/thumbnail/89VB9QOG5Q.png", "duration": 21.0, "scale": 1, "perspective_c2_y": {"Points": [{"co": {"Y": -1.0, "X": 1.0}, "interpolation": 2}]}, "time": {"Points": [{"co": {"Y": 1.0, "X": 1.0}, "interpolation": 2}]}, "title": "Demo-03-Renaming copy pasted Time-Slots.mkv", "perspective_c2_x": {"Points": [{"co": {"Y": -1.0, "X": 1.0}, "interpolation": 2}]}, "waveform": false, "wave_color": {"blue": {"Points": [{"co": {"Y": 255.0, "X": 1.0}, "interpolation": 0, "handle_type": 0, "handle_left": {"Y": 1.0, "X": 0.5}, "handle_right": {"Y": 0.0, "X": 0.5}}]}, "alpha": {"Points": [{"co": {"Y": 255.0, "X": 1.0}, "interpolation": 0, "handle_type": 0, "handle_left": {"Y": 1.0, "X": 0.5}, "handle_right": {"Y": 0.0, "X": 0.5}}]}, "red": {"Points": [{"co": {"Y": 0.0, "X": 1.0}, "interpolation": 0, "handle_type": 0, "handle_left": {"Y": 1.0, "X": 0.5}, "handle_right": {"Y": 0.0, "X": 0.5}}]}, "green": {"Points": [{"co": {"Y": 123.0, "X": 1.0}, "interpolation": 0, "handle_type": 0, "handle_left": {"Y": 1.0, "X": 0.5}, "handle_right": {"Y": 0.0, "X": 0.5}}]}}, "scale_y": {"Points": [{"co": {"Y": 1.0, "X": 1.0}, "interpolation": 2}]}, "shear_y": {"Points": [{"co": {"Y": 0.0, "X": 1.0}, "interpolation": 2}]}, "scale_x": {"Points": [{"co": {"Y": 1.0, "X": 1.0}, "interpolation": 2}]}, "crop_width": {"Points": [{"co": {"Y": -1.0, "X": 1.0}, "interpolation": 2}]}, "location_y": {"Points": [{"co": {"Y": 0.0, "X": 1.0}, "interpolation": 2}]}, "start": 0, "location_x": {"Points": [{"co": {"Y": 0.0, "X": 1.0}, "interpolation": 2}]}, "has_audio": {"Points": [{"co": {"Y": -1.0, "X": 1.0}, "interpolation": 2}]}, "perspective_c4_y": {"Points": [{"co": {"Y": -1.0, "X": 1.0}, "interpolation": 2}]}, "perspective_c3_x": {"Points": [{"co": {"Y": -1.0, "X": 1.0}, "interpolation": 2}]}, "channel_mapping": {"Points": [{"co": {"Y": -1.0, "X": 1.0}, "interpolation": 2}]}, "layer": 4, "position": 0, "alpha": {"Points": [{"co": {"Y": 1.0, "X": 1.0}, "interpolation": 2}, {"co": {"Y": 0.0, "X": 1.0}, "interpolation": 0, "handle_type": 0, "handle_left": {"Y": 1.0, "X": 0.5}, "handle_right": {"Y": 0.0, "X": 0.5}}, {"co": {"Y": 1.0, "X": 73.0}, "interpolation": 0, "handle_type": 0, "handle_left": {"Y": 1.0, "X": 0.5}, "handle_right": {"Y": 0.0, "X": 0.5}}, {"co": {"Y": 1.0, "X": 433.0}, "interpolation": 0, "handle_type": 0, "handle_left": {"Y": 1.0, "X": 0.5}, "handle_right": {"Y": 0.0, "X": 0.5}}, {"co": {"Y": 0.0, "X": 505.0}, "interpolation": 0, "handle_type": 0, "handle_left": {"Y": 1.0, "X": 0.5}, "handle_right": {"Y": 0.0, "X": 0.5}}]}, "reader": {"duration": 21.0, "type": "FFmpegReader", "width": 1366, "display_ratio": {"num": 683, "den": 384}, "video_bit_rate": 0, "sample_rate": 0, "video_length": "525", "has_audio": false, "path": "/home/milind/Data/Projects/CTTdemo/Demo-03-Renaming copy pasted Time-Slots.mkv", "video_stream_index": 0, "channel_layout": 4, "channels": 0, "audio_bit_rate": 0, "video_timebase": {"num": 1, "den": 1000}, "fps": {"num": 25, "den": 1}, "has_video": true, "file_size": "191199", "acodec": "", "vcodec": "h264", "interlaced_frame": false, "audio_stream_index": -1, "audio_timebase": {"num": 1, "den": 1}, "top_field_first": true, "has_single_image": false, "height": 768, "pixel_ratio": {"num": 1, "den": 1}, "pixel_format": 0}, "volume": {"Points": [{"co": {"Y": 1.0, "X": 1.0}, "interpolation": 2}]}, "shear_x": {"Points": [{"co": {"Y": 0.0, "X": 1.0}, "interpolation": 2}]}, "file_id": "89VB9QOG5Q", "rotation": {"Points": [{"co": {"Y": 0.0, "X": 1.0}, "interpolation": 2}]}, "effects": [], "crop_height": {"Points": [{"co": {"Y": -1.0, "X": 1.0}, "interpolation": 2}]}, "perspective_c1_y": {"Points": [{"co": {"Y": -1.0, "X": 1.0}, "interpolation": 2}]}, "anchor": 0, "channel_filter": {"Points": [{"co": {"Y": -1.0, "X": 1.0}, "interpolation": 2}]}, "perspective_c1_x": {"Points": [{"co": {"Y": -1.0, "X": 1.0}, "interpolation": 2}]}, "display": 0, "perspective_c3_y": {"Points": [{"co": {"Y": -1.0, "X": 1.0}, "interpolation": 2}]}, "id": "DST1B0379I", "gravity": 4, "crop_x": {"Points": [{"co": {"Y": 0.0, "X": 1.0}, "interpolation": 2}]}, "has_video": {"Points": [{"co": {"Y": -1.0, "X": 1.0}, "interpolation": 2}]}, "end": 21, "perspective_c4_x": {"Points": [{"co": {"Y": -1.0, "X": 1.0}, "interpolation": 2}]}, "crop_y": {"Points": [{"co": {"Y": 0.0, "X": 1.0}, "interpolation": 2}]}}, {"perspective_c3_y": {"Points": [{"co": {"Y": -1.0, "X": 1.0}, "interpolation": 2}]}, "duration": 86400.0, "image": "/home/milind/.openshot_qt/thumbnail/P98G6MPRX5.png", "perspective_c2_y": {"Points": [{"co": {"Y": -1.0, "X": 1.0}, "interpolation": 2}]}, "time": {"Points": [{"co": {"Y": 1.0, "X": 1.0}, "interpolation": 2}]}, "title": "closing.svg", "perspective_c2_x": {"Points": [{"co": {"Y": -1.0, "X": 1.0}, "interpolation": 2}]}, "display": 0, "wave_color": {"blue": {"Points": [{"co": {"Y": 255.0, "X": 1.0}, "interpolation": 0, "handle_type": 0, "handle_left": {"Y": 1.0, "X": 0.5}, "handle_right": {"Y": 0.0, "X": 0.5}}]}, "alpha": {"Points": [{"co": {"Y": 255.0, "X": 1.0}, "interpolation": 0, "handle_type": 0, "handle_left": {"Y": 1.0, "X": 0.5}, "handle_right": {"Y": 0.0, "X": 0.5}}]}, "green": {"Points": [{"co": {"Y": 123.0, "X": 1.0}, "interpolation": 0, "handle_type": 0, "handle_left": {"Y": 1.0, "X": 0.5}, "handle_right": {"Y": 0.0, "X": 0.5}}]}, "red": {"Points": [{"co": {"Y": 0.0, "X": 1.0}, "interpolation": 0, "handle_type": 0, "handle_left": {"Y": 1.0, "X": 0.5}, "handle_right": {"Y": 0.0, "X": 0.5}}]}}, "alpha": {"Points": [{"co": {"Y": 1.0, "X": 1.0}, "interpolation": 2}]}, "gravity": 4, "shear_y": {"Points": [{"co": {"Y": 0.0, "X": 1.0}, "interpolation": 2}]}, "scale": 1, "location_x": {"Points": [{"co": {"Y": 0.0, "X": 1.0}, "interpolation": 2}]}, "crop_width": {"Points": [{"co": {"Y": -1.0, "X": 1.0}, "interpolation": 2}]}, "location_y": {"Points": [{"co": {"Y": 0.0, "X": 1.0}, "interpolation": 2}]}, "start": 0, "scale_x": {"Points": [{"co": {"Y": 1.0, "X": 1.0}, "interpolation": 2}]}, "has_audio": {"Points": [{"co": {"Y": -1.0, "X": 1.0}, "interpolation": 2}]}, "perspective_c4_y": {"Points": [{"co": {"Y": -1.0, "X": 1.0}, "interpolation": 2}]}, "perspective_c3_x": {"Points": [{"co": {"Y": -1.0, "X": 1.0}, "interpolation": 2}]}, "layer": 4, "position": 21.24, "id": "O7P5OITE5D", "perspective_c1_y": {"Points": [{"co": {"Y": -1.0, "X": 1.0}, "interpolation": 2}]}, "reader": {"height": 1104, "duration": 86400.0, "type": "QtImageReader", "width": 1920, "display_ratio": {"num": 40, "den": 23}, "video_bit_rate": 0, "sample_rate": 0, "video_length": "2592000", "has_audio": false, "path": "/home/milind/Data/Projects/CTTdemo/assets/closing.svg", "video_stream_index": -1, "pixel_ratio": {"num": 1, "den": 1}, "channel_layout": 4, "channels": 0, "audio_bit_rate": 0, "video_timebase": {"num": 1, "den": 30}, "has_video": true, "file_size": "8478720", "acodec": "", "interlaced_frame": false, "audio_stream_index": -1, "audio_timebase": {"num": 1, "den": 1}, "top_field_first": true, "has_single_image": true, "fps": {"num": 30, "den": 1}, "vcodec": "", "pixel_format": -1}, "volume": {"Points": [{"co": {"Y": 1.0, "X": 1.0}, "interpolation": 2}]}, "shear_x": {"Points": [{"co": {"Y": 0.0, "X": 1.0}, "interpolation": 2}]}, "file_id": "P98G6MPRX5", "rotation": {"Points": [{"co": {"Y": 0.0, "X": 1.0}, "interpolation": 2}]}, "effects": [], "crop_height": {"Points": [{"co": {"Y": -1.0, "X": 1.0}, "interpolation": 2}]}, "channel_mapping": {"Points": [{"co": {"Y": -1.0, "X": 1.0}, "interpolation": 2}]}, "anchor": 0, "channel_filter": {"Points": [{"co": {"Y": -1.0, "X": 1.0}, "interpolation": 2}]}, "perspective_c1_x": {"Points": [{"co": {"Y": -1.0, "X": 1.0}, "interpolation": 2}]}, "waveform": false, "has_video": {"Points": [{"co": {"Y": -1.0, "X": 1.0}, "interpolation": 2}]}, "scale_y": {"Points": [{"co": {"Y": 1.0, "X": 1.0}, "interpolation": 2}]}, "crop_x": {"Points": [{"co": {"Y": 0.0, "X": 1.0}, "interpolation": 2}]}, "end": 10, "perspective_c4_x": {"Points": [{"co": {"Y": -1.0, "X": 1.0}, "interpolation": 2}]}, "crop_y": {"Points": [{"co": {"Y": 0.0, "X": 1.0}, "interpolation": 2}]}}], "type": "insert", "key": ["clips"], "value": {"perspective_c3_y": {"Points": [{"co": {"Y": -1.0, "X": 1.0}, "interpolation": 2}]}, "duration": 86400.0, "image": "/home/milind/.openshot_qt/thumbnail/U6UPRJY8FR.png", "perspective_c2_y": {"Points": [{"co": {"Y": -1.0, "X": 1.0}, "interpolation": 2}]}, "time": {"Points": [{"co": {"Y": 1.0, "X": 1.0}, "interpolation": 2}]}, "title": "ILUG-MSG.svg", "perspective_c2_x": {"Points": [{"co": {"Y": -1.0, "X": 1.0}, "interpolation": 2}]}, "display": 0, "wave_color": {"blue": {"Points": [{"co": {"Y": 255.0, "X": 1.0}, "interpolation": 0, "handle_type": 0, "handle_left": {"Y": 1.0, "X": 0.5}, "handle_right": {"Y": 0.0, "X": 0.5}}]}, "red": {"Points": [{"co": {"Y": 0.0, "X": 1.0}, "interpolation": 0, "handle_type": 0, "handle_left": {"Y": 1.0, "X": 0.5}, "handle_right": {"Y": 0.0, "X": 0.5}}]}, "green": {"Points": [{"co": {"Y": 123.0, "X": 1.0}, "interpolation": 0, "handle_type": 0, "handle_left": {"Y": 1.0, "X": 0.5}, "handle_right": {"Y": 0.0, "X": 0.5}}]}, "alpha": {"Points": [{"co": {"Y": 255.0, "X": 1.0}, "interpolation": 0, "handle_type": 0, "handle_left": {"Y": 1.0, "X": 0.5}, "handle_right": {"Y": 0.0, "X": 0.5}}]}}, "scale_y": {"Points": [{"co": {"Y": 1.0, "X": 1.0}, "interpolation": 2}]}, "shear_y": {"Points": [{"co": {"Y": 0.0, "X": 1.0}, "interpolation": 2}]}, "scale": 1, "location_x": {"Points": [{"co": {"Y": 0.0, "X": 1.0}, "interpolation": 2}]}, "crop_width": {"Points": [{"co": {"Y": -1.0, "X": 1.0}, "interpolation": 2}]}, "id": "O5HVE437AI", "location_y": {"Points": [{"co": {"Y": 0.0, "X": 1.0}, "interpolation": 2}]}, "start": 0, "scale_x": {"Points": [{"co": {"Y": 1.0, "X": 1.0}, "interpolation": 2}]}, "has_audio": {"Points": [{"co": {"Y": -1.0, "X": 1.0}, "interpolation": 2}]}, "waveform": false, "perspective_c4_y": {"Points": [{"co": {"Y": -1.0, "X": 1.0}, "interpolation": 2}]}, "perspective_c3_x": {"Points": [{"co": {"Y": -1.0, "X": 1.0}, "interpolation": 2}]}, "channel_mapping": {"Points": [{"co": {"Y": -1.0, "X": 1.0}, "interpolation": 2}]}, "layer": 4, "position": 41.12, "has_video": {"Points": [{"co": {"Y": -1.0, "X": 1.0}, "interpolation": 2}]}, "reader": {"duration": 86400.0, "type": "QtImageReader", "audio_timebase": {"num": 1, "den": 1}, "width": 1920, "display_ratio": {"num": 40, "den": 23}, "video_bit_rate": 0, "sample_rate": 0, "video_length": "2592000", "has_audio": false, "path": "/home/milind/Data/Projects/CTTdemo/assets/ILUG-MSG.svg", "video_stream_index": -1, "channel_layout": 4, "channels": 0, "audio_bit_rate": 0, "video_timebase": {"num": 1, "den": 30}, "fps": {"num": 30, "den": 1}, "has_video": true, "acodec": "", "vcodec": "", "interlaced_frame": false, "audio_stream_index": -1, "file_size": "8478720", "top_field_first": true, "has_single_image": true, "height": 1104, "pixel_ratio": {"num": 1, "den": 1}, "pixel_format": -1}, "volume": {"Points": [{"co": {"Y": 1.0, "X": 1.0}, "interpolation": 2}]}, "shear_x": {"Points": [{"co": {"Y": 0.0, "X": 1.0}, "interpolation": 2}]}, "file_id": "U6UPRJY8FR", "rotation": {"Points": [{"co": {"Y": 0.0, "X": 1.0}, "interpolation": 2}]}, "effects": [], "crop_height": {"Points": [{"co": {"Y": -1.0, "X": 1.0}, "interpolation": 2}]}, "perspective_c1_y": {"Points": [{"co": {"Y": -1.0, "X": 1.0}, "interpolation": 2}]}, "anchor": 0, "channel_filter": {"Points": [{"co": {"Y": -1.0, "X": 1.0}, "interpolation": 2}]}, "perspective_c1_x": {"Points": [{"co": {"Y": -1.0, "X": 1.0}, "interpolation": 2}]}, "end": 10, "alpha": {"Points": [{"co": {"Y": 1.0, "X": 1.0}, "interpolation": 2}]}, "gravity": 4, "crop_x": {"Points": [{"co": {"Y": 0.0, "X": 1.0}, "interpolation": 2}]}, "perspective_c4_x": {"Points": [{"co": {"Y": -1.0, "X": 1.0}, "interpolation": 2}]}, "crop_y": {"Points": [{"co": {"Y": 0.0, "X": 1.0}, "interpolation": 2}]}}, "partial": false}, {"old_values": {"perspective_c3_y": {"Points": [{"co": {"Y": -1.0, "X": 1.0}, "interpolation": 2}]}, "duration": 86400.0, "scale": 1, "perspective_c2_y": {"Points": [{"co": {"Y": -1.0, "X": 1.0}, "interpolation": 2}]}, "perspective_c4_y": {"Points": [{"co": {"Y": -1.0, "X": 1.0}, "interpolation": 2}]}, "effects": [], "perspective_c2_x": {"Points": [{"co": {"Y": -1.0, "X": 1.0}, "interpolation": 2}]}, "display": 0, "wave_color": {"blue": {"Points": [{"co": {"Y": 255.0, "X": 1.0}, "interpolation": 0, "handle_type": 0, "handle_left": {"Y": 1.0, "X": 0.5}, "handle_right": {"Y": 0.0, "X": 0.5}}]}, "alpha": {"Points": [{"co": {"Y": 255.0, "X": 1.0}, "interpolation": 0, "handle_type": 0, "handle_left": {"Y": 1.0, "X": 0.5}, "handle_right": {"Y": 0.0, "X": 0.5}}]}, "green": {"Points": [{"co": {"Y": 123.0, "X": 1.0}, "interpolation": 0, "handle_type": 0, "handle_left": {"Y": 1.0, "X": 0.5}, "handle_right": {"Y": 0.0, "X": 0.5}}]}, "red": {"Points": [{"co": {"Y": 0.0, "X": 1.0}, "interpolation": 0, "handle_type": 0, "handle_left": {"Y": 1.0, "X": 0.5}, "handle_right": {"Y": 0.0, "X": 0.5}}]}}, "scale_y": {"Points": [{"co": {"Y": 1.0, "X": 1.0}, "interpolation": 2}]}, "shear_y": {"Points": [{"co": {"Y": 0.0, "X": 1.0}, "interpolation": 2}]}, "location_x": {"Points": [{"co": {"Y": 0.0, "X": 1.0}, "interpolation": 2}]}, "crop_width": {"Points": [{"co": {"Y": -1.0, "X": 1.0}, "interpolation": 2}]}, "image": "/home/milind/.openshot_qt/thumbnail/U6UPRJY8FR.png", "location_y": {"Points": [{"co": {"Y": 0.0, "X": 1.0}, "interpolation": 2}]}, "start": 0.0, "scale_x": {"Points": [{"co": {"Y": 1.0, "X": 1.0}, "interpolation": 2}]}, "has_audio": {"Points": [{"co": {"Y": -1.0, "X": 1.0}, "interpolation": 2}]}, "waveform": false, "time": {"Points": [{"co": {"Y": 1.0, "X": 1.0}, "interpolation": 2}]}, "perspective_c3_x": {"Points": [{"co": {"Y": -1.0, "X": 1.0}, "interpolation": 2}]}, "channel_mapping": {"Points": [{"co": {"Y": -1.0, "X": 1.0}, "interpolation": 2}]}, "perspective_c1_x": {"Points": [{"co": {"Y": -1.0, "X": 1.0}, "interpolation": 2}]}, "position": 35.04, "alpha": {"Points": [{"co": {"Y": 1.0, "X": 1.0}, "interpolation": 2}]}, "reader": {"height": 1104, "duration": 86400.0, "type": "QtImageReader", "width": 1920, "display_ratio": {"num": 40, "den": 23}, "video_bit_rate": 0, "sample_rate": 0, "video_length": "2592000", "has_audio": false, "path": "/home/milind/Data/Projects/CTTdemo/assets/ILUG-MSG.svg", "video_stream_index": -1, "pixel_ratio": {"num": 1, "den": 1}, "channel_layout": 4, "channels": 0, "audio_bit_rate": 0, "video_timebase": {"num": 1, "den": 30}, "has_video": true, "file_size": "8478720", "acodec": "", "interlaced_frame": false, "audio_stream_index": -1, "audio_timebase": {"num": 1, "den": 1}, "top_field_first": true, "has_single_image": true, "fps": {"num": 30, "den": 1}, "vcodec": "", "pixel_format": -1}, "volume": {"Points": [{"co": {"Y": 1.0, "X": 1.0}, "interpolation": 2}]}, "shear_x": {"Points": [{"co": {"Y": 0.0, "X": 1.0}, "interpolation": 2}]}, "file_id": "U6UPRJY8FR", "rotation": {"Points": [{"co": {"Y": 0.0, "X": 1.0}, "interpolation": 2}]}, "title": "ILUG-MSG.svg", "crop_height": {"Points": [{"co": {"Y": -1.0, "X": 1.0}, "interpolation": 2}]}, "perspective_c1_y": {"Points": [{"co": {"Y": -1.0, "X": 1.0}, "interpolation": 2}]}, "layer": 4, "channel_filter": {"Points": [{"co": {"Y": -1.0, "X": 1.0}, "interpolation": 2}]}, "end": 10.0, "id": "O5HVE437AI", "gravity": 4, "anchor": 0, "has_video": {"Points": [{"co": {"Y": -1.0, "X": 1.0}, "interpolation": 2}]}, "crop_x": {"Points": [{"co": {"Y": 0.0, "X": 1.0}, "interpolation": 2}]}, "perspective_c4_x": {"Points": [{"co": {"Y": -1.0, "X": 1.0}, "interpolation": 2}]}, "crop_y": {"Points": [{"co": {"Y": 0.0, "X": 1.0}, "interpolation": 2}]}}, "type": "update", "key": ["clips", {"id": "O5HVE437AI"}], "value": {"image": "/home/milind/.openshot_qt/thumbnail/U6UPRJY8FR.png", "start": 0, "end": 10, "layer": 4, "position": 51.04, "id": "O5HVE437AI"}, "partial": false}, {"old_values": [{"image": "/home/milind/.openshot_qt/thumbnail/89VB9QOG5Q.png", "duration": 21.0, "scale": 1, "perspective_c2_y": {"Points": [{"co": {"Y": -1.0, "X": 1.0}, "interpolation": 2}]}, "time": {"Points": [{"co": {"Y": 1.0, "X": 1.0}, "interpolation": 2}]}, "title": "Demo-03-Renaming copy pasted Time-Slots.mkv", "perspective_c2_x": {"Points": [{"co": {"Y": -1.0, "X": 1.0}, "interpolation": 2}]}, "waveform": false, "wave_color": {"blue": {"Points": [{"co": {"Y": 255.0, "X": 1.0}, "interpolation": 0, "handle_type": 0, "handle_left": {"Y": 1.0, "X": 0.5}, "handle_right": {"Y": 0.0, "X": 0.5}}]}, "alpha": {"Points": [{"co": {"Y": 255.0, "X": 1.0}, "interpolation": 0, "handle_type": 0, "handle_left": {"Y": 1.0, "X": 0.5}, "handle_right": {"Y": 0.0, "X": 0.5}}]}, "red": {"Points": [{"co": {"Y": 0.0, "X": 1.0}, "interpolation": 0, "handle_type": 0, "handle_left": {"Y": 1.0, "X": 0.5}, "handle_right": {"Y": 0.0, "X": 0.5}}]}, "green": {"Points": [{"co": {"Y": 123.0, "X": 1.0}, "interpolation": 0, "handle_type": 0, "handle_left": {"Y": 1.0, "X": 0.5}, "handle_right": {"Y": 0.0, "X": 0.5}}]}}, "scale_y": {"Points": [{"co": {"Y": 1.0, "X": 1.0}, "interpolation": 2}]}, "shear_y": {"Points": [{"co": {"Y": 0.0, "X": 1.0}, "interpolation": 2}]}, "scale_x": {"Points": [{"co": {"Y": 1.0, "X": 1.0}, "interpolation": 2}]}, "crop_width": {"Points": [{"co": {"Y": -1.0, "X": 1.0}, "interpolation": 2}]}, "location_y": {"Points": [{"co": {"Y": 0.0, "X": 1.0}, "interpolation": 2}]}, "start": 0, "location_x": {"Points": [{"co": {"Y": 0.0, "X": 1.0}, "interpolation": 2}]}, "has_audio": {"Points": [{"co": {"Y": -1.0, "X": 1.0}, "interpolation": 2}]}, "perspective_c4_y": {"Points": [{"co": {"Y": -1.0, "X": 1.0}, "interpolation": 2}]}, "perspective_c3_x": {"Points": [{"co": {"Y": -1.0, "X": 1.0}, "interpolation": 2}]}, "channel_mapping": {"Points": [{"co": {"Y": -1.0, "X": 1.0}, "interpolation": 2}]}, "layer": 4, "position": 0, "alpha": {"Points": [{"co": {"Y": 1.0, "X": 1.0}, "interpolation": 2}, {"co": {"Y": 0.0, "X": 1.0}, "interpolation": 0, "handle_type": 0, "handle_left": {"Y": 1.0, "X": 0.5}, "handle_right": {"Y": 0.0, "X": 0.5}}, {"co": {"Y": 1.0, "X": 73.0}, "interpolation": 0, "handle_type": 0, "handle_left": {"Y": 1.0, "X": 0.5}, "handle_right": {"Y": 0.0, "X": 0.5}}, {"co": {"Y": 1.0, "X": 433.0}, "interpolation": 0, "handle_type": 0, "handle_left": {"Y": 1.0, "X": 0.5}, "handle_right": {"Y": 0.0, "X": 0.5}}, {"co": {"Y": 0.0, "X": 505.0}, "interpolation": 0, "handle_type": 0, "handle_left": {"Y": 1.0, "X": 0.5}, "handle_right": {"Y": 0.0, "X": 0.5}}]}, "reader": {"duration": 21.0, "type": "FFmpegReader", "width": 1366, "display_ratio": {"num": 683, "den": 384}, "video_bit_rate": 0, "sample_rate": 0, "video_length": "525", "has_audio": false, "path": "/home/milind/Data/Projects/CTTdemo/Demo-03-Renaming copy pasted Time-Slots.mkv", "video_stream_index": 0, "channel_layout": 4, "channels": 0, "audio_bit_rate": 0, "video_timebase": {"num": 1, "den": 1000}, "fps": {"num": 25, "den": 1}, "has_video": true, "file_size": "191199", "acodec": "", "vcodec": "h264", "interlaced_frame": false, "audio_stream_index": -1, "audio_timebase": {"num": 1, "den": 1}, "top_field_first": true, "has_single_image": false, "height": 768, "pixel_ratio": {"num": 1, "den": 1}, "pixel_format": 0}, "volume": {"Points": [{"co": {"Y": 1.0, "X": 1.0}, "interpolation": 2}]}, "shear_x": {"Points": [{"co": {"Y": 0.0, "X": 1.0}, "interpolation": 2}]}, "file_id": "89VB9QOG5Q", "rotation": {"Points": [{"co": {"Y": 0.0, "X": 1.0}, "interpolation": 2}]}, "effects": [], "crop_height": {"Points": [{"co": {"Y": -1.0, "X": 1.0}, "interpolation": 2}]}, "perspective_c1_y": {"Points": [{"co": {"Y": -1.0, "X": 1.0}, "interpolation": 2}]}, "anchor": 0, "channel_filter": {"Points": [{"co": {"Y": -1.0, "X": 1.0}, "interpolation": 2}]}, "perspective_c1_x": {"Points": [{"co": {"Y": -1.0, "X": 1.0}, "interpolation": 2}]}, "display": 0, "perspective_c3_y": {"Points": [{"co": {"Y": -1.0, "X": 1.0}, "interpolation": 2}]}, "id": "DST1B0379I", "gravity": 4, "crop_x": {"Points": [{"co": {"Y": 0.0, "X": 1.0}, "interpolation": 2}]}, "has_video": {"Points": [{"co": {"Y": -1.0, "X": 1.0}, "interpolation": 2}]}, "end": 21, "perspective_c4_x": {"Points": [{"co": {"Y": -1.0, "X": 1.0}, "interpolation": 2}]}, "crop_y": {"Points": [{"co": {"Y": 0.0, "X": 1.0}, "interpolation": 2}]}}, {"perspective_c3_y": {"Points": [{"co": {"Y": -1.0, "X": 1.0}, "interpolation": 2}]}, "duration": 86400.0, "image": "/home/milind/.openshot_qt/thumbnail/P98G6MPRX5.png", "perspective_c2_y": {"Points": [{"co": {"Y": -1.0, "X": 1.0}, "interpolation": 2}]}, "time": {"Points": [{"co": {"Y": 1.0, "X": 1.0}, "interpolation": 2}]}, "title": "closing.svg", "perspective_c2_x": {"Points": [{"co": {"Y": -1.0, "X": 1.0}, "interpolation": 2}]}, "display": 0, "wave_color": {"blue": {"Points": [{"co": {"Y": 255.0, "X": 1.0}, "interpolation": 0, "handle_type": 0, "handle_left": {"Y": 1.0, "X": 0.5}, "handle_right": {"Y": 0.0, "X": 0.5}}]}, "alpha": {"Points": [{"co": {"Y": 255.0, "X": 1.0}, "interpolation": 0, "handle_type": 0, "handle_left": {"Y": 1.0, "X": 0.5}, "handle_right": {"Y": 0.0, "X": 0.5}}]}, "green": {"Points": [{"co": {"Y": 123.0, "X": 1.0}, "interpolation": 0, "handle_type": 0, "handle_left": {"Y": 1.0, "X": 0.5}, "handle_right": {"Y": 0.0, "X": 0.5}}]}, "red": {"Points": [{"co": {"Y": 0.0, "X": 1.0}, "interpolation": 0, "handle_type": 0, "handle_left": {"Y": 1.0, "X": 0.5}, "handle_right": {"Y": 0.0, "X": 0.5}}]}}, "alpha": {"Points": [{"co": {"Y": 1.0, "X": 1.0}, "interpolation": 2}]}, "gravity": 4, "shear_y": {"Points": [{"co": {"Y": 0.0, "X": 1.0}, "interpolation": 2}]}, "scale": 1, "location_x": {"Points": [{"co": {"Y": 0.0, "X": 1.0}, "interpolation": 2}]}, "crop_width": {"Points": [{"co": {"Y": -1.0, "X": 1.0}, "interpolation": 2}]}, "location_y": {"Points": [{"co": {"Y": 0.0, "X": 1.0}, "interpolation": 2}]}, "start": 0, "scale_x": {"Points": [{"co": {"Y": 1.0, "X": 1.0}, "interpolation": 2}]}, "has_audio": {"Points": [{"co": {"Y": -1.0, "X": 1.0}, "interpolation": 2}]}, "perspective_c4_y": {"Points": [{"co": {"Y": -1.0, "X": 1.0}, "interpolation": 2}]}, "perspective_c3_x": {"Points": [{"co": {"Y": -1.0, "X": 1.0}, "interpolation": 2}]}, "layer": 4, "position": 21.24, "id": "O7P5OITE5D", "perspective_c1_y": {"Points": [{"co": {"Y": -1.0, "X": 1.0}, "interpolation": 2}]}, "reader": {"height": 1104, "duration": 86400.0, "type": "QtImageReader", "width": 1920, "display_ratio": {"num": 40, "den": 23}, "video_bit_rate": 0, "sample_rate": 0, "video_length": "2592000", "has_audio": false, "path": "/home/milind/Data/Projects/CTTdemo/assets/closing.svg", "video_stream_index": -1, "pixel_ratio": {"num": 1, "den": 1}, "channel_layout": 4, "channels": 0, "audio_bit_rate": 0, "video_timebase": {"num": 1, "den": 30}, "has_video": true, "file_size": "8478720", "acodec": "", "interlaced_frame": false, "audio_stream_index": -1, "audio_timebase": {"num": 1, "den": 1}, "top_field_first": true, "has_single_image": true, "fps": {"num": 30, "den": 1}, "vcodec": "", "pixel_format": -1}, "volume": {"Points": [{"co": {"Y": 1.0, "X": 1.0}, "interpolation": 2}]}, "shear_x": {"Points": [{"co": {"Y": 0.0, "X": 1.0}, "interpolation": 2}]}, "file_id": "P98G6MPRX5", "rotation": {"Points": [{"co": {"Y": 0.0, "X": 1.0}, "interpolation": 2}]}, "effects": [], "crop_height": {"Points": [{"co": {"Y": -1.0, "X": 1.0}, "interpolation": 2}]}, "channel_mapping": {"Points": [{"co": {"Y": -1.0, "X": 1.0}, "interpolation": 2}]}, "anchor": 0, "channel_filter": {"Points": [{"co": {"Y": -1.0, "X": 1.0}, "interpolation": 2}]}, "perspective_c1_x": {"Points": [{"co": {"Y": -1.0, "X": 1.0}, "interpolation": 2}]}, "waveform": false, "has_video": {"Points": [{"co": {"Y": -1.0, "X": 1.0}, "interpolation": 2}]}, "scale_y": {"Points": [{"co": {"Y": 1.0, "X": 1.0}, "interpolation": 2}]}, "crop_x": {"Points": [{"co": {"Y": 0.0, "X": 1.0}, "interpolation": 2}]}, "end": 10, "perspective_c4_x": {"Points": [{"co": {"Y": -1.0, "X": 1.0}, "interpolation": 2}]}, "crop_y": {"Points": [{"co": {"Y": 0.0, "X": 1.0}, "interpolation": 2}]}}, {"perspective_c3_y": {"Points": [{"co": {"Y": -1.0, "X": 1.0}, "interpolation": 2}]}, "duration": 86400.0, "image": "/home/milind/.openshot_qt/thumbnail/U6UPRJY8FR.png", "perspective_c2_y": {"Points": [{"co": {"Y": -1.0, "X": 1.0}, "interpolation": 2}]}, "time": {"Points": [{"co": {"Y": 1.0, "X": 1.0}, "interpolation": 2}]}, "title": "ILUG-MSG.svg", "perspective_c2_x": {"Points": [{"co": {"Y": -1.0, "X": 1.0}, "interpolation": 2}]}, "display": 0, "wave_color": {"blue": {"Points": [{"co": {"Y": 255.0, "X": 1.0}, "interpolation": 0, "handle_type": 0, "handle_left": {"Y": 1.0, "X": 0.5}, "handle_right": {"Y": 0.0, "X": 0.5}}]}, "alpha": {"Points": [{"co": {"Y": 255.0, "X": 1.0}, "interpolation": 0, "handle_type": 0, "handle_left": {"Y": 1.0, "X": 0.5}, "handle_right": {"Y": 0.0, "X": 0.5}}]}, "green": {"Points": [{"co": {"Y": 123.0, "X": 1.0}, "interpolation": 0, "handle_type": 0, "handle_left": {"Y": 1.0, "X": 0.5}, "handle_right": {"Y": 0.0, "X": 0.5}}]}, "red": {"Points": [{"co": {"Y": 0.0, "X": 1.0}, "interpolation": 0, "handle_type": 0, "handle_left": {"Y": 1.0, "X": 0.5}, "handle_right": {"Y": 0.0, "X": 0.5}}]}}, "alpha": {"Points": [{"co": {"Y": 1.0, "X": 1.0}, "interpolation": 2}]}, "gravity": 4, "shear_y": {"Points": [{"co": {"Y": 0.0, "X": 1.0}, "interpolation": 2}]}, "scale": 1, "location_x": {"Points": [{"co": {"Y": 0.0, "X": 1.0}, "interpolation": 2}]}, "crop_width": {"Points": [{"co": {"Y": -1.0, "X": 1.0}, "interpolation": 2}]}, "location_y": {"Points": [{"co": {"Y": 0.0, "X": 1.0}, "interpolation": 2}]}, "start": 0, "scale_x": {"Points": [{"co": {"Y": 1.0, "X": 1.0}, "interpolation": 2}]}, "has_audio": {"Points": [{"co": {"Y": -1.0, "X": 1.0}, "interpolation": 2}]}, "perspective_c4_y": {"Points": [{"co": {"Y": -1.0, "X": 1.0}, "interpolation": 2}]}, "perspective_c3_x": {"Points": [{"co": {"Y": -1.0, "X": 1.0}, "interpolation": 2}]}, "layer": 4, "position": 51.04, "id": "O5HVE437AI", "perspective_c1_y": {"Points": [{"co": {"Y": -1.0, "X": 1.0}, "interpolation": 2}]}, "reader": {"height": 1104, "duration": 86400.0, "type": "QtImageReader", "width": 1920, "display_ratio": {"num": 40, "den": 23}, "video_bit_rate": 0, "sample_rate": 0, "video_length": "2592000", "has_audio": false, "path": "/home/milind/Data/Projects/CTTdemo/assets/ILUG-MSG.svg", "video_stream_index": -1, "pixel_ratio": {"num": 1, "den": 1}, "channel_layout": 4, "channels": 0, "audio_bit_rate": 0, "video_timebase": {"num": 1, "den": 30}, "has_video": true, "file_size": "8478720", "acodec": "", "interlaced_frame": false, "audio_stream_index": -1, "audio_timebase": {"num": 1, "den": 1}, "top_field_first": true, "has_single_image": true, "fps": {"num": 30, "den": 1}, "vcodec": "", "pixel_format": -1}, "volume": {"Points": [{"co": {"Y": 1.0, "X": 1.0}, "interpolation": 2}]}, "shear_x": {"Points": [{"co": {"Y": 0.0, "X": 1.0}, "interpolation": 2}]}, "file_id": "U6UPRJY8FR", "rotation": {"Points": [{"co": {"Y": 0.0, "X": 1.0}, "interpolation": 2}]}, "effects": [], "crop_height": {"Points": [{"co": {"Y": -1.0, "X": 1.0}, "interpolation": 2}]}, "channel_mapping": {"Points": [{"co": {"Y": -1.0, "X": 1.0}, "interpolation": 2}]}, "anchor": 0, "channel_filter": {"Points": [{"co": {"Y": -1.0, "X": 1.0}, "interpolation": 2}]}, "perspective_c1_x": {"Points": [{"co": {"Y": -1.0, "X": 1.0}, "interpolation": 2}]}, "waveform": false, "has_video": {"Points": [{"co": {"Y": -1.0, "X": 1.0}, "interpolation": 2}]}, "scale_y": {"Points": [{"co": {"Y": 1.0, "X": 1.0}, "interpolation": 2}]}, "crop_x": {"Points": [{"co": {"Y": 0.0, "X": 1.0}, "interpolation": 2}]}, "end": 10, "perspective_c4_x": {"Points": [{"co": {"Y": -1.0, "X": 1.0}, "interpolation": 2}]}, "crop_y": {"Points": [{"co": {"Y": 0.0, "X": 1.0}, "interpolation": 2}]}}], "type": "insert", "key": ["clips"], "value": {"perspective_c3_y": {"Points": [{"co": {"Y": -1.0, "X": 1.0}, "interpolation": 2}]}, "duration": 86400.0, "image": "/home/milind/.openshot_qt/thumbnail/P98G6MPRX5.png", "perspective_c2_y": {"Points": [{"co": {"Y": -1.0, "X": 1.0}, "interpolation": 2}]}, "time": {"Points": [{"co": {"Y": 1.0, "X": 1.0}, "interpolation": 2}]}, "title": "closing.svg", "perspective_c2_x": {"Points": [{"co": {"Y": -1.0, "X": 1.0}, "interpolation": 2}]}, "display": 0, "wave_color": {"blue": {"Points": [{"co": {"Y": 255.0, "X": 1.0}, "interpolation": 0, "handle_type": 0, "handle_left": {"Y": 1.0, "X": 0.5}, "handle_right": {"Y": 0.0, "X": 0.5}}]}, "alpha": {"Points": [{"co": {"Y": 255.0, "X": 1.0}, "interpolation": 0, "handle_type": 0, "handle_left": {"Y": 1.0, "X": 0.5}, "handle_right": {"Y": 0.0, "X": 0.5}}]}, "green": {"Points": [{"co": {"Y": 123.0, "X": 1.0}, "interpolation": 0, "handle_type": 0, "handle_left": {"Y": 1.0, "X": 0.5}, "handle_right": {"Y": 0.0, "X": 0.5}}]}, "red": {"Points": [{"co": {"Y": 0.0, "X": 1.0}, "interpolation": 0, "handle_type": 0, "handle_left": {"Y": 1.0, "X": 0.5}, "handle_right": {"Y": 0.0, "X": 0.5}}]}}, "scale_y": {"Points": [{"co": {"Y": 1.0, "X": 1.0}, "interpolation": 2}]}, "shear_y": {"Points": [{"co": {"Y": 0.0, "X": 1.0}, "interpolation": 2}]}, "scale": 1, "location_x": {"Points": [{"co": {"Y": 0.0, "X": 1.0}, "interpolation": 2}]}, "crop_width": {"Points": [{"co": {"Y": -1.0, "X": 1.0}, "interpolation": 2}]}, "id": "2PCWSRBZDT", "location_y": {"Points": [{"co": {"Y": 0.0, "X": 1.0}, "interpolation": 2}]}, "start": 0, "scale_x": {"Points": [{"co": {"Y": 1.0, "X": 1.0}, "interpolation": 2}]}, "has_audio": {"Points": [{"co": {"Y": -1.0, "X": 1.0}, "interpolation": 2}]}, "waveform": false, "perspective_c4_y": {"Points": [{"co": {"Y": -1.0, "X": 1.0}, "interpolation": 2}]}, "perspective_c3_x": {"Points": [{"co": {"Y": -1.0, "X": 1.0}, "interpolation": 2}]}, "channel_mapping": {"Points": [{"co": {"Y": -1.0, "X": 1.0}, "interpolation": 2}]}, "layer": 4, "position": 31.24, "has_video": {"Points": [{"co": {"Y": -1.0, "X": 1.0}, "interpolation": 2}]}, "reader": {"duration": 86400.0, "type": "QtImageReader", "audio_timebase": {"num": 1, "den": 1}, "width": 1920, "display_ratio": {"num": 40, "den": 23}, "video_bit_rate": 0, "sample_rate": 0, "video_length": "2592000", "has_audio": false, "path": "/home/milind/Data/Projects/CTTdemo/assets/closing.svg", "video_stream_index": -1, "channel_layout": 4, "channels": 0, "audio_bit_rate": 0, "video_timebase": {"num": 1, "den": 30}, "fps": {"num": 30, "den": 1}, "has_video": true, "acodec": "", "vcodec": "", "interlaced_frame": false, "audio_stream_index": -1, "file_size": "8478720", "top_field_first": true, "has_single_image": true, "height": 1104, "pixel_ratio": {"num": 1, "den": 1}, "pixel_format": -1}, "volume": {"Points": [{"co": {"Y": 1.0, "X": 1.0}, "interpolation": 2}]}, "shear_x": {"Points": [{"co": {"Y": 0.0, "X": 1.0}, "interpolation": 2}]}, "file_id": "P98G6MPRX5", "rotation": {"Points": [{"co": {"Y": 0.0, "X": 1.0}, "interpolation": 2}]}, "effects": [], "crop_height": {"Points": [{"co": {"Y": -1.0, "X": 1.0}, "interpolation": 2}]}, "perspective_c1_y": {"Points": [{"co": {"Y": -1.0, "X": 1.0}, "interpolation": 2}]}, "anchor": 0, "channel_filter": {"Points": [{"co": {"Y": -1.0, "X": 1.0}, "interpolation": 2}]}, "perspective_c1_x": {"Points": [{"co": {"Y": -1.0, "X": 1.0}, "interpolation": 2}]}, "end": 10, "alpha": {"Points": [{"co": {"Y": 1.0, "X": 1.0}, "interpolation": 2}, {"co": {"Y": 1.0, "X": 169.0}, "interpolation": 0, "handle_type": 0, "handle_left": {"Y": 1.0, "X": 0.5}, "handle_right": {"Y": 0.0, "X": 0.5}}, {"co": {"Y": 0.0, "X": 241.0}, "interpolation": 0, "handle_type": 0, "handle_left": {"Y": 1.0, "X": 0.5}, "handle_right": {"Y": 0.0, "X": 0.5}}]}, "gravity": 4, "crop_x": {"Points": [{"co": {"Y": 0.0, "X": 1.0}, "interpolation": 2}]}, "perspective_c4_x": {"Points": [{"co": {"Y": -1.0, "X": 1.0}, "interpolation": 2}]}, "crop_y": {"Points": [{"co": {"Y": 0.0, "X": 1.0}, "interpolation": 2}]}}, "partial": false}, {"old_values": {"perspective_c3_y": {"Points": [{"co": {"Y": -1.0, "X": 1.0}, "interpolation": 2}]}, "duration": 86400.0, "scale": 1, "perspective_c2_y": {"Points": [{"co": {"Y": -1.0, "X": 1.0}, "interpolation": 2}]}, "perspective_c4_y": {"Points": [{"co": {"Y": -1.0, "X": 1.0}, "interpolation": 2}]}, "effects": [], "perspective_c2_x": {"Points": [{"co": {"Y": -1.0, "X": 1.0}, "interpolation": 2}]}, "display": 0, "wave_color": {"blue": {"Points": [{"co": {"Y": 255.0, "X": 1.0}, "interpolation": 0, "handle_type": 0, "handle_left": {"Y": 1.0, "X": 0.5}, "handle_right": {"Y": 0.0, "X": 0.5}}]}, "alpha": {"Points": [{"co": {"Y": 255.0, "X": 1.0}, "interpolation": 0, "handle_type": 0, "handle_left": {"Y": 1.0, "X": 0.5}, "handle_right": {"Y": 0.0, "X": 0.5}}]}, "green": {"Points": [{"co": {"Y": 123.0, "X": 1.0}, "interpolation": 0, "handle_type": 0, "handle_left": {"Y": 1.0, "X": 0.5}, "handle_right": {"Y": 0.0, "X": 0.5}}]}, "red": {"Points": [{"co": {"Y": 0.0, "X": 1.0}, "interpolation": 0, "handle_type": 0, "handle_left": {"Y": 1.0, "X": 0.5}, "handle_right": {"Y": 0.0, "X": 0.5}}]}}, "scale_y": {"Points": [{"co": {"Y": 1.0, "X": 1.0}, "interpolation": 2}]}, "shear_y": {"Points": [{"co": {"Y": 0.0, "X": 1.0}, "interpolation": 2}]}, "location_x": {"Points": [{"co": {"Y": 0.0, "X": 1.0}, "interpolation": 2}]}, "crop_width": {"Points": [{"co": {"Y": -1.0, "X": 1.0}, "interpolation": 2}]}, "image": "/home/milind/.openshot_qt/thumbnail/P98G6MPRX5.png", "location_y": {"Points": [{"co": {"Y": 0.0, "X": 1.0}, "interpolation": 2}]}, "start": 0.0, "scale_x": {"Points": [{"co": {"Y": 1.0, "X": 1.0}, "interpolation": 2}]}, "has_audio": {"Points": [{"co": {"Y": -1.0, "X": 1.0}, "interpolation": 2}]}, "waveform": false, "time": {"Points": [{"co": {"Y": 1.0, "X": 1.0}, "interpolation": 2}]}, "perspective_c3_x": {"Points": [{"co": {"Y": -1.0, "X": 1.0}, "interpolation": 2}]}, "channel_mapping": {"Points": [{"co": {"Y": -1.0, "X": 1.0}, "interpolation": 2}]}, "perspective_c1_x": {"Points": [{"co": {"Y": -1.0, "X": 1.0}, "interpolation": 2}]}, "position": 23.04, "alpha": {"Points": [{"co": {"Y": 1.0, "X": 1.0}, "interpolation": 2}]}, "reader": {"height": 1104, "duration": 86400.0, "type": "QtImageReader", "width": 1920, "display_ratio": {"num": 40, "den": 23}, "video_bit_rate": 0, "sample_rate": 0, "video_length": "2592000", "has_audio": false, "path": "/home/milind/Data/Projects/CTTdemo/assets/closing.svg", "video_stream_index": -1, "pixel_ratio": {"num": 1, "den": 1}, "channel_layout": 4, "channels": 0, "audio_bit_rate": 0, "video_timebase": {"num": 1, "den": 30}, "has_video": true, "file_size": "8478720", "acodec": "", "interlaced_frame": false, "audio_stream_index": -1, "audio_timebase": {"num": 1, "den": 1}, "top_field_first": true, "has_single_image": true, "fps": {"num": 30, "den": 1}, "vcodec": "", "pixel_format": -1}, "volume": {"Points": [{"co": {"Y": 1.0, "X": 1.0}, "interpolation": 2}]}, "shear_x": {"Points": [{"co": {"Y": 0.0, "X": 1.0}, "interpolation": 2}]}, "file_id": "P98G6MPRX5", "rotation": {"Points": [{"co": {"Y": 0.0, "X": 1.0}, "interpolation": 2}]}, "title": "closing.svg", "crop_height": {"Points": [{"co": {"Y": -1.0, "X": 1.0}, "interpolation": 2}]}, "perspective_c1_y": {"Points": [{"co": {"Y": -1.0, "X": 1.0}, "interpolation": 2}]}, "layer": 4, "channel_filter": {"Points": [{"co": {"Y": -1.0, "X": 1.0}, "interpolation": 2}]}, "end": 10.0, "id": "2PCWSRBZDT", "gravity": 4, "anchor": 0, "has_video": {"Points": [{"co": {"Y": -1.0, "X": 1.0}, "interpolation": 2}]}, "crop_x": {"Points": [{"co": {"Y": 0.0, "X": 1.0}, "interpolation": 2}]}, "perspective_c4_x": {"Points": [{"co": {"Y": -1.0, "X": 1.0}, "interpolation": 2}]}, "crop_y": {"Points": [{"co": {"Y": 0.0, "X": 1.0}, "interpolation": 2}]}}, "type": "update", "key": ["clips", {"id": "2PCWSRBZDT"}], "value": {"image": "/home/milind/.openshot_qt/thumbnail/P98G6MPRX5.png", "start": 0, "end": 10, "layer": 4, "position": 31.24, "id": "2PCWSRBZDT"}, "partial": false}, {"old_values": {"perspective_c3_y": {"Points": [{"co": {"Y": -1.0, "X": 1.0}, "interpolation": 2}]}, "duration": 86400.0, "image": "/home/milind/.openshot_qt/thumbnail/U6UPRJY8FR.png", "perspective_c2_y": {"Points": [{"co": {"Y": -1.0, "X": 1.0}, "interpolation": 2}]}, "time": {"Points": [{"co": {"Y": 1.0, "X": 1.0}, "interpolation": 2}]}, "title": "ILUG-MSG.svg", "perspective_c2_x": {"Points": [{"co": {"Y": -1.0, "X": 1.0}, "interpolation": 2}]}, "display": 0, "wave_color": {"blue": {"Points": [{"co": {"Y": 255.0, "X": 1.0}, "interpolation": 0, "handle_type": 0, "handle_left": {"Y": 1.0, "X": 0.5}, "handle_right": {"Y": 0.0, "X": 0.5}}]}, "alpha": {"Points": [{"co": {"Y": 255.0, "X": 1.0}, "interpolation": 0, "handle_type": 0, "handle_left": {"Y": 1.0, "X": 0.5}, "handle_right": {"Y": 0.0, "X": 0.5}}]}, "green": {"Points": [{"co": {"Y": 123.0, "X": 1.0}, "interpolation": 0, "handle_type": 0, "handle_left": {"Y": 1.0, "X": 0.5}, "handle_right": {"Y": 0.0, "X": 0.5}}]}, "red": {"Points": [{"co": {"Y": 0.0, "X": 1.0}, "interpolation": 0, "handle_type": 0, "handle_left": {"Y": 1.0, "X": 0.5}, "handle_right": {"Y": 0.0, "X": 0.5}}]}}, "alpha": {"Points": [{"co": {"Y": 1.0, "X": 1.0}, "interpolation": 2}]}, "gravity": 4, "shear_y": {"Points": [{"co": {"Y": 0.0, "X": 1.0}, "interpolation": 2}]}, "scale": 1, "location_x": {"Points": [{"co": {"Y": 0.0, "X": 1.0}, "interpolation": 2}]}, "crop_width": {"Points": [{"co": {"Y": -1.0, "X": 1.0}, "interpolation": 2}]}, "location_y": {"Points": [{"co": {"Y": 0.0, "X": 1.0}, "interpolation": 2}]}, "start": 0, "scale_x": {"Points": [{"co": {"Y": 1.0, "X": 1.0}, "interpolation": 2}]}, "has_audio": {"Points": [{"co": {"Y": -1.0, "X": 1.0}, "interpolation": 2}]}, "perspective_c4_y": {"Points": [{"co": {"Y": -1.0, "X": 1.0}, "interpolation": 2}]}, "perspective_c3_x": {"Points": [{"co": {"Y": -1.0, "X": 1.0}, "interpolation": 2}]}, "layer": 4, "position": 51.04, "id": "O5HVE437AI", "perspective_c1_y": {"Points": [{"co": {"Y": -1.0, "X": 1.0}, "interpolation": 2}]}, "reader": {"height": 1104, "duration": 86400.0, "type": "QtImageReader", "width": 1920, "display_ratio": {"num": 40, "den": 23}, "video_bit_rate": 0, "sample_rate": 0, "video_length": "2592000", "has_audio": false, "path": "/home/milind/Data/Projects/CTTdemo/assets/ILUG-MSG.svg", "video_stream_index": -1, "pixel_ratio": {"num": 1, "den": 1}, "channel_layout": 4, "channels": 0, "audio_bit_rate": 0, "video_timebase": {"num": 1, "den": 30}, "has_video": true, "file_size": "8478720", "acodec": "", "interlaced_frame": false, "audio_stream_index": -1, "audio_timebase": {"num": 1, "den": 1}, "top_field_first": true, "has_single_image": true, "fps": {"num": 30, "den": 1}, "vcodec": "", "pixel_format": -1}, "volume": {"Points": [{"co": {"Y": 1.0, "X": 1.0}, "interpolation": 2}]}, "shear_x": {"Points": [{"co": {"Y": 0.0, "X": 1.0}, "interpolation": 2}]}, "file_id": "U6UPRJY8FR", "rotation": {"Points": [{"co": {"Y": 0.0, "X": 1.0}, "interpolation": 2}]}, "effects": [], "crop_height": {"Points": [{"co": {"Y": -1.0, "X": 1.0}, "interpolation": 2}]}, "channel_mapping": {"Points": [{"co": {"Y": -1.0, "X": 1.0}, "interpolation": 2}]}, "anchor": 0, "channel_filter": {"Points": [{"co": {"Y": -1.0, "X": 1.0}, "interpolation": 2}]}, "perspective_c1_x": {"Points": [{"co": {"Y": -1.0, "X": 1.0}, "interpolation": 2}]}, "waveform": false, "has_video": {"Points": [{"co": {"Y": -1.0, "X": 1.0}, "interpolation": 2}]}, "scale_y": {"Points": [{"co": {"Y": 1.0, "X": 1.0}, "interpolation": 2}]}, "crop_x": {"Points": [{"co": {"Y": 0.0, "X": 1.0}, "interpolation": 2}]}, "end": 10, "perspective_c4_x": {"Points": [{"co": {"Y": -1.0, "X": 1.0}, "interpolation": 2}]}, "crop_y": {"Points": [{"co": {"Y": 0.0, "X": 1.0}, "interpolation": 2}]}}, "type": "update", "key": ["clips", {"id": "O5HVE437AI"}], "value": {"image": "/home/milind/.openshot_qt/thumbnail/U6UPRJY8FR.png", "start": 0, "end": 10, "layer": 4, "position": 41.12, "id": "O5HVE437AI"}, "partial": false}, {"old_values": {"perspective_c3_y": {"Points": [{"co": {"Y": -1.0, "X": 1.0}, "interpolation": 2}]}, "duration": 86400.0, "image": "/home/milind/.openshot_qt/thumbnail/P98G6MPRX5.png", "perspective_c2_y": {"Points": [{"co": {"Y": -1.0, "X": 1.0}, "interpolation": 2}]}, "time": {"Points": [{"co": {"Y": 1.0, "X": 1.0}, "interpolation": 2}]}, "title": "closing.svg", "perspective_c2_x": {"Points": [{"co": {"Y": -1.0, "X": 1.0}, "interpolation": 2}]}, "display": 0, "wave_color": {"blue": {"Points": [{"co": {"Y": 255.0, "X": 1.0}, "interpolation": 0, "handle_type": 0, "handle_left": {"Y": 1.0, "X": 0.5}, "handle_right": {"Y": 0.0, "X": 0.5}}]}, "alpha": {"Points": [{"co": {"Y": 255.0, "X": 1.0}, "interpolation": 0, "handle_type": 0, "handle_left": {"Y": 1.0, "X": 0.5}, "handle_right": {"Y": 0.0, "X": 0.5}}]}, "green": {"Points": [{"co": {"Y": 123.0, "X": 1.0}, "interpolation": 0, "handle_type": 0, "handle_left": {"Y": 1.0, "X": 0.5}, "handle_right": {"Y": 0.0, "X": 0.5}}]}, "red": {"Points": [{"co": {"Y": 0.0, "X": 1.0}, "interpolation": 0, "handle_type": 0, "handle_left": {"Y": 1.0, "X": 0.5}, "handle_right": {"Y": 0.0, "X": 0.5}}]}}, "alpha": {"Points": [{"co": {"Y": 1.0, "X": 1.0}, "interpolation": 2}]}, "gravity": 4, "shear_y": {"Points": [{"co": {"Y": 0.0, "X": 1.0}, "interpolation": 2}]}, "scale": 1, "location_x": {"Points": [{"co": {"Y": 0.0, "X": 1.0}, "interpolation": 2}]}, "crop_width": {"Points": [{"co": {"Y": -1.0, "X": 1.0}, "interpolation": 2}]}, "location_y": {"Points": [{"co": {"Y": 0.0, "X": 1.0}, "interpolation": 2}]}, "start": 0, "scale_x": {"Points": [{"co": {"Y": 1.0, "X": 1.0}, "interpolation": 2}]}, "has_audio": {"Points": [{"co": {"Y": -1.0, "X": 1.0}, "interpolation": 2}]}, "perspective_c4_y": {"Points": [{"co": {"Y": -1.0, "X": 1.0}, "interpolation": 2}]}, "perspective_c3_x": {"Points": [{"co": {"Y": -1.0, "X": 1.0}, "interpolation": 2}]}, "layer": 4, "position": 31.24, "id": "2PCWSRBZDT", "perspective_c1_y": {"Points": [{"co": {"Y": -1.0, "X": 1.0}, "interpolation": 2}]}, "reader": {"height": 1104, "duration": 86400.0, "type": "QtImageReader", "width": 1920, "display_ratio": {"num": 40, "den": 23}, "video_bit_rate": 0, "sample_rate": 0, "video_length": "2592000", "has_audio": false, "path": "/home/milind/Data/Projects/CTTdemo/assets/closing.svg", "video_stream_index": -1, "pixel_ratio": {"num": 1, "den": 1}, "channel_layout": 4, "channels": 0, "audio_bit_rate": 0, "video_timebase": {"num": 1, "den": 30}, "has_video": true, "file_size": "8478720", "acodec": "", "interlaced_frame": false, "audio_stream_index": -1, "audio_timebase": {"num": 1, "den": 1}, "top_field_first": true, "has_single_image": true, "fps": {"num": 30, "den": 1}, "vcodec": "", "pixel_format": -1}, "volume": {"Points": [{"co": {"Y": 1.0, "X": 1.0}, "interpolation": 2}]}, "shear_x": {"Points": [{"co": {"Y": 0.0, "X": 1.0}, "interpolation": 2}]}, "file_id": "P98G6MPRX5", "rotation": {"Points": [{"co": {"Y": 0.0, "X": 1.0}, "interpolation": 2}]}, "effects": [], "crop_height": {"Points": [{"co": {"Y": -1.0, "X": 1.0}, "interpolation": 2}]}, "channel_mapping": {"Points": [{"co": {"Y": -1.0, "X": 1.0}, "interpolation": 2}]}, "anchor": 0, "channel_filter": {"Points": [{"co": {"Y": -1.0, "X": 1.0}, "interpolation": 2}]}, "perspective_c1_x": {"Points": [{"co": {"Y": -1.0, "X": 1.0}, "interpolation": 2}]}, "waveform": false, "has_video": {"Points": [{"co": {"Y": -1.0, "X": 1.0}, "interpolation": 2}]}, "scale_y": {"Points": [{"co": {"Y": 1.0, "X": 1.0}, "interpolation": 2}]}, "crop_x": {"Points": [{"co": {"Y": 0.0, "X": 1.0}, "interpolation": 2}]}, "end": 10, "perspective_c4_x": {"Points": [{"co": {"Y": -1.0, "X": 1.0}, "interpolation": 2}]}, "crop_y": {"Points": [{"co": {"Y": 0.0, "X": 1.0}, "interpolation": 2}]}}, "type": "update", "key": ["clips", {"id": "2PCWSRBZDT"}], "value": {"perspective_c3_y": {"Points": [{"co": {"Y": -1.0, "X": 1.0}, "interpolation": 2}]}, "duration": 86400.0, "image": "/home/milind/.openshot_qt/thumbnail/P98G6MPRX5.png", "perspective_c2_y": {"Points": [{"co": {"Y": -1.0, "X": 1.0}, "interpolation": 2}]}, "time": {"Points": [{"co": {"Y": 1.0, "X": 1.0}, "interpolation": 2}]}, "title": "closing.svg", "perspective_c2_x": {"Points": [{"co": {"Y": -1.0, "X": 1.0}, "interpolation": 2}]}, "display": 0, "wave_color": {"blue": {"Points": [{"co": {"Y": 255.0, "X": 1.0}, "interpolation": 0, "handle_type": 0, "handle_left": {"Y": 1.0, "X": 0.5}, "handle_right": {"Y": 0.0, "X": 0.5}}]}, "alpha": {"Points": [{"co": {"Y": 255.0, "X": 1.0}, "interpolation": 0, "handle_type": 0, "handle_left": {"Y": 1.0, "X": 0.5}, "handle_right": {"Y": 0.0, "X": 0.5}}]}, "green": {"Points": [{"co": {"Y": 123.0, "X": 1.0}, "interpolation": 0, "handle_type": 0, "handle_left": {"Y": 1.0, "X": 0.5}, "handle_right": {"Y": 0.0, "X": 0.5}}]}, "red": {"Points": [{"co": {"Y": 0.0, "X": 1.0}, "interpolation": 0, "handle_type": 0, "handle_left": {"Y": 1.0, "X": 0.5}, "handle_right": {"Y": 0.0, "X": 0.5}}]}}, "alpha": {"Points": [{"co": {"Y": 1.0, "X": 1.0}, "interpolation": 2}, {"co": {"Y": 1.0, "X": 169.0}, "interpolation": 0, "handle_type": 0, "handle_left": {"Y": 1.0, "X": 0.5}, "handle_right": {"Y": 0.0, "X": 0.5}}, {"co": {"Y": 0.0, "X": 241.0}, "interpolation": 0, "handle_type": 0, "handle_left": {"Y": 1.0, "X": 0.5}, "handle_right": {"Y": 0.0, "X": 0.5}}]}, "gravity": 4, "shear_y": {"Points": [{"co": {"Y": 0.0, "X": 1.0}, "interpolation": 2}]}, "scale": 1, "location_x": {"Points": [{"co": {"Y": 0.0, "X": 1.0}, "interpolation": 2}]}, "crop_width": {"Points": [{"co": {"Y": -1.0, "X": 1.0}, "interpolation": 2}]}, "location_y": {"Points": [{"co": {"Y": 0.0, "X": 1.0}, "interpolation": 2}]}, "start": 0, "scale_x": {"Points": [{"co": {"Y": 1.0, "X": 1.0}, "interpolation": 2}]}, "has_audio": {"Points": [{"co": {"Y": -1.0, "X": 1.0}, "interpolation": 2}]}, "perspective_c4_y": {"Points": [{"co": {"Y": -1.0, "X": 1.0}, "interpolation": 2}]}, "perspective_c3_x": {"Points": [{"co": {"Y": -1.0, "X": 1.0}, "interpolation": 2}]}, "layer": 4, "position": 31.24, "id": "2PCWSRBZDT", "perspective_c1_y": {"Points": [{"co": {"Y": -1.0, "X": 1.0}, "interpolation": 2}]}, "volume": {"Points": [{"co": {"Y": 1.0, "X": 1.0}, "interpolation": 2}]}, "shear_x": {"Points": [{"co": {"Y": 0.0, "X": 1.0}, "interpolation": 2}]}, "file_id": "P98G6MPRX5", "rotation": {"Points": [{"co": {"Y": 0.0, "X": 1.0}, "interpolation": 2}]}, "effects": [], "crop_height": {"Points": [{"co": {"Y": -1.0, "X": 1.0}, "interpolation": 2}]}, "channel_mapping": {"Points": [{"co": {"Y": -1.0, "X": 1.0}, "interpolation": 2}]}, "anchor": 0, "channel_filter": {"Points": [{"co": {"Y": -1.0, "X": 1.0}, "interpolation": 2}]}, "perspective_c1_x": {"Points": [{"co": {"Y": -1.0, "X": 1.0}, "interpolation": 2}]}, "waveform": false, "has_video": {"Points": [{"co": {"Y": -1.0, "X": 1.0}, "interpolation": 2}]}, "scale_y": {"Points": [{"co": {"Y": 1.0, "X": 1.0}, "interpolation": 2}]}, "crop_x": {"Points": [{"co": {"Y": 0.0, "X": 1.0}, "interpolation": 2}]}, "end": 10, "perspective_c4_x": {"Points": [{"co": {"Y": -1.0, "X": 1.0}, "interpolation": 2}]}, "crop_y": {"Points": [{"co": {"Y": 0.0, "X": 1.0}, "interpolation": 2}]}}, "partial": false}, {"old_values": {"perspective_c3_y": {"Points": [{"co": {"Y": -1.0, "X": 1.0}, "interpolation": 2}]}, "duration": 86400.0, "image": "/home/milind/.openshot_qt/thumbnail/P98G6MPRX5.png", "perspective_c2_y": {"Points": [{"co": {"Y": -1.0, "X": 1.0}, "interpolation": 2}]}, "time": {"Points": [{"co": {"Y": 1.0, "X": 1.0}, "interpolation": 2}]}, "title": "closing.svg", "perspective_c2_x": {"Points": [{"co": {"Y": -1.0, "X": 1.0}, "interpolation": 2}]}, "display": 0, "wave_color": {"blue": {"Points": [{"co": {"Y": 255.0, "X": 1.0}, "interpolation": 0, "handle_type": 0, "handle_left": {"Y": 1.0, "X": 0.5}, "handle_right": {"Y": 0.0, "X": 0.5}}]}, "alpha": {"Points": [{"co": {"Y": 255.0, "X": 1.0}, "interpolation": 0, "handle_type": 0, "handle_left": {"Y": 1.0, "X": 0.5}, "handle_right": {"Y": 0.0, "X": 0.5}}]}, "green": {"Points": [{"co": {"Y": 123.0, "X": 1.0}, "interpolation": 0, "handle_type": 0, "handle_left": {"Y": 1.0, "X": 0.5}, "handle_right": {"Y": 0.0, "X": 0.5}}]}, "red": {"Points": [{"co": {"Y": 0.0, "X": 1.0}, "interpolation": 0, "handle_type": 0, "handle_left": {"Y": 1.0, "X": 0.5}, "handle_right": {"Y": 0.0, "X": 0.5}}]}}, "alpha": {"Points": [{"co": {"Y": 1.0, "X": 1.0}, "interpolation": 2}]}, "gravity": 4, "shear_y": {"Points": [{"co": {"Y": 0.0, "X": 1.0}, "interpolation": 2}]}, "scale": 1, "location_x": {"Points": [{"co": {"Y": 0.0, "X": 1.0}, "interpolation": 2}]}, "crop_width": {"Points": [{"co": {"Y": -1.0, "X": 1.0}, "interpolation": 2}]}, "location_y": {"Points": [{"co": {"Y": 0.0, "X": 1.0}, "interpolation": 2}]}, "start": 0, "scale_x": {"Points": [{"co": {"Y": 1.0, "X": 1.0}, "interpolation": 2}]}, "has_audio": {"Points": [{"co": {"Y": -1.0, "X": 1.0}, "interpolation": 2}]}, "perspective_c4_y": {"Points": [{"co": {"Y": -1.0, "X": 1.0}, "interpolation": 2}]}, "perspective_c3_x": {"Points": [{"co": {"Y": -1.0, "X": 1.0}, "interpolation": 2}]}, "layer": 4, "position": 21.24, "id": "O7P5OITE5D", "perspective_c1_y": {"Points": [{"co": {"Y": -1.0, "X": 1.0}, "interpolation": 2}]}, "reader": {"height": 1104, "duration": 86400.0, "type": "QtImageReader", "width": 1920, "display_ratio": {"num": 40, "den": 23}, "video_bit_rate": 0, "sample_rate": 0, "video_length": "2592000", "has_audio": false, "path": "/home/milind/Data/Projects/CTTdemo/assets/closing.svg", "video_stream_index": -1, "pixel_ratio": {"num": 1, "den": 1}, "channel_layout": 4, "channels": 0, "audio_bit_rate": 0, "video_timebase": {"num": 1, "den": 30}, "has_video": true, "file_size": "8478720", "acodec": "", "interlaced_frame": false, "audio_stream_index": -1, "audio_timebase": {"num": 1, "den": 1}, "top_field_first": true, "has_single_image": true, "fps": {"num": 30, "den": 1}, "vcodec": "", "pixel_format": -1}, "volume": {"Points": [{"co": {"Y": 1.0, "X": 1.0}, "interpolation": 2}]}, "shear_x": {"Points": [{"co": {"Y": 0.0, "X": 1.0}, "interpolation": 2}]}, "file_id": "P98G6MPRX5", "rotation": {"Points": [{"co": {"Y": 0.0, "X": 1.0}, "interpolation": 2}]}, "effects": [], "crop_height": {"Points": [{"co": {"Y": -1.0, "X": 1.0}, "interpolation": 2}]}, "channel_mapping": {"Points": [{"co": {"Y": -1.0, "X": 1.0}, "interpolation": 2}]}, "anchor": 0, "channel_filter": {"Points": [{"co": {"Y": -1.0, "X": 1.0}, "interpolation": 2}]}, "perspective_c1_x": {"Points": [{"co": {"Y": -1.0, "X": 1.0}, "interpolation": 2}]}, "waveform": false, "has_video": {"Points": [{"co": {"Y": -1.0, "X": 1.0}, "interpolation": 2}]}, "scale_y": {"Points": [{"co": {"Y": 1.0, "X": 1.0}, "interpolation": 2}]}, "crop_x": {"Points": [{"co": {"Y": 0.0, "X": 1.0}, "interpolation": 2}]}, "end": 10, "perspective_c4_x": {"Points": [{"co": {"Y": -1.0, "X": 1.0}, "interpolation": 2}]}, "crop_y": {"Points": [{"co": {"Y": 0.0, "X": 1.0}, "interpolation": 2}]}}, "type": "update", "key": ["clips", {"id": "O7P5OITE5D"}], "value": {"perspective_c3_y": {"Points": [{"co": {"Y": -1.0, "X": 1.0}, "interpolation": 2}]}, "duration": 86400.0, "image": "/home/milind/.openshot_qt/thumbnail/P98G6MPRX5.png", "perspective_c2_y": {"Points": [{"co": {"Y": -1.0, "X": 1.0}, "interpolation": 2}]}, "time": {"Points": [{"co": {"Y": 1.0, "X": 1.0}, "interpolation": 2}]}, "title": "closing.svg", "perspective_c2_x": {"Points": [{"co": {"Y": -1.0, "X": 1.0}, "interpolation": 2}]}, "display": 0, "wave_color": {"blue": {"Points": [{"co": {"Y": 255.0, "X": 1.0}, "interpolation": 0, "handle_type": 0, "handle_left": {"Y": 1.0, "X": 0.5}, "handle_right": {"Y": 0.0, "X": 0.5}}]}, "alpha": {"Points": [{"co": {"Y": 255.0, "X": 1.0}, "interpolation": 0, "handle_type": 0, "handle_left": {"Y": 1.0, "X": 0.5}, "handle_right": {"Y": 0.0, "X": 0.5}}]}, "green": {"Points": [{"co": {"Y": 123.0, "X": 1.0}, "interpolation": 0, "handle_type": 0, "handle_left": {"Y": 1.0, "X": 0.5}, "handle_right": {"Y": 0.0, "X": 0.5}}]}, "red": {"Points": [{"co": {"Y": 0.0, "X": 1.0}, "interpolation": 0, "handle_type": 0, "handle_left": {"Y": 1.0, "X": 0.5}, "handle_right": {"Y": 0.0, "X": 0.5}}]}}, "alpha": {"Points": [{"co": {"Y": 1.0, "X": 1.0}, "interpolation": 2}, {"co": {"Y": 0.0, "X": 1.0}, "interpolation": 0, "handle_type": 0, "handle_left": {"Y": 1.0, "X": 0.5}, "handle_right": {"Y": 0.0, "X": 0.5}}, {"co": {"Y": 1.0, "X": 73.0}, "interpolation": 0, "handle_type": 0, "handle_left": {"Y": 1.0, "X": 0.5}, "handle_right": {"Y": 0.0, "X": 0.5}}]}, "gravity": 4, "shear_y": {"Points": [{"co": {"Y": 0.0, "X": 1.0}, "interpolation": 2}]}, "scale": 1, "location_x": {"Points": [{"co": {"Y": 0.0, "X": 1.0}, "interpolation": 2}]}, "crop_width": {"Points": [{"co": {"Y": -1.0, "X": 1.0}, "interpolation": 2}]}, "location_y": {"Points": [{"co": {"Y": 0.0, "X": 1.0}, "interpolation": 2}]}, "start": 0, "scale_x": {"Points": [{"co": {"Y": 1.0, "X": 1.0}, "interpolation": 2}]}, "has_audio": {"Points": [{"co": {"Y": -1.0, "X": 1.0}, "interpolation": 2}]}, "perspective_c4_y": {"Points": [{"co": {"Y": -1.0, "X": 1.0}, "interpolation": 2}]}, "perspective_c3_x": {"Points": [{"co": {"Y": -1.0, "X": 1.0}, "interpolation": 2}]}, "layer": 4, "position": 21.24, "id": "O7P5OITE5D", "perspective_c1_y": {"Points": [{"co": {"Y": -1.0, "X": 1.0}, "interpolation": 2}]}, "volume": {"Points": [{"co": {"Y": 1.0, "X": 1.0}, "interpolation": 2}]}, "shear_x": {"Points": [{"co": {"Y": 0.0, "X": 1.0}, "interpolation": 2}]}, "file_id": "P98G6MPRX5", "rotation": {"Points": [{"co": {"Y": 0.0, "X": 1.0}, "interpolation": 2}]}, "effects": [], "crop_height": {"Points": [{"co": {"Y": -1.0, "X": 1.0}, "interpolation": 2}]}, "channel_mapping": {"Points": [{"co": {"Y": -1.0, "X": 1.0}, "interpolation": 2}]}, "anchor": 0, "channel_filter": {"Points": [{"co": {"Y": -1.0, "X": 1.0}, "interpolation": 2}]}, "perspective_c1_x": {"Points": [{"co": {"Y": -1.0, "X": 1.0}, "interpolation": 2}]}, "waveform": false, "has_video": {"Points": [{"co": {"Y": -1.0, "X": 1.0}, "interpolation": 2}]}, "scale_y": {"Points": [{"co": {"Y": 1.0, "X": 1.0}, "interpolation": 2}]}, "crop_x": {"Points": [{"co": {"Y": 0.0, "X": 1.0}, "interpolation": 2}]}, "end": 10, "perspective_c4_x": {"Points": [{"co": {"Y": -1.0, "X": 1.0}, "interpolation": 2}]}, "crop_y": {"Points": [{"co": {"Y": 0.0, "X": 1.0}, "interpolation": 2}]}}, "partial": false}, {"old_values": {"perspective_c3_y": {"Points": [{"co": {"Y": -1.0, "X": 1.0}, "interpolation": 2}]}, "duration": 86400.0, "image": "/home/milind/.openshot_qt/thumbnail/P98G6MPRX5.png", "perspective_c2_y": {"Points": [{"co": {"Y": -1.0, "X": 1.0}, "interpolation": 2}]}, "time": {"Points": [{"co": {"Y": 1.0, "X": 1.0}, "interpolation": 2}]}, "title": "closing.svg", "perspective_c2_x": {"Points": [{"co": {"Y": -1.0, "X": 1.0}, "interpolation": 2}]}, "display": 0, "wave_color": {"blue": {"Points": [{"co": {"Y": 255.0, "X": 1.0}, "interpolation": 0, "handle_type": 0, "handle_left": {"Y": 1.0, "X": 0.5}, "handle_right": {"Y": 0.0, "X": 0.5}}]}, "red": {"Points": [{"co": {"Y": 0.0, "X": 1.0}, "interpolation": 0, "handle_type": 0, "handle_left": {"Y": 1.0, "X": 0.5}, "handle_right": {"Y": 0.0, "X": 0.5}}]}, "green": {"Points": [{"co": {"Y": 123.0, "X": 1.0}, "interpolation": 0, "handle_type": 0, "handle_left": {"Y": 1.0, "X": 0.5}, "handle_right": {"Y": 0.0, "X": 0.5}}]}, "alpha": {"Points": [{"co": {"Y": 255.0, "X": 1.0}, "interpolation": 0, "handle_type": 0, "handle_left": {"Y": 1.0, "X": 0.5}, "handle_right": {"Y": 0.0, "X": 0.5}}]}}, "alpha": {"Points": [{"co": {"Y": 1.0, "X": 1.0}, "interpolation": 2}, {"co": {"Y": 0.0, "X": 1.0}, "interpolation": 0, "handle_type": 0, "handle_left": {"Y": 1.0, "X": 0.5}, "handle_right": {"Y": 0.0, "X": 0.5}}, {"co": {"Y": 1.0, "X": 73.0}, "interpolation": 0, "handle_type": 0, "handle_left": {"Y": 1.0, "X": 0.5}, "handle_right": {"Y": 0.0, "X": 0.5}}]}, "gravity": 4, "shear_y": {"Points": [{"co": {"Y": 0.0, "X": 1.0}, "interpolation": 2}]}, "scale": 1, "location_x": {"Points": [{"co": {"Y": 0.0, "X": 1.0}, "interpolation": 2}]}, "crop_width": {"Points": [{"co": {"Y": -1.0, "X": 1.0}, "interpolation": 2}]}, "location_y": {"Points": [{"co": {"Y": 0.0, "X": 1.0}, "interpolation": 2}]}, "start": 0, "scale_x": {"Points": [{"co": {"Y": 1.0, "X": 1.0}, "interpolation": 2}]}, "has_audio": {"Points": [{"co": {"Y": -1.0, "X": 1.0}, "interpolation": 2}]}, "perspective_c4_y": {"Points": [{"co": {"Y": -1.0, "X": 1.0}, "interpolation": 2}]}, "perspective_c3_x": {"Points": [{"co": {"Y": -1.0, "X": 1.0}, "interpolation": 2}]}, "layer": 4, "position": 21.24, "id": "O7P5OITE5D", "perspective_c1_y": {"Points": [{"co": {"Y": -1.0, "X": 1.0}, "interpolation": 2}]}, "reader": {"height": 1104, "duration": 86400.0, "type": "QtImageReader", "width": 1920, "display_ratio": {"num": 40, "den": 23}, "video_bit_rate": 0, "sample_rate": 0, "video_length": "2592000", "has_audio": false, "path": "/home/milind/Data/Projects/CTTdemo/assets/closing.svg", "video_stream_index": -1, "pixel_ratio": {"num": 1, "den": 1}, "channel_layout": 4, "channels": 0, "audio_bit_rate": 0, "video_timebase": {"num": 1, "den": 30}, "has_video": true, "file_size": "8478720", "acodec": "", "interlaced_frame": false, "audio_stream_index": -1, "audio_timebase": {"num": 1, "den": 1}, "top_field_first": true, "has_single_image": true, "fps": {"num": 30, "den": 1}, "vcodec": "", "pixel_format": -1}, "volume": {"Points": [{"co": {"Y": 1.0, "X": 1.0}, "interpolation": 2}]}, "shear_x": {"Points": [{"co": {"Y": 0.0, "X": 1.0}, "interpolation": 2}]}, "file_id": "P98G6MPRX5", "rotation": {"Points": [{"co": {"Y": 0.0, "X": 1.0}, "interpolation": 2}]}, "effects": [], "crop_height": {"Points": [{"co": {"Y": -1.0, "X": 1.0}, "interpolation": 2}]}, "channel_mapping": {"Points": [{"co": {"Y": -1.0, "X": 1.0}, "interpolation": 2}]}, "anchor": 0, "channel_filter": {"Points": [{"co": {"Y": -1.0, "X": 1.0}, "interpolation": 2}]}, "perspective_c1_x": {"Points": [{"co": {"Y": -1.0, "X": 1.0}, "interpolation": 2}]}, "waveform": false, "has_video": {"Points": [{"co": {"Y": -1.0, "X": 1.0}, "interpolation": 2}]}, "scale_y": {"Points": [{"co": {"Y": 1.0, "X": 1.0}, "interpolation": 2}]}, "crop_x": {"Points": [{"co": {"Y": 0.0, "X": 1.0}, "interpolation": 2}]}, "end": 10, "perspective_c4_x": {"Points": [{"co": {"Y": -1.0, "X": 1.0}, "interpolation": 2}]}, "crop_y": {"Points": [{"co": {"Y": 0.0, "X": 1.0}, "interpolation": 2}]}}, "type": "update", "key": ["clips", {"id": "O7P5OITE5D"}], "value": {"perspective_c3_y": {"Points": [{"co": {"Y": -1.0, "X": 1.0}, "interpolation": 2}]}, "duration": 86400.0, "image": "/home/milind/.openshot_qt/thumbnail/P98G6MPRX5.png", "perspective_c2_y": {"Points": [{"co": {"Y": -1.0, "X": 1.0}, "interpolation": 2}]}, "time": {"Points": [{"co": {"Y": 1.0, "X": 1.0}, "interpolation": 2}]}, "title": "closing.svg", "perspective_c2_x": {"Points": [{"co": {"Y": -1.0, "X": 1.0}, "interpolation": 2}]}, "display": 0, "wave_color": {"blue": {"Points": [{"co": {"Y": 255.0, "X": 1.0}, "interpolation": 0, "handle_type": 0, "handle_left": {"Y": 1.0, "X": 0.5}, "handle_right": {"Y": 0.0, "X": 0.5}}]}, "red": {"Points": [{"co": {"Y": 0.0, "X": 1.0}, "interpolation": 0, "handle_type": 0, "handle_left": {"Y": 1.0, "X": 0.5}, "handle_right": {"Y": 0.0, "X": 0.5}}]}, "green": {"Points": [{"co": {"Y": 123.0, "X": 1.0}, "interpolation": 0, "handle_type": 0, "handle_left": {"Y": 1.0, "X": 0.5}, "handle_right": {"Y": 0.0, "X": 0.5}}]}, "alpha": {"Points": [{"co": {"Y": 255.0, "X": 1.0}, "interpolation": 0, "handle_type": 0, "handle_left": {"Y": 1.0, "X": 0.5}, "handle_right": {"Y": 0.0, "X": 0.5}}]}}, "alpha": {"Points": [{"co": {"Y": 1.0, "X": 1.0}, "interpolation": 2}, {"co": {"Y": 0.0, "X": 1.0}, "interpolation": 0, "handle_type": 0, "handle_left": {"Y": 1.0, "X": 0.5}, "handle_right": {"Y": 0.0, "X": 0.5}}, {"co": {"Y": 1.0, "X": 73.0}, "interpolation": 0, "handle_type": 0, "handle_left": {"Y": 1.0, "X": 0.5}, "handle_right": {"Y": 0.0, "X": 0.5}}]}, "gravity": 4, "shear_y": {"Points": [{"co": {"Y": 0.0, "X": 1.0}, "interpolation": 2}]}, "scale": 1, "location_x": {"Points": [{"co": {"Y": 0.0, "X": 1.0}, "interpolation": 2}, {"co": {"Y": 0.0, "X": 1.0}, "interpolation": 0, "handle_type": 0, "handle_left": {"Y": 1.0, "X": 0.5}, "handle_right": {"Y": 0.0, "X": 0.5}}, {"co": {"Y": 0.0, "X": 25.0}, "interpolation": 0, "handle_type": 0, "handle_left": {"Y": 1.0, "X": 0.5}, "handle_right": {"Y": 0.0, "X": 0.5}}]}, "crop_width": {"Points": [{"co": {"Y": -1.0, "X": 1.0}, "interpolation": 2}]}, "location_y": {"Points": [{"co": {"Y": 0.0, "X": 1.0}, "interpolation": 2}, {"co": {"Y": 1.0, "X": 1.0}, "interpolation": 0, "handle_type": 0, "handle_left": {"Y": 1.0, "X": 0.5}, "handle_right": {"Y": 0.0, "X": 0.5}}, {"co": {"Y": 0.0, "X": 25.0}, "interpolation": 0, "handle_type": 0, "handle_left": {"Y": 1.0, "X": 0.5}, "handle_right": {"Y": 0.0, "X": 0.5}}]}, "start": 0, "scale_x": {"Points": [{"co": {"Y": 1.0, "X": 1.0}, "interpolation": 2}]}, "has_audio": {"Points": [{"co": {"Y": -1.0, "X": 1.0}, "interpolation": 2}]}, "perspective_c4_y": {"Points": [{"co": {"Y": -1.0, "X": 1.0}, "interpolation": 2}]}, "perspective_c3_x": {"Points": [{"co": {"Y": -1.0, "X": 1.0}, "interpolation": 2}]}, "layer": 4, "position": 21.24, "id": "O7P5OITE5D", "perspective_c1_y": {"Points": [{"co": {"Y": -1.0, "X": 1.0}, "interpolation": 2}]}, "volume": {"Points": [{"co": {"Y": 1.0, "X": 1.0}, "interpolation": 2}]}, "shear_x": {"Points": [{"co": {"Y": 0.0, "X": 1.0}, "interpolation": 2}]}, "file_id": "P98G6MPRX5", "rotation": {"Points": [{"co": {"Y": 0.0, "X": 1.0}, "interpolation": 2}]}, "effects": [], "crop_height": {"Points": [{"co": {"Y": -1.0, "X": 1.0}, "interpolation": 2}]}, "channel_mapping": {"Points": [{"co": {"Y": -1.0, "X": 1.0}, "interpolation": 2}]}, "anchor": 0, "channel_filter": {"Points": [{"co": {"Y": -1.0, "X": 1.0}, "interpolation": 2}]}, "perspective_c1_x": {"Points": [{"co": {"Y": -1.0, "X": 1.0}, "interpolation": 2}]}, "waveform": false, "has_video": {"Points": [{"co": {"Y": -1.0, "X": 1.0}, "interpolation": 2}]}, "scale_y": {"Points": [{"co": {"Y": 1.0, "X": 1.0}, "interpolation": 2}]}, "crop_x": {"Points": [{"co": {"Y": 0.0, "X": 1.0}, "interpolation": 2}]}, "end": 10, "perspective_c4_x": {"Points": [{"co": {"Y": -1.0, "X": 1.0}, "interpolation": 2}]}, "crop_y": {"Points": [{"co": {"Y": 0.0, "X": 1.0}, "interpolation": 2}]}}, "partial": false}], "redo": []}, "markers": [], "progress": [], "id": "T0", "channels": 2, "files": [{"duration": 21.0, "type": "FFmpegReader", "width": 1366, "display_ratio": {"num": 683, "den": 384}, "video_bit_rate": 0, "sample_rate": 0, "video_length": "525", "channel_layout": 4, "fps": {"num": 25, "den": 1}, "path": "Demo-03-Renaming copy pasted Time-Slots.mkv", "file_size": "191199", "video_stream_index": 0, "has_audio": false, "channels": 0, "audio_bit_rate": 0, "video_timebase": {"num": 1, "den": 1000}, "has_video": true, "media_type": "video", "acodec": "", "vcodec": "h264", "interlaced_frame": false, "audio_stream_index": -1, "audio_timebase": {"num": 1, "den": 1}, "top_field_first": true, "pixel_ratio": {"num": 1, "den": 1}, "id": "89VB9QOG5Q", "height": 768, "has_single_image": false, "pixel_format": 0}, {"height": 1104, "duration": 86400.0, "type": "QtImageReader", "audio_timebase": {"num": 1, "den": 1}, "width": 1920, "display_ratio": {"num": 40, "den": 23}, "video_bit_rate": 0, "sample_rate": 0, "video_length": "2592000", "has_audio": false, "path": "assets/ILUG-MSG.svg", "video_stream_index": -1, "channel_layout": 4, "channels": 0, "audio_bit_rate": 0, "video_timebase": {"num": 1, "den": 30}, "has_video": true, "has_single_image": true, "pixel_format": -1, "acodec": "", "interlaced_frame": false, "audio_stream_index": -1, "file_size": "8478720", "top_field_first": true, "pixel_ratio": {"num": 1, "den": 1}, "id": "U6UPRJY8FR", "fps": {"num": 30, "den": 1}, "vcodec": "", "media_type": "image"}, {"height": 1104, "duration": 86400.0, "type": "QtImageReader", "audio_timebase": {"num": 1, "den": 1}, "width": 1920, "display_ratio": {"num": 40, "den": 23}, "video_bit_rate": 0, "sample_rate": 0, "video_length": "2592000", "has_audio": false, "path": "assets/closing.svg", "video_stream_index": -1, "channel_layout": 4, "channels": 0, "audio_bit_rate": 0, "video_timebase": {"num": 1, "den": 30}, "has_video": true, "has_single_image": true, "pixel_format": -1, "acodec": "", "interlaced_frame": false, "audio_stream_index": -1, "file_size": "8478720", "top_field_first": true, "pixel_ratio": {"num": 1, "den": 1}, "id": "P98G6MPRX5", "fps": {"num": 30, "den": 1}, "vcodec": "", "media_type": "image"}], "clips": [{"image": "../../../.openshot_qt/thumbnail/89VB9QOG5Q.png", "duration": 21.0, "scale": 1, "perspective_c2_y": {"Points": [{"co": {"Y": -1.0, "X": 1.0}, "interpolation": 2}]}, "time": {"Points": [{"co": {"Y": 1.0, "X": 1.0}, "interpolation": 2}]}, "title": "Demo-03-Renaming copy pasted Time-Slots.mkv", "perspective_c2_x": {"Points": [{"co": {"Y": -1.0, "X": 1.0}, "interpolation": 2}]}, "waveform": false, "wave_color": {"blue": {"Points": [{"co": {"Y": 255.0, "X": 1.0}, "interpolation": 0, "handle_type": 0, "handle_left": {"Y": 1.0, "X": 0.5}, "handle_right": {"Y": 0.0, "X": 0.5}}]}, "alpha": {"Points": [{"co": {"Y": 255.0, "X": 1.0}, "interpolation": 0, "handle_type": 0, "handle_left": {"Y": 1.0, "X": 0.5}, "handle_right": {"Y": 0.0, "X": 0.5}}]}, "red": {"Points": [{"co": {"Y": 0.0, "X": 1.0}, "interpolation": 0, "handle_type": 0, "handle_left": {"Y": 1.0, "X": 0.5}, "handle_right": {"Y": 0.0, "X": 0.5}}]}, "green": {"Points": [{"co": {"Y": 123.0, "X": 1.0}, "interpolation": 0, "handle_type": 0, "handle_left": {"Y": 1.0, "X": 0.5}, "handle_right": {"Y": 0.0, "X": 0.5}}]}}, "alpha": {"Points": [{"co": {"Y": 1.0, "X": 1.0}, "interpolation": 2}, {"co": {"Y": 0.0, "X": 1.0}, "interpolation": 0, "handle_type": 0, "handle_left": {"Y": 1.0, "X": 0.5}, "handle_right": {"Y": 0.0, "X": 0.5}}, {"co": {"Y": 1.0, "X": 73.0}, "interpolation": 0, "handle_type": 0, "handle_left": {"Y": 1.0, "X": 0.5}, "handle_right": {"Y": 0.0, "X": 0.5}}, {"co": {"Y": 1.0, "X": 433.0}, "interpolation": 0, "handle_type": 0, "handle_left": {"Y": 1.0, "X": 0.5}, "handle_right": {"Y": 0.0, "X": 0.5}}, {"co": {"Y": 0.0, "X": 505.0}, "interpolation": 0, "handle_type": 0, "handle_left": {"Y": 1.0, "X": 0.5}, "handle_right": {"Y": 0.0, "X": 0.5}}]}, "scale_y": {"Points": [{"co": {"Y": 1.0, "X": 1.0}, "interpolation": 2}]}, "shear_y": {"Points": [{"co": {"Y": 0.0, "X": 1.0}, "interpolation": 2}]}, "scale_x": {"Points": [{"co": {"Y": 1.0, "X": 1.0}, "interpolation": 2}]}, "crop_width": {"Points": [{"co": {"Y": -1.0, "X": 1.0}, "interpolation": 2}]}, "location_y": {"Points": [{"co": {"Y": 0.0, "X": 1.0}, "interpolation": 2}]}, "start": 0, "location_x": {"Points": [{"co": {"Y": 0.0, "X": 1.0}, "interpolation": 2}]}, "has_audio": {"Points": [{"co": {"Y": -1.0, "X": 1.0}, "interpolation": 2}]}, "perspective_c4_y": {"Points": [{"co": {"Y": -1.0, "X": 1.0}, "interpolation": 2}]}, "perspective_c3_x": {"Points": [{"co": {"Y": -1.0, "X": 1.0}, "interpolation": 2}]}, "channel_mapping": {"Points": [{"co": {"Y": -1.0, "X": 1.0}, "interpolation": 2}]}, "layer": 4, "position": 0, "id": "DST1B0379I", "reader": {"duration": 21.0, "type": "FFmpegReader", "width": 1366, "display_ratio": {"num": 683, "den": 384}, "video_bit_rate": 0, "sample_rate": 0, "video_length": "525", "channel_layout": 4, "fps": {"num": 25, "den": 1}, "path": "Demo-03-Renaming copy pasted Time-Slots.mkv", "video_stream_index": 0, "has_audio": false, "channels": 0, "audio_bit_rate": 0, "video_timebase": {"num": 1, "den": 1000}, "has_video": true, "file_size": "191199", "acodec": "", "vcodec": "h264", "interlaced_frame": false, "audio_stream_index": -1, "audio_timebase": {"num": 1, "den": 1}, "top_field_first": true, "pixel_ratio": {"num": 1, "den": 1}, "height": 768, "has_single_image": false, "pixel_format": 0}, "volume": {"Points": [{"co": {"Y": 1.0, "X": 1.0}, "interpolation": 2}]}, "shear_x": {"Points": [{"co": {"Y": 0.0, "X": 1.0}, "interpolation": 2}]}, "file_id": "89VB9QOG5Q", "rotation": {"Points": [{"co": {"Y": 0.0, "X": 1.0}, "interpolation": 2}]}, "effects": [], "crop_height": {"Points": [{"co": {"Y": -1.0, "X": 1.0}, "interpolation": 2}]}, "perspective_c1_y": {"Points": [{"co": {"Y": -1.0, "X": 1.0}, "interpolation": 2}]}, "perspective_c3_y": {"Points": [{"co": {"Y": -1.0, "X": 1.0}, "interpolation": 2}]}, "anchor": 0, "channel_filter": {"Points": [{"co": {"Y": -1.0, "X": 1.0}, "interpolation": 2}]}, "perspective_c1_x": {"Points": [{"co": {"Y": -1.0, "X": 1.0}, "interpolation": 2}]}, "end": 21, "display": 0, "has_video": {"Points": [{"co": {"Y": -1.0, "X": 1.0}, "interpolation": 2}]}, "gravity": 4, "crop_x": {"Points": [{"co": {"Y": 0.0, "X": 1.0}, "interpolation": 2}]}, "perspective_c4_x": {"Points": [{"co": {"Y": -1.0, "X": 1.0}, "interpolation": 2}]}, "crop_y": {"Points": [{"co": {"Y": 0.0, "X": 1.0}, "interpolation": 2}]}}, {"perspective_c3_y": {"Points": [{"co": {"Y": -1.0, "X": 1.0}, "interpolation": 2}]}, "duration": 86400.0, "image": "../../../.openshot_qt/thumbnail/P98G6MPRX5.png", "perspective_c2_y": {"Points": [{"co": {"Y": -1.0, "X": 1.0}, "interpolation": 2}]}, "time": {"Points": [{"co": {"Y": 1.0, "X": 1.0}, "interpolation": 2}]}, "effects": [], "perspective_c2_x": {"Points": [{"co": {"Y": -1.0, "X": 1.0}, "interpolation": 2}]}, "display": 0, "location_x": {"Points": [{"co": {"Y": 0.0, "X": 1.0}, "interpolation": 2}, {"co": {"Y": 0.0, "X": 1.0}, "interpolation": 0, "handle_type": 0, "handle_left": {"Y": 1.0, "X": 0.5}, "handle_right": {"Y": 0.0, "X": 0.5}}, {"co": {"Y": 0.0, "X": 25.0}, "interpolation": 0, "handle_type": 0, "handle_left": {"Y": 1.0, "X": 0.5}, "handle_right": {"Y": 0.0, "X": 0.5}}]}, "has_audio": {"Points": [{"co": {"Y": -1.0, "X": 1.0}, "interpolation": 2}]}, "perspective_c1_x": {"Points": [{"co": {"Y": -1.0, "X": 1.0}, "interpolation": 2}]}, "alpha": {"Points": [{"co": {"Y": 1.0, "X": 1.0}, "interpolation": 2}, {"co": {"Y": 0.0, "X": 1.0}, "interpolation": 0, "handle_type": 0, "handle_left": {"Y": 1.0, "X": 0.5}, "handle_right": {"Y": 0.0, "X": 0.5}}, {"co": {"Y": 1.0, "X": 73.0}, "interpolation": 0, "handle_type": 0, "handle_left": {"Y": 1.0, "X": 0.5}, "handle_right": {"Y": 0.0, "X": 0.5}}]}, "perspective_c1_y": {"Points": [{"co": {"Y": -1.0, "X": 1.0}, "interpolation": 2}]}, "reader": {"height": 1104, "duration": 86400.0, "type": "QtImageReader", "width": 1920, "display_ratio": {"num": 40, "den": 23}, "video_bit_rate": 0, "sample_rate": 0, "video_length": "2592000", "has_audio": false, "file_size": "8478720", "video_stream_index": -1, "channel_layout": 4, "channels": 0, "path": "assets/closing.svg", "video_timebase": {"num": 1, "den": 30}, "has_video": true, "has_single_image": true, "audio_bit_rate": 0, "acodec": "", "interlaced_frame": false, "audio_stream_index": -1, "audio_timebase": {"num": 1, "den": 1}, "top_field_first": true, "pixel_ratio": {"num": 1, "den": 1}, "fps": {"num": 30, "den": 1}, "vcodec": "", "pixel_format": -1}, "volume": {"Points": [{"co": {"Y": 1.0, "X": 1.0}, "interpolation": 2}]}, "title": "closing.svg", "layer": 4, "end": 10, "has_video": {"Points": [{"co": {"Y": -1.0, "X": 1.0}, "interpolation": 2}]}, "gravity": 4, "crop_x": {"Points": [{"co": {"Y": 0.0, "X": 1.0}, "interpolation": 2}]}, "crop_y": {"Points": [{"co": {"Y": 0.0, "X": 1.0}, "interpolation": 2}]}, "scale": 1, "start": 0, "perspective_c4_y": {"Points": [{"co": {"Y": -1.0, "X": 1.0}, "interpolation": 2}]}, "waveform": false, "wave_color": {"blue": {"Points": [{"co": {"Y": 255.0, "X": 1.0}, "interpolation": 0, "handle_type": 0, "handle_left": {"Y": 1.0, "X": 0.5}, "handle_right": {"Y": 0.0, "X": 0.5}}]}, "alpha": {"Points": [{"co": {"Y": 255.0, "X": 1.0}, "interpolation": 0, "handle_type": 0, "handle_left": {"Y": 1.0, "X": 0.5}, "handle_right": {"Y": 0.0, "X": 0.5}}]}, "green": {"Points": [{"co": {"Y": 123.0, "X": 1.0}, "interpolation": 0, "handle_type": 0, "handle_left": {"Y": 1.0, "X": 0.5}, "handle_right": {"Y": 0.0, "X": 0.5}}]}, "red": {"Points": [{"co": {"Y": 0.0, "X": 1.0}, "interpolation": 0, "handle_type": 0, "handle_left": {"Y": 1.0, "X": 0.5}, "handle_right": {"Y": 0.0, "X": 0.5}}]}}, "scale_y": {"Points": [{"co": {"Y": 1.0, "X": 1.0}, "interpolation": 2}]}, "shear_y": {"Points": [{"co": {"Y": 0.0, "X": 1.0}, "interpolation": 2}]}, "crop_width": {"Points": [{"co": {"Y": -1.0, "X": 1.0}, "interpolation": 2}]}, "location_y": {"Points": [{"co": {"Y": 0.0, "X": 1.0}, "interpolation": 2}, {"co": {"Y": 1.0, "X": 1.0}, "interpolation": 0, "handle_type": 0, "handle_left": {"Y": 1.0, "X": 0.5}, "handle_right": {"Y": 0.0, "X": 0.5}}, {"co": {"Y": 0.0, "X": 25.0}, "interpolation": 0, "handle_type": 0, "handle_left": {"Y": 1.0, "X": 0.5}, "handle_right": {"Y": 0.0, "X": 0.5}}]}, "scale_x": {"Points": [{"co": {"Y": 1.0, "X": 1.0}, "interpolation": 2}]}, "perspective_c3_x": {"Points": [{"co": {"Y": -1.0, "X": 1.0}, "interpolation": 2}]}, "position": 21.24, "id": "O7P5OITE5D", "shear_x": {"Points": [{"co": {"Y": 0.0, "X": 1.0}, "interpolation": 2}]}, "file_id": "P98G6MPRX5", "rotation": {"Points": [{"co": {"Y": 0.0, "X": 1.0}, "interpolation": 2}]}, "crop_height": {"Points": [{"co": {"Y": -1.0, "X": 1.0}, "interpolation": 2}]}, "channel_mapping": {"Points": [{"co": {"Y": -1.0, "X": 1.0}, "interpolation": 2}]}, "anchor": 0, "channel_filter": {"Points": [{"co": {"Y": -1.0, "X": 1.0}, "interpolation": 2}]}, "perspective_c4_x": {"Points": [{"co": {"Y": -1.0, "X": 1.0}, "interpolation": 2}]}}, {"perspective_c3_y": {"Points": [{"co": {"Y": -1.0, "X": 1.0}, "interpolation": 2}]}, "duration": 86400.0, "image": "../../../.openshot_qt/thumbnail/U6UPRJY8FR.png", "perspective_c2_y": {"Points": [{"co": {"Y": -1.0, "X": 1.0}, "interpolation": 2}]}, "time": {"Points": [{"co": {"Y": 1.0, "X": 1.0}, "interpolation": 2}]}, "effects": [], "perspective_c2_x": {"Points": [{"co": {"Y": -1.0, "X": 1.0}, "interpolation": 2}]}, "display": 0, "location_x": {"Points": [{"co": {"Y": 0.0, "X": 1.0}, "interpolation": 2}]}, "has_audio": {"Points": [{"co": {"Y": -1.0, "X": 1.0}, "interpolation": 2}]}, "perspective_c1_x": {"Points": [{"co": {"Y": -1.0, "X": 1.0}, "interpolation": 2}]}, "alpha": {"Points": [{"co": {"Y": 1.0, "X": 1.0}, "interpolation": 2}]}, "perspective_c1_y": {"Points": [{"co": {"Y": -1.0, "X": 1.0}, "interpolation": 2}]}, "reader": {"height": 1104, "duration": 86400.0, "type": "QtImageReader", "width": 1920, "display_ratio": {"num": 40, "den": 23}, "video_bit_rate": 0, "sample_rate": 0, "video_length": "2592000", "has_audio": false, "file_size": "8478720", "video_stream_index": -1, "channel_layout": 4, "channels": 0, "path": "assets/ILUG-MSG.svg", "video_timebase": {"num": 1, "den": 30}, "has_video": true, "has_single_image": true, "audio_bit_rate": 0, "acodec": "", "interlaced_frame": false, "audio_stream_index": -1, "audio_timebase": {"num": 1, "den": 1}, "top_field_first": true, "pixel_ratio": {"num": 1, "den": 1}, "fps": {"num": 30, "den": 1}, "vcodec": "", "pixel_format": -1}, "volume": {"Points": [{"co": {"Y": 1.0, "X": 1.0}, "interpolation": 2}]}, "title": "ILUG-MSG.svg", "layer": 4, "end": 10, "has_video": {"Points": [{"co": {"Y": -1.0, "X": 1.0}, "interpolation": 2}]}, "gravity": 4, "crop_x": {"Points": [{"co": {"Y": 0.0, "X": 1.0}, "interpolation": 2}]}, "crop_y": {"Points": [{"co": {"Y": 0.0, "X": 1.0}, "interpolation": 2}]}, "scale": 1, "start": 0, "perspective_c4_y": {"Points": [{"co": {"Y": -1.0, "X": 1.0}, "interpolation": 2}]}, "waveform": false, "wave_color": {"blue": {"Points": [{"co": {"Y": 255.0, "X": 1.0}, "interpolation": 0, "handle_type": 0, "handle_left": {"Y": 1.0, "X": 0.5}, "handle_right": {"Y": 0.0, "X": 0.5}}]}, "alpha": {"Points": [{"co": {"Y": 255.0, "X": 1.0}, "interpolation": 0, "handle_type": 0, "handle_left": {"Y": 1.0, "X": 0.5}, "handle_right": {"Y": 0.0, "X": 0.5}}]}, "green": {"Points": [{"co": {"Y": 123.0, "X": 1.0}, "interpolation": 0, "handle_type": 0, "handle_left": {"Y": 1.0, "X": 0.5}, "handle_right": {"Y": 0.0, "X": 0.5}}]}, "red": {"Points": [{"co": {"Y": 0.0, "X": 1.0}, "interpolation": 0, "handle_type": 0, "handle_left": {"Y": 1.0, "X": 0.5}, "handle_right": {"Y": 0.0, "X": 0.5}}]}}, "scale_y": {"Points": [{"co": {"Y": 1.0, "X": 1.0}, "interpolation": 2}]}, "shear_y": {"Points": [{"co": {"Y": 0.0, "X": 1.0}, "interpolation": 2}]}, "crop_width": {"Points": [{"co": {"Y": -1.0, "X": 1.0}, "interpolation": 2}]}, "location_y": {"Points": [{"co": {"Y": 0.0, "X": 1.0}, "interpolation": 2}]}, "scale_x": {"Points": [{"co": {"Y": 1.0, "X": 1.0}, "interpolation": 2}]}, "perspective_c3_x": {"Points": [{"co": {"Y": -1.0, "X": 1.0}, "interpolation": 2}]}, "position": 41.12, "id": "O5HVE437AI", "shear_x": {"Points": [{"co": {"Y": 0.0, "X": 1.0}, "interpolation": 2}]}, "file_id": "U6UPRJY8FR", "rotation": {"Points": [{"co": {"Y": 0.0, "X": 1.0}, "interpolation": 2}]}, "crop_height": {"Points": [{"co": {"Y": -1.0, "X": 1.0}, "interpolation": 2}]}, "channel_mapping": {"Points": [{"co": {"Y": -1.0, "X": 1.0}, "interpolation": 2}]}, "anchor": 0, "channel_filter": {"Points": [{"co": {"Y": -1.0, "X": 1.0}, "interpolation": 2}]}, "perspective_c4_x": {"Points": [{"co": {"Y": -1.0, "X": 1.0}, "interpolation": 2}]}}, {"perspective_c3_y": {"Points": [{"co": {"Y": -1.0, "X": 1.0}, "interpolation": 2}]}, "duration": 86400.0, "image": "../../../.openshot_qt/thumbnail/P98G6MPRX5.png", "perspective_c2_y": {"Points": [{"co": {"Y": -1.0, "X": 1.0}, "interpolation": 2}]}, "time": {"Points": [{"co": {"Y": 1.0, "X": 1.0}, "interpolation": 2}]}, "effects": [], "perspective_c2_x": {"Points": [{"co": {"Y": -1.0, "X": 1.0}, "interpolation": 2}]}, "display": 0, "location_x": {"Points": [{"co": {"Y": 0.0, "X": 1.0}, "interpolation": 2}]}, "has_audio": {"Points": [{"co": {"Y": -1.0, "X": 1.0}, "interpolation": 2}]}, "perspective_c1_x": {"Points": [{"co": {"Y": -1.0, "X": 1.0}, "interpolation": 2}]}, "alpha": {"Points": [{"co": {"Y": 1.0, "X": 1.0}, "interpolation": 2}, {"co": {"Y": 1.0, "X": 169.0}, "interpolation": 0, "handle_type": 0, "handle_left": {"Y": 1.0, "X": 0.5}, "handle_right": {"Y": 0.0, "X": 0.5}}, {"co": {"Y": 0.0, "X": 241.0}, "interpolation": 0, "handle_type": 0, "handle_left": {"Y": 1.0, "X": 0.5}, "handle_right": {"Y": 0.0, "X": 0.5}}]}, "perspective_c1_y": {"Points": [{"co": {"Y": -1.0, "X": 1.0}, "interpolation": 2}]}, "reader": {"height": 1104, "duration": 86400.0, "type": "QtImageReader", "width": 1920, "display_ratio": {"num": 40, "den": 23}, "video_bit_rate": 0, "sample_rate": 0, "video_length": "2592000", "has_audio": false, "file_size": "8478720", "video_stream_index": -1, "channel_layout": 4, "channels": 0, "path": "assets/closing.svg", "video_timebase": {"num": 1, "den": 30}, "has_video": true, "has_single_image": true, "audio_bit_rate": 0, "acodec": "", "interlaced_frame": false, "audio_stream_index": -1, "audio_timebase": {"num": 1, "den": 1}, "top_field_first": true, "pixel_ratio": {"num": 1, "den": 1}, "fps": {"num": 30, "den": 1}, "vcodec": "", "pixel_format": -1}, "volume": {"Points": [{"co": {"Y": 1.0, "X": 1.0}, "interpolation": 2}]}, "title": "closing.svg", "layer": 4, "end": 10, "has_video": {"Points": [{"co": {"Y": -1.0, "X": 1.0}, "interpolation": 2}]}, "gravity": 4, "crop_x": {"Points": [{"co": {"Y": 0.0, "X": 1.0}, "interpolation": 2}]}, "crop_y": {"Points": [{"co": {"Y": 0.0, "X": 1.0}, "interpolation": 2}]}, "scale": 1, "start": 0, "perspective_c4_y": {"Points": [{"co": {"Y": -1.0, "X": 1.0}, "interpolation": 2}]}, "waveform": false, "wave_color": {"blue": {"Points": [{"co": {"Y": 255.0, "X": 1.0}, "interpolation": 0, "handle_type": 0, "handle_left": {"Y": 1.0, "X": 0.5}, "handle_right": {"Y": 0.0, "X": 0.5}}]}, "red": {"Points": [{"co": {"Y": 0.0, "X": 1.0}, "interpolation": 0, "handle_type": 0, "handle_left": {"Y": 1.0, "X": 0.5}, "handle_right": {"Y": 0.0, "X": 0.5}}]}, "green": {"Points": [{"co": {"Y": 123.0, "X": 1.0}, "interpolation": 0, "handle_type": 0, "handle_left": {"Y": 1.0, "X": 0.5}, "handle_right": {"Y": 0.0, "X": 0.5}}]}, "alpha": {"Points": [{"co": {"Y": 255.0, "X": 1.0}, "interpolation": 0, "handle_type": 0, "handle_left": {"Y": 1.0, "X": 0.5}, "handle_right": {"Y": 0.0, "X": 0.5}}]}}, "scale_y": {"Points": [{"co": {"Y": 1.0, "X": 1.0}, "interpolation": 2}]}, "shear_y": {"Points": [{"co": {"Y": 0.0, "X": 1.0}, "interpolation": 2}]}, "crop_width": {"Points": [{"co": {"Y": -1.0, "X": 1.0}, "interpolation": 2}]}, "location_y": {"Points": [{"co": {"Y": 0.0, "X": 1.0}, "interpolation": 2}]}, "scale_x": {"Points": [{"co": {"Y": 1.0, "X": 1.0}, "interpolation": 2}]}, "perspective_c3_x": {"Points": [{"co": {"Y": -1.0, "X": 1.0}, "interpolation": 2}]}, "position": 31.24, "id": "2PCWSRBZDT", "shear_x": {"Points": [{"co": {"Y": 0.0, "X": 1.0}, "interpolation": 2}]}, "file_id": "P98G6MPRX5", "rotation": {"Points": [{"co": {"Y": 0.0, "X": 1.0}, "interpolation": 2}]}, "crop_height": {"Points": [{"co": {"Y": -1.0, "X": 1.0}, "interpolation": 2}]}, "channel_mapping": {"Points": [{"co": {"Y": -1.0, "X": 1.0}, "interpolation": 2}]}, "anchor": 0, "channel_filter": {"Points": [{"co": {"Y": -1.0, "X": 1.0}, "interpolation": 2}]}, "perspective_c4_x": {"Points": [{"co": {"Y": -1.0, "X": 1.0}, "interpolation": 2}]}}], "export_path": "", "profile": "HDV 720 24p", "fps": {"num": 24, "den": 1}, "layers": [{"number": 0, "lock": false, "y": 0, "label": "", "id": "L0"}, {"number": 1, "lock": false, "y": 0, "label": "", "id": "L1"}, {"number": 2, "lock": false, "y": 0, "label": "", "id": "L2"}, {"number": 3, "lock": false, "y": 0, "label": "", "id": "L3"}, {"number": 4, "lock": false, "y": 0, "label": "", "id": "L4"}], "playhead_position": 0}