{"profile": "HDV 720 24p", "settings": {}, "width": 1280, "export_path": "", "channels": 2, "layers": [{"lock": false, "id": "L0", "number": 0, "label": "", "y": 0}, {"lock": false, "id": "L1", "number": 1, "label": "", "y": 0}, {"lock": false, "id": "L2", "number": 2, "label": "", "y": 0}, {"lock": false, "id": "L3", "number": 3, "label": "", "y": 0}, {"lock": false, "id": "L4", "number": 4, "label": "", "y": 0}], "effects": [], "duration": 329.0, "playhead_position": 0, "progress": [], "history": {"redo": [], "undo": [{"value": {"video_stream_index": 0, "audio_stream_index": -1, "top_field_first": true, "audio_bit_rate": 0, "path": "/home/milind/Data/Projects/CTTdemo/Demo-07-SetPrinter and Print Current.mkv", "type": "FFmpegReader", "video_length": "1650", "width": 1366, "audio_timebase": {"num": 1, "den": 1}, "vcodec": "h264", "media_type": "video", "display_ratio": {"num": 683, "den": 384}, "duration": 66.0, "has_video": true, "acodec": "", "video_bit_rate": 0, "has_single_image": false, "channel_layout": 4, "channels": 0, "has_audio": false, "interlaced_frame": false, "id": "8BO13HSLCT", "pixel_ratio": {"num": 1, "den": 1}, "sample_rate": 0, "file_size": "1142597", "video_timebase": {"num": 1, "den": 1000}, "height": 768, "pixel_format": 0, "fps": {"num": 25, "den": 1}}, "type": "insert", "partial": false, "key": ["files"], "old_values": [{"video_stream_index": 0, "audio_stream_index": -1, "top_field_first": true, "audio_bit_rate": 0, "path": "/home/milind/Data/Projects/CTTdemo/Demo-02-Adding Time-Class Slots.mkv", "type": "FFmpegReader", "video_length": "1900", "width": 1366, "audio_timebase": {"num": 1, "den": 1}, "id": "8AMXXS1INM", "media_type": "video", "duration": 76.0, "height": 768, "acodec": "", "video_bit_rate": 0, "has_single_image": false, "pixel_format": 0, "channel_layout": 4, "channels": 0, "has_audio": false, "interlaced_frame": false, "vcodec": "h264", "pixel_ratio": {"num": 1, "den": 1}, "sample_rate": 0, "file_size": "502317", "video_timebase": {"num": 1, "den": 1000}, "has_video": true, "display_ratio": {"num": 683, "den": 384}, "fps": {"num": 25, "den": 1}}, {"video_stream_index": 0, "audio_stream_index": -1, "top_field_first": true, "audio_bit_rate": 0, "path": "/home/milind/Data/Projects/CTTdemo/Demo-03-Renaming copy pasted Time-Slots.mkv", "type": "FFmpegReader", "video_length": "525", "width": 1366, "audio_timebase": {"num": 1, "den": 1}, "id": "FUP4DCVZ3U", "media_type": "video", "duration": 21.0, "height": 768, "acodec": "", "video_bit_rate": 0, "has_single_image": false, "pixel_format": 0, "channel_layout": 4, "channels": 0, "has_audio": false, "interlaced_frame": false, "vcodec": "h264", "pixel_ratio": {"num": 1, "den": 1}, "sample_rate": 0, "file_size": "191199", "video_timebase": {"num": 1, "den": 1000}, "has_video": true, "display_ratio": {"num": 683, "den": 384}, "fps": {"num": 25, "den": 1}}, {"video_stream_index": -1, "audio_stream_index": -1, "top_field_first": true, "audio_bit_rate": 0, "path": "/home/milind/Data/Projects/CTTdemo/assets/TitleFileName-1.svg", "type": "QtImageReader", "video_length": "2592000", "width": 1920, "audio_timebase": {"num": 1, "den": 1}, "id": "YMAWWUI3BI", "media_type": "image", "duration": 86400.0, "height": 1080, "acodec": "", "video_bit_rate": 0, "has_single_image": true, "pixel_format": -1, "channel_layout": 4, "channels": 0, "has_audio": false, "interlaced_frame": false, "vcodec": "", "pixel_ratio": {"num": 1, "den": 1}, "sample_rate": 0, "file_size": "8294400", "video_timebase": {"num": 1, "den": 30}, "has_video": true, "display_ratio": {"num": 16, "den": 9}, "fps": {"num": 30, "den": 1}}, {"video_stream_index": -1, "audio_stream_index": -1, "top_field_first": true, "audio_bit_rate": 0, "path": "/home/milind/.openshot_qt/assets/TitleFileName-1.svg", "type": "QtImageReader", "video_length": "2592000", "width": 1920, "audio_timebase": {"num": 1, "den": 1}, "vcodec": "", "media_type": "image", "duration": 86400.0, "height": 1080, "acodec": "", "video_bit_rate": 0, "has_single_image": true, "pixel_format": -1, "channel_layout": 4, "channels": 0, "has_audio": false, "interlaced_frame": false, "id": "IFD313JPZZ", "pixel_ratio": {"num": 1, "den": 1}, "sample_rate": 0, "file_size": "8294400", "video_timebase": {"num": 1, "den": 30}, "has_video": true, "display_ratio": {"num": 16, "den": 9}, "fps": {"num": 30, "den": 1}}, {"video_stream_index": 0, "audio_stream_index": -1, "top_field_first": true, "audio_bit_rate": 0, "path": "/home/milind/Data/Projects/CTTdemo/Demo-04-Lecture Entry-Clash remove and Demo TT.mkv", "type": "FFmpegReader", "video_length": "6175", "width": 1366, "audio_timebase": {"num": 1, "den": 1}, "vcodec": "h264", "media_type": "video", "duration": 247.0, "height": 768, "acodec": "", "video_bit_rate": 0, "has_single_image": false, "pixel_format": 0, "channel_layout": 4, "channels": 0, "has_audio": false, "interlaced_frame": false, "id": "RVOUXSUSEQ", "pixel_ratio": {"num": 1, "den": 1}, "sample_rate": 0, "file_size": "2541542", "video_timebase": {"num": 1, "den": 1000}, "has_video": true, "display_ratio": {"num": 683, "den": 384}, "fps": {"num": 25, "den": 1}}, {"video_stream_index": 0, "audio_stream_index": -1, "top_field_first": true, "audio_bit_rate": 0, "path": "/home/milind/Data/Projects/CTTdemo/Demo-05-Slitt Class or Splitt lectures.mkv", "type": "FFmpegReader", "video_length": "1025", "width": 1366, "audio_timebase": {"num": 1, "den": 1}, "vcodec": "h264", "media_type": "video", "duration": 41.0, "height": 768, "acodec": "", "video_bit_rate": 0, "has_single_image": false, "pixel_format": 0, "channel_layout": 4, "channels": 0, "has_audio": false, "interlaced_frame": false, "id": "SJFW0PSRLB", "pixel_ratio": {"num": 1, "den": 1}, "sample_rate": 0, "file_size": "783366", "video_timebase": {"num": 1, "den": 1000}, "has_video": true, "display_ratio": {"num": 683, "den": 384}, "fps": {"num": 25, "den": 1}}, {"video_stream_index": 0, "audio_stream_index": -1, "top_field_first": true, "audio_bit_rate": 0, "path": "/home/milind/Data/Projects/CTTdemo/Demo-06-Set School Name.mkv", "type": "FFmpegReader", "video_length": "600", "width": 1366, "audio_timebase": {"num": 1, "den": 1}, "vcodec": "h264", "media_type": "video", "duration": 24.0, "height": 768, "acodec": "", "video_bit_rate": 0, "has_single_image": false, "pixel_format": 0, "channel_layout": 4, "channels": 0, "has_audio": false, "interlaced_frame": false, "id": "O8MDU83AZY", "pixel_ratio": {"num": 1, "den": 1}, "sample_rate": 0, "file_size": "404652", "video_timebase": {"num": 1, "den": 1000}, "has_video": true, "display_ratio": {"num": 683, "den": 384}, "fps": {"num": 25, "den": 1}}]}, {"value": {"channel_filter": {"Points": [{"co": {"X": 1.0, "Y": -1.0}, "interpolation": 2}]}, "perspective_c1_y": {"Points": [{"co": {"X": 1.0, "Y": -1.0}, "interpolation": 2}]}, "layer": 4, "perspective_c4_y": {"Points": [{"co": {"X": 1.0, "Y": -1.0}, "interpolation": 2}]}, "reader": {"video_stream_index": 0, "audio_stream_index": -1, "top_field_first": true, "audio_bit_rate": 0, "path": "/home/milind/Data/Projects/CTTdemo/Demo-04-Lecture Entry-Clash remove and Demo TT.mkv", "type": "FFmpegReader", "video_length": "6175", "width": 1366, "audio_timebase": {"num": 1, "den": 1}, "vcodec": "h264", "display_ratio": {"num": 683, "den": 384}, "duration": 247.0, "has_video": true, "acodec": "", "video_bit_rate": 0, "has_single_image": false, "pixel_format": 0, "channel_layout": 4, "channels": 0, "has_audio": false, "interlaced_frame": false, "sample_rate": 0, "file_size": "2541542", "video_timebase": {"num": 1, "den": 1000}, "height": 768, "pixel_ratio": {"num": 1, "den": 1}, "fps": {"num": 25, "den": 1}}, "perspective_c2_x": {"Points": [{"co": {"X": 1.0, "Y": -1.0}, "interpolation": 2}]}, "end": 61.791666666666664, "waveform": false, "title": "Demo-04-Lecture Entry-Clash remove and Demo TT.mkv", "anchor": 0, "location_x": {"Points": [{"co": {"X": 1.0, "Y": 0.0}, "interpolation": 2}]}, "crop_height": {"Points": [{"co": {"X": 1.0, "Y": -1.0}, "interpolation": 2}]}, "effects": [], "duration": 60.0, "crop_y": {"Points": [{"co": {"X": 1.0, "Y": 0.0}, "interpolation": 2}]}, "location_y": {"Points": [{"co": {"X": 1.0, "Y": 0.0}, "interpolation": 2}]}, "crop_width": {"Points": [{"co": {"X": 1.0, "Y": -1.0}, "interpolation": 2}]}, "scale_x": {"Points": [{"co": {"X": 1.0, "Y": 1.0}, "interpolation": 2}]}, "image": "/home/milind/.openshot_qt/thumbnail/RVOUXSUSEQ.png", "rotation": {"Points": [{"co": {"X": 1.0, "Y": 0.0}, "interpolation": 2}]}, "perspective_c2_y": {"Points": [{"co": {"X": 1.0, "Y": -1.0}, "interpolation": 2}]}, "gravity": 4, "alpha": {"Points": [{"co": {"X": 1.0, "Y": 1.0}, "interpolation": 2}]}, "id": "5SL6Z206WO", "file_id": "RVOUXSUSEQ", "has_audio": {"Points": [{"co": {"X": 1.0, "Y": -1.0}, "interpolation": 2}]}, "shear_x": {"Points": [{"co": {"X": 1.0, "Y": 0.0}, "interpolation": 2}]}, "shear_y": {"Points": [{"co": {"X": 1.0, "Y": 0.0}, "interpolation": 2}]}, "crop_x": {"Points": [{"co": {"X": 1.0, "Y": 0.0}, "interpolation": 2}]}, "position": 72, "perspective_c3_y": {"Points": [{"co": {"X": 1.0, "Y": -1.0}, "interpolation": 2}]}, "time": {"Points": [{"co": {"X": 1.0, "Y": 1.0}, "interpolation": 1}, {"co": {"X": 1483.0, "Y": 5929.0}, "interpolation": 1}]}, "display": 0, "wave_color": {"blue": {"Points": [{"co": {"X": 1.0, "Y": 255.0}, "handle_right": {"X": 0.5, "Y": 0.0}, "handle_left": {"X": 0.5, "Y": 1.0}, "handle_type": 0, "interpolation": 0}]}, "alpha": {"Points": [{"co": {"X": 1.0, "Y": 255.0}, "handle_right": {"X": 0.5, "Y": 0.0}, "handle_left": {"X": 0.5, "Y": 1.0}, "handle_type": 0, "interpolation": 0}]}, "green": {"Points": [{"co": {"X": 1.0, "Y": 123.0}, "handle_right": {"X": 0.5, "Y": 0.0}, "handle_left": {"X": 0.5, "Y": 1.0}, "handle_type": 0, "interpolation": 0}]}, "red": {"Points": [{"co": {"X": 1.0, "Y": 0.0}, "handle_right": {"X": 0.5, "Y": 0.0}, "handle_left": {"X": 0.5, "Y": 1.0}, "handle_type": 0, "interpolation": 0}]}}, "channel_mapping": {"Points": [{"co": {"X": 1.0, "Y": -1.0}, "interpolation": 2}]}, "scale_y": {"Points": [{"co": {"X": 1.0, "Y": 1.0}, "interpolation": 2}]}, "scale": 1, "perspective_c1_x": {"Points": [{"co": {"X": 1.0, "Y": -1.0}, "interpolation": 2}]}, "has_video": {"Points": [{"co": {"X": 1.0, "Y": -1.0}, "interpolation": 2}]}, "perspective_c4_x": {"Points": [{"co": {"X": 1.0, "Y": -1.0}, "interpolation": 2}]}, "volume": {"Points": [{"co": {"X": 1.0, "Y": 1.0}, "interpolation": 2}]}, "start": 0, "perspective_c3_x": {"Points": [{"co": {"X": 1.0, "Y": -1.0}, "interpolation": 2}]}}, "type": "insert", "partial": false, "key": ["clips"], "old_values": [{"title": "Demo-02-Adding Time-Class Slots.mkv", "channel_filter": {"Points": [{"co": {"X": 1.0, "Y": -1.0}, "interpolation": 2}]}, "end": 35.875, "layer": 4, "perspective_c4_y": {"Points": [{"co": {"X": 1.0, "Y": -1.0}, "interpolation": 2}]}, "start": 0, "volume": {"Points": [{"co": {"X": 1.0, "Y": 1.0}, "interpolation": 2}]}, "reader": {"video_stream_index": 0, "audio_stream_index": -1, "top_field_first": true, "audio_bit_rate": 0, "path": "/home/milind/Data/Projects/CTTdemo/Demo-02-Adding Time-Class Slots.mkv", "type": "FFmpegReader", "video_length": "1900", "width": 1366, "audio_timebase": {"num": 1, "den": 1}, "vcodec": "h264", "duration": 76.0, "height": 768, "acodec": "", "video_bit_rate": 0, "has_single_image": false, "pixel_format": 0, "channel_layout": 4, "channels": 0, "has_audio": false, "interlaced_frame": false, "pixel_ratio": {"num": 1, "den": 1}, "sample_rate": 0, "file_size": "502317", "video_timebase": {"num": 1, "den": 1000}, "has_video": true, "display_ratio": {"num": 683, "den": 384}, "fps": {"num": 25, "den": 1}}, "perspective_c2_x": {"Points": [{"co": {"X": 1.0, "Y": -1.0}, "interpolation": 2}]}, "perspective_c1_y": {"Points": [{"co": {"X": 1.0, "Y": -1.0}, "interpolation": 2}]}, "waveform": false, "anchor": 0, "crop_height": {"Points": [{"co": {"X": 1.0, "Y": -1.0}, "interpolation": 2}]}, "effects": [], "duration": 38.0, "image": "/home/milind/Data/Projects/.openshot_qt/thumbnail/8AMXXS1INM.png", "shear_x": {"Points": [{"co": {"X": 1.0, "Y": 0.0}, "interpolation": 2}]}, "crop_width": {"Points": [{"co": {"X": 1.0, "Y": -1.0}, "interpolation": 2}]}, "scale_x": {"Points": [{"co": {"X": 1.0, "Y": 1.0}, "interpolation": 2}]}, "time": {"Points": [{"co": {"X": 1.0, "Y": 1.0}, "interpolation": 1}, {"co": {"X": 861.0, "Y": 1721.0}, "interpolation": 1}]}, "rotation": {"Points": [{"co": {"X": 1.0, "Y": 0.0}, "interpolation": 2}]}, "perspective_c2_y": {"Points": [{"co": {"X": 1.0, "Y": -1.0}, "interpolation": 2}]}, "gravity": 4, "alpha": {"Points": [{"co": {"X": 1.0, "Y": 1.0}, "interpolation": 2}]}, "id": "Z4ZIZQBYYY", "file_id": "8AMXXS1INM", "has_audio": {"Points": [{"co": {"X": 1.0, "Y": -1.0}, "interpolation": 2}]}, "location_y": {"Points": [{"co": {"X": 1.0, "Y": 0.0}, "interpolation": 2}]}, "shear_y": {"Points": [{"co": {"X": 1.0, "Y": 0.0}, "interpolation": 2}]}, "position": 20, "perspective_c3_y": {"Points": [{"co": {"X": 1.0, "Y": -1.0}, "interpolation": 2}]}, "location_x": {"Points": [{"co": {"X": 1.0, "Y": 0.0}, "interpolation": 2}]}, "display": 0, "wave_color": {"blue": {"Points": [{"co": {"X": 1.0, "Y": 255.0}, "handle_right": {"X": 0.5, "Y": 0.0}, "handle_left": {"X": 0.5, "Y": 1.0}, "handle_type": 0, "interpolation": 0}]}, "red": {"Points": [{"co": {"X": 1.0, "Y": 0.0}, "handle_right": {"X": 0.5, "Y": 0.0}, "handle_left": {"X": 0.5, "Y": 1.0}, "handle_type": 0, "interpolation": 0}]}, "green": {"Points": [{"co": {"X": 1.0, "Y": 123.0}, "handle_right": {"X": 0.5, "Y": 0.0}, "handle_left": {"X": 0.5, "Y": 1.0}, "handle_type": 0, "interpolation": 0}]}, "alpha": {"Points": [{"co": {"X": 1.0, "Y": 255.0}, "handle_right": {"X": 0.5, "Y": 0.0}, "handle_left": {"X": 0.5, "Y": 1.0}, "handle_type": 0, "interpolation": 0}]}}, "channel_mapping": {"Points": [{"co": {"X": 1.0, "Y": -1.0}, "interpolation": 2}]}, "scale_y": {"Points": [{"co": {"X": 1.0, "Y": 1.0}, "interpolation": 2}]}, "crop_x": {"Points": [{"co": {"X": 1.0, "Y": 0.0}, "interpolation": 2}]}, "crop_y": {"Points": [{"co": {"X": 1.0, "Y": 0.0}, "interpolation": 2}]}, "has_video": {"Points": [{"co": {"X": 1.0, "Y": -1.0}, "interpolation": 2}]}, "perspective_c4_x": {"Points": [{"co": {"X": 1.0, "Y": -1.0}, "interpolation": 2}]}, "perspective_c1_x": {"Points": [{"co": {"X": 1.0, "Y": -1.0}, "interpolation": 2}]}, "scale": 1, "perspective_c3_x": {"Points": [{"co": {"X": 1.0, "Y": -1.0}, "interpolation": 2}]}}, {"channel_filter": {"Points": [{"co": {"X": 1.0, "Y": -1.0}, "interpolation": 2}]}, "end": 16.183333333333337, "layer": 4, "perspective_c4_y": {"Points": [{"co": {"X": 1.0, "Y": -1.0}, "interpolation": 2}]}, "start": 0, "volume": {"Points": [{"co": {"X": 1.0, "Y": 1.0}, "interpolation": 2}]}, "reader": {"video_stream_index": 0, "audio_stream_index": -1, "top_field_first": true, "audio_bit_rate": 0, "path": "/home/milind/Data/Projects/CTTdemo/Demo-03-Renaming copy pasted Time-Slots.mkv", "type": "FFmpegReader", "video_length": "525", "width": 1366, "audio_timebase": {"num": 1, "den": 1}, "vcodec": "h264", "duration": 21.0, "height": 768, "acodec": "", "video_bit_rate": 0, "has_single_image": false, "pixel_format": 0, "channel_layout": 4, "channels": 0, "has_audio": false, "interlaced_frame": false, "pixel_ratio": {"num": 1, "den": 1}, "sample_rate": 0, "file_size": "191199", "video_timebase": {"num": 1, "den": 1000}, "has_video": true, "display_ratio": {"num": 683, "den": 384}, "fps": {"num": 25, "den": 1}}, "perspective_c2_x": {"Points": [{"co": {"X": 1.0, "Y": -1.0}, "interpolation": 2}]}, "perspective_c1_y": {"Points": [{"co": {"X": 1.0, "Y": -1.0}, "interpolation": 2}]}, "waveform": false, "title": "Demo-03-Renaming copy pasted Time-Slots.mkv", "anchor": 0, "crop_height": {"Points": [{"co": {"X": 1.0, "Y": -1.0}, "interpolation": 2}]}, "effects": [], "duration": 21.0, "image": "/home/milind/Data/Projects/.openshot_qt/thumbnail/FUP4DCVZ3U.png", "shear_x": {"Points": [{"co": {"X": 1.0, "Y": 0.0}, "interpolation": 2}]}, "crop_width": {"Points": [{"co": {"X": 1.0, "Y": -1.0}, "interpolation": 2}]}, "scale_x": {"Points": [{"co": {"X": 1.0, "Y": 1.0}, "interpolation": 2}]}, "time": {"Points": [{"co": {"X": 1.0, "Y": 1.0}, "interpolation": 2}]}, "rotation": {"Points": [{"co": {"X": 1.0, "Y": 0.0}, "interpolation": 2}]}, "perspective_c2_y": {"Points": [{"co": {"X": 1.0, "Y": -1.0}, "interpolation": 2}]}, "gravity": 4, "alpha": {"Points": [{"co": {"X": 1.0, "Y": 1.0}, "interpolation": 2}]}, "id": "HUCJUHW5KR", "file_id": "FUP4DCVZ3U", "has_audio": {"Points": [{"co": {"X": 1.0, "Y": -1.0}, "interpolation": 2}]}, "location_y": {"Points": [{"co": {"X": 1.0, "Y": 0.0}, "interpolation": 2}]}, "shear_y": {"Points": [{"co": {"X": 1.0, "Y": 0.0}, "interpolation": 2}]}, "position": 55.8, "perspective_c3_y": {"Points": [{"co": {"X": 1.0, "Y": -1.0}, "interpolation": 2}]}, "location_x": {"Points": [{"co": {"X": 1.0, "Y": 0.0}, "interpolation": 2}]}, "display": 0, "wave_color": {"blue": {"Points": [{"co": {"X": 1.0, "Y": 255.0}, "handle_right": {"X": 0.5, "Y": 0.0}, "handle_left": {"X": 0.5, "Y": 1.0}, "handle_type": 0, "interpolation": 0}]}, "red": {"Points": [{"co": {"X": 1.0, "Y": 0.0}, "handle_right": {"X": 0.5, "Y": 0.0}, "handle_left": {"X": 0.5, "Y": 1.0}, "handle_type": 0, "interpolation": 0}]}, "green": {"Points": [{"co": {"X": 1.0, "Y": 123.0}, "handle_right": {"X": 0.5, "Y": 0.0}, "handle_left": {"X": 0.5, "Y": 1.0}, "handle_type": 0, "interpolation": 0}]}, "alpha": {"Points": [{"co": {"X": 1.0, "Y": 255.0}, "handle_right": {"X": 0.5, "Y": 0.0}, "handle_left": {"X": 0.5, "Y": 1.0}, "handle_type": 0, "interpolation": 0}]}}, "channel_mapping": {"Points": [{"co": {"X": 1.0, "Y": -1.0}, "interpolation": 2}]}, "scale_y": {"Points": [{"co": {"X": 1.0, "Y": 1.0}, "interpolation": 2}]}, "crop_x": {"Points": [{"co": {"X": 1.0, "Y": 0.0}, "interpolation": 2}]}, "crop_y": {"Points": [{"co": {"X": 1.0, "Y": 0.0}, "interpolation": 2}]}, "has_video": {"Points": [{"co": {"X": 1.0, "Y": -1.0}, "interpolation": 2}]}, "perspective_c4_x": {"Points": [{"co": {"X": 1.0, "Y": -1.0}, "interpolation": 2}]}, "perspective_c1_x": {"Points": [{"co": {"X": 1.0, "Y": -1.0}, "interpolation": 2}]}, "scale": 1, "perspective_c3_x": {"Points": [{"co": {"X": 1.0, "Y": -1.0}, "interpolation": 2}]}}, {"channel_filter": {"Points": [{"co": {"X": 1.0, "Y": -1.0}, "interpolation": 2}]}, "end": 10, "layer": 4, "perspective_c4_y": {"Points": [{"co": {"X": 1.0, "Y": -1.0}, "interpolation": 2}]}, "start": 0, "volume": {"Points": [{"co": {"X": 1.0, "Y": 1.0}, "interpolation": 2}]}, "reader": {"video_stream_index": -1, "audio_stream_index": -1, "top_field_first": true, "audio_bit_rate": 0, "path": "/home/milind/Data/Projects/CTTdemo/assets/TitleFileName-1.svg", "type": "QtImageReader", "video_length": "2592000", "width": 1920, "audio_timebase": {"num": 1, "den": 1}, "vcodec": "", "duration": 86400.0, "height": 1080, "acodec": "", "video_bit_rate": 0, "has_single_image": true, "pixel_format": -1, "channel_layout": 4, "channels": 0, "has_audio": false, "interlaced_frame": false, "pixel_ratio": {"num": 1, "den": 1}, "sample_rate": 0, "file_size": "8294400", "video_timebase": {"num": 1, "den": 30}, "has_video": true, "display_ratio": {"num": 16, "den": 9}, "fps": {"num": 30, "den": 1}}, "perspective_c2_x": {"Points": [{"co": {"X": 1.0, "Y": -1.0}, "interpolation": 2}]}, "perspective_c1_y": {"Points": [{"co": {"X": 1.0, "Y": -1.0}, "interpolation": 2}]}, "waveform": false, "title": "TitleFileName-1.svg", "anchor": 0, "crop_height": {"Points": [{"co": {"X": 1.0, "Y": -1.0}, "interpolation": 2}]}, "effects": [], "duration": 86400.0, "image": "/home/milind/.openshot_qt/thumbnail/YMAWWUI3BI.png", "shear_x": {"Points": [{"co": {"X": 1.0, "Y": 0.0}, "interpolation": 2}]}, "crop_width": {"Points": [{"co": {"X": 1.0, "Y": -1.0}, "interpolation": 2}]}, "scale_x": {"Points": [{"co": {"X": 1.0, "Y": 1.0}, "interpolation": 2}]}, "time": {"Points": [{"co": {"X": 1.0, "Y": 1.0}, "interpolation": 2}]}, "rotation": {"Points": [{"co": {"X": 1.0, "Y": 0.0}, "interpolation": 2}]}, "perspective_c2_y": {"Points": [{"co": {"X": 1.0, "Y": -1.0}, "interpolation": 2}]}, "gravity": 4, "alpha": {"Points": [{"co": {"X": 1.0, "Y": 1.0}, "interpolation": 2}]}, "id": "GWTA84Q5L0", "file_id": "YMAWWUI3BI", "has_audio": {"Points": [{"co": {"X": 1.0, "Y": -1.0}, "interpolation": 2}]}, "location_y": {"Points": [{"co": {"X": 1.0, "Y": 0.0}, "interpolation": 2}]}, "shear_y": {"Points": [{"co": {"X": 1.0, "Y": 0.0}, "interpolation": 2}]}, "position": 0, "perspective_c3_y": {"Points": [{"co": {"X": 1.0, "Y": -1.0}, "interpolation": 2}]}, "location_x": {"Points": [{"co": {"X": 1.0, "Y": 0.0}, "interpolation": 2}]}, "display": 0, "wave_color": {"blue": {"Points": [{"co": {"X": 1.0, "Y": 255.0}, "handle_right": {"X": 0.5, "Y": 0.0}, "handle_left": {"X": 0.5, "Y": 1.0}, "handle_type": 0, "interpolation": 0}]}, "alpha": {"Points": [{"co": {"X": 1.0, "Y": 255.0}, "handle_right": {"X": 0.5, "Y": 0.0}, "handle_left": {"X": 0.5, "Y": 1.0}, "handle_type": 0, "interpolation": 0}]}, "green": {"Points": [{"co": {"X": 1.0, "Y": 123.0}, "handle_right": {"X": 0.5, "Y": 0.0}, "handle_left": {"X": 0.5, "Y": 1.0}, "handle_type": 0, "interpolation": 0}]}, "red": {"Points": [{"co": {"X": 1.0, "Y": 0.0}, "handle_right": {"X": 0.5, "Y": 0.0}, "handle_left": {"X": 0.5, "Y": 1.0}, "handle_type": 0, "interpolation": 0}]}}, "channel_mapping": {"Points": [{"co": {"X": 1.0, "Y": -1.0}, "interpolation": 2}]}, "scale_y": {"Points": [{"co": {"X": 1.0, "Y": 1.0}, "interpolation": 2}]}, "crop_x": {"Points": [{"co": {"X": 1.0, "Y": 0.0}, "interpolation": 2}]}, "crop_y": {"Points": [{"co": {"X": 1.0, "Y": 0.0}, "interpolation": 2}]}, "has_video": {"Points": [{"co": {"X": 1.0, "Y": -1.0}, "interpolation": 2}]}, "perspective_c4_x": {"Points": [{"co": {"X": 1.0, "Y": -1.0}, "interpolation": 2}]}, "perspective_c1_x": {"Points": [{"co": {"X": 1.0, "Y": -1.0}, "interpolation": 2}]}, "scale": 1, "perspective_c3_x": {"Points": [{"co": {"X": 1.0, "Y": -1.0}, "interpolation": 2}]}}, {"channel_filter": {"Points": [{"co": {"X": 1.0, "Y": -1.0}, "interpolation": 2}]}, "end": 10, "layer": 4, "perspective_c4_y": {"Points": [{"co": {"X": 1.0, "Y": -1.0}, "interpolation": 2}]}, "start": 0, "volume": {"Points": [{"co": {"X": 1.0, "Y": 1.0}, "interpolation": 2}]}, "reader": {"video_stream_index": -1, "audio_stream_index": -1, "top_field_first": true, "audio_bit_rate": 0, "path": "/home/milind/.openshot_qt/assets/TitleFileName-1.svg", "type": "QtImageReader", "video_length": "2592000", "width": 1920, "audio_timebase": {"num": 1, "den": 1}, "vcodec": "", "duration": 86400.0, "height": 1080, "acodec": "", "video_bit_rate": 0, "has_single_image": true, "pixel_format": -1, "channel_layout": 4, "channels": 0, "has_audio": false, "interlaced_frame": false, "pixel_ratio": {"num": 1, "den": 1}, "sample_rate": 0, "file_size": "8294400", "video_timebase": {"num": 1, "den": 30}, "has_video": true, "display_ratio": {"num": 16, "den": 9}, "fps": {"num": 30, "den": 1}}, "perspective_c2_x": {"Points": [{"co": {"X": 1.0, "Y": -1.0}, "interpolation": 2}]}, "perspective_c1_y": {"Points": [{"co": {"X": 1.0, "Y": -1.0}, "interpolation": 2}]}, "waveform": false, "title": "TitleFileName-1.svg", "anchor": 0, "crop_height": {"Points": [{"co": {"X": 1.0, "Y": -1.0}, "interpolation": 2}]}, "effects": [], "duration": 86400.0, "image": "/home/milind/.openshot_qt/thumbnail/IFD313JPZZ.png", "shear_x": {"Points": [{"co": {"X": 1.0, "Y": 0.0}, "interpolation": 2}]}, "crop_width": {"Points": [{"co": {"X": 1.0, "Y": -1.0}, "interpolation": 2}]}, "scale_x": {"Points": [{"co": {"X": 1.0, "Y": 1.0}, "interpolation": 2}]}, "time": {"Points": [{"co": {"X": 1.0, "Y": 1.0}, "interpolation": 2}]}, "rotation": {"Points": [{"co": {"X": 1.0, "Y": 0.0}, "interpolation": 2}]}, "perspective_c2_y": {"Points": [{"co": {"X": 1.0, "Y": -1.0}, "interpolation": 2}]}, "gravity": 4, "alpha": {"Points": [{"co": {"X": 1.0, "Y": 1.0}, "interpolation": 2}]}, "id": "RPBI9K5XDC", "file_id": "IFD313JPZZ", "has_audio": {"Points": [{"co": {"X": 1.0, "Y": -1.0}, "interpolation": 2}]}, "location_y": {"Points": [{"co": {"X": 1.0, "Y": 0.0}, "interpolation": 2}]}, "shear_y": {"Points": [{"co": {"X": 1.0, "Y": 0.0}, "interpolation": 2}]}, "position": 10, "perspective_c3_y": {"Points": [{"co": {"X": 1.0, "Y": -1.0}, "interpolation": 2}]}, "location_x": {"Points": [{"co": {"X": 1.0, "Y": 0.0}, "interpolation": 2}]}, "display": 0, "wave_color": {"blue": {"Points": [{"co": {"X": 1.0, "Y": 255.0}, "handle_right": {"X": 0.5, "Y": 0.0}, "handle_left": {"X": 0.5, "Y": 1.0}, "handle_type": 0, "interpolation": 0}]}, "alpha": {"Points": [{"co": {"X": 1.0, "Y": 255.0}, "handle_right": {"X": 0.5, "Y": 0.0}, "handle_left": {"X": 0.5, "Y": 1.0}, "handle_type": 0, "interpolation": 0}]}, "green": {"Points": [{"co": {"X": 1.0, "Y": 123.0}, "handle_right": {"X": 0.5, "Y": 0.0}, "handle_left": {"X": 0.5, "Y": 1.0}, "handle_type": 0, "interpolation": 0}]}, "red": {"Points": [{"co": {"X": 1.0, "Y": 0.0}, "handle_right": {"X": 0.5, "Y": 0.0}, "handle_left": {"X": 0.5, "Y": 1.0}, "handle_type": 0, "interpolation": 0}]}}, "channel_mapping": {"Points": [{"co": {"X": 1.0, "Y": -1.0}, "interpolation": 2}]}, "scale_y": {"Points": [{"co": {"X": 1.0, "Y": 1.0}, "interpolation": 2}]}, "crop_x": {"Points": [{"co": {"X": 1.0, "Y": 0.0}, "interpolation": 2}]}, "crop_y": {"Points": [{"co": {"X": 1.0, "Y": 0.0}, "interpolation": 2}]}, "has_video": {"Points": [{"co": {"X": 1.0, "Y": -1.0}, "interpolation": 2}]}, "perspective_c4_x": {"Points": [{"co": {"X": 1.0, "Y": -1.0}, "interpolation": 2}]}, "perspective_c1_x": {"Points": [{"co": {"X": 1.0, "Y": -1.0}, "interpolation": 2}]}, "scale": 1, "perspective_c3_x": {"Points": [{"co": {"X": 1.0, "Y": -1.0}, "interpolation": 2}]}}]}, {"value": {"end": 247, "id": "5SL6Z206WO", "image": "/home/milind/.openshot_qt/thumbnail/RVOUXSUSEQ.png", "layer": 4, "start": 0, "position": 72}, "type": "update", "partial": false, "key": ["clips", {"id": "5SL6Z206WO"}], "old_values": {"title": "Demo-04-Lecture Entry-Clash remove and Demo TT.mkv", "channel_filter": {"Points": [{"co": {"X": 1.0, "Y": -1.0}, "interpolation": 2}]}, "end": 247.0, "layer": 4, "perspective_c4_y": {"Points": [{"co": {"X": 1.0, "Y": -1.0}, "interpolation": 2}]}, "start": 0.0, "reader": {"video_stream_index": 0, "audio_stream_index": -1, "top_field_first": true, "audio_bit_rate": 0, "path": "/home/milind/Data/Projects/CTTdemo/Demo-04-Lecture Entry-Clash remove and Demo TT.mkv", "type": "FFmpegReader", "video_length": "6175", "width": 1366, "audio_timebase": {"num": 1, "den": 1}, "vcodec": "h264", "duration": 247.0, "height": 768, "acodec": "", "video_bit_rate": 0, "has_single_image": false, "pixel_format": 0, "channel_layout": 4, "channels": 0, "has_audio": false, "interlaced_frame": false, "pixel_ratio": {"num": 1, "den": 1}, "sample_rate": 0, "file_size": "2541542", "video_timebase": {"num": 1, "den": 1000}, "has_video": true, "display_ratio": {"num": 683, "den": 384}, "fps": {"num": 25, "den": 1}}, "perspective_c2_x": {"Points": [{"co": {"X": 1.0, "Y": -1.0}, "interpolation": 2}]}, "perspective_c1_y": {"Points": [{"co": {"X": 1.0, "Y": -1.0}, "interpolation": 2}]}, "waveform": false, "anchor": 0, "volume": {"Points": [{"co": {"X": 1.0, "Y": 1.0}, "interpolation": 2}]}, "effects": [], "duration": 247.0, "image": "/home/milind/.openshot_qt/thumbnail/RVOUXSUSEQ.png", "location_y": {"Points": [{"co": {"X": 1.0, "Y": 0.0}, "interpolation": 2}]}, "crop_width": {"Points": [{"co": {"X": 1.0, "Y": -1.0}, "interpolation": 2}]}, "scale_x": {"Points": [{"co": {"X": 1.0, "Y": 1.0}, "interpolation": 2}]}, "time": {"Points": [{"co": {"X": 1.0, "Y": 1.0}, "interpolation": 2}]}, "location_x": {"Points": [{"co": {"X": 1.0, "Y": 0.0}, "interpolation": 2}]}, "perspective_c2_y": {"Points": [{"co": {"X": 1.0, "Y": -1.0}, "interpolation": 2}]}, "gravity": 4, "alpha": {"Points": [{"co": {"X": 1.0, "Y": 1.0}, "interpolation": 2}]}, "id": "5SL6Z206WO", "file_id": "RVOUXSUSEQ", "has_audio": {"Points": [{"co": {"X": 1.0, "Y": -1.0}, "interpolation": 2}]}, "shear_x": {"Points": [{"co": {"X": 1.0, "Y": 0.0}, "interpolation": 2}]}, "shear_y": {"Points": [{"co": {"X": 1.0, "Y": 0.0}, "interpolation": 2}]}, "position": 43.4, "perspective_c3_y": {"Points": [{"co": {"X": 1.0, "Y": -1.0}, "interpolation": 2}]}, "rotation": {"Points": [{"co": {"X": 1.0, "Y": 0.0}, "interpolation": 2}]}, "display": 0, "wave_color": {"blue": {"Points": [{"co": {"X": 1.0, "Y": 255.0}, "handle_right": {"X": 0.5, "Y": 0.0}, "handle_left": {"X": 0.5, "Y": 1.0}, "handle_type": 0, "interpolation": 0}]}, "alpha": {"Points": [{"co": {"X": 1.0, "Y": 255.0}, "handle_right": {"X": 0.5, "Y": 0.0}, "handle_left": {"X": 0.5, "Y": 1.0}, "handle_type": 0, "interpolation": 0}]}, "green": {"Points": [{"co": {"X": 1.0, "Y": 123.0}, "handle_right": {"X": 0.5, "Y": 0.0}, "handle_left": {"X": 0.5, "Y": 1.0}, "handle_type": 0, "interpolation": 0}]}, "red": {"Points": [{"co": {"X": 1.0, "Y": 0.0}, "handle_right": {"X": 0.5, "Y": 0.0}, "handle_left": {"X": 0.5, "Y": 1.0}, "handle_type": 0, "interpolation": 0}]}}, "channel_mapping": {"Points": [{"co": {"X": 1.0, "Y": -1.0}, "interpolation": 2}]}, "scale_y": {"Points": [{"co": {"X": 1.0, "Y": 1.0}, "interpolation": 2}]}, "crop_x": {"Points": [{"co": {"X": 1.0, "Y": 0.0}, "interpolation": 2}]}, "crop_y": {"Points": [{"co": {"X": 1.0, "Y": 0.0}, "interpolation": 2}]}, "crop_height": {"Points": [{"co": {"X": 1.0, "Y": -1.0}, "interpolation": 2}]}, "perspective_c4_x": {"Points": [{"co": {"X": 1.0, "Y": -1.0}, "interpolation": 2}]}, "perspective_c1_x": {"Points": [{"co": {"X": 1.0, "Y": -1.0}, "interpolation": 2}]}, "scale": 1, "perspective_c3_x": {"Points": [{"co": {"X": 1.0, "Y": -1.0}, "interpolation": 2}]}, "has_video": {"Points": [{"co": {"X": 1.0, "Y": -1.0}, "interpolation": 2}]}}}, {"value": 329.0, "type": "update", "partial": false, "key": ["duration"], "old_values": 300}, {"value": {"title": "Demo-04-Lecture Entry-Clash remove and Demo TT.mkv", "channel_filter": {"Points": [{"co": {"X": 1.0, "Y": -1.0}, "interpolation": 2}]}, "end": 61.791666666666664, "layer": 4, "perspective_c4_y": {"Points": [{"co": {"X": 1.0, "Y": -1.0}, "interpolation": 2}]}, "start": 0, "perspective_c2_x": {"Points": [{"co": {"X": 1.0, "Y": -1.0}, "interpolation": 2}]}, "perspective_c1_y": {"Points": [{"co": {"X": 1.0, "Y": -1.0}, "interpolation": 2}]}, "waveform": false, "anchor": 0, "location_x": {"Points": [{"co": {"X": 1.0, "Y": 0.0}, "interpolation": 2}]}, "crop_height": {"Points": [{"co": {"X": 1.0, "Y": -1.0}, "interpolation": 2}]}, "effects": [], "duration": 60.0, "crop_y": {"Points": [{"co": {"X": 1.0, "Y": 0.0}, "interpolation": 2}]}, "location_y": {"Points": [{"co": {"X": 1.0, "Y": 0.0}, "interpolation": 2}]}, "crop_width": {"Points": [{"co": {"X": 1.0, "Y": -1.0}, "interpolation": 2}]}, "scale_x": {"Points": [{"co": {"X": 1.0, "Y": 1.0}, "interpolation": 2}]}, "image": "/home/milind/.openshot_qt/thumbnail/RVOUXSUSEQ.png", "rotation": {"Points": [{"co": {"X": 1.0, "Y": 0.0}, "interpolation": 2}]}, "perspective_c2_y": {"Points": [{"co": {"X": 1.0, "Y": -1.0}, "interpolation": 2}]}, "gravity": 4, "alpha": {"Points": [{"co": {"X": 1.0, "Y": 1.0}, "interpolation": 2}]}, "id": "5SL6Z206WO", "file_id": "RVOUXSUSEQ", "has_audio": {"Points": [{"co": {"X": 1.0, "Y": -1.0}, "interpolation": 2}]}, "shear_x": {"Points": [{"co": {"X": 1.0, "Y": 0.0}, "interpolation": 2}]}, "shear_y": {"Points": [{"co": {"X": 1.0, "Y": 0.0}, "interpolation": 2}]}, "crop_x": {"Points": [{"co": {"X": 1.0, "Y": 0.0}, "interpolation": 2}]}, "position": 72, "perspective_c3_y": {"Points": [{"co": {"X": 1.0, "Y": -1.0}, "interpolation": 2}]}, "time": {"Points": [{"co": {"X": 1.0, "Y": 1.0}, "interpolation": 1}, {"co": {"X": 1483.0, "Y": 5929.0}, "interpolation": 1}]}, "display": 0, "wave_color": {"blue": {"Points": [{"co": {"X": 1.0, "Y": 255.0}, "handle_right": {"X": 0.5, "Y": 0.0}, "handle_left": {"X": 0.5, "Y": 1.0}, "handle_type": 0, "interpolation": 0}]}, "alpha": {"Points": [{"co": {"X": 1.0, "Y": 255.0}, "handle_right": {"X": 0.5, "Y": 0.0}, "handle_left": {"X": 0.5, "Y": 1.0}, "handle_type": 0, "interpolation": 0}]}, "green": {"Points": [{"co": {"X": 1.0, "Y": 123.0}, "handle_right": {"X": 0.5, "Y": 0.0}, "handle_left": {"X": 0.5, "Y": 1.0}, "handle_type": 0, "interpolation": 0}]}, "red": {"Points": [{"co": {"X": 1.0, "Y": 0.0}, "handle_right": {"X": 0.5, "Y": 0.0}, "handle_left": {"X": 0.5, "Y": 1.0}, "handle_type": 0, "interpolation": 0}]}}, "channel_mapping": {"Points": [{"co": {"X": 1.0, "Y": -1.0}, "interpolation": 2}]}, "scale_y": {"Points": [{"co": {"X": 1.0, "Y": 1.0}, "interpolation": 2}]}, "scale": 1, "perspective_c1_x": {"Points": [{"co": {"X": 1.0, "Y": -1.0}, "interpolation": 2}]}, "has_video": {"Points": [{"co": {"X": 1.0, "Y": -1.0}, "interpolation": 2}]}, "perspective_c4_x": {"Points": [{"co": {"X": 1.0, "Y": -1.0}, "interpolation": 2}]}, "volume": {"Points": [{"co": {"X": 1.0, "Y": 1.0}, "interpolation": 2}]}, "perspective_c3_x": {"Points": [{"co": {"X": 1.0, "Y": -1.0}, "interpolation": 2}]}}, "type": "update", "partial": false, "key": ["clips", {"id": "5SL6Z206WO"}], "old_values": {"channel_filter": {"Points": [{"co": {"X": 1.0, "Y": -1.0}, "interpolation": 2}]}, "end": 247, "layer": 4, "perspective_c4_y": {"Points": [{"co": {"X": 1.0, "Y": -1.0}, "interpolation": 2}]}, "start": 0, "volume": {"Points": [{"co": {"X": 1.0, "Y": 1.0}, "interpolation": 2}]}, "reader": {"video_stream_index": 0, "audio_stream_index": -1, "top_field_first": true, "audio_bit_rate": 0, "path": "/home/milind/Data/Projects/CTTdemo/Demo-04-Lecture Entry-Clash remove and Demo TT.mkv", "type": "FFmpegReader", "video_length": "6175", "width": 1366, "audio_timebase": {"num": 1, "den": 1}, "vcodec": "h264", "duration": 247.0, "height": 768, "acodec": "", "video_bit_rate": 0, "has_single_image": false, "pixel_format": 0, "channel_layout": 4, "channels": 0, "has_audio": false, "interlaced_frame": false, "pixel_ratio": {"num": 1, "den": 1}, "sample_rate": 0, "file_size": "2541542", "video_timebase": {"num": 1, "den": 1000}, "has_video": true, "display_ratio": {"num": 683, "den": 384}, "fps": {"num": 25, "den": 1}}, "perspective_c2_x": {"Points": [{"co": {"X": 1.0, "Y": -1.0}, "interpolation": 2}]}, "perspective_c1_y": {"Points": [{"co": {"X": 1.0, "Y": -1.0}, "interpolation": 2}]}, "waveform": false, "title": "Demo-04-Lecture Entry-Clash remove and Demo TT.mkv", "anchor": 0, "crop_height": {"Points": [{"co": {"X": 1.0, "Y": -1.0}, "interpolation": 2}]}, "effects": [], "duration": 247.0, "image": "/home/milind/.openshot_qt/thumbnail/RVOUXSUSEQ.png", "shear_x": {"Points": [{"co": {"X": 1.0, "Y": 0.0}, "interpolation": 2}]}, "crop_width": {"Points": [{"co": {"X": 1.0, "Y": -1.0}, "interpolation": 2}]}, "scale_x": {"Points": [{"co": {"X": 1.0, "Y": 1.0}, "interpolation": 2}]}, "time": {"Points": [{"co": {"X": 1.0, "Y": 1.0}, "interpolation": 2}]}, "rotation": {"Points": [{"co": {"X": 1.0, "Y": 0.0}, "interpolation": 2}]}, "perspective_c2_y": {"Points": [{"co": {"X": 1.0, "Y": -1.0}, "interpolation": 2}]}, "gravity": 4, "alpha": {"Points": [{"co": {"X": 1.0, "Y": 1.0}, "interpolation": 2}]}, "id": "5SL6Z206WO", "file_id": "RVOUXSUSEQ", "has_audio": {"Points": [{"co": {"X": 1.0, "Y": -1.0}, "interpolation": 2}]}, "location_y": {"Points": [{"co": {"X": 1.0, "Y": 0.0}, "interpolation": 2}]}, "shear_y": {"Points": [{"co": {"X": 1.0, "Y": 0.0}, "interpolation": 2}]}, "position": 72, "perspective_c3_y": {"Points": [{"co": {"X": 1.0, "Y": -1.0}, "interpolation": 2}]}, "location_x": {"Points": [{"co": {"X": 1.0, "Y": 0.0}, "interpolation": 2}]}, "display": 0, "wave_color": {"blue": {"Points": [{"co": {"X": 1.0, "Y": 255.0}, "handle_right": {"X": 0.5, "Y": 0.0}, "handle_left": {"X": 0.5, "Y": 1.0}, "handle_type": 0, "interpolation": 0}]}, "alpha": {"Points": [{"co": {"X": 1.0, "Y": 255.0}, "handle_right": {"X": 0.5, "Y": 0.0}, "handle_left": {"X": 0.5, "Y": 1.0}, "handle_type": 0, "interpolation": 0}]}, "green": {"Points": [{"co": {"X": 1.0, "Y": 123.0}, "handle_right": {"X": 0.5, "Y": 0.0}, "handle_left": {"X": 0.5, "Y": 1.0}, "handle_type": 0, "interpolation": 0}]}, "red": {"Points": [{"co": {"X": 1.0, "Y": 0.0}, "handle_right": {"X": 0.5, "Y": 0.0}, "handle_left": {"X": 0.5, "Y": 1.0}, "handle_type": 0, "interpolation": 0}]}}, "channel_mapping": {"Points": [{"co": {"X": 1.0, "Y": -1.0}, "interpolation": 2}]}, "scale_y": {"Points": [{"co": {"X": 1.0, "Y": 1.0}, "interpolation": 2}]}, "crop_x": {"Points": [{"co": {"X": 1.0, "Y": 0.0}, "interpolation": 2}]}, "crop_y": {"Points": [{"co": {"X": 1.0, "Y": 0.0}, "interpolation": 2}]}, "has_video": {"Points": [{"co": {"X": 1.0, "Y": -1.0}, "interpolation": 2}]}, "perspective_c4_x": {"Points": [{"co": {"X": 1.0, "Y": -1.0}, "interpolation": 2}]}, "perspective_c1_x": {"Points": [{"co": {"X": 1.0, "Y": -1.0}, "interpolation": 2}]}, "scale": 1, "perspective_c3_x": {"Points": [{"co": {"X": 1.0, "Y": -1.0}, "interpolation": 2}]}}}, {"value": {"title": "Demo-05-Slitt Class or Splitt lectures.mkv", "channel_filter": {"Points": [{"co": {"X": 1.0, "Y": -1.0}, "interpolation": 2}]}, "end": 41.0, "layer": 4, "perspective_c4_y": {"Points": [{"co": {"X": 1.0, "Y": -1.0}, "interpolation": 2}]}, "reader": {"video_stream_index": 0, "audio_stream_index": -1, "top_field_first": true, "audio_bit_rate": 0, "path": "/home/milind/Data/Projects/CTTdemo/Demo-05-Slitt Class or Splitt lectures.mkv", "type": "FFmpegReader", "video_length": "1025", "width": 1366, "audio_timebase": {"num": 1, "den": 1}, "vcodec": "h264", "display_ratio": {"num": 683, "den": 384}, "duration": 41.0, "has_video": true, "acodec": "", "video_bit_rate": 0, "has_single_image": false, "pixel_format": 0, "channel_layout": 4, "channels": 0, "has_audio": false, "interlaced_frame": false, "sample_rate": 0, "file_size": "783366", "video_timebase": {"num": 1, "den": 1000}, "height": 768, "pixel_ratio": {"num": 1, "den": 1}, "fps": {"num": 25, "den": 1}}, "perspective_c2_x": {"Points": [{"co": {"X": 1.0, "Y": -1.0}, "interpolation": 2}]}, "perspective_c1_y": {"Points": [{"co": {"X": 1.0, "Y": -1.0}, "interpolation": 2}]}, "waveform": false, "anchor": 0, "volume": {"Points": [{"co": {"X": 1.0, "Y": 1.0}, "interpolation": 2}]}, "effects": [], "duration": 41.0, "image": "/home/milind/.openshot_qt/thumbnail/SJFW0PSRLB.png", "shear_x": {"Points": [{"co": {"X": 1.0, "Y": 0.0}, "interpolation": 2}]}, "crop_width": {"Points": [{"co": {"X": 1.0, "Y": -1.0}, "interpolation": 2}]}, "scale_x": {"Points": [{"co": {"X": 1.0, "Y": 1.0}, "interpolation": 2}]}, "location_x": {"Points": [{"co": {"X": 1.0, "Y": 0.0}, "interpolation": 2}]}, "perspective_c2_y": {"Points": [{"co": {"X": 1.0, "Y": -1.0}, "interpolation": 2}]}, "gravity": 4, "alpha": {"Points": [{"co": {"X": 1.0, "Y": 1.0}, "interpolation": 2}]}, "rotation": {"Points": [{"co": {"X": 1.0, "Y": 0.0}, "interpolation": 2}]}, "id": "GXOY6ZFGIM", "file_id": "SJFW0PSRLB", "has_audio": {"Points": [{"co": {"X": 1.0, "Y": -1.0}, "interpolation": 2}]}, "location_y": {"Points": [{"co": {"X": 1.0, "Y": 0.0}, "interpolation": 2}]}, "shear_y": {"Points": [{"co": {"X": 1.0, "Y": 0.0}, "interpolation": 2}]}, "crop_x": {"Points": [{"co": {"X": 1.0, "Y": 0.0}, "interpolation": 2}]}, "position": 49.1, "perspective_c3_y": {"Points": [{"co": {"X": 1.0, "Y": -1.0}, "interpolation": 2}]}, "time": {"Points": [{"co": {"X": 1.0, "Y": 1.0}, "interpolation": 2}]}, "display": 0, "wave_color": {"blue": {"Points": [{"co": {"X": 1.0, "Y": 255.0}, "handle_right": {"X": 0.5, "Y": 0.0}, "handle_type": 0, "handle_left": {"X": 0.5, "Y": 1.0}, "interpolation": 0}]}, "alpha": {"Points": [{"co": {"X": 1.0, "Y": 255.0}, "handle_right": {"X": 0.5, "Y": 0.0}, "handle_type": 0, "handle_left": {"X": 0.5, "Y": 1.0}, "interpolation": 0}]}, "green": {"Points": [{"co": {"X": 1.0, "Y": 123.0}, "handle_right": {"X": 0.5, "Y": 0.0}, "handle_type": 0, "handle_left": {"X": 0.5, "Y": 1.0}, "interpolation": 0}]}, "red": {"Points": [{"co": {"X": 1.0, "Y": 0.0}, "handle_right": {"X": 0.5, "Y": 0.0}, "handle_type": 0, "handle_left": {"X": 0.5, "Y": 1.0}, "interpolation": 0}]}}, "channel_mapping": {"Points": [{"co": {"X": 1.0, "Y": -1.0}, "interpolation": 2}]}, "scale_y": {"Points": [{"co": {"X": 1.0, "Y": 1.0}, "interpolation": 2}]}, "scale": 1, "crop_y": {"Points": [{"co": {"X": 1.0, "Y": 0.0}, "interpolation": 2}]}, "crop_height": {"Points": [{"co": {"X": 1.0, "Y": -1.0}, "interpolation": 2}]}, "perspective_c4_x": {"Points": [{"co": {"X": 1.0, "Y": -1.0}, "interpolation": 2}]}, "perspective_c1_x": {"Points": [{"co": {"X": 1.0, "Y": -1.0}, "interpolation": 2}]}, "start": 0.0, "perspective_c3_x": {"Points": [{"co": {"X": 1.0, "Y": -1.0}, "interpolation": 2}]}, "has_video": {"Points": [{"co": {"X": 1.0, "Y": -1.0}, "interpolation": 2}]}}, "type": "insert", "partial": false, "key": ["clips"], "old_values": [{"title": "Demo-02-Adding Time-Class Slots.mkv", "channel_filter": {"Points": [{"co": {"X": 1.0, "Y": -1.0}, "interpolation": 2}]}, "end": 35.875, "layer": 4, "perspective_c4_y": {"Points": [{"co": {"X": 1.0, "Y": -1.0}, "interpolation": 2}]}, "start": 0, "volume": {"Points": [{"co": {"X": 1.0, "Y": 1.0}, "interpolation": 2}]}, "reader": {"video_stream_index": 0, "audio_stream_index": -1, "top_field_first": true, "audio_bit_rate": 0, "path": "/home/milind/Data/Projects/CTTdemo/Demo-02-Adding Time-Class Slots.mkv", "type": "FFmpegReader", "video_length": "1900", "width": 1366, "audio_timebase": {"num": 1, "den": 1}, "vcodec": "h264", "duration": 76.0, "height": 768, "acodec": "", "video_bit_rate": 0, "has_single_image": false, "pixel_format": 0, "channel_layout": 4, "channels": 0, "has_audio": false, "interlaced_frame": false, "pixel_ratio": {"num": 1, "den": 1}, "sample_rate": 0, "file_size": "502317", "video_timebase": {"num": 1, "den": 1000}, "has_video": true, "display_ratio": {"num": 683, "den": 384}, "fps": {"num": 25, "den": 1}}, "perspective_c2_x": {"Points": [{"co": {"X": 1.0, "Y": -1.0}, "interpolation": 2}]}, "perspective_c1_y": {"Points": [{"co": {"X": 1.0, "Y": -1.0}, "interpolation": 2}]}, "waveform": false, "anchor": 0, "crop_height": {"Points": [{"co": {"X": 1.0, "Y": -1.0}, "interpolation": 2}]}, "effects": [], "duration": 38.0, "image": "/home/milind/Data/Projects/.openshot_qt/thumbnail/8AMXXS1INM.png", "shear_x": {"Points": [{"co": {"X": 1.0, "Y": 0.0}, "interpolation": 2}]}, "crop_width": {"Points": [{"co": {"X": 1.0, "Y": -1.0}, "interpolation": 2}]}, "scale_x": {"Points": [{"co": {"X": 1.0, "Y": 1.0}, "interpolation": 2}]}, "time": {"Points": [{"co": {"X": 1.0, "Y": 1.0}, "interpolation": 1}, {"co": {"X": 861.0, "Y": 1721.0}, "interpolation": 1}]}, "rotation": {"Points": [{"co": {"X": 1.0, "Y": 0.0}, "interpolation": 2}]}, "perspective_c2_y": {"Points": [{"co": {"X": 1.0, "Y": -1.0}, "interpolation": 2}]}, "gravity": 4, "alpha": {"Points": [{"co": {"X": 1.0, "Y": 1.0}, "interpolation": 2}]}, "id": "Z4ZIZQBYYY", "file_id": "8AMXXS1INM", "has_audio": {"Points": [{"co": {"X": 1.0, "Y": -1.0}, "interpolation": 2}]}, "location_y": {"Points": [{"co": {"X": 1.0, "Y": 0.0}, "interpolation": 2}]}, "shear_y": {"Points": [{"co": {"X": 1.0, "Y": 0.0}, "interpolation": 2}]}, "position": 20, "perspective_c3_y": {"Points": [{"co": {"X": 1.0, "Y": -1.0}, "interpolation": 2}]}, "location_x": {"Points": [{"co": {"X": 1.0, "Y": 0.0}, "interpolation": 2}]}, "display": 0, "wave_color": {"blue": {"Points": [{"co": {"X": 1.0, "Y": 255.0}, "handle_right": {"X": 0.5, "Y": 0.0}, "handle_left": {"X": 0.5, "Y": 1.0}, "handle_type": 0, "interpolation": 0}]}, "red": {"Points": [{"co": {"X": 1.0, "Y": 0.0}, "handle_right": {"X": 0.5, "Y": 0.0}, "handle_left": {"X": 0.5, "Y": 1.0}, "handle_type": 0, "interpolation": 0}]}, "green": {"Points": [{"co": {"X": 1.0, "Y": 123.0}, "handle_right": {"X": 0.5, "Y": 0.0}, "handle_left": {"X": 0.5, "Y": 1.0}, "handle_type": 0, "interpolation": 0}]}, "alpha": {"Points": [{"co": {"X": 1.0, "Y": 255.0}, "handle_right": {"X": 0.5, "Y": 0.0}, "handle_left": {"X": 0.5, "Y": 1.0}, "handle_type": 0, "interpolation": 0}]}}, "channel_mapping": {"Points": [{"co": {"X": 1.0, "Y": -1.0}, "interpolation": 2}]}, "scale_y": {"Points": [{"co": {"X": 1.0, "Y": 1.0}, "interpolation": 2}]}, "crop_x": {"Points": [{"co": {"X": 1.0, "Y": 0.0}, "interpolation": 2}]}, "crop_y": {"Points": [{"co": {"X": 1.0, "Y": 0.0}, "interpolation": 2}]}, "has_video": {"Points": [{"co": {"X": 1.0, "Y": -1.0}, "interpolation": 2}]}, "perspective_c4_x": {"Points": [{"co": {"X": 1.0, "Y": -1.0}, "interpolation": 2}]}, "perspective_c1_x": {"Points": [{"co": {"X": 1.0, "Y": -1.0}, "interpolation": 2}]}, "scale": 1, "perspective_c3_x": {"Points": [{"co": {"X": 1.0, "Y": -1.0}, "interpolation": 2}]}}, {"channel_filter": {"Points": [{"co": {"X": 1.0, "Y": -1.0}, "interpolation": 2}]}, "end": 16.183333333333337, "layer": 4, "perspective_c4_y": {"Points": [{"co": {"X": 1.0, "Y": -1.0}, "interpolation": 2}]}, "start": 0, "volume": {"Points": [{"co": {"X": 1.0, "Y": 1.0}, "interpolation": 2}]}, "reader": {"video_stream_index": 0, "audio_stream_index": -1, "top_field_first": true, "audio_bit_rate": 0, "path": "/home/milind/Data/Projects/CTTdemo/Demo-03-Renaming copy pasted Time-Slots.mkv", "type": "FFmpegReader", "video_length": "525", "width": 1366, "audio_timebase": {"num": 1, "den": 1}, "vcodec": "h264", "duration": 21.0, "height": 768, "acodec": "", "video_bit_rate": 0, "has_single_image": false, "pixel_format": 0, "channel_layout": 4, "channels": 0, "has_audio": false, "interlaced_frame": false, "pixel_ratio": {"num": 1, "den": 1}, "sample_rate": 0, "file_size": "191199", "video_timebase": {"num": 1, "den": 1000}, "has_video": true, "display_ratio": {"num": 683, "den": 384}, "fps": {"num": 25, "den": 1}}, "perspective_c2_x": {"Points": [{"co": {"X": 1.0, "Y": -1.0}, "interpolation": 2}]}, "perspective_c1_y": {"Points": [{"co": {"X": 1.0, "Y": -1.0}, "interpolation": 2}]}, "waveform": false, "title": "Demo-03-Renaming copy pasted Time-Slots.mkv", "anchor": 0, "crop_height": {"Points": [{"co": {"X": 1.0, "Y": -1.0}, "interpolation": 2}]}, "effects": [], "duration": 21.0, "image": "/home/milind/Data/Projects/.openshot_qt/thumbnail/FUP4DCVZ3U.png", "shear_x": {"Points": [{"co": {"X": 1.0, "Y": 0.0}, "interpolation": 2}]}, "crop_width": {"Points": [{"co": {"X": 1.0, "Y": -1.0}, "interpolation": 2}]}, "scale_x": {"Points": [{"co": {"X": 1.0, "Y": 1.0}, "interpolation": 2}]}, "time": {"Points": [{"co": {"X": 1.0, "Y": 1.0}, "interpolation": 2}]}, "rotation": {"Points": [{"co": {"X": 1.0, "Y": 0.0}, "interpolation": 2}]}, "perspective_c2_y": {"Points": [{"co": {"X": 1.0, "Y": -1.0}, "interpolation": 2}]}, "gravity": 4, "alpha": {"Points": [{"co": {"X": 1.0, "Y": 1.0}, "interpolation": 2}]}, "id": "HUCJUHW5KR", "file_id": "FUP4DCVZ3U", "has_audio": {"Points": [{"co": {"X": 1.0, "Y": -1.0}, "interpolation": 2}]}, "location_y": {"Points": [{"co": {"X": 1.0, "Y": 0.0}, "interpolation": 2}]}, "shear_y": {"Points": [{"co": {"X": 1.0, "Y": 0.0}, "interpolation": 2}]}, "position": 55.8, "perspective_c3_y": {"Points": [{"co": {"X": 1.0, "Y": -1.0}, "interpolation": 2}]}, "location_x": {"Points": [{"co": {"X": 1.0, "Y": 0.0}, "interpolation": 2}]}, "display": 0, "wave_color": {"blue": {"Points": [{"co": {"X": 1.0, "Y": 255.0}, "handle_right": {"X": 0.5, "Y": 0.0}, "handle_left": {"X": 0.5, "Y": 1.0}, "handle_type": 0, "interpolation": 0}]}, "red": {"Points": [{"co": {"X": 1.0, "Y": 0.0}, "handle_right": {"X": 0.5, "Y": 0.0}, "handle_left": {"X": 0.5, "Y": 1.0}, "handle_type": 0, "interpolation": 0}]}, "green": {"Points": [{"co": {"X": 1.0, "Y": 123.0}, "handle_right": {"X": 0.5, "Y": 0.0}, "handle_left": {"X": 0.5, "Y": 1.0}, "handle_type": 0, "interpolation": 0}]}, "alpha": {"Points": [{"co": {"X": 1.0, "Y": 255.0}, "handle_right": {"X": 0.5, "Y": 0.0}, "handle_left": {"X": 0.5, "Y": 1.0}, "handle_type": 0, "interpolation": 0}]}}, "channel_mapping": {"Points": [{"co": {"X": 1.0, "Y": -1.0}, "interpolation": 2}]}, "scale_y": {"Points": [{"co": {"X": 1.0, "Y": 1.0}, "interpolation": 2}]}, "crop_x": {"Points": [{"co": {"X": 1.0, "Y": 0.0}, "interpolation": 2}]}, "crop_y": {"Points": [{"co": {"X": 1.0, "Y": 0.0}, "interpolation": 2}]}, "has_video": {"Points": [{"co": {"X": 1.0, "Y": -1.0}, "interpolation": 2}]}, "perspective_c4_x": {"Points": [{"co": {"X": 1.0, "Y": -1.0}, "interpolation": 2}]}, "perspective_c1_x": {"Points": [{"co": {"X": 1.0, "Y": -1.0}, "interpolation": 2}]}, "scale": 1, "perspective_c3_x": {"Points": [{"co": {"X": 1.0, "Y": -1.0}, "interpolation": 2}]}}, {"channel_filter": {"Points": [{"co": {"X": 1.0, "Y": -1.0}, "interpolation": 2}]}, "end": 10, "layer": 4, "perspective_c4_y": {"Points": [{"co": {"X": 1.0, "Y": -1.0}, "interpolation": 2}]}, "start": 0, "volume": {"Points": [{"co": {"X": 1.0, "Y": 1.0}, "interpolation": 2}]}, "reader": {"video_stream_index": -1, "audio_stream_index": -1, "top_field_first": true, "audio_bit_rate": 0, "path": "/home/milind/Data/Projects/CTTdemo/assets/TitleFileName-1.svg", "type": "QtImageReader", "video_length": "2592000", "width": 1920, "audio_timebase": {"num": 1, "den": 1}, "vcodec": "", "duration": 86400.0, "height": 1080, "acodec": "", "video_bit_rate": 0, "has_single_image": true, "pixel_format": -1, "channel_layout": 4, "channels": 0, "has_audio": false, "interlaced_frame": false, "pixel_ratio": {"num": 1, "den": 1}, "sample_rate": 0, "file_size": "8294400", "video_timebase": {"num": 1, "den": 30}, "has_video": true, "display_ratio": {"num": 16, "den": 9}, "fps": {"num": 30, "den": 1}}, "perspective_c2_x": {"Points": [{"co": {"X": 1.0, "Y": -1.0}, "interpolation": 2}]}, "perspective_c1_y": {"Points": [{"co": {"X": 1.0, "Y": -1.0}, "interpolation": 2}]}, "waveform": false, "title": "TitleFileName-1.svg", "anchor": 0, "crop_height": {"Points": [{"co": {"X": 1.0, "Y": -1.0}, "interpolation": 2}]}, "effects": [], "duration": 86400.0, "image": "/home/milind/.openshot_qt/thumbnail/YMAWWUI3BI.png", "shear_x": {"Points": [{"co": {"X": 1.0, "Y": 0.0}, "interpolation": 2}]}, "crop_width": {"Points": [{"co": {"X": 1.0, "Y": -1.0}, "interpolation": 2}]}, "scale_x": {"Points": [{"co": {"X": 1.0, "Y": 1.0}, "interpolation": 2}]}, "time": {"Points": [{"co": {"X": 1.0, "Y": 1.0}, "interpolation": 2}]}, "rotation": {"Points": [{"co": {"X": 1.0, "Y": 0.0}, "interpolation": 2}]}, "perspective_c2_y": {"Points": [{"co": {"X": 1.0, "Y": -1.0}, "interpolation": 2}]}, "gravity": 4, "alpha": {"Points": [{"co": {"X": 1.0, "Y": 1.0}, "interpolation": 2}]}, "id": "GWTA84Q5L0", "file_id": "YMAWWUI3BI", "has_audio": {"Points": [{"co": {"X": 1.0, "Y": -1.0}, "interpolation": 2}]}, "location_y": {"Points": [{"co": {"X": 1.0, "Y": 0.0}, "interpolation": 2}]}, "shear_y": {"Points": [{"co": {"X": 1.0, "Y": 0.0}, "interpolation": 2}]}, "position": 0, "perspective_c3_y": {"Points": [{"co": {"X": 1.0, "Y": -1.0}, "interpolation": 2}]}, "location_x": {"Points": [{"co": {"X": 1.0, "Y": 0.0}, "interpolation": 2}]}, "display": 0, "wave_color": {"blue": {"Points": [{"co": {"X": 1.0, "Y": 255.0}, "handle_right": {"X": 0.5, "Y": 0.0}, "handle_left": {"X": 0.5, "Y": 1.0}, "handle_type": 0, "interpolation": 0}]}, "alpha": {"Points": [{"co": {"X": 1.0, "Y": 255.0}, "handle_right": {"X": 0.5, "Y": 0.0}, "handle_left": {"X": 0.5, "Y": 1.0}, "handle_type": 0, "interpolation": 0}]}, "green": {"Points": [{"co": {"X": 1.0, "Y": 123.0}, "handle_right": {"X": 0.5, "Y": 0.0}, "handle_left": {"X": 0.5, "Y": 1.0}, "handle_type": 0, "interpolation": 0}]}, "red": {"Points": [{"co": {"X": 1.0, "Y": 0.0}, "handle_right": {"X": 0.5, "Y": 0.0}, "handle_left": {"X": 0.5, "Y": 1.0}, "handle_type": 0, "interpolation": 0}]}}, "channel_mapping": {"Points": [{"co": {"X": 1.0, "Y": -1.0}, "interpolation": 2}]}, "scale_y": {"Points": [{"co": {"X": 1.0, "Y": 1.0}, "interpolation": 2}]}, "crop_x": {"Points": [{"co": {"X": 1.0, "Y": 0.0}, "interpolation": 2}]}, "crop_y": {"Points": [{"co": {"X": 1.0, "Y": 0.0}, "interpolation": 2}]}, "has_video": {"Points": [{"co": {"X": 1.0, "Y": -1.0}, "interpolation": 2}]}, "perspective_c4_x": {"Points": [{"co": {"X": 1.0, "Y": -1.0}, "interpolation": 2}]}, "perspective_c1_x": {"Points": [{"co": {"X": 1.0, "Y": -1.0}, "interpolation": 2}]}, "scale": 1, "perspective_c3_x": {"Points": [{"co": {"X": 1.0, "Y": -1.0}, "interpolation": 2}]}}, {"channel_filter": {"Points": [{"co": {"X": 1.0, "Y": -1.0}, "interpolation": 2}]}, "end": 10, "layer": 4, "perspective_c4_y": {"Points": [{"co": {"X": 1.0, "Y": -1.0}, "interpolation": 2}]}, "start": 0, "volume": {"Points": [{"co": {"X": 1.0, "Y": 1.0}, "interpolation": 2}]}, "reader": {"video_stream_index": -1, "audio_stream_index": -1, "top_field_first": true, "audio_bit_rate": 0, "path": "/home/milind/Data/Projects/CTTdemo/assets/TitleFileName-1.svg", "type": "QtImageReader", "video_length": "2592000", "width": 1920, "audio_timebase": {"num": 1, "den": 1}, "vcodec": "", "duration": 86400.0, "height": 1080, "acodec": "", "video_bit_rate": 0, "has_single_image": true, "pixel_format": -1, "channel_layout": 4, "channels": 0, "has_audio": false, "interlaced_frame": false, "pixel_ratio": {"num": 1, "den": 1}, "sample_rate": 0, "file_size": "8294400", "video_timebase": {"num": 1, "den": 30}, "has_video": true, "display_ratio": {"num": 16, "den": 9}, "fps": {"num": 30, "den": 1}}, "perspective_c2_x": {"Points": [{"co": {"X": 1.0, "Y": -1.0}, "interpolation": 2}]}, "perspective_c1_y": {"Points": [{"co": {"X": 1.0, "Y": -1.0}, "interpolation": 2}]}, "waveform": false, "title": "TitleFileName-1.svg", "anchor": 0, "crop_height": {"Points": [{"co": {"X": 1.0, "Y": -1.0}, "interpolation": 2}]}, "effects": [], "duration": 86400.0, "image": "/home/milind/.openshot_qt/thumbnail/IFD313JPZZ.png", "shear_x": {"Points": [{"co": {"X": 1.0, "Y": 0.0}, "interpolation": 2}]}, "crop_width": {"Points": [{"co": {"X": 1.0, "Y": -1.0}, "interpolation": 2}]}, "scale_x": {"Points": [{"co": {"X": 1.0, "Y": 1.0}, "interpolation": 2}]}, "time": {"Points": [{"co": {"X": 1.0, "Y": 1.0}, "interpolation": 2}]}, "rotation": {"Points": [{"co": {"X": 1.0, "Y": 0.0}, "interpolation": 2}]}, "perspective_c2_y": {"Points": [{"co": {"X": 1.0, "Y": -1.0}, "interpolation": 2}]}, "gravity": 4, "alpha": {"Points": [{"co": {"X": 1.0, "Y": 1.0}, "interpolation": 2}]}, "id": "RPBI9K5XDC", "file_id": "IFD313JPZZ", "has_audio": {"Points": [{"co": {"X": 1.0, "Y": -1.0}, "interpolation": 2}]}, "location_y": {"Points": [{"co": {"X": 1.0, "Y": 0.0}, "interpolation": 2}]}, "shear_y": {"Points": [{"co": {"X": 1.0, "Y": 0.0}, "interpolation": 2}]}, "position": 10, "perspective_c3_y": {"Points": [{"co": {"X": 1.0, "Y": -1.0}, "interpolation": 2}]}, "location_x": {"Points": [{"co": {"X": 1.0, "Y": 0.0}, "interpolation": 2}]}, "display": 0, "wave_color": {"blue": {"Points": [{"co": {"X": 1.0, "Y": 255.0}, "handle_right": {"X": 0.5, "Y": 0.0}, "handle_left": {"X": 0.5, "Y": 1.0}, "handle_type": 0, "interpolation": 0}]}, "alpha": {"Points": [{"co": {"X": 1.0, "Y": 255.0}, "handle_right": {"X": 0.5, "Y": 0.0}, "handle_left": {"X": 0.5, "Y": 1.0}, "handle_type": 0, "interpolation": 0}]}, "green": {"Points": [{"co": {"X": 1.0, "Y": 123.0}, "handle_right": {"X": 0.5, "Y": 0.0}, "handle_left": {"X": 0.5, "Y": 1.0}, "handle_type": 0, "interpolation": 0}]}, "red": {"Points": [{"co": {"X": 1.0, "Y": 0.0}, "handle_right": {"X": 0.5, "Y": 0.0}, "handle_left": {"X": 0.5, "Y": 1.0}, "handle_type": 0, "interpolation": 0}]}}, "channel_mapping": {"Points": [{"co": {"X": 1.0, "Y": -1.0}, "interpolation": 2}]}, "scale_y": {"Points": [{"co": {"X": 1.0, "Y": 1.0}, "interpolation": 2}]}, "crop_x": {"Points": [{"co": {"X": 1.0, "Y": 0.0}, "interpolation": 2}]}, "crop_y": {"Points": [{"co": {"X": 1.0, "Y": 0.0}, "interpolation": 2}]}, "has_video": {"Points": [{"co": {"X": 1.0, "Y": -1.0}, "interpolation": 2}]}, "perspective_c4_x": {"Points": [{"co": {"X": 1.0, "Y": -1.0}, "interpolation": 2}]}, "perspective_c1_x": {"Points": [{"co": {"X": 1.0, "Y": -1.0}, "interpolation": 2}]}, "scale": 1, "perspective_c3_x": {"Points": [{"co": {"X": 1.0, "Y": -1.0}, "interpolation": 2}]}}, {"channel_filter": {"Points": [{"co": {"X": 1.0, "Y": -1.0}, "interpolation": 2}]}, "end": 61.791666666666664, "layer": 4, "perspective_c4_y": {"Points": [{"co": {"X": 1.0, "Y": -1.0}, "interpolation": 2}]}, "start": 0, "volume": {"Points": [{"co": {"X": 1.0, "Y": 1.0}, "interpolation": 2}]}, "reader": {"video_stream_index": 0, "audio_stream_index": -1, "top_field_first": true, "audio_bit_rate": 0, "path": "/home/milind/Data/Projects/CTTdemo/Demo-04-Lecture Entry-Clash remove and Demo TT.mkv", "type": "FFmpegReader", "video_length": "6175", "width": 1366, "audio_timebase": {"num": 1, "den": 1}, "vcodec": "h264", "duration": 247.0, "height": 768, "acodec": "", "video_bit_rate": 0, "has_single_image": false, "pixel_format": 0, "channel_layout": 4, "channels": 0, "has_audio": false, "interlaced_frame": false, "pixel_ratio": {"num": 1, "den": 1}, "sample_rate": 0, "file_size": "2541542", "video_timebase": {"num": 1, "den": 1000}, "has_video": true, "display_ratio": {"num": 683, "den": 384}, "fps": {"num": 25, "den": 1}}, "perspective_c2_x": {"Points": [{"co": {"X": 1.0, "Y": -1.0}, "interpolation": 2}]}, "perspective_c1_y": {"Points": [{"co": {"X": 1.0, "Y": -1.0}, "interpolation": 2}]}, "waveform": false, "title": "Demo-04-Lecture Entry-Clash remove and Demo TT.mkv", "anchor": 0, "crop_height": {"Points": [{"co": {"X": 1.0, "Y": -1.0}, "interpolation": 2}]}, "effects": [], "duration": 60.0, "image": "/home/milind/.openshot_qt/thumbnail/RVOUXSUSEQ.png", "shear_x": {"Points": [{"co": {"X": 1.0, "Y": 0.0}, "interpolation": 2}]}, "crop_width": {"Points": [{"co": {"X": 1.0, "Y": -1.0}, "interpolation": 2}]}, "scale_x": {"Points": [{"co": {"X": 1.0, "Y": 1.0}, "interpolation": 2}]}, "time": {"Points": [{"co": {"X": 1.0, "Y": 1.0}, "interpolation": 1}, {"co": {"X": 1483.0, "Y": 5929.0}, "interpolation": 1}]}, "rotation": {"Points": [{"co": {"X": 1.0, "Y": 0.0}, "interpolation": 2}]}, "perspective_c2_y": {"Points": [{"co": {"X": 1.0, "Y": -1.0}, "interpolation": 2}]}, "gravity": 4, "alpha": {"Points": [{"co": {"X": 1.0, "Y": 1.0}, "interpolation": 2}]}, "id": "5SL6Z206WO", "file_id": "RVOUXSUSEQ", "has_audio": {"Points": [{"co": {"X": 1.0, "Y": -1.0}, "interpolation": 2}]}, "location_y": {"Points": [{"co": {"X": 1.0, "Y": 0.0}, "interpolation": 2}]}, "shear_y": {"Points": [{"co": {"X": 1.0, "Y": 0.0}, "interpolation": 2}]}, "position": 72, "perspective_c3_y": {"Points": [{"co": {"X": 1.0, "Y": -1.0}, "interpolation": 2}]}, "location_x": {"Points": [{"co": {"X": 1.0, "Y": 0.0}, "interpolation": 2}]}, "display": 0, "wave_color": {"blue": {"Points": [{"co": {"X": 1.0, "Y": 255.0}, "handle_right": {"X": 0.5, "Y": 0.0}, "handle_type": 0, "handle_left": {"X": 0.5, "Y": 1.0}, "interpolation": 0}]}, "alpha": {"Points": [{"co": {"X": 1.0, "Y": 255.0}, "handle_right": {"X": 0.5, "Y": 0.0}, "handle_type": 0, "handle_left": {"X": 0.5, "Y": 1.0}, "interpolation": 0}]}, "green": {"Points": [{"co": {"X": 1.0, "Y": 123.0}, "handle_right": {"X": 0.5, "Y": 0.0}, "handle_type": 0, "handle_left": {"X": 0.5, "Y": 1.0}, "interpolation": 0}]}, "red": {"Points": [{"co": {"X": 1.0, "Y": 0.0}, "handle_right": {"X": 0.5, "Y": 0.0}, "handle_type": 0, "handle_left": {"X": 0.5, "Y": 1.0}, "interpolation": 0}]}}, "channel_mapping": {"Points": [{"co": {"X": 1.0, "Y": -1.0}, "interpolation": 2}]}, "scale_y": {"Points": [{"co": {"X": 1.0, "Y": 1.0}, "interpolation": 2}]}, "crop_x": {"Points": [{"co": {"X": 1.0, "Y": 0.0}, "interpolation": 2}]}, "crop_y": {"Points": [{"co": {"X": 1.0, "Y": 0.0}, "interpolation": 2}]}, "has_video": {"Points": [{"co": {"X": 1.0, "Y": -1.0}, "interpolation": 2}]}, "perspective_c4_x": {"Points": [{"co": {"X": 1.0, "Y": -1.0}, "interpolation": 2}]}, "perspective_c1_x": {"Points": [{"co": {"X": 1.0, "Y": -1.0}, "interpolation": 2}]}, "scale": 1, "perspective_c3_x": {"Points": [{"co": {"X": 1.0, "Y": -1.0}, "interpolation": 2}]}}]}, {"value": null, "type": "delete", "partial": false, "key": ["clips", {"id": "GXOY6ZFGIM"}], "old_values": {"title": "Demo-05-Slitt Class or Splitt lectures.mkv", "channel_filter": {"Points": [{"co": {"X": 1.0, "Y": -1.0}, "interpolation": 2}]}, "end": 41.0, "layer": 4, "perspective_c4_y": {"Points": [{"co": {"X": 1.0, "Y": -1.0}, "interpolation": 2}]}, "start": 0.0, "reader": {"video_stream_index": 0, "audio_stream_index": -1, "top_field_first": true, "audio_bit_rate": 0, "path": "/home/milind/Data/Projects/CTTdemo/Demo-05-Slitt Class or Splitt lectures.mkv", "type": "FFmpegReader", "video_length": "1025", "width": 1366, "audio_timebase": {"num": 1, "den": 1}, "vcodec": "h264", "duration": 41.0, "height": 768, "acodec": "", "video_bit_rate": 0, "has_single_image": false, "pixel_format": 0, "channel_layout": 4, "channels": 0, "has_audio": false, "interlaced_frame": false, "pixel_ratio": {"num": 1, "den": 1}, "sample_rate": 0, "file_size": "783366", "video_timebase": {"num": 1, "den": 1000}, "has_video": true, "display_ratio": {"num": 683, "den": 384}, "fps": {"num": 25, "den": 1}}, "perspective_c2_x": {"Points": [{"co": {"X": 1.0, "Y": -1.0}, "interpolation": 2}]}, "perspective_c1_y": {"Points": [{"co": {"X": 1.0, "Y": -1.0}, "interpolation": 2}]}, "waveform": false, "anchor": 0, "volume": {"Points": [{"co": {"X": 1.0, "Y": 1.0}, "interpolation": 2}]}, "effects": [], "duration": 41.0, "image": "/home/milind/.openshot_qt/thumbnail/SJFW0PSRLB.png", "location_y": {"Points": [{"co": {"X": 1.0, "Y": 0.0}, "interpolation": 2}]}, "crop_width": {"Points": [{"co": {"X": 1.0, "Y": -1.0}, "interpolation": 2}]}, "scale_x": {"Points": [{"co": {"X": 1.0, "Y": 1.0}, "interpolation": 2}]}, "time": {"Points": [{"co": {"X": 1.0, "Y": 1.0}, "interpolation": 2}]}, "location_x": {"Points": [{"co": {"X": 1.0, "Y": 0.0}, "interpolation": 2}]}, "perspective_c2_y": {"Points": [{"co": {"X": 1.0, "Y": -1.0}, "interpolation": 2}]}, "gravity": 4, "alpha": {"Points": [{"co": {"X": 1.0, "Y": 1.0}, "interpolation": 2}]}, "id": "GXOY6ZFGIM", "file_id": "SJFW0PSRLB", "has_audio": {"Points": [{"co": {"X": 1.0, "Y": -1.0}, "interpolation": 2}]}, "shear_x": {"Points": [{"co": {"X": 1.0, "Y": 0.0}, "interpolation": 2}]}, "shear_y": {"Points": [{"co": {"X": 1.0, "Y": 0.0}, "interpolation": 2}]}, "position": 49.1, "perspective_c3_y": {"Points": [{"co": {"X": 1.0, "Y": -1.0}, "interpolation": 2}]}, "rotation": {"Points": [{"co": {"X": 1.0, "Y": 0.0}, "interpolation": 2}]}, "display": 0, "wave_color": {"blue": {"Points": [{"co": {"X": 1.0, "Y": 255.0}, "handle_right": {"X": 0.5, "Y": 0.0}, "handle_left": {"X": 0.5, "Y": 1.0}, "handle_type": 0, "interpolation": 0}]}, "alpha": {"Points": [{"co": {"X": 1.0, "Y": 255.0}, "handle_right": {"X": 0.5, "Y": 0.0}, "handle_left": {"X": 0.5, "Y": 1.0}, "handle_type": 0, "interpolation": 0}]}, "green": {"Points": [{"co": {"X": 1.0, "Y": 123.0}, "handle_right": {"X": 0.5, "Y": 0.0}, "handle_left": {"X": 0.5, "Y": 1.0}, "handle_type": 0, "interpolation": 0}]}, "red": {"Points": [{"co": {"X": 1.0, "Y": 0.0}, "handle_right": {"X": 0.5, "Y": 0.0}, "handle_left": {"X": 0.5, "Y": 1.0}, "handle_type": 0, "interpolation": 0}]}}, "channel_mapping": {"Points": [{"co": {"X": 1.0, "Y": -1.0}, "interpolation": 2}]}, "scale_y": {"Points": [{"co": {"X": 1.0, "Y": 1.0}, "interpolation": 2}]}, "crop_x": {"Points": [{"co": {"X": 1.0, "Y": 0.0}, "interpolation": 2}]}, "crop_y": {"Points": [{"co": {"X": 1.0, "Y": 0.0}, "interpolation": 2}]}, "crop_height": {"Points": [{"co": {"X": 1.0, "Y": -1.0}, "interpolation": 2}]}, "perspective_c4_x": {"Points": [{"co": {"X": 1.0, "Y": -1.0}, "interpolation": 2}]}, "perspective_c1_x": {"Points": [{"co": {"X": 1.0, "Y": -1.0}, "interpolation": 2}]}, "scale": 1, "perspective_c3_x": {"Points": [{"co": {"X": 1.0, "Y": -1.0}, "interpolation": 2}]}, "has_video": {"Points": [{"co": {"X": 1.0, "Y": -1.0}, "interpolation": 2}]}}}, {"value": {"channel_filter": {"Points": [{"co": {"X": 1.0, "Y": -1.0}, "interpolation": 2}]}, "perspective_c1_y": {"Points": [{"co": {"X": 1.0, "Y": -1.0}, "interpolation": 2}]}, "layer": 4, "perspective_c4_y": {"Points": [{"co": {"X": 1.0, "Y": -1.0}, "interpolation": 2}]}, "reader": {"video_stream_index": 0, "audio_stream_index": -1, "top_field_first": true, "audio_bit_rate": 0, "path": "/home/milind/Data/Projects/CTTdemo/Demo-05-Slitt Class or Splitt lectures.mkv", "type": "FFmpegReader", "video_length": "1025", "width": 1366, "audio_timebase": {"num": 1, "den": 1}, "vcodec": "h264", "display_ratio": {"num": 683, "den": 384}, "duration": 41.0, "has_video": true, "acodec": "", "video_bit_rate": 0, "has_single_image": false, "pixel_format": 0, "channel_layout": 4, "channels": 0, "has_audio": false, "interlaced_frame": false, "sample_rate": 0, "file_size": "783366", "video_timebase": {"num": 1, "den": 1000}, "height": 768, "pixel_ratio": {"num": 1, "den": 1}, "fps": {"num": 25, "den": 1}}, "perspective_c2_x": {"Points": [{"co": {"X": 1.0, "Y": -1.0}, "interpolation": 2}]}, "end": 36.84166666666667, "waveform": false, "title": "Demo-05-Slitt Class or Splitt lectures.mkv", "anchor": 0, "location_x": {"Points": [{"co": {"X": 1.0, "Y": 0.0}, "interpolation": 2}]}, "crop_height": {"Points": [{"co": {"X": 1.0, "Y": -1.0}, "interpolation": 2}]}, "effects": [], "duration": 41.0, "crop_y": {"Points": [{"co": {"X": 1.0, "Y": 0.0}, "interpolation": 2}]}, "location_y": {"Points": [{"co": {"X": 1.0, "Y": 0.0}, "interpolation": 2}]}, "crop_width": {"Points": [{"co": {"X": 1.0, "Y": -1.0}, "interpolation": 2}]}, "scale_x": {"Points": [{"co": {"X": 1.0, "Y": 1.0}, "interpolation": 2}]}, "image": "/home/milind/.openshot_qt/thumbnail/SJFW0PSRLB.png", "rotation": {"Points": [{"co": {"X": 1.0, "Y": 0.0}, "interpolation": 2}]}, "perspective_c2_y": {"Points": [{"co": {"X": 1.0, "Y": -1.0}, "interpolation": 2}]}, "gravity": 4, "alpha": {"Points": [{"co": {"X": 1.0, "Y": 1.0}, "interpolation": 2}]}, "id": "6XKH2CVO13", "file_id": "SJFW0PSRLB", "has_audio": {"Points": [{"co": {"X": 1.0, "Y": -1.0}, "interpolation": 2}]}, "shear_x": {"Points": [{"co": {"X": 1.0, "Y": 0.0}, "interpolation": 2}]}, "shear_y": {"Points": [{"co": {"X": 1.0, "Y": 0.0}, "interpolation": 2}]}, "crop_x": {"Points": [{"co": {"X": 1.0, "Y": 0.0}, "interpolation": 2}]}, "position": 133.7, "perspective_c3_y": {"Points": [{"co": {"X": 1.0, "Y": -1.0}, "interpolation": 2}]}, "time": {"Points": [{"co": {"X": 1.0, "Y": 1.0}, "interpolation": 2}]}, "display": 0, "wave_color": {"blue": {"Points": [{"co": {"X": 1.0, "Y": 255.0}, "handle_right": {"X": 0.5, "Y": 0.0}, "handle_left": {"X": 0.5, "Y": 1.0}, "handle_type": 0, "interpolation": 0}]}, "alpha": {"Points": [{"co": {"X": 1.0, "Y": 255.0}, "handle_right": {"X": 0.5, "Y": 0.0}, "handle_left": {"X": 0.5, "Y": 1.0}, "handle_type": 0, "interpolation": 0}]}, "green": {"Points": [{"co": {"X": 1.0, "Y": 123.0}, "handle_right": {"X": 0.5, "Y": 0.0}, "handle_left": {"X": 0.5, "Y": 1.0}, "handle_type": 0, "interpolation": 0}]}, "red": {"Points": [{"co": {"X": 1.0, "Y": 0.0}, "handle_right": {"X": 0.5, "Y": 0.0}, "handle_left": {"X": 0.5, "Y": 1.0}, "handle_type": 0, "interpolation": 0}]}}, "channel_mapping": {"Points": [{"co": {"X": 1.0, "Y": -1.0}, "interpolation": 2}]}, "scale_y": {"Points": [{"co": {"X": 1.0, "Y": 1.0}, "interpolation": 2}]}, "scale": 1, "perspective_c1_x": {"Points": [{"co": {"X": 1.0, "Y": -1.0}, "interpolation": 2}]}, "has_video": {"Points": [{"co": {"X": 1.0, "Y": -1.0}, "interpolation": 2}]}, "perspective_c4_x": {"Points": [{"co": {"X": 1.0, "Y": -1.0}, "interpolation": 2}]}, "volume": {"Points": [{"co": {"X": 1.0, "Y": 1.0}, "interpolation": 2}]}, "start": 0, "perspective_c3_x": {"Points": [{"co": {"X": 1.0, "Y": -1.0}, "interpolation": 2}]}}, "type": "insert", "partial": false, "key": ["clips"], "old_values": [{"title": "Demo-02-Adding Time-Class Slots.mkv", "channel_filter": {"Points": [{"co": {"X": 1.0, "Y": -1.0}, "interpolation": 2}]}, "end": 35.875, "layer": 4, "perspective_c4_y": {"Points": [{"co": {"X": 1.0, "Y": -1.0}, "interpolation": 2}]}, "start": 0, "volume": {"Points": [{"co": {"X": 1.0, "Y": 1.0}, "interpolation": 2}]}, "reader": {"video_stream_index": 0, "audio_stream_index": -1, "top_field_first": true, "audio_bit_rate": 0, "path": "/home/milind/Data/Projects/CTTdemo/Demo-02-Adding Time-Class Slots.mkv", "type": "FFmpegReader", "video_length": "1900", "width": 1366, "audio_timebase": {"num": 1, "den": 1}, "vcodec": "h264", "duration": 76.0, "height": 768, "acodec": "", "video_bit_rate": 0, "has_single_image": false, "pixel_format": 0, "channel_layout": 4, "channels": 0, "has_audio": false, "interlaced_frame": false, "pixel_ratio": {"num": 1, "den": 1}, "sample_rate": 0, "file_size": "502317", "video_timebase": {"num": 1, "den": 1000}, "has_video": true, "display_ratio": {"num": 683, "den": 384}, "fps": {"num": 25, "den": 1}}, "perspective_c2_x": {"Points": [{"co": {"X": 1.0, "Y": -1.0}, "interpolation": 2}]}, "perspective_c1_y": {"Points": [{"co": {"X": 1.0, "Y": -1.0}, "interpolation": 2}]}, "waveform": false, "anchor": 0, "crop_height": {"Points": [{"co": {"X": 1.0, "Y": -1.0}, "interpolation": 2}]}, "effects": [], "duration": 38.0, "image": "/home/milind/Data/Projects/.openshot_qt/thumbnail/8AMXXS1INM.png", "shear_x": {"Points": [{"co": {"X": 1.0, "Y": 0.0}, "interpolation": 2}]}, "crop_width": {"Points": [{"co": {"X": 1.0, "Y": -1.0}, "interpolation": 2}]}, "scale_x": {"Points": [{"co": {"X": 1.0, "Y": 1.0}, "interpolation": 2}]}, "time": {"Points": [{"co": {"X": 1.0, "Y": 1.0}, "interpolation": 1}, {"co": {"X": 861.0, "Y": 1721.0}, "interpolation": 1}]}, "rotation": {"Points": [{"co": {"X": 1.0, "Y": 0.0}, "interpolation": 2}]}, "perspective_c2_y": {"Points": [{"co": {"X": 1.0, "Y": -1.0}, "interpolation": 2}]}, "gravity": 4, "alpha": {"Points": [{"co": {"X": 1.0, "Y": 1.0}, "interpolation": 2}]}, "id": "Z4ZIZQBYYY", "file_id": "8AMXXS1INM", "has_audio": {"Points": [{"co": {"X": 1.0, "Y": -1.0}, "interpolation": 2}]}, "location_y": {"Points": [{"co": {"X": 1.0, "Y": 0.0}, "interpolation": 2}]}, "shear_y": {"Points": [{"co": {"X": 1.0, "Y": 0.0}, "interpolation": 2}]}, "position": 20, "perspective_c3_y": {"Points": [{"co": {"X": 1.0, "Y": -1.0}, "interpolation": 2}]}, "location_x": {"Points": [{"co": {"X": 1.0, "Y": 0.0}, "interpolation": 2}]}, "display": 0, "wave_color": {"blue": {"Points": [{"co": {"X": 1.0, "Y": 255.0}, "handle_right": {"X": 0.5, "Y": 0.0}, "handle_left": {"X": 0.5, "Y": 1.0}, "handle_type": 0, "interpolation": 0}]}, "red": {"Points": [{"co": {"X": 1.0, "Y": 0.0}, "handle_right": {"X": 0.5, "Y": 0.0}, "handle_left": {"X": 0.5, "Y": 1.0}, "handle_type": 0, "interpolation": 0}]}, "green": {"Points": [{"co": {"X": 1.0, "Y": 123.0}, "handle_right": {"X": 0.5, "Y": 0.0}, "handle_left": {"X": 0.5, "Y": 1.0}, "handle_type": 0, "interpolation": 0}]}, "alpha": {"Points": [{"co": {"X": 1.0, "Y": 255.0}, "handle_right": {"X": 0.5, "Y": 0.0}, "handle_left": {"X": 0.5, "Y": 1.0}, "handle_type": 0, "interpolation": 0}]}}, "channel_mapping": {"Points": [{"co": {"X": 1.0, "Y": -1.0}, "interpolation": 2}]}, "scale_y": {"Points": [{"co": {"X": 1.0, "Y": 1.0}, "interpolation": 2}]}, "crop_x": {"Points": [{"co": {"X": 1.0, "Y": 0.0}, "interpolation": 2}]}, "crop_y": {"Points": [{"co": {"X": 1.0, "Y": 0.0}, "interpolation": 2}]}, "has_video": {"Points": [{"co": {"X": 1.0, "Y": -1.0}, "interpolation": 2}]}, "perspective_c4_x": {"Points": [{"co": {"X": 1.0, "Y": -1.0}, "interpolation": 2}]}, "perspective_c1_x": {"Points": [{"co": {"X": 1.0, "Y": -1.0}, "interpolation": 2}]}, "scale": 1, "perspective_c3_x": {"Points": [{"co": {"X": 1.0, "Y": -1.0}, "interpolation": 2}]}}, {"channel_filter": {"Points": [{"co": {"X": 1.0, "Y": -1.0}, "interpolation": 2}]}, "end": 16.183333333333337, "layer": 4, "perspective_c4_y": {"Points": [{"co": {"X": 1.0, "Y": -1.0}, "interpolation": 2}]}, "start": 0, "volume": {"Points": [{"co": {"X": 1.0, "Y": 1.0}, "interpolation": 2}]}, "reader": {"video_stream_index": 0, "audio_stream_index": -1, "top_field_first": true, "audio_bit_rate": 0, "path": "/home/milind/Data/Projects/CTTdemo/Demo-03-Renaming copy pasted Time-Slots.mkv", "type": "FFmpegReader", "video_length": "525", "width": 1366, "audio_timebase": {"num": 1, "den": 1}, "vcodec": "h264", "duration": 21.0, "height": 768, "acodec": "", "video_bit_rate": 0, "has_single_image": false, "pixel_format": 0, "channel_layout": 4, "channels": 0, "has_audio": false, "interlaced_frame": false, "pixel_ratio": {"num": 1, "den": 1}, "sample_rate": 0, "file_size": "191199", "video_timebase": {"num": 1, "den": 1000}, "has_video": true, "display_ratio": {"num": 683, "den": 384}, "fps": {"num": 25, "den": 1}}, "perspective_c2_x": {"Points": [{"co": {"X": 1.0, "Y": -1.0}, "interpolation": 2}]}, "perspective_c1_y": {"Points": [{"co": {"X": 1.0, "Y": -1.0}, "interpolation": 2}]}, "waveform": false, "title": "Demo-03-Renaming copy pasted Time-Slots.mkv", "anchor": 0, "crop_height": {"Points": [{"co": {"X": 1.0, "Y": -1.0}, "interpolation": 2}]}, "effects": [], "duration": 21.0, "image": "/home/milind/Data/Projects/.openshot_qt/thumbnail/FUP4DCVZ3U.png", "shear_x": {"Points": [{"co": {"X": 1.0, "Y": 0.0}, "interpolation": 2}]}, "crop_width": {"Points": [{"co": {"X": 1.0, "Y": -1.0}, "interpolation": 2}]}, "scale_x": {"Points": [{"co": {"X": 1.0, "Y": 1.0}, "interpolation": 2}]}, "time": {"Points": [{"co": {"X": 1.0, "Y": 1.0}, "interpolation": 2}]}, "rotation": {"Points": [{"co": {"X": 1.0, "Y": 0.0}, "interpolation": 2}]}, "perspective_c2_y": {"Points": [{"co": {"X": 1.0, "Y": -1.0}, "interpolation": 2}]}, "gravity": 4, "alpha": {"Points": [{"co": {"X": 1.0, "Y": 1.0}, "interpolation": 2}]}, "id": "HUCJUHW5KR", "file_id": "FUP4DCVZ3U", "has_audio": {"Points": [{"co": {"X": 1.0, "Y": -1.0}, "interpolation": 2}]}, "location_y": {"Points": [{"co": {"X": 1.0, "Y": 0.0}, "interpolation": 2}]}, "shear_y": {"Points": [{"co": {"X": 1.0, "Y": 0.0}, "interpolation": 2}]}, "position": 55.8, "perspective_c3_y": {"Points": [{"co": {"X": 1.0, "Y": -1.0}, "interpolation": 2}]}, "location_x": {"Points": [{"co": {"X": 1.0, "Y": 0.0}, "interpolation": 2}]}, "display": 0, "wave_color": {"blue": {"Points": [{"co": {"X": 1.0, "Y": 255.0}, "handle_right": {"X": 0.5, "Y": 0.0}, "handle_left": {"X": 0.5, "Y": 1.0}, "handle_type": 0, "interpolation": 0}]}, "red": {"Points": [{"co": {"X": 1.0, "Y": 0.0}, "handle_right": {"X": 0.5, "Y": 0.0}, "handle_left": {"X": 0.5, "Y": 1.0}, "handle_type": 0, "interpolation": 0}]}, "green": {"Points": [{"co": {"X": 1.0, "Y": 123.0}, "handle_right": {"X": 0.5, "Y": 0.0}, "handle_left": {"X": 0.5, "Y": 1.0}, "handle_type": 0, "interpolation": 0}]}, "alpha": {"Points": [{"co": {"X": 1.0, "Y": 255.0}, "handle_right": {"X": 0.5, "Y": 0.0}, "handle_left": {"X": 0.5, "Y": 1.0}, "handle_type": 0, "interpolation": 0}]}}, "channel_mapping": {"Points": [{"co": {"X": 1.0, "Y": -1.0}, "interpolation": 2}]}, "scale_y": {"Points": [{"co": {"X": 1.0, "Y": 1.0}, "interpolation": 2}]}, "crop_x": {"Points": [{"co": {"X": 1.0, "Y": 0.0}, "interpolation": 2}]}, "crop_y": {"Points": [{"co": {"X": 1.0, "Y": 0.0}, "interpolation": 2}]}, "has_video": {"Points": [{"co": {"X": 1.0, "Y": -1.0}, "interpolation": 2}]}, "perspective_c4_x": {"Points": [{"co": {"X": 1.0, "Y": -1.0}, "interpolation": 2}]}, "perspective_c1_x": {"Points": [{"co": {"X": 1.0, "Y": -1.0}, "interpolation": 2}]}, "scale": 1, "perspective_c3_x": {"Points": [{"co": {"X": 1.0, "Y": -1.0}, "interpolation": 2}]}}, {"channel_filter": {"Points": [{"co": {"X": 1.0, "Y": -1.0}, "interpolation": 2}]}, "end": 10, "layer": 4, "perspective_c4_y": {"Points": [{"co": {"X": 1.0, "Y": -1.0}, "interpolation": 2}]}, "start": 0, "volume": {"Points": [{"co": {"X": 1.0, "Y": 1.0}, "interpolation": 2}]}, "reader": {"video_stream_index": -1, "audio_stream_index": -1, "top_field_first": true, "audio_bit_rate": 0, "path": "/home/milind/Data/Projects/CTTdemo/assets/TitleFileName-1.svg", "type": "QtImageReader", "video_length": "2592000", "width": 1920, "audio_timebase": {"num": 1, "den": 1}, "vcodec": "", "duration": 86400.0, "height": 1080, "acodec": "", "video_bit_rate": 0, "has_single_image": true, "pixel_format": -1, "channel_layout": 4, "channels": 0, "has_audio": false, "interlaced_frame": false, "pixel_ratio": {"num": 1, "den": 1}, "sample_rate": 0, "file_size": "8294400", "video_timebase": {"num": 1, "den": 30}, "has_video": true, "display_ratio": {"num": 16, "den": 9}, "fps": {"num": 30, "den": 1}}, "perspective_c2_x": {"Points": [{"co": {"X": 1.0, "Y": -1.0}, "interpolation": 2}]}, "perspective_c1_y": {"Points": [{"co": {"X": 1.0, "Y": -1.0}, "interpolation": 2}]}, "waveform": false, "title": "TitleFileName-1.svg", "anchor": 0, "crop_height": {"Points": [{"co": {"X": 1.0, "Y": -1.0}, "interpolation": 2}]}, "effects": [], "duration": 86400.0, "image": "/home/milind/.openshot_qt/thumbnail/YMAWWUI3BI.png", "shear_x": {"Points": [{"co": {"X": 1.0, "Y": 0.0}, "interpolation": 2}]}, "crop_width": {"Points": [{"co": {"X": 1.0, "Y": -1.0}, "interpolation": 2}]}, "scale_x": {"Points": [{"co": {"X": 1.0, "Y": 1.0}, "interpolation": 2}]}, "time": {"Points": [{"co": {"X": 1.0, "Y": 1.0}, "interpolation": 2}]}, "rotation": {"Points": [{"co": {"X": 1.0, "Y": 0.0}, "interpolation": 2}]}, "perspective_c2_y": {"Points": [{"co": {"X": 1.0, "Y": -1.0}, "interpolation": 2}]}, "gravity": 4, "alpha": {"Points": [{"co": {"X": 1.0, "Y": 1.0}, "interpolation": 2}]}, "id": "GWTA84Q5L0", "file_id": "YMAWWUI3BI", "has_audio": {"Points": [{"co": {"X": 1.0, "Y": -1.0}, "interpolation": 2}]}, "location_y": {"Points": [{"co": {"X": 1.0, "Y": 0.0}, "interpolation": 2}]}, "shear_y": {"Points": [{"co": {"X": 1.0, "Y": 0.0}, "interpolation": 2}]}, "position": 0, "perspective_c3_y": {"Points": [{"co": {"X": 1.0, "Y": -1.0}, "interpolation": 2}]}, "location_x": {"Points": [{"co": {"X": 1.0, "Y": 0.0}, "interpolation": 2}]}, "display": 0, "wave_color": {"blue": {"Points": [{"co": {"X": 1.0, "Y": 255.0}, "handle_right": {"X": 0.5, "Y": 0.0}, "handle_left": {"X": 0.5, "Y": 1.0}, "handle_type": 0, "interpolation": 0}]}, "alpha": {"Points": [{"co": {"X": 1.0, "Y": 255.0}, "handle_right": {"X": 0.5, "Y": 0.0}, "handle_left": {"X": 0.5, "Y": 1.0}, "handle_type": 0, "interpolation": 0}]}, "green": {"Points": [{"co": {"X": 1.0, "Y": 123.0}, "handle_right": {"X": 0.5, "Y": 0.0}, "handle_left": {"X": 0.5, "Y": 1.0}, "handle_type": 0, "interpolation": 0}]}, "red": {"Points": [{"co": {"X": 1.0, "Y": 0.0}, "handle_right": {"X": 0.5, "Y": 0.0}, "handle_left": {"X": 0.5, "Y": 1.0}, "handle_type": 0, "interpolation": 0}]}}, "channel_mapping": {"Points": [{"co": {"X": 1.0, "Y": -1.0}, "interpolation": 2}]}, "scale_y": {"Points": [{"co": {"X": 1.0, "Y": 1.0}, "interpolation": 2}]}, "crop_x": {"Points": [{"co": {"X": 1.0, "Y": 0.0}, "interpolation": 2}]}, "crop_y": {"Points": [{"co": {"X": 1.0, "Y": 0.0}, "interpolation": 2}]}, "has_video": {"Points": [{"co": {"X": 1.0, "Y": -1.0}, "interpolation": 2}]}, "perspective_c4_x": {"Points": [{"co": {"X": 1.0, "Y": -1.0}, "interpolation": 2}]}, "perspective_c1_x": {"Points": [{"co": {"X": 1.0, "Y": -1.0}, "interpolation": 2}]}, "scale": 1, "perspective_c3_x": {"Points": [{"co": {"X": 1.0, "Y": -1.0}, "interpolation": 2}]}}, {"channel_filter": {"Points": [{"co": {"X": 1.0, "Y": -1.0}, "interpolation": 2}]}, "end": 10, "layer": 4, "perspective_c4_y": {"Points": [{"co": {"X": 1.0, "Y": -1.0}, "interpolation": 2}]}, "start": 0, "volume": {"Points": [{"co": {"X": 1.0, "Y": 1.0}, "interpolation": 2}]}, "reader": {"video_stream_index": -1, "audio_stream_index": -1, "top_field_first": true, "audio_bit_rate": 0, "path": "/home/milind/Data/Projects/CTTdemo/assets/TitleFileName-1.svg", "type": "QtImageReader", "video_length": "2592000", "width": 1920, "audio_timebase": {"num": 1, "den": 1}, "vcodec": "", "duration": 86400.0, "height": 1080, "acodec": "", "video_bit_rate": 0, "has_single_image": true, "pixel_format": -1, "channel_layout": 4, "channels": 0, "has_audio": false, "interlaced_frame": false, "pixel_ratio": {"num": 1, "den": 1}, "sample_rate": 0, "file_size": "8294400", "video_timebase": {"num": 1, "den": 30}, "has_video": true, "display_ratio": {"num": 16, "den": 9}, "fps": {"num": 30, "den": 1}}, "perspective_c2_x": {"Points": [{"co": {"X": 1.0, "Y": -1.0}, "interpolation": 2}]}, "perspective_c1_y": {"Points": [{"co": {"X": 1.0, "Y": -1.0}, "interpolation": 2}]}, "waveform": false, "title": "TitleFileName-1.svg", "anchor": 0, "crop_height": {"Points": [{"co": {"X": 1.0, "Y": -1.0}, "interpolation": 2}]}, "effects": [], "duration": 86400.0, "image": "/home/milind/.openshot_qt/thumbnail/IFD313JPZZ.png", "shear_x": {"Points": [{"co": {"X": 1.0, "Y": 0.0}, "interpolation": 2}]}, "crop_width": {"Points": [{"co": {"X": 1.0, "Y": -1.0}, "interpolation": 2}]}, "scale_x": {"Points": [{"co": {"X": 1.0, "Y": 1.0}, "interpolation": 2}]}, "time": {"Points": [{"co": {"X": 1.0, "Y": 1.0}, "interpolation": 2}]}, "rotation": {"Points": [{"co": {"X": 1.0, "Y": 0.0}, "interpolation": 2}]}, "perspective_c2_y": {"Points": [{"co": {"X": 1.0, "Y": -1.0}, "interpolation": 2}]}, "gravity": 4, "alpha": {"Points": [{"co": {"X": 1.0, "Y": 1.0}, "interpolation": 2}]}, "id": "RPBI9K5XDC", "file_id": "IFD313JPZZ", "has_audio": {"Points": [{"co": {"X": 1.0, "Y": -1.0}, "interpolation": 2}]}, "location_y": {"Points": [{"co": {"X": 1.0, "Y": 0.0}, "interpolation": 2}]}, "shear_y": {"Points": [{"co": {"X": 1.0, "Y": 0.0}, "interpolation": 2}]}, "position": 10, "perspective_c3_y": {"Points": [{"co": {"X": 1.0, "Y": -1.0}, "interpolation": 2}]}, "location_x": {"Points": [{"co": {"X": 1.0, "Y": 0.0}, "interpolation": 2}]}, "display": 0, "wave_color": {"blue": {"Points": [{"co": {"X": 1.0, "Y": 255.0}, "handle_right": {"X": 0.5, "Y": 0.0}, "handle_left": {"X": 0.5, "Y": 1.0}, "handle_type": 0, "interpolation": 0}]}, "alpha": {"Points": [{"co": {"X": 1.0, "Y": 255.0}, "handle_right": {"X": 0.5, "Y": 0.0}, "handle_left": {"X": 0.5, "Y": 1.0}, "handle_type": 0, "interpolation": 0}]}, "green": {"Points": [{"co": {"X": 1.0, "Y": 123.0}, "handle_right": {"X": 0.5, "Y": 0.0}, "handle_left": {"X": 0.5, "Y": 1.0}, "handle_type": 0, "interpolation": 0}]}, "red": {"Points": [{"co": {"X": 1.0, "Y": 0.0}, "handle_right": {"X": 0.5, "Y": 0.0}, "handle_left": {"X": 0.5, "Y": 1.0}, "handle_type": 0, "interpolation": 0}]}}, "channel_mapping": {"Points": [{"co": {"X": 1.0, "Y": -1.0}, "interpolation": 2}]}, "scale_y": {"Points": [{"co": {"X": 1.0, "Y": 1.0}, "interpolation": 2}]}, "crop_x": {"Points": [{"co": {"X": 1.0, "Y": 0.0}, "interpolation": 2}]}, "crop_y": {"Points": [{"co": {"X": 1.0, "Y": 0.0}, "interpolation": 2}]}, "has_video": {"Points": [{"co": {"X": 1.0, "Y": -1.0}, "interpolation": 2}]}, "perspective_c4_x": {"Points": [{"co": {"X": 1.0, "Y": -1.0}, "interpolation": 2}]}, "perspective_c1_x": {"Points": [{"co": {"X": 1.0, "Y": -1.0}, "interpolation": 2}]}, "scale": 1, "perspective_c3_x": {"Points": [{"co": {"X": 1.0, "Y": -1.0}, "interpolation": 2}]}}, {"channel_filter": {"Points": [{"co": {"X": 1.0, "Y": -1.0}, "interpolation": 2}]}, "end": 61.791666666666664, "layer": 4, "perspective_c4_y": {"Points": [{"co": {"X": 1.0, "Y": -1.0}, "interpolation": 2}]}, "start": 0, "volume": {"Points": [{"co": {"X": 1.0, "Y": 1.0}, "interpolation": 2}]}, "reader": {"video_stream_index": 0, "audio_stream_index": -1, "top_field_first": true, "audio_bit_rate": 0, "path": "/home/milind/Data/Projects/CTTdemo/Demo-04-Lecture Entry-Clash remove and Demo TT.mkv", "type": "FFmpegReader", "video_length": "6175", "width": 1366, "audio_timebase": {"num": 1, "den": 1}, "vcodec": "h264", "duration": 247.0, "height": 768, "acodec": "", "video_bit_rate": 0, "has_single_image": false, "pixel_format": 0, "channel_layout": 4, "channels": 0, "has_audio": false, "interlaced_frame": false, "pixel_ratio": {"num": 1, "den": 1}, "sample_rate": 0, "file_size": "2541542", "video_timebase": {"num": 1, "den": 1000}, "has_video": true, "display_ratio": {"num": 683, "den": 384}, "fps": {"num": 25, "den": 1}}, "perspective_c2_x": {"Points": [{"co": {"X": 1.0, "Y": -1.0}, "interpolation": 2}]}, "perspective_c1_y": {"Points": [{"co": {"X": 1.0, "Y": -1.0}, "interpolation": 2}]}, "waveform": false, "title": "Demo-04-Lecture Entry-Clash remove and Demo TT.mkv", "anchor": 0, "crop_height": {"Points": [{"co": {"X": 1.0, "Y": -1.0}, "interpolation": 2}]}, "effects": [], "duration": 60.0, "image": "/home/milind/.openshot_qt/thumbnail/RVOUXSUSEQ.png", "shear_x": {"Points": [{"co": {"X": 1.0, "Y": 0.0}, "interpolation": 2}]}, "crop_width": {"Points": [{"co": {"X": 1.0, "Y": -1.0}, "interpolation": 2}]}, "scale_x": {"Points": [{"co": {"X": 1.0, "Y": 1.0}, "interpolation": 2}]}, "time": {"Points": [{"co": {"X": 1.0, "Y": 1.0}, "interpolation": 1}, {"co": {"X": 1483.0, "Y": 5929.0}, "interpolation": 1}]}, "rotation": {"Points": [{"co": {"X": 1.0, "Y": 0.0}, "interpolation": 2}]}, "perspective_c2_y": {"Points": [{"co": {"X": 1.0, "Y": -1.0}, "interpolation": 2}]}, "gravity": 4, "alpha": {"Points": [{"co": {"X": 1.0, "Y": 1.0}, "interpolation": 2}]}, "id": "5SL6Z206WO", "file_id": "RVOUXSUSEQ", "has_audio": {"Points": [{"co": {"X": 1.0, "Y": -1.0}, "interpolation": 2}]}, "location_y": {"Points": [{"co": {"X": 1.0, "Y": 0.0}, "interpolation": 2}]}, "shear_y": {"Points": [{"co": {"X": 1.0, "Y": 0.0}, "interpolation": 2}]}, "position": 72, "perspective_c3_y": {"Points": [{"co": {"X": 1.0, "Y": -1.0}, "interpolation": 2}]}, "location_x": {"Points": [{"co": {"X": 1.0, "Y": 0.0}, "interpolation": 2}]}, "display": 0, "wave_color": {"blue": {"Points": [{"co": {"X": 1.0, "Y": 255.0}, "handle_right": {"X": 0.5, "Y": 0.0}, "handle_type": 0, "handle_left": {"X": 0.5, "Y": 1.0}, "interpolation": 0}]}, "alpha": {"Points": [{"co": {"X": 1.0, "Y": 255.0}, "handle_right": {"X": 0.5, "Y": 0.0}, "handle_type": 0, "handle_left": {"X": 0.5, "Y": 1.0}, "interpolation": 0}]}, "green": {"Points": [{"co": {"X": 1.0, "Y": 123.0}, "handle_right": {"X": 0.5, "Y": 0.0}, "handle_type": 0, "handle_left": {"X": 0.5, "Y": 1.0}, "interpolation": 0}]}, "red": {"Points": [{"co": {"X": 1.0, "Y": 0.0}, "handle_right": {"X": 0.5, "Y": 0.0}, "handle_type": 0, "handle_left": {"X": 0.5, "Y": 1.0}, "interpolation": 0}]}}, "channel_mapping": {"Points": [{"co": {"X": 1.0, "Y": -1.0}, "interpolation": 2}]}, "scale_y": {"Points": [{"co": {"X": 1.0, "Y": 1.0}, "interpolation": 2}]}, "crop_x": {"Points": [{"co": {"X": 1.0, "Y": 0.0}, "interpolation": 2}]}, "crop_y": {"Points": [{"co": {"X": 1.0, "Y": 0.0}, "interpolation": 2}]}, "has_video": {"Points": [{"co": {"X": 1.0, "Y": -1.0}, "interpolation": 2}]}, "perspective_c4_x": {"Points": [{"co": {"X": 1.0, "Y": -1.0}, "interpolation": 2}]}, "perspective_c1_x": {"Points": [{"co": {"X": 1.0, "Y": -1.0}, "interpolation": 2}]}, "scale": 1, "perspective_c3_x": {"Points": [{"co": {"X": 1.0, "Y": -1.0}, "interpolation": 2}]}}]}, {"value": {"end": 41, "id": "6XKH2CVO13", "image": "/home/milind/.openshot_qt/thumbnail/SJFW0PSRLB.png", "layer": 3, "start": 0, "position": 106.3}, "type": "update", "partial": false, "key": ["clips", {"id": "6XKH2CVO13"}], "old_values": {"title": "Demo-05-Slitt Class or Splitt lectures.mkv", "channel_filter": {"Points": [{"co": {"X": 1.0, "Y": -1.0}, "interpolation": 2}]}, "end": 41.0, "layer": 4, "perspective_c4_y": {"Points": [{"co": {"X": 1.0, "Y": -1.0}, "interpolation": 2}]}, "start": 0.0, "reader": {"video_stream_index": 0, "audio_stream_index": -1, "top_field_first": true, "audio_bit_rate": 0, "path": "/home/milind/Data/Projects/CTTdemo/Demo-05-Slitt Class or Splitt lectures.mkv", "type": "FFmpegReader", "video_length": "1025", "width": 1366, "audio_timebase": {"num": 1, "den": 1}, "vcodec": "h264", "duration": 41.0, "height": 768, "acodec": "", "video_bit_rate": 0, "has_single_image": false, "pixel_format": 0, "channel_layout": 4, "channels": 0, "has_audio": false, "interlaced_frame": false, "pixel_ratio": {"num": 1, "den": 1}, "sample_rate": 0, "file_size": "783366", "video_timebase": {"num": 1, "den": 1000}, "has_video": true, "display_ratio": {"num": 683, "den": 384}, "fps": {"num": 25, "den": 1}}, "perspective_c2_x": {"Points": [{"co": {"X": 1.0, "Y": -1.0}, "interpolation": 2}]}, "perspective_c1_y": {"Points": [{"co": {"X": 1.0, "Y": -1.0}, "interpolation": 2}]}, "waveform": false, "anchor": 0, "volume": {"Points": [{"co": {"X": 1.0, "Y": 1.0}, "interpolation": 2}]}, "effects": [], "duration": 41.0, "image": "/home/milind/.openshot_qt/thumbnail/SJFW0PSRLB.png", "location_y": {"Points": [{"co": {"X": 1.0, "Y": 0.0}, "interpolation": 2}]}, "crop_width": {"Points": [{"co": {"X": 1.0, "Y": -1.0}, "interpolation": 2}]}, "scale_x": {"Points": [{"co": {"X": 1.0, "Y": 1.0}, "interpolation": 2}]}, "time": {"Points": [{"co": {"X": 1.0, "Y": 1.0}, "interpolation": 2}]}, "location_x": {"Points": [{"co": {"X": 1.0, "Y": 0.0}, "interpolation": 2}]}, "perspective_c2_y": {"Points": [{"co": {"X": 1.0, "Y": -1.0}, "interpolation": 2}]}, "gravity": 4, "alpha": {"Points": [{"co": {"X": 1.0, "Y": 1.0}, "interpolation": 2}]}, "id": "6XKH2CVO13", "file_id": "SJFW0PSRLB", "has_audio": {"Points": [{"co": {"X": 1.0, "Y": -1.0}, "interpolation": 2}]}, "shear_x": {"Points": [{"co": {"X": 1.0, "Y": 0.0}, "interpolation": 2}]}, "shear_y": {"Points": [{"co": {"X": 1.0, "Y": 0.0}, "interpolation": 2}]}, "position": 114.9, "perspective_c3_y": {"Points": [{"co": {"X": 1.0, "Y": -1.0}, "interpolation": 2}]}, "rotation": {"Points": [{"co": {"X": 1.0, "Y": 0.0}, "interpolation": 2}]}, "display": 0, "wave_color": {"blue": {"Points": [{"co": {"X": 1.0, "Y": 255.0}, "handle_right": {"X": 0.5, "Y": 0.0}, "handle_left": {"X": 0.5, "Y": 1.0}, "handle_type": 0, "interpolation": 0}]}, "alpha": {"Points": [{"co": {"X": 1.0, "Y": 255.0}, "handle_right": {"X": 0.5, "Y": 0.0}, "handle_left": {"X": 0.5, "Y": 1.0}, "handle_type": 0, "interpolation": 0}]}, "green": {"Points": [{"co": {"X": 1.0, "Y": 123.0}, "handle_right": {"X": 0.5, "Y": 0.0}, "handle_left": {"X": 0.5, "Y": 1.0}, "handle_type": 0, "interpolation": 0}]}, "red": {"Points": [{"co": {"X": 1.0, "Y": 0.0}, "handle_right": {"X": 0.5, "Y": 0.0}, "handle_left": {"X": 0.5, "Y": 1.0}, "handle_type": 0, "interpolation": 0}]}}, "channel_mapping": {"Points": [{"co": {"X": 1.0, "Y": -1.0}, "interpolation": 2}]}, "scale_y": {"Points": [{"co": {"X": 1.0, "Y": 1.0}, "interpolation": 2}]}, "crop_x": {"Points": [{"co": {"X": 1.0, "Y": 0.0}, "interpolation": 2}]}, "crop_y": {"Points": [{"co": {"X": 1.0, "Y": 0.0}, "interpolation": 2}]}, "crop_height": {"Points": [{"co": {"X": 1.0, "Y": -1.0}, "interpolation": 2}]}, "perspective_c4_x": {"Points": [{"co": {"X": 1.0, "Y": -1.0}, "interpolation": 2}]}, "perspective_c1_x": {"Points": [{"co": {"X": 1.0, "Y": -1.0}, "interpolation": 2}]}, "scale": 1, "perspective_c3_x": {"Points": [{"co": {"X": 1.0, "Y": -1.0}, "interpolation": 2}]}, "has_video": {"Points": [{"co": {"X": 1.0, "Y": -1.0}, "interpolation": 2}]}}}, {"value": {"end": 41, "id": "6XKH2CVO13", "image": "/home/milind/.openshot_qt/thumbnail/SJFW0PSRLB.png", "layer": 4, "start": 0, "position": 133.7}, "type": "update", "partial": false, "key": ["clips", {"id": "6XKH2CVO13"}], "old_values": {"channel_filter": {"Points": [{"co": {"X": 1.0, "Y": -1.0}, "interpolation": 2}]}, "end": 41, "layer": 3, "perspective_c4_y": {"Points": [{"co": {"X": 1.0, "Y": -1.0}, "interpolation": 2}]}, "start": 0, "volume": {"Points": [{"co": {"X": 1.0, "Y": 1.0}, "interpolation": 2}]}, "reader": {"video_stream_index": 0, "audio_stream_index": -1, "top_field_first": true, "audio_bit_rate": 0, "path": "/home/milind/Data/Projects/CTTdemo/Demo-05-Slitt Class or Splitt lectures.mkv", "type": "FFmpegReader", "video_length": "1025", "width": 1366, "audio_timebase": {"num": 1, "den": 1}, "vcodec": "h264", "duration": 41.0, "height": 768, "acodec": "", "video_bit_rate": 0, "has_single_image": false, "pixel_format": 0, "channel_layout": 4, "channels": 0, "has_audio": false, "interlaced_frame": false, "pixel_ratio": {"num": 1, "den": 1}, "sample_rate": 0, "file_size": "783366", "video_timebase": {"num": 1, "den": 1000}, "has_video": true, "display_ratio": {"num": 683, "den": 384}, "fps": {"num": 25, "den": 1}}, "perspective_c2_x": {"Points": [{"co": {"X": 1.0, "Y": -1.0}, "interpolation": 2}]}, "perspective_c1_y": {"Points": [{"co": {"X": 1.0, "Y": -1.0}, "interpolation": 2}]}, "waveform": false, "title": "Demo-05-Slitt Class or Splitt lectures.mkv", "anchor": 0, "crop_height": {"Points": [{"co": {"X": 1.0, "Y": -1.0}, "interpolation": 2}]}, "effects": [], "duration": 41.0, "image": "/home/milind/.openshot_qt/thumbnail/SJFW0PSRLB.png", "shear_x": {"Points": [{"co": {"X": 1.0, "Y": 0.0}, "interpolation": 2}]}, "crop_width": {"Points": [{"co": {"X": 1.0, "Y": -1.0}, "interpolation": 2}]}, "scale_x": {"Points": [{"co": {"X": 1.0, "Y": 1.0}, "interpolation": 2}]}, "time": {"Points": [{"co": {"X": 1.0, "Y": 1.0}, "interpolation": 2}]}, "rotation": {"Points": [{"co": {"X": 1.0, "Y": 0.0}, "interpolation": 2}]}, "perspective_c2_y": {"Points": [{"co": {"X": 1.0, "Y": -1.0}, "interpolation": 2}]}, "gravity": 4, "alpha": {"Points": [{"co": {"X": 1.0, "Y": 1.0}, "interpolation": 2}]}, "id": "6XKH2CVO13", "file_id": "SJFW0PSRLB", "has_audio": {"Points": [{"co": {"X": 1.0, "Y": -1.0}, "interpolation": 2}]}, "location_y": {"Points": [{"co": {"X": 1.0, "Y": 0.0}, "interpolation": 2}]}, "shear_y": {"Points": [{"co": {"X": 1.0, "Y": 0.0}, "interpolation": 2}]}, "position": 106.3, "perspective_c3_y": {"Points": [{"co": {"X": 1.0, "Y": -1.0}, "interpolation": 2}]}, "location_x": {"Points": [{"co": {"X": 1.0, "Y": 0.0}, "interpolation": 2}]}, "display": 0, "wave_color": {"blue": {"Points": [{"co": {"X": 1.0, "Y": 255.0}, "handle_right": {"X": 0.5, "Y": 0.0}, "handle_left": {"X": 0.5, "Y": 1.0}, "handle_type": 0, "interpolation": 0}]}, "alpha": {"Points": [{"co": {"X": 1.0, "Y": 255.0}, "handle_right": {"X": 0.5, "Y": 0.0}, "handle_left": {"X": 0.5, "Y": 1.0}, "handle_type": 0, "interpolation": 0}]}, "green": {"Points": [{"co": {"X": 1.0, "Y": 123.0}, "handle_right": {"X": 0.5, "Y": 0.0}, "handle_left": {"X": 0.5, "Y": 1.0}, "handle_type": 0, "interpolation": 0}]}, "red": {"Points": [{"co": {"X": 1.0, "Y": 0.0}, "handle_right": {"X": 0.5, "Y": 0.0}, "handle_left": {"X": 0.5, "Y": 1.0}, "handle_type": 0, "interpolation": 0}]}}, "channel_mapping": {"Points": [{"co": {"X": 1.0, "Y": -1.0}, "interpolation": 2}]}, "scale_y": {"Points": [{"co": {"X": 1.0, "Y": 1.0}, "interpolation": 2}]}, "crop_x": {"Points": [{"co": {"X": 1.0, "Y": 0.0}, "interpolation": 2}]}, "crop_y": {"Points": [{"co": {"X": 1.0, "Y": 0.0}, "interpolation": 2}]}, "has_video": {"Points": [{"co": {"X": 1.0, "Y": -1.0}, "interpolation": 2}]}, "perspective_c4_x": {"Points": [{"co": {"X": 1.0, "Y": -1.0}, "interpolation": 2}]}, "perspective_c1_x": {"Points": [{"co": {"X": 1.0, "Y": -1.0}, "interpolation": 2}]}, "scale": 1, "perspective_c3_x": {"Points": [{"co": {"X": 1.0, "Y": -1.0}, "interpolation": 2}]}}}, {"value": {"channel_filter": {"Points": [{"co": {"X": 1.0, "Y": -1.0}, "interpolation": 2}]}, "end": 36.84166666666667, "layer": 4, "perspective_c4_y": {"Points": [{"co": {"X": 1.0, "Y": -1.0}, "interpolation": 2}]}, "volume": {"Points": [{"co": {"X": 1.0, "Y": 1.0}, "interpolation": 2}]}, "start": 0, "perspective_c2_x": {"Points": [{"co": {"X": 1.0, "Y": -1.0}, "interpolation": 2}]}, "perspective_c1_y": {"Points": [{"co": {"X": 1.0, "Y": -1.0}, "interpolation": 2}]}, "waveform": false, "title": "Demo-05-Slitt Class or Splitt lectures.mkv", "anchor": 0, "crop_height": {"Points": [{"co": {"X": 1.0, "Y": -1.0}, "interpolation": 2}]}, "effects": [], "duration": 41.0, "image": "/home/milind/.openshot_qt/thumbnail/SJFW0PSRLB.png", "shear_x": {"Points": [{"co": {"X": 1.0, "Y": 0.0}, "interpolation": 2}]}, "crop_width": {"Points": [{"co": {"X": 1.0, "Y": -1.0}, "interpolation": 2}]}, "scale_x": {"Points": [{"co": {"X": 1.0, "Y": 1.0}, "interpolation": 2}]}, "time": {"Points": [{"co": {"X": 1.0, "Y": 1.0}, "interpolation": 2}]}, "rotation": {"Points": [{"co": {"X": 1.0, "Y": 0.0}, "interpolation": 2}]}, "perspective_c2_y": {"Points": [{"co": {"X": 1.0, "Y": -1.0}, "interpolation": 2}]}, "gravity": 4, "alpha": {"Points": [{"co": {"X": 1.0, "Y": 1.0}, "interpolation": 2}]}, "id": "6XKH2CVO13", "file_id": "SJFW0PSRLB", "has_audio": {"Points": [{"co": {"X": 1.0, "Y": -1.0}, "interpolation": 2}]}, "location_y": {"Points": [{"co": {"X": 1.0, "Y": 0.0}, "interpolation": 2}]}, "shear_y": {"Points": [{"co": {"X": 1.0, "Y": 0.0}, "interpolation": 2}]}, "position": 133.7, "perspective_c3_y": {"Points": [{"co": {"X": 1.0, "Y": -1.0}, "interpolation": 2}]}, "location_x": {"Points": [{"co": {"X": 1.0, "Y": 0.0}, "interpolation": 2}]}, "display": 0, "wave_color": {"blue": {"Points": [{"co": {"X": 1.0, "Y": 255.0}, "handle_right": {"X": 0.5, "Y": 0.0}, "handle_left": {"X": 0.5, "Y": 1.0}, "handle_type": 0, "interpolation": 0}]}, "alpha": {"Points": [{"co": {"X": 1.0, "Y": 255.0}, "handle_right": {"X": 0.5, "Y": 0.0}, "handle_left": {"X": 0.5, "Y": 1.0}, "handle_type": 0, "interpolation": 0}]}, "green": {"Points": [{"co": {"X": 1.0, "Y": 123.0}, "handle_right": {"X": 0.5, "Y": 0.0}, "handle_left": {"X": 0.5, "Y": 1.0}, "handle_type": 0, "interpolation": 0}]}, "red": {"Points": [{"co": {"X": 1.0, "Y": 0.0}, "handle_right": {"X": 0.5, "Y": 0.0}, "handle_left": {"X": 0.5, "Y": 1.0}, "handle_type": 0, "interpolation": 0}]}}, "channel_mapping": {"Points": [{"co": {"X": 1.0, "Y": -1.0}, "interpolation": 2}]}, "scale_y": {"Points": [{"co": {"X": 1.0, "Y": 1.0}, "interpolation": 2}]}, "crop_x": {"Points": [{"co": {"X": 1.0, "Y": 0.0}, "interpolation": 2}]}, "crop_y": {"Points": [{"co": {"X": 1.0, "Y": 0.0}, "interpolation": 2}]}, "has_video": {"Points": [{"co": {"X": 1.0, "Y": -1.0}, "interpolation": 2}]}, "perspective_c4_x": {"Points": [{"co": {"X": 1.0, "Y": -1.0}, "interpolation": 2}]}, "perspective_c1_x": {"Points": [{"co": {"X": 1.0, "Y": -1.0}, "interpolation": 2}]}, "scale": 1, "perspective_c3_x": {"Points": [{"co": {"X": 1.0, "Y": -1.0}, "interpolation": 2}]}}, "type": "update", "partial": false, "key": ["clips", {"id": "6XKH2CVO13"}], "old_values": {"channel_filter": {"Points": [{"co": {"X": 1.0, "Y": -1.0}, "interpolation": 2}]}, "end": 41, "layer": 4, "perspective_c4_y": {"Points": [{"co": {"X": 1.0, "Y": -1.0}, "interpolation": 2}]}, "start": 0, "volume": {"Points": [{"co": {"X": 1.0, "Y": 1.0}, "interpolation": 2}]}, "reader": {"video_stream_index": 0, "audio_stream_index": -1, "top_field_first": true, "audio_bit_rate": 0, "path": "/home/milind/Data/Projects/CTTdemo/Demo-05-Slitt Class or Splitt lectures.mkv", "type": "FFmpegReader", "video_length": "1025", "width": 1366, "audio_timebase": {"num": 1, "den": 1}, "vcodec": "h264", "duration": 41.0, "height": 768, "acodec": "", "video_bit_rate": 0, "has_single_image": false, "pixel_format": 0, "channel_layout": 4, "channels": 0, "has_audio": false, "interlaced_frame": false, "pixel_ratio": {"num": 1, "den": 1}, "sample_rate": 0, "file_size": "783366", "video_timebase": {"num": 1, "den": 1000}, "has_video": true, "display_ratio": {"num": 683, "den": 384}, "fps": {"num": 25, "den": 1}}, "perspective_c2_x": {"Points": [{"co": {"X": 1.0, "Y": -1.0}, "interpolation": 2}]}, "perspective_c1_y": {"Points": [{"co": {"X": 1.0, "Y": -1.0}, "interpolation": 2}]}, "waveform": false, "title": "Demo-05-Slitt Class or Splitt lectures.mkv", "anchor": 0, "crop_height": {"Points": [{"co": {"X": 1.0, "Y": -1.0}, "interpolation": 2}]}, "effects": [], "duration": 41.0, "image": "/home/milind/.openshot_qt/thumbnail/SJFW0PSRLB.png", "shear_x": {"Points": [{"co": {"X": 1.0, "Y": 0.0}, "interpolation": 2}]}, "crop_width": {"Points": [{"co": {"X": 1.0, "Y": -1.0}, "interpolation": 2}]}, "scale_x": {"Points": [{"co": {"X": 1.0, "Y": 1.0}, "interpolation": 2}]}, "time": {"Points": [{"co": {"X": 1.0, "Y": 1.0}, "interpolation": 2}]}, "rotation": {"Points": [{"co": {"X": 1.0, "Y": 0.0}, "interpolation": 2}]}, "perspective_c2_y": {"Points": [{"co": {"X": 1.0, "Y": -1.0}, "interpolation": 2}]}, "gravity": 4, "alpha": {"Points": [{"co": {"X": 1.0, "Y": 1.0}, "interpolation": 2}]}, "id": "6XKH2CVO13", "file_id": "SJFW0PSRLB", "has_audio": {"Points": [{"co": {"X": 1.0, "Y": -1.0}, "interpolation": 2}]}, "location_y": {"Points": [{"co": {"X": 1.0, "Y": 0.0}, "interpolation": 2}]}, "shear_y": {"Points": [{"co": {"X": 1.0, "Y": 0.0}, "interpolation": 2}]}, "position": 133.7, "perspective_c3_y": {"Points": [{"co": {"X": 1.0, "Y": -1.0}, "interpolation": 2}]}, "location_x": {"Points": [{"co": {"X": 1.0, "Y": 0.0}, "interpolation": 2}]}, "display": 0, "wave_color": {"blue": {"Points": [{"co": {"X": 1.0, "Y": 255.0}, "handle_right": {"X": 0.5, "Y": 0.0}, "handle_left": {"X": 0.5, "Y": 1.0}, "handle_type": 0, "interpolation": 0}]}, "alpha": {"Points": [{"co": {"X": 1.0, "Y": 255.0}, "handle_right": {"X": 0.5, "Y": 0.0}, "handle_left": {"X": 0.5, "Y": 1.0}, "handle_type": 0, "interpolation": 0}]}, "green": {"Points": [{"co": {"X": 1.0, "Y": 123.0}, "handle_right": {"X": 0.5, "Y": 0.0}, "handle_left": {"X": 0.5, "Y": 1.0}, "handle_type": 0, "interpolation": 0}]}, "red": {"Points": [{"co": {"X": 1.0, "Y": 0.0}, "handle_right": {"X": 0.5, "Y": 0.0}, "handle_left": {"X": 0.5, "Y": 1.0}, "handle_type": 0, "interpolation": 0}]}}, "channel_mapping": {"Points": [{"co": {"X": 1.0, "Y": -1.0}, "interpolation": 2}]}, "scale_y": {"Points": [{"co": {"X": 1.0, "Y": 1.0}, "interpolation": 2}]}, "crop_x": {"Points": [{"co": {"X": 1.0, "Y": 0.0}, "interpolation": 2}]}, "crop_y": {"Points": [{"co": {"X": 1.0, "Y": 0.0}, "interpolation": 2}]}, "has_video": {"Points": [{"co": {"X": 1.0, "Y": -1.0}, "interpolation": 2}]}, "perspective_c4_x": {"Points": [{"co": {"X": 1.0, "Y": -1.0}, "interpolation": 2}]}, "perspective_c1_x": {"Points": [{"co": {"X": 1.0, "Y": -1.0}, "interpolation": 2}]}, "scale": 1, "perspective_c3_x": {"Points": [{"co": {"X": 1.0, "Y": -1.0}, "interpolation": 2}]}}}, {"value": {"channel_filter": {"Points": [{"co": {"X": 1.0, "Y": -1.0}, "interpolation": 2}]}, "perspective_c1_y": {"Points": [{"co": {"X": 1.0, "Y": -1.0}, "interpolation": 2}]}, "layer": 4, "perspective_c4_y": {"Points": [{"co": {"X": 1.0, "Y": -1.0}, "interpolation": 2}]}, "reader": {"video_stream_index": 0, "audio_stream_index": -1, "top_field_first": true, "audio_bit_rate": 0, "path": "/home/milind/Data/Projects/CTTdemo/Demo-06-Set School Name.mkv", "type": "FFmpegReader", "video_length": "600", "width": 1366, "audio_timebase": {"num": 1, "den": 1}, "vcodec": "h264", "display_ratio": {"num": 683, "den": 384}, "duration": 24.0, "has_video": true, "acodec": "", "video_bit_rate": 0, "has_single_image": false, "pixel_format": 0, "channel_layout": 4, "channels": 0, "has_audio": false, "interlaced_frame": false, "sample_rate": 0, "file_size": "404652", "video_timebase": {"num": 1, "den": 1000}, "height": 768, "pixel_ratio": {"num": 1, "den": 1}, "fps": {"num": 25, "den": 1}}, "perspective_c2_x": {"Points": [{"co": {"X": 1.0, "Y": -1.0}, "interpolation": 2}]}, "end": 19.083333333333343, "waveform": false, "title": "Demo-06-Set School Name.mkv", "anchor": 0, "location_x": {"Points": [{"co": {"X": 1.0, "Y": 0.0}, "interpolation": 2}]}, "crop_height": {"Points": [{"co": {"X": 1.0, "Y": -1.0}, "interpolation": 2}]}, "effects": [], "duration": 24.0, "crop_y": {"Points": [{"co": {"X": 1.0, "Y": 0.0}, "interpolation": 2}]}, "location_y": {"Points": [{"co": {"X": 1.0, "Y": 0.0}, "interpolation": 2}]}, "crop_width": {"Points": [{"co": {"X": 1.0, "Y": -1.0}, "interpolation": 2}]}, "scale_x": {"Points": [{"co": {"X": 1.0, "Y": 1.0}, "interpolation": 2}]}, "image": "/home/milind/.openshot_qt/thumbnail/O8MDU83AZY.png", "rotation": {"Points": [{"co": {"X": 1.0, "Y": 0.0}, "interpolation": 2}]}, "perspective_c2_y": {"Points": [{"co": {"X": 1.0, "Y": -1.0}, "interpolation": 2}]}, "gravity": 4, "alpha": {"Points": [{"co": {"X": 1.0, "Y": 1.0}, "interpolation": 2}]}, "id": "QQCSZWQUN1", "file_id": "O8MDU83AZY", "has_audio": {"Points": [{"co": {"X": 1.0, "Y": -1.0}, "interpolation": 2}]}, "shear_x": {"Points": [{"co": {"X": 1.0, "Y": 0.0}, "interpolation": 2}]}, "shear_y": {"Points": [{"co": {"X": 1.0, "Y": 0.0}, "interpolation": 2}]}, "crop_x": {"Points": [{"co": {"X": 1.0, "Y": 0.0}, "interpolation": 2}]}, "position": 170.5, "perspective_c3_y": {"Points": [{"co": {"X": 1.0, "Y": -1.0}, "interpolation": 2}]}, "time": {"Points": [{"co": {"X": 1.0, "Y": 1.0}, "interpolation": 2}]}, "display": 0, "wave_color": {"blue": {"Points": [{"co": {"X": 1.0, "Y": 255.0}, "handle_right": {"X": 0.5, "Y": 0.0}, "handle_left": {"X": 0.5, "Y": 1.0}, "handle_type": 0, "interpolation": 0}]}, "alpha": {"Points": [{"co": {"X": 1.0, "Y": 255.0}, "handle_right": {"X": 0.5, "Y": 0.0}, "handle_left": {"X": 0.5, "Y": 1.0}, "handle_type": 0, "interpolation": 0}]}, "green": {"Points": [{"co": {"X": 1.0, "Y": 123.0}, "handle_right": {"X": 0.5, "Y": 0.0}, "handle_left": {"X": 0.5, "Y": 1.0}, "handle_type": 0, "interpolation": 0}]}, "red": {"Points": [{"co": {"X": 1.0, "Y": 0.0}, "handle_right": {"X": 0.5, "Y": 0.0}, "handle_left": {"X": 0.5, "Y": 1.0}, "handle_type": 0, "interpolation": 0}]}}, "channel_mapping": {"Points": [{"co": {"X": 1.0, "Y": -1.0}, "interpolation": 2}]}, "scale_y": {"Points": [{"co": {"X": 1.0, "Y": 1.0}, "interpolation": 2}]}, "scale": 1, "perspective_c1_x": {"Points": [{"co": {"X": 1.0, "Y": -1.0}, "interpolation": 2}]}, "has_video": {"Points": [{"co": {"X": 1.0, "Y": -1.0}, "interpolation": 2}]}, "perspective_c4_x": {"Points": [{"co": {"X": 1.0, "Y": -1.0}, "interpolation": 2}]}, "volume": {"Points": [{"co": {"X": 1.0, "Y": 1.0}, "interpolation": 2}]}, "start": 0, "perspective_c3_x": {"Points": [{"co": {"X": 1.0, "Y": -1.0}, "interpolation": 2}]}}, "type": "insert", "partial": false, "key": ["clips"], "old_values": [{"title": "Demo-02-Adding Time-Class Slots.mkv", "channel_filter": {"Points": [{"co": {"X": 1.0, "Y": -1.0}, "interpolation": 2}]}, "end": 35.875, "layer": 4, "perspective_c4_y": {"Points": [{"co": {"X": 1.0, "Y": -1.0}, "interpolation": 2}]}, "start": 0, "volume": {"Points": [{"co": {"X": 1.0, "Y": 1.0}, "interpolation": 2}]}, "reader": {"video_stream_index": 0, "audio_stream_index": -1, "top_field_first": true, "audio_bit_rate": 0, "path": "/home/milind/Data/Projects/CTTdemo/Demo-02-Adding Time-Class Slots.mkv", "type": "FFmpegReader", "video_length": "1900", "width": 1366, "audio_timebase": {"num": 1, "den": 1}, "vcodec": "h264", "duration": 76.0, "height": 768, "acodec": "", "video_bit_rate": 0, "has_single_image": false, "pixel_format": 0, "channel_layout": 4, "channels": 0, "has_audio": false, "interlaced_frame": false, "pixel_ratio": {"num": 1, "den": 1}, "sample_rate": 0, "file_size": "502317", "video_timebase": {"num": 1, "den": 1000}, "has_video": true, "display_ratio": {"num": 683, "den": 384}, "fps": {"num": 25, "den": 1}}, "perspective_c2_x": {"Points": [{"co": {"X": 1.0, "Y": -1.0}, "interpolation": 2}]}, "perspective_c1_y": {"Points": [{"co": {"X": 1.0, "Y": -1.0}, "interpolation": 2}]}, "waveform": false, "anchor": 0, "crop_height": {"Points": [{"co": {"X": 1.0, "Y": -1.0}, "interpolation": 2}]}, "effects": [], "duration": 38.0, "image": "/home/milind/Data/Projects/.openshot_qt/thumbnail/8AMXXS1INM.png", "shear_x": {"Points": [{"co": {"X": 1.0, "Y": 0.0}, "interpolation": 2}]}, "crop_width": {"Points": [{"co": {"X": 1.0, "Y": -1.0}, "interpolation": 2}]}, "scale_x": {"Points": [{"co": {"X": 1.0, "Y": 1.0}, "interpolation": 2}]}, "time": {"Points": [{"co": {"X": 1.0, "Y": 1.0}, "interpolation": 1}, {"co": {"X": 861.0, "Y": 1721.0}, "interpolation": 1}]}, "rotation": {"Points": [{"co": {"X": 1.0, "Y": 0.0}, "interpolation": 2}]}, "perspective_c2_y": {"Points": [{"co": {"X": 1.0, "Y": -1.0}, "interpolation": 2}]}, "gravity": 4, "alpha": {"Points": [{"co": {"X": 1.0, "Y": 1.0}, "interpolation": 2}]}, "id": "Z4ZIZQBYYY", "file_id": "8AMXXS1INM", "has_audio": {"Points": [{"co": {"X": 1.0, "Y": -1.0}, "interpolation": 2}]}, "location_y": {"Points": [{"co": {"X": 1.0, "Y": 0.0}, "interpolation": 2}]}, "shear_y": {"Points": [{"co": {"X": 1.0, "Y": 0.0}, "interpolation": 2}]}, "position": 20, "perspective_c3_y": {"Points": [{"co": {"X": 1.0, "Y": -1.0}, "interpolation": 2}]}, "location_x": {"Points": [{"co": {"X": 1.0, "Y": 0.0}, "interpolation": 2}]}, "display": 0, "wave_color": {"blue": {"Points": [{"co": {"X": 1.0, "Y": 255.0}, "handle_right": {"X": 0.5, "Y": 0.0}, "handle_left": {"X": 0.5, "Y": 1.0}, "handle_type": 0, "interpolation": 0}]}, "red": {"Points": [{"co": {"X": 1.0, "Y": 0.0}, "handle_right": {"X": 0.5, "Y": 0.0}, "handle_left": {"X": 0.5, "Y": 1.0}, "handle_type": 0, "interpolation": 0}]}, "green": {"Points": [{"co": {"X": 1.0, "Y": 123.0}, "handle_right": {"X": 0.5, "Y": 0.0}, "handle_left": {"X": 0.5, "Y": 1.0}, "handle_type": 0, "interpolation": 0}]}, "alpha": {"Points": [{"co": {"X": 1.0, "Y": 255.0}, "handle_right": {"X": 0.5, "Y": 0.0}, "handle_left": {"X": 0.5, "Y": 1.0}, "handle_type": 0, "interpolation": 0}]}}, "channel_mapping": {"Points": [{"co": {"X": 1.0, "Y": -1.0}, "interpolation": 2}]}, "scale_y": {"Points": [{"co": {"X": 1.0, "Y": 1.0}, "interpolation": 2}]}, "crop_x": {"Points": [{"co": {"X": 1.0, "Y": 0.0}, "interpolation": 2}]}, "crop_y": {"Points": [{"co": {"X": 1.0, "Y": 0.0}, "interpolation": 2}]}, "has_video": {"Points": [{"co": {"X": 1.0, "Y": -1.0}, "interpolation": 2}]}, "perspective_c4_x": {"Points": [{"co": {"X": 1.0, "Y": -1.0}, "interpolation": 2}]}, "perspective_c1_x": {"Points": [{"co": {"X": 1.0, "Y": -1.0}, "interpolation": 2}]}, "scale": 1, "perspective_c3_x": {"Points": [{"co": {"X": 1.0, "Y": -1.0}, "interpolation": 2}]}}, {"channel_filter": {"Points": [{"co": {"X": 1.0, "Y": -1.0}, "interpolation": 2}]}, "end": 16.183333333333337, "layer": 4, "perspective_c4_y": {"Points": [{"co": {"X": 1.0, "Y": -1.0}, "interpolation": 2}]}, "start": 0, "volume": {"Points": [{"co": {"X": 1.0, "Y": 1.0}, "interpolation": 2}]}, "reader": {"video_stream_index": 0, "audio_stream_index": -1, "top_field_first": true, "audio_bit_rate": 0, "path": "/home/milind/Data/Projects/CTTdemo/Demo-03-Renaming copy pasted Time-Slots.mkv", "type": "FFmpegReader", "video_length": "525", "width": 1366, "audio_timebase": {"num": 1, "den": 1}, "vcodec": "h264", "duration": 21.0, "height": 768, "acodec": "", "video_bit_rate": 0, "has_single_image": false, "pixel_format": 0, "channel_layout": 4, "channels": 0, "has_audio": false, "interlaced_frame": false, "pixel_ratio": {"num": 1, "den": 1}, "sample_rate": 0, "file_size": "191199", "video_timebase": {"num": 1, "den": 1000}, "has_video": true, "display_ratio": {"num": 683, "den": 384}, "fps": {"num": 25, "den": 1}}, "perspective_c2_x": {"Points": [{"co": {"X": 1.0, "Y": -1.0}, "interpolation": 2}]}, "perspective_c1_y": {"Points": [{"co": {"X": 1.0, "Y": -1.0}, "interpolation": 2}]}, "waveform": false, "title": "Demo-03-Renaming copy pasted Time-Slots.mkv", "anchor": 0, "crop_height": {"Points": [{"co": {"X": 1.0, "Y": -1.0}, "interpolation": 2}]}, "effects": [], "duration": 21.0, "image": "/home/milind/Data/Projects/.openshot_qt/thumbnail/FUP4DCVZ3U.png", "shear_x": {"Points": [{"co": {"X": 1.0, "Y": 0.0}, "interpolation": 2}]}, "crop_width": {"Points": [{"co": {"X": 1.0, "Y": -1.0}, "interpolation": 2}]}, "scale_x": {"Points": [{"co": {"X": 1.0, "Y": 1.0}, "interpolation": 2}]}, "time": {"Points": [{"co": {"X": 1.0, "Y": 1.0}, "interpolation": 2}]}, "rotation": {"Points": [{"co": {"X": 1.0, "Y": 0.0}, "interpolation": 2}]}, "perspective_c2_y": {"Points": [{"co": {"X": 1.0, "Y": -1.0}, "interpolation": 2}]}, "gravity": 4, "alpha": {"Points": [{"co": {"X": 1.0, "Y": 1.0}, "interpolation": 2}]}, "id": "HUCJUHW5KR", "file_id": "FUP4DCVZ3U", "has_audio": {"Points": [{"co": {"X": 1.0, "Y": -1.0}, "interpolation": 2}]}, "location_y": {"Points": [{"co": {"X": 1.0, "Y": 0.0}, "interpolation": 2}]}, "shear_y": {"Points": [{"co": {"X": 1.0, "Y": 0.0}, "interpolation": 2}]}, "position": 55.8, "perspective_c3_y": {"Points": [{"co": {"X": 1.0, "Y": -1.0}, "interpolation": 2}]}, "location_x": {"Points": [{"co": {"X": 1.0, "Y": 0.0}, "interpolation": 2}]}, "display": 0, "wave_color": {"blue": {"Points": [{"co": {"X": 1.0, "Y": 255.0}, "handle_right": {"X": 0.5, "Y": 0.0}, "handle_left": {"X": 0.5, "Y": 1.0}, "handle_type": 0, "interpolation": 0}]}, "red": {"Points": [{"co": {"X": 1.0, "Y": 0.0}, "handle_right": {"X": 0.5, "Y": 0.0}, "handle_left": {"X": 0.5, "Y": 1.0}, "handle_type": 0, "interpolation": 0}]}, "green": {"Points": [{"co": {"X": 1.0, "Y": 123.0}, "handle_right": {"X": 0.5, "Y": 0.0}, "handle_left": {"X": 0.5, "Y": 1.0}, "handle_type": 0, "interpolation": 0}]}, "alpha": {"Points": [{"co": {"X": 1.0, "Y": 255.0}, "handle_right": {"X": 0.5, "Y": 0.0}, "handle_left": {"X": 0.5, "Y": 1.0}, "handle_type": 0, "interpolation": 0}]}}, "channel_mapping": {"Points": [{"co": {"X": 1.0, "Y": -1.0}, "interpolation": 2}]}, "scale_y": {"Points": [{"co": {"X": 1.0, "Y": 1.0}, "interpolation": 2}]}, "crop_x": {"Points": [{"co": {"X": 1.0, "Y": 0.0}, "interpolation": 2}]}, "crop_y": {"Points": [{"co": {"X": 1.0, "Y": 0.0}, "interpolation": 2}]}, "has_video": {"Points": [{"co": {"X": 1.0, "Y": -1.0}, "interpolation": 2}]}, "perspective_c4_x": {"Points": [{"co": {"X": 1.0, "Y": -1.0}, "interpolation": 2}]}, "perspective_c1_x": {"Points": [{"co": {"X": 1.0, "Y": -1.0}, "interpolation": 2}]}, "scale": 1, "perspective_c3_x": {"Points": [{"co": {"X": 1.0, "Y": -1.0}, "interpolation": 2}]}}, {"channel_filter": {"Points": [{"co": {"X": 1.0, "Y": -1.0}, "interpolation": 2}]}, "end": 10, "layer": 4, "perspective_c4_y": {"Points": [{"co": {"X": 1.0, "Y": -1.0}, "interpolation": 2}]}, "start": 0, "volume": {"Points": [{"co": {"X": 1.0, "Y": 1.0}, "interpolation": 2}]}, "reader": {"video_stream_index": -1, "audio_stream_index": -1, "top_field_first": true, "audio_bit_rate": 0, "path": "/home/milind/Data/Projects/CTTdemo/assets/TitleFileName-1.svg", "type": "QtImageReader", "video_length": "2592000", "width": 1920, "audio_timebase": {"num": 1, "den": 1}, "vcodec": "", "duration": 86400.0, "height": 1080, "acodec": "", "video_bit_rate": 0, "has_single_image": true, "pixel_format": -1, "channel_layout": 4, "channels": 0, "has_audio": false, "interlaced_frame": false, "pixel_ratio": {"num": 1, "den": 1}, "sample_rate": 0, "file_size": "8294400", "video_timebase": {"num": 1, "den": 30}, "has_video": true, "display_ratio": {"num": 16, "den": 9}, "fps": {"num": 30, "den": 1}}, "perspective_c2_x": {"Points": [{"co": {"X": 1.0, "Y": -1.0}, "interpolation": 2}]}, "perspective_c1_y": {"Points": [{"co": {"X": 1.0, "Y": -1.0}, "interpolation": 2}]}, "waveform": false, "title": "TitleFileName-1.svg", "anchor": 0, "crop_height": {"Points": [{"co": {"X": 1.0, "Y": -1.0}, "interpolation": 2}]}, "effects": [], "duration": 86400.0, "image": "/home/milind/.openshot_qt/thumbnail/YMAWWUI3BI.png", "shear_x": {"Points": [{"co": {"X": 1.0, "Y": 0.0}, "interpolation": 2}]}, "crop_width": {"Points": [{"co": {"X": 1.0, "Y": -1.0}, "interpolation": 2}]}, "scale_x": {"Points": [{"co": {"X": 1.0, "Y": 1.0}, "interpolation": 2}]}, "time": {"Points": [{"co": {"X": 1.0, "Y": 1.0}, "interpolation": 2}]}, "rotation": {"Points": [{"co": {"X": 1.0, "Y": 0.0}, "interpolation": 2}]}, "perspective_c2_y": {"Points": [{"co": {"X": 1.0, "Y": -1.0}, "interpolation": 2}]}, "gravity": 4, "alpha": {"Points": [{"co": {"X": 1.0, "Y": 1.0}, "interpolation": 2}]}, "id": "GWTA84Q5L0", "file_id": "YMAWWUI3BI", "has_audio": {"Points": [{"co": {"X": 1.0, "Y": -1.0}, "interpolation": 2}]}, "location_y": {"Points": [{"co": {"X": 1.0, "Y": 0.0}, "interpolation": 2}]}, "shear_y": {"Points": [{"co": {"X": 1.0, "Y": 0.0}, "interpolation": 2}]}, "position": 0, "perspective_c3_y": {"Points": [{"co": {"X": 1.0, "Y": -1.0}, "interpolation": 2}]}, "location_x": {"Points": [{"co": {"X": 1.0, "Y": 0.0}, "interpolation": 2}]}, "display": 0, "wave_color": {"blue": {"Points": [{"co": {"X": 1.0, "Y": 255.0}, "handle_right": {"X": 0.5, "Y": 0.0}, "handle_left": {"X": 0.5, "Y": 1.0}, "handle_type": 0, "interpolation": 0}]}, "alpha": {"Points": [{"co": {"X": 1.0, "Y": 255.0}, "handle_right": {"X": 0.5, "Y": 0.0}, "handle_left": {"X": 0.5, "Y": 1.0}, "handle_type": 0, "interpolation": 0}]}, "green": {"Points": [{"co": {"X": 1.0, "Y": 123.0}, "handle_right": {"X": 0.5, "Y": 0.0}, "handle_left": {"X": 0.5, "Y": 1.0}, "handle_type": 0, "interpolation": 0}]}, "red": {"Points": [{"co": {"X": 1.0, "Y": 0.0}, "handle_right": {"X": 0.5, "Y": 0.0}, "handle_left": {"X": 0.5, "Y": 1.0}, "handle_type": 0, "interpolation": 0}]}}, "channel_mapping": {"Points": [{"co": {"X": 1.0, "Y": -1.0}, "interpolation": 2}]}, "scale_y": {"Points": [{"co": {"X": 1.0, "Y": 1.0}, "interpolation": 2}]}, "crop_x": {"Points": [{"co": {"X": 1.0, "Y": 0.0}, "interpolation": 2}]}, "crop_y": {"Points": [{"co": {"X": 1.0, "Y": 0.0}, "interpolation": 2}]}, "has_video": {"Points": [{"co": {"X": 1.0, "Y": -1.0}, "interpolation": 2}]}, "perspective_c4_x": {"Points": [{"co": {"X": 1.0, "Y": -1.0}, "interpolation": 2}]}, "perspective_c1_x": {"Points": [{"co": {"X": 1.0, "Y": -1.0}, "interpolation": 2}]}, "scale": 1, "perspective_c3_x": {"Points": [{"co": {"X": 1.0, "Y": -1.0}, "interpolation": 2}]}}, {"channel_filter": {"Points": [{"co": {"X": 1.0, "Y": -1.0}, "interpolation": 2}]}, "end": 10, "layer": 4, "perspective_c4_y": {"Points": [{"co": {"X": 1.0, "Y": -1.0}, "interpolation": 2}]}, "start": 0, "volume": {"Points": [{"co": {"X": 1.0, "Y": 1.0}, "interpolation": 2}]}, "reader": {"video_stream_index": -1, "audio_stream_index": -1, "top_field_first": true, "audio_bit_rate": 0, "path": "/home/milind/Data/Projects/CTTdemo/assets/TitleFileName-1.svg", "type": "QtImageReader", "video_length": "2592000", "width": 1920, "audio_timebase": {"num": 1, "den": 1}, "vcodec": "", "duration": 86400.0, "height": 1080, "acodec": "", "video_bit_rate": 0, "has_single_image": true, "pixel_format": -1, "channel_layout": 4, "channels": 0, "has_audio": false, "interlaced_frame": false, "pixel_ratio": {"num": 1, "den": 1}, "sample_rate": 0, "file_size": "8294400", "video_timebase": {"num": 1, "den": 30}, "has_video": true, "display_ratio": {"num": 16, "den": 9}, "fps": {"num": 30, "den": 1}}, "perspective_c2_x": {"Points": [{"co": {"X": 1.0, "Y": -1.0}, "interpolation": 2}]}, "perspective_c1_y": {"Points": [{"co": {"X": 1.0, "Y": -1.0}, "interpolation": 2}]}, "waveform": false, "title": "TitleFileName-1.svg", "anchor": 0, "crop_height": {"Points": [{"co": {"X": 1.0, "Y": -1.0}, "interpolation": 2}]}, "effects": [], "duration": 86400.0, "image": "/home/milind/.openshot_qt/thumbnail/IFD313JPZZ.png", "shear_x": {"Points": [{"co": {"X": 1.0, "Y": 0.0}, "interpolation": 2}]}, "crop_width": {"Points": [{"co": {"X": 1.0, "Y": -1.0}, "interpolation": 2}]}, "scale_x": {"Points": [{"co": {"X": 1.0, "Y": 1.0}, "interpolation": 2}]}, "time": {"Points": [{"co": {"X": 1.0, "Y": 1.0}, "interpolation": 2}]}, "rotation": {"Points": [{"co": {"X": 1.0, "Y": 0.0}, "interpolation": 2}]}, "perspective_c2_y": {"Points": [{"co": {"X": 1.0, "Y": -1.0}, "interpolation": 2}]}, "gravity": 4, "alpha": {"Points": [{"co": {"X": 1.0, "Y": 1.0}, "interpolation": 2}]}, "id": "RPBI9K5XDC", "file_id": "IFD313JPZZ", "has_audio": {"Points": [{"co": {"X": 1.0, "Y": -1.0}, "interpolation": 2}]}, "location_y": {"Points": [{"co": {"X": 1.0, "Y": 0.0}, "interpolation": 2}]}, "shear_y": {"Points": [{"co": {"X": 1.0, "Y": 0.0}, "interpolation": 2}]}, "position": 10, "perspective_c3_y": {"Points": [{"co": {"X": 1.0, "Y": -1.0}, "interpolation": 2}]}, "location_x": {"Points": [{"co": {"X": 1.0, "Y": 0.0}, "interpolation": 2}]}, "display": 0, "wave_color": {"blue": {"Points": [{"co": {"X": 1.0, "Y": 255.0}, "handle_right": {"X": 0.5, "Y": 0.0}, "handle_left": {"X": 0.5, "Y": 1.0}, "handle_type": 0, "interpolation": 0}]}, "alpha": {"Points": [{"co": {"X": 1.0, "Y": 255.0}, "handle_right": {"X": 0.5, "Y": 0.0}, "handle_left": {"X": 0.5, "Y": 1.0}, "handle_type": 0, "interpolation": 0}]}, "green": {"Points": [{"co": {"X": 1.0, "Y": 123.0}, "handle_right": {"X": 0.5, "Y": 0.0}, "handle_left": {"X": 0.5, "Y": 1.0}, "handle_type": 0, "interpolation": 0}]}, "red": {"Points": [{"co": {"X": 1.0, "Y": 0.0}, "handle_right": {"X": 0.5, "Y": 0.0}, "handle_left": {"X": 0.5, "Y": 1.0}, "handle_type": 0, "interpolation": 0}]}}, "channel_mapping": {"Points": [{"co": {"X": 1.0, "Y": -1.0}, "interpolation": 2}]}, "scale_y": {"Points": [{"co": {"X": 1.0, "Y": 1.0}, "interpolation": 2}]}, "crop_x": {"Points": [{"co": {"X": 1.0, "Y": 0.0}, "interpolation": 2}]}, "crop_y": {"Points": [{"co": {"X": 1.0, "Y": 0.0}, "interpolation": 2}]}, "has_video": {"Points": [{"co": {"X": 1.0, "Y": -1.0}, "interpolation": 2}]}, "perspective_c4_x": {"Points": [{"co": {"X": 1.0, "Y": -1.0}, "interpolation": 2}]}, "perspective_c1_x": {"Points": [{"co": {"X": 1.0, "Y": -1.0}, "interpolation": 2}]}, "scale": 1, "perspective_c3_x": {"Points": [{"co": {"X": 1.0, "Y": -1.0}, "interpolation": 2}]}}, {"channel_filter": {"Points": [{"co": {"X": 1.0, "Y": -1.0}, "interpolation": 2}]}, "end": 61.791666666666664, "layer": 4, "perspective_c4_y": {"Points": [{"co": {"X": 1.0, "Y": -1.0}, "interpolation": 2}]}, "start": 0, "volume": {"Points": [{"co": {"X": 1.0, "Y": 1.0}, "interpolation": 2}]}, "reader": {"video_stream_index": 0, "audio_stream_index": -1, "top_field_first": true, "audio_bit_rate": 0, "path": "/home/milind/Data/Projects/CTTdemo/Demo-04-Lecture Entry-Clash remove and Demo TT.mkv", "type": "FFmpegReader", "video_length": "6175", "width": 1366, "audio_timebase": {"num": 1, "den": 1}, "vcodec": "h264", "duration": 247.0, "height": 768, "acodec": "", "video_bit_rate": 0, "has_single_image": false, "pixel_format": 0, "channel_layout": 4, "channels": 0, "has_audio": false, "interlaced_frame": false, "pixel_ratio": {"num": 1, "den": 1}, "sample_rate": 0, "file_size": "2541542", "video_timebase": {"num": 1, "den": 1000}, "has_video": true, "display_ratio": {"num": 683, "den": 384}, "fps": {"num": 25, "den": 1}}, "perspective_c2_x": {"Points": [{"co": {"X": 1.0, "Y": -1.0}, "interpolation": 2}]}, "perspective_c1_y": {"Points": [{"co": {"X": 1.0, "Y": -1.0}, "interpolation": 2}]}, "waveform": false, "title": "Demo-04-Lecture Entry-Clash remove and Demo TT.mkv", "anchor": 0, "crop_height": {"Points": [{"co": {"X": 1.0, "Y": -1.0}, "interpolation": 2}]}, "effects": [], "duration": 60.0, "image": "/home/milind/.openshot_qt/thumbnail/RVOUXSUSEQ.png", "shear_x": {"Points": [{"co": {"X": 1.0, "Y": 0.0}, "interpolation": 2}]}, "crop_width": {"Points": [{"co": {"X": 1.0, "Y": -1.0}, "interpolation": 2}]}, "scale_x": {"Points": [{"co": {"X": 1.0, "Y": 1.0}, "interpolation": 2}]}, "time": {"Points": [{"co": {"X": 1.0, "Y": 1.0}, "interpolation": 1}, {"co": {"X": 1483.0, "Y": 5929.0}, "interpolation": 1}]}, "rotation": {"Points": [{"co": {"X": 1.0, "Y": 0.0}, "interpolation": 2}]}, "perspective_c2_y": {"Points": [{"co": {"X": 1.0, "Y": -1.0}, "interpolation": 2}]}, "gravity": 4, "alpha": {"Points": [{"co": {"X": 1.0, "Y": 1.0}, "interpolation": 2}]}, "id": "5SL6Z206WO", "file_id": "RVOUXSUSEQ", "has_audio": {"Points": [{"co": {"X": 1.0, "Y": -1.0}, "interpolation": 2}]}, "location_y": {"Points": [{"co": {"X": 1.0, "Y": 0.0}, "interpolation": 2}]}, "shear_y": {"Points": [{"co": {"X": 1.0, "Y": 0.0}, "interpolation": 2}]}, "position": 72, "perspective_c3_y": {"Points": [{"co": {"X": 1.0, "Y": -1.0}, "interpolation": 2}]}, "location_x": {"Points": [{"co": {"X": 1.0, "Y": 0.0}, "interpolation": 2}]}, "display": 0, "wave_color": {"blue": {"Points": [{"co": {"X": 1.0, "Y": 255.0}, "handle_right": {"X": 0.5, "Y": 0.0}, "handle_type": 0, "handle_left": {"X": 0.5, "Y": 1.0}, "interpolation": 0}]}, "alpha": {"Points": [{"co": {"X": 1.0, "Y": 255.0}, "handle_right": {"X": 0.5, "Y": 0.0}, "handle_type": 0, "handle_left": {"X": 0.5, "Y": 1.0}, "interpolation": 0}]}, "green": {"Points": [{"co": {"X": 1.0, "Y": 123.0}, "handle_right": {"X": 0.5, "Y": 0.0}, "handle_type": 0, "handle_left": {"X": 0.5, "Y": 1.0}, "interpolation": 0}]}, "red": {"Points": [{"co": {"X": 1.0, "Y": 0.0}, "handle_right": {"X": 0.5, "Y": 0.0}, "handle_type": 0, "handle_left": {"X": 0.5, "Y": 1.0}, "interpolation": 0}]}}, "channel_mapping": {"Points": [{"co": {"X": 1.0, "Y": -1.0}, "interpolation": 2}]}, "scale_y": {"Points": [{"co": {"X": 1.0, "Y": 1.0}, "interpolation": 2}]}, "crop_x": {"Points": [{"co": {"X": 1.0, "Y": 0.0}, "interpolation": 2}]}, "crop_y": {"Points": [{"co": {"X": 1.0, "Y": 0.0}, "interpolation": 2}]}, "has_video": {"Points": [{"co": {"X": 1.0, "Y": -1.0}, "interpolation": 2}]}, "perspective_c4_x": {"Points": [{"co": {"X": 1.0, "Y": -1.0}, "interpolation": 2}]}, "perspective_c1_x": {"Points": [{"co": {"X": 1.0, "Y": -1.0}, "interpolation": 2}]}, "scale": 1, "perspective_c3_x": {"Points": [{"co": {"X": 1.0, "Y": -1.0}, "interpolation": 2}]}}, {"channel_filter": {"Points": [{"co": {"X": 1.0, "Y": -1.0}, "interpolation": 2}]}, "end": 36.84166666666667, "layer": 4, "perspective_c4_y": {"Points": [{"co": {"X": 1.0, "Y": -1.0}, "interpolation": 2}]}, "start": 0, "volume": {"Points": [{"co": {"X": 1.0, "Y": 1.0}, "interpolation": 2}]}, "reader": {"video_stream_index": 0, "audio_stream_index": -1, "top_field_first": true, "audio_bit_rate": 0, "path": "/home/milind/Data/Projects/CTTdemo/Demo-05-Slitt Class or Splitt lectures.mkv", "type": "FFmpegReader", "video_length": "1025", "width": 1366, "audio_timebase": {"num": 1, "den": 1}, "vcodec": "h264", "duration": 41.0, "height": 768, "acodec": "", "video_bit_rate": 0, "has_single_image": false, "pixel_format": 0, "channel_layout": 4, "channels": 0, "has_audio": false, "interlaced_frame": false, "pixel_ratio": {"num": 1, "den": 1}, "sample_rate": 0, "file_size": "783366", "video_timebase": {"num": 1, "den": 1000}, "has_video": true, "display_ratio": {"num": 683, "den": 384}, "fps": {"num": 25, "den": 1}}, "perspective_c2_x": {"Points": [{"co": {"X": 1.0, "Y": -1.0}, "interpolation": 2}]}, "perspective_c1_y": {"Points": [{"co": {"X": 1.0, "Y": -1.0}, "interpolation": 2}]}, "waveform": false, "title": "Demo-05-Slitt Class or Splitt lectures.mkv", "anchor": 0, "crop_height": {"Points": [{"co": {"X": 1.0, "Y": -1.0}, "interpolation": 2}]}, "effects": [], "duration": 41.0, "image": "/home/milind/.openshot_qt/thumbnail/SJFW0PSRLB.png", "shear_x": {"Points": [{"co": {"X": 1.0, "Y": 0.0}, "interpolation": 2}]}, "crop_width": {"Points": [{"co": {"X": 1.0, "Y": -1.0}, "interpolation": 2}]}, "scale_x": {"Points": [{"co": {"X": 1.0, "Y": 1.0}, "interpolation": 2}]}, "time": {"Points": [{"co": {"X": 1.0, "Y": 1.0}, "interpolation": 2}]}, "rotation": {"Points": [{"co": {"X": 1.0, "Y": 0.0}, "interpolation": 2}]}, "perspective_c2_y": {"Points": [{"co": {"X": 1.0, "Y": -1.0}, "interpolation": 2}]}, "gravity": 4, "alpha": {"Points": [{"co": {"X": 1.0, "Y": 1.0}, "interpolation": 2}]}, "id": "6XKH2CVO13", "file_id": "SJFW0PSRLB", "has_audio": {"Points": [{"co": {"X": 1.0, "Y": -1.0}, "interpolation": 2}]}, "location_y": {"Points": [{"co": {"X": 1.0, "Y": 0.0}, "interpolation": 2}]}, "shear_y": {"Points": [{"co": {"X": 1.0, "Y": 0.0}, "interpolation": 2}]}, "position": 133.7, "perspective_c3_y": {"Points": [{"co": {"X": 1.0, "Y": -1.0}, "interpolation": 2}]}, "location_x": {"Points": [{"co": {"X": 1.0, "Y": 0.0}, "interpolation": 2}]}, "display": 0, "wave_color": {"blue": {"Points": [{"co": {"X": 1.0, "Y": 255.0}, "handle_right": {"X": 0.5, "Y": 0.0}, "handle_type": 0, "handle_left": {"X": 0.5, "Y": 1.0}, "interpolation": 0}]}, "alpha": {"Points": [{"co": {"X": 1.0, "Y": 255.0}, "handle_right": {"X": 0.5, "Y": 0.0}, "handle_type": 0, "handle_left": {"X": 0.5, "Y": 1.0}, "interpolation": 0}]}, "green": {"Points": [{"co": {"X": 1.0, "Y": 123.0}, "handle_right": {"X": 0.5, "Y": 0.0}, "handle_type": 0, "handle_left": {"X": 0.5, "Y": 1.0}, "interpolation": 0}]}, "red": {"Points": [{"co": {"X": 1.0, "Y": 0.0}, "handle_right": {"X": 0.5, "Y": 0.0}, "handle_type": 0, "handle_left": {"X": 0.5, "Y": 1.0}, "interpolation": 0}]}}, "channel_mapping": {"Points": [{"co": {"X": 1.0, "Y": -1.0}, "interpolation": 2}]}, "scale_y": {"Points": [{"co": {"X": 1.0, "Y": 1.0}, "interpolation": 2}]}, "crop_x": {"Points": [{"co": {"X": 1.0, "Y": 0.0}, "interpolation": 2}]}, "crop_y": {"Points": [{"co": {"X": 1.0, "Y": 0.0}, "interpolation": 2}]}, "has_video": {"Points": [{"co": {"X": 1.0, "Y": -1.0}, "interpolation": 2}]}, "perspective_c4_x": {"Points": [{"co": {"X": 1.0, "Y": -1.0}, "interpolation": 2}]}, "perspective_c1_x": {"Points": [{"co": {"X": 1.0, "Y": -1.0}, "interpolation": 2}]}, "scale": 1, "perspective_c3_x": {"Points": [{"co": {"X": 1.0, "Y": -1.0}, "interpolation": 2}]}}]}, {"value": {"end": 24, "id": "QQCSZWQUN1", "image": "/home/milind/.openshot_qt/thumbnail/O8MDU83AZY.png", "layer": 4, "start": 0, "position": 173.2}, "type": "update", "partial": false, "key": ["clips", {"id": "QQCSZWQUN1"}], "old_values": {"title": "Demo-06-Set School Name.mkv", "channel_filter": {"Points": [{"co": {"X": 1.0, "Y": -1.0}, "interpolation": 2}]}, "end": 24.0, "layer": 4, "perspective_c4_y": {"Points": [{"co": {"X": 1.0, "Y": -1.0}, "interpolation": 2}]}, "start": 0.0, "reader": {"video_stream_index": 0, "audio_stream_index": -1, "top_field_first": true, "audio_bit_rate": 0, "path": "/home/milind/Data/Projects/CTTdemo/Demo-06-Set School Name.mkv", "type": "FFmpegReader", "video_length": "600", "width": 1366, "audio_timebase": {"num": 1, "den": 1}, "vcodec": "h264", "duration": 24.0, "height": 768, "acodec": "", "video_bit_rate": 0, "has_single_image": false, "pixel_format": 0, "channel_layout": 4, "channels": 0, "has_audio": false, "interlaced_frame": false, "pixel_ratio": {"num": 1, "den": 1}, "sample_rate": 0, "file_size": "404652", "video_timebase": {"num": 1, "den": 1000}, "has_video": true, "display_ratio": {"num": 683, "den": 384}, "fps": {"num": 25, "den": 1}}, "perspective_c2_x": {"Points": [{"co": {"X": 1.0, "Y": -1.0}, "interpolation": 2}]}, "perspective_c1_y": {"Points": [{"co": {"X": 1.0, "Y": -1.0}, "interpolation": 2}]}, "waveform": false, "anchor": 0, "volume": {"Points": [{"co": {"X": 1.0, "Y": 1.0}, "interpolation": 2}]}, "effects": [], "duration": 24.0, "image": "/home/milind/.openshot_qt/thumbnail/O8MDU83AZY.png", "location_y": {"Points": [{"co": {"X": 1.0, "Y": 0.0}, "interpolation": 2}]}, "crop_width": {"Points": [{"co": {"X": 1.0, "Y": -1.0}, "interpolation": 2}]}, "scale_x": {"Points": [{"co": {"X": 1.0, "Y": 1.0}, "interpolation": 2}]}, "time": {"Points": [{"co": {"X": 1.0, "Y": 1.0}, "interpolation": 2}]}, "location_x": {"Points": [{"co": {"X": 1.0, "Y": 0.0}, "interpolation": 2}]}, "perspective_c2_y": {"Points": [{"co": {"X": 1.0, "Y": -1.0}, "interpolation": 2}]}, "gravity": 4, "alpha": {"Points": [{"co": {"X": 1.0, "Y": 1.0}, "interpolation": 2}]}, "id": "QQCSZWQUN1", "file_id": "O8MDU83AZY", "has_audio": {"Points": [{"co": {"X": 1.0, "Y": -1.0}, "interpolation": 2}]}, "shear_x": {"Points": [{"co": {"X": 1.0, "Y": 0.0}, "interpolation": 2}]}, "shear_y": {"Points": [{"co": {"X": 1.0, "Y": 0.0}, "interpolation": 2}]}, "position": 141.7, "perspective_c3_y": {"Points": [{"co": {"X": 1.0, "Y": -1.0}, "interpolation": 2}]}, "rotation": {"Points": [{"co": {"X": 1.0, "Y": 0.0}, "interpolation": 2}]}, "display": 0, "wave_color": {"blue": {"Points": [{"co": {"X": 1.0, "Y": 255.0}, "handle_right": {"X": 0.5, "Y": 0.0}, "handle_left": {"X": 0.5, "Y": 1.0}, "handle_type": 0, "interpolation": 0}]}, "alpha": {"Points": [{"co": {"X": 1.0, "Y": 255.0}, "handle_right": {"X": 0.5, "Y": 0.0}, "handle_left": {"X": 0.5, "Y": 1.0}, "handle_type": 0, "interpolation": 0}]}, "green": {"Points": [{"co": {"X": 1.0, "Y": 123.0}, "handle_right": {"X": 0.5, "Y": 0.0}, "handle_left": {"X": 0.5, "Y": 1.0}, "handle_type": 0, "interpolation": 0}]}, "red": {"Points": [{"co": {"X": 1.0, "Y": 0.0}, "handle_right": {"X": 0.5, "Y": 0.0}, "handle_left": {"X": 0.5, "Y": 1.0}, "handle_type": 0, "interpolation": 0}]}}, "channel_mapping": {"Points": [{"co": {"X": 1.0, "Y": -1.0}, "interpolation": 2}]}, "scale_y": {"Points": [{"co": {"X": 1.0, "Y": 1.0}, "interpolation": 2}]}, "crop_x": {"Points": [{"co": {"X": 1.0, "Y": 0.0}, "interpolation": 2}]}, "crop_y": {"Points": [{"co": {"X": 1.0, "Y": 0.0}, "interpolation": 2}]}, "crop_height": {"Points": [{"co": {"X": 1.0, "Y": -1.0}, "interpolation": 2}]}, "perspective_c4_x": {"Points": [{"co": {"X": 1.0, "Y": -1.0}, "interpolation": 2}]}, "perspective_c1_x": {"Points": [{"co": {"X": 1.0, "Y": -1.0}, "interpolation": 2}]}, "scale": 1, "perspective_c3_x": {"Points": [{"co": {"X": 1.0, "Y": -1.0}, "interpolation": 2}]}, "has_video": {"Points": [{"co": {"X": 1.0, "Y": -1.0}, "interpolation": 2}]}}}, {"value": {"end": 24, "id": "QQCSZWQUN1", "image": "/home/milind/.openshot_qt/thumbnail/O8MDU83AZY.png", "layer": 4, "start": 0, "position": 170.5}, "type": "update", "partial": false, "key": ["clips", {"id": "QQCSZWQUN1"}], "old_values": {"channel_filter": {"Points": [{"co": {"X": 1.0, "Y": -1.0}, "interpolation": 2}]}, "end": 24, "layer": 4, "perspective_c4_y": {"Points": [{"co": {"X": 1.0, "Y": -1.0}, "interpolation": 2}]}, "start": 0, "volume": {"Points": [{"co": {"X": 1.0, "Y": 1.0}, "interpolation": 2}]}, "reader": {"video_stream_index": 0, "audio_stream_index": -1, "top_field_first": true, "audio_bit_rate": 0, "path": "/home/milind/Data/Projects/CTTdemo/Demo-06-Set School Name.mkv", "type": "FFmpegReader", "video_length": "600", "width": 1366, "audio_timebase": {"num": 1, "den": 1}, "vcodec": "h264", "duration": 24.0, "height": 768, "acodec": "", "video_bit_rate": 0, "has_single_image": false, "pixel_format": 0, "channel_layout": 4, "channels": 0, "has_audio": false, "interlaced_frame": false, "pixel_ratio": {"num": 1, "den": 1}, "sample_rate": 0, "file_size": "404652", "video_timebase": {"num": 1, "den": 1000}, "has_video": true, "display_ratio": {"num": 683, "den": 384}, "fps": {"num": 25, "den": 1}}, "perspective_c2_x": {"Points": [{"co": {"X": 1.0, "Y": -1.0}, "interpolation": 2}]}, "perspective_c1_y": {"Points": [{"co": {"X": 1.0, "Y": -1.0}, "interpolation": 2}]}, "waveform": false, "title": "Demo-06-Set School Name.mkv", "anchor": 0, "crop_height": {"Points": [{"co": {"X": 1.0, "Y": -1.0}, "interpolation": 2}]}, "effects": [], "duration": 24.0, "image": "/home/milind/.openshot_qt/thumbnail/O8MDU83AZY.png", "shear_x": {"Points": [{"co": {"X": 1.0, "Y": 0.0}, "interpolation": 2}]}, "crop_width": {"Points": [{"co": {"X": 1.0, "Y": -1.0}, "interpolation": 2}]}, "scale_x": {"Points": [{"co": {"X": 1.0, "Y": 1.0}, "interpolation": 2}]}, "time": {"Points": [{"co": {"X": 1.0, "Y": 1.0}, "interpolation": 2}]}, "rotation": {"Points": [{"co": {"X": 1.0, "Y": 0.0}, "interpolation": 2}]}, "perspective_c2_y": {"Points": [{"co": {"X": 1.0, "Y": -1.0}, "interpolation": 2}]}, "gravity": 4, "alpha": {"Points": [{"co": {"X": 1.0, "Y": 1.0}, "interpolation": 2}]}, "id": "QQCSZWQUN1", "file_id": "O8MDU83AZY", "has_audio": {"Points": [{"co": {"X": 1.0, "Y": -1.0}, "interpolation": 2}]}, "location_y": {"Points": [{"co": {"X": 1.0, "Y": 0.0}, "interpolation": 2}]}, "shear_y": {"Points": [{"co": {"X": 1.0, "Y": 0.0}, "interpolation": 2}]}, "position": 173.2, "perspective_c3_y": {"Points": [{"co": {"X": 1.0, "Y": -1.0}, "interpolation": 2}]}, "location_x": {"Points": [{"co": {"X": 1.0, "Y": 0.0}, "interpolation": 2}]}, "display": 0, "wave_color": {"blue": {"Points": [{"co": {"X": 1.0, "Y": 255.0}, "handle_right": {"X": 0.5, "Y": 0.0}, "handle_left": {"X": 0.5, "Y": 1.0}, "handle_type": 0, "interpolation": 0}]}, "alpha": {"Points": [{"co": {"X": 1.0, "Y": 255.0}, "handle_right": {"X": 0.5, "Y": 0.0}, "handle_left": {"X": 0.5, "Y": 1.0}, "handle_type": 0, "interpolation": 0}]}, "green": {"Points": [{"co": {"X": 1.0, "Y": 123.0}, "handle_right": {"X": 0.5, "Y": 0.0}, "handle_left": {"X": 0.5, "Y": 1.0}, "handle_type": 0, "interpolation": 0}]}, "red": {"Points": [{"co": {"X": 1.0, "Y": 0.0}, "handle_right": {"X": 0.5, "Y": 0.0}, "handle_left": {"X": 0.5, "Y": 1.0}, "handle_type": 0, "interpolation": 0}]}}, "channel_mapping": {"Points": [{"co": {"X": 1.0, "Y": -1.0}, "interpolation": 2}]}, "scale_y": {"Points": [{"co": {"X": 1.0, "Y": 1.0}, "interpolation": 2}]}, "crop_x": {"Points": [{"co": {"X": 1.0, "Y": 0.0}, "interpolation": 2}]}, "crop_y": {"Points": [{"co": {"X": 1.0, "Y": 0.0}, "interpolation": 2}]}, "has_video": {"Points": [{"co": {"X": 1.0, "Y": -1.0}, "interpolation": 2}]}, "perspective_c4_x": {"Points": [{"co": {"X": 1.0, "Y": -1.0}, "interpolation": 2}]}, "perspective_c1_x": {"Points": [{"co": {"X": 1.0, "Y": -1.0}, "interpolation": 2}]}, "scale": 1, "perspective_c3_x": {"Points": [{"co": {"X": 1.0, "Y": -1.0}, "interpolation": 2}]}}}, {"value": {"channel_filter": {"Points": [{"co": {"X": 1.0, "Y": -1.0}, "interpolation": 2}]}, "end": 19.083333333333343, "layer": 4, "perspective_c4_y": {"Points": [{"co": {"X": 1.0, "Y": -1.0}, "interpolation": 2}]}, "volume": {"Points": [{"co": {"X": 1.0, "Y": 1.0}, "interpolation": 2}]}, "start": 0, "perspective_c2_x": {"Points": [{"co": {"X": 1.0, "Y": -1.0}, "interpolation": 2}]}, "perspective_c1_y": {"Points": [{"co": {"X": 1.0, "Y": -1.0}, "interpolation": 2}]}, "waveform": false, "title": "Demo-06-Set School Name.mkv", "anchor": 0, "crop_height": {"Points": [{"co": {"X": 1.0, "Y": -1.0}, "interpolation": 2}]}, "effects": [], "duration": 24.0, "image": "/home/milind/.openshot_qt/thumbnail/O8MDU83AZY.png", "shear_x": {"Points": [{"co": {"X": 1.0, "Y": 0.0}, "interpolation": 2}]}, "crop_width": {"Points": [{"co": {"X": 1.0, "Y": -1.0}, "interpolation": 2}]}, "scale_x": {"Points": [{"co": {"X": 1.0, "Y": 1.0}, "interpolation": 2}]}, "time": {"Points": [{"co": {"X": 1.0, "Y": 1.0}, "interpolation": 2}]}, "rotation": {"Points": [{"co": {"X": 1.0, "Y": 0.0}, "interpolation": 2}]}, "perspective_c2_y": {"Points": [{"co": {"X": 1.0, "Y": -1.0}, "interpolation": 2}]}, "gravity": 4, "alpha": {"Points": [{"co": {"X": 1.0, "Y": 1.0}, "interpolation": 2}]}, "id": "QQCSZWQUN1", "file_id": "O8MDU83AZY", "has_audio": {"Points": [{"co": {"X": 1.0, "Y": -1.0}, "interpolation": 2}]}, "location_y": {"Points": [{"co": {"X": 1.0, "Y": 0.0}, "interpolation": 2}]}, "shear_y": {"Points": [{"co": {"X": 1.0, "Y": 0.0}, "interpolation": 2}]}, "position": 170.5, "perspective_c3_y": {"Points": [{"co": {"X": 1.0, "Y": -1.0}, "interpolation": 2}]}, "location_x": {"Points": [{"co": {"X": 1.0, "Y": 0.0}, "interpolation": 2}]}, "display": 0, "wave_color": {"blue": {"Points": [{"co": {"X": 1.0, "Y": 255.0}, "handle_right": {"X": 0.5, "Y": 0.0}, "handle_left": {"X": 0.5, "Y": 1.0}, "handle_type": 0, "interpolation": 0}]}, "alpha": {"Points": [{"co": {"X": 1.0, "Y": 255.0}, "handle_right": {"X": 0.5, "Y": 0.0}, "handle_left": {"X": 0.5, "Y": 1.0}, "handle_type": 0, "interpolation": 0}]}, "green": {"Points": [{"co": {"X": 1.0, "Y": 123.0}, "handle_right": {"X": 0.5, "Y": 0.0}, "handle_left": {"X": 0.5, "Y": 1.0}, "handle_type": 0, "interpolation": 0}]}, "red": {"Points": [{"co": {"X": 1.0, "Y": 0.0}, "handle_right": {"X": 0.5, "Y": 0.0}, "handle_left": {"X": 0.5, "Y": 1.0}, "handle_type": 0, "interpolation": 0}]}}, "channel_mapping": {"Points": [{"co": {"X": 1.0, "Y": -1.0}, "interpolation": 2}]}, "scale_y": {"Points": [{"co": {"X": 1.0, "Y": 1.0}, "interpolation": 2}]}, "crop_x": {"Points": [{"co": {"X": 1.0, "Y": 0.0}, "interpolation": 2}]}, "crop_y": {"Points": [{"co": {"X": 1.0, "Y": 0.0}, "interpolation": 2}]}, "has_video": {"Points": [{"co": {"X": 1.0, "Y": -1.0}, "interpolation": 2}]}, "perspective_c4_x": {"Points": [{"co": {"X": 1.0, "Y": -1.0}, "interpolation": 2}]}, "perspective_c1_x": {"Points": [{"co": {"X": 1.0, "Y": -1.0}, "interpolation": 2}]}, "scale": 1, "perspective_c3_x": {"Points": [{"co": {"X": 1.0, "Y": -1.0}, "interpolation": 2}]}}, "type": "update", "partial": false, "key": ["clips", {"id": "QQCSZWQUN1"}], "old_values": {"channel_filter": {"Points": [{"co": {"X": 1.0, "Y": -1.0}, "interpolation": 2}]}, "end": 24, "layer": 4, "perspective_c4_y": {"Points": [{"co": {"X": 1.0, "Y": -1.0}, "interpolation": 2}]}, "start": 0, "volume": {"Points": [{"co": {"X": 1.0, "Y": 1.0}, "interpolation": 2}]}, "reader": {"video_stream_index": 0, "audio_stream_index": -1, "top_field_first": true, "audio_bit_rate": 0, "path": "/home/milind/Data/Projects/CTTdemo/Demo-06-Set School Name.mkv", "type": "FFmpegReader", "video_length": "600", "width": 1366, "audio_timebase": {"num": 1, "den": 1}, "vcodec": "h264", "duration": 24.0, "height": 768, "acodec": "", "video_bit_rate": 0, "has_single_image": false, "pixel_format": 0, "channel_layout": 4, "channels": 0, "has_audio": false, "interlaced_frame": false, "pixel_ratio": {"num": 1, "den": 1}, "sample_rate": 0, "file_size": "404652", "video_timebase": {"num": 1, "den": 1000}, "has_video": true, "display_ratio": {"num": 683, "den": 384}, "fps": {"num": 25, "den": 1}}, "perspective_c2_x": {"Points": [{"co": {"X": 1.0, "Y": -1.0}, "interpolation": 2}]}, "perspective_c1_y": {"Points": [{"co": {"X": 1.0, "Y": -1.0}, "interpolation": 2}]}, "waveform": false, "title": "Demo-06-Set School Name.mkv", "anchor": 0, "crop_height": {"Points": [{"co": {"X": 1.0, "Y": -1.0}, "interpolation": 2}]}, "effects": [], "duration": 24.0, "image": "/home/milind/.openshot_qt/thumbnail/O8MDU83AZY.png", "shear_x": {"Points": [{"co": {"X": 1.0, "Y": 0.0}, "interpolation": 2}]}, "crop_width": {"Points": [{"co": {"X": 1.0, "Y": -1.0}, "interpolation": 2}]}, "scale_x": {"Points": [{"co": {"X": 1.0, "Y": 1.0}, "interpolation": 2}]}, "time": {"Points": [{"co": {"X": 1.0, "Y": 1.0}, "interpolation": 2}]}, "rotation": {"Points": [{"co": {"X": 1.0, "Y": 0.0}, "interpolation": 2}]}, "perspective_c2_y": {"Points": [{"co": {"X": 1.0, "Y": -1.0}, "interpolation": 2}]}, "gravity": 4, "alpha": {"Points": [{"co": {"X": 1.0, "Y": 1.0}, "interpolation": 2}]}, "id": "QQCSZWQUN1", "file_id": "O8MDU83AZY", "has_audio": {"Points": [{"co": {"X": 1.0, "Y": -1.0}, "interpolation": 2}]}, "location_y": {"Points": [{"co": {"X": 1.0, "Y": 0.0}, "interpolation": 2}]}, "shear_y": {"Points": [{"co": {"X": 1.0, "Y": 0.0}, "interpolation": 2}]}, "position": 170.5, "perspective_c3_y": {"Points": [{"co": {"X": 1.0, "Y": -1.0}, "interpolation": 2}]}, "location_x": {"Points": [{"co": {"X": 1.0, "Y": 0.0}, "interpolation": 2}]}, "display": 0, "wave_color": {"blue": {"Points": [{"co": {"X": 1.0, "Y": 255.0}, "handle_right": {"X": 0.5, "Y": 0.0}, "handle_left": {"X": 0.5, "Y": 1.0}, "handle_type": 0, "interpolation": 0}]}, "alpha": {"Points": [{"co": {"X": 1.0, "Y": 255.0}, "handle_right": {"X": 0.5, "Y": 0.0}, "handle_left": {"X": 0.5, "Y": 1.0}, "handle_type": 0, "interpolation": 0}]}, "green": {"Points": [{"co": {"X": 1.0, "Y": 123.0}, "handle_right": {"X": 0.5, "Y": 0.0}, "handle_left": {"X": 0.5, "Y": 1.0}, "handle_type": 0, "interpolation": 0}]}, "red": {"Points": [{"co": {"X": 1.0, "Y": 0.0}, "handle_right": {"X": 0.5, "Y": 0.0}, "handle_left": {"X": 0.5, "Y": 1.0}, "handle_type": 0, "interpolation": 0}]}}, "channel_mapping": {"Points": [{"co": {"X": 1.0, "Y": -1.0}, "interpolation": 2}]}, "scale_y": {"Points": [{"co": {"X": 1.0, "Y": 1.0}, "interpolation": 2}]}, "crop_x": {"Points": [{"co": {"X": 1.0, "Y": 0.0}, "interpolation": 2}]}, "crop_y": {"Points": [{"co": {"X": 1.0, "Y": 0.0}, "interpolation": 2}]}, "has_video": {"Points": [{"co": {"X": 1.0, "Y": -1.0}, "interpolation": 2}]}, "perspective_c4_x": {"Points": [{"co": {"X": 1.0, "Y": -1.0}, "interpolation": 2}]}, "perspective_c1_x": {"Points": [{"co": {"X": 1.0, "Y": -1.0}, "interpolation": 2}]}, "scale": 1, "perspective_c3_x": {"Points": [{"co": {"X": 1.0, "Y": -1.0}, "interpolation": 2}]}}}, {"value": {"channel_filter": {"Points": [{"co": {"X": 1.0, "Y": -1.0}, "interpolation": 2}]}, "perspective_c1_y": {"Points": [{"co": {"X": 1.0, "Y": -1.0}, "interpolation": 2}]}, "layer": 4, "perspective_c4_y": {"Points": [{"co": {"X": 1.0, "Y": -1.0}, "interpolation": 2}]}, "reader": {"video_stream_index": 0, "audio_stream_index": -1, "top_field_first": true, "audio_bit_rate": 0, "path": "/home/milind/Data/Projects/CTTdemo/Demo-07-SetPrinter and Print Current.mkv", "type": "FFmpegReader", "video_length": "1650", "width": 1366, "audio_timebase": {"num": 1, "den": 1}, "vcodec": "h264", "display_ratio": {"num": 683, "den": 384}, "duration": 66.0, "has_video": true, "acodec": "", "video_bit_rate": 0, "has_single_image": false, "pixel_format": 0, "channel_layout": 4, "channels": 0, "has_audio": false, "interlaced_frame": false, "sample_rate": 0, "file_size": "1142597", "video_timebase": {"num": 1, "den": 1000}, "height": 768, "pixel_ratio": {"num": 1, "den": 1}, "fps": {"num": 25, "den": 1}}, "perspective_c2_x": {"Points": [{"co": {"X": 1.0, "Y": -1.0}, "interpolation": 2}]}, "end": 28.333333333333343, "waveform": false, "title": "Demo-07-SetPrinter and Print Current.mkv", "anchor": 0, "location_x": {"Points": [{"co": {"X": 1.0, "Y": 0.0}, "interpolation": 2}]}, "crop_height": {"Points": [{"co": {"X": 1.0, "Y": -1.0}, "interpolation": 2}]}, "effects": [], "duration": 32.0, "crop_y": {"Points": [{"co": {"X": 1.0, "Y": 0.0}, "interpolation": 2}]}, "location_y": {"Points": [{"co": {"X": 1.0, "Y": 0.0}, "interpolation": 2}]}, "crop_width": {"Points": [{"co": {"X": 1.0, "Y": -1.0}, "interpolation": 2}]}, "scale_x": {"Points": [{"co": {"X": 1.0, "Y": 1.0}, "interpolation": 2}]}, "image": "/home/milind/.openshot_qt/thumbnail/8BO13HSLCT.png", "rotation": {"Points": [{"co": {"X": 1.0, "Y": 0.0}, "interpolation": 2}]}, "perspective_c2_y": {"Points": [{"co": {"X": 1.0, "Y": -1.0}, "interpolation": 2}]}, "gravity": 4, "alpha": {"Points": [{"co": {"X": 1.0, "Y": 1.0}, "interpolation": 2}]}, "id": "BPQZZB1IGM", "file_id": "8BO13HSLCT", "has_audio": {"Points": [{"co": {"X": 1.0, "Y": -1.0}, "interpolation": 2}]}, "shear_x": {"Points": [{"co": {"X": 1.0, "Y": 0.0}, "interpolation": 2}]}, "shear_y": {"Points": [{"co": {"X": 1.0, "Y": 0.0}, "interpolation": 2}]}, "crop_x": {"Points": [{"co": {"X": 1.0, "Y": 0.0}, "interpolation": 2}]}, "position": 189.5, "perspective_c3_y": {"Points": [{"co": {"X": 1.0, "Y": -1.0}, "interpolation": 2}]}, "time": {"Points": [{"co": {"X": 1.0, "Y": 1.0}, "interpolation": 1}, {"co": {"X": 793.0, "Y": 1585.0}, "interpolation": 1}]}, "display": 0, "wave_color": {"blue": {"Points": [{"co": {"X": 1.0, "Y": 255.0}, "handle_right": {"X": 0.5, "Y": 0.0}, "handle_type": 0, "handle_left": {"X": 0.5, "Y": 1.0}, "interpolation": 0}]}, "alpha": {"Points": [{"co": {"X": 1.0, "Y": 255.0}, "handle_right": {"X": 0.5, "Y": 0.0}, "handle_type": 0, "handle_left": {"X": 0.5, "Y": 1.0}, "interpolation": 0}]}, "green": {"Points": [{"co": {"X": 1.0, "Y": 123.0}, "handle_right": {"X": 0.5, "Y": 0.0}, "handle_type": 0, "handle_left": {"X": 0.5, "Y": 1.0}, "interpolation": 0}]}, "red": {"Points": [{"co": {"X": 1.0, "Y": 0.0}, "handle_right": {"X": 0.5, "Y": 0.0}, "handle_type": 0, "handle_left": {"X": 0.5, "Y": 1.0}, "interpolation": 0}]}}, "channel_mapping": {"Points": [{"co": {"X": 1.0, "Y": -1.0}, "interpolation": 2}]}, "scale_y": {"Points": [{"co": {"X": 1.0, "Y": 1.0}, "interpolation": 2}]}, "scale": 1, "perspective_c1_x": {"Points": [{"co": {"X": 1.0, "Y": -1.0}, "interpolation": 2}]}, "has_video": {"Points": [{"co": {"X": 1.0, "Y": -1.0}, "interpolation": 2}]}, "perspective_c4_x": {"Points": [{"co": {"X": 1.0, "Y": -1.0}, "interpolation": 2}]}, "volume": {"Points": [{"co": {"X": 1.0, "Y": 1.0}, "interpolation": 2}]}, "start": 0, "perspective_c3_x": {"Points": [{"co": {"X": 1.0, "Y": -1.0}, "interpolation": 2}]}}, "type": "insert", "partial": false, "key": ["clips"], "old_values": [{"title": "Demo-02-Adding Time-Class Slots.mkv", "channel_filter": {"Points": [{"co": {"X": 1.0, "Y": -1.0}, "interpolation": 2}]}, "end": 35.875, "layer": 4, "perspective_c4_y": {"Points": [{"co": {"X": 1.0, "Y": -1.0}, "interpolation": 2}]}, "start": 0, "volume": {"Points": [{"co": {"X": 1.0, "Y": 1.0}, "interpolation": 2}]}, "reader": {"video_stream_index": 0, "audio_stream_index": -1, "top_field_first": true, "audio_bit_rate": 0, "path": "/home/milind/Data/Projects/CTTdemo/Demo-02-Adding Time-Class Slots.mkv", "type": "FFmpegReader", "video_length": "1900", "width": 1366, "audio_timebase": {"num": 1, "den": 1}, "vcodec": "h264", "duration": 76.0, "height": 768, "acodec": "", "video_bit_rate": 0, "has_single_image": false, "pixel_format": 0, "channel_layout": 4, "channels": 0, "has_audio": false, "interlaced_frame": false, "pixel_ratio": {"num": 1, "den": 1}, "sample_rate": 0, "file_size": "502317", "video_timebase": {"num": 1, "den": 1000}, "has_video": true, "display_ratio": {"num": 683, "den": 384}, "fps": {"num": 25, "den": 1}}, "perspective_c2_x": {"Points": [{"co": {"X": 1.0, "Y": -1.0}, "interpolation": 2}]}, "perspective_c1_y": {"Points": [{"co": {"X": 1.0, "Y": -1.0}, "interpolation": 2}]}, "waveform": false, "anchor": 0, "crop_height": {"Points": [{"co": {"X": 1.0, "Y": -1.0}, "interpolation": 2}]}, "effects": [], "duration": 38.0, "image": "/home/milind/Data/Projects/.openshot_qt/thumbnail/8AMXXS1INM.png", "shear_x": {"Points": [{"co": {"X": 1.0, "Y": 0.0}, "interpolation": 2}]}, "crop_width": {"Points": [{"co": {"X": 1.0, "Y": -1.0}, "interpolation": 2}]}, "scale_x": {"Points": [{"co": {"X": 1.0, "Y": 1.0}, "interpolation": 2}]}, "time": {"Points": [{"co": {"X": 1.0, "Y": 1.0}, "interpolation": 1}, {"co": {"X": 861.0, "Y": 1721.0}, "interpolation": 1}]}, "rotation": {"Points": [{"co": {"X": 1.0, "Y": 0.0}, "interpolation": 2}]}, "perspective_c2_y": {"Points": [{"co": {"X": 1.0, "Y": -1.0}, "interpolation": 2}]}, "gravity": 4, "alpha": {"Points": [{"co": {"X": 1.0, "Y": 1.0}, "interpolation": 2}]}, "id": "Z4ZIZQBYYY", "file_id": "8AMXXS1INM", "has_audio": {"Points": [{"co": {"X": 1.0, "Y": -1.0}, "interpolation": 2}]}, "location_y": {"Points": [{"co": {"X": 1.0, "Y": 0.0}, "interpolation": 2}]}, "shear_y": {"Points": [{"co": {"X": 1.0, "Y": 0.0}, "interpolation": 2}]}, "position": 20, "perspective_c3_y": {"Points": [{"co": {"X": 1.0, "Y": -1.0}, "interpolation": 2}]}, "location_x": {"Points": [{"co": {"X": 1.0, "Y": 0.0}, "interpolation": 2}]}, "display": 0, "wave_color": {"blue": {"Points": [{"co": {"X": 1.0, "Y": 255.0}, "handle_right": {"X": 0.5, "Y": 0.0}, "handle_left": {"X": 0.5, "Y": 1.0}, "handle_type": 0, "interpolation": 0}]}, "red": {"Points": [{"co": {"X": 1.0, "Y": 0.0}, "handle_right": {"X": 0.5, "Y": 0.0}, "handle_left": {"X": 0.5, "Y": 1.0}, "handle_type": 0, "interpolation": 0}]}, "green": {"Points": [{"co": {"X": 1.0, "Y": 123.0}, "handle_right": {"X": 0.5, "Y": 0.0}, "handle_left": {"X": 0.5, "Y": 1.0}, "handle_type": 0, "interpolation": 0}]}, "alpha": {"Points": [{"co": {"X": 1.0, "Y": 255.0}, "handle_right": {"X": 0.5, "Y": 0.0}, "handle_left": {"X": 0.5, "Y": 1.0}, "handle_type": 0, "interpolation": 0}]}}, "channel_mapping": {"Points": [{"co": {"X": 1.0, "Y": -1.0}, "interpolation": 2}]}, "scale_y": {"Points": [{"co": {"X": 1.0, "Y": 1.0}, "interpolation": 2}]}, "crop_x": {"Points": [{"co": {"X": 1.0, "Y": 0.0}, "interpolation": 2}]}, "crop_y": {"Points": [{"co": {"X": 1.0, "Y": 0.0}, "interpolation": 2}]}, "has_video": {"Points": [{"co": {"X": 1.0, "Y": -1.0}, "interpolation": 2}]}, "perspective_c4_x": {"Points": [{"co": {"X": 1.0, "Y": -1.0}, "interpolation": 2}]}, "perspective_c1_x": {"Points": [{"co": {"X": 1.0, "Y": -1.0}, "interpolation": 2}]}, "scale": 1, "perspective_c3_x": {"Points": [{"co": {"X": 1.0, "Y": -1.0}, "interpolation": 2}]}}, {"channel_filter": {"Points": [{"co": {"X": 1.0, "Y": -1.0}, "interpolation": 2}]}, "end": 16.183333333333337, "layer": 4, "perspective_c4_y": {"Points": [{"co": {"X": 1.0, "Y": -1.0}, "interpolation": 2}]}, "start": 0, "volume": {"Points": [{"co": {"X": 1.0, "Y": 1.0}, "interpolation": 2}]}, "reader": {"video_stream_index": 0, "audio_stream_index": -1, "top_field_first": true, "audio_bit_rate": 0, "path": "/home/milind/Data/Projects/CTTdemo/Demo-03-Renaming copy pasted Time-Slots.mkv", "type": "FFmpegReader", "video_length": "525", "width": 1366, "audio_timebase": {"num": 1, "den": 1}, "vcodec": "h264", "duration": 21.0, "height": 768, "acodec": "", "video_bit_rate": 0, "has_single_image": false, "pixel_format": 0, "channel_layout": 4, "channels": 0, "has_audio": false, "interlaced_frame": false, "pixel_ratio": {"num": 1, "den": 1}, "sample_rate": 0, "file_size": "191199", "video_timebase": {"num": 1, "den": 1000}, "has_video": true, "display_ratio": {"num": 683, "den": 384}, "fps": {"num": 25, "den": 1}}, "perspective_c2_x": {"Points": [{"co": {"X": 1.0, "Y": -1.0}, "interpolation": 2}]}, "perspective_c1_y": {"Points": [{"co": {"X": 1.0, "Y": -1.0}, "interpolation": 2}]}, "waveform": false, "title": "Demo-03-Renaming copy pasted Time-Slots.mkv", "anchor": 0, "crop_height": {"Points": [{"co": {"X": 1.0, "Y": -1.0}, "interpolation": 2}]}, "effects": [], "duration": 21.0, "image": "/home/milind/Data/Projects/.openshot_qt/thumbnail/FUP4DCVZ3U.png", "shear_x": {"Points": [{"co": {"X": 1.0, "Y": 0.0}, "interpolation": 2}]}, "crop_width": {"Points": [{"co": {"X": 1.0, "Y": -1.0}, "interpolation": 2}]}, "scale_x": {"Points": [{"co": {"X": 1.0, "Y": 1.0}, "interpolation": 2}]}, "time": {"Points": [{"co": {"X": 1.0, "Y": 1.0}, "interpolation": 2}]}, "rotation": {"Points": [{"co": {"X": 1.0, "Y": 0.0}, "interpolation": 2}]}, "perspective_c2_y": {"Points": [{"co": {"X": 1.0, "Y": -1.0}, "interpolation": 2}]}, "gravity": 4, "alpha": {"Points": [{"co": {"X": 1.0, "Y": 1.0}, "interpolation": 2}]}, "id": "HUCJUHW5KR", "file_id": "FUP4DCVZ3U", "has_audio": {"Points": [{"co": {"X": 1.0, "Y": -1.0}, "interpolation": 2}]}, "location_y": {"Points": [{"co": {"X": 1.0, "Y": 0.0}, "interpolation": 2}]}, "shear_y": {"Points": [{"co": {"X": 1.0, "Y": 0.0}, "interpolation": 2}]}, "position": 55.8, "perspective_c3_y": {"Points": [{"co": {"X": 1.0, "Y": -1.0}, "interpolation": 2}]}, "location_x": {"Points": [{"co": {"X": 1.0, "Y": 0.0}, "interpolation": 2}]}, "display": 0, "wave_color": {"blue": {"Points": [{"co": {"X": 1.0, "Y": 255.0}, "handle_right": {"X": 0.5, "Y": 0.0}, "handle_left": {"X": 0.5, "Y": 1.0}, "handle_type": 0, "interpolation": 0}]}, "red": {"Points": [{"co": {"X": 1.0, "Y": 0.0}, "handle_right": {"X": 0.5, "Y": 0.0}, "handle_left": {"X": 0.5, "Y": 1.0}, "handle_type": 0, "interpolation": 0}]}, "green": {"Points": [{"co": {"X": 1.0, "Y": 123.0}, "handle_right": {"X": 0.5, "Y": 0.0}, "handle_left": {"X": 0.5, "Y": 1.0}, "handle_type": 0, "interpolation": 0}]}, "alpha": {"Points": [{"co": {"X": 1.0, "Y": 255.0}, "handle_right": {"X": 0.5, "Y": 0.0}, "handle_left": {"X": 0.5, "Y": 1.0}, "handle_type": 0, "interpolation": 0}]}}, "channel_mapping": {"Points": [{"co": {"X": 1.0, "Y": -1.0}, "interpolation": 2}]}, "scale_y": {"Points": [{"co": {"X": 1.0, "Y": 1.0}, "interpolation": 2}]}, "crop_x": {"Points": [{"co": {"X": 1.0, "Y": 0.0}, "interpolation": 2}]}, "crop_y": {"Points": [{"co": {"X": 1.0, "Y": 0.0}, "interpolation": 2}]}, "has_video": {"Points": [{"co": {"X": 1.0, "Y": -1.0}, "interpolation": 2}]}, "perspective_c4_x": {"Points": [{"co": {"X": 1.0, "Y": -1.0}, "interpolation": 2}]}, "perspective_c1_x": {"Points": [{"co": {"X": 1.0, "Y": -1.0}, "interpolation": 2}]}, "scale": 1, "perspective_c3_x": {"Points": [{"co": {"X": 1.0, "Y": -1.0}, "interpolation": 2}]}}, {"channel_filter": {"Points": [{"co": {"X": 1.0, "Y": -1.0}, "interpolation": 2}]}, "end": 10, "layer": 4, "perspective_c4_y": {"Points": [{"co": {"X": 1.0, "Y": -1.0}, "interpolation": 2}]}, "start": 0, "volume": {"Points": [{"co": {"X": 1.0, "Y": 1.0}, "interpolation": 2}]}, "reader": {"video_stream_index": -1, "audio_stream_index": -1, "top_field_first": true, "audio_bit_rate": 0, "path": "/home/milind/Data/Projects/CTTdemo/assets/TitleFileName-1.svg", "type": "QtImageReader", "video_length": "2592000", "width": 1920, "audio_timebase": {"num": 1, "den": 1}, "vcodec": "", "duration": 86400.0, "height": 1080, "acodec": "", "video_bit_rate": 0, "has_single_image": true, "pixel_format": -1, "channel_layout": 4, "channels": 0, "has_audio": false, "interlaced_frame": false, "pixel_ratio": {"num": 1, "den": 1}, "sample_rate": 0, "file_size": "8294400", "video_timebase": {"num": 1, "den": 30}, "has_video": true, "display_ratio": {"num": 16, "den": 9}, "fps": {"num": 30, "den": 1}}, "perspective_c2_x": {"Points": [{"co": {"X": 1.0, "Y": -1.0}, "interpolation": 2}]}, "perspective_c1_y": {"Points": [{"co": {"X": 1.0, "Y": -1.0}, "interpolation": 2}]}, "waveform": false, "title": "TitleFileName-1.svg", "anchor": 0, "crop_height": {"Points": [{"co": {"X": 1.0, "Y": -1.0}, "interpolation": 2}]}, "effects": [], "duration": 86400.0, "image": "/home/milind/.openshot_qt/thumbnail/YMAWWUI3BI.png", "shear_x": {"Points": [{"co": {"X": 1.0, "Y": 0.0}, "interpolation": 2}]}, "crop_width": {"Points": [{"co": {"X": 1.0, "Y": -1.0}, "interpolation": 2}]}, "scale_x": {"Points": [{"co": {"X": 1.0, "Y": 1.0}, "interpolation": 2}]}, "time": {"Points": [{"co": {"X": 1.0, "Y": 1.0}, "interpolation": 2}]}, "rotation": {"Points": [{"co": {"X": 1.0, "Y": 0.0}, "interpolation": 2}]}, "perspective_c2_y": {"Points": [{"co": {"X": 1.0, "Y": -1.0}, "interpolation": 2}]}, "gravity": 4, "alpha": {"Points": [{"co": {"X": 1.0, "Y": 1.0}, "interpolation": 2}]}, "id": "GWTA84Q5L0", "file_id": "YMAWWUI3BI", "has_audio": {"Points": [{"co": {"X": 1.0, "Y": -1.0}, "interpolation": 2}]}, "location_y": {"Points": [{"co": {"X": 1.0, "Y": 0.0}, "interpolation": 2}]}, "shear_y": {"Points": [{"co": {"X": 1.0, "Y": 0.0}, "interpolation": 2}]}, "position": 0, "perspective_c3_y": {"Points": [{"co": {"X": 1.0, "Y": -1.0}, "interpolation": 2}]}, "location_x": {"Points": [{"co": {"X": 1.0, "Y": 0.0}, "interpolation": 2}]}, "display": 0, "wave_color": {"blue": {"Points": [{"co": {"X": 1.0, "Y": 255.0}, "handle_right": {"X": 0.5, "Y": 0.0}, "handle_left": {"X": 0.5, "Y": 1.0}, "handle_type": 0, "interpolation": 0}]}, "alpha": {"Points": [{"co": {"X": 1.0, "Y": 255.0}, "handle_right": {"X": 0.5, "Y": 0.0}, "handle_left": {"X": 0.5, "Y": 1.0}, "handle_type": 0, "interpolation": 0}]}, "green": {"Points": [{"co": {"X": 1.0, "Y": 123.0}, "handle_right": {"X": 0.5, "Y": 0.0}, "handle_left": {"X": 0.5, "Y": 1.0}, "handle_type": 0, "interpolation": 0}]}, "red": {"Points": [{"co": {"X": 1.0, "Y": 0.0}, "handle_right": {"X": 0.5, "Y": 0.0}, "handle_left": {"X": 0.5, "Y": 1.0}, "handle_type": 0, "interpolation": 0}]}}, "channel_mapping": {"Points": [{"co": {"X": 1.0, "Y": -1.0}, "interpolation": 2}]}, "scale_y": {"Points": [{"co": {"X": 1.0, "Y": 1.0}, "interpolation": 2}]}, "crop_x": {"Points": [{"co": {"X": 1.0, "Y": 0.0}, "interpolation": 2}]}, "crop_y": {"Points": [{"co": {"X": 1.0, "Y": 0.0}, "interpolation": 2}]}, "has_video": {"Points": [{"co": {"X": 1.0, "Y": -1.0}, "interpolation": 2}]}, "perspective_c4_x": {"Points": [{"co": {"X": 1.0, "Y": -1.0}, "interpolation": 2}]}, "perspective_c1_x": {"Points": [{"co": {"X": 1.0, "Y": -1.0}, "interpolation": 2}]}, "scale": 1, "perspective_c3_x": {"Points": [{"co": {"X": 1.0, "Y": -1.0}, "interpolation": 2}]}}, {"channel_filter": {"Points": [{"co": {"X": 1.0, "Y": -1.0}, "interpolation": 2}]}, "end": 10, "layer": 4, "perspective_c4_y": {"Points": [{"co": {"X": 1.0, "Y": -1.0}, "interpolation": 2}]}, "start": 0, "volume": {"Points": [{"co": {"X": 1.0, "Y": 1.0}, "interpolation": 2}]}, "reader": {"video_stream_index": -1, "audio_stream_index": -1, "top_field_first": true, "audio_bit_rate": 0, "path": "/home/milind/Data/Projects/CTTdemo/assets/TitleFileName-1.svg", "type": "QtImageReader", "video_length": "2592000", "width": 1920, "audio_timebase": {"num": 1, "den": 1}, "vcodec": "", "duration": 86400.0, "height": 1080, "acodec": "", "video_bit_rate": 0, "has_single_image": true, "pixel_format": -1, "channel_layout": 4, "channels": 0, "has_audio": false, "interlaced_frame": false, "pixel_ratio": {"num": 1, "den": 1}, "sample_rate": 0, "file_size": "8294400", "video_timebase": {"num": 1, "den": 30}, "has_video": true, "display_ratio": {"num": 16, "den": 9}, "fps": {"num": 30, "den": 1}}, "perspective_c2_x": {"Points": [{"co": {"X": 1.0, "Y": -1.0}, "interpolation": 2}]}, "perspective_c1_y": {"Points": [{"co": {"X": 1.0, "Y": -1.0}, "interpolation": 2}]}, "waveform": false, "title": "TitleFileName-1.svg", "anchor": 0, "crop_height": {"Points": [{"co": {"X": 1.0, "Y": -1.0}, "interpolation": 2}]}, "effects": [], "duration": 86400.0, "image": "/home/milind/.openshot_qt/thumbnail/IFD313JPZZ.png", "shear_x": {"Points": [{"co": {"X": 1.0, "Y": 0.0}, "interpolation": 2}]}, "crop_width": {"Points": [{"co": {"X": 1.0, "Y": -1.0}, "interpolation": 2}]}, "scale_x": {"Points": [{"co": {"X": 1.0, "Y": 1.0}, "interpolation": 2}]}, "time": {"Points": [{"co": {"X": 1.0, "Y": 1.0}, "interpolation": 2}]}, "rotation": {"Points": [{"co": {"X": 1.0, "Y": 0.0}, "interpolation": 2}]}, "perspective_c2_y": {"Points": [{"co": {"X": 1.0, "Y": -1.0}, "interpolation": 2}]}, "gravity": 4, "alpha": {"Points": [{"co": {"X": 1.0, "Y": 1.0}, "interpolation": 2}]}, "id": "RPBI9K5XDC", "file_id": "IFD313JPZZ", "has_audio": {"Points": [{"co": {"X": 1.0, "Y": -1.0}, "interpolation": 2}]}, "location_y": {"Points": [{"co": {"X": 1.0, "Y": 0.0}, "interpolation": 2}]}, "shear_y": {"Points": [{"co": {"X": 1.0, "Y": 0.0}, "interpolation": 2}]}, "position": 10, "perspective_c3_y": {"Points": [{"co": {"X": 1.0, "Y": -1.0}, "interpolation": 2}]}, "location_x": {"Points": [{"co": {"X": 1.0, "Y": 0.0}, "interpolation": 2}]}, "display": 0, "wave_color": {"blue": {"Points": [{"co": {"X": 1.0, "Y": 255.0}, "handle_right": {"X": 0.5, "Y": 0.0}, "handle_left": {"X": 0.5, "Y": 1.0}, "handle_type": 0, "interpolation": 0}]}, "alpha": {"Points": [{"co": {"X": 1.0, "Y": 255.0}, "handle_right": {"X": 0.5, "Y": 0.0}, "handle_left": {"X": 0.5, "Y": 1.0}, "handle_type": 0, "interpolation": 0}]}, "green": {"Points": [{"co": {"X": 1.0, "Y": 123.0}, "handle_right": {"X": 0.5, "Y": 0.0}, "handle_left": {"X": 0.5, "Y": 1.0}, "handle_type": 0, "interpolation": 0}]}, "red": {"Points": [{"co": {"X": 1.0, "Y": 0.0}, "handle_right": {"X": 0.5, "Y": 0.0}, "handle_left": {"X": 0.5, "Y": 1.0}, "handle_type": 0, "interpolation": 0}]}}, "channel_mapping": {"Points": [{"co": {"X": 1.0, "Y": -1.0}, "interpolation": 2}]}, "scale_y": {"Points": [{"co": {"X": 1.0, "Y": 1.0}, "interpolation": 2}]}, "crop_x": {"Points": [{"co": {"X": 1.0, "Y": 0.0}, "interpolation": 2}]}, "crop_y": {"Points": [{"co": {"X": 1.0, "Y": 0.0}, "interpolation": 2}]}, "has_video": {"Points": [{"co": {"X": 1.0, "Y": -1.0}, "interpolation": 2}]}, "perspective_c4_x": {"Points": [{"co": {"X": 1.0, "Y": -1.0}, "interpolation": 2}]}, "perspective_c1_x": {"Points": [{"co": {"X": 1.0, "Y": -1.0}, "interpolation": 2}]}, "scale": 1, "perspective_c3_x": {"Points": [{"co": {"X": 1.0, "Y": -1.0}, "interpolation": 2}]}}, {"channel_filter": {"Points": [{"co": {"X": 1.0, "Y": -1.0}, "interpolation": 2}]}, "end": 61.791666666666664, "layer": 4, "perspective_c4_y": {"Points": [{"co": {"X": 1.0, "Y": -1.0}, "interpolation": 2}]}, "start": 0, "volume": {"Points": [{"co": {"X": 1.0, "Y": 1.0}, "interpolation": 2}]}, "reader": {"video_stream_index": 0, "audio_stream_index": -1, "top_field_first": true, "audio_bit_rate": 0, "path": "/home/milind/Data/Projects/CTTdemo/Demo-04-Lecture Entry-Clash remove and Demo TT.mkv", "type": "FFmpegReader", "video_length": "6175", "width": 1366, "audio_timebase": {"num": 1, "den": 1}, "vcodec": "h264", "duration": 247.0, "height": 768, "acodec": "", "video_bit_rate": 0, "has_single_image": false, "pixel_format": 0, "channel_layout": 4, "channels": 0, "has_audio": false, "interlaced_frame": false, "pixel_ratio": {"num": 1, "den": 1}, "sample_rate": 0, "file_size": "2541542", "video_timebase": {"num": 1, "den": 1000}, "has_video": true, "display_ratio": {"num": 683, "den": 384}, "fps": {"num": 25, "den": 1}}, "perspective_c2_x": {"Points": [{"co": {"X": 1.0, "Y": -1.0}, "interpolation": 2}]}, "perspective_c1_y": {"Points": [{"co": {"X": 1.0, "Y": -1.0}, "interpolation": 2}]}, "waveform": false, "title": "Demo-04-Lecture Entry-Clash remove and Demo TT.mkv", "anchor": 0, "crop_height": {"Points": [{"co": {"X": 1.0, "Y": -1.0}, "interpolation": 2}]}, "effects": [], "duration": 60.0, "image": "/home/milind/.openshot_qt/thumbnail/RVOUXSUSEQ.png", "shear_x": {"Points": [{"co": {"X": 1.0, "Y": 0.0}, "interpolation": 2}]}, "crop_width": {"Points": [{"co": {"X": 1.0, "Y": -1.0}, "interpolation": 2}]}, "scale_x": {"Points": [{"co": {"X": 1.0, "Y": 1.0}, "interpolation": 2}]}, "time": {"Points": [{"co": {"X": 1.0, "Y": 1.0}, "interpolation": 1}, {"co": {"X": 1483.0, "Y": 5929.0}, "interpolation": 1}]}, "rotation": {"Points": [{"co": {"X": 1.0, "Y": 0.0}, "interpolation": 2}]}, "perspective_c2_y": {"Points": [{"co": {"X": 1.0, "Y": -1.0}, "interpolation": 2}]}, "gravity": 4, "alpha": {"Points": [{"co": {"X": 1.0, "Y": 1.0}, "interpolation": 2}]}, "id": "5SL6Z206WO", "file_id": "RVOUXSUSEQ", "has_audio": {"Points": [{"co": {"X": 1.0, "Y": -1.0}, "interpolation": 2}]}, "location_y": {"Points": [{"co": {"X": 1.0, "Y": 0.0}, "interpolation": 2}]}, "shear_y": {"Points": [{"co": {"X": 1.0, "Y": 0.0}, "interpolation": 2}]}, "position": 72, "perspective_c3_y": {"Points": [{"co": {"X": 1.0, "Y": -1.0}, "interpolation": 2}]}, "location_x": {"Points": [{"co": {"X": 1.0, "Y": 0.0}, "interpolation": 2}]}, "display": 0, "wave_color": {"blue": {"Points": [{"co": {"X": 1.0, "Y": 255.0}, "handle_right": {"X": 0.5, "Y": 0.0}, "handle_type": 0, "handle_left": {"X": 0.5, "Y": 1.0}, "interpolation": 0}]}, "alpha": {"Points": [{"co": {"X": 1.0, "Y": 255.0}, "handle_right": {"X": 0.5, "Y": 0.0}, "handle_type": 0, "handle_left": {"X": 0.5, "Y": 1.0}, "interpolation": 0}]}, "green": {"Points": [{"co": {"X": 1.0, "Y": 123.0}, "handle_right": {"X": 0.5, "Y": 0.0}, "handle_type": 0, "handle_left": {"X": 0.5, "Y": 1.0}, "interpolation": 0}]}, "red": {"Points": [{"co": {"X": 1.0, "Y": 0.0}, "handle_right": {"X": 0.5, "Y": 0.0}, "handle_type": 0, "handle_left": {"X": 0.5, "Y": 1.0}, "interpolation": 0}]}}, "channel_mapping": {"Points": [{"co": {"X": 1.0, "Y": -1.0}, "interpolation": 2}]}, "scale_y": {"Points": [{"co": {"X": 1.0, "Y": 1.0}, "interpolation": 2}]}, "crop_x": {"Points": [{"co": {"X": 1.0, "Y": 0.0}, "interpolation": 2}]}, "crop_y": {"Points": [{"co": {"X": 1.0, "Y": 0.0}, "interpolation": 2}]}, "has_video": {"Points": [{"co": {"X": 1.0, "Y": -1.0}, "interpolation": 2}]}, "perspective_c4_x": {"Points": [{"co": {"X": 1.0, "Y": -1.0}, "interpolation": 2}]}, "perspective_c1_x": {"Points": [{"co": {"X": 1.0, "Y": -1.0}, "interpolation": 2}]}, "scale": 1, "perspective_c3_x": {"Points": [{"co": {"X": 1.0, "Y": -1.0}, "interpolation": 2}]}}, {"channel_filter": {"Points": [{"co": {"X": 1.0, "Y": -1.0}, "interpolation": 2}]}, "end": 36.84166666666667, "layer": 4, "perspective_c4_y": {"Points": [{"co": {"X": 1.0, "Y": -1.0}, "interpolation": 2}]}, "start": 0, "volume": {"Points": [{"co": {"X": 1.0, "Y": 1.0}, "interpolation": 2}]}, "reader": {"video_stream_index": 0, "audio_stream_index": -1, "top_field_first": true, "audio_bit_rate": 0, "path": "/home/milind/Data/Projects/CTTdemo/Demo-05-Slitt Class or Splitt lectures.mkv", "type": "FFmpegReader", "video_length": "1025", "width": 1366, "audio_timebase": {"num": 1, "den": 1}, "vcodec": "h264", "duration": 41.0, "height": 768, "acodec": "", "video_bit_rate": 0, "has_single_image": false, "pixel_format": 0, "channel_layout": 4, "channels": 0, "has_audio": false, "interlaced_frame": false, "pixel_ratio": {"num": 1, "den": 1}, "sample_rate": 0, "file_size": "783366", "video_timebase": {"num": 1, "den": 1000}, "has_video": true, "display_ratio": {"num": 683, "den": 384}, "fps": {"num": 25, "den": 1}}, "perspective_c2_x": {"Points": [{"co": {"X": 1.0, "Y": -1.0}, "interpolation": 2}]}, "perspective_c1_y": {"Points": [{"co": {"X": 1.0, "Y": -1.0}, "interpolation": 2}]}, "waveform": false, "title": "Demo-05-Slitt Class or Splitt lectures.mkv", "anchor": 0, "crop_height": {"Points": [{"co": {"X": 1.0, "Y": -1.0}, "interpolation": 2}]}, "effects": [], "duration": 41.0, "image": "/home/milind/.openshot_qt/thumbnail/SJFW0PSRLB.png", "shear_x": {"Points": [{"co": {"X": 1.0, "Y": 0.0}, "interpolation": 2}]}, "crop_width": {"Points": [{"co": {"X": 1.0, "Y": -1.0}, "interpolation": 2}]}, "scale_x": {"Points": [{"co": {"X": 1.0, "Y": 1.0}, "interpolation": 2}]}, "time": {"Points": [{"co": {"X": 1.0, "Y": 1.0}, "interpolation": 2}]}, "rotation": {"Points": [{"co": {"X": 1.0, "Y": 0.0}, "interpolation": 2}]}, "perspective_c2_y": {"Points": [{"co": {"X": 1.0, "Y": -1.0}, "interpolation": 2}]}, "gravity": 4, "alpha": {"Points": [{"co": {"X": 1.0, "Y": 1.0}, "interpolation": 2}]}, "id": "6XKH2CVO13", "file_id": "SJFW0PSRLB", "has_audio": {"Points": [{"co": {"X": 1.0, "Y": -1.0}, "interpolation": 2}]}, "location_y": {"Points": [{"co": {"X": 1.0, "Y": 0.0}, "interpolation": 2}]}, "shear_y": {"Points": [{"co": {"X": 1.0, "Y": 0.0}, "interpolation": 2}]}, "position": 133.7, "perspective_c3_y": {"Points": [{"co": {"X": 1.0, "Y": -1.0}, "interpolation": 2}]}, "location_x": {"Points": [{"co": {"X": 1.0, "Y": 0.0}, "interpolation": 2}]}, "display": 0, "wave_color": {"blue": {"Points": [{"co": {"X": 1.0, "Y": 255.0}, "handle_right": {"X": 0.5, "Y": 0.0}, "handle_type": 0, "handle_left": {"X": 0.5, "Y": 1.0}, "interpolation": 0}]}, "alpha": {"Points": [{"co": {"X": 1.0, "Y": 255.0}, "handle_right": {"X": 0.5, "Y": 0.0}, "handle_type": 0, "handle_left": {"X": 0.5, "Y": 1.0}, "interpolation": 0}]}, "green": {"Points": [{"co": {"X": 1.0, "Y": 123.0}, "handle_right": {"X": 0.5, "Y": 0.0}, "handle_type": 0, "handle_left": {"X": 0.5, "Y": 1.0}, "interpolation": 0}]}, "red": {"Points": [{"co": {"X": 1.0, "Y": 0.0}, "handle_right": {"X": 0.5, "Y": 0.0}, "handle_type": 0, "handle_left": {"X": 0.5, "Y": 1.0}, "interpolation": 0}]}}, "channel_mapping": {"Points": [{"co": {"X": 1.0, "Y": -1.0}, "interpolation": 2}]}, "scale_y": {"Points": [{"co": {"X": 1.0, "Y": 1.0}, "interpolation": 2}]}, "crop_x": {"Points": [{"co": {"X": 1.0, "Y": 0.0}, "interpolation": 2}]}, "crop_y": {"Points": [{"co": {"X": 1.0, "Y": 0.0}, "interpolation": 2}]}, "has_video": {"Points": [{"co": {"X": 1.0, "Y": -1.0}, "interpolation": 2}]}, "perspective_c4_x": {"Points": [{"co": {"X": 1.0, "Y": -1.0}, "interpolation": 2}]}, "perspective_c1_x": {"Points": [{"co": {"X": 1.0, "Y": -1.0}, "interpolation": 2}]}, "scale": 1, "perspective_c3_x": {"Points": [{"co": {"X": 1.0, "Y": -1.0}, "interpolation": 2}]}}, {"channel_filter": {"Points": [{"co": {"X": 1.0, "Y": -1.0}, "interpolation": 2}]}, "end": 19.083333333333343, "layer": 4, "perspective_c4_y": {"Points": [{"co": {"X": 1.0, "Y": -1.0}, "interpolation": 2}]}, "start": 0, "volume": {"Points": [{"co": {"X": 1.0, "Y": 1.0}, "interpolation": 2}]}, "reader": {"video_stream_index": 0, "audio_stream_index": -1, "top_field_first": true, "audio_bit_rate": 0, "path": "/home/milind/Data/Projects/CTTdemo/Demo-06-Set School Name.mkv", "type": "FFmpegReader", "video_length": "600", "width": 1366, "audio_timebase": {"num": 1, "den": 1}, "vcodec": "h264", "duration": 24.0, "height": 768, "acodec": "", "video_bit_rate": 0, "has_single_image": false, "pixel_format": 0, "channel_layout": 4, "channels": 0, "has_audio": false, "interlaced_frame": false, "pixel_ratio": {"num": 1, "den": 1}, "sample_rate": 0, "file_size": "404652", "video_timebase": {"num": 1, "den": 1000}, "has_video": true, "display_ratio": {"num": 683, "den": 384}, "fps": {"num": 25, "den": 1}}, "perspective_c2_x": {"Points": [{"co": {"X": 1.0, "Y": -1.0}, "interpolation": 2}]}, "perspective_c1_y": {"Points": [{"co": {"X": 1.0, "Y": -1.0}, "interpolation": 2}]}, "waveform": false, "title": "Demo-06-Set School Name.mkv", "anchor": 0, "crop_height": {"Points": [{"co": {"X": 1.0, "Y": -1.0}, "interpolation": 2}]}, "effects": [], "duration": 24.0, "image": "/home/milind/.openshot_qt/thumbnail/O8MDU83AZY.png", "shear_x": {"Points": [{"co": {"X": 1.0, "Y": 0.0}, "interpolation": 2}]}, "crop_width": {"Points": [{"co": {"X": 1.0, "Y": -1.0}, "interpolation": 2}]}, "scale_x": {"Points": [{"co": {"X": 1.0, "Y": 1.0}, "interpolation": 2}]}, "time": {"Points": [{"co": {"X": 1.0, "Y": 1.0}, "interpolation": 2}]}, "rotation": {"Points": [{"co": {"X": 1.0, "Y": 0.0}, "interpolation": 2}]}, "perspective_c2_y": {"Points": [{"co": {"X": 1.0, "Y": -1.0}, "interpolation": 2}]}, "gravity": 4, "alpha": {"Points": [{"co": {"X": 1.0, "Y": 1.0}, "interpolation": 2}]}, "id": "QQCSZWQUN1", "file_id": "O8MDU83AZY", "has_audio": {"Points": [{"co": {"X": 1.0, "Y": -1.0}, "interpolation": 2}]}, "location_y": {"Points": [{"co": {"X": 1.0, "Y": 0.0}, "interpolation": 2}]}, "shear_y": {"Points": [{"co": {"X": 1.0, "Y": 0.0}, "interpolation": 2}]}, "position": 170.5, "perspective_c3_y": {"Points": [{"co": {"X": 1.0, "Y": -1.0}, "interpolation": 2}]}, "location_x": {"Points": [{"co": {"X": 1.0, "Y": 0.0}, "interpolation": 2}]}, "display": 0, "wave_color": {"blue": {"Points": [{"co": {"X": 1.0, "Y": 255.0}, "handle_right": {"X": 0.5, "Y": 0.0}, "handle_type": 0, "handle_left": {"X": 0.5, "Y": 1.0}, "interpolation": 0}]}, "alpha": {"Points": [{"co": {"X": 1.0, "Y": 255.0}, "handle_right": {"X": 0.5, "Y": 0.0}, "handle_type": 0, "handle_left": {"X": 0.5, "Y": 1.0}, "interpolation": 0}]}, "green": {"Points": [{"co": {"X": 1.0, "Y": 123.0}, "handle_right": {"X": 0.5, "Y": 0.0}, "handle_type": 0, "handle_left": {"X": 0.5, "Y": 1.0}, "interpolation": 0}]}, "red": {"Points": [{"co": {"X": 1.0, "Y": 0.0}, "handle_right": {"X": 0.5, "Y": 0.0}, "handle_type": 0, "handle_left": {"X": 0.5, "Y": 1.0}, "interpolation": 0}]}}, "channel_mapping": {"Points": [{"co": {"X": 1.0, "Y": -1.0}, "interpolation": 2}]}, "scale_y": {"Points": [{"co": {"X": 1.0, "Y": 1.0}, "interpolation": 2}]}, "crop_x": {"Points": [{"co": {"X": 1.0, "Y": 0.0}, "interpolation": 2}]}, "crop_y": {"Points": [{"co": {"X": 1.0, "Y": 0.0}, "interpolation": 2}]}, "has_video": {"Points": [{"co": {"X": 1.0, "Y": -1.0}, "interpolation": 2}]}, "perspective_c4_x": {"Points": [{"co": {"X": 1.0, "Y": -1.0}, "interpolation": 2}]}, "perspective_c1_x": {"Points": [{"co": {"X": 1.0, "Y": -1.0}, "interpolation": 2}]}, "scale": 1, "perspective_c3_x": {"Points": [{"co": {"X": 1.0, "Y": -1.0}, "interpolation": 2}]}}]}, {"value": {"end": 66, "id": "BPQZZB1IGM", "image": "/home/milind/.openshot_qt/thumbnail/8BO13HSLCT.png", "layer": 4, "start": 0, "position": 191.8}, "type": "update", "partial": false, "key": ["clips", {"id": "BPQZZB1IGM"}], "old_values": {"title": "Demo-07-SetPrinter and Print Current.mkv", "channel_filter": {"Points": [{"co": {"X": 1.0, "Y": -1.0}, "interpolation": 2}]}, "end": 66.0, "layer": 4, "perspective_c4_y": {"Points": [{"co": {"X": 1.0, "Y": -1.0}, "interpolation": 2}]}, "start": 0.0, "reader": {"video_stream_index": 0, "audio_stream_index": -1, "top_field_first": true, "audio_bit_rate": 0, "path": "/home/milind/Data/Projects/CTTdemo/Demo-07-SetPrinter and Print Current.mkv", "type": "FFmpegReader", "video_length": "1650", "width": 1366, "audio_timebase": {"num": 1, "den": 1}, "vcodec": "h264", "duration": 66.0, "height": 768, "acodec": "", "video_bit_rate": 0, "has_single_image": false, "pixel_format": 0, "channel_layout": 4, "channels": 0, "has_audio": false, "interlaced_frame": false, "pixel_ratio": {"num": 1, "den": 1}, "sample_rate": 0, "file_size": "1142597", "video_timebase": {"num": 1, "den": 1000}, "has_video": true, "display_ratio": {"num": 683, "den": 384}, "fps": {"num": 25, "den": 1}}, "perspective_c2_x": {"Points": [{"co": {"X": 1.0, "Y": -1.0}, "interpolation": 2}]}, "perspective_c1_y": {"Points": [{"co": {"X": 1.0, "Y": -1.0}, "interpolation": 2}]}, "waveform": false, "anchor": 0, "volume": {"Points": [{"co": {"X": 1.0, "Y": 1.0}, "interpolation": 2}]}, "effects": [], "duration": 66.0, "image": "/home/milind/.openshot_qt/thumbnail/8BO13HSLCT.png", "location_y": {"Points": [{"co": {"X": 1.0, "Y": 0.0}, "interpolation": 2}]}, "crop_width": {"Points": [{"co": {"X": 1.0, "Y": -1.0}, "interpolation": 2}]}, "scale_x": {"Points": [{"co": {"X": 1.0, "Y": 1.0}, "interpolation": 2}]}, "time": {"Points": [{"co": {"X": 1.0, "Y": 1.0}, "interpolation": 2}]}, "location_x": {"Points": [{"co": {"X": 1.0, "Y": 0.0}, "interpolation": 2}]}, "perspective_c2_y": {"Points": [{"co": {"X": 1.0, "Y": -1.0}, "interpolation": 2}]}, "gravity": 4, "alpha": {"Points": [{"co": {"X": 1.0, "Y": 1.0}, "interpolation": 2}]}, "id": "BPQZZB1IGM", "file_id": "8BO13HSLCT", "has_audio": {"Points": [{"co": {"X": 1.0, "Y": -1.0}, "interpolation": 2}]}, "shear_x": {"Points": [{"co": {"X": 1.0, "Y": 0.0}, "interpolation": 2}]}, "shear_y": {"Points": [{"co": {"X": 1.0, "Y": 0.0}, "interpolation": 2}]}, "position": 167.6, "perspective_c3_y": {"Points": [{"co": {"X": 1.0, "Y": -1.0}, "interpolation": 2}]}, "rotation": {"Points": [{"co": {"X": 1.0, "Y": 0.0}, "interpolation": 2}]}, "display": 0, "wave_color": {"blue": {"Points": [{"co": {"X": 1.0, "Y": 255.0}, "handle_right": {"X": 0.5, "Y": 0.0}, "handle_left": {"X": 0.5, "Y": 1.0}, "handle_type": 0, "interpolation": 0}]}, "alpha": {"Points": [{"co": {"X": 1.0, "Y": 255.0}, "handle_right": {"X": 0.5, "Y": 0.0}, "handle_left": {"X": 0.5, "Y": 1.0}, "handle_type": 0, "interpolation": 0}]}, "green": {"Points": [{"co": {"X": 1.0, "Y": 123.0}, "handle_right": {"X": 0.5, "Y": 0.0}, "handle_left": {"X": 0.5, "Y": 1.0}, "handle_type": 0, "interpolation": 0}]}, "red": {"Points": [{"co": {"X": 1.0, "Y": 0.0}, "handle_right": {"X": 0.5, "Y": 0.0}, "handle_left": {"X": 0.5, "Y": 1.0}, "handle_type": 0, "interpolation": 0}]}}, "channel_mapping": {"Points": [{"co": {"X": 1.0, "Y": -1.0}, "interpolation": 2}]}, "scale_y": {"Points": [{"co": {"X": 1.0, "Y": 1.0}, "interpolation": 2}]}, "crop_x": {"Points": [{"co": {"X": 1.0, "Y": 0.0}, "interpolation": 2}]}, "crop_y": {"Points": [{"co": {"X": 1.0, "Y": 0.0}, "interpolation": 2}]}, "crop_height": {"Points": [{"co": {"X": 1.0, "Y": -1.0}, "interpolation": 2}]}, "perspective_c4_x": {"Points": [{"co": {"X": 1.0, "Y": -1.0}, "interpolation": 2}]}, "perspective_c1_x": {"Points": [{"co": {"X": 1.0, "Y": -1.0}, "interpolation": 2}]}, "scale": 1, "perspective_c3_x": {"Points": [{"co": {"X": 1.0, "Y": -1.0}, "interpolation": 2}]}, "has_video": {"Points": [{"co": {"X": 1.0, "Y": -1.0}, "interpolation": 2}]}}}, {"value": {"end": 66, "id": "BPQZZB1IGM", "image": "/home/milind/.openshot_qt/thumbnail/8BO13HSLCT.png", "layer": 4, "start": 0, "position": 189.5}, "type": "update", "partial": false, "key": ["clips", {"id": "BPQZZB1IGM"}], "old_values": {"channel_filter": {"Points": [{"co": {"X": 1.0, "Y": -1.0}, "interpolation": 2}]}, "end": 66, "layer": 4, "perspective_c4_y": {"Points": [{"co": {"X": 1.0, "Y": -1.0}, "interpolation": 2}]}, "start": 0, "volume": {"Points": [{"co": {"X": 1.0, "Y": 1.0}, "interpolation": 2}]}, "reader": {"video_stream_index": 0, "audio_stream_index": -1, "top_field_first": true, "audio_bit_rate": 0, "path": "/home/milind/Data/Projects/CTTdemo/Demo-07-SetPrinter and Print Current.mkv", "type": "FFmpegReader", "video_length": "1650", "width": 1366, "audio_timebase": {"num": 1, "den": 1}, "vcodec": "h264", "duration": 66.0, "height": 768, "acodec": "", "video_bit_rate": 0, "has_single_image": false, "pixel_format": 0, "channel_layout": 4, "channels": 0, "has_audio": false, "interlaced_frame": false, "pixel_ratio": {"num": 1, "den": 1}, "sample_rate": 0, "file_size": "1142597", "video_timebase": {"num": 1, "den": 1000}, "has_video": true, "display_ratio": {"num": 683, "den": 384}, "fps": {"num": 25, "den": 1}}, "perspective_c2_x": {"Points": [{"co": {"X": 1.0, "Y": -1.0}, "interpolation": 2}]}, "perspective_c1_y": {"Points": [{"co": {"X": 1.0, "Y": -1.0}, "interpolation": 2}]}, "waveform": false, "title": "Demo-07-SetPrinter and Print Current.mkv", "anchor": 0, "crop_height": {"Points": [{"co": {"X": 1.0, "Y": -1.0}, "interpolation": 2}]}, "effects": [], "duration": 66.0, "image": "/home/milind/.openshot_qt/thumbnail/8BO13HSLCT.png", "shear_x": {"Points": [{"co": {"X": 1.0, "Y": 0.0}, "interpolation": 2}]}, "crop_width": {"Points": [{"co": {"X": 1.0, "Y": -1.0}, "interpolation": 2}]}, "scale_x": {"Points": [{"co": {"X": 1.0, "Y": 1.0}, "interpolation": 2}]}, "time": {"Points": [{"co": {"X": 1.0, "Y": 1.0}, "interpolation": 2}]}, "rotation": {"Points": [{"co": {"X": 1.0, "Y": 0.0}, "interpolation": 2}]}, "perspective_c2_y": {"Points": [{"co": {"X": 1.0, "Y": -1.0}, "interpolation": 2}]}, "gravity": 4, "alpha": {"Points": [{"co": {"X": 1.0, "Y": 1.0}, "interpolation": 2}]}, "id": "BPQZZB1IGM", "file_id": "8BO13HSLCT", "has_audio": {"Points": [{"co": {"X": 1.0, "Y": -1.0}, "interpolation": 2}]}, "location_y": {"Points": [{"co": {"X": 1.0, "Y": 0.0}, "interpolation": 2}]}, "shear_y": {"Points": [{"co": {"X": 1.0, "Y": 0.0}, "interpolation": 2}]}, "position": 191.8, "perspective_c3_y": {"Points": [{"co": {"X": 1.0, "Y": -1.0}, "interpolation": 2}]}, "location_x": {"Points": [{"co": {"X": 1.0, "Y": 0.0}, "interpolation": 2}]}, "display": 0, "wave_color": {"blue": {"Points": [{"co": {"X": 1.0, "Y": 255.0}, "handle_right": {"X": 0.5, "Y": 0.0}, "handle_left": {"X": 0.5, "Y": 1.0}, "handle_type": 0, "interpolation": 0}]}, "alpha": {"Points": [{"co": {"X": 1.0, "Y": 255.0}, "handle_right": {"X": 0.5, "Y": 0.0}, "handle_left": {"X": 0.5, "Y": 1.0}, "handle_type": 0, "interpolation": 0}]}, "green": {"Points": [{"co": {"X": 1.0, "Y": 123.0}, "handle_right": {"X": 0.5, "Y": 0.0}, "handle_left": {"X": 0.5, "Y": 1.0}, "handle_type": 0, "interpolation": 0}]}, "red": {"Points": [{"co": {"X": 1.0, "Y": 0.0}, "handle_right": {"X": 0.5, "Y": 0.0}, "handle_left": {"X": 0.5, "Y": 1.0}, "handle_type": 0, "interpolation": 0}]}}, "channel_mapping": {"Points": [{"co": {"X": 1.0, "Y": -1.0}, "interpolation": 2}]}, "scale_y": {"Points": [{"co": {"X": 1.0, "Y": 1.0}, "interpolation": 2}]}, "crop_x": {"Points": [{"co": {"X": 1.0, "Y": 0.0}, "interpolation": 2}]}, "crop_y": {"Points": [{"co": {"X": 1.0, "Y": 0.0}, "interpolation": 2}]}, "has_video": {"Points": [{"co": {"X": 1.0, "Y": -1.0}, "interpolation": 2}]}, "perspective_c4_x": {"Points": [{"co": {"X": 1.0, "Y": -1.0}, "interpolation": 2}]}, "perspective_c1_x": {"Points": [{"co": {"X": 1.0, "Y": -1.0}, "interpolation": 2}]}, "scale": 1, "perspective_c3_x": {"Points": [{"co": {"X": 1.0, "Y": -1.0}, "interpolation": 2}]}}}, {"value": {"title": "Demo-07-SetPrinter and Print Current.mkv", "channel_filter": {"Points": [{"co": {"X": 1.0, "Y": -1.0}, "interpolation": 2}]}, "end": 33.041666666666664, "layer": 4, "perspective_c4_y": {"Points": [{"co": {"X": 1.0, "Y": -1.0}, "interpolation": 2}]}, "start": 0, "perspective_c2_x": {"Points": [{"co": {"X": 1.0, "Y": -1.0}, "interpolation": 2}]}, "perspective_c1_y": {"Points": [{"co": {"X": 1.0, "Y": -1.0}, "interpolation": 2}]}, "waveform": false, "anchor": 0, "location_x": {"Points": [{"co": {"X": 1.0, "Y": 0.0}, "interpolation": 2}]}, "crop_height": {"Points": [{"co": {"X": 1.0, "Y": -1.0}, "interpolation": 2}]}, "effects": [], "duration": 32.0, "crop_y": {"Points": [{"co": {"X": 1.0, "Y": 0.0}, "interpolation": 2}]}, "location_y": {"Points": [{"co": {"X": 1.0, "Y": 0.0}, "interpolation": 2}]}, "crop_width": {"Points": [{"co": {"X": 1.0, "Y": -1.0}, "interpolation": 2}]}, "scale_x": {"Points": [{"co": {"X": 1.0, "Y": 1.0}, "interpolation": 2}]}, "image": "/home/milind/.openshot_qt/thumbnail/8BO13HSLCT.png", "rotation": {"Points": [{"co": {"X": 1.0, "Y": 0.0}, "interpolation": 2}]}, "perspective_c2_y": {"Points": [{"co": {"X": 1.0, "Y": -1.0}, "interpolation": 2}]}, "gravity": 4, "alpha": {"Points": [{"co": {"X": 1.0, "Y": 1.0}, "interpolation": 2}]}, "id": "BPQZZB1IGM", "file_id": "8BO13HSLCT", "has_audio": {"Points": [{"co": {"X": 1.0, "Y": -1.0}, "interpolation": 2}]}, "shear_x": {"Points": [{"co": {"X": 1.0, "Y": 0.0}, "interpolation": 2}]}, "shear_y": {"Points": [{"co": {"X": 1.0, "Y": 0.0}, "interpolation": 2}]}, "crop_x": {"Points": [{"co": {"X": 1.0, "Y": 0.0}, "interpolation": 2}]}, "position": 189.5, "perspective_c3_y": {"Points": [{"co": {"X": 1.0, "Y": -1.0}, "interpolation": 2}]}, "time": {"Points": [{"co": {"X": 1.0, "Y": 1.0}, "interpolation": 1}, {"co": {"X": 793.0, "Y": 1585.0}, "interpolation": 1}]}, "display": 0, "wave_color": {"blue": {"Points": [{"co": {"X": 1.0, "Y": 255.0}, "handle_right": {"X": 0.5, "Y": 0.0}, "handle_left": {"X": 0.5, "Y": 1.0}, "handle_type": 0, "interpolation": 0}]}, "alpha": {"Points": [{"co": {"X": 1.0, "Y": 255.0}, "handle_right": {"X": 0.5, "Y": 0.0}, "handle_left": {"X": 0.5, "Y": 1.0}, "handle_type": 0, "interpolation": 0}]}, "green": {"Points": [{"co": {"X": 1.0, "Y": 123.0}, "handle_right": {"X": 0.5, "Y": 0.0}, "handle_left": {"X": 0.5, "Y": 1.0}, "handle_type": 0, "interpolation": 0}]}, "red": {"Points": [{"co": {"X": 1.0, "Y": 0.0}, "handle_right": {"X": 0.5, "Y": 0.0}, "handle_left": {"X": 0.5, "Y": 1.0}, "handle_type": 0, "interpolation": 0}]}}, "channel_mapping": {"Points": [{"co": {"X": 1.0, "Y": -1.0}, "interpolation": 2}]}, "scale_y": {"Points": [{"co": {"X": 1.0, "Y": 1.0}, "interpolation": 2}]}, "scale": 1, "perspective_c1_x": {"Points": [{"co": {"X": 1.0, "Y": -1.0}, "interpolation": 2}]}, "has_video": {"Points": [{"co": {"X": 1.0, "Y": -1.0}, "interpolation": 2}]}, "perspective_c4_x": {"Points": [{"co": {"X": 1.0, "Y": -1.0}, "interpolation": 2}]}, "volume": {"Points": [{"co": {"X": 1.0, "Y": 1.0}, "interpolation": 2}]}, "perspective_c3_x": {"Points": [{"co": {"X": 1.0, "Y": -1.0}, "interpolation": 2}]}}, "type": "update", "partial": false, "key": ["clips", {"id": "BPQZZB1IGM"}], "old_values": {"channel_filter": {"Points": [{"co": {"X": 1.0, "Y": -1.0}, "interpolation": 2}]}, "end": 66, "layer": 4, "perspective_c4_y": {"Points": [{"co": {"X": 1.0, "Y": -1.0}, "interpolation": 2}]}, "start": 0, "volume": {"Points": [{"co": {"X": 1.0, "Y": 1.0}, "interpolation": 2}]}, "reader": {"video_stream_index": 0, "audio_stream_index": -1, "top_field_first": true, "audio_bit_rate": 0, "path": "/home/milind/Data/Projects/CTTdemo/Demo-07-SetPrinter and Print Current.mkv", "type": "FFmpegReader", "video_length": "1650", "width": 1366, "audio_timebase": {"num": 1, "den": 1}, "vcodec": "h264", "duration": 66.0, "height": 768, "acodec": "", "video_bit_rate": 0, "has_single_image": false, "pixel_format": 0, "channel_layout": 4, "channels": 0, "has_audio": false, "interlaced_frame": false, "pixel_ratio": {"num": 1, "den": 1}, "sample_rate": 0, "file_size": "1142597", "video_timebase": {"num": 1, "den": 1000}, "has_video": true, "display_ratio": {"num": 683, "den": 384}, "fps": {"num": 25, "den": 1}}, "perspective_c2_x": {"Points": [{"co": {"X": 1.0, "Y": -1.0}, "interpolation": 2}]}, "perspective_c1_y": {"Points": [{"co": {"X": 1.0, "Y": -1.0}, "interpolation": 2}]}, "waveform": false, "title": "Demo-07-SetPrinter and Print Current.mkv", "anchor": 0, "crop_height": {"Points": [{"co": {"X": 1.0, "Y": -1.0}, "interpolation": 2}]}, "effects": [], "duration": 66.0, "image": "/home/milind/.openshot_qt/thumbnail/8BO13HSLCT.png", "shear_x": {"Points": [{"co": {"X": 1.0, "Y": 0.0}, "interpolation": 2}]}, "crop_width": {"Points": [{"co": {"X": 1.0, "Y": -1.0}, "interpolation": 2}]}, "scale_x": {"Points": [{"co": {"X": 1.0, "Y": 1.0}, "interpolation": 2}]}, "time": {"Points": [{"co": {"X": 1.0, "Y": 1.0}, "interpolation": 2}]}, "rotation": {"Points": [{"co": {"X": 1.0, "Y": 0.0}, "interpolation": 2}]}, "perspective_c2_y": {"Points": [{"co": {"X": 1.0, "Y": -1.0}, "interpolation": 2}]}, "gravity": 4, "alpha": {"Points": [{"co": {"X": 1.0, "Y": 1.0}, "interpolation": 2}]}, "id": "BPQZZB1IGM", "file_id": "8BO13HSLCT", "has_audio": {"Points": [{"co": {"X": 1.0, "Y": -1.0}, "interpolation": 2}]}, "location_y": {"Points": [{"co": {"X": 1.0, "Y": 0.0}, "interpolation": 2}]}, "shear_y": {"Points": [{"co": {"X": 1.0, "Y": 0.0}, "interpolation": 2}]}, "position": 189.5, "perspective_c3_y": {"Points": [{"co": {"X": 1.0, "Y": -1.0}, "interpolation": 2}]}, "location_x": {"Points": [{"co": {"X": 1.0, "Y": 0.0}, "interpolation": 2}]}, "display": 0, "wave_color": {"blue": {"Points": [{"co": {"X": 1.0, "Y": 255.0}, "handle_right": {"X": 0.5, "Y": 0.0}, "handle_left": {"X": 0.5, "Y": 1.0}, "handle_type": 0, "interpolation": 0}]}, "alpha": {"Points": [{"co": {"X": 1.0, "Y": 255.0}, "handle_right": {"X": 0.5, "Y": 0.0}, "handle_left": {"X": 0.5, "Y": 1.0}, "handle_type": 0, "interpolation": 0}]}, "green": {"Points": [{"co": {"X": 1.0, "Y": 123.0}, "handle_right": {"X": 0.5, "Y": 0.0}, "handle_left": {"X": 0.5, "Y": 1.0}, "handle_type": 0, "interpolation": 0}]}, "red": {"Points": [{"co": {"X": 1.0, "Y": 0.0}, "handle_right": {"X": 0.5, "Y": 0.0}, "handle_left": {"X": 0.5, "Y": 1.0}, "handle_type": 0, "interpolation": 0}]}}, "channel_mapping": {"Points": [{"co": {"X": 1.0, "Y": -1.0}, "interpolation": 2}]}, "scale_y": {"Points": [{"co": {"X": 1.0, "Y": 1.0}, "interpolation": 2}]}, "crop_x": {"Points": [{"co": {"X": 1.0, "Y": 0.0}, "interpolation": 2}]}, "crop_y": {"Points": [{"co": {"X": 1.0, "Y": 0.0}, "interpolation": 2}]}, "has_video": {"Points": [{"co": {"X": 1.0, "Y": -1.0}, "interpolation": 2}]}, "perspective_c4_x": {"Points": [{"co": {"X": 1.0, "Y": -1.0}, "interpolation": 2}]}, "perspective_c1_x": {"Points": [{"co": {"X": 1.0, "Y": -1.0}, "interpolation": 2}]}, "scale": 1, "perspective_c3_x": {"Points": [{"co": {"X": 1.0, "Y": -1.0}, "interpolation": 2}]}}}, {"value": {"channel_filter": {"Points": [{"co": {"X": 1.0, "Y": -1.0}, "interpolation": 2}]}, "end": 28.333333333333343, "layer": 4, "perspective_c4_y": {"Points": [{"co": {"X": 1.0, "Y": -1.0}, "interpolation": 2}]}, "volume": {"Points": [{"co": {"X": 1.0, "Y": 1.0}, "interpolation": 2}]}, "start": 0, "perspective_c2_x": {"Points": [{"co": {"X": 1.0, "Y": -1.0}, "interpolation": 2}]}, "perspective_c1_y": {"Points": [{"co": {"X": 1.0, "Y": -1.0}, "interpolation": 2}]}, "waveform": false, "title": "Demo-07-SetPrinter and Print Current.mkv", "anchor": 0, "crop_height": {"Points": [{"co": {"X": 1.0, "Y": -1.0}, "interpolation": 2}]}, "effects": [], "duration": 32.0, "image": "/home/milind/.openshot_qt/thumbnail/8BO13HSLCT.png", "shear_x": {"Points": [{"co": {"X": 1.0, "Y": 0.0}, "interpolation": 2}]}, "crop_width": {"Points": [{"co": {"X": 1.0, "Y": -1.0}, "interpolation": 2}]}, "scale_x": {"Points": [{"co": {"X": 1.0, "Y": 1.0}, "interpolation": 2}]}, "time": {"Points": [{"co": {"X": 1.0, "Y": 1.0}, "interpolation": 1}, {"co": {"X": 793.0, "Y": 1585.0}, "interpolation": 1}]}, "rotation": {"Points": [{"co": {"X": 1.0, "Y": 0.0}, "interpolation": 2}]}, "perspective_c2_y": {"Points": [{"co": {"X": 1.0, "Y": -1.0}, "interpolation": 2}]}, "gravity": 4, "alpha": {"Points": [{"co": {"X": 1.0, "Y": 1.0}, "interpolation": 2}]}, "id": "BPQZZB1IGM", "file_id": "8BO13HSLCT", "has_audio": {"Points": [{"co": {"X": 1.0, "Y": -1.0}, "interpolation": 2}]}, "location_y": {"Points": [{"co": {"X": 1.0, "Y": 0.0}, "interpolation": 2}]}, "shear_y": {"Points": [{"co": {"X": 1.0, "Y": 0.0}, "interpolation": 2}]}, "position": 189.5, "perspective_c3_y": {"Points": [{"co": {"X": 1.0, "Y": -1.0}, "interpolation": 2}]}, "location_x": {"Points": [{"co": {"X": 1.0, "Y": 0.0}, "interpolation": 2}]}, "display": 0, "wave_color": {"blue": {"Points": [{"co": {"X": 1.0, "Y": 255.0}, "handle_right": {"X": 0.5, "Y": 0.0}, "handle_type": 0, "handle_left": {"X": 0.5, "Y": 1.0}, "interpolation": 0}]}, "alpha": {"Points": [{"co": {"X": 1.0, "Y": 255.0}, "handle_right": {"X": 0.5, "Y": 0.0}, "handle_type": 0, "handle_left": {"X": 0.5, "Y": 1.0}, "interpolation": 0}]}, "green": {"Points": [{"co": {"X": 1.0, "Y": 123.0}, "handle_right": {"X": 0.5, "Y": 0.0}, "handle_type": 0, "handle_left": {"X": 0.5, "Y": 1.0}, "interpolation": 0}]}, "red": {"Points": [{"co": {"X": 1.0, "Y": 0.0}, "handle_right": {"X": 0.5, "Y": 0.0}, "handle_type": 0, "handle_left": {"X": 0.5, "Y": 1.0}, "interpolation": 0}]}}, "channel_mapping": {"Points": [{"co": {"X": 1.0, "Y": -1.0}, "interpolation": 2}]}, "scale_y": {"Points": [{"co": {"X": 1.0, "Y": 1.0}, "interpolation": 2}]}, "crop_x": {"Points": [{"co": {"X": 1.0, "Y": 0.0}, "interpolation": 2}]}, "crop_y": {"Points": [{"co": {"X": 1.0, "Y": 0.0}, "interpolation": 2}]}, "has_video": {"Points": [{"co": {"X": 1.0, "Y": -1.0}, "interpolation": 2}]}, "perspective_c4_x": {"Points": [{"co": {"X": 1.0, "Y": -1.0}, "interpolation": 2}]}, "perspective_c1_x": {"Points": [{"co": {"X": 1.0, "Y": -1.0}, "interpolation": 2}]}, "scale": 1, "perspective_c3_x": {"Points": [{"co": {"X": 1.0, "Y": -1.0}, "interpolation": 2}]}}, "type": "update", "partial": false, "key": ["clips", {"id": "BPQZZB1IGM"}], "old_values": {"channel_filter": {"Points": [{"co": {"X": 1.0, "Y": -1.0}, "interpolation": 2}]}, "end": 33.041666666666664, "layer": 4, "perspective_c4_y": {"Points": [{"co": {"X": 1.0, "Y": -1.0}, "interpolation": 2}]}, "start": 0, "volume": {"Points": [{"co": {"X": 1.0, "Y": 1.0}, "interpolation": 2}]}, "reader": {"video_stream_index": 0, "audio_stream_index": -1, "top_field_first": true, "audio_bit_rate": 0, "path": "/home/milind/Data/Projects/CTTdemo/Demo-07-SetPrinter and Print Current.mkv", "type": "FFmpegReader", "video_length": "1650", "width": 1366, "audio_timebase": {"num": 1, "den": 1}, "vcodec": "h264", "duration": 66.0, "height": 768, "acodec": "", "video_bit_rate": 0, "has_single_image": false, "pixel_format": 0, "channel_layout": 4, "channels": 0, "has_audio": false, "interlaced_frame": false, "pixel_ratio": {"num": 1, "den": 1}, "sample_rate": 0, "file_size": "1142597", "video_timebase": {"num": 1, "den": 1000}, "has_video": true, "display_ratio": {"num": 683, "den": 384}, "fps": {"num": 25, "den": 1}}, "perspective_c2_x": {"Points": [{"co": {"X": 1.0, "Y": -1.0}, "interpolation": 2}]}, "perspective_c1_y": {"Points": [{"co": {"X": 1.0, "Y": -1.0}, "interpolation": 2}]}, "waveform": false, "title": "Demo-07-SetPrinter and Print Current.mkv", "anchor": 0, "crop_height": {"Points": [{"co": {"X": 1.0, "Y": -1.0}, "interpolation": 2}]}, "effects": [], "duration": 32.0, "image": "/home/milind/.openshot_qt/thumbnail/8BO13HSLCT.png", "shear_x": {"Points": [{"co": {"X": 1.0, "Y": 0.0}, "interpolation": 2}]}, "crop_width": {"Points": [{"co": {"X": 1.0, "Y": -1.0}, "interpolation": 2}]}, "scale_x": {"Points": [{"co": {"X": 1.0, "Y": 1.0}, "interpolation": 2}]}, "time": {"Points": [{"co": {"X": 1.0, "Y": 1.0}, "interpolation": 1}, {"co": {"X": 793.0, "Y": 1585.0}, "interpolation": 1}]}, "rotation": {"Points": [{"co": {"X": 1.0, "Y": 0.0}, "interpolation": 2}]}, "perspective_c2_y": {"Points": [{"co": {"X": 1.0, "Y": -1.0}, "interpolation": 2}]}, "gravity": 4, "alpha": {"Points": [{"co": {"X": 1.0, "Y": 1.0}, "interpolation": 2}]}, "id": "BPQZZB1IGM", "file_id": "8BO13HSLCT", "has_audio": {"Points": [{"co": {"X": 1.0, "Y": -1.0}, "interpolation": 2}]}, "location_y": {"Points": [{"co": {"X": 1.0, "Y": 0.0}, "interpolation": 2}]}, "shear_y": {"Points": [{"co": {"X": 1.0, "Y": 0.0}, "interpolation": 2}]}, "position": 189.5, "perspective_c3_y": {"Points": [{"co": {"X": 1.0, "Y": -1.0}, "interpolation": 2}]}, "location_x": {"Points": [{"co": {"X": 1.0, "Y": 0.0}, "interpolation": 2}]}, "display": 0, "wave_color": {"blue": {"Points": [{"co": {"X": 1.0, "Y": 255.0}, "handle_right": {"X": 0.5, "Y": 0.0}, "handle_type": 0, "handle_left": {"X": 0.5, "Y": 1.0}, "interpolation": 0}]}, "alpha": {"Points": [{"co": {"X": 1.0, "Y": 255.0}, "handle_right": {"X": 0.5, "Y": 0.0}, "handle_type": 0, "handle_left": {"X": 0.5, "Y": 1.0}, "interpolation": 0}]}, "green": {"Points": [{"co": {"X": 1.0, "Y": 123.0}, "handle_right": {"X": 0.5, "Y": 0.0}, "handle_type": 0, "handle_left": {"X": 0.5, "Y": 1.0}, "interpolation": 0}]}, "red": {"Points": [{"co": {"X": 1.0, "Y": 0.0}, "handle_right": {"X": 0.5, "Y": 0.0}, "handle_type": 0, "handle_left": {"X": 0.5, "Y": 1.0}, "interpolation": 0}]}}, "channel_mapping": {"Points": [{"co": {"X": 1.0, "Y": -1.0}, "interpolation": 2}]}, "scale_y": {"Points": [{"co": {"X": 1.0, "Y": 1.0}, "interpolation": 2}]}, "crop_x": {"Points": [{"co": {"X": 1.0, "Y": 0.0}, "interpolation": 2}]}, "crop_y": {"Points": [{"co": {"X": 1.0, "Y": 0.0}, "interpolation": 2}]}, "has_video": {"Points": [{"co": {"X": 1.0, "Y": -1.0}, "interpolation": 2}]}, "perspective_c4_x": {"Points": [{"co": {"X": 1.0, "Y": -1.0}, "interpolation": 2}]}, "perspective_c1_x": {"Points": [{"co": {"X": 1.0, "Y": -1.0}, "interpolation": 2}]}, "scale": 1, "perspective_c3_x": {"Points": [{"co": {"X": 1.0, "Y": -1.0}, "interpolation": 2}]}}}]}, "channel_layout": 3, "version": {"libopenshot": "0.1.9", "openshot-qt": "2.4.1"}, "id": "T0", "clips": [{"channel_filter": {"Points": [{"co": {"X": 1.0, "Y": -1.0}, "interpolation": 2}]}, "layer": 4, "reader": {"video_stream_index": 0, "audio_stream_index": -1, "top_field_first": true, "audio_bit_rate": 0, "path": "Demo-02-Adding Time-Class Slots.mkv", "type": "FFmpegReader", "video_length": "1900", "width": 1366, "audio_timebase": {"num": 1, "den": 1}, "channels": 0, "duration": 76.0, "height": 768, "acodec": "", "video_bit_rate": 0, "has_single_image": false, "pixel_format": 0, "channel_layout": 4, "pixel_ratio": {"num": 1, "den": 1}, "has_audio": false, "interlaced_frame": false, "vcodec": "h264", "sample_rate": 0, "file_size": "502317", "video_timebase": {"num": 1, "den": 1000}, "has_video": true, "display_ratio": {"num": 683, "den": 384}, "fps": {"num": 25, "den": 1}}, "end": 35.875, "anchor": 0, "crop_height": {"Points": [{"co": {"X": 1.0, "Y": -1.0}, "interpolation": 2}]}, "effects": [], "duration": 38.0, "crop_y": {"Points": [{"co": {"X": 1.0, "Y": 0.0}, "interpolation": 2}]}, "time": {"Points": [{"co": {"X": 1.0, "Y": 1.0}, "interpolation": 1}, {"co": {"X": 861.0, "Y": 1721.0}, "interpolation": 1}]}, "file_id": "8AMXXS1INM", "perspective_c2_y": {"Points": [{"co": {"X": 1.0, "Y": -1.0}, "interpolation": 2}]}, "alpha": {"Points": [{"co": {"X": 1.0, "Y": 1.0}, "interpolation": 2}]}, "id": "Z4ZIZQBYYY", "has_audio": {"Points": [{"co": {"X": 1.0, "Y": -1.0}, "interpolation": 2}]}, "crop_x": {"Points": [{"co": {"X": 1.0, "Y": 0.0}, "interpolation": 2}]}, "position": 20, "perspective_c3_y": {"Points": [{"co": {"X": 1.0, "Y": -1.0}, "interpolation": 2}]}, "rotation": {"Points": [{"co": {"X": 1.0, "Y": 0.0}, "interpolation": 2}]}, "wave_color": {"blue": {"Points": [{"co": {"X": 1.0, "Y": 255.0}, "handle_right": {"X": 0.5, "Y": 0.0}, "handle_left": {"X": 0.5, "Y": 1.0}, "handle_type": 0, "interpolation": 0}]}, "red": {"Points": [{"co": {"X": 1.0, "Y": 0.0}, "handle_right": {"X": 0.5, "Y": 0.0}, "handle_left": {"X": 0.5, "Y": 1.0}, "handle_type": 0, "interpolation": 0}]}, "green": {"Points": [{"co": {"X": 1.0, "Y": 123.0}, "handle_right": {"X": 0.5, "Y": 0.0}, "handle_left": {"X": 0.5, "Y": 1.0}, "handle_type": 0, "interpolation": 0}]}, "alpha": {"Points": [{"co": {"X": 1.0, "Y": 255.0}, "handle_right": {"X": 0.5, "Y": 0.0}, "handle_left": {"X": 0.5, "Y": 1.0}, "handle_type": 0, "interpolation": 0}]}}, "channel_mapping": {"Points": [{"co": {"X": 1.0, "Y": -1.0}, "interpolation": 2}]}, "perspective_c1_x": {"Points": [{"co": {"X": 1.0, "Y": -1.0}, "interpolation": 2}]}, "has_video": {"Points": [{"co": {"X": 1.0, "Y": -1.0}, "interpolation": 2}]}, "start": 0, "perspective_c3_x": {"Points": [{"co": {"X": 1.0, "Y": -1.0}, "interpolation": 2}]}, "perspective_c1_y": {"Points": [{"co": {"X": 1.0, "Y": -1.0}, "interpolation": 2}]}, "perspective_c4_y": {"Points": [{"co": {"X": 1.0, "Y": -1.0}, "interpolation": 2}]}, "perspective_c2_x": {"Points": [{"co": {"X": 1.0, "Y": -1.0}, "interpolation": 2}]}, "waveform": false, "title": "Demo-02-Adding Time-Class Slots.mkv", "volume": {"Points": [{"co": {"X": 1.0, "Y": 1.0}, "interpolation": 2}]}, "image": "../.openshot_qt/thumbnail/8AMXXS1INM.png", "crop_width": {"Points": [{"co": {"X": 1.0, "Y": -1.0}, "interpolation": 2}]}, "scale_x": {"Points": [{"co": {"X": 1.0, "Y": 1.0}, "interpolation": 2}]}, "location_x": {"Points": [{"co": {"X": 1.0, "Y": 0.0}, "interpolation": 2}]}, "gravity": 4, "shear_x": {"Points": [{"co": {"X": 1.0, "Y": 0.0}, "interpolation": 2}]}, "location_y": {"Points": [{"co": {"X": 1.0, "Y": 0.0}, "interpolation": 2}]}, "shear_y": {"Points": [{"co": {"X": 1.0, "Y": 0.0}, "interpolation": 2}]}, "display": 0, "scale_y": {"Points": [{"co": {"X": 1.0, "Y": 1.0}, "interpolation": 2}]}, "scale": 1, "perspective_c4_x": {"Points": [{"co": {"X": 1.0, "Y": -1.0}, "interpolation": 2}]}}, {"channel_filter": {"Points": [{"co": {"X": 1.0, "Y": -1.0}, "interpolation": 2}]}, "layer": 4, "reader": {"video_stream_index": 0, "audio_stream_index": -1, "top_field_first": true, "audio_bit_rate": 0, "path": "Demo-03-Renaming copy pasted Time-Slots.mkv", "type": "FFmpegReader", "video_length": "525", "width": 1366, "audio_timebase": {"num": 1, "den": 1}, "channels": 0, "duration": 21.0, "height": 768, "acodec": "", "video_bit_rate": 0, "has_single_image": false, "pixel_format": 0, "channel_layout": 4, "pixel_ratio": {"num": 1, "den": 1}, "has_audio": false, "interlaced_frame": false, "vcodec": "h264", "sample_rate": 0, "file_size": "191199", "video_timebase": {"num": 1, "den": 1000}, "has_video": true, "display_ratio": {"num": 683, "den": 384}, "fps": {"num": 25, "den": 1}}, "perspective_c1_y": {"Points": [{"co": {"X": 1.0, "Y": -1.0}, "interpolation": 2}]}, "anchor": 0, "crop_height": {"Points": [{"co": {"X": 1.0, "Y": -1.0}, "interpolation": 2}]}, "effects": [], "duration": 21.0, "crop_y": {"Points": [{"co": {"X": 1.0, "Y": 0.0}, "interpolation": 2}]}, "time": {"Points": [{"co": {"X": 1.0, "Y": 1.0}, "interpolation": 2}]}, "file_id": "FUP4DCVZ3U", "perspective_c2_y": {"Points": [{"co": {"X": 1.0, "Y": -1.0}, "interpolation": 2}]}, "alpha": {"Points": [{"co": {"X": 1.0, "Y": 1.0}, "interpolation": 2}]}, "id": "HUCJUHW5KR", "has_audio": {"Points": [{"co": {"X": 1.0, "Y": -1.0}, "interpolation": 2}]}, "crop_x": {"Points": [{"co": {"X": 1.0, "Y": 0.0}, "interpolation": 2}]}, "position": 55.8, "perspective_c3_y": {"Points": [{"co": {"X": 1.0, "Y": -1.0}, "interpolation": 2}]}, "rotation": {"Points": [{"co": {"X": 1.0, "Y": 0.0}, "interpolation": 2}]}, "wave_color": {"blue": {"Points": [{"co": {"X": 1.0, "Y": 255.0}, "handle_right": {"X": 0.5, "Y": 0.0}, "handle_left": {"X": 0.5, "Y": 1.0}, "handle_type": 0, "interpolation": 0}]}, "red": {"Points": [{"co": {"X": 1.0, "Y": 0.0}, "handle_right": {"X": 0.5, "Y": 0.0}, "handle_left": {"X": 0.5, "Y": 1.0}, "handle_type": 0, "interpolation": 0}]}, "green": {"Points": [{"co": {"X": 1.0, "Y": 123.0}, "handle_right": {"X": 0.5, "Y": 0.0}, "handle_left": {"X": 0.5, "Y": 1.0}, "handle_type": 0, "interpolation": 0}]}, "alpha": {"Points": [{"co": {"X": 1.0, "Y": 255.0}, "handle_right": {"X": 0.5, "Y": 0.0}, "handle_left": {"X": 0.5, "Y": 1.0}, "handle_type": 0, "interpolation": 0}]}}, "channel_mapping": {"Points": [{"co": {"X": 1.0, "Y": -1.0}, "interpolation": 2}]}, "scale": 1, "has_video": {"Points": [{"co": {"X": 1.0, "Y": -1.0}, "interpolation": 2}]}, "start": 0, "perspective_c3_x": {"Points": [{"co": {"X": 1.0, "Y": -1.0}, "interpolation": 2}]}, "end": 16.183333333333337, "perspective_c4_y": {"Points": [{"co": {"X": 1.0, "Y": -1.0}, "interpolation": 2}]}, "perspective_c2_x": {"Points": [{"co": {"X": 1.0, "Y": -1.0}, "interpolation": 2}]}, "title": "Demo-03-Renaming copy pasted Time-Slots.mkv", "waveform": false, "volume": {"Points": [{"co": {"X": 1.0, "Y": 1.0}, "interpolation": 2}]}, "image": "../.openshot_qt/thumbnail/FUP4DCVZ3U.png", "crop_width": {"Points": [{"co": {"X": 1.0, "Y": -1.0}, "interpolation": 2}]}, "scale_x": {"Points": [{"co": {"X": 1.0, "Y": 1.0}, "interpolation": 2}]}, "location_x": {"Points": [{"co": {"X": 1.0, "Y": 0.0}, "interpolation": 2}]}, "gravity": 4, "perspective_c1_x": {"Points": [{"co": {"X": 1.0, "Y": -1.0}, "interpolation": 2}]}, "shear_x": {"Points": [{"co": {"X": 1.0, "Y": 0.0}, "interpolation": 2}]}, "location_y": {"Points": [{"co": {"X": 1.0, "Y": 0.0}, "interpolation": 2}]}, "shear_y": {"Points": [{"co": {"X": 1.0, "Y": 0.0}, "interpolation": 2}]}, "display": 0, "scale_y": {"Points": [{"co": {"X": 1.0, "Y": 1.0}, "interpolation": 2}]}, "perspective_c4_x": {"Points": [{"co": {"X": 1.0, "Y": -1.0}, "interpolation": 2}]}}, {"channel_filter": {"Points": [{"co": {"X": 1.0, "Y": -1.0}, "interpolation": 2}]}, "layer": 4, "reader": {"video_stream_index": -1, "audio_stream_index": -1, "pixel_format": -1, "audio_bit_rate": 0, "path": "assets/TitleFileName-1.svg", "top_field_first": true, "type": "QtImageReader", "video_length": "2592000", "width": 1920, "audio_timebase": {"num": 1, "den": 1}, "vcodec": "", "duration": 86400.0, "height": 1080, "acodec": "", "video_bit_rate": 0, "has_single_image": true, "channel_layout": 4, "channels": 0, "has_audio": false, "interlaced_frame": false, "pixel_ratio": {"num": 1, "den": 1}, "sample_rate": 0, "file_size": "8294400", "video_timebase": {"num": 1, "den": 30}, "has_video": true, "display_ratio": {"num": 16, "den": 9}, "fps": {"num": 30, "den": 1}}, "perspective_c1_y": {"Points": [{"co": {"X": 1.0, "Y": -1.0}, "interpolation": 2}]}, "anchor": 0, "crop_height": {"Points": [{"co": {"X": 1.0, "Y": -1.0}, "interpolation": 2}]}, "effects": [], "duration": 86400.0, "crop_y": {"Points": [{"co": {"X": 1.0, "Y": 0.0}, "interpolation": 2}]}, "file_id": "YMAWWUI3BI", "perspective_c2_y": {"Points": [{"co": {"X": 1.0, "Y": -1.0}, "interpolation": 2}]}, "alpha": {"Points": [{"co": {"X": 1.0, "Y": 1.0}, "interpolation": 2}]}, "rotation": {"Points": [{"co": {"X": 1.0, "Y": 0.0}, "interpolation": 2}]}, "id": "GWTA84Q5L0", "has_audio": {"Points": [{"co": {"X": 1.0, "Y": -1.0}, "interpolation": 2}]}, "crop_x": {"Points": [{"co": {"X": 1.0, "Y": 0.0}, "interpolation": 2}]}, "position": 0, "perspective_c3_y": {"Points": [{"co": {"X": 1.0, "Y": -1.0}, "interpolation": 2}]}, "time": {"Points": [{"co": {"X": 1.0, "Y": 1.0}, "interpolation": 2}]}, "wave_color": {"blue": {"Points": [{"co": {"X": 1.0, "Y": 255.0}, "handle_right": {"X": 0.5, "Y": 0.0}, "handle_left": {"X": 0.5, "Y": 1.0}, "handle_type": 0, "interpolation": 0}]}, "alpha": {"Points": [{"co": {"X": 1.0, "Y": 255.0}, "handle_right": {"X": 0.5, "Y": 0.0}, "handle_left": {"X": 0.5, "Y": 1.0}, "handle_type": 0, "interpolation": 0}]}, "green": {"Points": [{"co": {"X": 1.0, "Y": 123.0}, "handle_right": {"X": 0.5, "Y": 0.0}, "handle_left": {"X": 0.5, "Y": 1.0}, "handle_type": 0, "interpolation": 0}]}, "red": {"Points": [{"co": {"X": 1.0, "Y": 0.0}, "handle_right": {"X": 0.5, "Y": 0.0}, "handle_left": {"X": 0.5, "Y": 1.0}, "handle_type": 0, "interpolation": 0}]}}, "channel_mapping": {"Points": [{"co": {"X": 1.0, "Y": -1.0}, "interpolation": 2}]}, "scale": 1, "has_video": {"Points": [{"co": {"X": 1.0, "Y": -1.0}, "interpolation": 2}]}, "start": 0, "perspective_c3_x": {"Points": [{"co": {"X": 1.0, "Y": -1.0}, "interpolation": 2}]}, "end": 10, "perspective_c4_y": {"Points": [{"co": {"X": 1.0, "Y": -1.0}, "interpolation": 2}]}, "perspective_c2_x": {"Points": [{"co": {"X": 1.0, "Y": -1.0}, "interpolation": 2}]}, "title": "TitleFileName-1.svg", "waveform": false, "volume": {"Points": [{"co": {"X": 1.0, "Y": 1.0}, "interpolation": 2}]}, "image": "../../../.openshot_qt/thumbnail/YMAWWUI3BI.png", "crop_width": {"Points": [{"co": {"X": 1.0, "Y": -1.0}, "interpolation": 2}]}, "scale_x": {"Points": [{"co": {"X": 1.0, "Y": 1.0}, "interpolation": 2}]}, "location_x": {"Points": [{"co": {"X": 1.0, "Y": 0.0}, "interpolation": 2}]}, "gravity": 4, "perspective_c1_x": {"Points": [{"co": {"X": 1.0, "Y": -1.0}, "interpolation": 2}]}, "shear_x": {"Points": [{"co": {"X": 1.0, "Y": 0.0}, "interpolation": 2}]}, "location_y": {"Points": [{"co": {"X": 1.0, "Y": 0.0}, "interpolation": 2}]}, "shear_y": {"Points": [{"co": {"X": 1.0, "Y": 0.0}, "interpolation": 2}]}, "display": 0, "scale_y": {"Points": [{"co": {"X": 1.0, "Y": 1.0}, "interpolation": 2}]}, "perspective_c4_x": {"Points": [{"co": {"X": 1.0, "Y": -1.0}, "interpolation": 2}]}}, {"channel_filter": {"Points": [{"co": {"X": 1.0, "Y": -1.0}, "interpolation": 2}]}, "layer": 4, "reader": {"video_stream_index": -1, "audio_stream_index": -1, "pixel_format": -1, "audio_bit_rate": 0, "path": "assets/TitleFileName-1.svg", "top_field_first": true, "type": "QtImageReader", "video_length": "2592000", "width": 1920, "audio_timebase": {"num": 1, "den": 1}, "vcodec": "", "duration": 86400.0, "height": 1080, "acodec": "", "video_bit_rate": 0, "has_single_image": true, "channel_layout": 4, "channels": 0, "has_audio": false, "interlaced_frame": false, "pixel_ratio": {"num": 1, "den": 1}, "sample_rate": 0, "file_size": "8294400", "video_timebase": {"num": 1, "den": 30}, "has_video": true, "display_ratio": {"num": 16, "den": 9}, "fps": {"num": 30, "den": 1}}, "perspective_c1_y": {"Points": [{"co": {"X": 1.0, "Y": -1.0}, "interpolation": 2}]}, "anchor": 0, "crop_height": {"Points": [{"co": {"X": 1.0, "Y": -1.0}, "interpolation": 2}]}, "effects": [], "duration": 86400.0, "crop_y": {"Points": [{"co": {"X": 1.0, "Y": 0.0}, "interpolation": 2}]}, "file_id": "IFD313JPZZ", "perspective_c2_y": {"Points": [{"co": {"X": 1.0, "Y": -1.0}, "interpolation": 2}]}, "alpha": {"Points": [{"co": {"X": 1.0, "Y": 1.0}, "interpolation": 2}]}, "rotation": {"Points": [{"co": {"X": 1.0, "Y": 0.0}, "interpolation": 2}]}, "id": "RPBI9K5XDC", "has_audio": {"Points": [{"co": {"X": 1.0, "Y": -1.0}, "interpolation": 2}]}, "crop_x": {"Points": [{"co": {"X": 1.0, "Y": 0.0}, "interpolation": 2}]}, "position": 10, "perspective_c3_y": {"Points": [{"co": {"X": 1.0, "Y": -1.0}, "interpolation": 2}]}, "time": {"Points": [{"co": {"X": 1.0, "Y": 1.0}, "interpolation": 2}]}, "wave_color": {"blue": {"Points": [{"co": {"X": 1.0, "Y": 255.0}, "handle_right": {"X": 0.5, "Y": 0.0}, "handle_left": {"X": 0.5, "Y": 1.0}, "handle_type": 0, "interpolation": 0}]}, "alpha": {"Points": [{"co": {"X": 1.0, "Y": 255.0}, "handle_right": {"X": 0.5, "Y": 0.0}, "handle_left": {"X": 0.5, "Y": 1.0}, "handle_type": 0, "interpolation": 0}]}, "green": {"Points": [{"co": {"X": 1.0, "Y": 123.0}, "handle_right": {"X": 0.5, "Y": 0.0}, "handle_left": {"X": 0.5, "Y": 1.0}, "handle_type": 0, "interpolation": 0}]}, "red": {"Points": [{"co": {"X": 1.0, "Y": 0.0}, "handle_right": {"X": 0.5, "Y": 0.0}, "handle_left": {"X": 0.5, "Y": 1.0}, "handle_type": 0, "interpolation": 0}]}}, "channel_mapping": {"Points": [{"co": {"X": 1.0, "Y": -1.0}, "interpolation": 2}]}, "scale": 1, "has_video": {"Points": [{"co": {"X": 1.0, "Y": -1.0}, "interpolation": 2}]}, "start": 0, "perspective_c3_x": {"Points": [{"co": {"X": 1.0, "Y": -1.0}, "interpolation": 2}]}, "end": 10, "perspective_c4_y": {"Points": [{"co": {"X": 1.0, "Y": -1.0}, "interpolation": 2}]}, "perspective_c2_x": {"Points": [{"co": {"X": 1.0, "Y": -1.0}, "interpolation": 2}]}, "title": "TitleFileName-1.svg", "waveform": false, "volume": {"Points": [{"co": {"X": 1.0, "Y": 1.0}, "interpolation": 2}]}, "image": "../../../.openshot_qt/thumbnail/IFD313JPZZ.png", "crop_width": {"Points": [{"co": {"X": 1.0, "Y": -1.0}, "interpolation": 2}]}, "scale_x": {"Points": [{"co": {"X": 1.0, "Y": 1.0}, "interpolation": 2}]}, "location_x": {"Points": [{"co": {"X": 1.0, "Y": 0.0}, "interpolation": 2}]}, "gravity": 4, "perspective_c1_x": {"Points": [{"co": {"X": 1.0, "Y": -1.0}, "interpolation": 2}]}, "shear_x": {"Points": [{"co": {"X": 1.0, "Y": 0.0}, "interpolation": 2}]}, "location_y": {"Points": [{"co": {"X": 1.0, "Y": 0.0}, "interpolation": 2}]}, "shear_y": {"Points": [{"co": {"X": 1.0, "Y": 0.0}, "interpolation": 2}]}, "display": 0, "scale_y": {"Points": [{"co": {"X": 1.0, "Y": 1.0}, "interpolation": 2}]}, "perspective_c4_x": {"Points": [{"co": {"X": 1.0, "Y": -1.0}, "interpolation": 2}]}}, {"channel_filter": {"Points": [{"co": {"X": 1.0, "Y": -1.0}, "interpolation": 2}]}, "layer": 4, "reader": {"video_stream_index": 0, "audio_stream_index": -1, "top_field_first": true, "audio_bit_rate": 0, "path": "Demo-04-Lecture Entry-Clash remove and Demo TT.mkv", "type": "FFmpegReader", "video_length": "6175", "width": 1366, "audio_timebase": {"num": 1, "den": 1}, "vcodec": "h264", "duration": 247.0, "height": 768, "acodec": "", "video_bit_rate": 0, "has_single_image": false, "pixel_format": 0, "channel_layout": 4, "channels": 0, "has_audio": false, "interlaced_frame": false, "pixel_ratio": {"num": 1, "den": 1}, "sample_rate": 0, "file_size": "2541542", "video_timebase": {"num": 1, "den": 1000}, "has_video": true, "display_ratio": {"num": 683, "den": 384}, "fps": {"num": 25, "den": 1}}, "perspective_c1_y": {"Points": [{"co": {"X": 1.0, "Y": -1.0}, "interpolation": 2}]}, "anchor": 0, "crop_height": {"Points": [{"co": {"X": 1.0, "Y": -1.0}, "interpolation": 2}]}, "effects": [], "duration": 60.0, "crop_y": {"Points": [{"co": {"X": 1.0, "Y": 0.0}, "interpolation": 2}]}, "file_id": "RVOUXSUSEQ", "perspective_c2_y": {"Points": [{"co": {"X": 1.0, "Y": -1.0}, "interpolation": 2}]}, "alpha": {"Points": [{"co": {"X": 1.0, "Y": 1.0}, "interpolation": 2}]}, "rotation": {"Points": [{"co": {"X": 1.0, "Y": 0.0}, "interpolation": 2}]}, "id": "5SL6Z206WO", "has_audio": {"Points": [{"co": {"X": 1.0, "Y": -1.0}, "interpolation": 2}]}, "crop_x": {"Points": [{"co": {"X": 1.0, "Y": 0.0}, "interpolation": 2}]}, "position": 72, "perspective_c3_y": {"Points": [{"co": {"X": 1.0, "Y": -1.0}, "interpolation": 2}]}, "time": {"Points": [{"co": {"X": 1.0, "Y": 1.0}, "interpolation": 1}, {"co": {"X": 1483.0, "Y": 5929.0}, "interpolation": 1}]}, "wave_color": {"blue": {"Points": [{"co": {"X": 1.0, "Y": 255.0}, "handle_right": {"X": 0.5, "Y": 0.0}, "handle_type": 0, "handle_left": {"X": 0.5, "Y": 1.0}, "interpolation": 0}]}, "alpha": {"Points": [{"co": {"X": 1.0, "Y": 255.0}, "handle_right": {"X": 0.5, "Y": 0.0}, "handle_type": 0, "handle_left": {"X": 0.5, "Y": 1.0}, "interpolation": 0}]}, "green": {"Points": [{"co": {"X": 1.0, "Y": 123.0}, "handle_right": {"X": 0.5, "Y": 0.0}, "handle_type": 0, "handle_left": {"X": 0.5, "Y": 1.0}, "interpolation": 0}]}, "red": {"Points": [{"co": {"X": 1.0, "Y": 0.0}, "handle_right": {"X": 0.5, "Y": 0.0}, "handle_type": 0, "handle_left": {"X": 0.5, "Y": 1.0}, "interpolation": 0}]}}, "channel_mapping": {"Points": [{"co": {"X": 1.0, "Y": -1.0}, "interpolation": 2}]}, "scale": 1, "has_video": {"Points": [{"co": {"X": 1.0, "Y": -1.0}, "interpolation": 2}]}, "start": 0, "perspective_c3_x": {"Points": [{"co": {"X": 1.0, "Y": -1.0}, "interpolation": 2}]}, "end": 61.791666666666664, "perspective_c4_y": {"Points": [{"co": {"X": 1.0, "Y": -1.0}, "interpolation": 2}]}, "perspective_c2_x": {"Points": [{"co": {"X": 1.0, "Y": -1.0}, "interpolation": 2}]}, "title": "Demo-04-Lecture Entry-Clash remove and Demo TT.mkv", "waveform": false, "volume": {"Points": [{"co": {"X": 1.0, "Y": 1.0}, "interpolation": 2}]}, "image": "../../../.openshot_qt/thumbnail/RVOUXSUSEQ.png", "crop_width": {"Points": [{"co": {"X": 1.0, "Y": -1.0}, "interpolation": 2}]}, "scale_x": {"Points": [{"co": {"X": 1.0, "Y": 1.0}, "interpolation": 2}]}, "location_x": {"Points": [{"co": {"X": 1.0, "Y": 0.0}, "interpolation": 2}]}, "gravity": 4, "perspective_c1_x": {"Points": [{"co": {"X": 1.0, "Y": -1.0}, "interpolation": 2}]}, "shear_x": {"Points": [{"co": {"X": 1.0, "Y": 0.0}, "interpolation": 2}]}, "location_y": {"Points": [{"co": {"X": 1.0, "Y": 0.0}, "interpolation": 2}]}, "shear_y": {"Points": [{"co": {"X": 1.0, "Y": 0.0}, "interpolation": 2}]}, "display": 0, "scale_y": {"Points": [{"co": {"X": 1.0, "Y": 1.0}, "interpolation": 2}]}, "perspective_c4_x": {"Points": [{"co": {"X": 1.0, "Y": -1.0}, "interpolation": 2}]}}, {"channel_filter": {"Points": [{"co": {"X": 1.0, "Y": -1.0}, "interpolation": 2}]}, "layer": 4, "reader": {"video_stream_index": 0, "audio_stream_index": -1, "pixel_format": 0, "audio_bit_rate": 0, "path": "Demo-05-Slitt Class or Splitt lectures.mkv", "top_field_first": true, "type": "FFmpegReader", "video_length": "1025", "width": 1366, "audio_timebase": {"num": 1, "den": 1}, "vcodec": "h264", "duration": 41.0, "height": 768, "acodec": "", "video_bit_rate": 0, "has_single_image": false, "channel_layout": 4, "channels": 0, "has_audio": false, "interlaced_frame": false, "pixel_ratio": {"num": 1, "den": 1}, "sample_rate": 0, "file_size": "783366", "video_timebase": {"num": 1, "den": 1000}, "has_video": true, "display_ratio": {"num": 683, "den": 384}, "fps": {"num": 25, "den": 1}}, "perspective_c1_y": {"Points": [{"co": {"X": 1.0, "Y": -1.0}, "interpolation": 2}]}, "anchor": 0, "crop_height": {"Points": [{"co": {"X": 1.0, "Y": -1.0}, "interpolation": 2}]}, "effects": [], "duration": 41.0, "crop_y": {"Points": [{"co": {"X": 1.0, "Y": 0.0}, "interpolation": 2}]}, "file_id": "SJFW0PSRLB", "perspective_c2_y": {"Points": [{"co": {"X": 1.0, "Y": -1.0}, "interpolation": 2}]}, "alpha": {"Points": [{"co": {"X": 1.0, "Y": 1.0}, "interpolation": 2}]}, "rotation": {"Points": [{"co": {"X": 1.0, "Y": 0.0}, "interpolation": 2}]}, "id": "6XKH2CVO13", "has_audio": {"Points": [{"co": {"X": 1.0, "Y": -1.0}, "interpolation": 2}]}, "crop_x": {"Points": [{"co": {"X": 1.0, "Y": 0.0}, "interpolation": 2}]}, "position": 133.7, "perspective_c3_y": {"Points": [{"co": {"X": 1.0, "Y": -1.0}, "interpolation": 2}]}, "time": {"Points": [{"co": {"X": 1.0, "Y": 1.0}, "interpolation": 2}]}, "wave_color": {"blue": {"Points": [{"co": {"X": 1.0, "Y": 255.0}, "handle_right": {"X": 0.5, "Y": 0.0}, "handle_type": 0, "handle_left": {"X": 0.5, "Y": 1.0}, "interpolation": 0}]}, "alpha": {"Points": [{"co": {"X": 1.0, "Y": 255.0}, "handle_right": {"X": 0.5, "Y": 0.0}, "handle_type": 0, "handle_left": {"X": 0.5, "Y": 1.0}, "interpolation": 0}]}, "green": {"Points": [{"co": {"X": 1.0, "Y": 123.0}, "handle_right": {"X": 0.5, "Y": 0.0}, "handle_type": 0, "handle_left": {"X": 0.5, "Y": 1.0}, "interpolation": 0}]}, "red": {"Points": [{"co": {"X": 1.0, "Y": 0.0}, "handle_right": {"X": 0.5, "Y": 0.0}, "handle_type": 0, "handle_left": {"X": 0.5, "Y": 1.0}, "interpolation": 0}]}}, "channel_mapping": {"Points": [{"co": {"X": 1.0, "Y": -1.0}, "interpolation": 2}]}, "scale": 1, "has_video": {"Points": [{"co": {"X": 1.0, "Y": -1.0}, "interpolation": 2}]}, "start": 0, "perspective_c3_x": {"Points": [{"co": {"X": 1.0, "Y": -1.0}, "interpolation": 2}]}, "end": 36.84166666666667, "perspective_c4_y": {"Points": [{"co": {"X": 1.0, "Y": -1.0}, "interpolation": 2}]}, "perspective_c2_x": {"Points": [{"co": {"X": 1.0, "Y": -1.0}, "interpolation": 2}]}, "title": "Demo-05-Slitt Class or Splitt lectures.mkv", "waveform": false, "volume": {"Points": [{"co": {"X": 1.0, "Y": 1.0}, "interpolation": 2}]}, "image": "../../../.openshot_qt/thumbnail/SJFW0PSRLB.png", "crop_width": {"Points": [{"co": {"X": 1.0, "Y": -1.0}, "interpolation": 2}]}, "scale_x": {"Points": [{"co": {"X": 1.0, "Y": 1.0}, "interpolation": 2}]}, "location_x": {"Points": [{"co": {"X": 1.0, "Y": 0.0}, "interpolation": 2}]}, "gravity": 4, "perspective_c1_x": {"Points": [{"co": {"X": 1.0, "Y": -1.0}, "interpolation": 2}]}, "shear_x": {"Points": [{"co": {"X": 1.0, "Y": 0.0}, "interpolation": 2}]}, "location_y": {"Points": [{"co": {"X": 1.0, "Y": 0.0}, "interpolation": 2}]}, "shear_y": {"Points": [{"co": {"X": 1.0, "Y": 0.0}, "interpolation": 2}]}, "display": 0, "scale_y": {"Points": [{"co": {"X": 1.0, "Y": 1.0}, "interpolation": 2}]}, "perspective_c4_x": {"Points": [{"co": {"X": 1.0, "Y": -1.0}, "interpolation": 2}]}}, {"channel_filter": {"Points": [{"co": {"X": 1.0, "Y": -1.0}, "interpolation": 2}]}, "layer": 4, "reader": {"video_stream_index": 0, "audio_stream_index": -1, "pixel_format": 0, "audio_bit_rate": 0, "path": "Demo-06-Set School Name.mkv", "top_field_first": true, "type": "FFmpegReader", "video_length": "600", "width": 1366, "audio_timebase": {"num": 1, "den": 1}, "vcodec": "h264", "duration": 24.0, "height": 768, "acodec": "", "video_bit_rate": 0, "has_single_image": false, "channel_layout": 4, "channels": 0, "has_audio": false, "interlaced_frame": false, "pixel_ratio": {"num": 1, "den": 1}, "sample_rate": 0, "file_size": "404652", "video_timebase": {"num": 1, "den": 1000}, "has_video": true, "display_ratio": {"num": 683, "den": 384}, "fps": {"num": 25, "den": 1}}, "perspective_c1_y": {"Points": [{"co": {"X": 1.0, "Y": -1.0}, "interpolation": 2}]}, "anchor": 0, "crop_height": {"Points": [{"co": {"X": 1.0, "Y": -1.0}, "interpolation": 2}]}, "effects": [], "duration": 24.0, "crop_y": {"Points": [{"co": {"X": 1.0, "Y": 0.0}, "interpolation": 2}]}, "file_id": "O8MDU83AZY", "perspective_c2_y": {"Points": [{"co": {"X": 1.0, "Y": -1.0}, "interpolation": 2}]}, "alpha": {"Points": [{"co": {"X": 1.0, "Y": 1.0}, "interpolation": 2}]}, "rotation": {"Points": [{"co": {"X": 1.0, "Y": 0.0}, "interpolation": 2}]}, "id": "QQCSZWQUN1", "has_audio": {"Points": [{"co": {"X": 1.0, "Y": -1.0}, "interpolation": 2}]}, "crop_x": {"Points": [{"co": {"X": 1.0, "Y": 0.0}, "interpolation": 2}]}, "position": 170.5, "perspective_c3_y": {"Points": [{"co": {"X": 1.0, "Y": -1.0}, "interpolation": 2}]}, "time": {"Points": [{"co": {"X": 1.0, "Y": 1.0}, "interpolation": 2}]}, "wave_color": {"blue": {"Points": [{"co": {"X": 1.0, "Y": 255.0}, "handle_right": {"X": 0.5, "Y": 0.0}, "handle_type": 0, "handle_left": {"X": 0.5, "Y": 1.0}, "interpolation": 0}]}, "alpha": {"Points": [{"co": {"X": 1.0, "Y": 255.0}, "handle_right": {"X": 0.5, "Y": 0.0}, "handle_type": 0, "handle_left": {"X": 0.5, "Y": 1.0}, "interpolation": 0}]}, "green": {"Points": [{"co": {"X": 1.0, "Y": 123.0}, "handle_right": {"X": 0.5, "Y": 0.0}, "handle_type": 0, "handle_left": {"X": 0.5, "Y": 1.0}, "interpolation": 0}]}, "red": {"Points": [{"co": {"X": 1.0, "Y": 0.0}, "handle_right": {"X": 0.5, "Y": 0.0}, "handle_type": 0, "handle_left": {"X": 0.5, "Y": 1.0}, "interpolation": 0}]}}, "channel_mapping": {"Points": [{"co": {"X": 1.0, "Y": -1.0}, "interpolation": 2}]}, "scale": 1, "has_video": {"Points": [{"co": {"X": 1.0, "Y": -1.0}, "interpolation": 2}]}, "start": 0, "perspective_c3_x": {"Points": [{"co": {"X": 1.0, "Y": -1.0}, "interpolation": 2}]}, "end": 19.083333333333343, "perspective_c4_y": {"Points": [{"co": {"X": 1.0, "Y": -1.0}, "interpolation": 2}]}, "perspective_c2_x": {"Points": [{"co": {"X": 1.0, "Y": -1.0}, "interpolation": 2}]}, "title": "Demo-06-Set School Name.mkv", "waveform": false, "volume": {"Points": [{"co": {"X": 1.0, "Y": 1.0}, "interpolation": 2}]}, "image": "../../../.openshot_qt/thumbnail/O8MDU83AZY.png", "crop_width": {"Points": [{"co": {"X": 1.0, "Y": -1.0}, "interpolation": 2}]}, "scale_x": {"Points": [{"co": {"X": 1.0, "Y": 1.0}, "interpolation": 2}]}, "location_x": {"Points": [{"co": {"X": 1.0, "Y": 0.0}, "interpolation": 2}]}, "gravity": 4, "perspective_c1_x": {"Points": [{"co": {"X": 1.0, "Y": -1.0}, "interpolation": 2}]}, "shear_x": {"Points": [{"co": {"X": 1.0, "Y": 0.0}, "interpolation": 2}]}, "location_y": {"Points": [{"co": {"X": 1.0, "Y": 0.0}, "interpolation": 2}]}, "shear_y": {"Points": [{"co": {"X": 1.0, "Y": 0.0}, "interpolation": 2}]}, "display": 0, "scale_y": {"Points": [{"co": {"X": 1.0, "Y": 1.0}, "interpolation": 2}]}, "perspective_c4_x": {"Points": [{"co": {"X": 1.0, "Y": -1.0}, "interpolation": 2}]}}, {"channel_filter": {"Points": [{"co": {"X": 1.0, "Y": -1.0}, "interpolation": 2}]}, "layer": 4, "reader": {"video_stream_index": 0, "audio_stream_index": -1, "pixel_format": 0, "audio_bit_rate": 0, "path": "Demo-07-SetPrinter and Print Current.mkv", "top_field_first": true, "type": "FFmpegReader", "video_length": "1650", "width": 1366, "audio_timebase": {"num": 1, "den": 1}, "vcodec": "h264", "duration": 66.0, "height": 768, "acodec": "", "video_bit_rate": 0, "has_single_image": false, "channel_layout": 4, "channels": 0, "has_audio": false, "interlaced_frame": false, "pixel_ratio": {"num": 1, "den": 1}, "sample_rate": 0, "file_size": "1142597", "video_timebase": {"num": 1, "den": 1000}, "has_video": true, "display_ratio": {"num": 683, "den": 384}, "fps": {"num": 25, "den": 1}}, "perspective_c1_y": {"Points": [{"co": {"X": 1.0, "Y": -1.0}, "interpolation": 2}]}, "anchor": 0, "crop_height": {"Points": [{"co": {"X": 1.0, "Y": -1.0}, "interpolation": 2}]}, "effects": [], "duration": 32.0, "crop_y": {"Points": [{"co": {"X": 1.0, "Y": 0.0}, "interpolation": 2}]}, "file_id": "8BO13HSLCT", "perspective_c2_y": {"Points": [{"co": {"X": 1.0, "Y": -1.0}, "interpolation": 2}]}, "alpha": {"Points": [{"co": {"X": 1.0, "Y": 1.0}, "interpolation": 2}]}, "rotation": {"Points": [{"co": {"X": 1.0, "Y": 0.0}, "interpolation": 2}]}, "id": "BPQZZB1IGM", "has_audio": {"Points": [{"co": {"X": 1.0, "Y": -1.0}, "interpolation": 2}]}, "crop_x": {"Points": [{"co": {"X": 1.0, "Y": 0.0}, "interpolation": 2}]}, "position": 189.5, "perspective_c3_y": {"Points": [{"co": {"X": 1.0, "Y": -1.0}, "interpolation": 2}]}, "time": {"Points": [{"co": {"X": 1.0, "Y": 1.0}, "interpolation": 1}, {"co": {"X": 793.0, "Y": 1585.0}, "interpolation": 1}]}, "wave_color": {"blue": {"Points": [{"co": {"X": 1.0, "Y": 255.0}, "handle_right": {"X": 0.5, "Y": 0.0}, "handle_left": {"X": 0.5, "Y": 1.0}, "handle_type": 0, "interpolation": 0}]}, "alpha": {"Points": [{"co": {"X": 1.0, "Y": 255.0}, "handle_right": {"X": 0.5, "Y": 0.0}, "handle_left": {"X": 0.5, "Y": 1.0}, "handle_type": 0, "interpolation": 0}]}, "green": {"Points": [{"co": {"X": 1.0, "Y": 123.0}, "handle_right": {"X": 0.5, "Y": 0.0}, "handle_left": {"X": 0.5, "Y": 1.0}, "handle_type": 0, "interpolation": 0}]}, "red": {"Points": [{"co": {"X": 1.0, "Y": 0.0}, "handle_right": {"X": 0.5, "Y": 0.0}, "handle_left": {"X": 0.5, "Y": 1.0}, "handle_type": 0, "interpolation": 0}]}}, "channel_mapping": {"Points": [{"co": {"X": 1.0, "Y": -1.0}, "interpolation": 2}]}, "scale": 1, "has_video": {"Points": [{"co": {"X": 1.0, "Y": -1.0}, "interpolation": 2}]}, "start": 0, "perspective_c3_x": {"Points": [{"co": {"X": 1.0, "Y": -1.0}, "interpolation": 2}]}, "end": 28.333333333333343, "perspective_c4_y": {"Points": [{"co": {"X": 1.0, "Y": -1.0}, "interpolation": 2}]}, "perspective_c2_x": {"Points": [{"co": {"X": 1.0, "Y": -1.0}, "interpolation": 2}]}, "title": "Demo-07-SetPrinter and Print Current.mkv", "waveform": false, "volume": {"Points": [{"co": {"X": 1.0, "Y": 1.0}, "interpolation": 2}]}, "image": "../../../.openshot_qt/thumbnail/8BO13HSLCT.png", "crop_width": {"Points": [{"co": {"X": 1.0, "Y": -1.0}, "interpolation": 2}]}, "scale_x": {"Points": [{"co": {"X": 1.0, "Y": 1.0}, "interpolation": 2}]}, "location_x": {"Points": [{"co": {"X": 1.0, "Y": 0.0}, "interpolation": 2}]}, "gravity": 4, "perspective_c1_x": {"Points": [{"co": {"X": 1.0, "Y": -1.0}, "interpolation": 2}]}, "shear_x": {"Points": [{"co": {"X": 1.0, "Y": 0.0}, "interpolation": 2}]}, "location_y": {"Points": [{"co": {"X": 1.0, "Y": 0.0}, "interpolation": 2}]}, "shear_y": {"Points": [{"co": {"X": 1.0, "Y": 0.0}, "interpolation": 2}]}, "display": 0, "scale_y": {"Points": [{"co": {"X": 1.0, "Y": 1.0}, "interpolation": 2}]}, "perspective_c4_x": {"Points": [{"co": {"X": 1.0, "Y": -1.0}, "interpolation": 2}]}}], "0": null, "sample_rate": 44100, "files": [{"video_stream_index": 0, "audio_stream_index": -1, "top_field_first": true, "audio_bit_rate": 0, "path": "Demo-02-Adding Time-Class Slots.mkv", "type": "FFmpegReader", "video_length": "1900", "width": 1366, "audio_timebase": {"num": 1, "den": 1}, "channels": 0, "media_type": "video", "duration": 76.0, "height": 768, "acodec": "", "video_bit_rate": 0, "has_single_image": false, "pixel_format": 0, "channel_layout": 4, "id": "8AMXXS1INM", "has_audio": false, "interlaced_frame": false, "vcodec": "h264", "pixel_ratio": {"num": 1, "den": 1}, "sample_rate": 0, "file_size": "502317", "video_timebase": {"num": 1, "den": 1000}, "has_video": true, "display_ratio": {"num": 683, "den": 384}, "fps": {"num": 25, "den": 1}}, {"video_stream_index": 0, "audio_stream_index": -1, "top_field_first": true, "audio_bit_rate": 0, "path": "Demo-03-Renaming copy pasted Time-Slots.mkv", "type": "FFmpegReader", "video_length": "525", "width": 1366, "audio_timebase": {"num": 1, "den": 1}, "channels": 0, "media_type": "video", "duration": 21.0, "height": 768, "acodec": "", "video_bit_rate": 0, "has_single_image": false, "pixel_format": 0, "channel_layout": 4, "id": "FUP4DCVZ3U", "has_audio": false, "interlaced_frame": false, "vcodec": "h264", "pixel_ratio": {"num": 1, "den": 1}, "sample_rate": 0, "file_size": "191199", "video_timebase": {"num": 1, "den": 1000}, "has_video": true, "display_ratio": {"num": 683, "den": 384}, "fps": {"num": 25, "den": 1}}, {"video_stream_index": -1, "audio_stream_index": -1, "top_field_first": true, "audio_bit_rate": 0, "path": "assets/TitleFileName-1.svg", "type": "QtImageReader", "video_length": "2592000", "width": 1920, "audio_timebase": {"num": 1, "den": 1}, "channels": 0, "media_type": "image", "duration": 86400.0, "height": 1080, "acodec": "", "video_bit_rate": 0, "has_single_image": true, "pixel_format": -1, "channel_layout": 4, "id": "YMAWWUI3BI", "has_audio": false, "interlaced_frame": false, "vcodec": "", "pixel_ratio": {"num": 1, "den": 1}, "sample_rate": 0, "file_size": "8294400", "video_timebase": {"num": 1, "den": 30}, "has_video": true, "display_ratio": {"num": 16, "den": 9}, "fps": {"num": 30, "den": 1}}, {"video_stream_index": -1, "audio_stream_index": -1, "pixel_format": -1, "audio_bit_rate": 0, "path": "assets/TitleFileName-1.svg", "top_field_first": true, "type": "QtImageReader", "video_length": "2592000", "width": 1920, "audio_timebase": {"num": 1, "den": 1}, "vcodec": "", "media_type": "image", "duration": 86400.0, "height": 1080, "acodec": "", "video_bit_rate": 0, "has_single_image": true, "channel_layout": 4, "channels": 0, "has_audio": false, "interlaced_frame": false, "id": "IFD313JPZZ", "pixel_ratio": {"num": 1, "den": 1}, "sample_rate": 0, "file_size": "8294400", "video_timebase": {"num": 1, "den": 30}, "has_video": true, "display_ratio": {"num": 16, "den": 9}, "fps": {"num": 30, "den": 1}}, {"video_stream_index": 0, "audio_stream_index": -1, "pixel_format": 0, "audio_bit_rate": 0, "path": "Demo-04-Lecture Entry-Clash remove and Demo TT.mkv", "top_field_first": true, "type": "FFmpegReader", "video_length": "6175", "width": 1366, "audio_timebase": {"num": 1, "den": 1}, "vcodec": "h264", "media_type": "video", "duration": 247.0, "height": 768, "acodec": "", "video_bit_rate": 0, "has_single_image": false, "channel_layout": 4, "channels": 0, "has_audio": false, "interlaced_frame": false, "id": "RVOUXSUSEQ", "pixel_ratio": {"num": 1, "den": 1}, "sample_rate": 0, "file_size": "2541542", "video_timebase": {"num": 1, "den": 1000}, "has_video": true, "display_ratio": {"num": 683, "den": 384}, "fps": {"num": 25, "den": 1}}, {"video_stream_index": 0, "audio_stream_index": -1, "pixel_format": 0, "audio_bit_rate": 0, "path": "Demo-05-Slitt Class or Splitt lectures.mkv", "top_field_first": true, "type": "FFmpegReader", "video_length": "1025", "width": 1366, "audio_timebase": {"num": 1, "den": 1}, "vcodec": "h264", "media_type": "video", "duration": 41.0, "height": 768, "acodec": "", "video_bit_rate": 0, "has_single_image": false, "channel_layout": 4, "channels": 0, "has_audio": false, "interlaced_frame": false, "id": "SJFW0PSRLB", "pixel_ratio": {"num": 1, "den": 1}, "sample_rate": 0, "file_size": "783366", "video_timebase": {"num": 1, "den": 1000}, "has_video": true, "display_ratio": {"num": 683, "den": 384}, "fps": {"num": 25, "den": 1}}, {"video_stream_index": 0, "audio_stream_index": -1, "pixel_format": 0, "audio_bit_rate": 0, "path": "Demo-06-Set School Name.mkv", "top_field_first": true, "type": "FFmpegReader", "video_length": "600", "width": 1366, "audio_timebase": {"num": 1, "den": 1}, "vcodec": "h264", "media_type": "video", "duration": 24.0, "height": 768, "acodec": "", "video_bit_rate": 0, "has_single_image": false, "channel_layout": 4, "channels": 0, "has_audio": false, "interlaced_frame": false, "id": "O8MDU83AZY", "pixel_ratio": {"num": 1, "den": 1}, "sample_rate": 0, "file_size": "404652", "video_timebase": {"num": 1, "den": 1000}, "has_video": true, "display_ratio": {"num": 683, "den": 384}, "fps": {"num": 25, "den": 1}}, {"video_stream_index": 0, "audio_stream_index": -1, "pixel_format": 0, "audio_bit_rate": 0, "path": "Demo-07-SetPrinter and Print Current.mkv", "top_field_first": true, "type": "FFmpegReader", "video_length": "1650", "width": 1366, "audio_timebase": {"num": 1, "den": 1}, "vcodec": "h264", "media_type": "video", "duration": 66.0, "height": 768, "acodec": "", "video_bit_rate": 0, "has_single_image": false, "channel_layout": 4, "channels": 0, "has_audio": false, "interlaced_frame": false, "id": "8BO13HSLCT", "pixel_ratio": {"num": 1, "den": 1}, "sample_rate": 0, "file_size": "1142597", "video_timebase": {"num": 1, "den": 1000}, "has_video": true, "display_ratio": {"num": 683, "den": 384}, "fps": {"num": 25, "den": 1}}], "scale": 10, "tick_pixels": 100, "height": 720, "markers": [{"id": "GOOQSDNSGT", "icon": "blue.png", "position": 0.041666666666666664}, {"id": "CFKMFPXWUN", "icon": "blue.png", "position": 0.041666666666666664}, {"id": "RA9JXZMETJ", "icon": "blue.png", "position": 0.041666666666666664}, {"id": "Q3SJ749DNC", "icon": "blue.png", "position": 0.041666666666666664}, {"id": "KUIHS0KLC5", "icon": "blue.png", "position": 0.041666666666666664}, {"id": "5HWVG9QYGN", "icon": "blue.png", "position": 0.041666666666666664}, {"id": "0EOIXRLJ22", "icon": "blue.png", "position": 0.041666666666666664}], "fps": {"num": 24, "den": 1}}