{"version": {"openshot-qt": "2.4.1", "libopenshot": "0.1.9"}, "files": [{"pixel_format": 0, "id": "8AMXXS1INM", "top_field_first": true, "pixel_ratio": {"num": 1, "den": 1}, "video_bit_rate": 0, "channels": 0, "video_stream_index": 0, "interlaced_frame": false, "path": "Demo-02-Adding Time-Class Slots.mkv", "audio_stream_index": -1, "display_ratio": {"num": 683, "den": 384}, "has_single_image": false, "audio_timebase": {"num": 1, "den": 1}, "vcodec": "h264", "video_length": "1900", "height": 768, "channel_layout": 4, "fps": {"num": 25, "den": 1}, "audio_bit_rate": 0, "media_type": "video", "acodec": "", "has_video": true, "file_size": "502317", "type": "FFmpegReader", "duration": 76.0, "video_timebase": {"num": 1, "den": 1000}, "has_audio": false, "sample_rate": 0, "width": 1366}, {"pixel_format": 0, "id": "FUP4DCVZ3U", "top_field_first": true, "pixel_ratio": {"num": 1, "den": 1}, "video_bit_rate": 0, "channels": 0, "video_stream_index": 0, "interlaced_frame": false, "path": "Demo-03-Renaming copy pasted Time-Slots.mkv", "audio_stream_index": -1, "display_ratio": {"num": 683, "den": 384}, "has_single_image": false, "audio_timebase": {"num": 1, "den": 1}, "vcodec": "h264", "video_length": "525", "height": 768, "channel_layout": 4, "fps": {"num": 25, "den": 1}, "audio_bit_rate": 0, "media_type": "video", "acodec": "", "has_video": true, "file_size": "191199", "type": "FFmpegReader", "duration": 21.0, "video_timebase": {"num": 1, "den": 1000}, "has_audio": false, "sample_rate": 0, "width": 1366}, {"pixel_format": 0, "id": "RVOUXSUSEQ", "top_field_first": true, "pixel_ratio": {"num": 1, "den": 1}, "video_bit_rate": 0, "channels": 0, "video_stream_index": 0, "interlaced_frame": false, "path": "Demo-04-Lecture Entry-Clash remove and Demo TT.mkv", "audio_stream_index": -1, "display_ratio": {"num": 683, "den": 384}, "has_single_image": false, "audio_timebase": {"num": 1, "den": 1}, "vcodec": "h264", "video_length": "6175", "height": 768, "channel_layout": 4, "fps": {"num": 25, "den": 1}, "audio_bit_rate": 0, "media_type": "video", "acodec": "", "has_video": true, "file_size": "2541542", "type": "FFmpegReader", "duration": 247.0, "video_timebase": {"num": 1, "den": 1000}, "has_audio": false, "sample_rate": 0, "width": 1366}, {"pixel_format": 0, "id": "SJFW0PSRLB", "top_field_first": true, "pixel_ratio": {"num": 1, "den": 1}, "video_bit_rate": 0, "channels": 0, "video_stream_index": 0, "interlaced_frame": false, "path": "Demo-05-Slitt Class or Splitt lectures.mkv", "audio_stream_index": -1, "display_ratio": {"num": 683, "den": 384}, "has_single_image": false, "audio_timebase": {"num": 1, "den": 1}, "vcodec": "h264", "video_length": "1025", "height": 768, "channel_layout": 4, "fps": {"num": 25, "den": 1}, "audio_bit_rate": 0, "media_type": "video", "acodec": "", "has_video": true, "file_size": "783366", "type": "FFmpegReader", "duration": 41.0, "video_timebase": {"num": 1, "den": 1000}, "has_audio": false, "sample_rate": 0, "width": 1366}, {"pixel_format": 0, "id": "O8MDU83AZY", "top_field_first": true, "pixel_ratio": {"num": 1, "den": 1}, "video_bit_rate": 0, "channels": 0, "video_stream_index": 0, "interlaced_frame": false, "path": "Demo-06-Set School Name.mkv", "audio_stream_index": -1, "display_ratio": {"num": 683, "den": 384}, "has_single_image": false, "audio_timebase": {"num": 1, "den": 1}, "vcodec": "h264", "video_length": "600", "height": 768, "channel_layout": 4, "fps": {"num": 25, "den": 1}, "audio_bit_rate": 0, "media_type": "video", "acodec": "", "has_video": true, "file_size": "404652", "type": "FFmpegReader", "duration": 24.0, "video_timebase": {"num": 1, "den": 1000}, "has_audio": false, "sample_rate": 0, "width": 1366}, {"pixel_format": 0, "id": "8BO13HSLCT", "top_field_first": true, "pixel_ratio": {"num": 1, "den": 1}, "video_bit_rate": 0, "channels": 0, "video_stream_index": 0, "interlaced_frame": false, "path": "Demo-07-SetPrinter and Print Current.mkv", "audio_stream_index": -1, "display_ratio": {"num": 683, "den": 384}, "has_single_image": false, "audio_timebase": {"num": 1, "den": 1}, "vcodec": "h264", "video_length": "1650", "height": 768, "channel_layout": 4, "fps": {"num": 25, "den": 1}, "audio_bit_rate": 0, "media_type": "video", "acodec": "", "has_video": true, "file_size": "1142597", "type": "FFmpegReader", "duration": 66.0, "video_timebase": {"num": 1, "den": 1000}, "has_audio": false, "sample_rate": 0, "width": 1366}, {"pixel_format": -1, "id": "FQIXCNMEB9", "top_field_first": true, "pixel_ratio": {"num": 1, "den": 1}, "video_bit_rate": 0, "channels": 0, "video_stream_index": -1, "interlaced_frame": false, "path": "assets/TitleFileName-3.svg", "audio_stream_index": -1, "display_ratio": {"num": 16, "den": 9}, "has_single_image": true, "audio_timebase": {"num": 1, "den": 1}, "vcodec": "", "video_length": "2592000", "height": 1080, "channel_layout": 4, "fps": {"num": 30, "den": 1}, "audio_bit_rate": 0, "media_type": "image", "acodec": "", "has_video": true, "file_size": "8294400", "type": "QtImageReader", "duration": 86400.0, "video_timebase": {"num": 1, "den": 30}, "has_audio": false, "sample_rate": 0, "width": 1920}, {"pixel_format": -1, "id": "035S9FEBR2", "top_field_first": true, "pixel_ratio": {"num": 1, "den": 1}, "video_bit_rate": 0, "channels": 0, "video_stream_index": -1, "interlaced_frame": false, "path": "assets/Title-Start.svg", "audio_stream_index": -1, "display_ratio": {"num": 16, "den": 9}, "has_single_image": true, "audio_timebase": {"num": 1, "den": 1}, "vcodec": "", "video_length": "2592000", "height": 1080, "channel_layout": 4, "fps": {"num": 30, "den": 1}, "audio_bit_rate": 0, "media_type": "image", "acodec": "", "has_video": true, "file_size": "8294400", "type": "QtImageReader", "duration": 86400.0, "video_timebase": {"num": 1, "den": 30}, "has_audio": false, "sample_rate": 0, "width": 1920}, {"pixel_format": -1, "id": "YB8WHQZUJE", "audio_timebase": {"num": 1, "den": 1}, "pixel_ratio": {"num": 1, "den": 1}, "video_bit_rate": 0, "channels": 0, "video_stream_index": -1, "interlaced_frame": false, "path": "assets/ILUG-MSG.svg", "audio_stream_index": -1, "display_ratio": {"num": 40, "den": 23}, "has_single_image": true, "top_field_first": true, "vcodec": "", "video_length": "2592000", "height": 1104, "channel_layout": 4, "fps": {"num": 30, "den": 1}, "audio_bit_rate": 0, "acodec": "", "type": "QtImageReader", "has_video": true, "file_size": "8478720", "media_type": "image", "duration": 86400.0, "video_timebase": {"num": 1, "den": 30}, "has_audio": false, "sample_rate": 0, "width": 1920}, {"pixel_format": -1, "id": "7WISDFXLOD", "audio_timebase": {"num": 1, "den": 1}, "pixel_ratio": {"num": 1, "den": 1}, "video_bit_rate": 0, "channels": 0, "video_stream_index": -1, "interlaced_frame": false, "path": "assets/closing.svg", "audio_stream_index": -1, "display_ratio": {"num": 40, "den": 23}, "has_single_image": true, "top_field_first": true, "vcodec": "", "video_length": "2592000", "height": 1104, "channel_layout": 4, "fps": {"num": 30, "den": 1}, "audio_bit_rate": 0, "acodec": "", "type": "QtImageReader", "has_video": true, "file_size": "8478720", "media_type": "image", "duration": 86400.0, "video_timebase": {"num": 1, "den": 30}, "has_audio": false, "sample_rate": 0, "width": 1920}], "0": null, "clips": [{"perspective_c2_y": {"Points": [{"interpolation": 2, "co": {"Y": -1.0, "X": 1.0}}]}, "location_x": {"Points": [{"interpolation": 2, "co": {"Y": 0.0, "X": 1.0}}]}, "alpha": {"Points": [{"interpolation": 2, "co": {"Y": 1.0, "X": 1.0}}, {"interpolation": 0, "co": {"Y": 0.0, "X": 1.0}, "handle_right": {"Y": 0.0, "X": 0.5}, "handle_left": {"Y": 1.0, "X": 0.5}, "handle_type": 0}, {"interpolation": 0, "co": {"Y": 1.0, "X": 73.0}, "handle_right": {"Y": 0.0, "X": 0.5}, "handle_left": {"Y": 1.0, "X": 0.5}, "handle_type": 0}, {"interpolation": 0, "co": {"Y": 1.0, "X": 790.0}, "handle_right": {"Y": 0.0, "X": 0.5}, "handle_left": {"Y": 1.0, "X": 0.5}, "handle_type": 0}, {"interpolation": 0, "co": {"Y": 0.0, "X": 862.0}, "handle_right": {"Y": 0.0, "X": 0.5}, "handle_left": {"Y": 1.0, "X": 0.5}, "handle_type": 0}]}, "title": "Demo-02-Adding Time-Class Slots.mkv", "channel_mapping": {"Points": [{"interpolation": 2, "co": {"Y": -1.0, "X": 1.0}}]}, "layer": 4, "end": 35.875, "id": "Z4ZIZQBYYY", "gravity": 4, "perspective_c1_x": {"Points": [{"interpolation": 2, "co": {"Y": -1.0, "X": 1.0}}]}, "scale": 1, "perspective_c2_x": {"Points": [{"interpolation": 2, "co": {"Y": -1.0, "X": 1.0}}]}, "image": "../.openshot_qt/thumbnail/8AMXXS1INM.png", "crop_x": {"Points": [{"interpolation": 2, "co": {"Y": 0.0, "X": 1.0}}]}, "position": 10, "shear_y": {"Points": [{"interpolation": 2, "co": {"Y": 0.0, "X": 1.0}}]}, "file_id": "8AMXXS1INM", "shear_x": {"Points": [{"interpolation": 2, "co": {"Y": 0.0, "X": 1.0}}]}, "channel_filter": {"Points": [{"interpolation": 2, "co": {"Y": -1.0, "X": 1.0}}]}, "wave_color": {"blue": {"Points": [{"interpolation": 0, "co": {"Y": 255.0, "X": 1.0}, "handle_right": {"Y": 0.0, "X": 0.5}, "handle_left": {"Y": 1.0, "X": 0.5}, "handle_type": 0}]}, "red": {"Points": [{"interpolation": 0, "co": {"Y": 0.0, "X": 1.0}, "handle_right": {"Y": 0.0, "X": 0.5}, "handle_left": {"Y": 1.0, "X": 0.5}, "handle_type": 0}]}, "green": {"Points": [{"interpolation": 0, "co": {"Y": 123.0, "X": 1.0}, "handle_right": {"Y": 0.0, "X": 0.5}, "handle_left": {"Y": 1.0, "X": 0.5}, "handle_type": 0}]}, "alpha": {"Points": [{"interpolation": 0, "co": {"Y": 255.0, "X": 1.0}, "handle_right": {"Y": 0.0, "X": 0.5}, "handle_left": {"Y": 1.0, "X": 0.5}, "handle_type": 0}]}}, "display": 0, "time": {"Points": [{"interpolation": 1, "co": {"Y": 1.0, "X": 1.0}}, {"interpolation": 1, "co": {"Y": 1721.0, "X": 861.0}}]}, "start": 0, "perspective_c3_y": {"Points": [{"interpolation": 2, "co": {"Y": -1.0, "X": 1.0}}]}, "location_y": {"Points": [{"interpolation": 2, "co": {"Y": 0.0, "X": 1.0}}]}, "crop_height": {"Points": [{"interpolation": 2, "co": {"Y": -1.0, "X": 1.0}}]}, "volume": {"Points": [{"interpolation": 2, "co": {"Y": 1.0, "X": 1.0}}]}, "rotation": {"Points": [{"interpolation": 2, "co": {"Y": 0.0, "X": 1.0}}]}, "has_video": {"Points": [{"interpolation": 2, "co": {"Y": -1.0, "X": 1.0}}]}, "effects": [], "scale_x": {"Points": [{"interpolation": 2, "co": {"Y": 1.0, "X": 1.0}}]}, "perspective_c1_y": {"Points": [{"interpolation": 2, "co": {"Y": -1.0, "X": 1.0}}]}, "crop_width": {"Points": [{"interpolation": 2, "co": {"Y": -1.0, "X": 1.0}}]}, "perspective_c4_y": {"Points": [{"interpolation": 2, "co": {"Y": -1.0, "X": 1.0}}]}, "perspective_c3_x": {"Points": [{"interpolation": 2, "co": {"Y": -1.0, "X": 1.0}}]}, "scale_y": {"Points": [{"interpolation": 2, "co": {"Y": 1.0, "X": 1.0}}]}, "anchor": 0, "perspective_c4_x": {"Points": [{"interpolation": 2, "co": {"Y": -1.0, "X": 1.0}}]}, "duration": 38.0, "reader": {"pixel_format": 0, "audio_timebase": {"num": 1, "den": 1}, "pixel_ratio": {"num": 1, "den": 1}, "video_bit_rate": 0, "channels": 0, "video_stream_index": 0, "interlaced_frame": false, "path": "Demo-02-Adding Time-Class Slots.mkv", "audio_stream_index": -1, "display_ratio": {"num": 683, "den": 384}, "has_single_image": false, "top_field_first": true, "vcodec": "h264", "video_length": "1900", "height": 768, "channel_layout": 4, "fps": {"num": 25, "den": 1}, "audio_bit_rate": 0, "acodec": "", "has_video": true, "file_size": "502317", "type": "FFmpegReader", "duration": 76.0, "video_timebase": {"num": 1, "den": 1000}, "has_audio": false, "sample_rate": 0, "width": 1366}, "has_audio": {"Points": [{"interpolation": 2, "co": {"Y": -1.0, "X": 1.0}}]}, "crop_y": {"Points": [{"interpolation": 2, "co": {"Y": 0.0, "X": 1.0}}]}, "waveform": false}, {"perspective_c2_y": {"Points": [{"interpolation": 2, "co": {"Y": -1.0, "X": 1.0}}]}, "location_x": {"Points": [{"interpolation": 2, "co": {"Y": 0.0, "X": 1.0}}]}, "alpha": {"Points": [{"interpolation": 2, "co": {"Y": 1.0, "X": 1.0}}, {"interpolation": 0, "co": {"Y": 0.0, "X": 1.0}, "handle_right": {"Y": 0.0, "X": 0.5}, "handle_left": {"Y": 1.0, "X": 0.5}, "handle_type": 0}, {"interpolation": 0, "co": {"Y": 1.0, "X": 73.0}, "handle_right": {"Y": 0.0, "X": 0.5}, "handle_left": {"Y": 1.0, "X": 0.5}, "handle_type": 0}, {"interpolation": 0, "co": {"Y": 1.0, "X": 317.0}, "handle_right": {"Y": 0.0, "X": 0.5}, "handle_left": {"Y": 1.0, "X": 0.5}, "handle_type": 0}, {"interpolation": 0, "co": {"Y": 0.0, "X": 389.0}, "handle_right": {"Y": 0.0, "X": 0.5}, "handle_left": {"Y": 1.0, "X": 0.5}, "handle_type": 0}]}, "title": "Demo-03-Renaming copy pasted Time-Slots.mkv", "channel_mapping": {"Points": [{"interpolation": 2, "co": {"Y": -1.0, "X": 1.0}}]}, "layer": 4, "end": 16.183333333333337, "id": "HUCJUHW5KR", "gravity": 4, "perspective_c1_x": {"Points": [{"interpolation": 2, "co": {"Y": -1.0, "X": 1.0}}]}, "scale": 1, "perspective_c2_x": {"Points": [{"interpolation": 2, "co": {"Y": -1.0, "X": 1.0}}]}, "image": "../.openshot_qt/thumbnail/FUP4DCVZ3U.png", "crop_x": {"Points": [{"interpolation": 2, "co": {"Y": 0.0, "X": 1.0}}]}, "position": 45.8, "shear_y": {"Points": [{"interpolation": 2, "co": {"Y": 0.0, "X": 1.0}}]}, "file_id": "FUP4DCVZ3U", "shear_x": {"Points": [{"interpolation": 2, "co": {"Y": 0.0, "X": 1.0}}]}, "channel_filter": {"Points": [{"interpolation": 2, "co": {"Y": -1.0, "X": 1.0}}]}, "wave_color": {"blue": {"Points": [{"interpolation": 0, "co": {"Y": 255.0, "X": 1.0}, "handle_right": {"Y": 0.0, "X": 0.5}, "handle_left": {"Y": 1.0, "X": 0.5}, "handle_type": 0}]}, "red": {"Points": [{"interpolation": 0, "co": {"Y": 0.0, "X": 1.0}, "handle_right": {"Y": 0.0, "X": 0.5}, "handle_left": {"Y": 1.0, "X": 0.5}, "handle_type": 0}]}, "green": {"Points": [{"interpolation": 0, "co": {"Y": 123.0, "X": 1.0}, "handle_right": {"Y": 0.0, "X": 0.5}, "handle_left": {"Y": 1.0, "X": 0.5}, "handle_type": 0}]}, "alpha": {"Points": [{"interpolation": 0, "co": {"Y": 255.0, "X": 1.0}, "handle_right": {"Y": 0.0, "X": 0.5}, "handle_left": {"Y": 1.0, "X": 0.5}, "handle_type": 0}]}}, "display": 0, "time": {"Points": [{"interpolation": 2, "co": {"Y": 1.0, "X": 1.0}}]}, "start": 0, "perspective_c3_y": {"Points": [{"interpolation": 2, "co": {"Y": -1.0, "X": 1.0}}]}, "location_y": {"Points": [{"interpolation": 2, "co": {"Y": 0.0, "X": 1.0}}]}, "crop_height": {"Points": [{"interpolation": 2, "co": {"Y": -1.0, "X": 1.0}}]}, "volume": {"Points": [{"interpolation": 2, "co": {"Y": 1.0, "X": 1.0}}]}, "rotation": {"Points": [{"interpolation": 2, "co": {"Y": 0.0, "X": 1.0}}]}, "has_video": {"Points": [{"interpolation": 2, "co": {"Y": -1.0, "X": 1.0}}]}, "effects": [], "scale_x": {"Points": [{"interpolation": 2, "co": {"Y": 1.0, "X": 1.0}}]}, "perspective_c1_y": {"Points": [{"interpolation": 2, "co": {"Y": -1.0, "X": 1.0}}]}, "crop_width": {"Points": [{"interpolation": 2, "co": {"Y": -1.0, "X": 1.0}}]}, "perspective_c4_y": {"Points": [{"interpolation": 2, "co": {"Y": -1.0, "X": 1.0}}]}, "perspective_c3_x": {"Points": [{"interpolation": 2, "co": {"Y": -1.0, "X": 1.0}}]}, "scale_y": {"Points": [{"interpolation": 2, "co": {"Y": 1.0, "X": 1.0}}]}, "anchor": 0, "perspective_c4_x": {"Points": [{"interpolation": 2, "co": {"Y": -1.0, "X": 1.0}}]}, "duration": 21.0, "reader": {"pixel_format": 0, "audio_timebase": {"num": 1, "den": 1}, "pixel_ratio": {"num": 1, "den": 1}, "video_bit_rate": 0, "channels": 0, "video_stream_index": 0, "interlaced_frame": false, "path": "Demo-03-Renaming copy pasted Time-Slots.mkv", "audio_stream_index": -1, "display_ratio": {"num": 683, "den": 384}, "has_single_image": false, "top_field_first": true, "vcodec": "h264", "video_length": "525", "height": 768, "channel_layout": 4, "fps": {"num": 25, "den": 1}, "audio_bit_rate": 0, "acodec": "", "has_video": true, "file_size": "191199", "type": "FFmpegReader", "duration": 21.0, "video_timebase": {"num": 1, "den": 1000}, "has_audio": false, "sample_rate": 0, "width": 1366}, "has_audio": {"Points": [{"interpolation": 2, "co": {"Y": -1.0, "X": 1.0}}]}, "crop_y": {"Points": [{"interpolation": 2, "co": {"Y": 0.0, "X": 1.0}}]}, "waveform": false}, {"perspective_c2_y": {"Points": [{"interpolation": 2, "co": {"Y": -1.0, "X": 1.0}}]}, "location_x": {"Points": [{"interpolation": 2, "co": {"Y": 0.0, "X": 1.0}}]}, "alpha": {"Points": [{"interpolation": 2, "co": {"Y": 1.0, "X": 1.0}}, {"interpolation": 0, "co": {"Y": 0.0, "X": 1.0}, "handle_right": {"Y": 0.0, "X": 0.5}, "handle_left": {"Y": 1.0, "X": 0.5}, "handle_type": 0}, {"interpolation": 0, "co": {"Y": 1.0, "X": 73.0}, "handle_right": {"Y": 0.0, "X": 0.5}, "handle_left": {"Y": 1.0, "X": 0.5}, "handle_type": 0}, {"interpolation": 0, "co": {"Y": 1.0, "X": 1412.0}, "handle_right": {"Y": 0.0, "X": 0.5}, "handle_left": {"Y": 1.0, "X": 0.5}, "handle_type": 0}, {"interpolation": 0, "co": {"Y": 0.0, "X": 1484.0}, "handle_right": {"Y": 0.0, "X": 0.5}, "handle_left": {"Y": 1.0, "X": 0.5}, "handle_type": 0}]}, "title": "Demo-04-Lecture Entry-Clash remove and Demo TT.mkv", "channel_mapping": {"Points": [{"interpolation": 2, "co": {"Y": -1.0, "X": 1.0}}]}, "layer": 4, "end": 61.791666666666664, "id": "5SL6Z206WO", "gravity": 4, "perspective_c1_x": {"Points": [{"interpolation": 2, "co": {"Y": -1.0, "X": 1.0}}]}, "scale": 1, "perspective_c2_x": {"Points": [{"interpolation": 2, "co": {"Y": -1.0, "X": 1.0}}]}, "image": "../../../.openshot_qt/thumbnail/RVOUXSUSEQ.png", "crop_x": {"Points": [{"interpolation": 2, "co": {"Y": 0.0, "X": 1.0}}]}, "position": 61.9, "shear_y": {"Points": [{"interpolation": 2, "co": {"Y": 0.0, "X": 1.0}}]}, "file_id": "RVOUXSUSEQ", "shear_x": {"Points": [{"interpolation": 2, "co": {"Y": 0.0, "X": 1.0}}]}, "channel_filter": {"Points": [{"interpolation": 2, "co": {"Y": -1.0, "X": 1.0}}]}, "wave_color": {"blue": {"Points": [{"interpolation": 0, "co": {"Y": 255.0, "X": 1.0}, "handle_right": {"Y": 0.0, "X": 0.5}, "handle_left": {"Y": 1.0, "X": 0.5}, "handle_type": 0}]}, "red": {"Points": [{"interpolation": 0, "co": {"Y": 0.0, "X": 1.0}, "handle_right": {"Y": 0.0, "X": 0.5}, "handle_left": {"Y": 1.0, "X": 0.5}, "handle_type": 0}]}, "green": {"Points": [{"interpolation": 0, "co": {"Y": 123.0, "X": 1.0}, "handle_right": {"Y": 0.0, "X": 0.5}, "handle_left": {"Y": 1.0, "X": 0.5}, "handle_type": 0}]}, "alpha": {"Points": [{"interpolation": 0, "co": {"Y": 255.0, "X": 1.0}, "handle_right": {"Y": 0.0, "X": 0.5}, "handle_left": {"Y": 1.0, "X": 0.5}, "handle_type": 0}]}}, "display": 0, "time": {"Points": [{"interpolation": 1, "co": {"Y": 1.0, "X": 1.0}}, {"interpolation": 1, "co": {"Y": 5929.0, "X": 1483.0}}]}, "start": 0, "perspective_c3_y": {"Points": [{"interpolation": 2, "co": {"Y": -1.0, "X": 1.0}}]}, "location_y": {"Points": [{"interpolation": 2, "co": {"Y": 0.0, "X": 1.0}}]}, "crop_height": {"Points": [{"interpolation": 2, "co": {"Y": -1.0, "X": 1.0}}]}, "volume": {"Points": [{"interpolation": 2, "co": {"Y": 1.0, "X": 1.0}}]}, "rotation": {"Points": [{"interpolation": 2, "co": {"Y": 0.0, "X": 1.0}}]}, "has_video": {"Points": [{"interpolation": 2, "co": {"Y": -1.0, "X": 1.0}}]}, "effects": [], "scale_x": {"Points": [{"interpolation": 2, "co": {"Y": 1.0, "X": 1.0}}]}, "perspective_c1_y": {"Points": [{"interpolation": 2, "co": {"Y": -1.0, "X": 1.0}}]}, "crop_width": {"Points": [{"interpolation": 2, "co": {"Y": -1.0, "X": 1.0}}]}, "perspective_c4_y": {"Points": [{"interpolation": 2, "co": {"Y": -1.0, "X": 1.0}}]}, "perspective_c3_x": {"Points": [{"interpolation": 2, "co": {"Y": -1.0, "X": 1.0}}]}, "scale_y": {"Points": [{"interpolation": 2, "co": {"Y": 1.0, "X": 1.0}}]}, "anchor": 0, "perspective_c4_x": {"Points": [{"interpolation": 2, "co": {"Y": -1.0, "X": 1.0}}]}, "duration": 60.0, "reader": {"pixel_format": 0, "audio_timebase": {"num": 1, "den": 1}, "pixel_ratio": {"num": 1, "den": 1}, "video_bit_rate": 0, "channels": 0, "video_stream_index": 0, "interlaced_frame": false, "path": "Demo-04-Lecture Entry-Clash remove and Demo TT.mkv", "audio_stream_index": -1, "display_ratio": {"num": 683, "den": 384}, "has_single_image": false, "top_field_first": true, "vcodec": "h264", "video_length": "6175", "height": 768, "channel_layout": 4, "fps": {"num": 25, "den": 1}, "audio_bit_rate": 0, "acodec": "", "has_video": true, "file_size": "2541542", "type": "FFmpegReader", "duration": 247.0, "video_timebase": {"num": 1, "den": 1000}, "has_audio": false, "sample_rate": 0, "width": 1366}, "has_audio": {"Points": [{"interpolation": 2, "co": {"Y": -1.0, "X": 1.0}}]}, "crop_y": {"Points": [{"interpolation": 2, "co": {"Y": 0.0, "X": 1.0}}]}, "waveform": false}, {"perspective_c2_y": {"Points": [{"interpolation": 2, "co": {"Y": -1.0, "X": 1.0}}]}, "location_x": {"Points": [{"interpolation": 2, "co": {"Y": 0.0, "X": 1.0}}]}, "alpha": {"Points": [{"interpolation": 2, "co": {"Y": 1.0, "X": 1.0}}, {"interpolation": 0, "co": {"Y": 0.0, "X": 1.0}, "handle_right": {"Y": 0.0, "X": 0.5}, "handle_left": {"Y": 1.0, "X": 0.5}, "handle_type": 0}, {"interpolation": 0, "co": {"Y": 1.0, "X": 73.0}, "handle_right": {"Y": 0.0, "X": 0.5}, "handle_left": {"Y": 1.0, "X": 0.5}, "handle_type": 0}, {"interpolation": 0, "co": {"Y": 1.0, "X": 813.0}, "handle_right": {"Y": 0.0, "X": 0.5}, "handle_left": {"Y": 1.0, "X": 0.5}, "handle_type": 0}, {"interpolation": 0, "co": {"Y": 0.0, "X": 885.0}, "handle_right": {"Y": 0.0, "X": 0.5}, "handle_left": {"Y": 1.0, "X": 0.5}, "handle_type": 0}]}, "title": "Demo-05-Slitt Class or Splitt lectures.mkv", "channel_mapping": {"Points": [{"interpolation": 2, "co": {"Y": -1.0, "X": 1.0}}]}, "layer": 4, "end": 36.84166666666667, "id": "6XKH2CVO13", "gravity": 4, "perspective_c1_x": {"Points": [{"interpolation": 2, "co": {"Y": -1.0, "X": 1.0}}]}, "scale": 1, "perspective_c2_x": {"Points": [{"interpolation": 2, "co": {"Y": -1.0, "X": 1.0}}]}, "image": "../../../.openshot_qt/thumbnail/SJFW0PSRLB.png", "crop_x": {"Points": [{"interpolation": 2, "co": {"Y": 0.0, "X": 1.0}}]}, "position": 123.6, "shear_y": {"Points": [{"interpolation": 2, "co": {"Y": 0.0, "X": 1.0}}]}, "file_id": "SJFW0PSRLB", "shear_x": {"Points": [{"interpolation": 2, "co": {"Y": 0.0, "X": 1.0}}]}, "channel_filter": {"Points": [{"interpolation": 2, "co": {"Y": -1.0, "X": 1.0}}]}, "wave_color": {"blue": {"Points": [{"interpolation": 0, "co": {"Y": 255.0, "X": 1.0}, "handle_right": {"Y": 0.0, "X": 0.5}, "handle_left": {"Y": 1.0, "X": 0.5}, "handle_type": 0}]}, "red": {"Points": [{"interpolation": 0, "co": {"Y": 0.0, "X": 1.0}, "handle_right": {"Y": 0.0, "X": 0.5}, "handle_left": {"Y": 1.0, "X": 0.5}, "handle_type": 0}]}, "green": {"Points": [{"interpolation": 0, "co": {"Y": 123.0, "X": 1.0}, "handle_right": {"Y": 0.0, "X": 0.5}, "handle_left": {"Y": 1.0, "X": 0.5}, "handle_type": 0}]}, "alpha": {"Points": [{"interpolation": 0, "co": {"Y": 255.0, "X": 1.0}, "handle_right": {"Y": 0.0, "X": 0.5}, "handle_left": {"Y": 1.0, "X": 0.5}, "handle_type": 0}]}}, "display": 0, "time": {"Points": [{"interpolation": 2, "co": {"Y": 1.0, "X": 1.0}}]}, "start": 0, "perspective_c3_y": {"Points": [{"interpolation": 2, "co": {"Y": -1.0, "X": 1.0}}]}, "location_y": {"Points": [{"interpolation": 2, "co": {"Y": 0.0, "X": 1.0}}]}, "crop_height": {"Points": [{"interpolation": 2, "co": {"Y": -1.0, "X": 1.0}}]}, "volume": {"Points": [{"interpolation": 2, "co": {"Y": 1.0, "X": 1.0}}]}, "rotation": {"Points": [{"interpolation": 2, "co": {"Y": 0.0, "X": 1.0}}]}, "has_video": {"Points": [{"interpolation": 2, "co": {"Y": -1.0, "X": 1.0}}]}, "effects": [], "scale_x": {"Points": [{"interpolation": 2, "co": {"Y": 1.0, "X": 1.0}}]}, "perspective_c1_y": {"Points": [{"interpolation": 2, "co": {"Y": -1.0, "X": 1.0}}]}, "crop_width": {"Points": [{"interpolation": 2, "co": {"Y": -1.0, "X": 1.0}}]}, "perspective_c4_y": {"Points": [{"interpolation": 2, "co": {"Y": -1.0, "X": 1.0}}]}, "perspective_c3_x": {"Points": [{"interpolation": 2, "co": {"Y": -1.0, "X": 1.0}}]}, "scale_y": {"Points": [{"interpolation": 2, "co": {"Y": 1.0, "X": 1.0}}]}, "anchor": 0, "perspective_c4_x": {"Points": [{"interpolation": 2, "co": {"Y": -1.0, "X": 1.0}}]}, "duration": 41.0, "reader": {"pixel_format": 0, "audio_timebase": {"num": 1, "den": 1}, "pixel_ratio": {"num": 1, "den": 1}, "video_bit_rate": 0, "channels": 0, "video_stream_index": 0, "interlaced_frame": false, "path": "Demo-05-Slitt Class or Splitt lectures.mkv", "audio_stream_index": -1, "display_ratio": {"num": 683, "den": 384}, "has_single_image": false, "top_field_first": true, "vcodec": "h264", "video_length": "1025", "height": 768, "channel_layout": 4, "fps": {"num": 25, "den": 1}, "audio_bit_rate": 0, "acodec": "", "has_video": true, "file_size": "783366", "type": "FFmpegReader", "duration": 41.0, "video_timebase": {"num": 1, "den": 1000}, "has_audio": false, "sample_rate": 0, "width": 1366}, "has_audio": {"Points": [{"interpolation": 2, "co": {"Y": -1.0, "X": 1.0}}]}, "crop_y": {"Points": [{"interpolation": 2, "co": {"Y": 0.0, "X": 1.0}}]}, "waveform": false}, {"perspective_c2_y": {"Points": [{"interpolation": 2, "co": {"Y": -1.0, "X": 1.0}}]}, "location_x": {"Points": [{"interpolation": 2, "co": {"Y": 0.0, "X": 1.0}}]}, "alpha": {"Points": [{"interpolation": 2, "co": {"Y": 1.0, "X": 1.0}}, {"interpolation": 0, "co": {"Y": 0.0, "X": 1.0}, "handle_right": {"Y": 0.0, "X": 0.5}, "handle_left": {"Y": 1.0, "X": 0.5}, "handle_type": 0}, {"interpolation": 0, "co": {"Y": 1.0, "X": 73.0}, "handle_right": {"Y": 0.0, "X": 0.5}, "handle_left": {"Y": 1.0, "X": 0.5}, "handle_type": 0}, {"interpolation": 0, "co": {"Y": 1.0, "X": 387.0}, "handle_right": {"Y": 0.0, "X": 0.5}, "handle_left": {"Y": 1.0, "X": 0.5}, "handle_type": 0}, {"interpolation": 0, "co": {"Y": 0.0, "X": 459.0}, "handle_right": {"Y": 0.0, "X": 0.5}, "handle_left": {"Y": 1.0, "X": 0.5}, "handle_type": 0}]}, "title": "Demo-06-Set School Name.mkv", "channel_mapping": {"Points": [{"interpolation": 2, "co": {"Y": -1.0, "X": 1.0}}]}, "layer": 4, "end": 19.083333333333343, "id": "QQCSZWQUN1", "gravity": 4, "perspective_c1_x": {"Points": [{"interpolation": 2, "co": {"Y": -1.0, "X": 1.0}}]}, "scale": 1, "perspective_c2_x": {"Points": [{"interpolation": 2, "co": {"Y": -1.0, "X": 1.0}}]}, "image": "../../../.openshot_qt/thumbnail/O8MDU83AZY.png", "crop_x": {"Points": [{"interpolation": 2, "co": {"Y": 0.0, "X": 1.0}}]}, "position": 160.4, "shear_y": {"Points": [{"interpolation": 2, "co": {"Y": 0.0, "X": 1.0}}]}, "file_id": "O8MDU83AZY", "shear_x": {"Points": [{"interpolation": 2, "co": {"Y": 0.0, "X": 1.0}}]}, "channel_filter": {"Points": [{"interpolation": 2, "co": {"Y": -1.0, "X": 1.0}}]}, "wave_color": {"blue": {"Points": [{"interpolation": 0, "co": {"Y": 255.0, "X": 1.0}, "handle_right": {"Y": 0.0, "X": 0.5}, "handle_left": {"Y": 1.0, "X": 0.5}, "handle_type": 0}]}, "red": {"Points": [{"interpolation": 0, "co": {"Y": 0.0, "X": 1.0}, "handle_right": {"Y": 0.0, "X": 0.5}, "handle_left": {"Y": 1.0, "X": 0.5}, "handle_type": 0}]}, "green": {"Points": [{"interpolation": 0, "co": {"Y": 123.0, "X": 1.0}, "handle_right": {"Y": 0.0, "X": 0.5}, "handle_left": {"Y": 1.0, "X": 0.5}, "handle_type": 0}]}, "alpha": {"Points": [{"interpolation": 0, "co": {"Y": 255.0, "X": 1.0}, "handle_right": {"Y": 0.0, "X": 0.5}, "handle_left": {"Y": 1.0, "X": 0.5}, "handle_type": 0}]}}, "display": 0, "time": {"Points": [{"interpolation": 2, "co": {"Y": 1.0, "X": 1.0}}]}, "start": 0, "perspective_c3_y": {"Points": [{"interpolation": 2, "co": {"Y": -1.0, "X": 1.0}}]}, "location_y": {"Points": [{"interpolation": 2, "co": {"Y": 0.0, "X": 1.0}}]}, "crop_height": {"Points": [{"interpolation": 2, "co": {"Y": -1.0, "X": 1.0}}]}, "volume": {"Points": [{"interpolation": 2, "co": {"Y": 1.0, "X": 1.0}}]}, "rotation": {"Points": [{"interpolation": 2, "co": {"Y": 0.0, "X": 1.0}}]}, "has_video": {"Points": [{"interpolation": 2, "co": {"Y": -1.0, "X": 1.0}}]}, "effects": [], "scale_x": {"Points": [{"interpolation": 2, "co": {"Y": 1.0, "X": 1.0}}]}, "perspective_c1_y": {"Points": [{"interpolation": 2, "co": {"Y": -1.0, "X": 1.0}}]}, "crop_width": {"Points": [{"interpolation": 2, "co": {"Y": -1.0, "X": 1.0}}]}, "perspective_c4_y": {"Points": [{"interpolation": 2, "co": {"Y": -1.0, "X": 1.0}}]}, "perspective_c3_x": {"Points": [{"interpolation": 2, "co": {"Y": -1.0, "X": 1.0}}]}, "scale_y": {"Points": [{"interpolation": 2, "co": {"Y": 1.0, "X": 1.0}}]}, "anchor": 0, "perspective_c4_x": {"Points": [{"interpolation": 2, "co": {"Y": -1.0, "X": 1.0}}]}, "duration": 24.0, "reader": {"pixel_format": 0, "audio_timebase": {"num": 1, "den": 1}, "pixel_ratio": {"num": 1, "den": 1}, "video_bit_rate": 0, "channels": 0, "video_stream_index": 0, "interlaced_frame": false, "path": "Demo-06-Set School Name.mkv", "audio_stream_index": -1, "display_ratio": {"num": 683, "den": 384}, "has_single_image": false, "top_field_first": true, "vcodec": "h264", "video_length": "600", "height": 768, "channel_layout": 4, "fps": {"num": 25, "den": 1}, "audio_bit_rate": 0, "acodec": "", "has_video": true, "file_size": "404652", "type": "FFmpegReader", "duration": 24.0, "video_timebase": {"num": 1, "den": 1000}, "has_audio": false, "sample_rate": 0, "width": 1366}, "has_audio": {"Points": [{"interpolation": 2, "co": {"Y": -1.0, "X": 1.0}}]}, "crop_y": {"Points": [{"interpolation": 2, "co": {"Y": 0.0, "X": 1.0}}]}, "waveform": false}, {"channel_mapping": {"Points": [{"interpolation": 2, "co": {"Y": -1.0, "X": 1.0}}]}, "crop_x": {"Points": [{"interpolation": 2, "co": {"Y": 0.0, "X": 1.0}}]}, "alpha": {"Points": [{"interpolation": 2, "co": {"Y": 1.0, "X": 1.0}}, {"interpolation": 0, "co": {"Y": 0.0, "X": 1.0}, "handle_right": {"Y": 0.0, "X": 0.5}, "handle_left": {"Y": 1.0, "X": 0.5}, "handle_type": 0}, {"interpolation": 0, "co": {"Y": 1.0, "X": 73.0}, "handle_right": {"Y": 0.0, "X": 0.5}, "handle_left": {"Y": 1.0, "X": 0.5}, "handle_type": 0}, {"co": {"Y": 0.0, "X": 1.0}, "interpolation": 0, "handle_right": {"Y": 0.0, "X": 0.5}, "handle_left": {"Y": 1.0, "X": 0.5}, "handle_type": 0}, {"co": {"Y": 1.0, "X": 73.0}, "interpolation": 0, "handle_right": {"Y": 0.0, "X": 0.5}, "handle_left": {"Y": 1.0, "X": 0.5}, "handle_type": 0}, {"co": {"Y": 1.0, "X": 609.0}, "interpolation": 0, "handle_right": {"Y": 0.0, "X": 0.5}, "handle_left": {"Y": 1.0, "X": 0.5}, "handle_type": 0}, {"co": {"Y": 0.0, "X": 681.0}, "interpolation": 0, "handle_right": {"Y": 0.0, "X": 0.5}, "handle_left": {"Y": 1.0, "X": 0.5}, "handle_type": 0}]}, "title": "Demo-07-SetPrinter and Print Current.mkv", "perspective_c2_y": {"Points": [{"interpolation": 2, "co": {"Y": -1.0, "X": 1.0}}]}, "layer": 4, "id": "BPQZZB1IGM", "gravity": 4, "perspective_c1_x": {"Points": [{"interpolation": 2, "co": {"Y": -1.0, "X": 1.0}}]}, "scale": 1, "perspective_c2_x": {"Points": [{"interpolation": 2, "co": {"Y": -1.0, "X": 1.0}}]}, "image": "../../../.openshot_qt/thumbnail/8BO13HSLCT.png", "volume": {"Points": [{"interpolation": 2, "co": {"Y": 1.0, "X": 1.0}}]}, "perspective_c4_x": {"Points": [{"interpolation": 2, "co": {"Y": -1.0, "X": 1.0}}]}, "shear_y": {"Points": [{"interpolation": 2, "co": {"Y": 0.0, "X": 1.0}}]}, "file_id": "8BO13HSLCT", "shear_x": {"Points": [{"interpolation": 2, "co": {"Y": 0.0, "X": 1.0}}]}, "channel_filter": {"Points": [{"interpolation": 2, "co": {"Y": -1.0, "X": 1.0}}]}, "wave_color": {"blue": {"Points": [{"interpolation": 0, "co": {"Y": 255.0, "X": 1.0}, "handle_right": {"Y": 0.0, "X": 0.5}, "handle_left": {"Y": 1.0, "X": 0.5}, "handle_type": 0}]}, "red": {"Points": [{"interpolation": 0, "co": {"Y": 0.0, "X": 1.0}, "handle_right": {"Y": 0.0, "X": 0.5}, "handle_left": {"Y": 1.0, "X": 0.5}, "handle_type": 0}]}, "green": {"Points": [{"interpolation": 0, "co": {"Y": 123.0, "X": 1.0}, "handle_right": {"Y": 0.0, "X": 0.5}, "handle_left": {"Y": 1.0, "X": 0.5}, "handle_type": 0}]}, "alpha": {"Points": [{"interpolation": 0, "co": {"Y": 255.0, "X": 1.0}, "handle_right": {"Y": 0.0, "X": 0.5}, "handle_left": {"Y": 1.0, "X": 0.5}, "handle_type": 0}]}}, "display": 0, "location_y": {"Points": [{"interpolation": 2, "co": {"Y": 0.0, "X": 1.0}}]}, "time": {"Points": [{"interpolation": 1, "co": {"Y": 1.0, "X": 1.0}}, {"interpolation": 1, "co": {"Y": 1585.0, "X": 793.0}}]}, "start": 0, "crop_y": {"Points": [{"interpolation": 2, "co": {"Y": 0.0, "X": 1.0}}]}, "end": 28.333333333333343, "crop_height": {"Points": [{"interpolation": 2, "co": {"Y": -1.0, "X": 1.0}}]}, "rotation": {"Points": [{"interpolation": 2, "co": {"Y": 0.0, "X": 1.0}}]}, "has_video": {"Points": [{"interpolation": 2, "co": {"Y": -1.0, "X": 1.0}}]}, "effects": [], "scale_x": {"Points": [{"interpolation": 2, "co": {"Y": 1.0, "X": 1.0}}]}, "perspective_c1_y": {"Points": [{"interpolation": 2, "co": {"Y": -1.0, "X": 1.0}}]}, "crop_width": {"Points": [{"interpolation": 2, "co": {"Y": -1.0, "X": 1.0}}]}, "perspective_c4_y": {"Points": [{"interpolation": 2, "co": {"Y": -1.0, "X": 1.0}}]}, "perspective_c3_x": {"Points": [{"interpolation": 2, "co": {"Y": -1.0, "X": 1.0}}]}, "scale_y": {"Points": [{"interpolation": 2, "co": {"Y": 1.0, "X": 1.0}}]}, "perspective_c3_y": {"Points": [{"interpolation": 2, "co": {"Y": -1.0, "X": 1.0}}]}, "location_x": {"Points": [{"interpolation": 2, "co": {"Y": 0.0, "X": 1.0}}]}, "position": 179.4, "duration": 32.0, "reader": {"pixel_format": 0, "audio_timebase": {"num": 1, "den": 1}, "pixel_ratio": {"num": 1, "den": 1}, "video_bit_rate": 0, "channels": 0, "video_stream_index": 0, "interlaced_frame": false, "path": "Demo-07-SetPrinter and Print Current.mkv", "audio_stream_index": -1, "display_ratio": {"num": 683, "den": 384}, "has_single_image": false, "top_field_first": true, "vcodec": "h264", "video_length": "1650", "height": 768, "channel_layout": 4, "fps": {"num": 25, "den": 1}, "audio_bit_rate": 0, "acodec": "", "has_video": true, "file_size": "1142597", "type": "FFmpegReader", "duration": 66.0, "video_timebase": {"num": 1, "den": 1000}, "has_audio": false, "sample_rate": 0, "width": 1366}, "has_audio": {"Points": [{"interpolation": 2, "co": {"Y": -1.0, "X": 1.0}}]}, "anchor": 0, "waveform": false}, {"channel_mapping": {"Points": [{"interpolation": 2, "co": {"Y": -1.0, "X": 1.0}}]}, "location_x": {"Points": [{"interpolation": 2, "co": {"Y": 0.0, "X": 1.0}}]}, "alpha": {"Points": [{"interpolation": 2, "co": {"Y": 1.0, "X": 1.0}}, {"interpolation": 0, "co": {"Y": 0.0, "X": 1.0}, "handle_right": {"Y": 0.0, "X": 0.5}, "handle_left": {"Y": 1.0, "X": 0.5}, "handle_type": 0}, {"interpolation": 0, "co": {"Y": 1.0, "X": 73.0}, "handle_right": {"Y": 0.0, "X": 0.5}, "handle_left": {"Y": 1.0, "X": 0.5}, "handle_type": 0}, {"interpolation": 0, "co": {"Y": 1.0, "X": 169.0}, "handle_right": {"Y": 0.0, "X": 0.5}, "handle_left": {"Y": 1.0, "X": 0.5}, "handle_type": 0}, {"interpolation": 0, "co": {"Y": 0.0, "X": 241.0}, "handle_right": {"Y": 0.0, "X": 0.5}, "handle_left": {"Y": 1.0, "X": 0.5}, "handle_type": 0}]}, "location_y": {"Points": [{"interpolation": 2, "co": {"Y": 0.0, "X": 1.0}}]}, "perspective_c2_y": {"Points": [{"interpolation": 2, "co": {"Y": -1.0, "X": 1.0}}]}, "layer": 4, "id": "XT2N90YHJ7", "gravity": 4, "perspective_c1_x": {"Points": [{"interpolation": 2, "co": {"Y": -1.0, "X": 1.0}}]}, "scale": 1, "perspective_c2_x": {"Points": [{"interpolation": 2, "co": {"Y": -1.0, "X": 1.0}}]}, "image": "../../../.openshot_qt/thumbnail/035S9FEBR2.png", "volume": {"Points": [{"interpolation": 2, "co": {"Y": 1.0, "X": 1.0}}]}, "position": 0, "shear_y": {"Points": [{"interpolation": 2, "co": {"Y": 0.0, "X": 1.0}}]}, "file_id": "035S9FEBR2", "shear_x": {"Points": [{"interpolation": 2, "co": {"Y": 0.0, "X": 1.0}}]}, "crop_x": {"Points": [{"interpolation": 2, "co": {"Y": 0.0, "X": 1.0}}]}, "channel_filter": {"Points": [{"interpolation": 2, "co": {"Y": -1.0, "X": 1.0}}]}, "wave_color": {"red": {"Points": [{"interpolation": 0, "co": {"Y": 0.0, "X": 1.0}, "handle_right": {"Y": 0.0, "X": 0.5}, "handle_left": {"Y": 1.0, "X": 0.5}, "handle_type": 0}]}, "blue": {"Points": [{"interpolation": 0, "co": {"Y": 255.0, "X": 1.0}, "handle_right": {"Y": 0.0, "X": 0.5}, "handle_left": {"Y": 1.0, "X": 0.5}, "handle_type": 0}]}, "green": {"Points": [{"interpolation": 0, "co": {"Y": 123.0, "X": 1.0}, "handle_right": {"Y": 0.0, "X": 0.5}, "handle_left": {"Y": 1.0, "X": 0.5}, "handle_type": 0}]}, "alpha": {"Points": [{"interpolation": 0, "co": {"Y": 255.0, "X": 1.0}, "handle_right": {"Y": 0.0, "X": 0.5}, "handle_left": {"Y": 1.0, "X": 0.5}, "handle_type": 0}]}}, "end": 10, "time": {"Points": [{"interpolation": 2, "co": {"Y": 1.0, "X": 1.0}}]}, "start": 0, "perspective_c3_y": {"Points": [{"interpolation": 2, "co": {"Y": -1.0, "X": 1.0}}]}, "title": "Title-Start.svg", "crop_height": {"Points": [{"interpolation": 2, "co": {"Y": -1.0, "X": 1.0}}]}, "rotation": {"Points": [{"interpolation": 2, "co": {"Y": 0.0, "X": 1.0}}]}, "has_video": {"Points": [{"interpolation": 2, "co": {"Y": -1.0, "X": 1.0}}]}, "effects": [], "scale_x": {"Points": [{"interpolation": 2, "co": {"Y": 1.0, "X": 1.0}}]}, "perspective_c1_y": {"Points": [{"interpolation": 2, "co": {"Y": -1.0, "X": 1.0}}]}, "crop_width": {"Points": [{"interpolation": 2, "co": {"Y": -1.0, "X": 1.0}}]}, "perspective_c4_y": {"Points": [{"interpolation": 2, "co": {"Y": -1.0, "X": 1.0}}]}, "perspective_c3_x": {"Points": [{"interpolation": 2, "co": {"Y": -1.0, "X": 1.0}}]}, "scale_y": {"Points": [{"interpolation": 2, "co": {"Y": 1.0, "X": 1.0}}]}, "anchor": 0, "reader": {"pixel_format": -1, "audio_timebase": {"num": 1, "den": 1}, "pixel_ratio": {"num": 1, "den": 1}, "video_bit_rate": 0, "channels": 0, "video_stream_index": -1, "interlaced_frame": false, "path": "assets/Title-Start.svg", "audio_stream_index": -1, "display_ratio": {"num": 16, "den": 9}, "has_single_image": true, "top_field_first": true, "vcodec": "", "video_length": "2592000", "height": 1080, "channel_layout": 4, "fps": {"num": 30, "den": 1}, "audio_bit_rate": 0, "acodec": "", "has_video": true, "file_size": "8294400", "type": "QtImageReader", "duration": 86400.0, "video_timebase": {"num": 1, "den": 30}, "has_audio": false, "sample_rate": 0, "width": 1920}, "perspective_c4_x": {"Points": [{"interpolation": 2, "co": {"Y": -1.0, "X": 1.0}}]}, "duration": 86400.0, "display": 0, "has_audio": {"Points": [{"interpolation": 2, "co": {"Y": -1.0, "X": 1.0}}]}, "crop_y": {"Points": [{"interpolation": 2, "co": {"Y": 0.0, "X": 1.0}}]}, "waveform": false}, {"channel_mapping": {"Points": [{"co": {"Y": -1.0, "X": 1.0}, "interpolation": 2}]}, "location_x": {"Points": [{"co": {"Y": 0.0, "X": 1.0}, "interpolation": 2}, {"co": {"Y": 0.0, "X": 1.0}, "interpolation": 0, "handle_right": {"Y": 0.0, "X": 0.5}, "handle_left": {"Y": 1.0, "X": 0.5}, "handle_type": 0}, {"co": {"Y": 0.0, "X": 241.0}, "interpolation": 0, "handle_right": {"Y": 0.0, "X": 0.5}, "handle_left": {"Y": 1.0, "X": 0.5}, "handle_type": 0}]}, "alpha": {"Points": [{"co": {"Y": 1.0, "X": 1.0}, "interpolation": 2}, {"co": {"Y": 0.0, "X": 1.0}, "interpolation": 0, "handle_right": {"Y": 0.0, "X": 0.5}, "handle_left": {"Y": 1.0, "X": 0.5}, "handle_type": 0}, {"co": {"Y": 1.0, "X": 73.0}, "interpolation": 0, "handle_right": {"Y": 0.0, "X": 0.5}, "handle_left": {"Y": 1.0, "X": 0.5}, "handle_type": 0}]}, "rotation": {"Points": [{"co": {"Y": 0.0, "X": 1.0}, "interpolation": 2}]}, "id": "O3BG0Y7CKW", "perspective_c1_x": {"Points": [{"co": {"Y": -1.0, "X": 1.0}, "interpolation": 2}]}, "scale": 1, "perspective_c2_x": {"Points": [{"co": {"Y": -1.0, "X": 1.0}, "interpolation": 2}]}, "effects": [], "perspective_c4_x": {"Points": [{"co": {"Y": -1.0, "X": 1.0}, "interpolation": 2}]}, "shear_y": {"Points": [{"co": {"Y": 0.0, "X": 1.0}, "interpolation": 2}]}, "file_id": "7WISDFXLOD", "shear_x": {"Points": [{"co": {"Y": 0.0, "X": 1.0}, "interpolation": 2}]}, "wave_color": {"blue": {"Points": [{"co": {"Y": 255.0, "X": 1.0}, "interpolation": 0, "handle_right": {"Y": 0.0, "X": 0.5}, "handle_left": {"Y": 1.0, "X": 0.5}, "handle_type": 0}]}, "red": {"Points": [{"co": {"Y": 0.0, "X": 1.0}, "interpolation": 0, "handle_right": {"Y": 0.0, "X": 0.5}, "handle_left": {"Y": 1.0, "X": 0.5}, "handle_type": 0}]}, "green": {"Points": [{"co": {"Y": 123.0, "X": 1.0}, "interpolation": 0, "handle_right": {"Y": 0.0, "X": 0.5}, "handle_left": {"Y": 1.0, "X": 0.5}, "handle_type": 0}]}, "alpha": {"Points": [{"co": {"Y": 255.0, "X": 1.0}, "interpolation": 0, "handle_right": {"Y": 0.0, "X": 0.5}, "handle_left": {"Y": 1.0, "X": 0.5}, "handle_type": 0}]}}, "display": 0, "location_y": {"Points": [{"co": {"Y": 0.0, "X": 1.0}, "interpolation": 2}, {"co": {"Y": 1.0, "X": 1.0}, "interpolation": 0, "handle_right": {"Y": 0.0, "X": 0.5}, "handle_left": {"Y": 1.0, "X": 0.5}, "handle_type": 0}, {"co": {"Y": 0.0, "X": 241.0}, "interpolation": 0, "handle_right": {"Y": 0.0, "X": 0.5}, "handle_left": {"Y": 1.0, "X": 0.5}, "handle_type": 0}]}, "perspective_c4_y": {"Points": [{"co": {"Y": -1.0, "X": 1.0}, "interpolation": 2}]}, "layer": 4, "scale_y": {"Points": [{"co": {"Y": 1.0, "X": 1.0}, "interpolation": 2}]}, "has_video": {"Points": [{"co": {"Y": -1.0, "X": 1.0}, "interpolation": 2}]}, "duration": 86400.0, "has_audio": {"Points": [{"co": {"Y": -1.0, "X": 1.0}, "interpolation": 2}]}, "anchor": 0, "perspective_c2_y": {"Points": [{"co": {"Y": -1.0, "X": 1.0}, "interpolation": 2}]}, "crop_x": {"Points": [{"co": {"Y": 0.0, "X": 1.0}, "interpolation": 2}]}, "title": "closing.svg", "gravity": 4, "image": "../../../.openshot_qt/thumbnail/7WISDFXLOD.png", "volume": {"Points": [{"co": {"Y": 1.0, "X": 1.0}, "interpolation": 2}]}, "channel_filter": {"Points": [{"co": {"Y": -1.0, "X": 1.0}, "interpolation": 2}]}, "end": 10, "time": {"Points": [{"co": {"Y": 1.0, "X": 1.0}, "interpolation": 2}]}, "start": 0, "crop_y": {"Points": [{"co": {"Y": 0.0, "X": 1.0}, "interpolation": 2}]}, "crop_height": {"Points": [{"co": {"Y": -1.0, "X": 1.0}, "interpolation": 2}]}, "scale_x": {"Points": [{"co": {"Y": 1.0, "X": 1.0}, "interpolation": 2}]}, "perspective_c1_y": {"Points": [{"co": {"Y": -1.0, "X": 1.0}, "interpolation": 2}]}, "crop_width": {"Points": [{"co": {"Y": -1.0, "X": 1.0}, "interpolation": 2}]}, "perspective_c3_x": {"Points": [{"co": {"Y": -1.0, "X": 1.0}, "interpolation": 2}]}, "perspective_c3_y": {"Points": [{"co": {"Y": -1.0, "X": 1.0}, "interpolation": 2}]}, "position": 207.7, "waveform": false, "reader": {"pixel_format": -1, "audio_timebase": {"num": 1, "den": 1}, "pixel_ratio": {"num": 1, "den": 1}, "video_bit_rate": 0, "channels": 0, "video_stream_index": -1, "interlaced_frame": false, "audio_stream_index": -1, "display_ratio": {"num": 40, "den": 23}, "has_single_image": true, "top_field_first": true, "vcodec": "", "video_length": "2592000", "height": 1104, "channel_layout": 4, "fps": {"num": 30, "den": 1}, "audio_bit_rate": 0, "acodec": "", "type": "QtImageReader", "has_video": true, "file_size": "8478720", "path": "assets/closing.svg", "duration": 86400.0, "video_timebase": {"num": 1, "den": 30}, "has_audio": false, "sample_rate": 0, "width": 1920}}, {"channel_mapping": {"Points": [{"co": {"Y": -1.0, "X": 1.0}, "interpolation": 2}]}, "location_x": {"Points": [{"co": {"Y": 0.0, "X": 1.0}, "interpolation": 2}]}, "alpha": {"Points": [{"co": {"Y": 1.0, "X": 1.0}, "interpolation": 2}, {"co": {"Y": 1.0, "X": 169.0}, "interpolation": 0, "handle_right": {"Y": 0.0, "X": 0.5}, "handle_left": {"Y": 1.0, "X": 0.5}, "handle_type": 0}, {"co": {"Y": 0.0, "X": 241.0}, "interpolation": 0, "handle_right": {"Y": 0.0, "X": 0.5}, "handle_left": {"Y": 1.0, "X": 0.5}, "handle_type": 0}]}, "rotation": {"Points": [{"co": {"Y": 0.0, "X": 1.0}, "interpolation": 2}]}, "id": "RBLMLKIP75", "perspective_c1_x": {"Points": [{"co": {"Y": -1.0, "X": 1.0}, "interpolation": 2}]}, "scale": 1, "perspective_c2_x": {"Points": [{"co": {"Y": -1.0, "X": 1.0}, "interpolation": 2}]}, "effects": [], "perspective_c4_x": {"Points": [{"co": {"Y": -1.0, "X": 1.0}, "interpolation": 2}]}, "shear_y": {"Points": [{"co": {"Y": 0.0, "X": 1.0}, "interpolation": 2}]}, "file_id": "7WISDFXLOD", "shear_x": {"Points": [{"co": {"Y": 0.0, "X": 1.0}, "interpolation": 2}]}, "wave_color": {"blue": {"Points": [{"co": {"Y": 255.0, "X": 1.0}, "interpolation": 0, "handle_right": {"Y": 0.0, "X": 0.5}, "handle_left": {"Y": 1.0, "X": 0.5}, "handle_type": 0}]}, "red": {"Points": [{"co": {"Y": 0.0, "X": 1.0}, "interpolation": 0, "handle_right": {"Y": 0.0, "X": 0.5}, "handle_left": {"Y": 1.0, "X": 0.5}, "handle_type": 0}]}, "green": {"Points": [{"co": {"Y": 123.0, "X": 1.0}, "interpolation": 0, "handle_right": {"Y": 0.0, "X": 0.5}, "handle_left": {"Y": 1.0, "X": 0.5}, "handle_type": 0}]}, "alpha": {"Points": [{"co": {"Y": 255.0, "X": 1.0}, "interpolation": 0, "handle_right": {"Y": 0.0, "X": 0.5}, "handle_left": {"Y": 1.0, "X": 0.5}, "handle_type": 0}]}}, "display": 0, "location_y": {"Points": [{"co": {"Y": 0.0, "X": 1.0}, "interpolation": 2}]}, "perspective_c4_y": {"Points": [{"co": {"Y": -1.0, "X": 1.0}, "interpolation": 2}]}, "layer": 4, "scale_y": {"Points": [{"co": {"Y": 1.0, "X": 1.0}, "interpolation": 2}]}, "has_video": {"Points": [{"co": {"Y": -1.0, "X": 1.0}, "interpolation": 2}]}, "duration": 86400.0, "has_audio": {"Points": [{"co": {"Y": -1.0, "X": 1.0}, "interpolation": 2}]}, "anchor": 0, "perspective_c2_y": {"Points": [{"co": {"Y": -1.0, "X": 1.0}, "interpolation": 2}]}, "crop_x": {"Points": [{"co": {"Y": 0.0, "X": 1.0}, "interpolation": 2}]}, "title": "closing.svg", "gravity": 4, "image": "../../../.openshot_qt/thumbnail/7WISDFXLOD.png", "volume": {"Points": [{"co": {"Y": 1.0, "X": 1.0}, "interpolation": 2}]}, "channel_filter": {"Points": [{"co": {"Y": -1.0, "X": 1.0}, "interpolation": 2}]}, "end": 10, "time": {"Points": [{"co": {"Y": 1.0, "X": 1.0}, "interpolation": 2}]}, "start": 0, "crop_y": {"Points": [{"co": {"Y": 0.0, "X": 1.0}, "interpolation": 2}]}, "crop_height": {"Points": [{"co": {"Y": -1.0, "X": 1.0}, "interpolation": 2}]}, "scale_x": {"Points": [{"co": {"Y": 1.0, "X": 1.0}, "interpolation": 2}]}, "perspective_c1_y": {"Points": [{"co": {"Y": -1.0, "X": 1.0}, "interpolation": 2}]}, "crop_width": {"Points": [{"co": {"Y": -1.0, "X": 1.0}, "interpolation": 2}]}, "perspective_c3_x": {"Points": [{"co": {"Y": -1.0, "X": 1.0}, "interpolation": 2}]}, "perspective_c3_y": {"Points": [{"co": {"Y": -1.0, "X": 1.0}, "interpolation": 2}]}, "position": 217.7, "waveform": false, "reader": {"pixel_format": -1, "audio_timebase": {"num": 1, "den": 1}, "pixel_ratio": {"num": 1, "den": 1}, "video_bit_rate": 0, "channels": 0, "video_stream_index": -1, "interlaced_frame": false, "audio_stream_index": -1, "display_ratio": {"num": 40, "den": 23}, "has_single_image": true, "top_field_first": true, "vcodec": "", "video_length": "2592000", "height": 1104, "channel_layout": 4, "fps": {"num": 30, "den": 1}, "audio_bit_rate": 0, "acodec": "", "type": "QtImageReader", "has_video": true, "file_size": "8478720", "path": "assets/closing.svg", "duration": 86400.0, "video_timebase": {"num": 1, "den": 30}, "has_audio": false, "sample_rate": 0, "width": 1920}}, {"channel_mapping": {"Points": [{"co": {"Y": -1.0, "X": 1.0}, "interpolation": 2}]}, "location_x": {"Points": [{"co": {"Y": 0.0, "X": 1.0}, "interpolation": 2}]}, "alpha": {"Points": [{"co": {"Y": 1.0, "X": 1.0}, "interpolation": 2}, {"co": {"Y": 0.0, "X": 1.0}, "interpolation": 0, "handle_right": {"Y": 0.0, "X": 0.5}, "handle_left": {"Y": 1.0, "X": 0.5}, "handle_type": 0}, {"co": {"Y": 1.0, "X": 73.0}, "interpolation": 0, "handle_right": {"Y": 0.0, "X": 0.5}, "handle_left": {"Y": 1.0, "X": 0.5}, "handle_type": 0}, {"co": {"Y": 1.0, "X": 169.0}, "interpolation": 0, "handle_right": {"Y": 0.0, "X": 0.5}, "handle_left": {"Y": 1.0, "X": 0.5}, "handle_type": 0}, {"co": {"Y": 0.0, "X": 241.0}, "interpolation": 0, "handle_right": {"Y": 0.0, "X": 0.5}, "handle_left": {"Y": 1.0, "X": 0.5}, "handle_type": 0}]}, "rotation": {"Points": [{"co": {"Y": 0.0, "X": 1.0}, "interpolation": 2}]}, "id": "MXGXM90EWM", "perspective_c1_x": {"Points": [{"co": {"Y": -1.0, "X": 1.0}, "interpolation": 2}]}, "scale": 1, "perspective_c2_x": {"Points": [{"co": {"Y": -1.0, "X": 1.0}, "interpolation": 2}]}, "effects": [], "perspective_c4_x": {"Points": [{"co": {"Y": -1.0, "X": 1.0}, "interpolation": 2}]}, "shear_y": {"Points": [{"co": {"Y": 0.0, "X": 1.0}, "interpolation": 2}]}, "file_id": "YB8WHQZUJE", "shear_x": {"Points": [{"co": {"Y": 0.0, "X": 1.0}, "interpolation": 2}]}, "wave_color": {"blue": {"Points": [{"co": {"Y": 255.0, "X": 1.0}, "interpolation": 0, "handle_right": {"Y": 0.0, "X": 0.5}, "handle_left": {"Y": 1.0, "X": 0.5}, "handle_type": 0}]}, "red": {"Points": [{"co": {"Y": 0.0, "X": 1.0}, "interpolation": 0, "handle_right": {"Y": 0.0, "X": 0.5}, "handle_left": {"Y": 1.0, "X": 0.5}, "handle_type": 0}]}, "green": {"Points": [{"co": {"Y": 123.0, "X": 1.0}, "interpolation": 0, "handle_right": {"Y": 0.0, "X": 0.5}, "handle_left": {"Y": 1.0, "X": 0.5}, "handle_type": 0}]}, "alpha": {"Points": [{"co": {"Y": 255.0, "X": 1.0}, "interpolation": 0, "handle_right": {"Y": 0.0, "X": 0.5}, "handle_left": {"Y": 1.0, "X": 0.5}, "handle_type": 0}]}}, "display": 0, "location_y": {"Points": [{"co": {"Y": 0.0, "X": 1.0}, "interpolation": 2}]}, "perspective_c4_y": {"Points": [{"co": {"Y": -1.0, "X": 1.0}, "interpolation": 2}]}, "layer": 4, "scale_y": {"Points": [{"co": {"Y": 1.0, "X": 1.0}, "interpolation": 2}]}, "has_video": {"Points": [{"co": {"Y": -1.0, "X": 1.0}, "interpolation": 2}]}, "duration": 86400.0, "has_audio": {"Points": [{"co": {"Y": -1.0, "X": 1.0}, "interpolation": 2}]}, "anchor": 0, "perspective_c2_y": {"Points": [{"co": {"Y": -1.0, "X": 1.0}, "interpolation": 2}]}, "crop_x": {"Points": [{"co": {"Y": 0.0, "X": 1.0}, "interpolation": 2}]}, "title": "ILUG-MSG.svg", "gravity": 4, "image": "../../../.openshot_qt/thumbnail/YB8WHQZUJE.png", "volume": {"Points": [{"co": {"Y": 1.0, "X": 1.0}, "interpolation": 2}]}, "channel_filter": {"Points": [{"co": {"Y": -1.0, "X": 1.0}, "interpolation": 2}]}, "end": 10, "time": {"Points": [{"co": {"Y": 1.0, "X": 1.0}, "interpolation": 2}]}, "start": 0, "crop_y": {"Points": [{"co": {"Y": 0.0, "X": 1.0}, "interpolation": 2}]}, "crop_height": {"Points": [{"co": {"Y": -1.0, "X": 1.0}, "interpolation": 2}]}, "scale_x": {"Points": [{"co": {"Y": 1.0, "X": 1.0}, "interpolation": 2}]}, "perspective_c1_y": {"Points": [{"co": {"Y": -1.0, "X": 1.0}, "interpolation": 2}]}, "crop_width": {"Points": [{"co": {"Y": -1.0, "X": 1.0}, "interpolation": 2}]}, "perspective_c3_x": {"Points": [{"co": {"Y": -1.0, "X": 1.0}, "interpolation": 2}]}, "perspective_c3_y": {"Points": [{"co": {"Y": -1.0, "X": 1.0}, "interpolation": 2}]}, "position": 227.7, "waveform": false, "reader": {"pixel_format": -1, "audio_timebase": {"num": 1, "den": 1}, "pixel_ratio": {"num": 1, "den": 1}, "video_bit_rate": 0, "channels": 0, "video_stream_index": -1, "interlaced_frame": false, "audio_stream_index": -1, "display_ratio": {"num": 40, "den": 23}, "has_single_image": true, "top_field_first": true, "vcodec": "", "video_length": "2592000", "height": 1104, "channel_layout": 4, "fps": {"num": 30, "den": 1}, "audio_bit_rate": 0, "acodec": "", "type": "QtImageReader", "has_video": true, "file_size": "8478720", "path": "assets/ILUG-MSG.svg", "duration": 86400.0, "video_timebase": {"num": 1, "den": 30}, "has_audio": false, "sample_rate": 0, "width": 1920}}], "id": "T0", "scale": 10, "effects": [], "playhead_position": 0, "tick_pixels": 100, "export_path": "", "fps": {"num": 24, "den": 1}, "channel_layout": 3, "height": 720, "channels": 2, "settings": {}, "markers": [{"icon": "blue.png", "id": "GOOQSDNSGT", "position": 0.041666666666666664}, {"icon": "blue.png", "id": "CFKMFPXWUN", "position": 0.041666666666666664}, {"icon": "blue.png", "id": "RA9JXZMETJ", "position": 0.041666666666666664}, {"icon": "blue.png", "id": "Q3SJ749DNC", "position": 0.041666666666666664}, {"icon": "blue.png", "id": "KUIHS0KLC5", "position": 0.041666666666666664}, {"icon": "blue.png", "id": "5HWVG9QYGN", "position": 0.041666666666666664}, {"icon": "blue.png", "id": "0EOIXRLJ22", "position": 0.041666666666666664}], "profile": "HDV 720 24p", "progress": [], "duration": 329.0, "layers": [{"lock": false, "y": 0, "id": "L0", "number": 0, "label": ""}, {"lock": false, "y": 0, "id": "L1", "number": 1, "label": ""}, {"lock": false, "y": 0, "id": "L2", "number": 2, "label": ""}, {"lock": false, "y": 0, "id": "L3", "number": 3, "label": ""}, {"lock": false, "y": 0, "id": "L4", "number": 4, "label": ""}], "sample_rate": 44100, "width": 1280, "history": {"redo": [], "undo": [{"old_values": [{"perspective_c2_y": {"Points": [{"interpolation": 2, "co": {"Y": -1.0, "X": 1.0}}]}, "crop_x": {"Points": [{"interpolation": 2, "co": {"Y": 0.0, "X": 1.0}}]}, "alpha": {"Points": [{"interpolation": 2, "co": {"Y": 1.0, "X": 1.0}}, {"interpolation": 0, "co": {"Y": 0.0, "X": 1.0}, "handle_right": {"Y": 0.0, "X": 0.5}, "handle_left": {"Y": 1.0, "X": 0.5}, "handle_type": 0}, {"interpolation": 0, "co": {"Y": 1.0, "X": 73.0}, "handle_right": {"Y": 0.0, "X": 0.5}, "handle_left": {"Y": 1.0, "X": 0.5}, "handle_type": 0}, {"interpolation": 0, "co": {"Y": 1.0, "X": 790.0}, "handle_right": {"Y": 0.0, "X": 0.5}, "handle_left": {"Y": 1.0, "X": 0.5}, "handle_type": 0}, {"interpolation": 0, "co": {"Y": 0.0, "X": 862.0}, "handle_right": {"Y": 0.0, "X": 0.5}, "handle_left": {"Y": 1.0, "X": 0.5}, "handle_type": 0}]}, "location_y": {"Points": [{"interpolation": 2, "co": {"Y": 0.0, "X": 1.0}}]}, "channel_mapping": {"Points": [{"interpolation": 2, "co": {"Y": -1.0, "X": 1.0}}]}, "layer": 4, "end": 35.875, "id": "Z4ZIZQBYYY", "gravity": 4, "perspective_c1_x": {"Points": [{"interpolation": 2, "co": {"Y": -1.0, "X": 1.0}}]}, "scale": 1, "perspective_c2_x": {"Points": [{"interpolation": 2, "co": {"Y": -1.0, "X": 1.0}}]}, "image": "/home/milind/Data/Projects/.openshot_qt/thumbnail/8AMXXS1INM.png", "location_x": {"Points": [{"interpolation": 2, "co": {"Y": 0.0, "X": 1.0}}]}, "position": 10, "shear_y": {"Points": [{"interpolation": 2, "co": {"Y": 0.0, "X": 1.0}}]}, "file_id": "8AMXXS1INM", "shear_x": {"Points": [{"interpolation": 2, "co": {"Y": 0.0, "X": 1.0}}]}, "channel_filter": {"Points": [{"interpolation": 2, "co": {"Y": -1.0, "X": 1.0}}]}, "wave_color": {"blue": {"Points": [{"interpolation": 0, "co": {"Y": 255.0, "X": 1.0}, "handle_right": {"Y": 0.0, "X": 0.5}, "handle_left": {"Y": 1.0, "X": 0.5}, "handle_type": 0}]}, "red": {"Points": [{"interpolation": 0, "co": {"Y": 0.0, "X": 1.0}, "handle_right": {"Y": 0.0, "X": 0.5}, "handle_left": {"Y": 1.0, "X": 0.5}, "handle_type": 0}]}, "green": {"Points": [{"interpolation": 0, "co": {"Y": 123.0, "X": 1.0}, "handle_right": {"Y": 0.0, "X": 0.5}, "handle_left": {"Y": 1.0, "X": 0.5}, "handle_type": 0}]}, "alpha": {"Points": [{"interpolation": 0, "co": {"Y": 255.0, "X": 1.0}, "handle_right": {"Y": 0.0, "X": 0.5}, "handle_left": {"Y": 1.0, "X": 0.5}, "handle_type": 0}]}}, "display": 0, "time": {"Points": [{"interpolation": 1, "co": {"Y": 1.0, "X": 1.0}}, {"interpolation": 1, "co": {"Y": 1721.0, "X": 861.0}}]}, "start": 0, "perspective_c3_y": {"Points": [{"interpolation": 2, "co": {"Y": -1.0, "X": 1.0}}]}, "title": "Demo-02-Adding Time-Class Slots.mkv", "reader": {"pixel_format": 0, "audio_timebase": {"num": 1, "den": 1}, "pixel_ratio": {"num": 1, "den": 1}, "video_bit_rate": 0, "channels": 0, "video_stream_index": 0, "interlaced_frame": false, "path": "/home/milind/Data/Projects/CTTdemo/Demo-02-Adding Time-Class Slots.mkv", "audio_stream_index": -1, "display_ratio": {"num": 683, "den": 384}, "has_single_image": false, "top_field_first": true, "vcodec": "h264", "video_length": "1900", "height": 768, "channel_layout": 4, "fps": {"num": 25, "den": 1}, "audio_bit_rate": 0, "acodec": "", "has_video": true, "file_size": "502317", "type": "FFmpegReader", "duration": 76.0, "video_timebase": {"num": 1, "den": 1000}, "has_audio": false, "sample_rate": 0, "width": 1366}, "crop_height": {"Points": [{"interpolation": 2, "co": {"Y": -1.0, "X": 1.0}}]}, "rotation": {"Points": [{"interpolation": 2, "co": {"Y": 0.0, "X": 1.0}}]}, "effects": [], "scale_x": {"Points": [{"interpolation": 2, "co": {"Y": 1.0, "X": 1.0}}]}, "perspective_c1_y": {"Points": [{"interpolation": 2, "co": {"Y": -1.0, "X": 1.0}}]}, "crop_width": {"Points": [{"interpolation": 2, "co": {"Y": -1.0, "X": 1.0}}]}, "perspective_c4_y": {"Points": [{"interpolation": 2, "co": {"Y": -1.0, "X": 1.0}}]}, "volume": {"Points": [{"interpolation": 2, "co": {"Y": 1.0, "X": 1.0}}]}, "scale_y": {"Points": [{"interpolation": 2, "co": {"Y": 1.0, "X": 1.0}}]}, "crop_y": {"Points": [{"interpolation": 2, "co": {"Y": 0.0, "X": 1.0}}]}, "perspective_c3_x": {"Points": [{"interpolation": 2, "co": {"Y": -1.0, "X": 1.0}}]}, "perspective_c4_x": {"Points": [{"interpolation": 2, "co": {"Y": -1.0, "X": 1.0}}]}, "duration": 38.0, "waveform": false, "has_audio": {"Points": [{"interpolation": 2, "co": {"Y": -1.0, "X": 1.0}}]}, "anchor": 0, "has_video": {"Points": [{"interpolation": 2, "co": {"Y": -1.0, "X": 1.0}}]}}, {"perspective_c2_y": {"Points": [{"interpolation": 2, "co": {"Y": -1.0, "X": 1.0}}]}, "crop_x": {"Points": [{"interpolation": 2, "co": {"Y": 0.0, "X": 1.0}}]}, "alpha": {"Points": [{"interpolation": 2, "co": {"Y": 1.0, "X": 1.0}}, {"interpolation": 0, "co": {"Y": 0.0, "X": 1.0}, "handle_right": {"Y": 0.0, "X": 0.5}, "handle_left": {"Y": 1.0, "X": 0.5}, "handle_type": 0}, {"interpolation": 0, "co": {"Y": 1.0, "X": 73.0}, "handle_right": {"Y": 0.0, "X": 0.5}, "handle_left": {"Y": 1.0, "X": 0.5}, "handle_type": 0}, {"interpolation": 0, "co": {"Y": 1.0, "X": 317.0}, "handle_right": {"Y": 0.0, "X": 0.5}, "handle_left": {"Y": 1.0, "X": 0.5}, "handle_type": 0}, {"interpolation": 0, "co": {"Y": 0.0, "X": 389.0}, "handle_right": {"Y": 0.0, "X": 0.5}, "handle_left": {"Y": 1.0, "X": 0.5}, "handle_type": 0}]}, "location_y": {"Points": [{"interpolation": 2, "co": {"Y": 0.0, "X": 1.0}}]}, "channel_mapping": {"Points": [{"interpolation": 2, "co": {"Y": -1.0, "X": 1.0}}]}, "layer": 4, "end": 16.183333333333337, "id": "HUCJUHW5KR", "gravity": 4, "perspective_c1_x": {"Points": [{"interpolation": 2, "co": {"Y": -1.0, "X": 1.0}}]}, "scale": 1, "perspective_c2_x": {"Points": [{"interpolation": 2, "co": {"Y": -1.0, "X": 1.0}}]}, "image": "/home/milind/Data/Projects/.openshot_qt/thumbnail/FUP4DCVZ3U.png", "location_x": {"Points": [{"interpolation": 2, "co": {"Y": 0.0, "X": 1.0}}]}, "position": 45.8, "shear_y": {"Points": [{"interpolation": 2, "co": {"Y": 0.0, "X": 1.0}}]}, "file_id": "FUP4DCVZ3U", "shear_x": {"Points": [{"interpolation": 2, "co": {"Y": 0.0, "X": 1.0}}]}, "channel_filter": {"Points": [{"interpolation": 2, "co": {"Y": -1.0, "X": 1.0}}]}, "wave_color": {"blue": {"Points": [{"interpolation": 0, "co": {"Y": 255.0, "X": 1.0}, "handle_right": {"Y": 0.0, "X": 0.5}, "handle_left": {"Y": 1.0, "X": 0.5}, "handle_type": 0}]}, "red": {"Points": [{"interpolation": 0, "co": {"Y": 0.0, "X": 1.0}, "handle_right": {"Y": 0.0, "X": 0.5}, "handle_left": {"Y": 1.0, "X": 0.5}, "handle_type": 0}]}, "green": {"Points": [{"interpolation": 0, "co": {"Y": 123.0, "X": 1.0}, "handle_right": {"Y": 0.0, "X": 0.5}, "handle_left": {"Y": 1.0, "X": 0.5}, "handle_type": 0}]}, "alpha": {"Points": [{"interpolation": 0, "co": {"Y": 255.0, "X": 1.0}, "handle_right": {"Y": 0.0, "X": 0.5}, "handle_left": {"Y": 1.0, "X": 0.5}, "handle_type": 0}]}}, "display": 0, "time": {"Points": [{"interpolation": 2, "co": {"Y": 1.0, "X": 1.0}}]}, "start": 0, "perspective_c3_y": {"Points": [{"interpolation": 2, "co": {"Y": -1.0, "X": 1.0}}]}, "title": "Demo-03-Renaming copy pasted Time-Slots.mkv", "reader": {"pixel_format": 0, "audio_timebase": {"num": 1, "den": 1}, "pixel_ratio": {"num": 1, "den": 1}, "video_bit_rate": 0, "channels": 0, "video_stream_index": 0, "interlaced_frame": false, "path": "/home/milind/Data/Projects/CTTdemo/Demo-03-Renaming copy pasted Time-Slots.mkv", "audio_stream_index": -1, "display_ratio": {"num": 683, "den": 384}, "has_single_image": false, "top_field_first": true, "vcodec": "h264", "video_length": "525", "height": 768, "channel_layout": 4, "fps": {"num": 25, "den": 1}, "audio_bit_rate": 0, "acodec": "", "has_video": true, "file_size": "191199", "type": "FFmpegReader", "duration": 21.0, "video_timebase": {"num": 1, "den": 1000}, "has_audio": false, "sample_rate": 0, "width": 1366}, "crop_height": {"Points": [{"interpolation": 2, "co": {"Y": -1.0, "X": 1.0}}]}, "rotation": {"Points": [{"interpolation": 2, "co": {"Y": 0.0, "X": 1.0}}]}, "effects": [], "scale_x": {"Points": [{"interpolation": 2, "co": {"Y": 1.0, "X": 1.0}}]}, "perspective_c1_y": {"Points": [{"interpolation": 2, "co": {"Y": -1.0, "X": 1.0}}]}, "crop_width": {"Points": [{"interpolation": 2, "co": {"Y": -1.0, "X": 1.0}}]}, "perspective_c4_y": {"Points": [{"interpolation": 2, "co": {"Y": -1.0, "X": 1.0}}]}, "volume": {"Points": [{"interpolation": 2, "co": {"Y": 1.0, "X": 1.0}}]}, "scale_y": {"Points": [{"interpolation": 2, "co": {"Y": 1.0, "X": 1.0}}]}, "crop_y": {"Points": [{"interpolation": 2, "co": {"Y": 0.0, "X": 1.0}}]}, "perspective_c3_x": {"Points": [{"interpolation": 2, "co": {"Y": -1.0, "X": 1.0}}]}, "perspective_c4_x": {"Points": [{"interpolation": 2, "co": {"Y": -1.0, "X": 1.0}}]}, "duration": 21.0, "waveform": false, "has_audio": {"Points": [{"interpolation": 2, "co": {"Y": -1.0, "X": 1.0}}]}, "anchor": 0, "has_video": {"Points": [{"interpolation": 2, "co": {"Y": -1.0, "X": 1.0}}]}}, {"perspective_c2_y": {"Points": [{"interpolation": 2, "co": {"Y": -1.0, "X": 1.0}}]}, "crop_x": {"Points": [{"interpolation": 2, "co": {"Y": 0.0, "X": 1.0}}]}, "alpha": {"Points": [{"interpolation": 2, "co": {"Y": 1.0, "X": 1.0}}, {"interpolation": 0, "co": {"Y": 0.0, "X": 1.0}, "handle_right": {"Y": 0.0, "X": 0.5}, "handle_left": {"Y": 1.0, "X": 0.5}, "handle_type": 0}, {"interpolation": 0, "co": {"Y": 1.0, "X": 73.0}, "handle_right": {"Y": 0.0, "X": 0.5}, "handle_left": {"Y": 1.0, "X": 0.5}, "handle_type": 0}, {"interpolation": 0, "co": {"Y": 1.0, "X": 1412.0}, "handle_right": {"Y": 0.0, "X": 0.5}, "handle_left": {"Y": 1.0, "X": 0.5}, "handle_type": 0}, {"interpolation": 0, "co": {"Y": 0.0, "X": 1484.0}, "handle_right": {"Y": 0.0, "X": 0.5}, "handle_left": {"Y": 1.0, "X": 0.5}, "handle_type": 0}]}, "location_y": {"Points": [{"interpolation": 2, "co": {"Y": 0.0, "X": 1.0}}]}, "channel_mapping": {"Points": [{"interpolation": 2, "co": {"Y": -1.0, "X": 1.0}}]}, "layer": 4, "end": 61.791666666666664, "id": "5SL6Z206WO", "gravity": 4, "perspective_c1_x": {"Points": [{"interpolation": 2, "co": {"Y": -1.0, "X": 1.0}}]}, "scale": 1, "perspective_c2_x": {"Points": [{"interpolation": 2, "co": {"Y": -1.0, "X": 1.0}}]}, "image": "/home/milind/.openshot_qt/thumbnail/RVOUXSUSEQ.png", "location_x": {"Points": [{"interpolation": 2, "co": {"Y": 0.0, "X": 1.0}}]}, "position": 61.9, "shear_y": {"Points": [{"interpolation": 2, "co": {"Y": 0.0, "X": 1.0}}]}, "file_id": "RVOUXSUSEQ", "shear_x": {"Points": [{"interpolation": 2, "co": {"Y": 0.0, "X": 1.0}}]}, "channel_filter": {"Points": [{"interpolation": 2, "co": {"Y": -1.0, "X": 1.0}}]}, "wave_color": {"blue": {"Points": [{"interpolation": 0, "co": {"Y": 255.0, "X": 1.0}, "handle_right": {"Y": 0.0, "X": 0.5}, "handle_left": {"Y": 1.0, "X": 0.5}, "handle_type": 0}]}, "red": {"Points": [{"interpolation": 0, "co": {"Y": 0.0, "X": 1.0}, "handle_right": {"Y": 0.0, "X": 0.5}, "handle_left": {"Y": 1.0, "X": 0.5}, "handle_type": 0}]}, "green": {"Points": [{"interpolation": 0, "co": {"Y": 123.0, "X": 1.0}, "handle_right": {"Y": 0.0, "X": 0.5}, "handle_left": {"Y": 1.0, "X": 0.5}, "handle_type": 0}]}, "alpha": {"Points": [{"interpolation": 0, "co": {"Y": 255.0, "X": 1.0}, "handle_right": {"Y": 0.0, "X": 0.5}, "handle_left": {"Y": 1.0, "X": 0.5}, "handle_type": 0}]}}, "display": 0, "time": {"Points": [{"interpolation": 1, "co": {"Y": 1.0, "X": 1.0}}, {"interpolation": 1, "co": {"Y": 5929.0, "X": 1483.0}}]}, "start": 0, "perspective_c3_y": {"Points": [{"interpolation": 2, "co": {"Y": -1.0, "X": 1.0}}]}, "title": "Demo-04-Lecture Entry-Clash remove and Demo TT.mkv", "reader": {"pixel_format": 0, "audio_timebase": {"num": 1, "den": 1}, "pixel_ratio": {"num": 1, "den": 1}, "video_bit_rate": 0, "channels": 0, "video_stream_index": 0, "interlaced_frame": false, "path": "/home/milind/Data/Projects/CTTdemo/Demo-04-Lecture Entry-Clash remove and Demo TT.mkv", "audio_stream_index": -1, "display_ratio": {"num": 683, "den": 384}, "has_single_image": false, "top_field_first": true, "vcodec": "h264", "video_length": "6175", "height": 768, "channel_layout": 4, "fps": {"num": 25, "den": 1}, "audio_bit_rate": 0, "acodec": "", "has_video": true, "file_size": "2541542", "type": "FFmpegReader", "duration": 247.0, "video_timebase": {"num": 1, "den": 1000}, "has_audio": false, "sample_rate": 0, "width": 1366}, "crop_height": {"Points": [{"interpolation": 2, "co": {"Y": -1.0, "X": 1.0}}]}, "rotation": {"Points": [{"interpolation": 2, "co": {"Y": 0.0, "X": 1.0}}]}, "effects": [], "scale_x": {"Points": [{"interpolation": 2, "co": {"Y": 1.0, "X": 1.0}}]}, "perspective_c1_y": {"Points": [{"interpolation": 2, "co": {"Y": -1.0, "X": 1.0}}]}, "crop_width": {"Points": [{"interpolation": 2, "co": {"Y": -1.0, "X": 1.0}}]}, "perspective_c4_y": {"Points": [{"interpolation": 2, "co": {"Y": -1.0, "X": 1.0}}]}, "volume": {"Points": [{"interpolation": 2, "co": {"Y": 1.0, "X": 1.0}}]}, "scale_y": {"Points": [{"interpolation": 2, "co": {"Y": 1.0, "X": 1.0}}]}, "crop_y": {"Points": [{"interpolation": 2, "co": {"Y": 0.0, "X": 1.0}}]}, "perspective_c3_x": {"Points": [{"interpolation": 2, "co": {"Y": -1.0, "X": 1.0}}]}, "perspective_c4_x": {"Points": [{"interpolation": 2, "co": {"Y": -1.0, "X": 1.0}}]}, "duration": 60.0, "waveform": false, "has_audio": {"Points": [{"interpolation": 2, "co": {"Y": -1.0, "X": 1.0}}]}, "anchor": 0, "has_video": {"Points": [{"interpolation": 2, "co": {"Y": -1.0, "X": 1.0}}]}}, {"perspective_c2_y": {"Points": [{"interpolation": 2, "co": {"Y": -1.0, "X": 1.0}}]}, "crop_x": {"Points": [{"interpolation": 2, "co": {"Y": 0.0, "X": 1.0}}]}, "alpha": {"Points": [{"interpolation": 2, "co": {"Y": 1.0, "X": 1.0}}, {"interpolation": 0, "co": {"Y": 0.0, "X": 1.0}, "handle_right": {"Y": 0.0, "X": 0.5}, "handle_left": {"Y": 1.0, "X": 0.5}, "handle_type": 0}, {"interpolation": 0, "co": {"Y": 1.0, "X": 73.0}, "handle_right": {"Y": 0.0, "X": 0.5}, "handle_left": {"Y": 1.0, "X": 0.5}, "handle_type": 0}, {"interpolation": 0, "co": {"Y": 1.0, "X": 813.0}, "handle_right": {"Y": 0.0, "X": 0.5}, "handle_left": {"Y": 1.0, "X": 0.5}, "handle_type": 0}, {"interpolation": 0, "co": {"Y": 0.0, "X": 885.0}, "handle_right": {"Y": 0.0, "X": 0.5}, "handle_left": {"Y": 1.0, "X": 0.5}, "handle_type": 0}]}, "location_y": {"Points": [{"interpolation": 2, "co": {"Y": 0.0, "X": 1.0}}]}, "channel_mapping": {"Points": [{"interpolation": 2, "co": {"Y": -1.0, "X": 1.0}}]}, "layer": 4, "end": 36.84166666666667, "id": "6XKH2CVO13", "gravity": 4, "perspective_c1_x": {"Points": [{"interpolation": 2, "co": {"Y": -1.0, "X": 1.0}}]}, "scale": 1, "perspective_c2_x": {"Points": [{"interpolation": 2, "co": {"Y": -1.0, "X": 1.0}}]}, "image": "/home/milind/.openshot_qt/thumbnail/SJFW0PSRLB.png", "location_x": {"Points": [{"interpolation": 2, "co": {"Y": 0.0, "X": 1.0}}]}, "position": 123.6, "shear_y": {"Points": [{"interpolation": 2, "co": {"Y": 0.0, "X": 1.0}}]}, "file_id": "SJFW0PSRLB", "shear_x": {"Points": [{"interpolation": 2, "co": {"Y": 0.0, "X": 1.0}}]}, "channel_filter": {"Points": [{"interpolation": 2, "co": {"Y": -1.0, "X": 1.0}}]}, "wave_color": {"blue": {"Points": [{"interpolation": 0, "co": {"Y": 255.0, "X": 1.0}, "handle_right": {"Y": 0.0, "X": 0.5}, "handle_left": {"Y": 1.0, "X": 0.5}, "handle_type": 0}]}, "red": {"Points": [{"interpolation": 0, "co": {"Y": 0.0, "X": 1.0}, "handle_right": {"Y": 0.0, "X": 0.5}, "handle_left": {"Y": 1.0, "X": 0.5}, "handle_type": 0}]}, "green": {"Points": [{"interpolation": 0, "co": {"Y": 123.0, "X": 1.0}, "handle_right": {"Y": 0.0, "X": 0.5}, "handle_left": {"Y": 1.0, "X": 0.5}, "handle_type": 0}]}, "alpha": {"Points": [{"interpolation": 0, "co": {"Y": 255.0, "X": 1.0}, "handle_right": {"Y": 0.0, "X": 0.5}, "handle_left": {"Y": 1.0, "X": 0.5}, "handle_type": 0}]}}, "display": 0, "time": {"Points": [{"interpolation": 2, "co": {"Y": 1.0, "X": 1.0}}]}, "start": 0, "perspective_c3_y": {"Points": [{"interpolation": 2, "co": {"Y": -1.0, "X": 1.0}}]}, "title": "Demo-05-Slitt Class or Splitt lectures.mkv", "reader": {"pixel_format": 0, "audio_timebase": {"num": 1, "den": 1}, "pixel_ratio": {"num": 1, "den": 1}, "video_bit_rate": 0, "channels": 0, "video_stream_index": 0, "interlaced_frame": false, "path": "/home/milind/Data/Projects/CTTdemo/Demo-05-Slitt Class or Splitt lectures.mkv", "audio_stream_index": -1, "display_ratio": {"num": 683, "den": 384}, "has_single_image": false, "top_field_first": true, "vcodec": "h264", "video_length": "1025", "height": 768, "channel_layout": 4, "fps": {"num": 25, "den": 1}, "audio_bit_rate": 0, "acodec": "", "has_video": true, "file_size": "783366", "type": "FFmpegReader", "duration": 41.0, "video_timebase": {"num": 1, "den": 1000}, "has_audio": false, "sample_rate": 0, "width": 1366}, "crop_height": {"Points": [{"interpolation": 2, "co": {"Y": -1.0, "X": 1.0}}]}, "rotation": {"Points": [{"interpolation": 2, "co": {"Y": 0.0, "X": 1.0}}]}, "effects": [], "scale_x": {"Points": [{"interpolation": 2, "co": {"Y": 1.0, "X": 1.0}}]}, "perspective_c1_y": {"Points": [{"interpolation": 2, "co": {"Y": -1.0, "X": 1.0}}]}, "crop_width": {"Points": [{"interpolation": 2, "co": {"Y": -1.0, "X": 1.0}}]}, "perspective_c4_y": {"Points": [{"interpolation": 2, "co": {"Y": -1.0, "X": 1.0}}]}, "volume": {"Points": [{"interpolation": 2, "co": {"Y": 1.0, "X": 1.0}}]}, "scale_y": {"Points": [{"interpolation": 2, "co": {"Y": 1.0, "X": 1.0}}]}, "crop_y": {"Points": [{"interpolation": 2, "co": {"Y": 0.0, "X": 1.0}}]}, "perspective_c3_x": {"Points": [{"interpolation": 2, "co": {"Y": -1.0, "X": 1.0}}]}, "perspective_c4_x": {"Points": [{"interpolation": 2, "co": {"Y": -1.0, "X": 1.0}}]}, "duration": 41.0, "waveform": false, "has_audio": {"Points": [{"interpolation": 2, "co": {"Y": -1.0, "X": 1.0}}]}, "anchor": 0, "has_video": {"Points": [{"interpolation": 2, "co": {"Y": -1.0, "X": 1.0}}]}}, {"perspective_c2_y": {"Points": [{"interpolation": 2, "co": {"Y": -1.0, "X": 1.0}}]}, "crop_x": {"Points": [{"interpolation": 2, "co": {"Y": 0.0, "X": 1.0}}]}, "alpha": {"Points": [{"interpolation": 2, "co": {"Y": 1.0, "X": 1.0}}, {"interpolation": 0, "co": {"Y": 0.0, "X": 1.0}, "handle_right": {"Y": 0.0, "X": 0.5}, "handle_left": {"Y": 1.0, "X": 0.5}, "handle_type": 0}, {"interpolation": 0, "co": {"Y": 1.0, "X": 73.0}, "handle_right": {"Y": 0.0, "X": 0.5}, "handle_left": {"Y": 1.0, "X": 0.5}, "handle_type": 0}, {"interpolation": 0, "co": {"Y": 1.0, "X": 387.0}, "handle_right": {"Y": 0.0, "X": 0.5}, "handle_left": {"Y": 1.0, "X": 0.5}, "handle_type": 0}, {"interpolation": 0, "co": {"Y": 0.0, "X": 459.0}, "handle_right": {"Y": 0.0, "X": 0.5}, "handle_left": {"Y": 1.0, "X": 0.5}, "handle_type": 0}]}, "location_y": {"Points": [{"interpolation": 2, "co": {"Y": 0.0, "X": 1.0}}]}, "channel_mapping": {"Points": [{"interpolation": 2, "co": {"Y": -1.0, "X": 1.0}}]}, "layer": 4, "end": 19.083333333333343, "id": "QQCSZWQUN1", "gravity": 4, "perspective_c1_x": {"Points": [{"interpolation": 2, "co": {"Y": -1.0, "X": 1.0}}]}, "scale": 1, "perspective_c2_x": {"Points": [{"interpolation": 2, "co": {"Y": -1.0, "X": 1.0}}]}, "image": "/home/milind/.openshot_qt/thumbnail/O8MDU83AZY.png", "location_x": {"Points": [{"interpolation": 2, "co": {"Y": 0.0, "X": 1.0}}]}, "position": 160.4, "shear_y": {"Points": [{"interpolation": 2, "co": {"Y": 0.0, "X": 1.0}}]}, "file_id": "O8MDU83AZY", "shear_x": {"Points": [{"interpolation": 2, "co": {"Y": 0.0, "X": 1.0}}]}, "channel_filter": {"Points": [{"interpolation": 2, "co": {"Y": -1.0, "X": 1.0}}]}, "wave_color": {"blue": {"Points": [{"interpolation": 0, "co": {"Y": 255.0, "X": 1.0}, "handle_right": {"Y": 0.0, "X": 0.5}, "handle_left": {"Y": 1.0, "X": 0.5}, "handle_type": 0}]}, "red": {"Points": [{"interpolation": 0, "co": {"Y": 0.0, "X": 1.0}, "handle_right": {"Y": 0.0, "X": 0.5}, "handle_left": {"Y": 1.0, "X": 0.5}, "handle_type": 0}]}, "green": {"Points": [{"interpolation": 0, "co": {"Y": 123.0, "X": 1.0}, "handle_right": {"Y": 0.0, "X": 0.5}, "handle_left": {"Y": 1.0, "X": 0.5}, "handle_type": 0}]}, "alpha": {"Points": [{"interpolation": 0, "co": {"Y": 255.0, "X": 1.0}, "handle_right": {"Y": 0.0, "X": 0.5}, "handle_left": {"Y": 1.0, "X": 0.5}, "handle_type": 0}]}}, "display": 0, "time": {"Points": [{"interpolation": 2, "co": {"Y": 1.0, "X": 1.0}}]}, "start": 0, "perspective_c3_y": {"Points": [{"interpolation": 2, "co": {"Y": -1.0, "X": 1.0}}]}, "title": "Demo-06-Set School Name.mkv", "reader": {"pixel_format": 0, "audio_timebase": {"num": 1, "den": 1}, "pixel_ratio": {"num": 1, "den": 1}, "video_bit_rate": 0, "channels": 0, "video_stream_index": 0, "interlaced_frame": false, "path": "/home/milind/Data/Projects/CTTdemo/Demo-06-Set School Name.mkv", "audio_stream_index": -1, "display_ratio": {"num": 683, "den": 384}, "has_single_image": false, "top_field_first": true, "vcodec": "h264", "video_length": "600", "height": 768, "channel_layout": 4, "fps": {"num": 25, "den": 1}, "audio_bit_rate": 0, "acodec": "", "has_video": true, "file_size": "404652", "type": "FFmpegReader", "duration": 24.0, "video_timebase": {"num": 1, "den": 1000}, "has_audio": false, "sample_rate": 0, "width": 1366}, "crop_height": {"Points": [{"interpolation": 2, "co": {"Y": -1.0, "X": 1.0}}]}, "rotation": {"Points": [{"interpolation": 2, "co": {"Y": 0.0, "X": 1.0}}]}, "effects": [], "scale_x": {"Points": [{"interpolation": 2, "co": {"Y": 1.0, "X": 1.0}}]}, "perspective_c1_y": {"Points": [{"interpolation": 2, "co": {"Y": -1.0, "X": 1.0}}]}, "crop_width": {"Points": [{"interpolation": 2, "co": {"Y": -1.0, "X": 1.0}}]}, "perspective_c4_y": {"Points": [{"interpolation": 2, "co": {"Y": -1.0, "X": 1.0}}]}, "volume": {"Points": [{"interpolation": 2, "co": {"Y": 1.0, "X": 1.0}}]}, "scale_y": {"Points": [{"interpolation": 2, "co": {"Y": 1.0, "X": 1.0}}]}, "crop_y": {"Points": [{"interpolation": 2, "co": {"Y": 0.0, "X": 1.0}}]}, "perspective_c3_x": {"Points": [{"interpolation": 2, "co": {"Y": -1.0, "X": 1.0}}]}, "perspective_c4_x": {"Points": [{"interpolation": 2, "co": {"Y": -1.0, "X": 1.0}}]}, "duration": 24.0, "waveform": false, "has_audio": {"Points": [{"interpolation": 2, "co": {"Y": -1.0, "X": 1.0}}]}, "anchor": 0, "has_video": {"Points": [{"interpolation": 2, "co": {"Y": -1.0, "X": 1.0}}]}}, {"channel_mapping": {"Points": [{"interpolation": 2, "co": {"Y": -1.0, "X": 1.0}}]}, "crop_x": {"Points": [{"interpolation": 2, "co": {"Y": 0.0, "X": 1.0}}]}, "alpha": {"Points": [{"interpolation": 2, "co": {"Y": 1.0, "X": 1.0}}, {"interpolation": 0, "co": {"Y": 0.0, "X": 1.0}, "handle_right": {"Y": 0.0, "X": 0.5}, "handle_left": {"Y": 1.0, "X": 0.5}, "handle_type": 0}, {"interpolation": 0, "co": {"Y": 1.0, "X": 73.0}, "handle_right": {"Y": 0.0, "X": 0.5}, "handle_left": {"Y": 1.0, "X": 0.5}, "handle_type": 0}, {"co": {"Y": 0.0, "X": 1.0}, "interpolation": 0, "handle_right": {"Y": 0.0, "X": 0.5}, "handle_left": {"Y": 1.0, "X": 0.5}, "handle_type": 0}, {"co": {"Y": 1.0, "X": 73.0}, "interpolation": 0, "handle_right": {"Y": 0.0, "X": 0.5}, "handle_left": {"Y": 1.0, "X": 0.5}, "handle_type": 0}, {"co": {"Y": 1.0, "X": 609.0}, "interpolation": 0, "handle_right": {"Y": 0.0, "X": 0.5}, "handle_left": {"Y": 1.0, "X": 0.5}, "handle_type": 0}, {"co": {"Y": 0.0, "X": 681.0}, "interpolation": 0, "handle_right": {"Y": 0.0, "X": 0.5}, "handle_left": {"Y": 1.0, "X": 0.5}, "handle_type": 0}]}, "location_y": {"Points": [{"interpolation": 2, "co": {"Y": 0.0, "X": 1.0}}]}, "perspective_c2_y": {"Points": [{"interpolation": 2, "co": {"Y": -1.0, "X": 1.0}}]}, "end": 28.333333333333343, "id": "BPQZZB1IGM", "gravity": 4, "perspective_c1_x": {"Points": [{"interpolation": 2, "co": {"Y": -1.0, "X": 1.0}}]}, "scale": 1, "perspective_c2_x": {"Points": [{"interpolation": 2, "co": {"Y": -1.0, "X": 1.0}}]}, "image": "/home/milind/.openshot_qt/thumbnail/8BO13HSLCT.png", "volume": {"Points": [{"interpolation": 2, "co": {"Y": 1.0, "X": 1.0}}]}, "perspective_c4_x": {"Points": [{"interpolation": 2, "co": {"Y": -1.0, "X": 1.0}}]}, "shear_y": {"Points": [{"interpolation": 2, "co": {"Y": 0.0, "X": 1.0}}]}, "file_id": "8BO13HSLCT", "shear_x": {"Points": [{"interpolation": 2, "co": {"Y": 0.0, "X": 1.0}}]}, "channel_filter": {"Points": [{"interpolation": 2, "co": {"Y": -1.0, "X": 1.0}}]}, "wave_color": {"blue": {"Points": [{"interpolation": 0, "co": {"Y": 255.0, "X": 1.0}, "handle_right": {"Y": 0.0, "X": 0.5}, "handle_left": {"Y": 1.0, "X": 0.5}, "handle_type": 0}]}, "red": {"Points": [{"interpolation": 0, "co": {"Y": 0.0, "X": 1.0}, "handle_right": {"Y": 0.0, "X": 0.5}, "handle_left": {"Y": 1.0, "X": 0.5}, "handle_type": 0}]}, "green": {"Points": [{"interpolation": 0, "co": {"Y": 123.0, "X": 1.0}, "handle_right": {"Y": 0.0, "X": 0.5}, "handle_left": {"Y": 1.0, "X": 0.5}, "handle_type": 0}]}, "alpha": {"Points": [{"interpolation": 0, "co": {"Y": 255.0, "X": 1.0}, "handle_right": {"Y": 0.0, "X": 0.5}, "handle_left": {"Y": 1.0, "X": 0.5}, "handle_type": 0}]}}, "display": 0, "time": {"Points": [{"interpolation": 1, "co": {"Y": 1.0, "X": 1.0}}, {"interpolation": 1, "co": {"Y": 1585.0, "X": 793.0}}]}, "start": 0, "crop_y": {"Points": [{"interpolation": 2, "co": {"Y": 0.0, "X": 1.0}}]}, "title": "Demo-07-SetPrinter and Print Current.mkv", "crop_height": {"Points": [{"interpolation": 2, "co": {"Y": -1.0, "X": 1.0}}]}, "rotation": {"Points": [{"interpolation": 2, "co": {"Y": 0.0, "X": 1.0}}]}, "has_video": {"Points": [{"interpolation": 2, "co": {"Y": -1.0, "X": 1.0}}]}, "effects": [], "scale_x": {"Points": [{"interpolation": 2, "co": {"Y": 1.0, "X": 1.0}}]}, "perspective_c1_y": {"Points": [{"interpolation": 2, "co": {"Y": -1.0, "X": 1.0}}]}, "crop_width": {"Points": [{"interpolation": 2, "co": {"Y": -1.0, "X": 1.0}}]}, "perspective_c4_y": {"Points": [{"interpolation": 2, "co": {"Y": -1.0, "X": 1.0}}]}, "layer": 4, "scale_y": {"Points": [{"interpolation": 2, "co": {"Y": 1.0, "X": 1.0}}]}, "perspective_c3_y": {"Points": [{"interpolation": 2, "co": {"Y": -1.0, "X": 1.0}}]}, "perspective_c3_x": {"Points": [{"interpolation": 2, "co": {"Y": -1.0, "X": 1.0}}]}, "location_x": {"Points": [{"interpolation": 2, "co": {"Y": 0.0, "X": 1.0}}]}, "position": 179.4, "duration": 32.0, "reader": {"pixel_format": 0, "audio_timebase": {"num": 1, "den": 1}, "pixel_ratio": {"num": 1, "den": 1}, "video_bit_rate": 0, "channels": 0, "video_stream_index": 0, "interlaced_frame": false, "path": "/home/milind/Data/Projects/CTTdemo/Demo-07-SetPrinter and Print Current.mkv", "audio_stream_index": -1, "display_ratio": {"num": 683, "den": 384}, "has_single_image": false, "top_field_first": true, "vcodec": "h264", "video_length": "1650", "height": 768, "channel_layout": 4, "fps": {"num": 25, "den": 1}, "audio_bit_rate": 0, "acodec": "", "has_video": true, "file_size": "1142597", "type": "FFmpegReader", "duration": 66.0, "video_timebase": {"num": 1, "den": 1000}, "has_audio": false, "sample_rate": 0, "width": 1366}, "has_audio": {"Points": [{"interpolation": 2, "co": {"Y": -1.0, "X": 1.0}}]}, "anchor": 0, "waveform": false}, {"channel_mapping": {"Points": [{"interpolation": 2, "co": {"Y": -1.0, "X": 1.0}}]}, "crop_x": {"Points": [{"interpolation": 2, "co": {"Y": 0.0, "X": 1.0}}]}, "alpha": {"Points": [{"interpolation": 2, "co": {"Y": 1.0, "X": 1.0}}, {"interpolation": 0, "co": {"Y": 0.0, "X": 1.0}, "handle_right": {"Y": 0.0, "X": 0.5}, "handle_left": {"Y": 1.0, "X": 0.5}, "handle_type": 0}, {"interpolation": 0, "co": {"Y": 1.0, "X": 73.0}, "handle_right": {"Y": 0.0, "X": 0.5}, "handle_left": {"Y": 1.0, "X": 0.5}, "handle_type": 0}, {"interpolation": 0, "co": {"Y": 1.0, "X": 169.0}, "handle_right": {"Y": 0.0, "X": 0.5}, "handle_left": {"Y": 1.0, "X": 0.5}, "handle_type": 0}, {"interpolation": 0, "co": {"Y": 0.0, "X": 241.0}, "handle_right": {"Y": 0.0, "X": 0.5}, "handle_left": {"Y": 1.0, "X": 0.5}, "handle_type": 0}]}, "title": "Title-Start.svg", "perspective_c2_y": {"Points": [{"interpolation": 2, "co": {"Y": -1.0, "X": 1.0}}]}, "layer": 4, "end": 10, "id": "XT2N90YHJ7", "gravity": 4, "perspective_c1_x": {"Points": [{"interpolation": 2, "co": {"Y": -1.0, "X": 1.0}}]}, "scale": 1, "perspective_c2_x": {"Points": [{"interpolation": 2, "co": {"Y": -1.0, "X": 1.0}}]}, "image": "/home/milind/.openshot_qt/thumbnail/035S9FEBR2.png", "location_x": {"Points": [{"interpolation": 2, "co": {"Y": 0.0, "X": 1.0}}]}, "position": 0, "shear_y": {"Points": [{"interpolation": 2, "co": {"Y": 0.0, "X": 1.0}}]}, "file_id": "035S9FEBR2", "shear_x": {"Points": [{"interpolation": 2, "co": {"Y": 0.0, "X": 1.0}}]}, "channel_filter": {"Points": [{"interpolation": 2, "co": {"Y": -1.0, "X": 1.0}}]}, "wave_color": {"red": {"Points": [{"interpolation": 0, "co": {"Y": 0.0, "X": 1.0}, "handle_right": {"Y": 0.0, "X": 0.5}, "handle_left": {"Y": 1.0, "X": 0.5}, "handle_type": 0}]}, "blue": {"Points": [{"interpolation": 0, "co": {"Y": 255.0, "X": 1.0}, "handle_right": {"Y": 0.0, "X": 0.5}, "handle_left": {"Y": 1.0, "X": 0.5}, "handle_type": 0}]}, "green": {"Points": [{"interpolation": 0, "co": {"Y": 123.0, "X": 1.0}, "handle_right": {"Y": 0.0, "X": 0.5}, "handle_left": {"Y": 1.0, "X": 0.5}, "handle_type": 0}]}, "alpha": {"Points": [{"interpolation": 0, "co": {"Y": 255.0, "X": 1.0}, "handle_right": {"Y": 0.0, "X": 0.5}, "handle_left": {"Y": 1.0, "X": 0.5}, "handle_type": 0}]}}, "display": 0, "time": {"Points": [{"interpolation": 2, "co": {"Y": 1.0, "X": 1.0}}]}, "start": 0, "perspective_c3_y": {"Points": [{"interpolation": 2, "co": {"Y": -1.0, "X": 1.0}}]}, "location_y": {"Points": [{"interpolation": 2, "co": {"Y": 0.0, "X": 1.0}}]}, "crop_height": {"Points": [{"interpolation": 2, "co": {"Y": -1.0, "X": 1.0}}]}, "rotation": {"Points": [{"interpolation": 2, "co": {"Y": 0.0, "X": 1.0}}]}, "has_video": {"Points": [{"interpolation": 2, "co": {"Y": -1.0, "X": 1.0}}]}, "effects": [], "scale_x": {"Points": [{"interpolation": 2, "co": {"Y": 1.0, "X": 1.0}}]}, "perspective_c1_y": {"Points": [{"interpolation": 2, "co": {"Y": -1.0, "X": 1.0}}]}, "crop_width": {"Points": [{"interpolation": 2, "co": {"Y": -1.0, "X": 1.0}}]}, "perspective_c4_y": {"Points": [{"interpolation": 2, "co": {"Y": -1.0, "X": 1.0}}]}, "volume": {"Points": [{"interpolation": 2, "co": {"Y": 1.0, "X": 1.0}}]}, "scale_y": {"Points": [{"interpolation": 2, "co": {"Y": 1.0, "X": 1.0}}]}, "crop_y": {"Points": [{"interpolation": 2, "co": {"Y": 0.0, "X": 1.0}}]}, "perspective_c3_x": {"Points": [{"interpolation": 2, "co": {"Y": -1.0, "X": 1.0}}]}, "perspective_c4_x": {"Points": [{"interpolation": 2, "co": {"Y": -1.0, "X": 1.0}}]}, "duration": 86400.0, "reader": {"pixel_format": -1, "audio_timebase": {"num": 1, "den": 1}, "pixel_ratio": {"num": 1, "den": 1}, "video_bit_rate": 0, "channels": 0, "video_stream_index": -1, "interlaced_frame": false, "path": "/home/milind/Data/Projects/CTTdemo/assets/Title-Start.svg", "audio_stream_index": -1, "display_ratio": {"num": 16, "den": 9}, "has_single_image": true, "top_field_first": true, "vcodec": "", "video_length": "2592000", "height": 1080, "channel_layout": 4, "fps": {"num": 30, "den": 1}, "audio_bit_rate": 0, "acodec": "", "has_video": true, "file_size": "8294400", "type": "QtImageReader", "duration": 86400.0, "video_timebase": {"num": 1, "den": 30}, "has_audio": false, "sample_rate": 0, "width": 1920}, "has_audio": {"Points": [{"interpolation": 2, "co": {"Y": -1.0, "X": 1.0}}]}, "anchor": 0, "waveform": false}, {"perspective_c2_y": {"Points": [{"interpolation": 2, "co": {"Y": -1.0, "X": 1.0}}]}, "crop_x": {"Points": [{"interpolation": 2, "co": {"Y": 0.0, "X": 1.0}}]}, "alpha": {"Points": [{"interpolation": 2, "co": {"Y": 1.0, "X": 1.0}}, {"interpolation": 0, "co": {"Y": 0.0, "X": 1.0}, "handle_right": {"Y": 0.0, "X": 0.5}, "handle_left": {"Y": 1.0, "X": 0.5}, "handle_type": 0}, {"interpolation": 0, "co": {"Y": 1.0, "X": 73.0}, "handle_right": {"Y": 0.0, "X": 0.5}, "handle_left": {"Y": 1.0, "X": 0.5}, "handle_type": 0}, {"interpolation": 0, "co": {"Y": 1.0, "X": 169.0}, "handle_right": {"Y": 0.0, "X": 0.5}, "handle_left": {"Y": 1.0, "X": 0.5}, "handle_type": 0}, {"interpolation": 0, "co": {"Y": 0.0, "X": 241.0}, "handle_right": {"Y": 0.0, "X": 0.5}, "handle_left": {"Y": 1.0, "X": 0.5}, "handle_type": 0}]}, "title": "TitleFileName-3.svg", "channel_mapping": {"Points": [{"interpolation": 2, "co": {"Y": -1.0, "X": 1.0}}]}, "layer": 4, "end": 10, "id": "4TIGU4D63N", "gravity": 4, "perspective_c1_x": {"Points": [{"interpolation": 2, "co": {"Y": -1.0, "X": 1.0}}]}, "scale": 1, "perspective_c2_x": {"Points": [{"interpolation": 2, "co": {"Y": -1.0, "X": 1.0}}]}, "image": "/home/milind/.openshot_qt/thumbnail/FQIXCNMEB9.png", "location_x": {"Points": [{"interpolation": 2, "co": {"Y": 0.0, "X": 1.0}}]}, "position": 207.73333333333335, "shear_y": {"Points": [{"interpolation": 2, "co": {"Y": 0.0, "X": 1.0}}]}, "file_id": "FQIXCNMEB9", "shear_x": {"Points": [{"interpolation": 2, "co": {"Y": 0.0, "X": 1.0}}]}, "channel_filter": {"Points": [{"interpolation": 2, "co": {"Y": -1.0, "X": 1.0}}]}, "wave_color": {"red": {"Points": [{"interpolation": 0, "co": {"Y": 0.0, "X": 1.0}, "handle_right": {"Y": 0.0, "X": 0.5}, "handle_left": {"Y": 1.0, "X": 0.5}, "handle_type": 0}]}, "blue": {"Points": [{"interpolation": 0, "co": {"Y": 255.0, "X": 1.0}, "handle_right": {"Y": 0.0, "X": 0.5}, "handle_left": {"Y": 1.0, "X": 0.5}, "handle_type": 0}]}, "green": {"Points": [{"interpolation": 0, "co": {"Y": 123.0, "X": 1.0}, "handle_right": {"Y": 0.0, "X": 0.5}, "handle_left": {"Y": 1.0, "X": 0.5}, "handle_type": 0}]}, "alpha": {"Points": [{"interpolation": 0, "co": {"Y": 255.0, "X": 1.0}, "handle_right": {"Y": 0.0, "X": 0.5}, "handle_left": {"Y": 1.0, "X": 0.5}, "handle_type": 0}]}}, "display": 0, "time": {"Points": [{"interpolation": 2, "co": {"Y": 1.0, "X": 1.0}}]}, "start": 0, "perspective_c3_y": {"Points": [{"interpolation": 2, "co": {"Y": -1.0, "X": 1.0}}]}, "location_y": {"Points": [{"interpolation": 2, "co": {"Y": 0.0, "X": 1.0}}]}, "crop_height": {"Points": [{"interpolation": 2, "co": {"Y": -1.0, "X": 1.0}}]}, "rotation": {"Points": [{"interpolation": 2, "co": {"Y": 0.0, "X": 1.0}}]}, "has_video": {"Points": [{"interpolation": 2, "co": {"Y": -1.0, "X": 1.0}}]}, "effects": [], "scale_x": {"Points": [{"interpolation": 2, "co": {"Y": 1.0, "X": 1.0}}]}, "perspective_c1_y": {"Points": [{"interpolation": 2, "co": {"Y": -1.0, "X": 1.0}}]}, "crop_width": {"Points": [{"interpolation": 2, "co": {"Y": -1.0, "X": 1.0}}]}, "perspective_c4_y": {"Points": [{"interpolation": 2, "co": {"Y": -1.0, "X": 1.0}}]}, "volume": {"Points": [{"interpolation": 2, "co": {"Y": 1.0, "X": 1.0}}]}, "scale_y": {"Points": [{"interpolation": 2, "co": {"Y": 1.0, "X": 1.0}}]}, "crop_y": {"Points": [{"interpolation": 2, "co": {"Y": 0.0, "X": 1.0}}]}, "perspective_c3_x": {"Points": [{"interpolation": 2, "co": {"Y": -1.0, "X": 1.0}}]}, "perspective_c4_x": {"Points": [{"interpolation": 2, "co": {"Y": -1.0, "X": 1.0}}]}, "duration": 86400.0, "reader": {"pixel_format": -1, "audio_timebase": {"num": 1, "den": 1}, "pixel_ratio": {"num": 1, "den": 1}, "video_bit_rate": 0, "channels": 0, "video_stream_index": -1, "interlaced_frame": false, "path": "/home/milind/Data/Projects/CTTdemo/assets/TitleFileName-3.svg", "audio_stream_index": -1, "display_ratio": {"num": 16, "den": 9}, "has_single_image": true, "top_field_first": true, "vcodec": "", "video_length": "2592000", "height": 1080, "channel_layout": 4, "fps": {"num": 30, "den": 1}, "audio_bit_rate": 0, "acodec": "", "has_video": true, "file_size": "8294400", "type": "QtImageReader", "duration": 86400.0, "video_timebase": {"num": 1, "den": 30}, "has_audio": false, "sample_rate": 0, "width": 1920}, "has_audio": {"Points": [{"interpolation": 2, "co": {"Y": -1.0, "X": 1.0}}]}, "anchor": 0, "waveform": false}], "type": "insert", "key": ["clips"], "value": {"channel_mapping": {"Points": [{"co": {"Y": -1.0, "X": 1.0}, "interpolation": 2}]}, "location_x": {"Points": [{"co": {"Y": 0.0, "X": 1.0}, "interpolation": 2}, {"co": {"Y": 0.0, "X": 1.0}, "interpolation": 0, "handle_right": {"Y": 0.0, "X": 0.5}, "handle_left": {"Y": 1.0, "X": 0.5}, "handle_type": 0}, {"co": {"Y": 0.0, "X": 241.0}, "interpolation": 0, "handle_right": {"Y": 0.0, "X": 0.5}, "handle_left": {"Y": 1.0, "X": 0.5}, "handle_type": 0}]}, "alpha": {"Points": [{"co": {"Y": 1.0, "X": 1.0}, "interpolation": 2}, {"co": {"Y": 0.0, "X": 1.0}, "interpolation": 0, "handle_right": {"Y": 0.0, "X": 0.5}, "handle_left": {"Y": 1.0, "X": 0.5}, "handle_type": 0}, {"co": {"Y": 1.0, "X": 73.0}, "interpolation": 0, "handle_right": {"Y": 0.0, "X": 0.5}, "handle_left": {"Y": 1.0, "X": 0.5}, "handle_type": 0}]}, "location_y": {"Points": [{"co": {"Y": 0.0, "X": 1.0}, "interpolation": 2}, {"co": {"Y": 1.0, "X": 1.0}, "interpolation": 0, "handle_right": {"Y": 0.0, "X": 0.5}, "handle_left": {"Y": 1.0, "X": 0.5}, "handle_type": 0}, {"co": {"Y": 0.0, "X": 241.0}, "interpolation": 0, "handle_right": {"Y": 0.0, "X": 0.5}, "handle_left": {"Y": 1.0, "X": 0.5}, "handle_type": 0}]}, "rotation": {"Points": [{"co": {"Y": 0.0, "X": 1.0}, "interpolation": 2}]}, "end": 10, "id": "O3BG0Y7CKW", "gravity": 4, "perspective_c1_x": {"Points": [{"co": {"Y": -1.0, "X": 1.0}, "interpolation": 2}]}, "scale": 1, "perspective_c2_x": {"Points": [{"co": {"Y": -1.0, "X": 1.0}, "interpolation": 2}]}, "image": "/home/milind/.openshot_qt/thumbnail/7WISDFXLOD.png", "effects": [], "perspective_c4_x": {"Points": [{"co": {"Y": -1.0, "X": 1.0}, "interpolation": 2}]}, "shear_y": {"Points": [{"co": {"Y": 0.0, "X": 1.0}, "interpolation": 2}]}, "file_id": "7WISDFXLOD", "shear_x": {"Points": [{"co": {"Y": 0.0, "X": 1.0}, "interpolation": 2}]}, "perspective_c3_y": {"Points": [{"co": {"Y": -1.0, "X": 1.0}, "interpolation": 2}]}, "channel_filter": {"Points": [{"co": {"Y": -1.0, "X": 1.0}, "interpolation": 2}]}, "wave_color": {"blue": {"Points": [{"co": {"Y": 255.0, "X": 1.0}, "interpolation": 0, "handle_right": {"Y": 0.0, "X": 0.5}, "handle_left": {"Y": 1.0, "X": 0.5}, "handle_type": 0}]}, "red": {"Points": [{"co": {"Y": 0.0, "X": 1.0}, "interpolation": 0, "handle_right": {"Y": 0.0, "X": 0.5}, "handle_left": {"Y": 1.0, "X": 0.5}, "handle_type": 0}]}, "green": {"Points": [{"co": {"Y": 123.0, "X": 1.0}, "interpolation": 0, "handle_right": {"Y": 0.0, "X": 0.5}, "handle_left": {"Y": 1.0, "X": 0.5}, "handle_type": 0}]}, "alpha": {"Points": [{"co": {"Y": 255.0, "X": 1.0}, "interpolation": 0, "handle_right": {"Y": 0.0, "X": 0.5}, "handle_left": {"Y": 1.0, "X": 0.5}, "handle_type": 0}]}}, "display": 0, "time": {"Points": [{"co": {"Y": 1.0, "X": 1.0}, "interpolation": 2}]}, "crop_x": {"Points": [{"co": {"Y": 0.0, "X": 1.0}, "interpolation": 2}]}, "crop_y": {"Points": [{"co": {"Y": 0.0, "X": 1.0}, "interpolation": 2}]}, "perspective_c2_y": {"Points": [{"co": {"Y": -1.0, "X": 1.0}, "interpolation": 2}]}, "title": "closing.svg", "crop_height": {"Points": [{"co": {"Y": -1.0, "X": 1.0}, "interpolation": 2}]}, "volume": {"Points": [{"co": {"Y": 1.0, "X": 1.0}, "interpolation": 2}]}, "start": 0, "scale_x": {"Points": [{"co": {"Y": 1.0, "X": 1.0}, "interpolation": 2}]}, "perspective_c1_y": {"Points": [{"co": {"Y": -1.0, "X": 1.0}, "interpolation": 2}]}, "crop_width": {"Points": [{"co": {"Y": -1.0, "X": 1.0}, "interpolation": 2}]}, "perspective_c4_y": {"Points": [{"co": {"Y": -1.0, "X": 1.0}, "interpolation": 2}]}, "layer": 4, "scale_y": {"Points": [{"co": {"Y": 1.0, "X": 1.0}, "interpolation": 2}]}, "has_video": {"Points": [{"co": {"Y": -1.0, "X": 1.0}, "interpolation": 2}]}, "perspective_c3_x": {"Points": [{"co": {"Y": -1.0, "X": 1.0}, "interpolation": 2}]}, "position": 207.7, "duration": 86400.0, "reader": {"pixel_format": -1, "top_field_first": true, "pixel_ratio": {"num": 1, "den": 1}, "video_bit_rate": 0, "channels": 0, "video_stream_index": -1, "interlaced_frame": false, "path": "/home/milind/Data/Projects/CTTdemo/assets/closing.svg", "audio_stream_index": -1, "display_ratio": {"num": 40, "den": 23}, "has_single_image": true, "audio_timebase": {"num": 1, "den": 1}, "vcodec": "", "video_length": "2592000", "height": 1104, "channel_layout": 4, "fps": {"num": 30, "den": 1}, "audio_bit_rate": 0, "acodec": "", "has_video": true, "file_size": "8478720", "type": "QtImageReader", "duration": 86400.0, "video_timebase": {"num": 1, "den": 30}, "has_audio": false, "sample_rate": 0, "width": 1920}, "has_audio": {"Points": [{"co": {"Y": -1.0, "X": 1.0}, "interpolation": 2}]}, "anchor": 0, "waveform": false}, "partial": false}, {"old_values": {"channel_mapping": {"Points": [{"co": {"Y": -1.0, "X": 1.0}, "interpolation": 2}]}, "crop_x": {"Points": [{"co": {"Y": 0.0, "X": 1.0}, "interpolation": 2}]}, "alpha": {"Points": [{"co": {"Y": 1.0, "X": 1.0}, "interpolation": 2}]}, "title": "closing.svg", "perspective_c2_y": {"Points": [{"co": {"Y": -1.0, "X": 1.0}, "interpolation": 2}]}, "layer": 4, "id": "O3BG0Y7CKW", "gravity": 4, "perspective_c1_x": {"Points": [{"co": {"Y": -1.0, "X": 1.0}, "interpolation": 2}]}, "scale": 1, "anchor": 0, "perspective_c2_x": {"Points": [{"co": {"Y": -1.0, "X": 1.0}, "interpolation": 2}]}, "image": "/home/milind/.openshot_qt/thumbnail/7WISDFXLOD.png", "effects": [], "perspective_c4_x": {"Points": [{"co": {"Y": -1.0, "X": 1.0}, "interpolation": 2}]}, "shear_y": {"Points": [{"co": {"Y": 0.0, "X": 1.0}, "interpolation": 2}]}, "file_id": "7WISDFXLOD", "shear_x": {"Points": [{"co": {"Y": 0.0, "X": 1.0}, "interpolation": 2}]}, "channel_filter": {"Points": [{"co": {"Y": -1.0, "X": 1.0}, "interpolation": 2}]}, "wave_color": {"blue": {"Points": [{"co": {"Y": 255.0, "X": 1.0}, "interpolation": 0, "handle_right": {"Y": 0.0, "X": 0.5}, "handle_left": {"Y": 1.0, "X": 0.5}, "handle_type": 0}]}, "red": {"Points": [{"co": {"Y": 0.0, "X": 1.0}, "interpolation": 0, "handle_right": {"Y": 0.0, "X": 0.5}, "handle_left": {"Y": 1.0, "X": 0.5}, "handle_type": 0}]}, "green": {"Points": [{"co": {"Y": 123.0, "X": 1.0}, "interpolation": 0, "handle_right": {"Y": 0.0, "X": 0.5}, "handle_left": {"Y": 1.0, "X": 0.5}, "handle_type": 0}]}, "alpha": {"Points": [{"co": {"Y": 255.0, "X": 1.0}, "interpolation": 0, "handle_right": {"Y": 0.0, "X": 0.5}, "handle_left": {"Y": 1.0, "X": 0.5}, "handle_type": 0}]}}, "display": 0, "location_y": {"Points": [{"co": {"Y": 0.0, "X": 1.0}, "interpolation": 2}]}, "time": {"Points": [{"co": {"Y": 1.0, "X": 1.0}, "interpolation": 2}]}, "start": 0.0, "perspective_c3_y": {"Points": [{"co": {"Y": -1.0, "X": 1.0}, "interpolation": 2}]}, "end": 10.0, "crop_height": {"Points": [{"co": {"Y": -1.0, "X": 1.0}, "interpolation": 2}]}, "rotation": {"Points": [{"co": {"Y": 0.0, "X": 1.0}, "interpolation": 2}]}, "scale_x": {"Points": [{"co": {"Y": 1.0, "X": 1.0}, "interpolation": 2}]}, "perspective_c1_y": {"Points": [{"co": {"Y": -1.0, "X": 1.0}, "interpolation": 2}]}, "crop_width": {"Points": [{"co": {"Y": -1.0, "X": 1.0}, "interpolation": 2}]}, "perspective_c4_y": {"Points": [{"co": {"Y": -1.0, "X": 1.0}, "interpolation": 2}]}, "volume": {"Points": [{"co": {"Y": 1.0, "X": 1.0}, "interpolation": 2}]}, "scale_y": {"Points": [{"co": {"Y": 1.0, "X": 1.0}, "interpolation": 2}]}, "has_video": {"Points": [{"co": {"Y": -1.0, "X": 1.0}, "interpolation": 2}]}, "perspective_c3_x": {"Points": [{"co": {"Y": -1.0, "X": 1.0}, "interpolation": 2}]}, "location_x": {"Points": [{"co": {"Y": 0.0, "X": 1.0}, "interpolation": 2}]}, "position": 204.3, "duration": 86400.0, "reader": {"pixel_format": -1, "audio_timebase": {"num": 1, "den": 1}, "pixel_ratio": {"num": 1, "den": 1}, "video_bit_rate": 0, "channels": 0, "video_stream_index": -1, "interlaced_frame": false, "audio_stream_index": -1, "display_ratio": {"num": 40, "den": 23}, "has_single_image": true, "top_field_first": true, "vcodec": "", "video_length": "2592000", "height": 1104, "channel_layout": 4, "fps": {"num": 30, "den": 1}, "audio_bit_rate": 0, "acodec": "", "type": "QtImageReader", "has_video": true, "file_size": "8478720", "path": "/home/milind/Data/Projects/CTTdemo/assets/closing.svg", "duration": 86400.0, "video_timebase": {"num": 1, "den": 30}, "has_audio": false, "sample_rate": 0, "width": 1920}, "has_audio": {"Points": [{"co": {"Y": -1.0, "X": 1.0}, "interpolation": 2}]}, "crop_y": {"Points": [{"co": {"Y": 0.0, "X": 1.0}, "interpolation": 2}]}, "waveform": false}, "type": "update", "key": ["clips", {"id": "O3BG0Y7CKW"}], "value": {"image": "/home/milind/.openshot_qt/thumbnail/7WISDFXLOD.png", "layer": 4, "position": 217.73333333333335, "end": 10, "id": "O3BG0Y7CKW", "start": 0}, "partial": false}, {"old_values": [{"perspective_c2_y": {"Points": [{"interpolation": 2, "co": {"Y": -1.0, "X": 1.0}}]}, "crop_x": {"Points": [{"interpolation": 2, "co": {"Y": 0.0, "X": 1.0}}]}, "alpha": {"Points": [{"interpolation": 2, "co": {"Y": 1.0, "X": 1.0}}, {"interpolation": 0, "co": {"Y": 0.0, "X": 1.0}, "handle_right": {"Y": 0.0, "X": 0.5}, "handle_left": {"Y": 1.0, "X": 0.5}, "handle_type": 0}, {"interpolation": 0, "co": {"Y": 1.0, "X": 73.0}, "handle_right": {"Y": 0.0, "X": 0.5}, "handle_left": {"Y": 1.0, "X": 0.5}, "handle_type": 0}, {"interpolation": 0, "co": {"Y": 1.0, "X": 790.0}, "handle_right": {"Y": 0.0, "X": 0.5}, "handle_left": {"Y": 1.0, "X": 0.5}, "handle_type": 0}, {"interpolation": 0, "co": {"Y": 0.0, "X": 862.0}, "handle_right": {"Y": 0.0, "X": 0.5}, "handle_left": {"Y": 1.0, "X": 0.5}, "handle_type": 0}]}, "location_y": {"Points": [{"interpolation": 2, "co": {"Y": 0.0, "X": 1.0}}]}, "channel_mapping": {"Points": [{"interpolation": 2, "co": {"Y": -1.0, "X": 1.0}}]}, "layer": 4, "end": 35.875, "id": "Z4ZIZQBYYY", "gravity": 4, "perspective_c1_x": {"Points": [{"interpolation": 2, "co": {"Y": -1.0, "X": 1.0}}]}, "scale": 1, "perspective_c2_x": {"Points": [{"interpolation": 2, "co": {"Y": -1.0, "X": 1.0}}]}, "image": "/home/milind/Data/Projects/.openshot_qt/thumbnail/8AMXXS1INM.png", "location_x": {"Points": [{"interpolation": 2, "co": {"Y": 0.0, "X": 1.0}}]}, "position": 10, "shear_y": {"Points": [{"interpolation": 2, "co": {"Y": 0.0, "X": 1.0}}]}, "file_id": "8AMXXS1INM", "shear_x": {"Points": [{"interpolation": 2, "co": {"Y": 0.0, "X": 1.0}}]}, "channel_filter": {"Points": [{"interpolation": 2, "co": {"Y": -1.0, "X": 1.0}}]}, "wave_color": {"blue": {"Points": [{"interpolation": 0, "co": {"Y": 255.0, "X": 1.0}, "handle_right": {"Y": 0.0, "X": 0.5}, "handle_left": {"Y": 1.0, "X": 0.5}, "handle_type": 0}]}, "red": {"Points": [{"interpolation": 0, "co": {"Y": 0.0, "X": 1.0}, "handle_right": {"Y": 0.0, "X": 0.5}, "handle_left": {"Y": 1.0, "X": 0.5}, "handle_type": 0}]}, "green": {"Points": [{"interpolation": 0, "co": {"Y": 123.0, "X": 1.0}, "handle_right": {"Y": 0.0, "X": 0.5}, "handle_left": {"Y": 1.0, "X": 0.5}, "handle_type": 0}]}, "alpha": {"Points": [{"interpolation": 0, "co": {"Y": 255.0, "X": 1.0}, "handle_right": {"Y": 0.0, "X": 0.5}, "handle_left": {"Y": 1.0, "X": 0.5}, "handle_type": 0}]}}, "display": 0, "time": {"Points": [{"interpolation": 1, "co": {"Y": 1.0, "X": 1.0}}, {"interpolation": 1, "co": {"Y": 1721.0, "X": 861.0}}]}, "start": 0, "perspective_c3_y": {"Points": [{"interpolation": 2, "co": {"Y": -1.0, "X": 1.0}}]}, "title": "Demo-02-Adding Time-Class Slots.mkv", "reader": {"pixel_format": 0, "audio_timebase": {"num": 1, "den": 1}, "pixel_ratio": {"num": 1, "den": 1}, "video_bit_rate": 0, "channels": 0, "video_stream_index": 0, "interlaced_frame": false, "path": "/home/milind/Data/Projects/CTTdemo/Demo-02-Adding Time-Class Slots.mkv", "audio_stream_index": -1, "display_ratio": {"num": 683, "den": 384}, "has_single_image": false, "top_field_first": true, "vcodec": "h264", "video_length": "1900", "height": 768, "channel_layout": 4, "fps": {"num": 25, "den": 1}, "audio_bit_rate": 0, "acodec": "", "has_video": true, "file_size": "502317", "type": "FFmpegReader", "duration": 76.0, "video_timebase": {"num": 1, "den": 1000}, "has_audio": false, "sample_rate": 0, "width": 1366}, "crop_height": {"Points": [{"interpolation": 2, "co": {"Y": -1.0, "X": 1.0}}]}, "rotation": {"Points": [{"interpolation": 2, "co": {"Y": 0.0, "X": 1.0}}]}, "effects": [], "scale_x": {"Points": [{"interpolation": 2, "co": {"Y": 1.0, "X": 1.0}}]}, "perspective_c1_y": {"Points": [{"interpolation": 2, "co": {"Y": -1.0, "X": 1.0}}]}, "crop_width": {"Points": [{"interpolation": 2, "co": {"Y": -1.0, "X": 1.0}}]}, "perspective_c4_y": {"Points": [{"interpolation": 2, "co": {"Y": -1.0, "X": 1.0}}]}, "volume": {"Points": [{"interpolation": 2, "co": {"Y": 1.0, "X": 1.0}}]}, "scale_y": {"Points": [{"interpolation": 2, "co": {"Y": 1.0, "X": 1.0}}]}, "crop_y": {"Points": [{"interpolation": 2, "co": {"Y": 0.0, "X": 1.0}}]}, "perspective_c3_x": {"Points": [{"interpolation": 2, "co": {"Y": -1.0, "X": 1.0}}]}, "perspective_c4_x": {"Points": [{"interpolation": 2, "co": {"Y": -1.0, "X": 1.0}}]}, "duration": 38.0, "waveform": false, "has_audio": {"Points": [{"interpolation": 2, "co": {"Y": -1.0, "X": 1.0}}]}, "anchor": 0, "has_video": {"Points": [{"interpolation": 2, "co": {"Y": -1.0, "X": 1.0}}]}}, {"perspective_c2_y": {"Points": [{"interpolation": 2, "co": {"Y": -1.0, "X": 1.0}}]}, "crop_x": {"Points": [{"interpolation": 2, "co": {"Y": 0.0, "X": 1.0}}]}, "alpha": {"Points": [{"interpolation": 2, "co": {"Y": 1.0, "X": 1.0}}, {"interpolation": 0, "co": {"Y": 0.0, "X": 1.0}, "handle_right": {"Y": 0.0, "X": 0.5}, "handle_left": {"Y": 1.0, "X": 0.5}, "handle_type": 0}, {"interpolation": 0, "co": {"Y": 1.0, "X": 73.0}, "handle_right": {"Y": 0.0, "X": 0.5}, "handle_left": {"Y": 1.0, "X": 0.5}, "handle_type": 0}, {"interpolation": 0, "co": {"Y": 1.0, "X": 317.0}, "handle_right": {"Y": 0.0, "X": 0.5}, "handle_left": {"Y": 1.0, "X": 0.5}, "handle_type": 0}, {"interpolation": 0, "co": {"Y": 0.0, "X": 389.0}, "handle_right": {"Y": 0.0, "X": 0.5}, "handle_left": {"Y": 1.0, "X": 0.5}, "handle_type": 0}]}, "location_y": {"Points": [{"interpolation": 2, "co": {"Y": 0.0, "X": 1.0}}]}, "channel_mapping": {"Points": [{"interpolation": 2, "co": {"Y": -1.0, "X": 1.0}}]}, "layer": 4, "end": 16.183333333333337, "id": "HUCJUHW5KR", "gravity": 4, "perspective_c1_x": {"Points": [{"interpolation": 2, "co": {"Y": -1.0, "X": 1.0}}]}, "scale": 1, "perspective_c2_x": {"Points": [{"interpolation": 2, "co": {"Y": -1.0, "X": 1.0}}]}, "image": "/home/milind/Data/Projects/.openshot_qt/thumbnail/FUP4DCVZ3U.png", "location_x": {"Points": [{"interpolation": 2, "co": {"Y": 0.0, "X": 1.0}}]}, "position": 45.8, "shear_y": {"Points": [{"interpolation": 2, "co": {"Y": 0.0, "X": 1.0}}]}, "file_id": "FUP4DCVZ3U", "shear_x": {"Points": [{"interpolation": 2, "co": {"Y": 0.0, "X": 1.0}}]}, "channel_filter": {"Points": [{"interpolation": 2, "co": {"Y": -1.0, "X": 1.0}}]}, "wave_color": {"blue": {"Points": [{"interpolation": 0, "co": {"Y": 255.0, "X": 1.0}, "handle_right": {"Y": 0.0, "X": 0.5}, "handle_left": {"Y": 1.0, "X": 0.5}, "handle_type": 0}]}, "red": {"Points": [{"interpolation": 0, "co": {"Y": 0.0, "X": 1.0}, "handle_right": {"Y": 0.0, "X": 0.5}, "handle_left": {"Y": 1.0, "X": 0.5}, "handle_type": 0}]}, "green": {"Points": [{"interpolation": 0, "co": {"Y": 123.0, "X": 1.0}, "handle_right": {"Y": 0.0, "X": 0.5}, "handle_left": {"Y": 1.0, "X": 0.5}, "handle_type": 0}]}, "alpha": {"Points": [{"interpolation": 0, "co": {"Y": 255.0, "X": 1.0}, "handle_right": {"Y": 0.0, "X": 0.5}, "handle_left": {"Y": 1.0, "X": 0.5}, "handle_type": 0}]}}, "display": 0, "time": {"Points": [{"interpolation": 2, "co": {"Y": 1.0, "X": 1.0}}]}, "start": 0, "perspective_c3_y": {"Points": [{"interpolation": 2, "co": {"Y": -1.0, "X": 1.0}}]}, "title": "Demo-03-Renaming copy pasted Time-Slots.mkv", "reader": {"pixel_format": 0, "audio_timebase": {"num": 1, "den": 1}, "pixel_ratio": {"num": 1, "den": 1}, "video_bit_rate": 0, "channels": 0, "video_stream_index": 0, "interlaced_frame": false, "path": "/home/milind/Data/Projects/CTTdemo/Demo-03-Renaming copy pasted Time-Slots.mkv", "audio_stream_index": -1, "display_ratio": {"num": 683, "den": 384}, "has_single_image": false, "top_field_first": true, "vcodec": "h264", "video_length": "525", "height": 768, "channel_layout": 4, "fps": {"num": 25, "den": 1}, "audio_bit_rate": 0, "acodec": "", "has_video": true, "file_size": "191199", "type": "FFmpegReader", "duration": 21.0, "video_timebase": {"num": 1, "den": 1000}, "has_audio": false, "sample_rate": 0, "width": 1366}, "crop_height": {"Points": [{"interpolation": 2, "co": {"Y": -1.0, "X": 1.0}}]}, "rotation": {"Points": [{"interpolation": 2, "co": {"Y": 0.0, "X": 1.0}}]}, "effects": [], "scale_x": {"Points": [{"interpolation": 2, "co": {"Y": 1.0, "X": 1.0}}]}, "perspective_c1_y": {"Points": [{"interpolation": 2, "co": {"Y": -1.0, "X": 1.0}}]}, "crop_width": {"Points": [{"interpolation": 2, "co": {"Y": -1.0, "X": 1.0}}]}, "perspective_c4_y": {"Points": [{"interpolation": 2, "co": {"Y": -1.0, "X": 1.0}}]}, "volume": {"Points": [{"interpolation": 2, "co": {"Y": 1.0, "X": 1.0}}]}, "scale_y": {"Points": [{"interpolation": 2, "co": {"Y": 1.0, "X": 1.0}}]}, "crop_y": {"Points": [{"interpolation": 2, "co": {"Y": 0.0, "X": 1.0}}]}, "perspective_c3_x": {"Points": [{"interpolation": 2, "co": {"Y": -1.0, "X": 1.0}}]}, "perspective_c4_x": {"Points": [{"interpolation": 2, "co": {"Y": -1.0, "X": 1.0}}]}, "duration": 21.0, "waveform": false, "has_audio": {"Points": [{"interpolation": 2, "co": {"Y": -1.0, "X": 1.0}}]}, "anchor": 0, "has_video": {"Points": [{"interpolation": 2, "co": {"Y": -1.0, "X": 1.0}}]}}, {"perspective_c2_y": {"Points": [{"interpolation": 2, "co": {"Y": -1.0, "X": 1.0}}]}, "crop_x": {"Points": [{"interpolation": 2, "co": {"Y": 0.0, "X": 1.0}}]}, "alpha": {"Points": [{"interpolation": 2, "co": {"Y": 1.0, "X": 1.0}}, {"interpolation": 0, "co": {"Y": 0.0, "X": 1.0}, "handle_right": {"Y": 0.0, "X": 0.5}, "handle_left": {"Y": 1.0, "X": 0.5}, "handle_type": 0}, {"interpolation": 0, "co": {"Y": 1.0, "X": 73.0}, "handle_right": {"Y": 0.0, "X": 0.5}, "handle_left": {"Y": 1.0, "X": 0.5}, "handle_type": 0}, {"interpolation": 0, "co": {"Y": 1.0, "X": 1412.0}, "handle_right": {"Y": 0.0, "X": 0.5}, "handle_left": {"Y": 1.0, "X": 0.5}, "handle_type": 0}, {"interpolation": 0, "co": {"Y": 0.0, "X": 1484.0}, "handle_right": {"Y": 0.0, "X": 0.5}, "handle_left": {"Y": 1.0, "X": 0.5}, "handle_type": 0}]}, "location_y": {"Points": [{"interpolation": 2, "co": {"Y": 0.0, "X": 1.0}}]}, "channel_mapping": {"Points": [{"interpolation": 2, "co": {"Y": -1.0, "X": 1.0}}]}, "layer": 4, "end": 61.791666666666664, "id": "5SL6Z206WO", "gravity": 4, "perspective_c1_x": {"Points": [{"interpolation": 2, "co": {"Y": -1.0, "X": 1.0}}]}, "scale": 1, "perspective_c2_x": {"Points": [{"interpolation": 2, "co": {"Y": -1.0, "X": 1.0}}]}, "image": "/home/milind/.openshot_qt/thumbnail/RVOUXSUSEQ.png", "location_x": {"Points": [{"interpolation": 2, "co": {"Y": 0.0, "X": 1.0}}]}, "position": 61.9, "shear_y": {"Points": [{"interpolation": 2, "co": {"Y": 0.0, "X": 1.0}}]}, "file_id": "RVOUXSUSEQ", "shear_x": {"Points": [{"interpolation": 2, "co": {"Y": 0.0, "X": 1.0}}]}, "channel_filter": {"Points": [{"interpolation": 2, "co": {"Y": -1.0, "X": 1.0}}]}, "wave_color": {"blue": {"Points": [{"interpolation": 0, "co": {"Y": 255.0, "X": 1.0}, "handle_right": {"Y": 0.0, "X": 0.5}, "handle_left": {"Y": 1.0, "X": 0.5}, "handle_type": 0}]}, "red": {"Points": [{"interpolation": 0, "co": {"Y": 0.0, "X": 1.0}, "handle_right": {"Y": 0.0, "X": 0.5}, "handle_left": {"Y": 1.0, "X": 0.5}, "handle_type": 0}]}, "green": {"Points": [{"interpolation": 0, "co": {"Y": 123.0, "X": 1.0}, "handle_right": {"Y": 0.0, "X": 0.5}, "handle_left": {"Y": 1.0, "X": 0.5}, "handle_type": 0}]}, "alpha": {"Points": [{"interpolation": 0, "co": {"Y": 255.0, "X": 1.0}, "handle_right": {"Y": 0.0, "X": 0.5}, "handle_left": {"Y": 1.0, "X": 0.5}, "handle_type": 0}]}}, "display": 0, "time": {"Points": [{"interpolation": 1, "co": {"Y": 1.0, "X": 1.0}}, {"interpolation": 1, "co": {"Y": 5929.0, "X": 1483.0}}]}, "start": 0, "perspective_c3_y": {"Points": [{"interpolation": 2, "co": {"Y": -1.0, "X": 1.0}}]}, "title": "Demo-04-Lecture Entry-Clash remove and Demo TT.mkv", "reader": {"pixel_format": 0, "audio_timebase": {"num": 1, "den": 1}, "pixel_ratio": {"num": 1, "den": 1}, "video_bit_rate": 0, "channels": 0, "video_stream_index": 0, "interlaced_frame": false, "path": "/home/milind/Data/Projects/CTTdemo/Demo-04-Lecture Entry-Clash remove and Demo TT.mkv", "audio_stream_index": -1, "display_ratio": {"num": 683, "den": 384}, "has_single_image": false, "top_field_first": true, "vcodec": "h264", "video_length": "6175", "height": 768, "channel_layout": 4, "fps": {"num": 25, "den": 1}, "audio_bit_rate": 0, "acodec": "", "has_video": true, "file_size": "2541542", "type": "FFmpegReader", "duration": 247.0, "video_timebase": {"num": 1, "den": 1000}, "has_audio": false, "sample_rate": 0, "width": 1366}, "crop_height": {"Points": [{"interpolation": 2, "co": {"Y": -1.0, "X": 1.0}}]}, "rotation": {"Points": [{"interpolation": 2, "co": {"Y": 0.0, "X": 1.0}}]}, "effects": [], "scale_x": {"Points": [{"interpolation": 2, "co": {"Y": 1.0, "X": 1.0}}]}, "perspective_c1_y": {"Points": [{"interpolation": 2, "co": {"Y": -1.0, "X": 1.0}}]}, "crop_width": {"Points": [{"interpolation": 2, "co": {"Y": -1.0, "X": 1.0}}]}, "perspective_c4_y": {"Points": [{"interpolation": 2, "co": {"Y": -1.0, "X": 1.0}}]}, "volume": {"Points": [{"interpolation": 2, "co": {"Y": 1.0, "X": 1.0}}]}, "scale_y": {"Points": [{"interpolation": 2, "co": {"Y": 1.0, "X": 1.0}}]}, "crop_y": {"Points": [{"interpolation": 2, "co": {"Y": 0.0, "X": 1.0}}]}, "perspective_c3_x": {"Points": [{"interpolation": 2, "co": {"Y": -1.0, "X": 1.0}}]}, "perspective_c4_x": {"Points": [{"interpolation": 2, "co": {"Y": -1.0, "X": 1.0}}]}, "duration": 60.0, "waveform": false, "has_audio": {"Points": [{"interpolation": 2, "co": {"Y": -1.0, "X": 1.0}}]}, "anchor": 0, "has_video": {"Points": [{"interpolation": 2, "co": {"Y": -1.0, "X": 1.0}}]}}, {"perspective_c2_y": {"Points": [{"interpolation": 2, "co": {"Y": -1.0, "X": 1.0}}]}, "crop_x": {"Points": [{"interpolation": 2, "co": {"Y": 0.0, "X": 1.0}}]}, "alpha": {"Points": [{"interpolation": 2, "co": {"Y": 1.0, "X": 1.0}}, {"interpolation": 0, "co": {"Y": 0.0, "X": 1.0}, "handle_right": {"Y": 0.0, "X": 0.5}, "handle_left": {"Y": 1.0, "X": 0.5}, "handle_type": 0}, {"interpolation": 0, "co": {"Y": 1.0, "X": 73.0}, "handle_right": {"Y": 0.0, "X": 0.5}, "handle_left": {"Y": 1.0, "X": 0.5}, "handle_type": 0}, {"interpolation": 0, "co": {"Y": 1.0, "X": 813.0}, "handle_right": {"Y": 0.0, "X": 0.5}, "handle_left": {"Y": 1.0, "X": 0.5}, "handle_type": 0}, {"interpolation": 0, "co": {"Y": 0.0, "X": 885.0}, "handle_right": {"Y": 0.0, "X": 0.5}, "handle_left": {"Y": 1.0, "X": 0.5}, "handle_type": 0}]}, "location_y": {"Points": [{"interpolation": 2, "co": {"Y": 0.0, "X": 1.0}}]}, "channel_mapping": {"Points": [{"interpolation": 2, "co": {"Y": -1.0, "X": 1.0}}]}, "layer": 4, "end": 36.84166666666667, "id": "6XKH2CVO13", "gravity": 4, "perspective_c1_x": {"Points": [{"interpolation": 2, "co": {"Y": -1.0, "X": 1.0}}]}, "scale": 1, "perspective_c2_x": {"Points": [{"interpolation": 2, "co": {"Y": -1.0, "X": 1.0}}]}, "image": "/home/milind/.openshot_qt/thumbnail/SJFW0PSRLB.png", "location_x": {"Points": [{"interpolation": 2, "co": {"Y": 0.0, "X": 1.0}}]}, "position": 123.6, "shear_y": {"Points": [{"interpolation": 2, "co": {"Y": 0.0, "X": 1.0}}]}, "file_id": "SJFW0PSRLB", "shear_x": {"Points": [{"interpolation": 2, "co": {"Y": 0.0, "X": 1.0}}]}, "channel_filter": {"Points": [{"interpolation": 2, "co": {"Y": -1.0, "X": 1.0}}]}, "wave_color": {"blue": {"Points": [{"interpolation": 0, "co": {"Y": 255.0, "X": 1.0}, "handle_right": {"Y": 0.0, "X": 0.5}, "handle_left": {"Y": 1.0, "X": 0.5}, "handle_type": 0}]}, "red": {"Points": [{"interpolation": 0, "co": {"Y": 0.0, "X": 1.0}, "handle_right": {"Y": 0.0, "X": 0.5}, "handle_left": {"Y": 1.0, "X": 0.5}, "handle_type": 0}]}, "green": {"Points": [{"interpolation": 0, "co": {"Y": 123.0, "X": 1.0}, "handle_right": {"Y": 0.0, "X": 0.5}, "handle_left": {"Y": 1.0, "X": 0.5}, "handle_type": 0}]}, "alpha": {"Points": [{"interpolation": 0, "co": {"Y": 255.0, "X": 1.0}, "handle_right": {"Y": 0.0, "X": 0.5}, "handle_left": {"Y": 1.0, "X": 0.5}, "handle_type": 0}]}}, "display": 0, "time": {"Points": [{"interpolation": 2, "co": {"Y": 1.0, "X": 1.0}}]}, "start": 0, "perspective_c3_y": {"Points": [{"interpolation": 2, "co": {"Y": -1.0, "X": 1.0}}]}, "title": "Demo-05-Slitt Class or Splitt lectures.mkv", "reader": {"pixel_format": 0, "audio_timebase": {"num": 1, "den": 1}, "pixel_ratio": {"num": 1, "den": 1}, "video_bit_rate": 0, "channels": 0, "video_stream_index": 0, "interlaced_frame": false, "path": "/home/milind/Data/Projects/CTTdemo/Demo-05-Slitt Class or Splitt lectures.mkv", "audio_stream_index": -1, "display_ratio": {"num": 683, "den": 384}, "has_single_image": false, "top_field_first": true, "vcodec": "h264", "video_length": "1025", "height": 768, "channel_layout": 4, "fps": {"num": 25, "den": 1}, "audio_bit_rate": 0, "acodec": "", "has_video": true, "file_size": "783366", "type": "FFmpegReader", "duration": 41.0, "video_timebase": {"num": 1, "den": 1000}, "has_audio": false, "sample_rate": 0, "width": 1366}, "crop_height": {"Points": [{"interpolation": 2, "co": {"Y": -1.0, "X": 1.0}}]}, "rotation": {"Points": [{"interpolation": 2, "co": {"Y": 0.0, "X": 1.0}}]}, "effects": [], "scale_x": {"Points": [{"interpolation": 2, "co": {"Y": 1.0, "X": 1.0}}]}, "perspective_c1_y": {"Points": [{"interpolation": 2, "co": {"Y": -1.0, "X": 1.0}}]}, "crop_width": {"Points": [{"interpolation": 2, "co": {"Y": -1.0, "X": 1.0}}]}, "perspective_c4_y": {"Points": [{"interpolation": 2, "co": {"Y": -1.0, "X": 1.0}}]}, "volume": {"Points": [{"interpolation": 2, "co": {"Y": 1.0, "X": 1.0}}]}, "scale_y": {"Points": [{"interpolation": 2, "co": {"Y": 1.0, "X": 1.0}}]}, "crop_y": {"Points": [{"interpolation": 2, "co": {"Y": 0.0, "X": 1.0}}]}, "perspective_c3_x": {"Points": [{"interpolation": 2, "co": {"Y": -1.0, "X": 1.0}}]}, "perspective_c4_x": {"Points": [{"interpolation": 2, "co": {"Y": -1.0, "X": 1.0}}]}, "duration": 41.0, "waveform": false, "has_audio": {"Points": [{"interpolation": 2, "co": {"Y": -1.0, "X": 1.0}}]}, "anchor": 0, "has_video": {"Points": [{"interpolation": 2, "co": {"Y": -1.0, "X": 1.0}}]}}, {"perspective_c2_y": {"Points": [{"interpolation": 2, "co": {"Y": -1.0, "X": 1.0}}]}, "crop_x": {"Points": [{"interpolation": 2, "co": {"Y": 0.0, "X": 1.0}}]}, "alpha": {"Points": [{"interpolation": 2, "co": {"Y": 1.0, "X": 1.0}}, {"interpolation": 0, "co": {"Y": 0.0, "X": 1.0}, "handle_right": {"Y": 0.0, "X": 0.5}, "handle_left": {"Y": 1.0, "X": 0.5}, "handle_type": 0}, {"interpolation": 0, "co": {"Y": 1.0, "X": 73.0}, "handle_right": {"Y": 0.0, "X": 0.5}, "handle_left": {"Y": 1.0, "X": 0.5}, "handle_type": 0}, {"interpolation": 0, "co": {"Y": 1.0, "X": 387.0}, "handle_right": {"Y": 0.0, "X": 0.5}, "handle_left": {"Y": 1.0, "X": 0.5}, "handle_type": 0}, {"interpolation": 0, "co": {"Y": 0.0, "X": 459.0}, "handle_right": {"Y": 0.0, "X": 0.5}, "handle_left": {"Y": 1.0, "X": 0.5}, "handle_type": 0}]}, "location_y": {"Points": [{"interpolation": 2, "co": {"Y": 0.0, "X": 1.0}}]}, "channel_mapping": {"Points": [{"interpolation": 2, "co": {"Y": -1.0, "X": 1.0}}]}, "layer": 4, "end": 19.083333333333343, "id": "QQCSZWQUN1", "gravity": 4, "perspective_c1_x": {"Points": [{"interpolation": 2, "co": {"Y": -1.0, "X": 1.0}}]}, "scale": 1, "perspective_c2_x": {"Points": [{"interpolation": 2, "co": {"Y": -1.0, "X": 1.0}}]}, "image": "/home/milind/.openshot_qt/thumbnail/O8MDU83AZY.png", "location_x": {"Points": [{"interpolation": 2, "co": {"Y": 0.0, "X": 1.0}}]}, "position": 160.4, "shear_y": {"Points": [{"interpolation": 2, "co": {"Y": 0.0, "X": 1.0}}]}, "file_id": "O8MDU83AZY", "shear_x": {"Points": [{"interpolation": 2, "co": {"Y": 0.0, "X": 1.0}}]}, "channel_filter": {"Points": [{"interpolation": 2, "co": {"Y": -1.0, "X": 1.0}}]}, "wave_color": {"blue": {"Points": [{"interpolation": 0, "co": {"Y": 255.0, "X": 1.0}, "handle_right": {"Y": 0.0, "X": 0.5}, "handle_left": {"Y": 1.0, "X": 0.5}, "handle_type": 0}]}, "red": {"Points": [{"interpolation": 0, "co": {"Y": 0.0, "X": 1.0}, "handle_right": {"Y": 0.0, "X": 0.5}, "handle_left": {"Y": 1.0, "X": 0.5}, "handle_type": 0}]}, "green": {"Points": [{"interpolation": 0, "co": {"Y": 123.0, "X": 1.0}, "handle_right": {"Y": 0.0, "X": 0.5}, "handle_left": {"Y": 1.0, "X": 0.5}, "handle_type": 0}]}, "alpha": {"Points": [{"interpolation": 0, "co": {"Y": 255.0, "X": 1.0}, "handle_right": {"Y": 0.0, "X": 0.5}, "handle_left": {"Y": 1.0, "X": 0.5}, "handle_type": 0}]}}, "display": 0, "time": {"Points": [{"interpolation": 2, "co": {"Y": 1.0, "X": 1.0}}]}, "start": 0, "perspective_c3_y": {"Points": [{"interpolation": 2, "co": {"Y": -1.0, "X": 1.0}}]}, "title": "Demo-06-Set School Name.mkv", "reader": {"pixel_format": 0, "audio_timebase": {"num": 1, "den": 1}, "pixel_ratio": {"num": 1, "den": 1}, "video_bit_rate": 0, "channels": 0, "video_stream_index": 0, "interlaced_frame": false, "path": "/home/milind/Data/Projects/CTTdemo/Demo-06-Set School Name.mkv", "audio_stream_index": -1, "display_ratio": {"num": 683, "den": 384}, "has_single_image": false, "top_field_first": true, "vcodec": "h264", "video_length": "600", "height": 768, "channel_layout": 4, "fps": {"num": 25, "den": 1}, "audio_bit_rate": 0, "acodec": "", "has_video": true, "file_size": "404652", "type": "FFmpegReader", "duration": 24.0, "video_timebase": {"num": 1, "den": 1000}, "has_audio": false, "sample_rate": 0, "width": 1366}, "crop_height": {"Points": [{"interpolation": 2, "co": {"Y": -1.0, "X": 1.0}}]}, "rotation": {"Points": [{"interpolation": 2, "co": {"Y": 0.0, "X": 1.0}}]}, "effects": [], "scale_x": {"Points": [{"interpolation": 2, "co": {"Y": 1.0, "X": 1.0}}]}, "perspective_c1_y": {"Points": [{"interpolation": 2, "co": {"Y": -1.0, "X": 1.0}}]}, "crop_width": {"Points": [{"interpolation": 2, "co": {"Y": -1.0, "X": 1.0}}]}, "perspective_c4_y": {"Points": [{"interpolation": 2, "co": {"Y": -1.0, "X": 1.0}}]}, "volume": {"Points": [{"interpolation": 2, "co": {"Y": 1.0, "X": 1.0}}]}, "scale_y": {"Points": [{"interpolation": 2, "co": {"Y": 1.0, "X": 1.0}}]}, "crop_y": {"Points": [{"interpolation": 2, "co": {"Y": 0.0, "X": 1.0}}]}, "perspective_c3_x": {"Points": [{"interpolation": 2, "co": {"Y": -1.0, "X": 1.0}}]}, "perspective_c4_x": {"Points": [{"interpolation": 2, "co": {"Y": -1.0, "X": 1.0}}]}, "duration": 24.0, "waveform": false, "has_audio": {"Points": [{"interpolation": 2, "co": {"Y": -1.0, "X": 1.0}}]}, "anchor": 0, "has_video": {"Points": [{"interpolation": 2, "co": {"Y": -1.0, "X": 1.0}}]}}, {"channel_mapping": {"Points": [{"interpolation": 2, "co": {"Y": -1.0, "X": 1.0}}]}, "crop_x": {"Points": [{"interpolation": 2, "co": {"Y": 0.0, "X": 1.0}}]}, "alpha": {"Points": [{"interpolation": 2, "co": {"Y": 1.0, "X": 1.0}}, {"interpolation": 0, "co": {"Y": 0.0, "X": 1.0}, "handle_right": {"Y": 0.0, "X": 0.5}, "handle_left": {"Y": 1.0, "X": 0.5}, "handle_type": 0}, {"interpolation": 0, "co": {"Y": 1.0, "X": 73.0}, "handle_right": {"Y": 0.0, "X": 0.5}, "handle_left": {"Y": 1.0, "X": 0.5}, "handle_type": 0}, {"co": {"Y": 0.0, "X": 1.0}, "interpolation": 0, "handle_right": {"Y": 0.0, "X": 0.5}, "handle_left": {"Y": 1.0, "X": 0.5}, "handle_type": 0}, {"co": {"Y": 1.0, "X": 73.0}, "interpolation": 0, "handle_right": {"Y": 0.0, "X": 0.5}, "handle_left": {"Y": 1.0, "X": 0.5}, "handle_type": 0}, {"co": {"Y": 1.0, "X": 609.0}, "interpolation": 0, "handle_right": {"Y": 0.0, "X": 0.5}, "handle_left": {"Y": 1.0, "X": 0.5}, "handle_type": 0}, {"co": {"Y": 0.0, "X": 681.0}, "interpolation": 0, "handle_right": {"Y": 0.0, "X": 0.5}, "handle_left": {"Y": 1.0, "X": 0.5}, "handle_type": 0}]}, "location_y": {"Points": [{"interpolation": 2, "co": {"Y": 0.0, "X": 1.0}}]}, "perspective_c2_y": {"Points": [{"interpolation": 2, "co": {"Y": -1.0, "X": 1.0}}]}, "end": 28.333333333333343, "id": "BPQZZB1IGM", "gravity": 4, "perspective_c1_x": {"Points": [{"interpolation": 2, "co": {"Y": -1.0, "X": 1.0}}]}, "scale": 1, "perspective_c2_x": {"Points": [{"interpolation": 2, "co": {"Y": -1.0, "X": 1.0}}]}, "image": "/home/milind/.openshot_qt/thumbnail/8BO13HSLCT.png", "volume": {"Points": [{"interpolation": 2, "co": {"Y": 1.0, "X": 1.0}}]}, "perspective_c4_x": {"Points": [{"interpolation": 2, "co": {"Y": -1.0, "X": 1.0}}]}, "shear_y": {"Points": [{"interpolation": 2, "co": {"Y": 0.0, "X": 1.0}}]}, "file_id": "8BO13HSLCT", "shear_x": {"Points": [{"interpolation": 2, "co": {"Y": 0.0, "X": 1.0}}]}, "channel_filter": {"Points": [{"interpolation": 2, "co": {"Y": -1.0, "X": 1.0}}]}, "wave_color": {"blue": {"Points": [{"interpolation": 0, "co": {"Y": 255.0, "X": 1.0}, "handle_right": {"Y": 0.0, "X": 0.5}, "handle_left": {"Y": 1.0, "X": 0.5}, "handle_type": 0}]}, "red": {"Points": [{"interpolation": 0, "co": {"Y": 0.0, "X": 1.0}, "handle_right": {"Y": 0.0, "X": 0.5}, "handle_left": {"Y": 1.0, "X": 0.5}, "handle_type": 0}]}, "green": {"Points": [{"interpolation": 0, "co": {"Y": 123.0, "X": 1.0}, "handle_right": {"Y": 0.0, "X": 0.5}, "handle_left": {"Y": 1.0, "X": 0.5}, "handle_type": 0}]}, "alpha": {"Points": [{"interpolation": 0, "co": {"Y": 255.0, "X": 1.0}, "handle_right": {"Y": 0.0, "X": 0.5}, "handle_left": {"Y": 1.0, "X": 0.5}, "handle_type": 0}]}}, "display": 0, "time": {"Points": [{"interpolation": 1, "co": {"Y": 1.0, "X": 1.0}}, {"interpolation": 1, "co": {"Y": 1585.0, "X": 793.0}}]}, "start": 0, "crop_y": {"Points": [{"interpolation": 2, "co": {"Y": 0.0, "X": 1.0}}]}, "title": "Demo-07-SetPrinter and Print Current.mkv", "crop_height": {"Points": [{"interpolation": 2, "co": {"Y": -1.0, "X": 1.0}}]}, "rotation": {"Points": [{"interpolation": 2, "co": {"Y": 0.0, "X": 1.0}}]}, "has_video": {"Points": [{"interpolation": 2, "co": {"Y": -1.0, "X": 1.0}}]}, "effects": [], "scale_x": {"Points": [{"interpolation": 2, "co": {"Y": 1.0, "X": 1.0}}]}, "perspective_c1_y": {"Points": [{"interpolation": 2, "co": {"Y": -1.0, "X": 1.0}}]}, "crop_width": {"Points": [{"interpolation": 2, "co": {"Y": -1.0, "X": 1.0}}]}, "perspective_c4_y": {"Points": [{"interpolation": 2, "co": {"Y": -1.0, "X": 1.0}}]}, "layer": 4, "scale_y": {"Points": [{"interpolation": 2, "co": {"Y": 1.0, "X": 1.0}}]}, "perspective_c3_y": {"Points": [{"interpolation": 2, "co": {"Y": -1.0, "X": 1.0}}]}, "perspective_c3_x": {"Points": [{"interpolation": 2, "co": {"Y": -1.0, "X": 1.0}}]}, "location_x": {"Points": [{"interpolation": 2, "co": {"Y": 0.0, "X": 1.0}}]}, "position": 179.4, "duration": 32.0, "reader": {"pixel_format": 0, "audio_timebase": {"num": 1, "den": 1}, "pixel_ratio": {"num": 1, "den": 1}, "video_bit_rate": 0, "channels": 0, "video_stream_index": 0, "interlaced_frame": false, "path": "/home/milind/Data/Projects/CTTdemo/Demo-07-SetPrinter and Print Current.mkv", "audio_stream_index": -1, "display_ratio": {"num": 683, "den": 384}, "has_single_image": false, "top_field_first": true, "vcodec": "h264", "video_length": "1650", "height": 768, "channel_layout": 4, "fps": {"num": 25, "den": 1}, "audio_bit_rate": 0, "acodec": "", "has_video": true, "file_size": "1142597", "type": "FFmpegReader", "duration": 66.0, "video_timebase": {"num": 1, "den": 1000}, "has_audio": false, "sample_rate": 0, "width": 1366}, "has_audio": {"Points": [{"interpolation": 2, "co": {"Y": -1.0, "X": 1.0}}]}, "anchor": 0, "waveform": false}, {"channel_mapping": {"Points": [{"interpolation": 2, "co": {"Y": -1.0, "X": 1.0}}]}, "crop_x": {"Points": [{"interpolation": 2, "co": {"Y": 0.0, "X": 1.0}}]}, "alpha": {"Points": [{"interpolation": 2, "co": {"Y": 1.0, "X": 1.0}}, {"interpolation": 0, "co": {"Y": 0.0, "X": 1.0}, "handle_right": {"Y": 0.0, "X": 0.5}, "handle_left": {"Y": 1.0, "X": 0.5}, "handle_type": 0}, {"interpolation": 0, "co": {"Y": 1.0, "X": 73.0}, "handle_right": {"Y": 0.0, "X": 0.5}, "handle_left": {"Y": 1.0, "X": 0.5}, "handle_type": 0}, {"interpolation": 0, "co": {"Y": 1.0, "X": 169.0}, "handle_right": {"Y": 0.0, "X": 0.5}, "handle_left": {"Y": 1.0, "X": 0.5}, "handle_type": 0}, {"interpolation": 0, "co": {"Y": 0.0, "X": 241.0}, "handle_right": {"Y": 0.0, "X": 0.5}, "handle_left": {"Y": 1.0, "X": 0.5}, "handle_type": 0}]}, "title": "Title-Start.svg", "perspective_c2_y": {"Points": [{"interpolation": 2, "co": {"Y": -1.0, "X": 1.0}}]}, "layer": 4, "end": 10, "id": "XT2N90YHJ7", "gravity": 4, "perspective_c1_x": {"Points": [{"interpolation": 2, "co": {"Y": -1.0, "X": 1.0}}]}, "scale": 1, "perspective_c2_x": {"Points": [{"interpolation": 2, "co": {"Y": -1.0, "X": 1.0}}]}, "image": "/home/milind/.openshot_qt/thumbnail/035S9FEBR2.png", "location_x": {"Points": [{"interpolation": 2, "co": {"Y": 0.0, "X": 1.0}}]}, "position": 0, "shear_y": {"Points": [{"interpolation": 2, "co": {"Y": 0.0, "X": 1.0}}]}, "file_id": "035S9FEBR2", "shear_x": {"Points": [{"interpolation": 2, "co": {"Y": 0.0, "X": 1.0}}]}, "channel_filter": {"Points": [{"interpolation": 2, "co": {"Y": -1.0, "X": 1.0}}]}, "wave_color": {"red": {"Points": [{"interpolation": 0, "co": {"Y": 0.0, "X": 1.0}, "handle_right": {"Y": 0.0, "X": 0.5}, "handle_left": {"Y": 1.0, "X": 0.5}, "handle_type": 0}]}, "blue": {"Points": [{"interpolation": 0, "co": {"Y": 255.0, "X": 1.0}, "handle_right": {"Y": 0.0, "X": 0.5}, "handle_left": {"Y": 1.0, "X": 0.5}, "handle_type": 0}]}, "green": {"Points": [{"interpolation": 0, "co": {"Y": 123.0, "X": 1.0}, "handle_right": {"Y": 0.0, "X": 0.5}, "handle_left": {"Y": 1.0, "X": 0.5}, "handle_type": 0}]}, "alpha": {"Points": [{"interpolation": 0, "co": {"Y": 255.0, "X": 1.0}, "handle_right": {"Y": 0.0, "X": 0.5}, "handle_left": {"Y": 1.0, "X": 0.5}, "handle_type": 0}]}}, "display": 0, "time": {"Points": [{"interpolation": 2, "co": {"Y": 1.0, "X": 1.0}}]}, "start": 0, "perspective_c3_y": {"Points": [{"interpolation": 2, "co": {"Y": -1.0, "X": 1.0}}]}, "location_y": {"Points": [{"interpolation": 2, "co": {"Y": 0.0, "X": 1.0}}]}, "crop_height": {"Points": [{"interpolation": 2, "co": {"Y": -1.0, "X": 1.0}}]}, "rotation": {"Points": [{"interpolation": 2, "co": {"Y": 0.0, "X": 1.0}}]}, "has_video": {"Points": [{"interpolation": 2, "co": {"Y": -1.0, "X": 1.0}}]}, "effects": [], "scale_x": {"Points": [{"interpolation": 2, "co": {"Y": 1.0, "X": 1.0}}]}, "perspective_c1_y": {"Points": [{"interpolation": 2, "co": {"Y": -1.0, "X": 1.0}}]}, "crop_width": {"Points": [{"interpolation": 2, "co": {"Y": -1.0, "X": 1.0}}]}, "perspective_c4_y": {"Points": [{"interpolation": 2, "co": {"Y": -1.0, "X": 1.0}}]}, "volume": {"Points": [{"interpolation": 2, "co": {"Y": 1.0, "X": 1.0}}]}, "scale_y": {"Points": [{"interpolation": 2, "co": {"Y": 1.0, "X": 1.0}}]}, "crop_y": {"Points": [{"interpolation": 2, "co": {"Y": 0.0, "X": 1.0}}]}, "perspective_c3_x": {"Points": [{"interpolation": 2, "co": {"Y": -1.0, "X": 1.0}}]}, "perspective_c4_x": {"Points": [{"interpolation": 2, "co": {"Y": -1.0, "X": 1.0}}]}, "duration": 86400.0, "reader": {"pixel_format": -1, "audio_timebase": {"num": 1, "den": 1}, "pixel_ratio": {"num": 1, "den": 1}, "video_bit_rate": 0, "channels": 0, "video_stream_index": -1, "interlaced_frame": false, "path": "/home/milind/Data/Projects/CTTdemo/assets/Title-Start.svg", "audio_stream_index": -1, "display_ratio": {"num": 16, "den": 9}, "has_single_image": true, "top_field_first": true, "vcodec": "", "video_length": "2592000", "height": 1080, "channel_layout": 4, "fps": {"num": 30, "den": 1}, "audio_bit_rate": 0, "acodec": "", "has_video": true, "file_size": "8294400", "type": "QtImageReader", "duration": 86400.0, "video_timebase": {"num": 1, "den": 30}, "has_audio": false, "sample_rate": 0, "width": 1920}, "has_audio": {"Points": [{"interpolation": 2, "co": {"Y": -1.0, "X": 1.0}}]}, "anchor": 0, "waveform": false}, {"perspective_c2_y": {"Points": [{"interpolation": 2, "co": {"Y": -1.0, "X": 1.0}}]}, "crop_x": {"Points": [{"interpolation": 2, "co": {"Y": 0.0, "X": 1.0}}]}, "alpha": {"Points": [{"interpolation": 2, "co": {"Y": 1.0, "X": 1.0}}, {"interpolation": 0, "co": {"Y": 0.0, "X": 1.0}, "handle_right": {"Y": 0.0, "X": 0.5}, "handle_left": {"Y": 1.0, "X": 0.5}, "handle_type": 0}, {"interpolation": 0, "co": {"Y": 1.0, "X": 73.0}, "handle_right": {"Y": 0.0, "X": 0.5}, "handle_left": {"Y": 1.0, "X": 0.5}, "handle_type": 0}, {"interpolation": 0, "co": {"Y": 1.0, "X": 169.0}, "handle_right": {"Y": 0.0, "X": 0.5}, "handle_left": {"Y": 1.0, "X": 0.5}, "handle_type": 0}, {"interpolation": 0, "co": {"Y": 0.0, "X": 241.0}, "handle_right": {"Y": 0.0, "X": 0.5}, "handle_left": {"Y": 1.0, "X": 0.5}, "handle_type": 0}]}, "title": "TitleFileName-3.svg", "channel_mapping": {"Points": [{"interpolation": 2, "co": {"Y": -1.0, "X": 1.0}}]}, "layer": 4, "end": 10, "id": "4TIGU4D63N", "gravity": 4, "perspective_c1_x": {"Points": [{"interpolation": 2, "co": {"Y": -1.0, "X": 1.0}}]}, "scale": 1, "perspective_c2_x": {"Points": [{"interpolation": 2, "co": {"Y": -1.0, "X": 1.0}}]}, "image": "/home/milind/.openshot_qt/thumbnail/FQIXCNMEB9.png", "location_x": {"Points": [{"interpolation": 2, "co": {"Y": 0.0, "X": 1.0}}]}, "position": 207.73333333333335, "shear_y": {"Points": [{"interpolation": 2, "co": {"Y": 0.0, "X": 1.0}}]}, "file_id": "FQIXCNMEB9", "shear_x": {"Points": [{"interpolation": 2, "co": {"Y": 0.0, "X": 1.0}}]}, "channel_filter": {"Points": [{"interpolation": 2, "co": {"Y": -1.0, "X": 1.0}}]}, "wave_color": {"red": {"Points": [{"interpolation": 0, "co": {"Y": 0.0, "X": 1.0}, "handle_right": {"Y": 0.0, "X": 0.5}, "handle_left": {"Y": 1.0, "X": 0.5}, "handle_type": 0}]}, "blue": {"Points": [{"interpolation": 0, "co": {"Y": 255.0, "X": 1.0}, "handle_right": {"Y": 0.0, "X": 0.5}, "handle_left": {"Y": 1.0, "X": 0.5}, "handle_type": 0}]}, "green": {"Points": [{"interpolation": 0, "co": {"Y": 123.0, "X": 1.0}, "handle_right": {"Y": 0.0, "X": 0.5}, "handle_left": {"Y": 1.0, "X": 0.5}, "handle_type": 0}]}, "alpha": {"Points": [{"interpolation": 0, "co": {"Y": 255.0, "X": 1.0}, "handle_right": {"Y": 0.0, "X": 0.5}, "handle_left": {"Y": 1.0, "X": 0.5}, "handle_type": 0}]}}, "display": 0, "time": {"Points": [{"interpolation": 2, "co": {"Y": 1.0, "X": 1.0}}]}, "start": 0, "perspective_c3_y": {"Points": [{"interpolation": 2, "co": {"Y": -1.0, "X": 1.0}}]}, "location_y": {"Points": [{"interpolation": 2, "co": {"Y": 0.0, "X": 1.0}}]}, "crop_height": {"Points": [{"interpolation": 2, "co": {"Y": -1.0, "X": 1.0}}]}, "rotation": {"Points": [{"interpolation": 2, "co": {"Y": 0.0, "X": 1.0}}]}, "has_video": {"Points": [{"interpolation": 2, "co": {"Y": -1.0, "X": 1.0}}]}, "effects": [], "scale_x": {"Points": [{"interpolation": 2, "co": {"Y": 1.0, "X": 1.0}}]}, "perspective_c1_y": {"Points": [{"interpolation": 2, "co": {"Y": -1.0, "X": 1.0}}]}, "crop_width": {"Points": [{"interpolation": 2, "co": {"Y": -1.0, "X": 1.0}}]}, "perspective_c4_y": {"Points": [{"interpolation": 2, "co": {"Y": -1.0, "X": 1.0}}]}, "volume": {"Points": [{"interpolation": 2, "co": {"Y": 1.0, "X": 1.0}}]}, "scale_y": {"Points": [{"interpolation": 2, "co": {"Y": 1.0, "X": 1.0}}]}, "crop_y": {"Points": [{"interpolation": 2, "co": {"Y": 0.0, "X": 1.0}}]}, "perspective_c3_x": {"Points": [{"interpolation": 2, "co": {"Y": -1.0, "X": 1.0}}]}, "perspective_c4_x": {"Points": [{"interpolation": 2, "co": {"Y": -1.0, "X": 1.0}}]}, "duration": 86400.0, "reader": {"pixel_format": -1, "audio_timebase": {"num": 1, "den": 1}, "pixel_ratio": {"num": 1, "den": 1}, "video_bit_rate": 0, "channels": 0, "video_stream_index": -1, "interlaced_frame": false, "path": "/home/milind/Data/Projects/CTTdemo/assets/TitleFileName-3.svg", "audio_stream_index": -1, "display_ratio": {"num": 16, "den": 9}, "has_single_image": true, "top_field_first": true, "vcodec": "", "video_length": "2592000", "height": 1080, "channel_layout": 4, "fps": {"num": 30, "den": 1}, "audio_bit_rate": 0, "acodec": "", "has_video": true, "file_size": "8294400", "type": "QtImageReader", "duration": 86400.0, "video_timebase": {"num": 1, "den": 30}, "has_audio": false, "sample_rate": 0, "width": 1920}, "has_audio": {"Points": [{"interpolation": 2, "co": {"Y": -1.0, "X": 1.0}}]}, "anchor": 0, "waveform": false}, {"channel_mapping": {"Points": [{"co": {"Y": -1.0, "X": 1.0}, "interpolation": 2}]}, "location_x": {"Points": [{"co": {"Y": 0.0, "X": 1.0}, "interpolation": 2}]}, "alpha": {"Points": [{"co": {"Y": 1.0, "X": 1.0}, "interpolation": 2}]}, "location_y": {"Points": [{"co": {"Y": 0.0, "X": 1.0}, "interpolation": 2}]}, "rotation": {"Points": [{"co": {"Y": 0.0, "X": 1.0}, "interpolation": 2}]}, "layer": 4, "id": "O3BG0Y7CKW", "gravity": 4, "perspective_c1_x": {"Points": [{"co": {"Y": -1.0, "X": 1.0}, "interpolation": 2}]}, "scale": 1, "waveform": false, "perspective_c2_x": {"Points": [{"co": {"Y": -1.0, "X": 1.0}, "interpolation": 2}]}, "image": "/home/milind/.openshot_qt/thumbnail/7WISDFXLOD.png", "effects": [], "perspective_c4_x": {"Points": [{"co": {"Y": -1.0, "X": 1.0}, "interpolation": 2}]}, "title": "closing.svg", "shear_y": {"Points": [{"co": {"Y": 0.0, "X": 1.0}, "interpolation": 2}]}, "file_id": "7WISDFXLOD", "shear_x": {"Points": [{"co": {"Y": 0.0, "X": 1.0}, "interpolation": 2}]}, "channel_filter": {"Points": [{"co": {"Y": -1.0, "X": 1.0}, "interpolation": 2}]}, "wave_color": {"blue": {"Points": [{"co": {"Y": 255.0, "X": 1.0}, "interpolation": 0, "handle_right": {"Y": 0.0, "X": 0.5}, "handle_left": {"Y": 1.0, "X": 0.5}, "handle_type": 0}]}, "red": {"Points": [{"co": {"Y": 0.0, "X": 1.0}, "interpolation": 0, "handle_right": {"Y": 0.0, "X": 0.5}, "handle_left": {"Y": 1.0, "X": 0.5}, "handle_type": 0}]}, "green": {"Points": [{"co": {"Y": 123.0, "X": 1.0}, "interpolation": 0, "handle_right": {"Y": 0.0, "X": 0.5}, "handle_left": {"Y": 1.0, "X": 0.5}, "handle_type": 0}]}, "alpha": {"Points": [{"co": {"Y": 255.0, "X": 1.0}, "interpolation": 0, "handle_right": {"Y": 0.0, "X": 0.5}, "handle_left": {"Y": 1.0, "X": 0.5}, "handle_type": 0}]}}, "display": 0, "time": {"Points": [{"co": {"Y": 1.0, "X": 1.0}, "interpolation": 2}]}, "crop_x": {"Points": [{"co": {"Y": 0.0, "X": 1.0}, "interpolation": 2}]}, "perspective_c2_y": {"Points": [{"co": {"Y": -1.0, "X": 1.0}, "interpolation": 2}]}, "end": 10, "crop_height": {"Points": [{"co": {"Y": -1.0, "X": 1.0}, "interpolation": 2}]}, "anchor": 0, "start": 0, "scale_x": {"Points": [{"co": {"Y": 1.0, "X": 1.0}, "interpolation": 2}]}, "perspective_c1_y": {"Points": [{"co": {"Y": -1.0, "X": 1.0}, "interpolation": 2}]}, "crop_width": {"Points": [{"co": {"Y": -1.0, "X": 1.0}, "interpolation": 2}]}, "perspective_c4_y": {"Points": [{"co": {"Y": -1.0, "X": 1.0}, "interpolation": 2}]}, "volume": {"Points": [{"co": {"Y": 1.0, "X": 1.0}, "interpolation": 2}]}, "scale_y": {"Points": [{"co": {"Y": 1.0, "X": 1.0}, "interpolation": 2}]}, "crop_y": {"Points": [{"co": {"Y": 0.0, "X": 1.0}, "interpolation": 2}]}, "perspective_c3_x": {"Points": [{"co": {"Y": -1.0, "X": 1.0}, "interpolation": 2}]}, "position": 217.73333333333335, "duration": 86400.0, "reader": {"pixel_format": -1, "audio_timebase": {"num": 1, "den": 1}, "pixel_ratio": {"num": 1, "den": 1}, "video_bit_rate": 0, "channels": 0, "video_stream_index": -1, "interlaced_frame": false, "audio_stream_index": -1, "display_ratio": {"num": 40, "den": 23}, "has_single_image": true, "top_field_first": true, "vcodec": "", "video_length": "2592000", "height": 1104, "channel_layout": 4, "fps": {"num": 30, "den": 1}, "audio_bit_rate": 0, "acodec": "", "type": "QtImageReader", "has_video": true, "file_size": "8478720", "path": "/home/milind/Data/Projects/CTTdemo/assets/closing.svg", "duration": 86400.0, "video_timebase": {"num": 1, "den": 30}, "has_audio": false, "sample_rate": 0, "width": 1920}, "has_audio": {"Points": [{"co": {"Y": -1.0, "X": 1.0}, "interpolation": 2}]}, "perspective_c3_y": {"Points": [{"co": {"Y": -1.0, "X": 1.0}, "interpolation": 2}]}, "has_video": {"Points": [{"co": {"Y": -1.0, "X": 1.0}, "interpolation": 2}]}}], "type": "insert", "key": ["clips"], "value": {"channel_mapping": {"Points": [{"co": {"Y": -1.0, "X": 1.0}, "interpolation": 2}]}, "location_x": {"Points": [{"co": {"Y": 0.0, "X": 1.0}, "interpolation": 2}]}, "alpha": {"Points": [{"co": {"Y": 1.0, "X": 1.0}, "interpolation": 2}, {"co": {"Y": 1.0, "X": 169.0}, "interpolation": 0, "handle_right": {"Y": 0.0, "X": 0.5}, "handle_left": {"Y": 1.0, "X": 0.5}, "handle_type": 0}, {"co": {"Y": 0.0, "X": 241.0}, "interpolation": 0, "handle_right": {"Y": 0.0, "X": 0.5}, "handle_left": {"Y": 1.0, "X": 0.5}, "handle_type": 0}]}, "location_y": {"Points": [{"co": {"Y": 0.0, "X": 1.0}, "interpolation": 2}]}, "rotation": {"Points": [{"co": {"Y": 0.0, "X": 1.0}, "interpolation": 2}]}, "end": 10, "id": "RBLMLKIP75", "gravity": 4, "perspective_c1_x": {"Points": [{"co": {"Y": -1.0, "X": 1.0}, "interpolation": 2}]}, "scale": 1, "perspective_c2_x": {"Points": [{"co": {"Y": -1.0, "X": 1.0}, "interpolation": 2}]}, "image": "/home/milind/.openshot_qt/thumbnail/7WISDFXLOD.png", "effects": [], "perspective_c4_x": {"Points": [{"co": {"Y": -1.0, "X": 1.0}, "interpolation": 2}]}, "shear_y": {"Points": [{"co": {"Y": 0.0, "X": 1.0}, "interpolation": 2}]}, "file_id": "7WISDFXLOD", "shear_x": {"Points": [{"co": {"Y": 0.0, "X": 1.0}, "interpolation": 2}]}, "perspective_c3_y": {"Points": [{"co": {"Y": -1.0, "X": 1.0}, "interpolation": 2}]}, "channel_filter": {"Points": [{"co": {"Y": -1.0, "X": 1.0}, "interpolation": 2}]}, "wave_color": {"blue": {"Points": [{"co": {"Y": 255.0, "X": 1.0}, "interpolation": 0, "handle_right": {"Y": 0.0, "X": 0.5}, "handle_left": {"Y": 1.0, "X": 0.5}, "handle_type": 0}]}, "red": {"Points": [{"co": {"Y": 0.0, "X": 1.0}, "interpolation": 0, "handle_right": {"Y": 0.0, "X": 0.5}, "handle_left": {"Y": 1.0, "X": 0.5}, "handle_type": 0}]}, "green": {"Points": [{"co": {"Y": 123.0, "X": 1.0}, "interpolation": 0, "handle_right": {"Y": 0.0, "X": 0.5}, "handle_left": {"Y": 1.0, "X": 0.5}, "handle_type": 0}]}, "alpha": {"Points": [{"co": {"Y": 255.0, "X": 1.0}, "interpolation": 0, "handle_right": {"Y": 0.0, "X": 0.5}, "handle_left": {"Y": 1.0, "X": 0.5}, "handle_type": 0}]}}, "display": 0, "time": {"Points": [{"co": {"Y": 1.0, "X": 1.0}, "interpolation": 2}]}, "crop_x": {"Points": [{"co": {"Y": 0.0, "X": 1.0}, "interpolation": 2}]}, "crop_y": {"Points": [{"co": {"Y": 0.0, "X": 1.0}, "interpolation": 2}]}, "perspective_c2_y": {"Points": [{"co": {"Y": -1.0, "X": 1.0}, "interpolation": 2}]}, "title": "closing.svg", "crop_height": {"Points": [{"co": {"Y": -1.0, "X": 1.0}, "interpolation": 2}]}, "volume": {"Points": [{"co": {"Y": 1.0, "X": 1.0}, "interpolation": 2}]}, "start": 0, "scale_x": {"Points": [{"co": {"Y": 1.0, "X": 1.0}, "interpolation": 2}]}, "perspective_c1_y": {"Points": [{"co": {"Y": -1.0, "X": 1.0}, "interpolation": 2}]}, "crop_width": {"Points": [{"co": {"Y": -1.0, "X": 1.0}, "interpolation": 2}]}, "perspective_c4_y": {"Points": [{"co": {"Y": -1.0, "X": 1.0}, "interpolation": 2}]}, "layer": 4, "scale_y": {"Points": [{"co": {"Y": 1.0, "X": 1.0}, "interpolation": 2}]}, "has_video": {"Points": [{"co": {"Y": -1.0, "X": 1.0}, "interpolation": 2}]}, "perspective_c3_x": {"Points": [{"co": {"Y": -1.0, "X": 1.0}, "interpolation": 2}]}, "position": 217.7, "duration": 86400.0, "reader": {"pixel_format": -1, "top_field_first": true, "pixel_ratio": {"num": 1, "den": 1}, "video_bit_rate": 0, "channels": 0, "video_stream_index": -1, "interlaced_frame": false, "path": "/home/milind/Data/Projects/CTTdemo/assets/closing.svg", "audio_stream_index": -1, "display_ratio": {"num": 40, "den": 23}, "has_single_image": true, "audio_timebase": {"num": 1, "den": 1}, "vcodec": "", "video_length": "2592000", "height": 1104, "channel_layout": 4, "fps": {"num": 30, "den": 1}, "audio_bit_rate": 0, "acodec": "", "has_video": true, "file_size": "8478720", "type": "QtImageReader", "duration": 86400.0, "video_timebase": {"num": 1, "den": 30}, "has_audio": false, "sample_rate": 0, "width": 1920}, "has_audio": {"Points": [{"co": {"Y": -1.0, "X": 1.0}, "interpolation": 2}]}, "anchor": 0, "waveform": false}, "partial": false}, {"old_values": {"channel_mapping": {"Points": [{"co": {"Y": -1.0, "X": 1.0}, "interpolation": 2}]}, "crop_x": {"Points": [{"co": {"Y": 0.0, "X": 1.0}, "interpolation": 2}]}, "alpha": {"Points": [{"co": {"Y": 1.0, "X": 1.0}, "interpolation": 2}]}, "title": "closing.svg", "perspective_c2_y": {"Points": [{"co": {"Y": -1.0, "X": 1.0}, "interpolation": 2}]}, "layer": 4, "id": "RBLMLKIP75", "gravity": 4, "perspective_c1_x": {"Points": [{"co": {"Y": -1.0, "X": 1.0}, "interpolation": 2}]}, "scale": 1, "anchor": 0, "perspective_c2_x": {"Points": [{"co": {"Y": -1.0, "X": 1.0}, "interpolation": 2}]}, "image": "/home/milind/.openshot_qt/thumbnail/7WISDFXLOD.png", "effects": [], "perspective_c4_x": {"Points": [{"co": {"Y": -1.0, "X": 1.0}, "interpolation": 2}]}, "shear_y": {"Points": [{"co": {"Y": 0.0, "X": 1.0}, "interpolation": 2}]}, "file_id": "7WISDFXLOD", "shear_x": {"Points": [{"co": {"Y": 0.0, "X": 1.0}, "interpolation": 2}]}, "channel_filter": {"Points": [{"co": {"Y": -1.0, "X": 1.0}, "interpolation": 2}]}, "wave_color": {"blue": {"Points": [{"co": {"Y": 255.0, "X": 1.0}, "interpolation": 0, "handle_right": {"Y": 0.0, "X": 0.5}, "handle_left": {"Y": 1.0, "X": 0.5}, "handle_type": 0}]}, "red": {"Points": [{"co": {"Y": 0.0, "X": 1.0}, "interpolation": 0, "handle_right": {"Y": 0.0, "X": 0.5}, "handle_left": {"Y": 1.0, "X": 0.5}, "handle_type": 0}]}, "green": {"Points": [{"co": {"Y": 123.0, "X": 1.0}, "interpolation": 0, "handle_right": {"Y": 0.0, "X": 0.5}, "handle_left": {"Y": 1.0, "X": 0.5}, "handle_type": 0}]}, "alpha": {"Points": [{"co": {"Y": 255.0, "X": 1.0}, "interpolation": 0, "handle_right": {"Y": 0.0, "X": 0.5}, "handle_left": {"Y": 1.0, "X": 0.5}, "handle_type": 0}]}}, "display": 0, "location_y": {"Points": [{"co": {"Y": 0.0, "X": 1.0}, "interpolation": 2}]}, "time": {"Points": [{"co": {"Y": 1.0, "X": 1.0}, "interpolation": 2}]}, "start": 0.0, "perspective_c3_y": {"Points": [{"co": {"Y": -1.0, "X": 1.0}, "interpolation": 2}]}, "end": 10.0, "crop_height": {"Points": [{"co": {"Y": -1.0, "X": 1.0}, "interpolation": 2}]}, "rotation": {"Points": [{"co": {"Y": 0.0, "X": 1.0}, "interpolation": 2}]}, "scale_x": {"Points": [{"co": {"Y": 1.0, "X": 1.0}, "interpolation": 2}]}, "perspective_c1_y": {"Points": [{"co": {"Y": -1.0, "X": 1.0}, "interpolation": 2}]}, "crop_width": {"Points": [{"co": {"Y": -1.0, "X": 1.0}, "interpolation": 2}]}, "perspective_c4_y": {"Points": [{"co": {"Y": -1.0, "X": 1.0}, "interpolation": 2}]}, "volume": {"Points": [{"co": {"Y": 1.0, "X": 1.0}, "interpolation": 2}]}, "scale_y": {"Points": [{"co": {"Y": 1.0, "X": 1.0}, "interpolation": 2}]}, "has_video": {"Points": [{"co": {"Y": -1.0, "X": 1.0}, "interpolation": 2}]}, "perspective_c3_x": {"Points": [{"co": {"Y": -1.0, "X": 1.0}, "interpolation": 2}]}, "location_x": {"Points": [{"co": {"Y": 0.0, "X": 1.0}, "interpolation": 2}]}, "position": 208.5, "duration": 86400.0, "reader": {"pixel_format": -1, "audio_timebase": {"num": 1, "den": 1}, "pixel_ratio": {"num": 1, "den": 1}, "video_bit_rate": 0, "channels": 0, "video_stream_index": -1, "interlaced_frame": false, "audio_stream_index": -1, "display_ratio": {"num": 40, "den": 23}, "has_single_image": true, "top_field_first": true, "vcodec": "", "video_length": "2592000", "height": 1104, "channel_layout": 4, "fps": {"num": 30, "den": 1}, "audio_bit_rate": 0, "acodec": "", "type": "QtImageReader", "has_video": true, "file_size": "8478720", "path": "/home/milind/Data/Projects/CTTdemo/assets/closing.svg", "duration": 86400.0, "video_timebase": {"num": 1, "den": 30}, "has_audio": false, "sample_rate": 0, "width": 1920}, "has_audio": {"Points": [{"co": {"Y": -1.0, "X": 1.0}, "interpolation": 2}]}, "crop_y": {"Points": [{"co": {"Y": 0.0, "X": 1.0}, "interpolation": 2}]}, "waveform": false}, "type": "update", "key": ["clips", {"id": "RBLMLKIP75"}], "value": {"image": "/home/milind/.openshot_qt/thumbnail/7WISDFXLOD.png", "layer": 4, "position": 227.73333333333335, "end": 10, "id": "RBLMLKIP75", "start": 0}, "partial": false}, {"old_values": [{"perspective_c2_y": {"Points": [{"interpolation": 2, "co": {"Y": -1.0, "X": 1.0}}]}, "crop_x": {"Points": [{"interpolation": 2, "co": {"Y": 0.0, "X": 1.0}}]}, "alpha": {"Points": [{"interpolation": 2, "co": {"Y": 1.0, "X": 1.0}}, {"interpolation": 0, "co": {"Y": 0.0, "X": 1.0}, "handle_right": {"Y": 0.0, "X": 0.5}, "handle_left": {"Y": 1.0, "X": 0.5}, "handle_type": 0}, {"interpolation": 0, "co": {"Y": 1.0, "X": 73.0}, "handle_right": {"Y": 0.0, "X": 0.5}, "handle_left": {"Y": 1.0, "X": 0.5}, "handle_type": 0}, {"interpolation": 0, "co": {"Y": 1.0, "X": 790.0}, "handle_right": {"Y": 0.0, "X": 0.5}, "handle_left": {"Y": 1.0, "X": 0.5}, "handle_type": 0}, {"interpolation": 0, "co": {"Y": 0.0, "X": 862.0}, "handle_right": {"Y": 0.0, "X": 0.5}, "handle_left": {"Y": 1.0, "X": 0.5}, "handle_type": 0}]}, "location_y": {"Points": [{"interpolation": 2, "co": {"Y": 0.0, "X": 1.0}}]}, "channel_mapping": {"Points": [{"interpolation": 2, "co": {"Y": -1.0, "X": 1.0}}]}, "layer": 4, "end": 35.875, "id": "Z4ZIZQBYYY", "gravity": 4, "perspective_c1_x": {"Points": [{"interpolation": 2, "co": {"Y": -1.0, "X": 1.0}}]}, "scale": 1, "perspective_c2_x": {"Points": [{"interpolation": 2, "co": {"Y": -1.0, "X": 1.0}}]}, "image": "/home/milind/Data/Projects/.openshot_qt/thumbnail/8AMXXS1INM.png", "location_x": {"Points": [{"interpolation": 2, "co": {"Y": 0.0, "X": 1.0}}]}, "position": 10, "shear_y": {"Points": [{"interpolation": 2, "co": {"Y": 0.0, "X": 1.0}}]}, "file_id": "8AMXXS1INM", "shear_x": {"Points": [{"interpolation": 2, "co": {"Y": 0.0, "X": 1.0}}]}, "channel_filter": {"Points": [{"interpolation": 2, "co": {"Y": -1.0, "X": 1.0}}]}, "wave_color": {"blue": {"Points": [{"interpolation": 0, "co": {"Y": 255.0, "X": 1.0}, "handle_right": {"Y": 0.0, "X": 0.5}, "handle_left": {"Y": 1.0, "X": 0.5}, "handle_type": 0}]}, "red": {"Points": [{"interpolation": 0, "co": {"Y": 0.0, "X": 1.0}, "handle_right": {"Y": 0.0, "X": 0.5}, "handle_left": {"Y": 1.0, "X": 0.5}, "handle_type": 0}]}, "green": {"Points": [{"interpolation": 0, "co": {"Y": 123.0, "X": 1.0}, "handle_right": {"Y": 0.0, "X": 0.5}, "handle_left": {"Y": 1.0, "X": 0.5}, "handle_type": 0}]}, "alpha": {"Points": [{"interpolation": 0, "co": {"Y": 255.0, "X": 1.0}, "handle_right": {"Y": 0.0, "X": 0.5}, "handle_left": {"Y": 1.0, "X": 0.5}, "handle_type": 0}]}}, "display": 0, "time": {"Points": [{"interpolation": 1, "co": {"Y": 1.0, "X": 1.0}}, {"interpolation": 1, "co": {"Y": 1721.0, "X": 861.0}}]}, "start": 0, "perspective_c3_y": {"Points": [{"interpolation": 2, "co": {"Y": -1.0, "X": 1.0}}]}, "title": "Demo-02-Adding Time-Class Slots.mkv", "reader": {"pixel_format": 0, "audio_timebase": {"num": 1, "den": 1}, "pixel_ratio": {"num": 1, "den": 1}, "video_bit_rate": 0, "channels": 0, "video_stream_index": 0, "interlaced_frame": false, "path": "/home/milind/Data/Projects/CTTdemo/Demo-02-Adding Time-Class Slots.mkv", "audio_stream_index": -1, "display_ratio": {"num": 683, "den": 384}, "has_single_image": false, "top_field_first": true, "vcodec": "h264", "video_length": "1900", "height": 768, "channel_layout": 4, "fps": {"num": 25, "den": 1}, "audio_bit_rate": 0, "acodec": "", "has_video": true, "file_size": "502317", "type": "FFmpegReader", "duration": 76.0, "video_timebase": {"num": 1, "den": 1000}, "has_audio": false, "sample_rate": 0, "width": 1366}, "crop_height": {"Points": [{"interpolation": 2, "co": {"Y": -1.0, "X": 1.0}}]}, "rotation": {"Points": [{"interpolation": 2, "co": {"Y": 0.0, "X": 1.0}}]}, "effects": [], "scale_x": {"Points": [{"interpolation": 2, "co": {"Y": 1.0, "X": 1.0}}]}, "perspective_c1_y": {"Points": [{"interpolation": 2, "co": {"Y": -1.0, "X": 1.0}}]}, "crop_width": {"Points": [{"interpolation": 2, "co": {"Y": -1.0, "X": 1.0}}]}, "perspective_c4_y": {"Points": [{"interpolation": 2, "co": {"Y": -1.0, "X": 1.0}}]}, "volume": {"Points": [{"interpolation": 2, "co": {"Y": 1.0, "X": 1.0}}]}, "scale_y": {"Points": [{"interpolation": 2, "co": {"Y": 1.0, "X": 1.0}}]}, "crop_y": {"Points": [{"interpolation": 2, "co": {"Y": 0.0, "X": 1.0}}]}, "perspective_c3_x": {"Points": [{"interpolation": 2, "co": {"Y": -1.0, "X": 1.0}}]}, "perspective_c4_x": {"Points": [{"interpolation": 2, "co": {"Y": -1.0, "X": 1.0}}]}, "duration": 38.0, "waveform": false, "has_audio": {"Points": [{"interpolation": 2, "co": {"Y": -1.0, "X": 1.0}}]}, "anchor": 0, "has_video": {"Points": [{"interpolation": 2, "co": {"Y": -1.0, "X": 1.0}}]}}, {"perspective_c2_y": {"Points": [{"interpolation": 2, "co": {"Y": -1.0, "X": 1.0}}]}, "crop_x": {"Points": [{"interpolation": 2, "co": {"Y": 0.0, "X": 1.0}}]}, "alpha": {"Points": [{"interpolation": 2, "co": {"Y": 1.0, "X": 1.0}}, {"interpolation": 0, "co": {"Y": 0.0, "X": 1.0}, "handle_right": {"Y": 0.0, "X": 0.5}, "handle_left": {"Y": 1.0, "X": 0.5}, "handle_type": 0}, {"interpolation": 0, "co": {"Y": 1.0, "X": 73.0}, "handle_right": {"Y": 0.0, "X": 0.5}, "handle_left": {"Y": 1.0, "X": 0.5}, "handle_type": 0}, {"interpolation": 0, "co": {"Y": 1.0, "X": 317.0}, "handle_right": {"Y": 0.0, "X": 0.5}, "handle_left": {"Y": 1.0, "X": 0.5}, "handle_type": 0}, {"interpolation": 0, "co": {"Y": 0.0, "X": 389.0}, "handle_right": {"Y": 0.0, "X": 0.5}, "handle_left": {"Y": 1.0, "X": 0.5}, "handle_type": 0}]}, "location_y": {"Points": [{"interpolation": 2, "co": {"Y": 0.0, "X": 1.0}}]}, "channel_mapping": {"Points": [{"interpolation": 2, "co": {"Y": -1.0, "X": 1.0}}]}, "layer": 4, "end": 16.183333333333337, "id": "HUCJUHW5KR", "gravity": 4, "perspective_c1_x": {"Points": [{"interpolation": 2, "co": {"Y": -1.0, "X": 1.0}}]}, "scale": 1, "perspective_c2_x": {"Points": [{"interpolation": 2, "co": {"Y": -1.0, "X": 1.0}}]}, "image": "/home/milind/Data/Projects/.openshot_qt/thumbnail/FUP4DCVZ3U.png", "location_x": {"Points": [{"interpolation": 2, "co": {"Y": 0.0, "X": 1.0}}]}, "position": 45.8, "shear_y": {"Points": [{"interpolation": 2, "co": {"Y": 0.0, "X": 1.0}}]}, "file_id": "FUP4DCVZ3U", "shear_x": {"Points": [{"interpolation": 2, "co": {"Y": 0.0, "X": 1.0}}]}, "channel_filter": {"Points": [{"interpolation": 2, "co": {"Y": -1.0, "X": 1.0}}]}, "wave_color": {"blue": {"Points": [{"interpolation": 0, "co": {"Y": 255.0, "X": 1.0}, "handle_right": {"Y": 0.0, "X": 0.5}, "handle_left": {"Y": 1.0, "X": 0.5}, "handle_type": 0}]}, "red": {"Points": [{"interpolation": 0, "co": {"Y": 0.0, "X": 1.0}, "handle_right": {"Y": 0.0, "X": 0.5}, "handle_left": {"Y": 1.0, "X": 0.5}, "handle_type": 0}]}, "green": {"Points": [{"interpolation": 0, "co": {"Y": 123.0, "X": 1.0}, "handle_right": {"Y": 0.0, "X": 0.5}, "handle_left": {"Y": 1.0, "X": 0.5}, "handle_type": 0}]}, "alpha": {"Points": [{"interpolation": 0, "co": {"Y": 255.0, "X": 1.0}, "handle_right": {"Y": 0.0, "X": 0.5}, "handle_left": {"Y": 1.0, "X": 0.5}, "handle_type": 0}]}}, "display": 0, "time": {"Points": [{"interpolation": 2, "co": {"Y": 1.0, "X": 1.0}}]}, "start": 0, "perspective_c3_y": {"Points": [{"interpolation": 2, "co": {"Y": -1.0, "X": 1.0}}]}, "title": "Demo-03-Renaming copy pasted Time-Slots.mkv", "reader": {"pixel_format": 0, "audio_timebase": {"num": 1, "den": 1}, "pixel_ratio": {"num": 1, "den": 1}, "video_bit_rate": 0, "channels": 0, "video_stream_index": 0, "interlaced_frame": false, "path": "/home/milind/Data/Projects/CTTdemo/Demo-03-Renaming copy pasted Time-Slots.mkv", "audio_stream_index": -1, "display_ratio": {"num": 683, "den": 384}, "has_single_image": false, "top_field_first": true, "vcodec": "h264", "video_length": "525", "height": 768, "channel_layout": 4, "fps": {"num": 25, "den": 1}, "audio_bit_rate": 0, "acodec": "", "has_video": true, "file_size": "191199", "type": "FFmpegReader", "duration": 21.0, "video_timebase": {"num": 1, "den": 1000}, "has_audio": false, "sample_rate": 0, "width": 1366}, "crop_height": {"Points": [{"interpolation": 2, "co": {"Y": -1.0, "X": 1.0}}]}, "rotation": {"Points": [{"interpolation": 2, "co": {"Y": 0.0, "X": 1.0}}]}, "effects": [], "scale_x": {"Points": [{"interpolation": 2, "co": {"Y": 1.0, "X": 1.0}}]}, "perspective_c1_y": {"Points": [{"interpolation": 2, "co": {"Y": -1.0, "X": 1.0}}]}, "crop_width": {"Points": [{"interpolation": 2, "co": {"Y": -1.0, "X": 1.0}}]}, "perspective_c4_y": {"Points": [{"interpolation": 2, "co": {"Y": -1.0, "X": 1.0}}]}, "volume": {"Points": [{"interpolation": 2, "co": {"Y": 1.0, "X": 1.0}}]}, "scale_y": {"Points": [{"interpolation": 2, "co": {"Y": 1.0, "X": 1.0}}]}, "crop_y": {"Points": [{"interpolation": 2, "co": {"Y": 0.0, "X": 1.0}}]}, "perspective_c3_x": {"Points": [{"interpolation": 2, "co": {"Y": -1.0, "X": 1.0}}]}, "perspective_c4_x": {"Points": [{"interpolation": 2, "co": {"Y": -1.0, "X": 1.0}}]}, "duration": 21.0, "waveform": false, "has_audio": {"Points": [{"interpolation": 2, "co": {"Y": -1.0, "X": 1.0}}]}, "anchor": 0, "has_video": {"Points": [{"interpolation": 2, "co": {"Y": -1.0, "X": 1.0}}]}}, {"perspective_c2_y": {"Points": [{"interpolation": 2, "co": {"Y": -1.0, "X": 1.0}}]}, "crop_x": {"Points": [{"interpolation": 2, "co": {"Y": 0.0, "X": 1.0}}]}, "alpha": {"Points": [{"interpolation": 2, "co": {"Y": 1.0, "X": 1.0}}, {"interpolation": 0, "co": {"Y": 0.0, "X": 1.0}, "handle_right": {"Y": 0.0, "X": 0.5}, "handle_left": {"Y": 1.0, "X": 0.5}, "handle_type": 0}, {"interpolation": 0, "co": {"Y": 1.0, "X": 73.0}, "handle_right": {"Y": 0.0, "X": 0.5}, "handle_left": {"Y": 1.0, "X": 0.5}, "handle_type": 0}, {"interpolation": 0, "co": {"Y": 1.0, "X": 1412.0}, "handle_right": {"Y": 0.0, "X": 0.5}, "handle_left": {"Y": 1.0, "X": 0.5}, "handle_type": 0}, {"interpolation": 0, "co": {"Y": 0.0, "X": 1484.0}, "handle_right": {"Y": 0.0, "X": 0.5}, "handle_left": {"Y": 1.0, "X": 0.5}, "handle_type": 0}]}, "location_y": {"Points": [{"interpolation": 2, "co": {"Y": 0.0, "X": 1.0}}]}, "channel_mapping": {"Points": [{"interpolation": 2, "co": {"Y": -1.0, "X": 1.0}}]}, "layer": 4, "end": 61.791666666666664, "id": "5SL6Z206WO", "gravity": 4, "perspective_c1_x": {"Points": [{"interpolation": 2, "co": {"Y": -1.0, "X": 1.0}}]}, "scale": 1, "perspective_c2_x": {"Points": [{"interpolation": 2, "co": {"Y": -1.0, "X": 1.0}}]}, "image": "/home/milind/.openshot_qt/thumbnail/RVOUXSUSEQ.png", "location_x": {"Points": [{"interpolation": 2, "co": {"Y": 0.0, "X": 1.0}}]}, "position": 61.9, "shear_y": {"Points": [{"interpolation": 2, "co": {"Y": 0.0, "X": 1.0}}]}, "file_id": "RVOUXSUSEQ", "shear_x": {"Points": [{"interpolation": 2, "co": {"Y": 0.0, "X": 1.0}}]}, "channel_filter": {"Points": [{"interpolation": 2, "co": {"Y": -1.0, "X": 1.0}}]}, "wave_color": {"blue": {"Points": [{"interpolation": 0, "co": {"Y": 255.0, "X": 1.0}, "handle_right": {"Y": 0.0, "X": 0.5}, "handle_left": {"Y": 1.0, "X": 0.5}, "handle_type": 0}]}, "red": {"Points": [{"interpolation": 0, "co": {"Y": 0.0, "X": 1.0}, "handle_right": {"Y": 0.0, "X": 0.5}, "handle_left": {"Y": 1.0, "X": 0.5}, "handle_type": 0}]}, "green": {"Points": [{"interpolation": 0, "co": {"Y": 123.0, "X": 1.0}, "handle_right": {"Y": 0.0, "X": 0.5}, "handle_left": {"Y": 1.0, "X": 0.5}, "handle_type": 0}]}, "alpha": {"Points": [{"interpolation": 0, "co": {"Y": 255.0, "X": 1.0}, "handle_right": {"Y": 0.0, "X": 0.5}, "handle_left": {"Y": 1.0, "X": 0.5}, "handle_type": 0}]}}, "display": 0, "time": {"Points": [{"interpolation": 1, "co": {"Y": 1.0, "X": 1.0}}, {"interpolation": 1, "co": {"Y": 5929.0, "X": 1483.0}}]}, "start": 0, "perspective_c3_y": {"Points": [{"interpolation": 2, "co": {"Y": -1.0, "X": 1.0}}]}, "title": "Demo-04-Lecture Entry-Clash remove and Demo TT.mkv", "reader": {"pixel_format": 0, "audio_timebase": {"num": 1, "den": 1}, "pixel_ratio": {"num": 1, "den": 1}, "video_bit_rate": 0, "channels": 0, "video_stream_index": 0, "interlaced_frame": false, "path": "/home/milind/Data/Projects/CTTdemo/Demo-04-Lecture Entry-Clash remove and Demo TT.mkv", "audio_stream_index": -1, "display_ratio": {"num": 683, "den": 384}, "has_single_image": false, "top_field_first": true, "vcodec": "h264", "video_length": "6175", "height": 768, "channel_layout": 4, "fps": {"num": 25, "den": 1}, "audio_bit_rate": 0, "acodec": "", "has_video": true, "file_size": "2541542", "type": "FFmpegReader", "duration": 247.0, "video_timebase": {"num": 1, "den": 1000}, "has_audio": false, "sample_rate": 0, "width": 1366}, "crop_height": {"Points": [{"interpolation": 2, "co": {"Y": -1.0, "X": 1.0}}]}, "rotation": {"Points": [{"interpolation": 2, "co": {"Y": 0.0, "X": 1.0}}]}, "effects": [], "scale_x": {"Points": [{"interpolation": 2, "co": {"Y": 1.0, "X": 1.0}}]}, "perspective_c1_y": {"Points": [{"interpolation": 2, "co": {"Y": -1.0, "X": 1.0}}]}, "crop_width": {"Points": [{"interpolation": 2, "co": {"Y": -1.0, "X": 1.0}}]}, "perspective_c4_y": {"Points": [{"interpolation": 2, "co": {"Y": -1.0, "X": 1.0}}]}, "volume": {"Points": [{"interpolation": 2, "co": {"Y": 1.0, "X": 1.0}}]}, "scale_y": {"Points": [{"interpolation": 2, "co": {"Y": 1.0, "X": 1.0}}]}, "crop_y": {"Points": [{"interpolation": 2, "co": {"Y": 0.0, "X": 1.0}}]}, "perspective_c3_x": {"Points": [{"interpolation": 2, "co": {"Y": -1.0, "X": 1.0}}]}, "perspective_c4_x": {"Points": [{"interpolation": 2, "co": {"Y": -1.0, "X": 1.0}}]}, "duration": 60.0, "waveform": false, "has_audio": {"Points": [{"interpolation": 2, "co": {"Y": -1.0, "X": 1.0}}]}, "anchor": 0, "has_video": {"Points": [{"interpolation": 2, "co": {"Y": -1.0, "X": 1.0}}]}}, {"perspective_c2_y": {"Points": [{"interpolation": 2, "co": {"Y": -1.0, "X": 1.0}}]}, "crop_x": {"Points": [{"interpolation": 2, "co": {"Y": 0.0, "X": 1.0}}]}, "alpha": {"Points": [{"interpolation": 2, "co": {"Y": 1.0, "X": 1.0}}, {"interpolation": 0, "co": {"Y": 0.0, "X": 1.0}, "handle_right": {"Y": 0.0, "X": 0.5}, "handle_left": {"Y": 1.0, "X": 0.5}, "handle_type": 0}, {"interpolation": 0, "co": {"Y": 1.0, "X": 73.0}, "handle_right": {"Y": 0.0, "X": 0.5}, "handle_left": {"Y": 1.0, "X": 0.5}, "handle_type": 0}, {"interpolation": 0, "co": {"Y": 1.0, "X": 813.0}, "handle_right": {"Y": 0.0, "X": 0.5}, "handle_left": {"Y": 1.0, "X": 0.5}, "handle_type": 0}, {"interpolation": 0, "co": {"Y": 0.0, "X": 885.0}, "handle_right": {"Y": 0.0, "X": 0.5}, "handle_left": {"Y": 1.0, "X": 0.5}, "handle_type": 0}]}, "location_y": {"Points": [{"interpolation": 2, "co": {"Y": 0.0, "X": 1.0}}]}, "channel_mapping": {"Points": [{"interpolation": 2, "co": {"Y": -1.0, "X": 1.0}}]}, "layer": 4, "end": 36.84166666666667, "id": "6XKH2CVO13", "gravity": 4, "perspective_c1_x": {"Points": [{"interpolation": 2, "co": {"Y": -1.0, "X": 1.0}}]}, "scale": 1, "perspective_c2_x": {"Points": [{"interpolation": 2, "co": {"Y": -1.0, "X": 1.0}}]}, "image": "/home/milind/.openshot_qt/thumbnail/SJFW0PSRLB.png", "location_x": {"Points": [{"interpolation": 2, "co": {"Y": 0.0, "X": 1.0}}]}, "position": 123.6, "shear_y": {"Points": [{"interpolation": 2, "co": {"Y": 0.0, "X": 1.0}}]}, "file_id": "SJFW0PSRLB", "shear_x": {"Points": [{"interpolation": 2, "co": {"Y": 0.0, "X": 1.0}}]}, "channel_filter": {"Points": [{"interpolation": 2, "co": {"Y": -1.0, "X": 1.0}}]}, "wave_color": {"blue": {"Points": [{"interpolation": 0, "co": {"Y": 255.0, "X": 1.0}, "handle_right": {"Y": 0.0, "X": 0.5}, "handle_left": {"Y": 1.0, "X": 0.5}, "handle_type": 0}]}, "red": {"Points": [{"interpolation": 0, "co": {"Y": 0.0, "X": 1.0}, "handle_right": {"Y": 0.0, "X": 0.5}, "handle_left": {"Y": 1.0, "X": 0.5}, "handle_type": 0}]}, "green": {"Points": [{"interpolation": 0, "co": {"Y": 123.0, "X": 1.0}, "handle_right": {"Y": 0.0, "X": 0.5}, "handle_left": {"Y": 1.0, "X": 0.5}, "handle_type": 0}]}, "alpha": {"Points": [{"interpolation": 0, "co": {"Y": 255.0, "X": 1.0}, "handle_right": {"Y": 0.0, "X": 0.5}, "handle_left": {"Y": 1.0, "X": 0.5}, "handle_type": 0}]}}, "display": 0, "time": {"Points": [{"interpolation": 2, "co": {"Y": 1.0, "X": 1.0}}]}, "start": 0, "perspective_c3_y": {"Points": [{"interpolation": 2, "co": {"Y": -1.0, "X": 1.0}}]}, "title": "Demo-05-Slitt Class or Splitt lectures.mkv", "reader": {"pixel_format": 0, "audio_timebase": {"num": 1, "den": 1}, "pixel_ratio": {"num": 1, "den": 1}, "video_bit_rate": 0, "channels": 0, "video_stream_index": 0, "interlaced_frame": false, "path": "/home/milind/Data/Projects/CTTdemo/Demo-05-Slitt Class or Splitt lectures.mkv", "audio_stream_index": -1, "display_ratio": {"num": 683, "den": 384}, "has_single_image": false, "top_field_first": true, "vcodec": "h264", "video_length": "1025", "height": 768, "channel_layout": 4, "fps": {"num": 25, "den": 1}, "audio_bit_rate": 0, "acodec": "", "has_video": true, "file_size": "783366", "type": "FFmpegReader", "duration": 41.0, "video_timebase": {"num": 1, "den": 1000}, "has_audio": false, "sample_rate": 0, "width": 1366}, "crop_height": {"Points": [{"interpolation": 2, "co": {"Y": -1.0, "X": 1.0}}]}, "rotation": {"Points": [{"interpolation": 2, "co": {"Y": 0.0, "X": 1.0}}]}, "effects": [], "scale_x": {"Points": [{"interpolation": 2, "co": {"Y": 1.0, "X": 1.0}}]}, "perspective_c1_y": {"Points": [{"interpolation": 2, "co": {"Y": -1.0, "X": 1.0}}]}, "crop_width": {"Points": [{"interpolation": 2, "co": {"Y": -1.0, "X": 1.0}}]}, "perspective_c4_y": {"Points": [{"interpolation": 2, "co": {"Y": -1.0, "X": 1.0}}]}, "volume": {"Points": [{"interpolation": 2, "co": {"Y": 1.0, "X": 1.0}}]}, "scale_y": {"Points": [{"interpolation": 2, "co": {"Y": 1.0, "X": 1.0}}]}, "crop_y": {"Points": [{"interpolation": 2, "co": {"Y": 0.0, "X": 1.0}}]}, "perspective_c3_x": {"Points": [{"interpolation": 2, "co": {"Y": -1.0, "X": 1.0}}]}, "perspective_c4_x": {"Points": [{"interpolation": 2, "co": {"Y": -1.0, "X": 1.0}}]}, "duration": 41.0, "waveform": false, "has_audio": {"Points": [{"interpolation": 2, "co": {"Y": -1.0, "X": 1.0}}]}, "anchor": 0, "has_video": {"Points": [{"interpolation": 2, "co": {"Y": -1.0, "X": 1.0}}]}}, {"perspective_c2_y": {"Points": [{"interpolation": 2, "co": {"Y": -1.0, "X": 1.0}}]}, "crop_x": {"Points": [{"interpolation": 2, "co": {"Y": 0.0, "X": 1.0}}]}, "alpha": {"Points": [{"interpolation": 2, "co": {"Y": 1.0, "X": 1.0}}, {"interpolation": 0, "co": {"Y": 0.0, "X": 1.0}, "handle_right": {"Y": 0.0, "X": 0.5}, "handle_left": {"Y": 1.0, "X": 0.5}, "handle_type": 0}, {"interpolation": 0, "co": {"Y": 1.0, "X": 73.0}, "handle_right": {"Y": 0.0, "X": 0.5}, "handle_left": {"Y": 1.0, "X": 0.5}, "handle_type": 0}, {"interpolation": 0, "co": {"Y": 1.0, "X": 387.0}, "handle_right": {"Y": 0.0, "X": 0.5}, "handle_left": {"Y": 1.0, "X": 0.5}, "handle_type": 0}, {"interpolation": 0, "co": {"Y": 0.0, "X": 459.0}, "handle_right": {"Y": 0.0, "X": 0.5}, "handle_left": {"Y": 1.0, "X": 0.5}, "handle_type": 0}]}, "location_y": {"Points": [{"interpolation": 2, "co": {"Y": 0.0, "X": 1.0}}]}, "channel_mapping": {"Points": [{"interpolation": 2, "co": {"Y": -1.0, "X": 1.0}}]}, "layer": 4, "end": 19.083333333333343, "id": "QQCSZWQUN1", "gravity": 4, "perspective_c1_x": {"Points": [{"interpolation": 2, "co": {"Y": -1.0, "X": 1.0}}]}, "scale": 1, "perspective_c2_x": {"Points": [{"interpolation": 2, "co": {"Y": -1.0, "X": 1.0}}]}, "image": "/home/milind/.openshot_qt/thumbnail/O8MDU83AZY.png", "location_x": {"Points": [{"interpolation": 2, "co": {"Y": 0.0, "X": 1.0}}]}, "position": 160.4, "shear_y": {"Points": [{"interpolation": 2, "co": {"Y": 0.0, "X": 1.0}}]}, "file_id": "O8MDU83AZY", "shear_x": {"Points": [{"interpolation": 2, "co": {"Y": 0.0, "X": 1.0}}]}, "channel_filter": {"Points": [{"interpolation": 2, "co": {"Y": -1.0, "X": 1.0}}]}, "wave_color": {"blue": {"Points": [{"interpolation": 0, "co": {"Y": 255.0, "X": 1.0}, "handle_right": {"Y": 0.0, "X": 0.5}, "handle_left": {"Y": 1.0, "X": 0.5}, "handle_type": 0}]}, "red": {"Points": [{"interpolation": 0, "co": {"Y": 0.0, "X": 1.0}, "handle_right": {"Y": 0.0, "X": 0.5}, "handle_left": {"Y": 1.0, "X": 0.5}, "handle_type": 0}]}, "green": {"Points": [{"interpolation": 0, "co": {"Y": 123.0, "X": 1.0}, "handle_right": {"Y": 0.0, "X": 0.5}, "handle_left": {"Y": 1.0, "X": 0.5}, "handle_type": 0}]}, "alpha": {"Points": [{"interpolation": 0, "co": {"Y": 255.0, "X": 1.0}, "handle_right": {"Y": 0.0, "X": 0.5}, "handle_left": {"Y": 1.0, "X": 0.5}, "handle_type": 0}]}}, "display": 0, "time": {"Points": [{"interpolation": 2, "co": {"Y": 1.0, "X": 1.0}}]}, "start": 0, "perspective_c3_y": {"Points": [{"interpolation": 2, "co": {"Y": -1.0, "X": 1.0}}]}, "title": "Demo-06-Set School Name.mkv", "reader": {"pixel_format": 0, "audio_timebase": {"num": 1, "den": 1}, "pixel_ratio": {"num": 1, "den": 1}, "video_bit_rate": 0, "channels": 0, "video_stream_index": 0, "interlaced_frame": false, "path": "/home/milind/Data/Projects/CTTdemo/Demo-06-Set School Name.mkv", "audio_stream_index": -1, "display_ratio": {"num": 683, "den": 384}, "has_single_image": false, "top_field_first": true, "vcodec": "h264", "video_length": "600", "height": 768, "channel_layout": 4, "fps": {"num": 25, "den": 1}, "audio_bit_rate": 0, "acodec": "", "has_video": true, "file_size": "404652", "type": "FFmpegReader", "duration": 24.0, "video_timebase": {"num": 1, "den": 1000}, "has_audio": false, "sample_rate": 0, "width": 1366}, "crop_height": {"Points": [{"interpolation": 2, "co": {"Y": -1.0, "X": 1.0}}]}, "rotation": {"Points": [{"interpolation": 2, "co": {"Y": 0.0, "X": 1.0}}]}, "effects": [], "scale_x": {"Points": [{"interpolation": 2, "co": {"Y": 1.0, "X": 1.0}}]}, "perspective_c1_y": {"Points": [{"interpolation": 2, "co": {"Y": -1.0, "X": 1.0}}]}, "crop_width": {"Points": [{"interpolation": 2, "co": {"Y": -1.0, "X": 1.0}}]}, "perspective_c4_y": {"Points": [{"interpolation": 2, "co": {"Y": -1.0, "X": 1.0}}]}, "volume": {"Points": [{"interpolation": 2, "co": {"Y": 1.0, "X": 1.0}}]}, "scale_y": {"Points": [{"interpolation": 2, "co": {"Y": 1.0, "X": 1.0}}]}, "crop_y": {"Points": [{"interpolation": 2, "co": {"Y": 0.0, "X": 1.0}}]}, "perspective_c3_x": {"Points": [{"interpolation": 2, "co": {"Y": -1.0, "X": 1.0}}]}, "perspective_c4_x": {"Points": [{"interpolation": 2, "co": {"Y": -1.0, "X": 1.0}}]}, "duration": 24.0, "waveform": false, "has_audio": {"Points": [{"interpolation": 2, "co": {"Y": -1.0, "X": 1.0}}]}, "anchor": 0, "has_video": {"Points": [{"interpolation": 2, "co": {"Y": -1.0, "X": 1.0}}]}}, {"channel_mapping": {"Points": [{"interpolation": 2, "co": {"Y": -1.0, "X": 1.0}}]}, "crop_x": {"Points": [{"interpolation": 2, "co": {"Y": 0.0, "X": 1.0}}]}, "alpha": {"Points": [{"interpolation": 2, "co": {"Y": 1.0, "X": 1.0}}, {"interpolation": 0, "co": {"Y": 0.0, "X": 1.0}, "handle_right": {"Y": 0.0, "X": 0.5}, "handle_left": {"Y": 1.0, "X": 0.5}, "handle_type": 0}, {"interpolation": 0, "co": {"Y": 1.0, "X": 73.0}, "handle_right": {"Y": 0.0, "X": 0.5}, "handle_left": {"Y": 1.0, "X": 0.5}, "handle_type": 0}, {"co": {"Y": 0.0, "X": 1.0}, "interpolation": 0, "handle_right": {"Y": 0.0, "X": 0.5}, "handle_left": {"Y": 1.0, "X": 0.5}, "handle_type": 0}, {"co": {"Y": 1.0, "X": 73.0}, "interpolation": 0, "handle_right": {"Y": 0.0, "X": 0.5}, "handle_left": {"Y": 1.0, "X": 0.5}, "handle_type": 0}, {"co": {"Y": 1.0, "X": 609.0}, "interpolation": 0, "handle_right": {"Y": 0.0, "X": 0.5}, "handle_left": {"Y": 1.0, "X": 0.5}, "handle_type": 0}, {"co": {"Y": 0.0, "X": 681.0}, "interpolation": 0, "handle_right": {"Y": 0.0, "X": 0.5}, "handle_left": {"Y": 1.0, "X": 0.5}, "handle_type": 0}]}, "location_y": {"Points": [{"interpolation": 2, "co": {"Y": 0.0, "X": 1.0}}]}, "perspective_c2_y": {"Points": [{"interpolation": 2, "co": {"Y": -1.0, "X": 1.0}}]}, "end": 28.333333333333343, "id": "BPQZZB1IGM", "gravity": 4, "perspective_c1_x": {"Points": [{"interpolation": 2, "co": {"Y": -1.0, "X": 1.0}}]}, "scale": 1, "perspective_c2_x": {"Points": [{"interpolation": 2, "co": {"Y": -1.0, "X": 1.0}}]}, "image": "/home/milind/.openshot_qt/thumbnail/8BO13HSLCT.png", "volume": {"Points": [{"interpolation": 2, "co": {"Y": 1.0, "X": 1.0}}]}, "perspective_c4_x": {"Points": [{"interpolation": 2, "co": {"Y": -1.0, "X": 1.0}}]}, "shear_y": {"Points": [{"interpolation": 2, "co": {"Y": 0.0, "X": 1.0}}]}, "file_id": "8BO13HSLCT", "shear_x": {"Points": [{"interpolation": 2, "co": {"Y": 0.0, "X": 1.0}}]}, "channel_filter": {"Points": [{"interpolation": 2, "co": {"Y": -1.0, "X": 1.0}}]}, "wave_color": {"blue": {"Points": [{"interpolation": 0, "co": {"Y": 255.0, "X": 1.0}, "handle_right": {"Y": 0.0, "X": 0.5}, "handle_left": {"Y": 1.0, "X": 0.5}, "handle_type": 0}]}, "red": {"Points": [{"interpolation": 0, "co": {"Y": 0.0, "X": 1.0}, "handle_right": {"Y": 0.0, "X": 0.5}, "handle_left": {"Y": 1.0, "X": 0.5}, "handle_type": 0}]}, "green": {"Points": [{"interpolation": 0, "co": {"Y": 123.0, "X": 1.0}, "handle_right": {"Y": 0.0, "X": 0.5}, "handle_left": {"Y": 1.0, "X": 0.5}, "handle_type": 0}]}, "alpha": {"Points": [{"interpolation": 0, "co": {"Y": 255.0, "X": 1.0}, "handle_right": {"Y": 0.0, "X": 0.5}, "handle_left": {"Y": 1.0, "X": 0.5}, "handle_type": 0}]}}, "display": 0, "time": {"Points": [{"interpolation": 1, "co": {"Y": 1.0, "X": 1.0}}, {"interpolation": 1, "co": {"Y": 1585.0, "X": 793.0}}]}, "start": 0, "crop_y": {"Points": [{"interpolation": 2, "co": {"Y": 0.0, "X": 1.0}}]}, "title": "Demo-07-SetPrinter and Print Current.mkv", "crop_height": {"Points": [{"interpolation": 2, "co": {"Y": -1.0, "X": 1.0}}]}, "rotation": {"Points": [{"interpolation": 2, "co": {"Y": 0.0, "X": 1.0}}]}, "has_video": {"Points": [{"interpolation": 2, "co": {"Y": -1.0, "X": 1.0}}]}, "effects": [], "scale_x": {"Points": [{"interpolation": 2, "co": {"Y": 1.0, "X": 1.0}}]}, "perspective_c1_y": {"Points": [{"interpolation": 2, "co": {"Y": -1.0, "X": 1.0}}]}, "crop_width": {"Points": [{"interpolation": 2, "co": {"Y": -1.0, "X": 1.0}}]}, "perspective_c4_y": {"Points": [{"interpolation": 2, "co": {"Y": -1.0, "X": 1.0}}]}, "layer": 4, "scale_y": {"Points": [{"interpolation": 2, "co": {"Y": 1.0, "X": 1.0}}]}, "perspective_c3_y": {"Points": [{"interpolation": 2, "co": {"Y": -1.0, "X": 1.0}}]}, "perspective_c3_x": {"Points": [{"interpolation": 2, "co": {"Y": -1.0, "X": 1.0}}]}, "location_x": {"Points": [{"interpolation": 2, "co": {"Y": 0.0, "X": 1.0}}]}, "position": 179.4, "duration": 32.0, "reader": {"pixel_format": 0, "audio_timebase": {"num": 1, "den": 1}, "pixel_ratio": {"num": 1, "den": 1}, "video_bit_rate": 0, "channels": 0, "video_stream_index": 0, "interlaced_frame": false, "path": "/home/milind/Data/Projects/CTTdemo/Demo-07-SetPrinter and Print Current.mkv", "audio_stream_index": -1, "display_ratio": {"num": 683, "den": 384}, "has_single_image": false, "top_field_first": true, "vcodec": "h264", "video_length": "1650", "height": 768, "channel_layout": 4, "fps": {"num": 25, "den": 1}, "audio_bit_rate": 0, "acodec": "", "has_video": true, "file_size": "1142597", "type": "FFmpegReader", "duration": 66.0, "video_timebase": {"num": 1, "den": 1000}, "has_audio": false, "sample_rate": 0, "width": 1366}, "has_audio": {"Points": [{"interpolation": 2, "co": {"Y": -1.0, "X": 1.0}}]}, "anchor": 0, "waveform": false}, {"channel_mapping": {"Points": [{"interpolation": 2, "co": {"Y": -1.0, "X": 1.0}}]}, "crop_x": {"Points": [{"interpolation": 2, "co": {"Y": 0.0, "X": 1.0}}]}, "alpha": {"Points": [{"interpolation": 2, "co": {"Y": 1.0, "X": 1.0}}, {"interpolation": 0, "co": {"Y": 0.0, "X": 1.0}, "handle_right": {"Y": 0.0, "X": 0.5}, "handle_left": {"Y": 1.0, "X": 0.5}, "handle_type": 0}, {"interpolation": 0, "co": {"Y": 1.0, "X": 73.0}, "handle_right": {"Y": 0.0, "X": 0.5}, "handle_left": {"Y": 1.0, "X": 0.5}, "handle_type": 0}, {"interpolation": 0, "co": {"Y": 1.0, "X": 169.0}, "handle_right": {"Y": 0.0, "X": 0.5}, "handle_left": {"Y": 1.0, "X": 0.5}, "handle_type": 0}, {"interpolation": 0, "co": {"Y": 0.0, "X": 241.0}, "handle_right": {"Y": 0.0, "X": 0.5}, "handle_left": {"Y": 1.0, "X": 0.5}, "handle_type": 0}]}, "title": "Title-Start.svg", "perspective_c2_y": {"Points": [{"interpolation": 2, "co": {"Y": -1.0, "X": 1.0}}]}, "layer": 4, "end": 10, "id": "XT2N90YHJ7", "gravity": 4, "perspective_c1_x": {"Points": [{"interpolation": 2, "co": {"Y": -1.0, "X": 1.0}}]}, "scale": 1, "perspective_c2_x": {"Points": [{"interpolation": 2, "co": {"Y": -1.0, "X": 1.0}}]}, "image": "/home/milind/.openshot_qt/thumbnail/035S9FEBR2.png", "location_x": {"Points": [{"interpolation": 2, "co": {"Y": 0.0, "X": 1.0}}]}, "position": 0, "shear_y": {"Points": [{"interpolation": 2, "co": {"Y": 0.0, "X": 1.0}}]}, "file_id": "035S9FEBR2", "shear_x": {"Points": [{"interpolation": 2, "co": {"Y": 0.0, "X": 1.0}}]}, "channel_filter": {"Points": [{"interpolation": 2, "co": {"Y": -1.0, "X": 1.0}}]}, "wave_color": {"red": {"Points": [{"interpolation": 0, "co": {"Y": 0.0, "X": 1.0}, "handle_right": {"Y": 0.0, "X": 0.5}, "handle_left": {"Y": 1.0, "X": 0.5}, "handle_type": 0}]}, "blue": {"Points": [{"interpolation": 0, "co": {"Y": 255.0, "X": 1.0}, "handle_right": {"Y": 0.0, "X": 0.5}, "handle_left": {"Y": 1.0, "X": 0.5}, "handle_type": 0}]}, "green": {"Points": [{"interpolation": 0, "co": {"Y": 123.0, "X": 1.0}, "handle_right": {"Y": 0.0, "X": 0.5}, "handle_left": {"Y": 1.0, "X": 0.5}, "handle_type": 0}]}, "alpha": {"Points": [{"interpolation": 0, "co": {"Y": 255.0, "X": 1.0}, "handle_right": {"Y": 0.0, "X": 0.5}, "handle_left": {"Y": 1.0, "X": 0.5}, "handle_type": 0}]}}, "display": 0, "time": {"Points": [{"interpolation": 2, "co": {"Y": 1.0, "X": 1.0}}]}, "start": 0, "perspective_c3_y": {"Points": [{"interpolation": 2, "co": {"Y": -1.0, "X": 1.0}}]}, "location_y": {"Points": [{"interpolation": 2, "co": {"Y": 0.0, "X": 1.0}}]}, "crop_height": {"Points": [{"interpolation": 2, "co": {"Y": -1.0, "X": 1.0}}]}, "rotation": {"Points": [{"interpolation": 2, "co": {"Y": 0.0, "X": 1.0}}]}, "has_video": {"Points": [{"interpolation": 2, "co": {"Y": -1.0, "X": 1.0}}]}, "effects": [], "scale_x": {"Points": [{"interpolation": 2, "co": {"Y": 1.0, "X": 1.0}}]}, "perspective_c1_y": {"Points": [{"interpolation": 2, "co": {"Y": -1.0, "X": 1.0}}]}, "crop_width": {"Points": [{"interpolation": 2, "co": {"Y": -1.0, "X": 1.0}}]}, "perspective_c4_y": {"Points": [{"interpolation": 2, "co": {"Y": -1.0, "X": 1.0}}]}, "volume": {"Points": [{"interpolation": 2, "co": {"Y": 1.0, "X": 1.0}}]}, "scale_y": {"Points": [{"interpolation": 2, "co": {"Y": 1.0, "X": 1.0}}]}, "crop_y": {"Points": [{"interpolation": 2, "co": {"Y": 0.0, "X": 1.0}}]}, "perspective_c3_x": {"Points": [{"interpolation": 2, "co": {"Y": -1.0, "X": 1.0}}]}, "perspective_c4_x": {"Points": [{"interpolation": 2, "co": {"Y": -1.0, "X": 1.0}}]}, "duration": 86400.0, "reader": {"pixel_format": -1, "audio_timebase": {"num": 1, "den": 1}, "pixel_ratio": {"num": 1, "den": 1}, "video_bit_rate": 0, "channels": 0, "video_stream_index": -1, "interlaced_frame": false, "path": "/home/milind/Data/Projects/CTTdemo/assets/Title-Start.svg", "audio_stream_index": -1, "display_ratio": {"num": 16, "den": 9}, "has_single_image": true, "top_field_first": true, "vcodec": "", "video_length": "2592000", "height": 1080, "channel_layout": 4, "fps": {"num": 30, "den": 1}, "audio_bit_rate": 0, "acodec": "", "has_video": true, "file_size": "8294400", "type": "QtImageReader", "duration": 86400.0, "video_timebase": {"num": 1, "den": 30}, "has_audio": false, "sample_rate": 0, "width": 1920}, "has_audio": {"Points": [{"interpolation": 2, "co": {"Y": -1.0, "X": 1.0}}]}, "anchor": 0, "waveform": false}, {"perspective_c2_y": {"Points": [{"interpolation": 2, "co": {"Y": -1.0, "X": 1.0}}]}, "crop_x": {"Points": [{"interpolation": 2, "co": {"Y": 0.0, "X": 1.0}}]}, "alpha": {"Points": [{"interpolation": 2, "co": {"Y": 1.0, "X": 1.0}}, {"interpolation": 0, "co": {"Y": 0.0, "X": 1.0}, "handle_right": {"Y": 0.0, "X": 0.5}, "handle_left": {"Y": 1.0, "X": 0.5}, "handle_type": 0}, {"interpolation": 0, "co": {"Y": 1.0, "X": 73.0}, "handle_right": {"Y": 0.0, "X": 0.5}, "handle_left": {"Y": 1.0, "X": 0.5}, "handle_type": 0}, {"interpolation": 0, "co": {"Y": 1.0, "X": 169.0}, "handle_right": {"Y": 0.0, "X": 0.5}, "handle_left": {"Y": 1.0, "X": 0.5}, "handle_type": 0}, {"interpolation": 0, "co": {"Y": 0.0, "X": 241.0}, "handle_right": {"Y": 0.0, "X": 0.5}, "handle_left": {"Y": 1.0, "X": 0.5}, "handle_type": 0}]}, "title": "TitleFileName-3.svg", "channel_mapping": {"Points": [{"interpolation": 2, "co": {"Y": -1.0, "X": 1.0}}]}, "layer": 4, "end": 10, "id": "4TIGU4D63N", "gravity": 4, "perspective_c1_x": {"Points": [{"interpolation": 2, "co": {"Y": -1.0, "X": 1.0}}]}, "scale": 1, "perspective_c2_x": {"Points": [{"interpolation": 2, "co": {"Y": -1.0, "X": 1.0}}]}, "image": "/home/milind/.openshot_qt/thumbnail/FQIXCNMEB9.png", "location_x": {"Points": [{"interpolation": 2, "co": {"Y": 0.0, "X": 1.0}}]}, "position": 207.73333333333335, "shear_y": {"Points": [{"interpolation": 2, "co": {"Y": 0.0, "X": 1.0}}]}, "file_id": "FQIXCNMEB9", "shear_x": {"Points": [{"interpolation": 2, "co": {"Y": 0.0, "X": 1.0}}]}, "channel_filter": {"Points": [{"interpolation": 2, "co": {"Y": -1.0, "X": 1.0}}]}, "wave_color": {"red": {"Points": [{"interpolation": 0, "co": {"Y": 0.0, "X": 1.0}, "handle_right": {"Y": 0.0, "X": 0.5}, "handle_left": {"Y": 1.0, "X": 0.5}, "handle_type": 0}]}, "blue": {"Points": [{"interpolation": 0, "co": {"Y": 255.0, "X": 1.0}, "handle_right": {"Y": 0.0, "X": 0.5}, "handle_left": {"Y": 1.0, "X": 0.5}, "handle_type": 0}]}, "green": {"Points": [{"interpolation": 0, "co": {"Y": 123.0, "X": 1.0}, "handle_right": {"Y": 0.0, "X": 0.5}, "handle_left": {"Y": 1.0, "X": 0.5}, "handle_type": 0}]}, "alpha": {"Points": [{"interpolation": 0, "co": {"Y": 255.0, "X": 1.0}, "handle_right": {"Y": 0.0, "X": 0.5}, "handle_left": {"Y": 1.0, "X": 0.5}, "handle_type": 0}]}}, "display": 0, "time": {"Points": [{"interpolation": 2, "co": {"Y": 1.0, "X": 1.0}}]}, "start": 0, "perspective_c3_y": {"Points": [{"interpolation": 2, "co": {"Y": -1.0, "X": 1.0}}]}, "location_y": {"Points": [{"interpolation": 2, "co": {"Y": 0.0, "X": 1.0}}]}, "crop_height": {"Points": [{"interpolation": 2, "co": {"Y": -1.0, "X": 1.0}}]}, "rotation": {"Points": [{"interpolation": 2, "co": {"Y": 0.0, "X": 1.0}}]}, "has_video": {"Points": [{"interpolation": 2, "co": {"Y": -1.0, "X": 1.0}}]}, "effects": [], "scale_x": {"Points": [{"interpolation": 2, "co": {"Y": 1.0, "X": 1.0}}]}, "perspective_c1_y": {"Points": [{"interpolation": 2, "co": {"Y": -1.0, "X": 1.0}}]}, "crop_width": {"Points": [{"interpolation": 2, "co": {"Y": -1.0, "X": 1.0}}]}, "perspective_c4_y": {"Points": [{"interpolation": 2, "co": {"Y": -1.0, "X": 1.0}}]}, "volume": {"Points": [{"interpolation": 2, "co": {"Y": 1.0, "X": 1.0}}]}, "scale_y": {"Points": [{"interpolation": 2, "co": {"Y": 1.0, "X": 1.0}}]}, "crop_y": {"Points": [{"interpolation": 2, "co": {"Y": 0.0, "X": 1.0}}]}, "perspective_c3_x": {"Points": [{"interpolation": 2, "co": {"Y": -1.0, "X": 1.0}}]}, "perspective_c4_x": {"Points": [{"interpolation": 2, "co": {"Y": -1.0, "X": 1.0}}]}, "duration": 86400.0, "reader": {"pixel_format": -1, "audio_timebase": {"num": 1, "den": 1}, "pixel_ratio": {"num": 1, "den": 1}, "video_bit_rate": 0, "channels": 0, "video_stream_index": -1, "interlaced_frame": false, "path": "/home/milind/Data/Projects/CTTdemo/assets/TitleFileName-3.svg", "audio_stream_index": -1, "display_ratio": {"num": 16, "den": 9}, "has_single_image": true, "top_field_first": true, "vcodec": "", "video_length": "2592000", "height": 1080, "channel_layout": 4, "fps": {"num": 30, "den": 1}, "audio_bit_rate": 0, "acodec": "", "has_video": true, "file_size": "8294400", "type": "QtImageReader", "duration": 86400.0, "video_timebase": {"num": 1, "den": 30}, "has_audio": false, "sample_rate": 0, "width": 1920}, "has_audio": {"Points": [{"interpolation": 2, "co": {"Y": -1.0, "X": 1.0}}]}, "anchor": 0, "waveform": false}, {"channel_mapping": {"Points": [{"co": {"Y": -1.0, "X": 1.0}, "interpolation": 2}]}, "location_x": {"Points": [{"co": {"Y": 0.0, "X": 1.0}, "interpolation": 2}]}, "alpha": {"Points": [{"co": {"Y": 1.0, "X": 1.0}, "interpolation": 2}]}, "location_y": {"Points": [{"co": {"Y": 0.0, "X": 1.0}, "interpolation": 2}]}, "rotation": {"Points": [{"co": {"Y": 0.0, "X": 1.0}, "interpolation": 2}]}, "layer": 4, "id": "O3BG0Y7CKW", "gravity": 4, "perspective_c1_x": {"Points": [{"co": {"Y": -1.0, "X": 1.0}, "interpolation": 2}]}, "scale": 1, "waveform": false, "perspective_c2_x": {"Points": [{"co": {"Y": -1.0, "X": 1.0}, "interpolation": 2}]}, "image": "/home/milind/.openshot_qt/thumbnail/7WISDFXLOD.png", "effects": [], "perspective_c4_x": {"Points": [{"co": {"Y": -1.0, "X": 1.0}, "interpolation": 2}]}, "title": "closing.svg", "shear_y": {"Points": [{"co": {"Y": 0.0, "X": 1.0}, "interpolation": 2}]}, "file_id": "7WISDFXLOD", "shear_x": {"Points": [{"co": {"Y": 0.0, "X": 1.0}, "interpolation": 2}]}, "channel_filter": {"Points": [{"co": {"Y": -1.0, "X": 1.0}, "interpolation": 2}]}, "wave_color": {"blue": {"Points": [{"co": {"Y": 255.0, "X": 1.0}, "interpolation": 0, "handle_right": {"Y": 0.0, "X": 0.5}, "handle_left": {"Y": 1.0, "X": 0.5}, "handle_type": 0}]}, "red": {"Points": [{"co": {"Y": 0.0, "X": 1.0}, "interpolation": 0, "handle_right": {"Y": 0.0, "X": 0.5}, "handle_left": {"Y": 1.0, "X": 0.5}, "handle_type": 0}]}, "green": {"Points": [{"co": {"Y": 123.0, "X": 1.0}, "interpolation": 0, "handle_right": {"Y": 0.0, "X": 0.5}, "handle_left": {"Y": 1.0, "X": 0.5}, "handle_type": 0}]}, "alpha": {"Points": [{"co": {"Y": 255.0, "X": 1.0}, "interpolation": 0, "handle_right": {"Y": 0.0, "X": 0.5}, "handle_left": {"Y": 1.0, "X": 0.5}, "handle_type": 0}]}}, "display": 0, "time": {"Points": [{"co": {"Y": 1.0, "X": 1.0}, "interpolation": 2}]}, "crop_x": {"Points": [{"co": {"Y": 0.0, "X": 1.0}, "interpolation": 2}]}, "perspective_c2_y": {"Points": [{"co": {"Y": -1.0, "X": 1.0}, "interpolation": 2}]}, "end": 10, "crop_height": {"Points": [{"co": {"Y": -1.0, "X": 1.0}, "interpolation": 2}]}, "anchor": 0, "start": 0, "scale_x": {"Points": [{"co": {"Y": 1.0, "X": 1.0}, "interpolation": 2}]}, "perspective_c1_y": {"Points": [{"co": {"Y": -1.0, "X": 1.0}, "interpolation": 2}]}, "crop_width": {"Points": [{"co": {"Y": -1.0, "X": 1.0}, "interpolation": 2}]}, "perspective_c4_y": {"Points": [{"co": {"Y": -1.0, "X": 1.0}, "interpolation": 2}]}, "volume": {"Points": [{"co": {"Y": 1.0, "X": 1.0}, "interpolation": 2}]}, "scale_y": {"Points": [{"co": {"Y": 1.0, "X": 1.0}, "interpolation": 2}]}, "crop_y": {"Points": [{"co": {"Y": 0.0, "X": 1.0}, "interpolation": 2}]}, "perspective_c3_x": {"Points": [{"co": {"Y": -1.0, "X": 1.0}, "interpolation": 2}]}, "position": 217.73333333333335, "duration": 86400.0, "reader": {"pixel_format": -1, "audio_timebase": {"num": 1, "den": 1}, "pixel_ratio": {"num": 1, "den": 1}, "video_bit_rate": 0, "channels": 0, "video_stream_index": -1, "interlaced_frame": false, "audio_stream_index": -1, "display_ratio": {"num": 40, "den": 23}, "has_single_image": true, "top_field_first": true, "vcodec": "", "video_length": "2592000", "height": 1104, "channel_layout": 4, "fps": {"num": 30, "den": 1}, "audio_bit_rate": 0, "acodec": "", "type": "QtImageReader", "has_video": true, "file_size": "8478720", "path": "/home/milind/Data/Projects/CTTdemo/assets/closing.svg", "duration": 86400.0, "video_timebase": {"num": 1, "den": 30}, "has_audio": false, "sample_rate": 0, "width": 1920}, "has_audio": {"Points": [{"co": {"Y": -1.0, "X": 1.0}, "interpolation": 2}]}, "perspective_c3_y": {"Points": [{"co": {"Y": -1.0, "X": 1.0}, "interpolation": 2}]}, "has_video": {"Points": [{"co": {"Y": -1.0, "X": 1.0}, "interpolation": 2}]}}, {"channel_mapping": {"Points": [{"co": {"Y": -1.0, "X": 1.0}, "interpolation": 2}]}, "location_x": {"Points": [{"co": {"Y": 0.0, "X": 1.0}, "interpolation": 2}]}, "alpha": {"Points": [{"co": {"Y": 1.0, "X": 1.0}, "interpolation": 2}]}, "location_y": {"Points": [{"co": {"Y": 0.0, "X": 1.0}, "interpolation": 2}]}, "rotation": {"Points": [{"co": {"Y": 0.0, "X": 1.0}, "interpolation": 2}]}, "layer": 4, "id": "RBLMLKIP75", "gravity": 4, "perspective_c1_x": {"Points": [{"co": {"Y": -1.0, "X": 1.0}, "interpolation": 2}]}, "scale": 1, "waveform": false, "perspective_c2_x": {"Points": [{"co": {"Y": -1.0, "X": 1.0}, "interpolation": 2}]}, "image": "/home/milind/.openshot_qt/thumbnail/7WISDFXLOD.png", "effects": [], "perspective_c4_x": {"Points": [{"co": {"Y": -1.0, "X": 1.0}, "interpolation": 2}]}, "title": "closing.svg", "shear_y": {"Points": [{"co": {"Y": 0.0, "X": 1.0}, "interpolation": 2}]}, "file_id": "7WISDFXLOD", "shear_x": {"Points": [{"co": {"Y": 0.0, "X": 1.0}, "interpolation": 2}]}, "channel_filter": {"Points": [{"co": {"Y": -1.0, "X": 1.0}, "interpolation": 2}]}, "wave_color": {"blue": {"Points": [{"co": {"Y": 255.0, "X": 1.0}, "interpolation": 0, "handle_right": {"Y": 0.0, "X": 0.5}, "handle_left": {"Y": 1.0, "X": 0.5}, "handle_type": 0}]}, "red": {"Points": [{"co": {"Y": 0.0, "X": 1.0}, "interpolation": 0, "handle_right": {"Y": 0.0, "X": 0.5}, "handle_left": {"Y": 1.0, "X": 0.5}, "handle_type": 0}]}, "green": {"Points": [{"co": {"Y": 123.0, "X": 1.0}, "interpolation": 0, "handle_right": {"Y": 0.0, "X": 0.5}, "handle_left": {"Y": 1.0, "X": 0.5}, "handle_type": 0}]}, "alpha": {"Points": [{"co": {"Y": 255.0, "X": 1.0}, "interpolation": 0, "handle_right": {"Y": 0.0, "X": 0.5}, "handle_left": {"Y": 1.0, "X": 0.5}, "handle_type": 0}]}}, "display": 0, "time": {"Points": [{"co": {"Y": 1.0, "X": 1.0}, "interpolation": 2}]}, "crop_x": {"Points": [{"co": {"Y": 0.0, "X": 1.0}, "interpolation": 2}]}, "perspective_c2_y": {"Points": [{"co": {"Y": -1.0, "X": 1.0}, "interpolation": 2}]}, "end": 10, "crop_height": {"Points": [{"co": {"Y": -1.0, "X": 1.0}, "interpolation": 2}]}, "anchor": 0, "start": 0, "scale_x": {"Points": [{"co": {"Y": 1.0, "X": 1.0}, "interpolation": 2}]}, "perspective_c1_y": {"Points": [{"co": {"Y": -1.0, "X": 1.0}, "interpolation": 2}]}, "crop_width": {"Points": [{"co": {"Y": -1.0, "X": 1.0}, "interpolation": 2}]}, "perspective_c4_y": {"Points": [{"co": {"Y": -1.0, "X": 1.0}, "interpolation": 2}]}, "volume": {"Points": [{"co": {"Y": 1.0, "X": 1.0}, "interpolation": 2}]}, "scale_y": {"Points": [{"co": {"Y": 1.0, "X": 1.0}, "interpolation": 2}]}, "crop_y": {"Points": [{"co": {"Y": 0.0, "X": 1.0}, "interpolation": 2}]}, "perspective_c3_x": {"Points": [{"co": {"Y": -1.0, "X": 1.0}, "interpolation": 2}]}, "position": 227.73333333333335, "duration": 86400.0, "reader": {"pixel_format": -1, "audio_timebase": {"num": 1, "den": 1}, "pixel_ratio": {"num": 1, "den": 1}, "video_bit_rate": 0, "channels": 0, "video_stream_index": -1, "interlaced_frame": false, "audio_stream_index": -1, "display_ratio": {"num": 40, "den": 23}, "has_single_image": true, "top_field_first": true, "vcodec": "", "video_length": "2592000", "height": 1104, "channel_layout": 4, "fps": {"num": 30, "den": 1}, "audio_bit_rate": 0, "acodec": "", "type": "QtImageReader", "has_video": true, "file_size": "8478720", "path": "/home/milind/Data/Projects/CTTdemo/assets/closing.svg", "duration": 86400.0, "video_timebase": {"num": 1, "den": 30}, "has_audio": false, "sample_rate": 0, "width": 1920}, "has_audio": {"Points": [{"co": {"Y": -1.0, "X": 1.0}, "interpolation": 2}]}, "perspective_c3_y": {"Points": [{"co": {"Y": -1.0, "X": 1.0}, "interpolation": 2}]}, "has_video": {"Points": [{"co": {"Y": -1.0, "X": 1.0}, "interpolation": 2}]}}], "type": "insert", "key": ["clips"], "value": {"channel_mapping": {"Points": [{"co": {"Y": -1.0, "X": 1.0}, "interpolation": 2}]}, "location_x": {"Points": [{"co": {"Y": 0.0, "X": 1.0}, "interpolation": 2}]}, "alpha": {"Points": [{"co": {"Y": 1.0, "X": 1.0}, "interpolation": 2}, {"co": {"Y": 0.0, "X": 1.0}, "interpolation": 0, "handle_right": {"Y": 0.0, "X": 0.5}, "handle_left": {"Y": 1.0, "X": 0.5}, "handle_type": 0}, {"co": {"Y": 1.0, "X": 73.0}, "interpolation": 0, "handle_right": {"Y": 0.0, "X": 0.5}, "handle_left": {"Y": 1.0, "X": 0.5}, "handle_type": 0}, {"co": {"Y": 1.0, "X": 169.0}, "interpolation": 0, "handle_right": {"Y": 0.0, "X": 0.5}, "handle_left": {"Y": 1.0, "X": 0.5}, "handle_type": 0}, {"co": {"Y": 0.0, "X": 241.0}, "interpolation": 0, "handle_right": {"Y": 0.0, "X": 0.5}, "handle_left": {"Y": 1.0, "X": 0.5}, "handle_type": 0}]}, "location_y": {"Points": [{"co": {"Y": 0.0, "X": 1.0}, "interpolation": 2}]}, "rotation": {"Points": [{"co": {"Y": 0.0, "X": 1.0}, "interpolation": 2}]}, "end": 10, "id": "7V7DJEYZZY", "gravity": 4, "perspective_c1_x": {"Points": [{"co": {"Y": -1.0, "X": 1.0}, "interpolation": 2}]}, "scale": 1, "perspective_c2_x": {"Points": [{"co": {"Y": -1.0, "X": 1.0}, "interpolation": 2}]}, "image": "/home/milind/.openshot_qt/thumbnail/YB8WHQZUJE.png", "effects": [], "perspective_c4_x": {"Points": [{"co": {"Y": -1.0, "X": 1.0}, "interpolation": 2}]}, "shear_y": {"Points": [{"co": {"Y": 0.0, "X": 1.0}, "interpolation": 2}]}, "file_id": "YB8WHQZUJE", "shear_x": {"Points": [{"co": {"Y": 0.0, "X": 1.0}, "interpolation": 2}]}, "perspective_c3_y": {"Points": [{"co": {"Y": -1.0, "X": 1.0}, "interpolation": 2}]}, "channel_filter": {"Points": [{"co": {"Y": -1.0, "X": 1.0}, "interpolation": 2}]}, "wave_color": {"blue": {"Points": [{"co": {"Y": 255.0, "X": 1.0}, "interpolation": 0, "handle_right": {"Y": 0.0, "X": 0.5}, "handle_left": {"Y": 1.0, "X": 0.5}, "handle_type": 0}]}, "red": {"Points": [{"co": {"Y": 0.0, "X": 1.0}, "interpolation": 0, "handle_right": {"Y": 0.0, "X": 0.5}, "handle_left": {"Y": 1.0, "X": 0.5}, "handle_type": 0}]}, "green": {"Points": [{"co": {"Y": 123.0, "X": 1.0}, "interpolation": 0, "handle_right": {"Y": 0.0, "X": 0.5}, "handle_left": {"Y": 1.0, "X": 0.5}, "handle_type": 0}]}, "alpha": {"Points": [{"co": {"Y": 255.0, "X": 1.0}, "interpolation": 0, "handle_right": {"Y": 0.0, "X": 0.5}, "handle_left": {"Y": 1.0, "X": 0.5}, "handle_type": 0}]}}, "display": 0, "time": {"Points": [{"co": {"Y": 1.0, "X": 1.0}, "interpolation": 2}]}, "crop_x": {"Points": [{"co": {"Y": 0.0, "X": 1.0}, "interpolation": 2}]}, "crop_y": {"Points": [{"co": {"Y": 0.0, "X": 1.0}, "interpolation": 2}]}, "perspective_c2_y": {"Points": [{"co": {"Y": -1.0, "X": 1.0}, "interpolation": 2}]}, "title": "ILUG-MSG.svg", "crop_height": {"Points": [{"co": {"Y": -1.0, "X": 1.0}, "interpolation": 2}]}, "volume": {"Points": [{"co": {"Y": 1.0, "X": 1.0}, "interpolation": 2}]}, "start": 0, "scale_x": {"Points": [{"co": {"Y": 1.0, "X": 1.0}, "interpolation": 2}]}, "perspective_c1_y": {"Points": [{"co": {"Y": -1.0, "X": 1.0}, "interpolation": 2}]}, "crop_width": {"Points": [{"co": {"Y": -1.0, "X": 1.0}, "interpolation": 2}]}, "perspective_c4_y": {"Points": [{"co": {"Y": -1.0, "X": 1.0}, "interpolation": 2}]}, "layer": 4, "scale_y": {"Points": [{"co": {"Y": 1.0, "X": 1.0}, "interpolation": 2}]}, "has_video": {"Points": [{"co": {"Y": -1.0, "X": 1.0}, "interpolation": 2}]}, "perspective_c3_x": {"Points": [{"co": {"Y": -1.0, "X": 1.0}, "interpolation": 2}]}, "position": 227.7, "duration": 86400.0, "reader": {"pixel_format": -1, "top_field_first": true, "pixel_ratio": {"num": 1, "den": 1}, "video_bit_rate": 0, "channels": 0, "video_stream_index": -1, "interlaced_frame": false, "path": "/home/milind/Data/Projects/CTTdemo/assets/ILUG-MSG.svg", "audio_stream_index": -1, "display_ratio": {"num": 40, "den": 23}, "has_single_image": true, "audio_timebase": {"num": 1, "den": 1}, "vcodec": "", "video_length": "2592000", "height": 1104, "channel_layout": 4, "fps": {"num": 30, "den": 1}, "audio_bit_rate": 0, "acodec": "", "has_video": true, "file_size": "8478720", "type": "QtImageReader", "duration": 86400.0, "video_timebase": {"num": 1, "den": 30}, "has_audio": false, "sample_rate": 0, "width": 1920}, "has_audio": {"Points": [{"co": {"Y": -1.0, "X": 1.0}, "interpolation": 2}]}, "anchor": 0, "waveform": false}, "partial": false}, {"old_values": {"channel_mapping": {"Points": [{"co": {"Y": -1.0, "X": 1.0}, "interpolation": 2}]}, "crop_x": {"Points": [{"co": {"Y": 0.0, "X": 1.0}, "interpolation": 2}]}, "alpha": {"Points": [{"co": {"Y": 1.0, "X": 1.0}, "interpolation": 2}]}, "title": "ILUG-MSG.svg", "perspective_c2_y": {"Points": [{"co": {"Y": -1.0, "X": 1.0}, "interpolation": 2}]}, "layer": 4, "id": "7V7DJEYZZY", "gravity": 4, "perspective_c1_x": {"Points": [{"co": {"Y": -1.0, "X": 1.0}, "interpolation": 2}]}, "scale": 1, "anchor": 0, "perspective_c2_x": {"Points": [{"co": {"Y": -1.0, "X": 1.0}, "interpolation": 2}]}, "image": "/home/milind/.openshot_qt/thumbnail/YB8WHQZUJE.png", "effects": [], "perspective_c4_x": {"Points": [{"co": {"Y": -1.0, "X": 1.0}, "interpolation": 2}]}, "shear_y": {"Points": [{"co": {"Y": 0.0, "X": 1.0}, "interpolation": 2}]}, "file_id": "YB8WHQZUJE", "shear_x": {"Points": [{"co": {"Y": 0.0, "X": 1.0}, "interpolation": 2}]}, "channel_filter": {"Points": [{"co": {"Y": -1.0, "X": 1.0}, "interpolation": 2}]}, "wave_color": {"blue": {"Points": [{"co": {"Y": 255.0, "X": 1.0}, "interpolation": 0, "handle_right": {"Y": 0.0, "X": 0.5}, "handle_left": {"Y": 1.0, "X": 0.5}, "handle_type": 0}]}, "red": {"Points": [{"co": {"Y": 0.0, "X": 1.0}, "interpolation": 0, "handle_right": {"Y": 0.0, "X": 0.5}, "handle_left": {"Y": 1.0, "X": 0.5}, "handle_type": 0}]}, "green": {"Points": [{"co": {"Y": 123.0, "X": 1.0}, "interpolation": 0, "handle_right": {"Y": 0.0, "X": 0.5}, "handle_left": {"Y": 1.0, "X": 0.5}, "handle_type": 0}]}, "alpha": {"Points": [{"co": {"Y": 255.0, "X": 1.0}, "interpolation": 0, "handle_right": {"Y": 0.0, "X": 0.5}, "handle_left": {"Y": 1.0, "X": 0.5}, "handle_type": 0}]}}, "display": 0, "location_y": {"Points": [{"co": {"Y": 0.0, "X": 1.0}, "interpolation": 2}]}, "time": {"Points": [{"co": {"Y": 1.0, "X": 1.0}, "interpolation": 2}]}, "start": 0.0, "perspective_c3_y": {"Points": [{"co": {"Y": -1.0, "X": 1.0}, "interpolation": 2}]}, "end": 10.0, "crop_height": {"Points": [{"co": {"Y": -1.0, "X": 1.0}, "interpolation": 2}]}, "rotation": {"Points": [{"co": {"Y": 0.0, "X": 1.0}, "interpolation": 2}]}, "scale_x": {"Points": [{"co": {"Y": 1.0, "X": 1.0}, "interpolation": 2}]}, "perspective_c1_y": {"Points": [{"co": {"Y": -1.0, "X": 1.0}, "interpolation": 2}]}, "crop_width": {"Points": [{"co": {"Y": -1.0, "X": 1.0}, "interpolation": 2}]}, "perspective_c4_y": {"Points": [{"co": {"Y": -1.0, "X": 1.0}, "interpolation": 2}]}, "volume": {"Points": [{"co": {"Y": 1.0, "X": 1.0}, "interpolation": 2}]}, "scale_y": {"Points": [{"co": {"Y": 1.0, "X": 1.0}, "interpolation": 2}]}, "has_video": {"Points": [{"co": {"Y": -1.0, "X": 1.0}, "interpolation": 2}]}, "perspective_c3_x": {"Points": [{"co": {"Y": -1.0, "X": 1.0}, "interpolation": 2}]}, "location_x": {"Points": [{"co": {"Y": 0.0, "X": 1.0}, "interpolation": 2}]}, "position": 214.9, "duration": 86400.0, "reader": {"pixel_format": -1, "audio_timebase": {"num": 1, "den": 1}, "pixel_ratio": {"num": 1, "den": 1}, "video_bit_rate": 0, "channels": 0, "video_stream_index": -1, "interlaced_frame": false, "audio_stream_index": -1, "display_ratio": {"num": 40, "den": 23}, "has_single_image": true, "top_field_first": true, "vcodec": "", "video_length": "2592000", "height": 1104, "channel_layout": 4, "fps": {"num": 30, "den": 1}, "audio_bit_rate": 0, "acodec": "", "type": "QtImageReader", "has_video": true, "file_size": "8478720", "path": "/home/milind/Data/Projects/CTTdemo/assets/ILUG-MSG.svg", "duration": 86400.0, "video_timebase": {"num": 1, "den": 30}, "has_audio": false, "sample_rate": 0, "width": 1920}, "has_audio": {"Points": [{"co": {"Y": -1.0, "X": 1.0}, "interpolation": 2}]}, "crop_y": {"Points": [{"co": {"Y": 0.0, "X": 1.0}, "interpolation": 2}]}, "waveform": false}, "type": "update", "key": ["clips", {"id": "7V7DJEYZZY"}], "value": {"image": "/home/milind/.openshot_qt/thumbnail/YB8WHQZUJE.png", "layer": 4, "position": 237.73333333333335, "end": 10, "id": "7V7DJEYZZY", "start": 0}, "partial": false}, {"old_values": {"channel_mapping": {"Points": [{"co": {"Y": -1.0, "X": 1.0}, "interpolation": 2}]}, "location_x": {"Points": [{"co": {"Y": 0.0, "X": 1.0}, "interpolation": 2}]}, "alpha": {"Points": [{"co": {"Y": 1.0, "X": 1.0}, "interpolation": 2}]}, "location_y": {"Points": [{"co": {"Y": 0.0, "X": 1.0}, "interpolation": 2}]}, "rotation": {"Points": [{"co": {"Y": 0.0, "X": 1.0}, "interpolation": 2}]}, "layer": 4, "id": "O3BG0Y7CKW", "gravity": 4, "perspective_c1_x": {"Points": [{"co": {"Y": -1.0, "X": 1.0}, "interpolation": 2}]}, "scale": 1, "waveform": false, "perspective_c2_x": {"Points": [{"co": {"Y": -1.0, "X": 1.0}, "interpolation": 2}]}, "image": "/home/milind/.openshot_qt/thumbnail/7WISDFXLOD.png", "effects": [], "perspective_c4_x": {"Points": [{"co": {"Y": -1.0, "X": 1.0}, "interpolation": 2}]}, "title": "closing.svg", "shear_y": {"Points": [{"co": {"Y": 0.0, "X": 1.0}, "interpolation": 2}]}, "file_id": "7WISDFXLOD", "shear_x": {"Points": [{"co": {"Y": 0.0, "X": 1.0}, "interpolation": 2}]}, "channel_filter": {"Points": [{"co": {"Y": -1.0, "X": 1.0}, "interpolation": 2}]}, "wave_color": {"blue": {"Points": [{"co": {"Y": 255.0, "X": 1.0}, "interpolation": 0, "handle_right": {"Y": 0.0, "X": 0.5}, "handle_left": {"Y": 1.0, "X": 0.5}, "handle_type": 0}]}, "red": {"Points": [{"co": {"Y": 0.0, "X": 1.0}, "interpolation": 0, "handle_right": {"Y": 0.0, "X": 0.5}, "handle_left": {"Y": 1.0, "X": 0.5}, "handle_type": 0}]}, "green": {"Points": [{"co": {"Y": 123.0, "X": 1.0}, "interpolation": 0, "handle_right": {"Y": 0.0, "X": 0.5}, "handle_left": {"Y": 1.0, "X": 0.5}, "handle_type": 0}]}, "alpha": {"Points": [{"co": {"Y": 255.0, "X": 1.0}, "interpolation": 0, "handle_right": {"Y": 0.0, "X": 0.5}, "handle_left": {"Y": 1.0, "X": 0.5}, "handle_type": 0}]}}, "display": 0, "time": {"Points": [{"co": {"Y": 1.0, "X": 1.0}, "interpolation": 2}]}, "crop_x": {"Points": [{"co": {"Y": 0.0, "X": 1.0}, "interpolation": 2}]}, "perspective_c2_y": {"Points": [{"co": {"Y": -1.0, "X": 1.0}, "interpolation": 2}]}, "end": 10, "crop_height": {"Points": [{"co": {"Y": -1.0, "X": 1.0}, "interpolation": 2}]}, "anchor": 0, "start": 0, "scale_x": {"Points": [{"co": {"Y": 1.0, "X": 1.0}, "interpolation": 2}]}, "perspective_c1_y": {"Points": [{"co": {"Y": -1.0, "X": 1.0}, "interpolation": 2}]}, "crop_width": {"Points": [{"co": {"Y": -1.0, "X": 1.0}, "interpolation": 2}]}, "perspective_c4_y": {"Points": [{"co": {"Y": -1.0, "X": 1.0}, "interpolation": 2}]}, "volume": {"Points": [{"co": {"Y": 1.0, "X": 1.0}, "interpolation": 2}]}, "scale_y": {"Points": [{"co": {"Y": 1.0, "X": 1.0}, "interpolation": 2}]}, "crop_y": {"Points": [{"co": {"Y": 0.0, "X": 1.0}, "interpolation": 2}]}, "perspective_c3_x": {"Points": [{"co": {"Y": -1.0, "X": 1.0}, "interpolation": 2}]}, "position": 217.73333333333335, "duration": 86400.0, "reader": {"pixel_format": -1, "audio_timebase": {"num": 1, "den": 1}, "pixel_ratio": {"num": 1, "den": 1}, "video_bit_rate": 0, "channels": 0, "video_stream_index": -1, "interlaced_frame": false, "audio_stream_index": -1, "display_ratio": {"num": 40, "den": 23}, "has_single_image": true, "top_field_first": true, "vcodec": "", "video_length": "2592000", "height": 1104, "channel_layout": 4, "fps": {"num": 30, "den": 1}, "audio_bit_rate": 0, "acodec": "", "type": "QtImageReader", "has_video": true, "file_size": "8478720", "path": "/home/milind/Data/Projects/CTTdemo/assets/closing.svg", "duration": 86400.0, "video_timebase": {"num": 1, "den": 30}, "has_audio": false, "sample_rate": 0, "width": 1920}, "has_audio": {"Points": [{"co": {"Y": -1.0, "X": 1.0}, "interpolation": 2}]}, "perspective_c3_y": {"Points": [{"co": {"Y": -1.0, "X": 1.0}, "interpolation": 2}]}, "has_video": {"Points": [{"co": {"Y": -1.0, "X": 1.0}, "interpolation": 2}]}}, "type": "update", "key": ["clips", {"id": "O3BG0Y7CKW"}], "value": {"channel_mapping": {"Points": [{"co": {"Y": -1.0, "X": 1.0}, "interpolation": 2}]}, "location_x": {"Points": [{"co": {"Y": 0.0, "X": 1.0}, "interpolation": 2}]}, "alpha": {"Points": [{"co": {"Y": 1.0, "X": 1.0}, "interpolation": 2}, {"co": {"Y": 0.0, "X": 1.0}, "interpolation": 0, "handle_right": {"Y": 0.0, "X": 0.5}, "handle_left": {"Y": 1.0, "X": 0.5}, "handle_type": 0}, {"co": {"Y": 1.0, "X": 73.0}, "interpolation": 0, "handle_right": {"Y": 0.0, "X": 0.5}, "handle_left": {"Y": 1.0, "X": 0.5}, "handle_type": 0}]}, "location_y": {"Points": [{"co": {"Y": 0.0, "X": 1.0}, "interpolation": 2}]}, "rotation": {"Points": [{"co": {"Y": 0.0, "X": 1.0}, "interpolation": 2}]}, "layer": 4, "id": "O3BG0Y7CKW", "gravity": 4, "perspective_c1_x": {"Points": [{"co": {"Y": -1.0, "X": 1.0}, "interpolation": 2}]}, "scale": 1, "perspective_c2_x": {"Points": [{"co": {"Y": -1.0, "X": 1.0}, "interpolation": 2}]}, "image": "/home/milind/.openshot_qt/thumbnail/7WISDFXLOD.png", "effects": [], "perspective_c4_x": {"Points": [{"co": {"Y": -1.0, "X": 1.0}, "interpolation": 2}]}, "title": "closing.svg", "shear_y": {"Points": [{"co": {"Y": 0.0, "X": 1.0}, "interpolation": 2}]}, "file_id": "7WISDFXLOD", "shear_x": {"Points": [{"co": {"Y": 0.0, "X": 1.0}, "interpolation": 2}]}, "channel_filter": {"Points": [{"co": {"Y": -1.0, "X": 1.0}, "interpolation": 2}]}, "wave_color": {"blue": {"Points": [{"co": {"Y": 255.0, "X": 1.0}, "interpolation": 0, "handle_right": {"Y": 0.0, "X": 0.5}, "handle_left": {"Y": 1.0, "X": 0.5}, "handle_type": 0}]}, "red": {"Points": [{"co": {"Y": 0.0, "X": 1.0}, "interpolation": 0, "handle_right": {"Y": 0.0, "X": 0.5}, "handle_left": {"Y": 1.0, "X": 0.5}, "handle_type": 0}]}, "green": {"Points": [{"co": {"Y": 123.0, "X": 1.0}, "interpolation": 0, "handle_right": {"Y": 0.0, "X": 0.5}, "handle_left": {"Y": 1.0, "X": 0.5}, "handle_type": 0}]}, "alpha": {"Points": [{"co": {"Y": 255.0, "X": 1.0}, "interpolation": 0, "handle_right": {"Y": 0.0, "X": 0.5}, "handle_left": {"Y": 1.0, "X": 0.5}, "handle_type": 0}]}}, "display": 0, "time": {"Points": [{"co": {"Y": 1.0, "X": 1.0}, "interpolation": 2}]}, "crop_x": {"Points": [{"co": {"Y": 0.0, "X": 1.0}, "interpolation": 2}]}, "perspective_c2_y": {"Points": [{"co": {"Y": -1.0, "X": 1.0}, "interpolation": 2}]}, "end": 10, "crop_height": {"Points": [{"co": {"Y": -1.0, "X": 1.0}, "interpolation": 2}]}, "anchor": 0, "start": 0, "scale_x": {"Points": [{"co": {"Y": 1.0, "X": 1.0}, "interpolation": 2}]}, "perspective_c1_y": {"Points": [{"co": {"Y": -1.0, "X": 1.0}, "interpolation": 2}]}, "crop_width": {"Points": [{"co": {"Y": -1.0, "X": 1.0}, "interpolation": 2}]}, "perspective_c4_y": {"Points": [{"co": {"Y": -1.0, "X": 1.0}, "interpolation": 2}]}, "volume": {"Points": [{"co": {"Y": 1.0, "X": 1.0}, "interpolation": 2}]}, "scale_y": {"Points": [{"co": {"Y": 1.0, "X": 1.0}, "interpolation": 2}]}, "crop_y": {"Points": [{"co": {"Y": 0.0, "X": 1.0}, "interpolation": 2}]}, "perspective_c3_x": {"Points": [{"co": {"Y": -1.0, "X": 1.0}, "interpolation": 2}]}, "position": 217.73333333333335, "duration": 86400.0, "waveform": false, "has_audio": {"Points": [{"co": {"Y": -1.0, "X": 1.0}, "interpolation": 2}]}, "perspective_c3_y": {"Points": [{"co": {"Y": -1.0, "X": 1.0}, "interpolation": 2}]}, "has_video": {"Points": [{"co": {"Y": -1.0, "X": 1.0}, "interpolation": 2}]}}, "partial": false}, {"old_values": {"channel_mapping": {"Points": [{"co": {"Y": -1.0, "X": 1.0}, "interpolation": 2}]}, "location_x": {"Points": [{"co": {"Y": 0.0, "X": 1.0}, "interpolation": 2}]}, "alpha": {"Points": [{"co": {"Y": 1.0, "X": 1.0}, "interpolation": 2}, {"co": {"Y": 0.0, "X": 1.0}, "interpolation": 0, "handle_right": {"Y": 0.0, "X": 0.5}, "handle_left": {"Y": 1.0, "X": 0.5}, "handle_type": 0}, {"co": {"Y": 1.0, "X": 73.0}, "interpolation": 0, "handle_right": {"Y": 0.0, "X": 0.5}, "handle_left": {"Y": 1.0, "X": 0.5}, "handle_type": 0}]}, "location_y": {"Points": [{"co": {"Y": 0.0, "X": 1.0}, "interpolation": 2}]}, "rotation": {"Points": [{"co": {"Y": 0.0, "X": 1.0}, "interpolation": 2}]}, "layer": 4, "id": "O3BG0Y7CKW", "gravity": 4, "perspective_c1_x": {"Points": [{"co": {"Y": -1.0, "X": 1.0}, "interpolation": 2}]}, "scale": 1, "waveform": false, "perspective_c2_x": {"Points": [{"co": {"Y": -1.0, "X": 1.0}, "interpolation": 2}]}, "image": "/home/milind/.openshot_qt/thumbnail/7WISDFXLOD.png", "effects": [], "perspective_c4_x": {"Points": [{"co": {"Y": -1.0, "X": 1.0}, "interpolation": 2}]}, "title": "closing.svg", "shear_y": {"Points": [{"co": {"Y": 0.0, "X": 1.0}, "interpolation": 2}]}, "file_id": "7WISDFXLOD", "shear_x": {"Points": [{"co": {"Y": 0.0, "X": 1.0}, "interpolation": 2}]}, "channel_filter": {"Points": [{"co": {"Y": -1.0, "X": 1.0}, "interpolation": 2}]}, "wave_color": {"blue": {"Points": [{"co": {"Y": 255.0, "X": 1.0}, "interpolation": 0, "handle_right": {"Y": 0.0, "X": 0.5}, "handle_left": {"Y": 1.0, "X": 0.5}, "handle_type": 0}]}, "red": {"Points": [{"co": {"Y": 0.0, "X": 1.0}, "interpolation": 0, "handle_right": {"Y": 0.0, "X": 0.5}, "handle_left": {"Y": 1.0, "X": 0.5}, "handle_type": 0}]}, "green": {"Points": [{"co": {"Y": 123.0, "X": 1.0}, "interpolation": 0, "handle_right": {"Y": 0.0, "X": 0.5}, "handle_left": {"Y": 1.0, "X": 0.5}, "handle_type": 0}]}, "alpha": {"Points": [{"co": {"Y": 255.0, "X": 1.0}, "interpolation": 0, "handle_right": {"Y": 0.0, "X": 0.5}, "handle_left": {"Y": 1.0, "X": 0.5}, "handle_type": 0}]}}, "display": 0, "time": {"Points": [{"co": {"Y": 1.0, "X": 1.0}, "interpolation": 2}]}, "crop_x": {"Points": [{"co": {"Y": 0.0, "X": 1.0}, "interpolation": 2}]}, "perspective_c2_y": {"Points": [{"co": {"Y": -1.0, "X": 1.0}, "interpolation": 2}]}, "end": 10, "crop_height": {"Points": [{"co": {"Y": -1.0, "X": 1.0}, "interpolation": 2}]}, "anchor": 0, "start": 0, "scale_x": {"Points": [{"co": {"Y": 1.0, "X": 1.0}, "interpolation": 2}]}, "perspective_c1_y": {"Points": [{"co": {"Y": -1.0, "X": 1.0}, "interpolation": 2}]}, "crop_width": {"Points": [{"co": {"Y": -1.0, "X": 1.0}, "interpolation": 2}]}, "perspective_c4_y": {"Points": [{"co": {"Y": -1.0, "X": 1.0}, "interpolation": 2}]}, "volume": {"Points": [{"co": {"Y": 1.0, "X": 1.0}, "interpolation": 2}]}, "scale_y": {"Points": [{"co": {"Y": 1.0, "X": 1.0}, "interpolation": 2}]}, "crop_y": {"Points": [{"co": {"Y": 0.0, "X": 1.0}, "interpolation": 2}]}, "perspective_c3_x": {"Points": [{"co": {"Y": -1.0, "X": 1.0}, "interpolation": 2}]}, "position": 217.73333333333335, "duration": 86400.0, "reader": {"pixel_format": -1, "audio_timebase": {"num": 1, "den": 1}, "pixel_ratio": {"num": 1, "den": 1}, "video_bit_rate": 0, "channels": 0, "video_stream_index": -1, "interlaced_frame": false, "audio_stream_index": -1, "display_ratio": {"num": 40, "den": 23}, "has_single_image": true, "top_field_first": true, "vcodec": "", "video_length": "2592000", "height": 1104, "channel_layout": 4, "fps": {"num": 30, "den": 1}, "audio_bit_rate": 0, "acodec": "", "type": "QtImageReader", "has_video": true, "file_size": "8478720", "path": "/home/milind/Data/Projects/CTTdemo/assets/closing.svg", "duration": 86400.0, "video_timebase": {"num": 1, "den": 30}, "has_audio": false, "sample_rate": 0, "width": 1920}, "has_audio": {"Points": [{"co": {"Y": -1.0, "X": 1.0}, "interpolation": 2}]}, "perspective_c3_y": {"Points": [{"co": {"Y": -1.0, "X": 1.0}, "interpolation": 2}]}, "has_video": {"Points": [{"co": {"Y": -1.0, "X": 1.0}, "interpolation": 2}]}}, "type": "update", "key": ["clips", {"id": "O3BG0Y7CKW"}], "value": {"channel_mapping": {"Points": [{"co": {"Y": -1.0, "X": 1.0}, "interpolation": 2}]}, "location_x": {"Points": [{"co": {"Y": 0.0, "X": 1.0}, "interpolation": 2}, {"co": {"Y": 0.0, "X": 1.0}, "interpolation": 0, "handle_right": {"Y": 0.0, "X": 0.5}, "handle_left": {"Y": 1.0, "X": 0.5}, "handle_type": 0}, {"co": {"Y": 0.0, "X": 241.0}, "interpolation": 0, "handle_right": {"Y": 0.0, "X": 0.5}, "handle_left": {"Y": 1.0, "X": 0.5}, "handle_type": 0}]}, "alpha": {"Points": [{"co": {"Y": 1.0, "X": 1.0}, "interpolation": 2}, {"co": {"Y": 0.0, "X": 1.0}, "interpolation": 0, "handle_right": {"Y": 0.0, "X": 0.5}, "handle_left": {"Y": 1.0, "X": 0.5}, "handle_type": 0}, {"co": {"Y": 1.0, "X": 73.0}, "interpolation": 0, "handle_right": {"Y": 0.0, "X": 0.5}, "handle_left": {"Y": 1.0, "X": 0.5}, "handle_type": 0}]}, "location_y": {"Points": [{"co": {"Y": 0.0, "X": 1.0}, "interpolation": 2}, {"co": {"Y": 1.0, "X": 1.0}, "interpolation": 0, "handle_right": {"Y": 0.0, "X": 0.5}, "handle_left": {"Y": 1.0, "X": 0.5}, "handle_type": 0}, {"co": {"Y": 0.0, "X": 241.0}, "interpolation": 0, "handle_right": {"Y": 0.0, "X": 0.5}, "handle_left": {"Y": 1.0, "X": 0.5}, "handle_type": 0}]}, "rotation": {"Points": [{"co": {"Y": 0.0, "X": 1.0}, "interpolation": 2}]}, "layer": 4, "id": "O3BG0Y7CKW", "gravity": 4, "perspective_c1_x": {"Points": [{"co": {"Y": -1.0, "X": 1.0}, "interpolation": 2}]}, "scale": 1, "perspective_c2_x": {"Points": [{"co": {"Y": -1.0, "X": 1.0}, "interpolation": 2}]}, "image": "/home/milind/.openshot_qt/thumbnail/7WISDFXLOD.png", "effects": [], "perspective_c4_x": {"Points": [{"co": {"Y": -1.0, "X": 1.0}, "interpolation": 2}]}, "title": "closing.svg", "shear_y": {"Points": [{"co": {"Y": 0.0, "X": 1.0}, "interpolation": 2}]}, "file_id": "7WISDFXLOD", "shear_x": {"Points": [{"co": {"Y": 0.0, "X": 1.0}, "interpolation": 2}]}, "channel_filter": {"Points": [{"co": {"Y": -1.0, "X": 1.0}, "interpolation": 2}]}, "wave_color": {"blue": {"Points": [{"co": {"Y": 255.0, "X": 1.0}, "interpolation": 0, "handle_right": {"Y": 0.0, "X": 0.5}, "handle_left": {"Y": 1.0, "X": 0.5}, "handle_type": 0}]}, "red": {"Points": [{"co": {"Y": 0.0, "X": 1.0}, "interpolation": 0, "handle_right": {"Y": 0.0, "X": 0.5}, "handle_left": {"Y": 1.0, "X": 0.5}, "handle_type": 0}]}, "green": {"Points": [{"co": {"Y": 123.0, "X": 1.0}, "interpolation": 0, "handle_right": {"Y": 0.0, "X": 0.5}, "handle_left": {"Y": 1.0, "X": 0.5}, "handle_type": 0}]}, "alpha": {"Points": [{"co": {"Y": 255.0, "X": 1.0}, "interpolation": 0, "handle_right": {"Y": 0.0, "X": 0.5}, "handle_left": {"Y": 1.0, "X": 0.5}, "handle_type": 0}]}}, "display": 0, "time": {"Points": [{"co": {"Y": 1.0, "X": 1.0}, "interpolation": 2}]}, "crop_x": {"Points": [{"co": {"Y": 0.0, "X": 1.0}, "interpolation": 2}]}, "perspective_c2_y": {"Points": [{"co": {"Y": -1.0, "X": 1.0}, "interpolation": 2}]}, "end": 10, "crop_height": {"Points": [{"co": {"Y": -1.0, "X": 1.0}, "interpolation": 2}]}, "anchor": 0, "start": 0, "scale_x": {"Points": [{"co": {"Y": 1.0, "X": 1.0}, "interpolation": 2}]}, "perspective_c1_y": {"Points": [{"co": {"Y": -1.0, "X": 1.0}, "interpolation": 2}]}, "crop_width": {"Points": [{"co": {"Y": -1.0, "X": 1.0}, "interpolation": 2}]}, "perspective_c4_y": {"Points": [{"co": {"Y": -1.0, "X": 1.0}, "interpolation": 2}]}, "volume": {"Points": [{"co": {"Y": 1.0, "X": 1.0}, "interpolation": 2}]}, "scale_y": {"Points": [{"co": {"Y": 1.0, "X": 1.0}, "interpolation": 2}]}, "crop_y": {"Points": [{"co": {"Y": 0.0, "X": 1.0}, "interpolation": 2}]}, "perspective_c3_x": {"Points": [{"co": {"Y": -1.0, "X": 1.0}, "interpolation": 2}]}, "position": 217.73333333333335, "duration": 86400.0, "waveform": false, "has_audio": {"Points": [{"co": {"Y": -1.0, "X": 1.0}, "interpolation": 2}]}, "perspective_c3_y": {"Points": [{"co": {"Y": -1.0, "X": 1.0}, "interpolation": 2}]}, "has_video": {"Points": [{"co": {"Y": -1.0, "X": 1.0}, "interpolation": 2}]}}, "partial": false}, {"old_values": {"channel_mapping": {"Points": [{"co": {"Y": -1.0, "X": 1.0}, "interpolation": 2}]}, "location_x": {"Points": [{"co": {"Y": 0.0, "X": 1.0}, "interpolation": 2}]}, "alpha": {"Points": [{"co": {"Y": 1.0, "X": 1.0}, "interpolation": 2}]}, "location_y": {"Points": [{"co": {"Y": 0.0, "X": 1.0}, "interpolation": 2}]}, "rotation": {"Points": [{"co": {"Y": 0.0, "X": 1.0}, "interpolation": 2}]}, "layer": 4, "id": "RBLMLKIP75", "gravity": 4, "perspective_c1_x": {"Points": [{"co": {"Y": -1.0, "X": 1.0}, "interpolation": 2}]}, "scale": 1, "waveform": false, "perspective_c2_x": {"Points": [{"co": {"Y": -1.0, "X": 1.0}, "interpolation": 2}]}, "image": "/home/milind/.openshot_qt/thumbnail/7WISDFXLOD.png", "effects": [], "perspective_c4_x": {"Points": [{"co": {"Y": -1.0, "X": 1.0}, "interpolation": 2}]}, "title": "closing.svg", "shear_y": {"Points": [{"co": {"Y": 0.0, "X": 1.0}, "interpolation": 2}]}, "file_id": "7WISDFXLOD", "shear_x": {"Points": [{"co": {"Y": 0.0, "X": 1.0}, "interpolation": 2}]}, "channel_filter": {"Points": [{"co": {"Y": -1.0, "X": 1.0}, "interpolation": 2}]}, "wave_color": {"blue": {"Points": [{"co": {"Y": 255.0, "X": 1.0}, "interpolation": 0, "handle_right": {"Y": 0.0, "X": 0.5}, "handle_left": {"Y": 1.0, "X": 0.5}, "handle_type": 0}]}, "red": {"Points": [{"co": {"Y": 0.0, "X": 1.0}, "interpolation": 0, "handle_right": {"Y": 0.0, "X": 0.5}, "handle_left": {"Y": 1.0, "X": 0.5}, "handle_type": 0}]}, "green": {"Points": [{"co": {"Y": 123.0, "X": 1.0}, "interpolation": 0, "handle_right": {"Y": 0.0, "X": 0.5}, "handle_left": {"Y": 1.0, "X": 0.5}, "handle_type": 0}]}, "alpha": {"Points": [{"co": {"Y": 255.0, "X": 1.0}, "interpolation": 0, "handle_right": {"Y": 0.0, "X": 0.5}, "handle_left": {"Y": 1.0, "X": 0.5}, "handle_type": 0}]}}, "display": 0, "time": {"Points": [{"co": {"Y": 1.0, "X": 1.0}, "interpolation": 2}]}, "crop_x": {"Points": [{"co": {"Y": 0.0, "X": 1.0}, "interpolation": 2}]}, "perspective_c2_y": {"Points": [{"co": {"Y": -1.0, "X": 1.0}, "interpolation": 2}]}, "end": 10, "crop_height": {"Points": [{"co": {"Y": -1.0, "X": 1.0}, "interpolation": 2}]}, "anchor": 0, "start": 0, "scale_x": {"Points": [{"co": {"Y": 1.0, "X": 1.0}, "interpolation": 2}]}, "perspective_c1_y": {"Points": [{"co": {"Y": -1.0, "X": 1.0}, "interpolation": 2}]}, "crop_width": {"Points": [{"co": {"Y": -1.0, "X": 1.0}, "interpolation": 2}]}, "perspective_c4_y": {"Points": [{"co": {"Y": -1.0, "X": 1.0}, "interpolation": 2}]}, "volume": {"Points": [{"co": {"Y": 1.0, "X": 1.0}, "interpolation": 2}]}, "scale_y": {"Points": [{"co": {"Y": 1.0, "X": 1.0}, "interpolation": 2}]}, "crop_y": {"Points": [{"co": {"Y": 0.0, "X": 1.0}, "interpolation": 2}]}, "perspective_c3_x": {"Points": [{"co": {"Y": -1.0, "X": 1.0}, "interpolation": 2}]}, "position": 227.73333333333335, "duration": 86400.0, "reader": {"pixel_format": -1, "audio_timebase": {"num": 1, "den": 1}, "pixel_ratio": {"num": 1, "den": 1}, "video_bit_rate": 0, "channels": 0, "video_stream_index": -1, "interlaced_frame": false, "audio_stream_index": -1, "display_ratio": {"num": 40, "den": 23}, "has_single_image": true, "top_field_first": true, "vcodec": "", "video_length": "2592000", "height": 1104, "channel_layout": 4, "fps": {"num": 30, "den": 1}, "audio_bit_rate": 0, "acodec": "", "type": "QtImageReader", "has_video": true, "file_size": "8478720", "path": "/home/milind/Data/Projects/CTTdemo/assets/closing.svg", "duration": 86400.0, "video_timebase": {"num": 1, "den": 30}, "has_audio": false, "sample_rate": 0, "width": 1920}, "has_audio": {"Points": [{"co": {"Y": -1.0, "X": 1.0}, "interpolation": 2}]}, "perspective_c3_y": {"Points": [{"co": {"Y": -1.0, "X": 1.0}, "interpolation": 2}]}, "has_video": {"Points": [{"co": {"Y": -1.0, "X": 1.0}, "interpolation": 2}]}}, "type": "update", "key": ["clips", {"id": "RBLMLKIP75"}], "value": {"channel_mapping": {"Points": [{"co": {"Y": -1.0, "X": 1.0}, "interpolation": 2}]}, "location_x": {"Points": [{"co": {"Y": 0.0, "X": 1.0}, "interpolation": 2}]}, "alpha": {"Points": [{"co": {"Y": 1.0, "X": 1.0}, "interpolation": 2}, {"co": {"Y": 1.0, "X": 169.0}, "interpolation": 0, "handle_right": {"Y": 0.0, "X": 0.5}, "handle_left": {"Y": 1.0, "X": 0.5}, "handle_type": 0}, {"co": {"Y": 0.0, "X": 241.0}, "interpolation": 0, "handle_right": {"Y": 0.0, "X": 0.5}, "handle_left": {"Y": 1.0, "X": 0.5}, "handle_type": 0}]}, "location_y": {"Points": [{"co": {"Y": 0.0, "X": 1.0}, "interpolation": 2}]}, "rotation": {"Points": [{"co": {"Y": 0.0, "X": 1.0}, "interpolation": 2}]}, "layer": 4, "id": "RBLMLKIP75", "gravity": 4, "perspective_c1_x": {"Points": [{"co": {"Y": -1.0, "X": 1.0}, "interpolation": 2}]}, "scale": 1, "perspective_c2_x": {"Points": [{"co": {"Y": -1.0, "X": 1.0}, "interpolation": 2}]}, "image": "/home/milind/.openshot_qt/thumbnail/7WISDFXLOD.png", "effects": [], "perspective_c4_x": {"Points": [{"co": {"Y": -1.0, "X": 1.0}, "interpolation": 2}]}, "title": "closing.svg", "shear_y": {"Points": [{"co": {"Y": 0.0, "X": 1.0}, "interpolation": 2}]}, "file_id": "7WISDFXLOD", "shear_x": {"Points": [{"co": {"Y": 0.0, "X": 1.0}, "interpolation": 2}]}, "channel_filter": {"Points": [{"co": {"Y": -1.0, "X": 1.0}, "interpolation": 2}]}, "wave_color": {"blue": {"Points": [{"co": {"Y": 255.0, "X": 1.0}, "interpolation": 0, "handle_right": {"Y": 0.0, "X": 0.5}, "handle_left": {"Y": 1.0, "X": 0.5}, "handle_type": 0}]}, "red": {"Points": [{"co": {"Y": 0.0, "X": 1.0}, "interpolation": 0, "handle_right": {"Y": 0.0, "X": 0.5}, "handle_left": {"Y": 1.0, "X": 0.5}, "handle_type": 0}]}, "green": {"Points": [{"co": {"Y": 123.0, "X": 1.0}, "interpolation": 0, "handle_right": {"Y": 0.0, "X": 0.5}, "handle_left": {"Y": 1.0, "X": 0.5}, "handle_type": 0}]}, "alpha": {"Points": [{"co": {"Y": 255.0, "X": 1.0}, "interpolation": 0, "handle_right": {"Y": 0.0, "X": 0.5}, "handle_left": {"Y": 1.0, "X": 0.5}, "handle_type": 0}]}}, "display": 0, "time": {"Points": [{"co": {"Y": 1.0, "X": 1.0}, "interpolation": 2}]}, "crop_x": {"Points": [{"co": {"Y": 0.0, "X": 1.0}, "interpolation": 2}]}, "perspective_c2_y": {"Points": [{"co": {"Y": -1.0, "X": 1.0}, "interpolation": 2}]}, "end": 10, "crop_height": {"Points": [{"co": {"Y": -1.0, "X": 1.0}, "interpolation": 2}]}, "anchor": 0, "start": 0, "scale_x": {"Points": [{"co": {"Y": 1.0, "X": 1.0}, "interpolation": 2}]}, "perspective_c1_y": {"Points": [{"co": {"Y": -1.0, "X": 1.0}, "interpolation": 2}]}, "crop_width": {"Points": [{"co": {"Y": -1.0, "X": 1.0}, "interpolation": 2}]}, "perspective_c4_y": {"Points": [{"co": {"Y": -1.0, "X": 1.0}, "interpolation": 2}]}, "volume": {"Points": [{"co": {"Y": 1.0, "X": 1.0}, "interpolation": 2}]}, "scale_y": {"Points": [{"co": {"Y": 1.0, "X": 1.0}, "interpolation": 2}]}, "crop_y": {"Points": [{"co": {"Y": 0.0, "X": 1.0}, "interpolation": 2}]}, "perspective_c3_x": {"Points": [{"co": {"Y": -1.0, "X": 1.0}, "interpolation": 2}]}, "position": 227.73333333333335, "duration": 86400.0, "waveform": false, "has_audio": {"Points": [{"co": {"Y": -1.0, "X": 1.0}, "interpolation": 2}]}, "perspective_c3_y": {"Points": [{"co": {"Y": -1.0, "X": 1.0}, "interpolation": 2}]}, "has_video": {"Points": [{"co": {"Y": -1.0, "X": 1.0}, "interpolation": 2}]}}, "partial": false}, {"old_values": {"channel_mapping": {"Points": [{"co": {"Y": -1.0, "X": 1.0}, "interpolation": 2}]}, "location_x": {"Points": [{"co": {"Y": 0.0, "X": 1.0}, "interpolation": 2}]}, "alpha": {"Points": [{"co": {"Y": 1.0, "X": 1.0}, "interpolation": 2}]}, "location_y": {"Points": [{"co": {"Y": 0.0, "X": 1.0}, "interpolation": 2}]}, "rotation": {"Points": [{"co": {"Y": 0.0, "X": 1.0}, "interpolation": 2}]}, "layer": 4, "id": "7V7DJEYZZY", "gravity": 4, "perspective_c1_x": {"Points": [{"co": {"Y": -1.0, "X": 1.0}, "interpolation": 2}]}, "scale": 1, "waveform": false, "perspective_c2_x": {"Points": [{"co": {"Y": -1.0, "X": 1.0}, "interpolation": 2}]}, "image": "/home/milind/.openshot_qt/thumbnail/YB8WHQZUJE.png", "effects": [], "perspective_c4_x": {"Points": [{"co": {"Y": -1.0, "X": 1.0}, "interpolation": 2}]}, "title": "ILUG-MSG.svg", "shear_y": {"Points": [{"co": {"Y": 0.0, "X": 1.0}, "interpolation": 2}]}, "file_id": "YB8WHQZUJE", "shear_x": {"Points": [{"co": {"Y": 0.0, "X": 1.0}, "interpolation": 2}]}, "channel_filter": {"Points": [{"co": {"Y": -1.0, "X": 1.0}, "interpolation": 2}]}, "wave_color": {"blue": {"Points": [{"co": {"Y": 255.0, "X": 1.0}, "interpolation": 0, "handle_right": {"Y": 0.0, "X": 0.5}, "handle_left": {"Y": 1.0, "X": 0.5}, "handle_type": 0}]}, "red": {"Points": [{"co": {"Y": 0.0, "X": 1.0}, "interpolation": 0, "handle_right": {"Y": 0.0, "X": 0.5}, "handle_left": {"Y": 1.0, "X": 0.5}, "handle_type": 0}]}, "green": {"Points": [{"co": {"Y": 123.0, "X": 1.0}, "interpolation": 0, "handle_right": {"Y": 0.0, "X": 0.5}, "handle_left": {"Y": 1.0, "X": 0.5}, "handle_type": 0}]}, "alpha": {"Points": [{"co": {"Y": 255.0, "X": 1.0}, "interpolation": 0, "handle_right": {"Y": 0.0, "X": 0.5}, "handle_left": {"Y": 1.0, "X": 0.5}, "handle_type": 0}]}}, "display": 0, "time": {"Points": [{"co": {"Y": 1.0, "X": 1.0}, "interpolation": 2}]}, "crop_x": {"Points": [{"co": {"Y": 0.0, "X": 1.0}, "interpolation": 2}]}, "perspective_c2_y": {"Points": [{"co": {"Y": -1.0, "X": 1.0}, "interpolation": 2}]}, "end": 10, "crop_height": {"Points": [{"co": {"Y": -1.0, "X": 1.0}, "interpolation": 2}]}, "anchor": 0, "start": 0, "scale_x": {"Points": [{"co": {"Y": 1.0, "X": 1.0}, "interpolation": 2}]}, "perspective_c1_y": {"Points": [{"co": {"Y": -1.0, "X": 1.0}, "interpolation": 2}]}, "crop_width": {"Points": [{"co": {"Y": -1.0, "X": 1.0}, "interpolation": 2}]}, "perspective_c4_y": {"Points": [{"co": {"Y": -1.0, "X": 1.0}, "interpolation": 2}]}, "volume": {"Points": [{"co": {"Y": 1.0, "X": 1.0}, "interpolation": 2}]}, "scale_y": {"Points": [{"co": {"Y": 1.0, "X": 1.0}, "interpolation": 2}]}, "crop_y": {"Points": [{"co": {"Y": 0.0, "X": 1.0}, "interpolation": 2}]}, "perspective_c3_x": {"Points": [{"co": {"Y": -1.0, "X": 1.0}, "interpolation": 2}]}, "position": 237.73333333333335, "duration": 86400.0, "reader": {"pixel_format": -1, "audio_timebase": {"num": 1, "den": 1}, "pixel_ratio": {"num": 1, "den": 1}, "video_bit_rate": 0, "channels": 0, "video_stream_index": -1, "interlaced_frame": false, "audio_stream_index": -1, "display_ratio": {"num": 40, "den": 23}, "has_single_image": true, "top_field_first": true, "vcodec": "", "video_length": "2592000", "height": 1104, "channel_layout": 4, "fps": {"num": 30, "den": 1}, "audio_bit_rate": 0, "acodec": "", "type": "QtImageReader", "has_video": true, "file_size": "8478720", "path": "/home/milind/Data/Projects/CTTdemo/assets/ILUG-MSG.svg", "duration": 86400.0, "video_timebase": {"num": 1, "den": 30}, "has_audio": false, "sample_rate": 0, "width": 1920}, "has_audio": {"Points": [{"co": {"Y": -1.0, "X": 1.0}, "interpolation": 2}]}, "perspective_c3_y": {"Points": [{"co": {"Y": -1.0, "X": 1.0}, "interpolation": 2}]}, "has_video": {"Points": [{"co": {"Y": -1.0, "X": 1.0}, "interpolation": 2}]}}, "type": "update", "key": ["clips", {"id": "7V7DJEYZZY"}], "value": {"channel_mapping": {"Points": [{"co": {"Y": -1.0, "X": 1.0}, "interpolation": 2}]}, "location_x": {"Points": [{"co": {"Y": 0.0, "X": 1.0}, "interpolation": 2}]}, "alpha": {"Points": [{"co": {"Y": 1.0, "X": 1.0}, "interpolation": 2}, {"co": {"Y": 0.0, "X": 1.0}, "interpolation": 0, "handle_right": {"Y": 0.0, "X": 0.5}, "handle_left": {"Y": 1.0, "X": 0.5}, "handle_type": 0}, {"co": {"Y": 1.0, "X": 73.0}, "interpolation": 0, "handle_right": {"Y": 0.0, "X": 0.5}, "handle_left": {"Y": 1.0, "X": 0.5}, "handle_type": 0}]}, "location_y": {"Points": [{"co": {"Y": 0.0, "X": 1.0}, "interpolation": 2}]}, "rotation": {"Points": [{"co": {"Y": 0.0, "X": 1.0}, "interpolation": 2}]}, "layer": 4, "id": "7V7DJEYZZY", "gravity": 4, "perspective_c1_x": {"Points": [{"co": {"Y": -1.0, "X": 1.0}, "interpolation": 2}]}, "scale": 1, "perspective_c2_x": {"Points": [{"co": {"Y": -1.0, "X": 1.0}, "interpolation": 2}]}, "image": "/home/milind/.openshot_qt/thumbnail/YB8WHQZUJE.png", "effects": [], "perspective_c4_x": {"Points": [{"co": {"Y": -1.0, "X": 1.0}, "interpolation": 2}]}, "title": "ILUG-MSG.svg", "shear_y": {"Points": [{"co": {"Y": 0.0, "X": 1.0}, "interpolation": 2}]}, "file_id": "YB8WHQZUJE", "shear_x": {"Points": [{"co": {"Y": 0.0, "X": 1.0}, "interpolation": 2}]}, "channel_filter": {"Points": [{"co": {"Y": -1.0, "X": 1.0}, "interpolation": 2}]}, "wave_color": {"blue": {"Points": [{"co": {"Y": 255.0, "X": 1.0}, "interpolation": 0, "handle_right": {"Y": 0.0, "X": 0.5}, "handle_left": {"Y": 1.0, "X": 0.5}, "handle_type": 0}]}, "red": {"Points": [{"co": {"Y": 0.0, "X": 1.0}, "interpolation": 0, "handle_right": {"Y": 0.0, "X": 0.5}, "handle_left": {"Y": 1.0, "X": 0.5}, "handle_type": 0}]}, "green": {"Points": [{"co": {"Y": 123.0, "X": 1.0}, "interpolation": 0, "handle_right": {"Y": 0.0, "X": 0.5}, "handle_left": {"Y": 1.0, "X": 0.5}, "handle_type": 0}]}, "alpha": {"Points": [{"co": {"Y": 255.0, "X": 1.0}, "interpolation": 0, "handle_right": {"Y": 0.0, "X": 0.5}, "handle_left": {"Y": 1.0, "X": 0.5}, "handle_type": 0}]}}, "display": 0, "time": {"Points": [{"co": {"Y": 1.0, "X": 1.0}, "interpolation": 2}]}, "crop_x": {"Points": [{"co": {"Y": 0.0, "X": 1.0}, "interpolation": 2}]}, "perspective_c2_y": {"Points": [{"co": {"Y": -1.0, "X": 1.0}, "interpolation": 2}]}, "end": 10, "crop_height": {"Points": [{"co": {"Y": -1.0, "X": 1.0}, "interpolation": 2}]}, "anchor": 0, "start": 0, "scale_x": {"Points": [{"co": {"Y": 1.0, "X": 1.0}, "interpolation": 2}]}, "perspective_c1_y": {"Points": [{"co": {"Y": -1.0, "X": 1.0}, "interpolation": 2}]}, "crop_width": {"Points": [{"co": {"Y": -1.0, "X": 1.0}, "interpolation": 2}]}, "perspective_c4_y": {"Points": [{"co": {"Y": -1.0, "X": 1.0}, "interpolation": 2}]}, "volume": {"Points": [{"co": {"Y": 1.0, "X": 1.0}, "interpolation": 2}]}, "scale_y": {"Points": [{"co": {"Y": 1.0, "X": 1.0}, "interpolation": 2}]}, "crop_y": {"Points": [{"co": {"Y": 0.0, "X": 1.0}, "interpolation": 2}]}, "perspective_c3_x": {"Points": [{"co": {"Y": -1.0, "X": 1.0}, "interpolation": 2}]}, "position": 237.73333333333335, "duration": 86400.0, "waveform": false, "has_audio": {"Points": [{"co": {"Y": -1.0, "X": 1.0}, "interpolation": 2}]}, "perspective_c3_y": {"Points": [{"co": {"Y": -1.0, "X": 1.0}, "interpolation": 2}]}, "has_video": {"Points": [{"co": {"Y": -1.0, "X": 1.0}, "interpolation": 2}]}}, "partial": false}, {"old_values": {"channel_mapping": {"Points": [{"co": {"Y": -1.0, "X": 1.0}, "interpolation": 2}]}, "location_x": {"Points": [{"co": {"Y": 0.0, "X": 1.0}, "interpolation": 2}]}, "alpha": {"Points": [{"co": {"Y": 1.0, "X": 1.0}, "interpolation": 2}, {"co": {"Y": 0.0, "X": 1.0}, "interpolation": 0, "handle_right": {"Y": 0.0, "X": 0.5}, "handle_left": {"Y": 1.0, "X": 0.5}, "handle_type": 0}, {"co": {"Y": 1.0, "X": 73.0}, "interpolation": 0, "handle_right": {"Y": 0.0, "X": 0.5}, "handle_left": {"Y": 1.0, "X": 0.5}, "handle_type": 0}]}, "location_y": {"Points": [{"co": {"Y": 0.0, "X": 1.0}, "interpolation": 2}]}, "rotation": {"Points": [{"co": {"Y": 0.0, "X": 1.0}, "interpolation": 2}]}, "layer": 4, "id": "7V7DJEYZZY", "gravity": 4, "perspective_c1_x": {"Points": [{"co": {"Y": -1.0, "X": 1.0}, "interpolation": 2}]}, "scale": 1, "waveform": false, "perspective_c2_x": {"Points": [{"co": {"Y": -1.0, "X": 1.0}, "interpolation": 2}]}, "image": "/home/milind/.openshot_qt/thumbnail/YB8WHQZUJE.png", "effects": [], "perspective_c4_x": {"Points": [{"co": {"Y": -1.0, "X": 1.0}, "interpolation": 2}]}, "title": "ILUG-MSG.svg", "shear_y": {"Points": [{"co": {"Y": 0.0, "X": 1.0}, "interpolation": 2}]}, "file_id": "YB8WHQZUJE", "shear_x": {"Points": [{"co": {"Y": 0.0, "X": 1.0}, "interpolation": 2}]}, "channel_filter": {"Points": [{"co": {"Y": -1.0, "X": 1.0}, "interpolation": 2}]}, "wave_color": {"blue": {"Points": [{"co": {"Y": 255.0, "X": 1.0}, "interpolation": 0, "handle_right": {"Y": 0.0, "X": 0.5}, "handle_left": {"Y": 1.0, "X": 0.5}, "handle_type": 0}]}, "red": {"Points": [{"co": {"Y": 0.0, "X": 1.0}, "interpolation": 0, "handle_right": {"Y": 0.0, "X": 0.5}, "handle_left": {"Y": 1.0, "X": 0.5}, "handle_type": 0}]}, "green": {"Points": [{"co": {"Y": 123.0, "X": 1.0}, "interpolation": 0, "handle_right": {"Y": 0.0, "X": 0.5}, "handle_left": {"Y": 1.0, "X": 0.5}, "handle_type": 0}]}, "alpha": {"Points": [{"co": {"Y": 255.0, "X": 1.0}, "interpolation": 0, "handle_right": {"Y": 0.0, "X": 0.5}, "handle_left": {"Y": 1.0, "X": 0.5}, "handle_type": 0}]}}, "display": 0, "time": {"Points": [{"co": {"Y": 1.0, "X": 1.0}, "interpolation": 2}]}, "crop_x": {"Points": [{"co": {"Y": 0.0, "X": 1.0}, "interpolation": 2}]}, "perspective_c2_y": {"Points": [{"co": {"Y": -1.0, "X": 1.0}, "interpolation": 2}]}, "end": 10, "crop_height": {"Points": [{"co": {"Y": -1.0, "X": 1.0}, "interpolation": 2}]}, "anchor": 0, "start": 0, "scale_x": {"Points": [{"co": {"Y": 1.0, "X": 1.0}, "interpolation": 2}]}, "perspective_c1_y": {"Points": [{"co": {"Y": -1.0, "X": 1.0}, "interpolation": 2}]}, "crop_width": {"Points": [{"co": {"Y": -1.0, "X": 1.0}, "interpolation": 2}]}, "perspective_c4_y": {"Points": [{"co": {"Y": -1.0, "X": 1.0}, "interpolation": 2}]}, "volume": {"Points": [{"co": {"Y": 1.0, "X": 1.0}, "interpolation": 2}]}, "scale_y": {"Points": [{"co": {"Y": 1.0, "X": 1.0}, "interpolation": 2}]}, "crop_y": {"Points": [{"co": {"Y": 0.0, "X": 1.0}, "interpolation": 2}]}, "perspective_c3_x": {"Points": [{"co": {"Y": -1.0, "X": 1.0}, "interpolation": 2}]}, "position": 237.73333333333335, "duration": 86400.0, "reader": {"pixel_format": -1, "audio_timebase": {"num": 1, "den": 1}, "pixel_ratio": {"num": 1, "den": 1}, "video_bit_rate": 0, "channels": 0, "video_stream_index": -1, "interlaced_frame": false, "audio_stream_index": -1, "display_ratio": {"num": 40, "den": 23}, "has_single_image": true, "top_field_first": true, "vcodec": "", "video_length": "2592000", "height": 1104, "channel_layout": 4, "fps": {"num": 30, "den": 1}, "audio_bit_rate": 0, "acodec": "", "type": "QtImageReader", "has_video": true, "file_size": "8478720", "path": "/home/milind/Data/Projects/CTTdemo/assets/ILUG-MSG.svg", "duration": 86400.0, "video_timebase": {"num": 1, "den": 30}, "has_audio": false, "sample_rate": 0, "width": 1920}, "has_audio": {"Points": [{"co": {"Y": -1.0, "X": 1.0}, "interpolation": 2}]}, "perspective_c3_y": {"Points": [{"co": {"Y": -1.0, "X": 1.0}, "interpolation": 2}]}, "has_video": {"Points": [{"co": {"Y": -1.0, "X": 1.0}, "interpolation": 2}]}}, "type": "update", "key": ["clips", {"id": "7V7DJEYZZY"}], "value": {"channel_mapping": {"Points": [{"co": {"Y": -1.0, "X": 1.0}, "interpolation": 2}]}, "location_x": {"Points": [{"co": {"Y": 0.0, "X": 1.0}, "interpolation": 2}]}, "alpha": {"Points": [{"co": {"Y": 1.0, "X": 1.0}, "interpolation": 2}, {"co": {"Y": 0.0, "X": 1.0}, "interpolation": 0, "handle_right": {"Y": 0.0, "X": 0.5}, "handle_left": {"Y": 1.0, "X": 0.5}, "handle_type": 0}, {"co": {"Y": 1.0, "X": 73.0}, "interpolation": 0, "handle_right": {"Y": 0.0, "X": 0.5}, "handle_left": {"Y": 1.0, "X": 0.5}, "handle_type": 0}, {"co": {"Y": 1.0, "X": 169.0}, "interpolation": 0, "handle_right": {"Y": 0.0, "X": 0.5}, "handle_left": {"Y": 1.0, "X": 0.5}, "handle_type": 0}, {"co": {"Y": 0.0, "X": 241.0}, "interpolation": 0, "handle_right": {"Y": 0.0, "X": 0.5}, "handle_left": {"Y": 1.0, "X": 0.5}, "handle_type": 0}]}, "location_y": {"Points": [{"co": {"Y": 0.0, "X": 1.0}, "interpolation": 2}]}, "rotation": {"Points": [{"co": {"Y": 0.0, "X": 1.0}, "interpolation": 2}]}, "layer": 4, "id": "7V7DJEYZZY", "gravity": 4, "perspective_c1_x": {"Points": [{"co": {"Y": -1.0, "X": 1.0}, "interpolation": 2}]}, "scale": 1, "perspective_c2_x": {"Points": [{"co": {"Y": -1.0, "X": 1.0}, "interpolation": 2}]}, "image": "/home/milind/.openshot_qt/thumbnail/YB8WHQZUJE.png", "effects": [], "perspective_c4_x": {"Points": [{"co": {"Y": -1.0, "X": 1.0}, "interpolation": 2}]}, "title": "ILUG-MSG.svg", "shear_y": {"Points": [{"co": {"Y": 0.0, "X": 1.0}, "interpolation": 2}]}, "file_id": "YB8WHQZUJE", "shear_x": {"Points": [{"co": {"Y": 0.0, "X": 1.0}, "interpolation": 2}]}, "channel_filter": {"Points": [{"co": {"Y": -1.0, "X": 1.0}, "interpolation": 2}]}, "wave_color": {"blue": {"Points": [{"co": {"Y": 255.0, "X": 1.0}, "interpolation": 0, "handle_right": {"Y": 0.0, "X": 0.5}, "handle_left": {"Y": 1.0, "X": 0.5}, "handle_type": 0}]}, "red": {"Points": [{"co": {"Y": 0.0, "X": 1.0}, "interpolation": 0, "handle_right": {"Y": 0.0, "X": 0.5}, "handle_left": {"Y": 1.0, "X": 0.5}, "handle_type": 0}]}, "green": {"Points": [{"co": {"Y": 123.0, "X": 1.0}, "interpolation": 0, "handle_right": {"Y": 0.0, "X": 0.5}, "handle_left": {"Y": 1.0, "X": 0.5}, "handle_type": 0}]}, "alpha": {"Points": [{"co": {"Y": 255.0, "X": 1.0}, "interpolation": 0, "handle_right": {"Y": 0.0, "X": 0.5}, "handle_left": {"Y": 1.0, "X": 0.5}, "handle_type": 0}]}}, "display": 0, "time": {"Points": [{"co": {"Y": 1.0, "X": 1.0}, "interpolation": 2}]}, "crop_x": {"Points": [{"co": {"Y": 0.0, "X": 1.0}, "interpolation": 2}]}, "perspective_c2_y": {"Points": [{"co": {"Y": -1.0, "X": 1.0}, "interpolation": 2}]}, "end": 10, "crop_height": {"Points": [{"co": {"Y": -1.0, "X": 1.0}, "interpolation": 2}]}, "anchor": 0, "start": 0, "scale_x": {"Points": [{"co": {"Y": 1.0, "X": 1.0}, "interpolation": 2}]}, "perspective_c1_y": {"Points": [{"co": {"Y": -1.0, "X": 1.0}, "interpolation": 2}]}, "crop_width": {"Points": [{"co": {"Y": -1.0, "X": 1.0}, "interpolation": 2}]}, "perspective_c4_y": {"Points": [{"co": {"Y": -1.0, "X": 1.0}, "interpolation": 2}]}, "volume": {"Points": [{"co": {"Y": 1.0, "X": 1.0}, "interpolation": 2}]}, "scale_y": {"Points": [{"co": {"Y": 1.0, "X": 1.0}, "interpolation": 2}]}, "crop_y": {"Points": [{"co": {"Y": 0.0, "X": 1.0}, "interpolation": 2}]}, "perspective_c3_x": {"Points": [{"co": {"Y": -1.0, "X": 1.0}, "interpolation": 2}]}, "position": 237.73333333333335, "duration": 86400.0, "waveform": false, "has_audio": {"Points": [{"co": {"Y": -1.0, "X": 1.0}, "interpolation": 2}]}, "perspective_c3_y": {"Points": [{"co": {"Y": -1.0, "X": 1.0}, "interpolation": 2}]}, "has_video": {"Points": [{"co": {"Y": -1.0, "X": 1.0}, "interpolation": 2}]}}, "partial": false}, {"old_values": {"perspective_c2_y": {"Points": [{"interpolation": 2, "co": {"Y": -1.0, "X": 1.0}}]}, "crop_x": {"Points": [{"interpolation": 2, "co": {"Y": 0.0, "X": 1.0}}]}, "alpha": {"Points": [{"interpolation": 2, "co": {"Y": 1.0, "X": 1.0}}, {"interpolation": 0, "co": {"Y": 0.0, "X": 1.0}, "handle_right": {"Y": 0.0, "X": 0.5}, "handle_left": {"Y": 1.0, "X": 0.5}, "handle_type": 0}, {"interpolation": 0, "co": {"Y": 1.0, "X": 73.0}, "handle_right": {"Y": 0.0, "X": 0.5}, "handle_left": {"Y": 1.0, "X": 0.5}, "handle_type": 0}, {"interpolation": 0, "co": {"Y": 1.0, "X": 169.0}, "handle_right": {"Y": 0.0, "X": 0.5}, "handle_left": {"Y": 1.0, "X": 0.5}, "handle_type": 0}, {"interpolation": 0, "co": {"Y": 0.0, "X": 241.0}, "handle_right": {"Y": 0.0, "X": 0.5}, "handle_left": {"Y": 1.0, "X": 0.5}, "handle_type": 0}]}, "title": "TitleFileName-3.svg", "channel_mapping": {"Points": [{"interpolation": 2, "co": {"Y": -1.0, "X": 1.0}}]}, "layer": 4, "end": 10, "id": "4TIGU4D63N", "gravity": 4, "perspective_c1_x": {"Points": [{"interpolation": 2, "co": {"Y": -1.0, "X": 1.0}}]}, "scale": 1, "perspective_c2_x": {"Points": [{"interpolation": 2, "co": {"Y": -1.0, "X": 1.0}}]}, "image": "/home/milind/.openshot_qt/thumbnail/FQIXCNMEB9.png", "location_x": {"Points": [{"interpolation": 2, "co": {"Y": 0.0, "X": 1.0}}]}, "position": 207.73333333333335, "shear_y": {"Points": [{"interpolation": 2, "co": {"Y": 0.0, "X": 1.0}}]}, "file_id": "FQIXCNMEB9", "shear_x": {"Points": [{"interpolation": 2, "co": {"Y": 0.0, "X": 1.0}}]}, "channel_filter": {"Points": [{"interpolation": 2, "co": {"Y": -1.0, "X": 1.0}}]}, "wave_color": {"red": {"Points": [{"interpolation": 0, "co": {"Y": 0.0, "X": 1.0}, "handle_right": {"Y": 0.0, "X": 0.5}, "handle_left": {"Y": 1.0, "X": 0.5}, "handle_type": 0}]}, "blue": {"Points": [{"interpolation": 0, "co": {"Y": 255.0, "X": 1.0}, "handle_right": {"Y": 0.0, "X": 0.5}, "handle_left": {"Y": 1.0, "X": 0.5}, "handle_type": 0}]}, "green": {"Points": [{"interpolation": 0, "co": {"Y": 123.0, "X": 1.0}, "handle_right": {"Y": 0.0, "X": 0.5}, "handle_left": {"Y": 1.0, "X": 0.5}, "handle_type": 0}]}, "alpha": {"Points": [{"interpolation": 0, "co": {"Y": 255.0, "X": 1.0}, "handle_right": {"Y": 0.0, "X": 0.5}, "handle_left": {"Y": 1.0, "X": 0.5}, "handle_type": 0}]}}, "display": 0, "time": {"Points": [{"interpolation": 2, "co": {"Y": 1.0, "X": 1.0}}]}, "start": 0, "perspective_c3_y": {"Points": [{"interpolation": 2, "co": {"Y": -1.0, "X": 1.0}}]}, "location_y": {"Points": [{"interpolation": 2, "co": {"Y": 0.0, "X": 1.0}}]}, "crop_height": {"Points": [{"interpolation": 2, "co": {"Y": -1.0, "X": 1.0}}]}, "rotation": {"Points": [{"interpolation": 2, "co": {"Y": 0.0, "X": 1.0}}]}, "has_video": {"Points": [{"interpolation": 2, "co": {"Y": -1.0, "X": 1.0}}]}, "effects": [], "scale_x": {"Points": [{"interpolation": 2, "co": {"Y": 1.0, "X": 1.0}}]}, "perspective_c1_y": {"Points": [{"interpolation": 2, "co": {"Y": -1.0, "X": 1.0}}]}, "crop_width": {"Points": [{"interpolation": 2, "co": {"Y": -1.0, "X": 1.0}}]}, "perspective_c4_y": {"Points": [{"interpolation": 2, "co": {"Y": -1.0, "X": 1.0}}]}, "volume": {"Points": [{"interpolation": 2, "co": {"Y": 1.0, "X": 1.0}}]}, "scale_y": {"Points": [{"interpolation": 2, "co": {"Y": 1.0, "X": 1.0}}]}, "crop_y": {"Points": [{"interpolation": 2, "co": {"Y": 0.0, "X": 1.0}}]}, "perspective_c3_x": {"Points": [{"interpolation": 2, "co": {"Y": -1.0, "X": 1.0}}]}, "perspective_c4_x": {"Points": [{"interpolation": 2, "co": {"Y": -1.0, "X": 1.0}}]}, "duration": 86400.0, "reader": {"pixel_format": -1, "audio_timebase": {"num": 1, "den": 1}, "pixel_ratio": {"num": 1, "den": 1}, "video_bit_rate": 0, "channels": 0, "video_stream_index": -1, "interlaced_frame": false, "path": "/home/milind/Data/Projects/CTTdemo/assets/TitleFileName-3.svg", "audio_stream_index": -1, "display_ratio": {"num": 16, "den": 9}, "has_single_image": true, "top_field_first": true, "vcodec": "", "video_length": "2592000", "height": 1080, "channel_layout": 4, "fps": {"num": 30, "den": 1}, "audio_bit_rate": 0, "acodec": "", "has_video": true, "file_size": "8294400", "type": "QtImageReader", "duration": 86400.0, "video_timebase": {"num": 1, "den": 30}, "has_audio": false, "sample_rate": 0, "width": 1920}, "has_audio": {"Points": [{"interpolation": 2, "co": {"Y": -1.0, "X": 1.0}}]}, "anchor": 0, "waveform": false}, "type": "delete", "key": ["clips", {"id": "4TIGU4D63N"}], "value": null, "partial": false}, {"old_values": {"channel_mapping": {"Points": [{"co": {"Y": -1.0, "X": 1.0}, "interpolation": 2}]}, "location_x": {"Points": [{"co": {"Y": 0.0, "X": 1.0}, "interpolation": 2}, {"co": {"Y": 0.0, "X": 1.0}, "interpolation": 0, "handle_right": {"Y": 0.0, "X": 0.5}, "handle_left": {"Y": 1.0, "X": 0.5}, "handle_type": 0}, {"co": {"Y": 0.0, "X": 241.0}, "interpolation": 0, "handle_right": {"Y": 0.0, "X": 0.5}, "handle_left": {"Y": 1.0, "X": 0.5}, "handle_type": 0}]}, "alpha": {"Points": [{"co": {"Y": 1.0, "X": 1.0}, "interpolation": 2}, {"co": {"Y": 0.0, "X": 1.0}, "interpolation": 0, "handle_right": {"Y": 0.0, "X": 0.5}, "handle_left": {"Y": 1.0, "X": 0.5}, "handle_type": 0}, {"co": {"Y": 1.0, "X": 73.0}, "interpolation": 0, "handle_right": {"Y": 0.0, "X": 0.5}, "handle_left": {"Y": 1.0, "X": 0.5}, "handle_type": 0}]}, "location_y": {"Points": [{"co": {"Y": 0.0, "X": 1.0}, "interpolation": 2}, {"co": {"Y": 1.0, "X": 1.0}, "interpolation": 0, "handle_right": {"Y": 0.0, "X": 0.5}, "handle_left": {"Y": 1.0, "X": 0.5}, "handle_type": 0}, {"co": {"Y": 0.0, "X": 241.0}, "interpolation": 0, "handle_right": {"Y": 0.0, "X": 0.5}, "handle_left": {"Y": 1.0, "X": 0.5}, "handle_type": 0}]}, "rotation": {"Points": [{"co": {"Y": 0.0, "X": 1.0}, "interpolation": 2}]}, "layer": 4, "id": "O3BG0Y7CKW", "gravity": 4, "perspective_c1_x": {"Points": [{"co": {"Y": -1.0, "X": 1.0}, "interpolation": 2}]}, "scale": 1, "waveform": false, "perspective_c2_x": {"Points": [{"co": {"Y": -1.0, "X": 1.0}, "interpolation": 2}]}, "image": "/home/milind/.openshot_qt/thumbnail/7WISDFXLOD.png", "effects": [], "perspective_c4_x": {"Points": [{"co": {"Y": -1.0, "X": 1.0}, "interpolation": 2}]}, "title": "closing.svg", "shear_y": {"Points": [{"co": {"Y": 0.0, "X": 1.0}, "interpolation": 2}]}, "file_id": "7WISDFXLOD", "shear_x": {"Points": [{"co": {"Y": 0.0, "X": 1.0}, "interpolation": 2}]}, "channel_filter": {"Points": [{"co": {"Y": -1.0, "X": 1.0}, "interpolation": 2}]}, "wave_color": {"blue": {"Points": [{"co": {"Y": 255.0, "X": 1.0}, "interpolation": 0, "handle_right": {"Y": 0.0, "X": 0.5}, "handle_left": {"Y": 1.0, "X": 0.5}, "handle_type": 0}]}, "red": {"Points": [{"co": {"Y": 0.0, "X": 1.0}, "interpolation": 0, "handle_right": {"Y": 0.0, "X": 0.5}, "handle_left": {"Y": 1.0, "X": 0.5}, "handle_type": 0}]}, "green": {"Points": [{"co": {"Y": 123.0, "X": 1.0}, "interpolation": 0, "handle_right": {"Y": 0.0, "X": 0.5}, "handle_left": {"Y": 1.0, "X": 0.5}, "handle_type": 0}]}, "alpha": {"Points": [{"co": {"Y": 255.0, "X": 1.0}, "interpolation": 0, "handle_right": {"Y": 0.0, "X": 0.5}, "handle_left": {"Y": 1.0, "X": 0.5}, "handle_type": 0}]}}, "display": 0, "time": {"Points": [{"co": {"Y": 1.0, "X": 1.0}, "interpolation": 2}]}, "crop_x": {"Points": [{"co": {"Y": 0.0, "X": 1.0}, "interpolation": 2}]}, "perspective_c2_y": {"Points": [{"co": {"Y": -1.0, "X": 1.0}, "interpolation": 2}]}, "end": 10, "crop_height": {"Points": [{"co": {"Y": -1.0, "X": 1.0}, "interpolation": 2}]}, "anchor": 0, "start": 0, "scale_x": {"Points": [{"co": {"Y": 1.0, "X": 1.0}, "interpolation": 2}]}, "perspective_c1_y": {"Points": [{"co": {"Y": -1.0, "X": 1.0}, "interpolation": 2}]}, "crop_width": {"Points": [{"co": {"Y": -1.0, "X": 1.0}, "interpolation": 2}]}, "perspective_c4_y": {"Points": [{"co": {"Y": -1.0, "X": 1.0}, "interpolation": 2}]}, "volume": {"Points": [{"co": {"Y": 1.0, "X": 1.0}, "interpolation": 2}]}, "scale_y": {"Points": [{"co": {"Y": 1.0, "X": 1.0}, "interpolation": 2}]}, "crop_y": {"Points": [{"co": {"Y": 0.0, "X": 1.0}, "interpolation": 2}]}, "perspective_c3_x": {"Points": [{"co": {"Y": -1.0, "X": 1.0}, "interpolation": 2}]}, "position": 217.73333333333335, "duration": 86400.0, "reader": {"pixel_format": -1, "audio_timebase": {"num": 1, "den": 1}, "pixel_ratio": {"num": 1, "den": 1}, "video_bit_rate": 0, "channels": 0, "video_stream_index": -1, "interlaced_frame": false, "audio_stream_index": -1, "display_ratio": {"num": 40, "den": 23}, "has_single_image": true, "top_field_first": true, "vcodec": "", "video_length": "2592000", "height": 1104, "channel_layout": 4, "fps": {"num": 30, "den": 1}, "audio_bit_rate": 0, "acodec": "", "type": "QtImageReader", "has_video": true, "file_size": "8478720", "path": "/home/milind/Data/Projects/CTTdemo/assets/closing.svg", "duration": 86400.0, "video_timebase": {"num": 1, "den": 30}, "has_audio": false, "sample_rate": 0, "width": 1920}, "has_audio": {"Points": [{"co": {"Y": -1.0, "X": 1.0}, "interpolation": 2}]}, "perspective_c3_y": {"Points": [{"co": {"Y": -1.0, "X": 1.0}, "interpolation": 2}]}, "has_video": {"Points": [{"co": {"Y": -1.0, "X": 1.0}, "interpolation": 2}]}}, "type": "update", "key": ["clips", {"id": "O3BG0Y7CKW"}], "value": {"image": "/home/milind/.openshot_qt/thumbnail/7WISDFXLOD.png", "layer": 4, "position": 207.7, "end": 10, "id": "O3BG0Y7CKW", "start": 0}, "partial": false}, {"old_values": {"channel_mapping": {"Points": [{"co": {"Y": -1.0, "X": 1.0}, "interpolation": 2}]}, "location_x": {"Points": [{"co": {"Y": 0.0, "X": 1.0}, "interpolation": 2}]}, "alpha": {"Points": [{"co": {"Y": 1.0, "X": 1.0}, "interpolation": 2}, {"co": {"Y": 1.0, "X": 169.0}, "interpolation": 0, "handle_right": {"Y": 0.0, "X": 0.5}, "handle_left": {"Y": 1.0, "X": 0.5}, "handle_type": 0}, {"co": {"Y": 0.0, "X": 241.0}, "interpolation": 0, "handle_right": {"Y": 0.0, "X": 0.5}, "handle_left": {"Y": 1.0, "X": 0.5}, "handle_type": 0}]}, "location_y": {"Points": [{"co": {"Y": 0.0, "X": 1.0}, "interpolation": 2}]}, "rotation": {"Points": [{"co": {"Y": 0.0, "X": 1.0}, "interpolation": 2}]}, "layer": 4, "id": "RBLMLKIP75", "gravity": 4, "perspective_c1_x": {"Points": [{"co": {"Y": -1.0, "X": 1.0}, "interpolation": 2}]}, "scale": 1, "waveform": false, "perspective_c2_x": {"Points": [{"co": {"Y": -1.0, "X": 1.0}, "interpolation": 2}]}, "image": "/home/milind/.openshot_qt/thumbnail/7WISDFXLOD.png", "effects": [], "perspective_c4_x": {"Points": [{"co": {"Y": -1.0, "X": 1.0}, "interpolation": 2}]}, "title": "closing.svg", "shear_y": {"Points": [{"co": {"Y": 0.0, "X": 1.0}, "interpolation": 2}]}, "file_id": "7WISDFXLOD", "shear_x": {"Points": [{"co": {"Y": 0.0, "X": 1.0}, "interpolation": 2}]}, "channel_filter": {"Points": [{"co": {"Y": -1.0, "X": 1.0}, "interpolation": 2}]}, "wave_color": {"blue": {"Points": [{"co": {"Y": 255.0, "X": 1.0}, "interpolation": 0, "handle_right": {"Y": 0.0, "X": 0.5}, "handle_left": {"Y": 1.0, "X": 0.5}, "handle_type": 0}]}, "red": {"Points": [{"co": {"Y": 0.0, "X": 1.0}, "interpolation": 0, "handle_right": {"Y": 0.0, "X": 0.5}, "handle_left": {"Y": 1.0, "X": 0.5}, "handle_type": 0}]}, "green": {"Points": [{"co": {"Y": 123.0, "X": 1.0}, "interpolation": 0, "handle_right": {"Y": 0.0, "X": 0.5}, "handle_left": {"Y": 1.0, "X": 0.5}, "handle_type": 0}]}, "alpha": {"Points": [{"co": {"Y": 255.0, "X": 1.0}, "interpolation": 0, "handle_right": {"Y": 0.0, "X": 0.5}, "handle_left": {"Y": 1.0, "X": 0.5}, "handle_type": 0}]}}, "display": 0, "time": {"Points": [{"co": {"Y": 1.0, "X": 1.0}, "interpolation": 2}]}, "crop_x": {"Points": [{"co": {"Y": 0.0, "X": 1.0}, "interpolation": 2}]}, "perspective_c2_y": {"Points": [{"co": {"Y": -1.0, "X": 1.0}, "interpolation": 2}]}, "end": 10, "crop_height": {"Points": [{"co": {"Y": -1.0, "X": 1.0}, "interpolation": 2}]}, "anchor": 0, "start": 0, "scale_x": {"Points": [{"co": {"Y": 1.0, "X": 1.0}, "interpolation": 2}]}, "perspective_c1_y": {"Points": [{"co": {"Y": -1.0, "X": 1.0}, "interpolation": 2}]}, "crop_width": {"Points": [{"co": {"Y": -1.0, "X": 1.0}, "interpolation": 2}]}, "perspective_c4_y": {"Points": [{"co": {"Y": -1.0, "X": 1.0}, "interpolation": 2}]}, "volume": {"Points": [{"co": {"Y": 1.0, "X": 1.0}, "interpolation": 2}]}, "scale_y": {"Points": [{"co": {"Y": 1.0, "X": 1.0}, "interpolation": 2}]}, "crop_y": {"Points": [{"co": {"Y": 0.0, "X": 1.0}, "interpolation": 2}]}, "perspective_c3_x": {"Points": [{"co": {"Y": -1.0, "X": 1.0}, "interpolation": 2}]}, "position": 227.73333333333335, "duration": 86400.0, "reader": {"pixel_format": -1, "audio_timebase": {"num": 1, "den": 1}, "pixel_ratio": {"num": 1, "den": 1}, "video_bit_rate": 0, "channels": 0, "video_stream_index": -1, "interlaced_frame": false, "audio_stream_index": -1, "display_ratio": {"num": 40, "den": 23}, "has_single_image": true, "top_field_first": true, "vcodec": "", "video_length": "2592000", "height": 1104, "channel_layout": 4, "fps": {"num": 30, "den": 1}, "audio_bit_rate": 0, "acodec": "", "type": "QtImageReader", "has_video": true, "file_size": "8478720", "path": "/home/milind/Data/Projects/CTTdemo/assets/closing.svg", "duration": 86400.0, "video_timebase": {"num": 1, "den": 30}, "has_audio": false, "sample_rate": 0, "width": 1920}, "has_audio": {"Points": [{"co": {"Y": -1.0, "X": 1.0}, "interpolation": 2}]}, "perspective_c3_y": {"Points": [{"co": {"Y": -1.0, "X": 1.0}, "interpolation": 2}]}, "has_video": {"Points": [{"co": {"Y": -1.0, "X": 1.0}, "interpolation": 2}]}}, "type": "update", "key": ["clips", {"id": "RBLMLKIP75"}], "value": {"image": "/home/milind/.openshot_qt/thumbnail/7WISDFXLOD.png", "layer": 4, "position": 217.7, "end": 10, "id": "RBLMLKIP75", "start": 0}, "partial": false}, {"old_values": {"channel_mapping": {"Points": [{"co": {"Y": -1.0, "X": 1.0}, "interpolation": 2}]}, "location_x": {"Points": [{"co": {"Y": 0.0, "X": 1.0}, "interpolation": 2}]}, "alpha": {"Points": [{"co": {"Y": 1.0, "X": 1.0}, "interpolation": 2}, {"co": {"Y": 0.0, "X": 1.0}, "interpolation": 0, "handle_right": {"Y": 0.0, "X": 0.5}, "handle_left": {"Y": 1.0, "X": 0.5}, "handle_type": 0}, {"co": {"Y": 1.0, "X": 73.0}, "interpolation": 0, "handle_right": {"Y": 0.0, "X": 0.5}, "handle_left": {"Y": 1.0, "X": 0.5}, "handle_type": 0}, {"co": {"Y": 1.0, "X": 169.0}, "interpolation": 0, "handle_right": {"Y": 0.0, "X": 0.5}, "handle_left": {"Y": 1.0, "X": 0.5}, "handle_type": 0}, {"co": {"Y": 0.0, "X": 241.0}, "interpolation": 0, "handle_right": {"Y": 0.0, "X": 0.5}, "handle_left": {"Y": 1.0, "X": 0.5}, "handle_type": 0}]}, "location_y": {"Points": [{"co": {"Y": 0.0, "X": 1.0}, "interpolation": 2}]}, "rotation": {"Points": [{"co": {"Y": 0.0, "X": 1.0}, "interpolation": 2}]}, "layer": 4, "id": "7V7DJEYZZY", "gravity": 4, "perspective_c1_x": {"Points": [{"co": {"Y": -1.0, "X": 1.0}, "interpolation": 2}]}, "scale": 1, "waveform": false, "perspective_c2_x": {"Points": [{"co": {"Y": -1.0, "X": 1.0}, "interpolation": 2}]}, "image": "/home/milind/.openshot_qt/thumbnail/YB8WHQZUJE.png", "effects": [], "perspective_c4_x": {"Points": [{"co": {"Y": -1.0, "X": 1.0}, "interpolation": 2}]}, "title": "ILUG-MSG.svg", "shear_y": {"Points": [{"co": {"Y": 0.0, "X": 1.0}, "interpolation": 2}]}, "file_id": "YB8WHQZUJE", "shear_x": {"Points": [{"co": {"Y": 0.0, "X": 1.0}, "interpolation": 2}]}, "channel_filter": {"Points": [{"co": {"Y": -1.0, "X": 1.0}, "interpolation": 2}]}, "wave_color": {"blue": {"Points": [{"co": {"Y": 255.0, "X": 1.0}, "interpolation": 0, "handle_right": {"Y": 0.0, "X": 0.5}, "handle_left": {"Y": 1.0, "X": 0.5}, "handle_type": 0}]}, "red": {"Points": [{"co": {"Y": 0.0, "X": 1.0}, "interpolation": 0, "handle_right": {"Y": 0.0, "X": 0.5}, "handle_left": {"Y": 1.0, "X": 0.5}, "handle_type": 0}]}, "green": {"Points": [{"co": {"Y": 123.0, "X": 1.0}, "interpolation": 0, "handle_right": {"Y": 0.0, "X": 0.5}, "handle_left": {"Y": 1.0, "X": 0.5}, "handle_type": 0}]}, "alpha": {"Points": [{"co": {"Y": 255.0, "X": 1.0}, "interpolation": 0, "handle_right": {"Y": 0.0, "X": 0.5}, "handle_left": {"Y": 1.0, "X": 0.5}, "handle_type": 0}]}}, "display": 0, "time": {"Points": [{"co": {"Y": 1.0, "X": 1.0}, "interpolation": 2}]}, "crop_x": {"Points": [{"co": {"Y": 0.0, "X": 1.0}, "interpolation": 2}]}, "perspective_c2_y": {"Points": [{"co": {"Y": -1.0, "X": 1.0}, "interpolation": 2}]}, "end": 10, "crop_height": {"Points": [{"co": {"Y": -1.0, "X": 1.0}, "interpolation": 2}]}, "anchor": 0, "start": 0, "scale_x": {"Points": [{"co": {"Y": 1.0, "X": 1.0}, "interpolation": 2}]}, "perspective_c1_y": {"Points": [{"co": {"Y": -1.0, "X": 1.0}, "interpolation": 2}]}, "crop_width": {"Points": [{"co": {"Y": -1.0, "X": 1.0}, "interpolation": 2}]}, "perspective_c4_y": {"Points": [{"co": {"Y": -1.0, "X": 1.0}, "interpolation": 2}]}, "volume": {"Points": [{"co": {"Y": 1.0, "X": 1.0}, "interpolation": 2}]}, "scale_y": {"Points": [{"co": {"Y": 1.0, "X": 1.0}, "interpolation": 2}]}, "crop_y": {"Points": [{"co": {"Y": 0.0, "X": 1.0}, "interpolation": 2}]}, "perspective_c3_x": {"Points": [{"co": {"Y": -1.0, "X": 1.0}, "interpolation": 2}]}, "position": 237.73333333333335, "duration": 86400.0, "reader": {"pixel_format": -1, "audio_timebase": {"num": 1, "den": 1}, "pixel_ratio": {"num": 1, "den": 1}, "video_bit_rate": 0, "channels": 0, "video_stream_index": -1, "interlaced_frame": false, "audio_stream_index": -1, "display_ratio": {"num": 40, "den": 23}, "has_single_image": true, "top_field_first": true, "vcodec": "", "video_length": "2592000", "height": 1104, "channel_layout": 4, "fps": {"num": 30, "den": 1}, "audio_bit_rate": 0, "acodec": "", "type": "QtImageReader", "has_video": true, "file_size": "8478720", "path": "/home/milind/Data/Projects/CTTdemo/assets/ILUG-MSG.svg", "duration": 86400.0, "video_timebase": {"num": 1, "den": 30}, "has_audio": false, "sample_rate": 0, "width": 1920}, "has_audio": {"Points": [{"co": {"Y": -1.0, "X": 1.0}, "interpolation": 2}]}, "perspective_c3_y": {"Points": [{"co": {"Y": -1.0, "X": 1.0}, "interpolation": 2}]}, "has_video": {"Points": [{"co": {"Y": -1.0, "X": 1.0}, "interpolation": 2}]}}, "type": "update", "key": ["clips", {"id": "7V7DJEYZZY"}], "value": {"image": "/home/milind/.openshot_qt/thumbnail/YB8WHQZUJE.png", "layer": 4, "position": 227.7, "end": 10, "id": "7V7DJEYZZY", "start": 0}, "partial": false}, {"old_values": {"channel_mapping": {"Points": [{"co": {"Y": -1.0, "X": 1.0}, "interpolation": 2}]}, "location_x": {"Points": [{"co": {"Y": 0.0, "X": 1.0}, "interpolation": 2}]}, "alpha": {"Points": [{"co": {"Y": 1.0, "X": 1.0}, "interpolation": 2}, {"co": {"Y": 0.0, "X": 1.0}, "interpolation": 0, "handle_right": {"Y": 0.0, "X": 0.5}, "handle_left": {"Y": 1.0, "X": 0.5}, "handle_type": 0}, {"co": {"Y": 1.0, "X": 73.0}, "interpolation": 0, "handle_right": {"Y": 0.0, "X": 0.5}, "handle_left": {"Y": 1.0, "X": 0.5}, "handle_type": 0}, {"co": {"Y": 1.0, "X": 169.0}, "interpolation": 0, "handle_right": {"Y": 0.0, "X": 0.5}, "handle_left": {"Y": 1.0, "X": 0.5}, "handle_type": 0}, {"co": {"Y": 0.0, "X": 241.0}, "interpolation": 0, "handle_right": {"Y": 0.0, "X": 0.5}, "handle_left": {"Y": 1.0, "X": 0.5}, "handle_type": 0}]}, "location_y": {"Points": [{"co": {"Y": 0.0, "X": 1.0}, "interpolation": 2}]}, "rotation": {"Points": [{"co": {"Y": 0.0, "X": 1.0}, "interpolation": 2}]}, "layer": 4, "id": "7V7DJEYZZY", "gravity": 4, "perspective_c1_x": {"Points": [{"co": {"Y": -1.0, "X": 1.0}, "interpolation": 2}]}, "scale": 1, "waveform": false, "perspective_c2_x": {"Points": [{"co": {"Y": -1.0, "X": 1.0}, "interpolation": 2}]}, "image": "/home/milind/.openshot_qt/thumbnail/YB8WHQZUJE.png", "effects": [], "perspective_c4_x": {"Points": [{"co": {"Y": -1.0, "X": 1.0}, "interpolation": 2}]}, "title": "ILUG-MSG.svg", "shear_y": {"Points": [{"co": {"Y": 0.0, "X": 1.0}, "interpolation": 2}]}, "file_id": "YB8WHQZUJE", "shear_x": {"Points": [{"co": {"Y": 0.0, "X": 1.0}, "interpolation": 2}]}, "channel_filter": {"Points": [{"co": {"Y": -1.0, "X": 1.0}, "interpolation": 2}]}, "wave_color": {"blue": {"Points": [{"co": {"Y": 255.0, "X": 1.0}, "interpolation": 0, "handle_right": {"Y": 0.0, "X": 0.5}, "handle_left": {"Y": 1.0, "X": 0.5}, "handle_type": 0}]}, "red": {"Points": [{"co": {"Y": 0.0, "X": 1.0}, "interpolation": 0, "handle_right": {"Y": 0.0, "X": 0.5}, "handle_left": {"Y": 1.0, "X": 0.5}, "handle_type": 0}]}, "green": {"Points": [{"co": {"Y": 123.0, "X": 1.0}, "interpolation": 0, "handle_right": {"Y": 0.0, "X": 0.5}, "handle_left": {"Y": 1.0, "X": 0.5}, "handle_type": 0}]}, "alpha": {"Points": [{"co": {"Y": 255.0, "X": 1.0}, "interpolation": 0, "handle_right": {"Y": 0.0, "X": 0.5}, "handle_left": {"Y": 1.0, "X": 0.5}, "handle_type": 0}]}}, "display": 0, "time": {"Points": [{"co": {"Y": 1.0, "X": 1.0}, "interpolation": 2}]}, "crop_x": {"Points": [{"co": {"Y": 0.0, "X": 1.0}, "interpolation": 2}]}, "perspective_c2_y": {"Points": [{"co": {"Y": -1.0, "X": 1.0}, "interpolation": 2}]}, "end": 10, "crop_height": {"Points": [{"co": {"Y": -1.0, "X": 1.0}, "interpolation": 2}]}, "anchor": 0, "start": 0, "scale_x": {"Points": [{"co": {"Y": 1.0, "X": 1.0}, "interpolation": 2}]}, "perspective_c1_y": {"Points": [{"co": {"Y": -1.0, "X": 1.0}, "interpolation": 2}]}, "crop_width": {"Points": [{"co": {"Y": -1.0, "X": 1.0}, "interpolation": 2}]}, "perspective_c4_y": {"Points": [{"co": {"Y": -1.0, "X": 1.0}, "interpolation": 2}]}, "volume": {"Points": [{"co": {"Y": 1.0, "X": 1.0}, "interpolation": 2}]}, "scale_y": {"Points": [{"co": {"Y": 1.0, "X": 1.0}, "interpolation": 2}]}, "crop_y": {"Points": [{"co": {"Y": 0.0, "X": 1.0}, "interpolation": 2}]}, "perspective_c3_x": {"Points": [{"co": {"Y": -1.0, "X": 1.0}, "interpolation": 2}]}, "position": 227.7, "duration": 86400.0, "reader": {"pixel_format": -1, "audio_timebase": {"num": 1, "den": 1}, "pixel_ratio": {"num": 1, "den": 1}, "video_bit_rate": 0, "channels": 0, "video_stream_index": -1, "interlaced_frame": false, "audio_stream_index": -1, "display_ratio": {"num": 40, "den": 23}, "has_single_image": true, "top_field_first": true, "vcodec": "", "video_length": "2592000", "height": 1104, "channel_layout": 4, "fps": {"num": 30, "den": 1}, "audio_bit_rate": 0, "acodec": "", "type": "QtImageReader", "has_video": true, "file_size": "8478720", "path": "/home/milind/Data/Projects/CTTdemo/assets/ILUG-MSG.svg", "duration": 86400.0, "video_timebase": {"num": 1, "den": 30}, "has_audio": false, "sample_rate": 0, "width": 1920}, "has_audio": {"Points": [{"co": {"Y": -1.0, "X": 1.0}, "interpolation": 2}]}, "perspective_c3_y": {"Points": [{"co": {"Y": -1.0, "X": 1.0}, "interpolation": 2}]}, "has_video": {"Points": [{"co": {"Y": -1.0, "X": 1.0}, "interpolation": 2}]}}, "type": "delete", "key": ["clips", {"id": "7V7DJEYZZY"}], "value": null, "partial": false}, {"old_values": [{"perspective_c2_y": {"Points": [{"interpolation": 2, "co": {"Y": -1.0, "X": 1.0}}]}, "crop_x": {"Points": [{"interpolation": 2, "co": {"Y": 0.0, "X": 1.0}}]}, "alpha": {"Points": [{"interpolation": 2, "co": {"Y": 1.0, "X": 1.0}}, {"interpolation": 0, "co": {"Y": 0.0, "X": 1.0}, "handle_right": {"Y": 0.0, "X": 0.5}, "handle_left": {"Y": 1.0, "X": 0.5}, "handle_type": 0}, {"interpolation": 0, "co": {"Y": 1.0, "X": 73.0}, "handle_right": {"Y": 0.0, "X": 0.5}, "handle_left": {"Y": 1.0, "X": 0.5}, "handle_type": 0}, {"interpolation": 0, "co": {"Y": 1.0, "X": 790.0}, "handle_right": {"Y": 0.0, "X": 0.5}, "handle_left": {"Y": 1.0, "X": 0.5}, "handle_type": 0}, {"interpolation": 0, "co": {"Y": 0.0, "X": 862.0}, "handle_right": {"Y": 0.0, "X": 0.5}, "handle_left": {"Y": 1.0, "X": 0.5}, "handle_type": 0}]}, "location_y": {"Points": [{"interpolation": 2, "co": {"Y": 0.0, "X": 1.0}}]}, "channel_mapping": {"Points": [{"interpolation": 2, "co": {"Y": -1.0, "X": 1.0}}]}, "layer": 4, "end": 35.875, "id": "Z4ZIZQBYYY", "gravity": 4, "perspective_c1_x": {"Points": [{"interpolation": 2, "co": {"Y": -1.0, "X": 1.0}}]}, "scale": 1, "perspective_c2_x": {"Points": [{"interpolation": 2, "co": {"Y": -1.0, "X": 1.0}}]}, "image": "/home/milind/Data/Projects/.openshot_qt/thumbnail/8AMXXS1INM.png", "location_x": {"Points": [{"interpolation": 2, "co": {"Y": 0.0, "X": 1.0}}]}, "position": 10, "shear_y": {"Points": [{"interpolation": 2, "co": {"Y": 0.0, "X": 1.0}}]}, "file_id": "8AMXXS1INM", "shear_x": {"Points": [{"interpolation": 2, "co": {"Y": 0.0, "X": 1.0}}]}, "channel_filter": {"Points": [{"interpolation": 2, "co": {"Y": -1.0, "X": 1.0}}]}, "wave_color": {"blue": {"Points": [{"interpolation": 0, "co": {"Y": 255.0, "X": 1.0}, "handle_right": {"Y": 0.0, "X": 0.5}, "handle_left": {"Y": 1.0, "X": 0.5}, "handle_type": 0}]}, "red": {"Points": [{"interpolation": 0, "co": {"Y": 0.0, "X": 1.0}, "handle_right": {"Y": 0.0, "X": 0.5}, "handle_left": {"Y": 1.0, "X": 0.5}, "handle_type": 0}]}, "green": {"Points": [{"interpolation": 0, "co": {"Y": 123.0, "X": 1.0}, "handle_right": {"Y": 0.0, "X": 0.5}, "handle_left": {"Y": 1.0, "X": 0.5}, "handle_type": 0}]}, "alpha": {"Points": [{"interpolation": 0, "co": {"Y": 255.0, "X": 1.0}, "handle_right": {"Y": 0.0, "X": 0.5}, "handle_left": {"Y": 1.0, "X": 0.5}, "handle_type": 0}]}}, "display": 0, "time": {"Points": [{"interpolation": 1, "co": {"Y": 1.0, "X": 1.0}}, {"interpolation": 1, "co": {"Y": 1721.0, "X": 861.0}}]}, "start": 0, "perspective_c3_y": {"Points": [{"interpolation": 2, "co": {"Y": -1.0, "X": 1.0}}]}, "title": "Demo-02-Adding Time-Class Slots.mkv", "reader": {"pixel_format": 0, "audio_timebase": {"num": 1, "den": 1}, "pixel_ratio": {"num": 1, "den": 1}, "video_bit_rate": 0, "channels": 0, "video_stream_index": 0, "interlaced_frame": false, "path": "/home/milind/Data/Projects/CTTdemo/Demo-02-Adding Time-Class Slots.mkv", "audio_stream_index": -1, "display_ratio": {"num": 683, "den": 384}, "has_single_image": false, "top_field_first": true, "vcodec": "h264", "video_length": "1900", "height": 768, "channel_layout": 4, "fps": {"num": 25, "den": 1}, "audio_bit_rate": 0, "acodec": "", "has_video": true, "file_size": "502317", "type": "FFmpegReader", "duration": 76.0, "video_timebase": {"num": 1, "den": 1000}, "has_audio": false, "sample_rate": 0, "width": 1366}, "crop_height": {"Points": [{"interpolation": 2, "co": {"Y": -1.0, "X": 1.0}}]}, "rotation": {"Points": [{"interpolation": 2, "co": {"Y": 0.0, "X": 1.0}}]}, "effects": [], "scale_x": {"Points": [{"interpolation": 2, "co": {"Y": 1.0, "X": 1.0}}]}, "perspective_c1_y": {"Points": [{"interpolation": 2, "co": {"Y": -1.0, "X": 1.0}}]}, "crop_width": {"Points": [{"interpolation": 2, "co": {"Y": -1.0, "X": 1.0}}]}, "perspective_c4_y": {"Points": [{"interpolation": 2, "co": {"Y": -1.0, "X": 1.0}}]}, "volume": {"Points": [{"interpolation": 2, "co": {"Y": 1.0, "X": 1.0}}]}, "scale_y": {"Points": [{"interpolation": 2, "co": {"Y": 1.0, "X": 1.0}}]}, "crop_y": {"Points": [{"interpolation": 2, "co": {"Y": 0.0, "X": 1.0}}]}, "perspective_c3_x": {"Points": [{"interpolation": 2, "co": {"Y": -1.0, "X": 1.0}}]}, "perspective_c4_x": {"Points": [{"interpolation": 2, "co": {"Y": -1.0, "X": 1.0}}]}, "duration": 38.0, "waveform": false, "has_audio": {"Points": [{"interpolation": 2, "co": {"Y": -1.0, "X": 1.0}}]}, "anchor": 0, "has_video": {"Points": [{"interpolation": 2, "co": {"Y": -1.0, "X": 1.0}}]}}, {"perspective_c2_y": {"Points": [{"interpolation": 2, "co": {"Y": -1.0, "X": 1.0}}]}, "crop_x": {"Points": [{"interpolation": 2, "co": {"Y": 0.0, "X": 1.0}}]}, "alpha": {"Points": [{"interpolation": 2, "co": {"Y": 1.0, "X": 1.0}}, {"interpolation": 0, "co": {"Y": 0.0, "X": 1.0}, "handle_right": {"Y": 0.0, "X": 0.5}, "handle_left": {"Y": 1.0, "X": 0.5}, "handle_type": 0}, {"interpolation": 0, "co": {"Y": 1.0, "X": 73.0}, "handle_right": {"Y": 0.0, "X": 0.5}, "handle_left": {"Y": 1.0, "X": 0.5}, "handle_type": 0}, {"interpolation": 0, "co": {"Y": 1.0, "X": 317.0}, "handle_right": {"Y": 0.0, "X": 0.5}, "handle_left": {"Y": 1.0, "X": 0.5}, "handle_type": 0}, {"interpolation": 0, "co": {"Y": 0.0, "X": 389.0}, "handle_right": {"Y": 0.0, "X": 0.5}, "handle_left": {"Y": 1.0, "X": 0.5}, "handle_type": 0}]}, "location_y": {"Points": [{"interpolation": 2, "co": {"Y": 0.0, "X": 1.0}}]}, "channel_mapping": {"Points": [{"interpolation": 2, "co": {"Y": -1.0, "X": 1.0}}]}, "layer": 4, "end": 16.183333333333337, "id": "HUCJUHW5KR", "gravity": 4, "perspective_c1_x": {"Points": [{"interpolation": 2, "co": {"Y": -1.0, "X": 1.0}}]}, "scale": 1, "perspective_c2_x": {"Points": [{"interpolation": 2, "co": {"Y": -1.0, "X": 1.0}}]}, "image": "/home/milind/Data/Projects/.openshot_qt/thumbnail/FUP4DCVZ3U.png", "location_x": {"Points": [{"interpolation": 2, "co": {"Y": 0.0, "X": 1.0}}]}, "position": 45.8, "shear_y": {"Points": [{"interpolation": 2, "co": {"Y": 0.0, "X": 1.0}}]}, "file_id": "FUP4DCVZ3U", "shear_x": {"Points": [{"interpolation": 2, "co": {"Y": 0.0, "X": 1.0}}]}, "channel_filter": {"Points": [{"interpolation": 2, "co": {"Y": -1.0, "X": 1.0}}]}, "wave_color": {"blue": {"Points": [{"interpolation": 0, "co": {"Y": 255.0, "X": 1.0}, "handle_right": {"Y": 0.0, "X": 0.5}, "handle_left": {"Y": 1.0, "X": 0.5}, "handle_type": 0}]}, "red": {"Points": [{"interpolation": 0, "co": {"Y": 0.0, "X": 1.0}, "handle_right": {"Y": 0.0, "X": 0.5}, "handle_left": {"Y": 1.0, "X": 0.5}, "handle_type": 0}]}, "green": {"Points": [{"interpolation": 0, "co": {"Y": 123.0, "X": 1.0}, "handle_right": {"Y": 0.0, "X": 0.5}, "handle_left": {"Y": 1.0, "X": 0.5}, "handle_type": 0}]}, "alpha": {"Points": [{"interpolation": 0, "co": {"Y": 255.0, "X": 1.0}, "handle_right": {"Y": 0.0, "X": 0.5}, "handle_left": {"Y": 1.0, "X": 0.5}, "handle_type": 0}]}}, "display": 0, "time": {"Points": [{"interpolation": 2, "co": {"Y": 1.0, "X": 1.0}}]}, "start": 0, "perspective_c3_y": {"Points": [{"interpolation": 2, "co": {"Y": -1.0, "X": 1.0}}]}, "title": "Demo-03-Renaming copy pasted Time-Slots.mkv", "reader": {"pixel_format": 0, "audio_timebase": {"num": 1, "den": 1}, "pixel_ratio": {"num": 1, "den": 1}, "video_bit_rate": 0, "channels": 0, "video_stream_index": 0, "interlaced_frame": false, "path": "/home/milind/Data/Projects/CTTdemo/Demo-03-Renaming copy pasted Time-Slots.mkv", "audio_stream_index": -1, "display_ratio": {"num": 683, "den": 384}, "has_single_image": false, "top_field_first": true, "vcodec": "h264", "video_length": "525", "height": 768, "channel_layout": 4, "fps": {"num": 25, "den": 1}, "audio_bit_rate": 0, "acodec": "", "has_video": true, "file_size": "191199", "type": "FFmpegReader", "duration": 21.0, "video_timebase": {"num": 1, "den": 1000}, "has_audio": false, "sample_rate": 0, "width": 1366}, "crop_height": {"Points": [{"interpolation": 2, "co": {"Y": -1.0, "X": 1.0}}]}, "rotation": {"Points": [{"interpolation": 2, "co": {"Y": 0.0, "X": 1.0}}]}, "effects": [], "scale_x": {"Points": [{"interpolation": 2, "co": {"Y": 1.0, "X": 1.0}}]}, "perspective_c1_y": {"Points": [{"interpolation": 2, "co": {"Y": -1.0, "X": 1.0}}]}, "crop_width": {"Points": [{"interpolation": 2, "co": {"Y": -1.0, "X": 1.0}}]}, "perspective_c4_y": {"Points": [{"interpolation": 2, "co": {"Y": -1.0, "X": 1.0}}]}, "volume": {"Points": [{"interpolation": 2, "co": {"Y": 1.0, "X": 1.0}}]}, "scale_y": {"Points": [{"interpolation": 2, "co": {"Y": 1.0, "X": 1.0}}]}, "crop_y": {"Points": [{"interpolation": 2, "co": {"Y": 0.0, "X": 1.0}}]}, "perspective_c3_x": {"Points": [{"interpolation": 2, "co": {"Y": -1.0, "X": 1.0}}]}, "perspective_c4_x": {"Points": [{"interpolation": 2, "co": {"Y": -1.0, "X": 1.0}}]}, "duration": 21.0, "waveform": false, "has_audio": {"Points": [{"interpolation": 2, "co": {"Y": -1.0, "X": 1.0}}]}, "anchor": 0, "has_video": {"Points": [{"interpolation": 2, "co": {"Y": -1.0, "X": 1.0}}]}}, {"perspective_c2_y": {"Points": [{"interpolation": 2, "co": {"Y": -1.0, "X": 1.0}}]}, "crop_x": {"Points": [{"interpolation": 2, "co": {"Y": 0.0, "X": 1.0}}]}, "alpha": {"Points": [{"interpolation": 2, "co": {"Y": 1.0, "X": 1.0}}, {"interpolation": 0, "co": {"Y": 0.0, "X": 1.0}, "handle_right": {"Y": 0.0, "X": 0.5}, "handle_left": {"Y": 1.0, "X": 0.5}, "handle_type": 0}, {"interpolation": 0, "co": {"Y": 1.0, "X": 73.0}, "handle_right": {"Y": 0.0, "X": 0.5}, "handle_left": {"Y": 1.0, "X": 0.5}, "handle_type": 0}, {"interpolation": 0, "co": {"Y": 1.0, "X": 1412.0}, "handle_right": {"Y": 0.0, "X": 0.5}, "handle_left": {"Y": 1.0, "X": 0.5}, "handle_type": 0}, {"interpolation": 0, "co": {"Y": 0.0, "X": 1484.0}, "handle_right": {"Y": 0.0, "X": 0.5}, "handle_left": {"Y": 1.0, "X": 0.5}, "handle_type": 0}]}, "location_y": {"Points": [{"interpolation": 2, "co": {"Y": 0.0, "X": 1.0}}]}, "channel_mapping": {"Points": [{"interpolation": 2, "co": {"Y": -1.0, "X": 1.0}}]}, "layer": 4, "end": 61.791666666666664, "id": "5SL6Z206WO", "gravity": 4, "perspective_c1_x": {"Points": [{"interpolation": 2, "co": {"Y": -1.0, "X": 1.0}}]}, "scale": 1, "perspective_c2_x": {"Points": [{"interpolation": 2, "co": {"Y": -1.0, "X": 1.0}}]}, "image": "/home/milind/.openshot_qt/thumbnail/RVOUXSUSEQ.png", "location_x": {"Points": [{"interpolation": 2, "co": {"Y": 0.0, "X": 1.0}}]}, "position": 61.9, "shear_y": {"Points": [{"interpolation": 2, "co": {"Y": 0.0, "X": 1.0}}]}, "file_id": "RVOUXSUSEQ", "shear_x": {"Points": [{"interpolation": 2, "co": {"Y": 0.0, "X": 1.0}}]}, "channel_filter": {"Points": [{"interpolation": 2, "co": {"Y": -1.0, "X": 1.0}}]}, "wave_color": {"blue": {"Points": [{"interpolation": 0, "co": {"Y": 255.0, "X": 1.0}, "handle_right": {"Y": 0.0, "X": 0.5}, "handle_left": {"Y": 1.0, "X": 0.5}, "handle_type": 0}]}, "red": {"Points": [{"interpolation": 0, "co": {"Y": 0.0, "X": 1.0}, "handle_right": {"Y": 0.0, "X": 0.5}, "handle_left": {"Y": 1.0, "X": 0.5}, "handle_type": 0}]}, "green": {"Points": [{"interpolation": 0, "co": {"Y": 123.0, "X": 1.0}, "handle_right": {"Y": 0.0, "X": 0.5}, "handle_left": {"Y": 1.0, "X": 0.5}, "handle_type": 0}]}, "alpha": {"Points": [{"interpolation": 0, "co": {"Y": 255.0, "X": 1.0}, "handle_right": {"Y": 0.0, "X": 0.5}, "handle_left": {"Y": 1.0, "X": 0.5}, "handle_type": 0}]}}, "display": 0, "time": {"Points": [{"interpolation": 1, "co": {"Y": 1.0, "X": 1.0}}, {"interpolation": 1, "co": {"Y": 5929.0, "X": 1483.0}}]}, "start": 0, "perspective_c3_y": {"Points": [{"interpolation": 2, "co": {"Y": -1.0, "X": 1.0}}]}, "title": "Demo-04-Lecture Entry-Clash remove and Demo TT.mkv", "reader": {"pixel_format": 0, "audio_timebase": {"num": 1, "den": 1}, "pixel_ratio": {"num": 1, "den": 1}, "video_bit_rate": 0, "channels": 0, "video_stream_index": 0, "interlaced_frame": false, "path": "/home/milind/Data/Projects/CTTdemo/Demo-04-Lecture Entry-Clash remove and Demo TT.mkv", "audio_stream_index": -1, "display_ratio": {"num": 683, "den": 384}, "has_single_image": false, "top_field_first": true, "vcodec": "h264", "video_length": "6175", "height": 768, "channel_layout": 4, "fps": {"num": 25, "den": 1}, "audio_bit_rate": 0, "acodec": "", "has_video": true, "file_size": "2541542", "type": "FFmpegReader", "duration": 247.0, "video_timebase": {"num": 1, "den": 1000}, "has_audio": false, "sample_rate": 0, "width": 1366}, "crop_height": {"Points": [{"interpolation": 2, "co": {"Y": -1.0, "X": 1.0}}]}, "rotation": {"Points": [{"interpolation": 2, "co": {"Y": 0.0, "X": 1.0}}]}, "effects": [], "scale_x": {"Points": [{"interpolation": 2, "co": {"Y": 1.0, "X": 1.0}}]}, "perspective_c1_y": {"Points": [{"interpolation": 2, "co": {"Y": -1.0, "X": 1.0}}]}, "crop_width": {"Points": [{"interpolation": 2, "co": {"Y": -1.0, "X": 1.0}}]}, "perspective_c4_y": {"Points": [{"interpolation": 2, "co": {"Y": -1.0, "X": 1.0}}]}, "volume": {"Points": [{"interpolation": 2, "co": {"Y": 1.0, "X": 1.0}}]}, "scale_y": {"Points": [{"interpolation": 2, "co": {"Y": 1.0, "X": 1.0}}]}, "crop_y": {"Points": [{"interpolation": 2, "co": {"Y": 0.0, "X": 1.0}}]}, "perspective_c3_x": {"Points": [{"interpolation": 2, "co": {"Y": -1.0, "X": 1.0}}]}, "perspective_c4_x": {"Points": [{"interpolation": 2, "co": {"Y": -1.0, "X": 1.0}}]}, "duration": 60.0, "waveform": false, "has_audio": {"Points": [{"interpolation": 2, "co": {"Y": -1.0, "X": 1.0}}]}, "anchor": 0, "has_video": {"Points": [{"interpolation": 2, "co": {"Y": -1.0, "X": 1.0}}]}}, {"perspective_c2_y": {"Points": [{"interpolation": 2, "co": {"Y": -1.0, "X": 1.0}}]}, "crop_x": {"Points": [{"interpolation": 2, "co": {"Y": 0.0, "X": 1.0}}]}, "alpha": {"Points": [{"interpolation": 2, "co": {"Y": 1.0, "X": 1.0}}, {"interpolation": 0, "co": {"Y": 0.0, "X": 1.0}, "handle_right": {"Y": 0.0, "X": 0.5}, "handle_left": {"Y": 1.0, "X": 0.5}, "handle_type": 0}, {"interpolation": 0, "co": {"Y": 1.0, "X": 73.0}, "handle_right": {"Y": 0.0, "X": 0.5}, "handle_left": {"Y": 1.0, "X": 0.5}, "handle_type": 0}, {"interpolation": 0, "co": {"Y": 1.0, "X": 813.0}, "handle_right": {"Y": 0.0, "X": 0.5}, "handle_left": {"Y": 1.0, "X": 0.5}, "handle_type": 0}, {"interpolation": 0, "co": {"Y": 0.0, "X": 885.0}, "handle_right": {"Y": 0.0, "X": 0.5}, "handle_left": {"Y": 1.0, "X": 0.5}, "handle_type": 0}]}, "location_y": {"Points": [{"interpolation": 2, "co": {"Y": 0.0, "X": 1.0}}]}, "channel_mapping": {"Points": [{"interpolation": 2, "co": {"Y": -1.0, "X": 1.0}}]}, "layer": 4, "end": 36.84166666666667, "id": "6XKH2CVO13", "gravity": 4, "perspective_c1_x": {"Points": [{"interpolation": 2, "co": {"Y": -1.0, "X": 1.0}}]}, "scale": 1, "perspective_c2_x": {"Points": [{"interpolation": 2, "co": {"Y": -1.0, "X": 1.0}}]}, "image": "/home/milind/.openshot_qt/thumbnail/SJFW0PSRLB.png", "location_x": {"Points": [{"interpolation": 2, "co": {"Y": 0.0, "X": 1.0}}]}, "position": 123.6, "shear_y": {"Points": [{"interpolation": 2, "co": {"Y": 0.0, "X": 1.0}}]}, "file_id": "SJFW0PSRLB", "shear_x": {"Points": [{"interpolation": 2, "co": {"Y": 0.0, "X": 1.0}}]}, "channel_filter": {"Points": [{"interpolation": 2, "co": {"Y": -1.0, "X": 1.0}}]}, "wave_color": {"blue": {"Points": [{"interpolation": 0, "co": {"Y": 255.0, "X": 1.0}, "handle_right": {"Y": 0.0, "X": 0.5}, "handle_left": {"Y": 1.0, "X": 0.5}, "handle_type": 0}]}, "red": {"Points": [{"interpolation": 0, "co": {"Y": 0.0, "X": 1.0}, "handle_right": {"Y": 0.0, "X": 0.5}, "handle_left": {"Y": 1.0, "X": 0.5}, "handle_type": 0}]}, "green": {"Points": [{"interpolation": 0, "co": {"Y": 123.0, "X": 1.0}, "handle_right": {"Y": 0.0, "X": 0.5}, "handle_left": {"Y": 1.0, "X": 0.5}, "handle_type": 0}]}, "alpha": {"Points": [{"interpolation": 0, "co": {"Y": 255.0, "X": 1.0}, "handle_right": {"Y": 0.0, "X": 0.5}, "handle_left": {"Y": 1.0, "X": 0.5}, "handle_type": 0}]}}, "display": 0, "time": {"Points": [{"interpolation": 2, "co": {"Y": 1.0, "X": 1.0}}]}, "start": 0, "perspective_c3_y": {"Points": [{"interpolation": 2, "co": {"Y": -1.0, "X": 1.0}}]}, "title": "Demo-05-Slitt Class or Splitt lectures.mkv", "reader": {"pixel_format": 0, "audio_timebase": {"num": 1, "den": 1}, "pixel_ratio": {"num": 1, "den": 1}, "video_bit_rate": 0, "channels": 0, "video_stream_index": 0, "interlaced_frame": false, "path": "/home/milind/Data/Projects/CTTdemo/Demo-05-Slitt Class or Splitt lectures.mkv", "audio_stream_index": -1, "display_ratio": {"num": 683, "den": 384}, "has_single_image": false, "top_field_first": true, "vcodec": "h264", "video_length": "1025", "height": 768, "channel_layout": 4, "fps": {"num": 25, "den": 1}, "audio_bit_rate": 0, "acodec": "", "has_video": true, "file_size": "783366", "type": "FFmpegReader", "duration": 41.0, "video_timebase": {"num": 1, "den": 1000}, "has_audio": false, "sample_rate": 0, "width": 1366}, "crop_height": {"Points": [{"interpolation": 2, "co": {"Y": -1.0, "X": 1.0}}]}, "rotation": {"Points": [{"interpolation": 2, "co": {"Y": 0.0, "X": 1.0}}]}, "effects": [], "scale_x": {"Points": [{"interpolation": 2, "co": {"Y": 1.0, "X": 1.0}}]}, "perspective_c1_y": {"Points": [{"interpolation": 2, "co": {"Y": -1.0, "X": 1.0}}]}, "crop_width": {"Points": [{"interpolation": 2, "co": {"Y": -1.0, "X": 1.0}}]}, "perspective_c4_y": {"Points": [{"interpolation": 2, "co": {"Y": -1.0, "X": 1.0}}]}, "volume": {"Points": [{"interpolation": 2, "co": {"Y": 1.0, "X": 1.0}}]}, "scale_y": {"Points": [{"interpolation": 2, "co": {"Y": 1.0, "X": 1.0}}]}, "crop_y": {"Points": [{"interpolation": 2, "co": {"Y": 0.0, "X": 1.0}}]}, "perspective_c3_x": {"Points": [{"interpolation": 2, "co": {"Y": -1.0, "X": 1.0}}]}, "perspective_c4_x": {"Points": [{"interpolation": 2, "co": {"Y": -1.0, "X": 1.0}}]}, "duration": 41.0, "waveform": false, "has_audio": {"Points": [{"interpolation": 2, "co": {"Y": -1.0, "X": 1.0}}]}, "anchor": 0, "has_video": {"Points": [{"interpolation": 2, "co": {"Y": -1.0, "X": 1.0}}]}}, {"perspective_c2_y": {"Points": [{"interpolation": 2, "co": {"Y": -1.0, "X": 1.0}}]}, "crop_x": {"Points": [{"interpolation": 2, "co": {"Y": 0.0, "X": 1.0}}]}, "alpha": {"Points": [{"interpolation": 2, "co": {"Y": 1.0, "X": 1.0}}, {"interpolation": 0, "co": {"Y": 0.0, "X": 1.0}, "handle_right": {"Y": 0.0, "X": 0.5}, "handle_left": {"Y": 1.0, "X": 0.5}, "handle_type": 0}, {"interpolation": 0, "co": {"Y": 1.0, "X": 73.0}, "handle_right": {"Y": 0.0, "X": 0.5}, "handle_left": {"Y": 1.0, "X": 0.5}, "handle_type": 0}, {"interpolation": 0, "co": {"Y": 1.0, "X": 387.0}, "handle_right": {"Y": 0.0, "X": 0.5}, "handle_left": {"Y": 1.0, "X": 0.5}, "handle_type": 0}, {"interpolation": 0, "co": {"Y": 0.0, "X": 459.0}, "handle_right": {"Y": 0.0, "X": 0.5}, "handle_left": {"Y": 1.0, "X": 0.5}, "handle_type": 0}]}, "location_y": {"Points": [{"interpolation": 2, "co": {"Y": 0.0, "X": 1.0}}]}, "channel_mapping": {"Points": [{"interpolation": 2, "co": {"Y": -1.0, "X": 1.0}}]}, "layer": 4, "end": 19.083333333333343, "id": "QQCSZWQUN1", "gravity": 4, "perspective_c1_x": {"Points": [{"interpolation": 2, "co": {"Y": -1.0, "X": 1.0}}]}, "scale": 1, "perspective_c2_x": {"Points": [{"interpolation": 2, "co": {"Y": -1.0, "X": 1.0}}]}, "image": "/home/milind/.openshot_qt/thumbnail/O8MDU83AZY.png", "location_x": {"Points": [{"interpolation": 2, "co": {"Y": 0.0, "X": 1.0}}]}, "position": 160.4, "shear_y": {"Points": [{"interpolation": 2, "co": {"Y": 0.0, "X": 1.0}}]}, "file_id": "O8MDU83AZY", "shear_x": {"Points": [{"interpolation": 2, "co": {"Y": 0.0, "X": 1.0}}]}, "channel_filter": {"Points": [{"interpolation": 2, "co": {"Y": -1.0, "X": 1.0}}]}, "wave_color": {"blue": {"Points": [{"interpolation": 0, "co": {"Y": 255.0, "X": 1.0}, "handle_right": {"Y": 0.0, "X": 0.5}, "handle_left": {"Y": 1.0, "X": 0.5}, "handle_type": 0}]}, "red": {"Points": [{"interpolation": 0, "co": {"Y": 0.0, "X": 1.0}, "handle_right": {"Y": 0.0, "X": 0.5}, "handle_left": {"Y": 1.0, "X": 0.5}, "handle_type": 0}]}, "green": {"Points": [{"interpolation": 0, "co": {"Y": 123.0, "X": 1.0}, "handle_right": {"Y": 0.0, "X": 0.5}, "handle_left": {"Y": 1.0, "X": 0.5}, "handle_type": 0}]}, "alpha": {"Points": [{"interpolation": 0, "co": {"Y": 255.0, "X": 1.0}, "handle_right": {"Y": 0.0, "X": 0.5}, "handle_left": {"Y": 1.0, "X": 0.5}, "handle_type": 0}]}}, "display": 0, "time": {"Points": [{"interpolation": 2, "co": {"Y": 1.0, "X": 1.0}}]}, "start": 0, "perspective_c3_y": {"Points": [{"interpolation": 2, "co": {"Y": -1.0, "X": 1.0}}]}, "title": "Demo-06-Set School Name.mkv", "reader": {"pixel_format": 0, "audio_timebase": {"num": 1, "den": 1}, "pixel_ratio": {"num": 1, "den": 1}, "video_bit_rate": 0, "channels": 0, "video_stream_index": 0, "interlaced_frame": false, "path": "/home/milind/Data/Projects/CTTdemo/Demo-06-Set School Name.mkv", "audio_stream_index": -1, "display_ratio": {"num": 683, "den": 384}, "has_single_image": false, "top_field_first": true, "vcodec": "h264", "video_length": "600", "height": 768, "channel_layout": 4, "fps": {"num": 25, "den": 1}, "audio_bit_rate": 0, "acodec": "", "has_video": true, "file_size": "404652", "type": "FFmpegReader", "duration": 24.0, "video_timebase": {"num": 1, "den": 1000}, "has_audio": false, "sample_rate": 0, "width": 1366}, "crop_height": {"Points": [{"interpolation": 2, "co": {"Y": -1.0, "X": 1.0}}]}, "rotation": {"Points": [{"interpolation": 2, "co": {"Y": 0.0, "X": 1.0}}]}, "effects": [], "scale_x": {"Points": [{"interpolation": 2, "co": {"Y": 1.0, "X": 1.0}}]}, "perspective_c1_y": {"Points": [{"interpolation": 2, "co": {"Y": -1.0, "X": 1.0}}]}, "crop_width": {"Points": [{"interpolation": 2, "co": {"Y": -1.0, "X": 1.0}}]}, "perspective_c4_y": {"Points": [{"interpolation": 2, "co": {"Y": -1.0, "X": 1.0}}]}, "volume": {"Points": [{"interpolation": 2, "co": {"Y": 1.0, "X": 1.0}}]}, "scale_y": {"Points": [{"interpolation": 2, "co": {"Y": 1.0, "X": 1.0}}]}, "crop_y": {"Points": [{"interpolation": 2, "co": {"Y": 0.0, "X": 1.0}}]}, "perspective_c3_x": {"Points": [{"interpolation": 2, "co": {"Y": -1.0, "X": 1.0}}]}, "perspective_c4_x": {"Points": [{"interpolation": 2, "co": {"Y": -1.0, "X": 1.0}}]}, "duration": 24.0, "waveform": false, "has_audio": {"Points": [{"interpolation": 2, "co": {"Y": -1.0, "X": 1.0}}]}, "anchor": 0, "has_video": {"Points": [{"interpolation": 2, "co": {"Y": -1.0, "X": 1.0}}]}}, {"channel_mapping": {"Points": [{"interpolation": 2, "co": {"Y": -1.0, "X": 1.0}}]}, "crop_x": {"Points": [{"interpolation": 2, "co": {"Y": 0.0, "X": 1.0}}]}, "alpha": {"Points": [{"interpolation": 2, "co": {"Y": 1.0, "X": 1.0}}, {"interpolation": 0, "co": {"Y": 0.0, "X": 1.0}, "handle_right": {"Y": 0.0, "X": 0.5}, "handle_left": {"Y": 1.0, "X": 0.5}, "handle_type": 0}, {"interpolation": 0, "co": {"Y": 1.0, "X": 73.0}, "handle_right": {"Y": 0.0, "X": 0.5}, "handle_left": {"Y": 1.0, "X": 0.5}, "handle_type": 0}, {"co": {"Y": 0.0, "X": 1.0}, "interpolation": 0, "handle_right": {"Y": 0.0, "X": 0.5}, "handle_left": {"Y": 1.0, "X": 0.5}, "handle_type": 0}, {"co": {"Y": 1.0, "X": 73.0}, "interpolation": 0, "handle_right": {"Y": 0.0, "X": 0.5}, "handle_left": {"Y": 1.0, "X": 0.5}, "handle_type": 0}, {"co": {"Y": 1.0, "X": 609.0}, "interpolation": 0, "handle_right": {"Y": 0.0, "X": 0.5}, "handle_left": {"Y": 1.0, "X": 0.5}, "handle_type": 0}, {"co": {"Y": 0.0, "X": 681.0}, "interpolation": 0, "handle_right": {"Y": 0.0, "X": 0.5}, "handle_left": {"Y": 1.0, "X": 0.5}, "handle_type": 0}]}, "location_y": {"Points": [{"interpolation": 2, "co": {"Y": 0.0, "X": 1.0}}]}, "perspective_c2_y": {"Points": [{"interpolation": 2, "co": {"Y": -1.0, "X": 1.0}}]}, "end": 28.333333333333343, "id": "BPQZZB1IGM", "gravity": 4, "perspective_c1_x": {"Points": [{"interpolation": 2, "co": {"Y": -1.0, "X": 1.0}}]}, "scale": 1, "perspective_c2_x": {"Points": [{"interpolation": 2, "co": {"Y": -1.0, "X": 1.0}}]}, "image": "/home/milind/.openshot_qt/thumbnail/8BO13HSLCT.png", "volume": {"Points": [{"interpolation": 2, "co": {"Y": 1.0, "X": 1.0}}]}, "perspective_c4_x": {"Points": [{"interpolation": 2, "co": {"Y": -1.0, "X": 1.0}}]}, "shear_y": {"Points": [{"interpolation": 2, "co": {"Y": 0.0, "X": 1.0}}]}, "file_id": "8BO13HSLCT", "shear_x": {"Points": [{"interpolation": 2, "co": {"Y": 0.0, "X": 1.0}}]}, "channel_filter": {"Points": [{"interpolation": 2, "co": {"Y": -1.0, "X": 1.0}}]}, "wave_color": {"blue": {"Points": [{"interpolation": 0, "co": {"Y": 255.0, "X": 1.0}, "handle_right": {"Y": 0.0, "X": 0.5}, "handle_left": {"Y": 1.0, "X": 0.5}, "handle_type": 0}]}, "red": {"Points": [{"interpolation": 0, "co": {"Y": 0.0, "X": 1.0}, "handle_right": {"Y": 0.0, "X": 0.5}, "handle_left": {"Y": 1.0, "X": 0.5}, "handle_type": 0}]}, "green": {"Points": [{"interpolation": 0, "co": {"Y": 123.0, "X": 1.0}, "handle_right": {"Y": 0.0, "X": 0.5}, "handle_left": {"Y": 1.0, "X": 0.5}, "handle_type": 0}]}, "alpha": {"Points": [{"interpolation": 0, "co": {"Y": 255.0, "X": 1.0}, "handle_right": {"Y": 0.0, "X": 0.5}, "handle_left": {"Y": 1.0, "X": 0.5}, "handle_type": 0}]}}, "display": 0, "time": {"Points": [{"interpolation": 1, "co": {"Y": 1.0, "X": 1.0}}, {"interpolation": 1, "co": {"Y": 1585.0, "X": 793.0}}]}, "start": 0, "crop_y": {"Points": [{"interpolation": 2, "co": {"Y": 0.0, "X": 1.0}}]}, "title": "Demo-07-SetPrinter and Print Current.mkv", "crop_height": {"Points": [{"interpolation": 2, "co": {"Y": -1.0, "X": 1.0}}]}, "rotation": {"Points": [{"interpolation": 2, "co": {"Y": 0.0, "X": 1.0}}]}, "has_video": {"Points": [{"interpolation": 2, "co": {"Y": -1.0, "X": 1.0}}]}, "effects": [], "scale_x": {"Points": [{"interpolation": 2, "co": {"Y": 1.0, "X": 1.0}}]}, "perspective_c1_y": {"Points": [{"interpolation": 2, "co": {"Y": -1.0, "X": 1.0}}]}, "crop_width": {"Points": [{"interpolation": 2, "co": {"Y": -1.0, "X": 1.0}}]}, "perspective_c4_y": {"Points": [{"interpolation": 2, "co": {"Y": -1.0, "X": 1.0}}]}, "layer": 4, "scale_y": {"Points": [{"interpolation": 2, "co": {"Y": 1.0, "X": 1.0}}]}, "perspective_c3_y": {"Points": [{"interpolation": 2, "co": {"Y": -1.0, "X": 1.0}}]}, "perspective_c3_x": {"Points": [{"interpolation": 2, "co": {"Y": -1.0, "X": 1.0}}]}, "location_x": {"Points": [{"interpolation": 2, "co": {"Y": 0.0, "X": 1.0}}]}, "position": 179.4, "duration": 32.0, "reader": {"pixel_format": 0, "audio_timebase": {"num": 1, "den": 1}, "pixel_ratio": {"num": 1, "den": 1}, "video_bit_rate": 0, "channels": 0, "video_stream_index": 0, "interlaced_frame": false, "path": "/home/milind/Data/Projects/CTTdemo/Demo-07-SetPrinter and Print Current.mkv", "audio_stream_index": -1, "display_ratio": {"num": 683, "den": 384}, "has_single_image": false, "top_field_first": true, "vcodec": "h264", "video_length": "1650", "height": 768, "channel_layout": 4, "fps": {"num": 25, "den": 1}, "audio_bit_rate": 0, "acodec": "", "has_video": true, "file_size": "1142597", "type": "FFmpegReader", "duration": 66.0, "video_timebase": {"num": 1, "den": 1000}, "has_audio": false, "sample_rate": 0, "width": 1366}, "has_audio": {"Points": [{"interpolation": 2, "co": {"Y": -1.0, "X": 1.0}}]}, "anchor": 0, "waveform": false}, {"channel_mapping": {"Points": [{"interpolation": 2, "co": {"Y": -1.0, "X": 1.0}}]}, "crop_x": {"Points": [{"interpolation": 2, "co": {"Y": 0.0, "X": 1.0}}]}, "alpha": {"Points": [{"interpolation": 2, "co": {"Y": 1.0, "X": 1.0}}, {"interpolation": 0, "co": {"Y": 0.0, "X": 1.0}, "handle_right": {"Y": 0.0, "X": 0.5}, "handle_left": {"Y": 1.0, "X": 0.5}, "handle_type": 0}, {"interpolation": 0, "co": {"Y": 1.0, "X": 73.0}, "handle_right": {"Y": 0.0, "X": 0.5}, "handle_left": {"Y": 1.0, "X": 0.5}, "handle_type": 0}, {"interpolation": 0, "co": {"Y": 1.0, "X": 169.0}, "handle_right": {"Y": 0.0, "X": 0.5}, "handle_left": {"Y": 1.0, "X": 0.5}, "handle_type": 0}, {"interpolation": 0, "co": {"Y": 0.0, "X": 241.0}, "handle_right": {"Y": 0.0, "X": 0.5}, "handle_left": {"Y": 1.0, "X": 0.5}, "handle_type": 0}]}, "title": "Title-Start.svg", "perspective_c2_y": {"Points": [{"interpolation": 2, "co": {"Y": -1.0, "X": 1.0}}]}, "layer": 4, "end": 10, "id": "XT2N90YHJ7", "gravity": 4, "perspective_c1_x": {"Points": [{"interpolation": 2, "co": {"Y": -1.0, "X": 1.0}}]}, "scale": 1, "perspective_c2_x": {"Points": [{"interpolation": 2, "co": {"Y": -1.0, "X": 1.0}}]}, "image": "/home/milind/.openshot_qt/thumbnail/035S9FEBR2.png", "location_x": {"Points": [{"interpolation": 2, "co": {"Y": 0.0, "X": 1.0}}]}, "position": 0, "shear_y": {"Points": [{"interpolation": 2, "co": {"Y": 0.0, "X": 1.0}}]}, "file_id": "035S9FEBR2", "shear_x": {"Points": [{"interpolation": 2, "co": {"Y": 0.0, "X": 1.0}}]}, "channel_filter": {"Points": [{"interpolation": 2, "co": {"Y": -1.0, "X": 1.0}}]}, "wave_color": {"red": {"Points": [{"interpolation": 0, "co": {"Y": 0.0, "X": 1.0}, "handle_right": {"Y": 0.0, "X": 0.5}, "handle_left": {"Y": 1.0, "X": 0.5}, "handle_type": 0}]}, "blue": {"Points": [{"interpolation": 0, "co": {"Y": 255.0, "X": 1.0}, "handle_right": {"Y": 0.0, "X": 0.5}, "handle_left": {"Y": 1.0, "X": 0.5}, "handle_type": 0}]}, "green": {"Points": [{"interpolation": 0, "co": {"Y": 123.0, "X": 1.0}, "handle_right": {"Y": 0.0, "X": 0.5}, "handle_left": {"Y": 1.0, "X": 0.5}, "handle_type": 0}]}, "alpha": {"Points": [{"interpolation": 0, "co": {"Y": 255.0, "X": 1.0}, "handle_right": {"Y": 0.0, "X": 0.5}, "handle_left": {"Y": 1.0, "X": 0.5}, "handle_type": 0}]}}, "display": 0, "time": {"Points": [{"interpolation": 2, "co": {"Y": 1.0, "X": 1.0}}]}, "start": 0, "perspective_c3_y": {"Points": [{"interpolation": 2, "co": {"Y": -1.0, "X": 1.0}}]}, "location_y": {"Points": [{"interpolation": 2, "co": {"Y": 0.0, "X": 1.0}}]}, "crop_height": {"Points": [{"interpolation": 2, "co": {"Y": -1.0, "X": 1.0}}]}, "rotation": {"Points": [{"interpolation": 2, "co": {"Y": 0.0, "X": 1.0}}]}, "has_video": {"Points": [{"interpolation": 2, "co": {"Y": -1.0, "X": 1.0}}]}, "effects": [], "scale_x": {"Points": [{"interpolation": 2, "co": {"Y": 1.0, "X": 1.0}}]}, "perspective_c1_y": {"Points": [{"interpolation": 2, "co": {"Y": -1.0, "X": 1.0}}]}, "crop_width": {"Points": [{"interpolation": 2, "co": {"Y": -1.0, "X": 1.0}}]}, "perspective_c4_y": {"Points": [{"interpolation": 2, "co": {"Y": -1.0, "X": 1.0}}]}, "volume": {"Points": [{"interpolation": 2, "co": {"Y": 1.0, "X": 1.0}}]}, "scale_y": {"Points": [{"interpolation": 2, "co": {"Y": 1.0, "X": 1.0}}]}, "crop_y": {"Points": [{"interpolation": 2, "co": {"Y": 0.0, "X": 1.0}}]}, "perspective_c3_x": {"Points": [{"interpolation": 2, "co": {"Y": -1.0, "X": 1.0}}]}, "perspective_c4_x": {"Points": [{"interpolation": 2, "co": {"Y": -1.0, "X": 1.0}}]}, "duration": 86400.0, "reader": {"pixel_format": -1, "audio_timebase": {"num": 1, "den": 1}, "pixel_ratio": {"num": 1, "den": 1}, "video_bit_rate": 0, "channels": 0, "video_stream_index": -1, "interlaced_frame": false, "path": "/home/milind/Data/Projects/CTTdemo/assets/Title-Start.svg", "audio_stream_index": -1, "display_ratio": {"num": 16, "den": 9}, "has_single_image": true, "top_field_first": true, "vcodec": "", "video_length": "2592000", "height": 1080, "channel_layout": 4, "fps": {"num": 30, "den": 1}, "audio_bit_rate": 0, "acodec": "", "has_video": true, "file_size": "8294400", "type": "QtImageReader", "duration": 86400.0, "video_timebase": {"num": 1, "den": 30}, "has_audio": false, "sample_rate": 0, "width": 1920}, "has_audio": {"Points": [{"interpolation": 2, "co": {"Y": -1.0, "X": 1.0}}]}, "anchor": 0, "waveform": false}, {"channel_mapping": {"Points": [{"co": {"Y": -1.0, "X": 1.0}, "interpolation": 2}]}, "location_x": {"Points": [{"co": {"Y": 0.0, "X": 1.0}, "interpolation": 2}, {"co": {"Y": 0.0, "X": 1.0}, "interpolation": 0, "handle_right": {"Y": 0.0, "X": 0.5}, "handle_left": {"Y": 1.0, "X": 0.5}, "handle_type": 0}, {"co": {"Y": 0.0, "X": 241.0}, "interpolation": 0, "handle_right": {"Y": 0.0, "X": 0.5}, "handle_left": {"Y": 1.0, "X": 0.5}, "handle_type": 0}]}, "alpha": {"Points": [{"co": {"Y": 1.0, "X": 1.0}, "interpolation": 2}, {"co": {"Y": 0.0, "X": 1.0}, "interpolation": 0, "handle_right": {"Y": 0.0, "X": 0.5}, "handle_left": {"Y": 1.0, "X": 0.5}, "handle_type": 0}, {"co": {"Y": 1.0, "X": 73.0}, "interpolation": 0, "handle_right": {"Y": 0.0, "X": 0.5}, "handle_left": {"Y": 1.0, "X": 0.5}, "handle_type": 0}]}, "location_y": {"Points": [{"co": {"Y": 0.0, "X": 1.0}, "interpolation": 2}, {"co": {"Y": 1.0, "X": 1.0}, "interpolation": 0, "handle_right": {"Y": 0.0, "X": 0.5}, "handle_left": {"Y": 1.0, "X": 0.5}, "handle_type": 0}, {"co": {"Y": 0.0, "X": 241.0}, "interpolation": 0, "handle_right": {"Y": 0.0, "X": 0.5}, "handle_left": {"Y": 1.0, "X": 0.5}, "handle_type": 0}]}, "rotation": {"Points": [{"co": {"Y": 0.0, "X": 1.0}, "interpolation": 2}]}, "layer": 4, "id": "O3BG0Y7CKW", "gravity": 4, "perspective_c1_x": {"Points": [{"co": {"Y": -1.0, "X": 1.0}, "interpolation": 2}]}, "scale": 1, "waveform": false, "perspective_c2_x": {"Points": [{"co": {"Y": -1.0, "X": 1.0}, "interpolation": 2}]}, "image": "/home/milind/.openshot_qt/thumbnail/7WISDFXLOD.png", "effects": [], "perspective_c4_x": {"Points": [{"co": {"Y": -1.0, "X": 1.0}, "interpolation": 2}]}, "title": "closing.svg", "shear_y": {"Points": [{"co": {"Y": 0.0, "X": 1.0}, "interpolation": 2}]}, "file_id": "7WISDFXLOD", "shear_x": {"Points": [{"co": {"Y": 0.0, "X": 1.0}, "interpolation": 2}]}, "channel_filter": {"Points": [{"co": {"Y": -1.0, "X": 1.0}, "interpolation": 2}]}, "wave_color": {"blue": {"Points": [{"co": {"Y": 255.0, "X": 1.0}, "interpolation": 0, "handle_right": {"Y": 0.0, "X": 0.5}, "handle_left": {"Y": 1.0, "X": 0.5}, "handle_type": 0}]}, "red": {"Points": [{"co": {"Y": 0.0, "X": 1.0}, "interpolation": 0, "handle_right": {"Y": 0.0, "X": 0.5}, "handle_left": {"Y": 1.0, "X": 0.5}, "handle_type": 0}]}, "green": {"Points": [{"co": {"Y": 123.0, "X": 1.0}, "interpolation": 0, "handle_right": {"Y": 0.0, "X": 0.5}, "handle_left": {"Y": 1.0, "X": 0.5}, "handle_type": 0}]}, "alpha": {"Points": [{"co": {"Y": 255.0, "X": 1.0}, "interpolation": 0, "handle_right": {"Y": 0.0, "X": 0.5}, "handle_left": {"Y": 1.0, "X": 0.5}, "handle_type": 0}]}}, "display": 0, "time": {"Points": [{"co": {"Y": 1.0, "X": 1.0}, "interpolation": 2}]}, "crop_x": {"Points": [{"co": {"Y": 0.0, "X": 1.0}, "interpolation": 2}]}, "perspective_c2_y": {"Points": [{"co": {"Y": -1.0, "X": 1.0}, "interpolation": 2}]}, "end": 10, "crop_height": {"Points": [{"co": {"Y": -1.0, "X": 1.0}, "interpolation": 2}]}, "anchor": 0, "start": 0, "scale_x": {"Points": [{"co": {"Y": 1.0, "X": 1.0}, "interpolation": 2}]}, "perspective_c1_y": {"Points": [{"co": {"Y": -1.0, "X": 1.0}, "interpolation": 2}]}, "crop_width": {"Points": [{"co": {"Y": -1.0, "X": 1.0}, "interpolation": 2}]}, "perspective_c4_y": {"Points": [{"co": {"Y": -1.0, "X": 1.0}, "interpolation": 2}]}, "volume": {"Points": [{"co": {"Y": 1.0, "X": 1.0}, "interpolation": 2}]}, "scale_y": {"Points": [{"co": {"Y": 1.0, "X": 1.0}, "interpolation": 2}]}, "crop_y": {"Points": [{"co": {"Y": 0.0, "X": 1.0}, "interpolation": 2}]}, "perspective_c3_x": {"Points": [{"co": {"Y": -1.0, "X": 1.0}, "interpolation": 2}]}, "position": 207.7, "duration": 86400.0, "reader": {"pixel_format": -1, "audio_timebase": {"num": 1, "den": 1}, "pixel_ratio": {"num": 1, "den": 1}, "video_bit_rate": 0, "channels": 0, "video_stream_index": -1, "interlaced_frame": false, "audio_stream_index": -1, "display_ratio": {"num": 40, "den": 23}, "has_single_image": true, "top_field_first": true, "vcodec": "", "video_length": "2592000", "height": 1104, "channel_layout": 4, "fps": {"num": 30, "den": 1}, "audio_bit_rate": 0, "acodec": "", "type": "QtImageReader", "has_video": true, "file_size": "8478720", "path": "/home/milind/Data/Projects/CTTdemo/assets/closing.svg", "duration": 86400.0, "video_timebase": {"num": 1, "den": 30}, "has_audio": false, "sample_rate": 0, "width": 1920}, "has_audio": {"Points": [{"co": {"Y": -1.0, "X": 1.0}, "interpolation": 2}]}, "perspective_c3_y": {"Points": [{"co": {"Y": -1.0, "X": 1.0}, "interpolation": 2}]}, "has_video": {"Points": [{"co": {"Y": -1.0, "X": 1.0}, "interpolation": 2}]}}, {"channel_mapping": {"Points": [{"co": {"Y": -1.0, "X": 1.0}, "interpolation": 2}]}, "location_x": {"Points": [{"co": {"Y": 0.0, "X": 1.0}, "interpolation": 2}]}, "alpha": {"Points": [{"co": {"Y": 1.0, "X": 1.0}, "interpolation": 2}, {"co": {"Y": 1.0, "X": 169.0}, "interpolation": 0, "handle_right": {"Y": 0.0, "X": 0.5}, "handle_left": {"Y": 1.0, "X": 0.5}, "handle_type": 0}, {"co": {"Y": 0.0, "X": 241.0}, "interpolation": 0, "handle_right": {"Y": 0.0, "X": 0.5}, "handle_left": {"Y": 1.0, "X": 0.5}, "handle_type": 0}]}, "location_y": {"Points": [{"co": {"Y": 0.0, "X": 1.0}, "interpolation": 2}]}, "rotation": {"Points": [{"co": {"Y": 0.0, "X": 1.0}, "interpolation": 2}]}, "layer": 4, "id": "RBLMLKIP75", "gravity": 4, "perspective_c1_x": {"Points": [{"co": {"Y": -1.0, "X": 1.0}, "interpolation": 2}]}, "scale": 1, "waveform": false, "perspective_c2_x": {"Points": [{"co": {"Y": -1.0, "X": 1.0}, "interpolation": 2}]}, "image": "/home/milind/.openshot_qt/thumbnail/7WISDFXLOD.png", "effects": [], "perspective_c4_x": {"Points": [{"co": {"Y": -1.0, "X": 1.0}, "interpolation": 2}]}, "title": "closing.svg", "shear_y": {"Points": [{"co": {"Y": 0.0, "X": 1.0}, "interpolation": 2}]}, "file_id": "7WISDFXLOD", "shear_x": {"Points": [{"co": {"Y": 0.0, "X": 1.0}, "interpolation": 2}]}, "channel_filter": {"Points": [{"co": {"Y": -1.0, "X": 1.0}, "interpolation": 2}]}, "wave_color": {"blue": {"Points": [{"co": {"Y": 255.0, "X": 1.0}, "interpolation": 0, "handle_right": {"Y": 0.0, "X": 0.5}, "handle_left": {"Y": 1.0, "X": 0.5}, "handle_type": 0}]}, "red": {"Points": [{"co": {"Y": 0.0, "X": 1.0}, "interpolation": 0, "handle_right": {"Y": 0.0, "X": 0.5}, "handle_left": {"Y": 1.0, "X": 0.5}, "handle_type": 0}]}, "green": {"Points": [{"co": {"Y": 123.0, "X": 1.0}, "interpolation": 0, "handle_right": {"Y": 0.0, "X": 0.5}, "handle_left": {"Y": 1.0, "X": 0.5}, "handle_type": 0}]}, "alpha": {"Points": [{"co": {"Y": 255.0, "X": 1.0}, "interpolation": 0, "handle_right": {"Y": 0.0, "X": 0.5}, "handle_left": {"Y": 1.0, "X": 0.5}, "handle_type": 0}]}}, "display": 0, "time": {"Points": [{"co": {"Y": 1.0, "X": 1.0}, "interpolation": 2}]}, "crop_x": {"Points": [{"co": {"Y": 0.0, "X": 1.0}, "interpolation": 2}]}, "perspective_c2_y": {"Points": [{"co": {"Y": -1.0, "X": 1.0}, "interpolation": 2}]}, "end": 10, "crop_height": {"Points": [{"co": {"Y": -1.0, "X": 1.0}, "interpolation": 2}]}, "anchor": 0, "start": 0, "scale_x": {"Points": [{"co": {"Y": 1.0, "X": 1.0}, "interpolation": 2}]}, "perspective_c1_y": {"Points": [{"co": {"Y": -1.0, "X": 1.0}, "interpolation": 2}]}, "crop_width": {"Points": [{"co": {"Y": -1.0, "X": 1.0}, "interpolation": 2}]}, "perspective_c4_y": {"Points": [{"co": {"Y": -1.0, "X": 1.0}, "interpolation": 2}]}, "volume": {"Points": [{"co": {"Y": 1.0, "X": 1.0}, "interpolation": 2}]}, "scale_y": {"Points": [{"co": {"Y": 1.0, "X": 1.0}, "interpolation": 2}]}, "crop_y": {"Points": [{"co": {"Y": 0.0, "X": 1.0}, "interpolation": 2}]}, "perspective_c3_x": {"Points": [{"co": {"Y": -1.0, "X": 1.0}, "interpolation": 2}]}, "position": 217.7, "duration": 86400.0, "reader": {"pixel_format": -1, "audio_timebase": {"num": 1, "den": 1}, "pixel_ratio": {"num": 1, "den": 1}, "video_bit_rate": 0, "channels": 0, "video_stream_index": -1, "interlaced_frame": false, "audio_stream_index": -1, "display_ratio": {"num": 40, "den": 23}, "has_single_image": true, "top_field_first": true, "vcodec": "", "video_length": "2592000", "height": 1104, "channel_layout": 4, "fps": {"num": 30, "den": 1}, "audio_bit_rate": 0, "acodec": "", "type": "QtImageReader", "has_video": true, "file_size": "8478720", "path": "/home/milind/Data/Projects/CTTdemo/assets/closing.svg", "duration": 86400.0, "video_timebase": {"num": 1, "den": 30}, "has_audio": false, "sample_rate": 0, "width": 1920}, "has_audio": {"Points": [{"co": {"Y": -1.0, "X": 1.0}, "interpolation": 2}]}, "perspective_c3_y": {"Points": [{"co": {"Y": -1.0, "X": 1.0}, "interpolation": 2}]}, "has_video": {"Points": [{"co": {"Y": -1.0, "X": 1.0}, "interpolation": 2}]}}], "type": "insert", "key": ["clips"], "value": {"channel_mapping": {"Points": [{"co": {"Y": -1.0, "X": 1.0}, "interpolation": 2}]}, "location_x": {"Points": [{"co": {"Y": 0.0, "X": 1.0}, "interpolation": 2}]}, "alpha": {"Points": [{"co": {"Y": 1.0, "X": 1.0}, "interpolation": 2}, {"co": {"Y": 0.0, "X": 1.0}, "interpolation": 0, "handle_right": {"Y": 0.0, "X": 0.5}, "handle_left": {"Y": 1.0, "X": 0.5}, "handle_type": 0}, {"co": {"Y": 1.0, "X": 73.0}, "interpolation": 0, "handle_right": {"Y": 0.0, "X": 0.5}, "handle_left": {"Y": 1.0, "X": 0.5}, "handle_type": 0}, {"co": {"Y": 1.0, "X": 169.0}, "interpolation": 0, "handle_right": {"Y": 0.0, "X": 0.5}, "handle_left": {"Y": 1.0, "X": 0.5}, "handle_type": 0}, {"co": {"Y": 0.0, "X": 241.0}, "interpolation": 0, "handle_right": {"Y": 0.0, "X": 0.5}, "handle_left": {"Y": 1.0, "X": 0.5}, "handle_type": 0}]}, "location_y": {"Points": [{"co": {"Y": 0.0, "X": 1.0}, "interpolation": 2}]}, "rotation": {"Points": [{"co": {"Y": 0.0, "X": 1.0}, "interpolation": 2}]}, "end": 10, "id": "MXGXM90EWM", "gravity": 4, "perspective_c1_x": {"Points": [{"co": {"Y": -1.0, "X": 1.0}, "interpolation": 2}]}, "scale": 1, "perspective_c2_x": {"Points": [{"co": {"Y": -1.0, "X": 1.0}, "interpolation": 2}]}, "image": "/home/milind/.openshot_qt/thumbnail/YB8WHQZUJE.png", "effects": [], "perspective_c4_x": {"Points": [{"co": {"Y": -1.0, "X": 1.0}, "interpolation": 2}]}, "shear_y": {"Points": [{"co": {"Y": 0.0, "X": 1.0}, "interpolation": 2}]}, "file_id": "YB8WHQZUJE", "shear_x": {"Points": [{"co": {"Y": 0.0, "X": 1.0}, "interpolation": 2}]}, "perspective_c3_y": {"Points": [{"co": {"Y": -1.0, "X": 1.0}, "interpolation": 2}]}, "channel_filter": {"Points": [{"co": {"Y": -1.0, "X": 1.0}, "interpolation": 2}]}, "wave_color": {"blue": {"Points": [{"co": {"Y": 255.0, "X": 1.0}, "interpolation": 0, "handle_right": {"Y": 0.0, "X": 0.5}, "handle_left": {"Y": 1.0, "X": 0.5}, "handle_type": 0}]}, "red": {"Points": [{"co": {"Y": 0.0, "X": 1.0}, "interpolation": 0, "handle_right": {"Y": 0.0, "X": 0.5}, "handle_left": {"Y": 1.0, "X": 0.5}, "handle_type": 0}]}, "green": {"Points": [{"co": {"Y": 123.0, "X": 1.0}, "interpolation": 0, "handle_right": {"Y": 0.0, "X": 0.5}, "handle_left": {"Y": 1.0, "X": 0.5}, "handle_type": 0}]}, "alpha": {"Points": [{"co": {"Y": 255.0, "X": 1.0}, "interpolation": 0, "handle_right": {"Y": 0.0, "X": 0.5}, "handle_left": {"Y": 1.0, "X": 0.5}, "handle_type": 0}]}}, "display": 0, "time": {"Points": [{"co": {"Y": 1.0, "X": 1.0}, "interpolation": 2}]}, "crop_x": {"Points": [{"co": {"Y": 0.0, "X": 1.0}, "interpolation": 2}]}, "crop_y": {"Points": [{"co": {"Y": 0.0, "X": 1.0}, "interpolation": 2}]}, "perspective_c2_y": {"Points": [{"co": {"Y": -1.0, "X": 1.0}, "interpolation": 2}]}, "title": "ILUG-MSG.svg", "crop_height": {"Points": [{"co": {"Y": -1.0, "X": 1.0}, "interpolation": 2}]}, "volume": {"Points": [{"co": {"Y": 1.0, "X": 1.0}, "interpolation": 2}]}, "start": 0, "scale_x": {"Points": [{"co": {"Y": 1.0, "X": 1.0}, "interpolation": 2}]}, "perspective_c1_y": {"Points": [{"co": {"Y": -1.0, "X": 1.0}, "interpolation": 2}]}, "crop_width": {"Points": [{"co": {"Y": -1.0, "X": 1.0}, "interpolation": 2}]}, "perspective_c4_y": {"Points": [{"co": {"Y": -1.0, "X": 1.0}, "interpolation": 2}]}, "layer": 4, "scale_y": {"Points": [{"co": {"Y": 1.0, "X": 1.0}, "interpolation": 2}]}, "has_video": {"Points": [{"co": {"Y": -1.0, "X": 1.0}, "interpolation": 2}]}, "perspective_c3_x": {"Points": [{"co": {"Y": -1.0, "X": 1.0}, "interpolation": 2}]}, "position": 227.7, "duration": 86400.0, "reader": {"pixel_format": -1, "top_field_first": true, "pixel_ratio": {"num": 1, "den": 1}, "video_bit_rate": 0, "channels": 0, "video_stream_index": -1, "interlaced_frame": false, "path": "/home/milind/Data/Projects/CTTdemo/assets/ILUG-MSG.svg", "audio_stream_index": -1, "display_ratio": {"num": 40, "den": 23}, "has_single_image": true, "audio_timebase": {"num": 1, "den": 1}, "vcodec": "", "video_length": "2592000", "height": 1104, "channel_layout": 4, "fps": {"num": 30, "den": 1}, "audio_bit_rate": 0, "acodec": "", "has_video": true, "file_size": "8478720", "type": "QtImageReader", "duration": 86400.0, "video_timebase": {"num": 1, "den": 30}, "has_audio": false, "sample_rate": 0, "width": 1920}, "has_audio": {"Points": [{"co": {"Y": -1.0, "X": 1.0}, "interpolation": 2}]}, "anchor": 0, "waveform": false}, "partial": false}, {"old_values": {"channel_mapping": {"Points": [{"co": {"Y": -1.0, "X": 1.0}, "interpolation": 2}]}, "crop_x": {"Points": [{"co": {"Y": 0.0, "X": 1.0}, "interpolation": 2}]}, "alpha": {"Points": [{"co": {"Y": 1.0, "X": 1.0}, "interpolation": 2}]}, "title": "ILUG-MSG.svg", "perspective_c2_y": {"Points": [{"co": {"Y": -1.0, "X": 1.0}, "interpolation": 2}]}, "layer": 4, "id": "MXGXM90EWM", "gravity": 4, "perspective_c1_x": {"Points": [{"co": {"Y": -1.0, "X": 1.0}, "interpolation": 2}]}, "scale": 1, "anchor": 0, "perspective_c2_x": {"Points": [{"co": {"Y": -1.0, "X": 1.0}, "interpolation": 2}]}, "image": "/home/milind/.openshot_qt/thumbnail/YB8WHQZUJE.png", "effects": [], "perspective_c4_x": {"Points": [{"co": {"Y": -1.0, "X": 1.0}, "interpolation": 2}]}, "shear_y": {"Points": [{"co": {"Y": 0.0, "X": 1.0}, "interpolation": 2}]}, "file_id": "YB8WHQZUJE", "shear_x": {"Points": [{"co": {"Y": 0.0, "X": 1.0}, "interpolation": 2}]}, "channel_filter": {"Points": [{"co": {"Y": -1.0, "X": 1.0}, "interpolation": 2}]}, "wave_color": {"blue": {"Points": [{"co": {"Y": 255.0, "X": 1.0}, "interpolation": 0, "handle_right": {"Y": 0.0, "X": 0.5}, "handle_left": {"Y": 1.0, "X": 0.5}, "handle_type": 0}]}, "red": {"Points": [{"co": {"Y": 0.0, "X": 1.0}, "interpolation": 0, "handle_right": {"Y": 0.0, "X": 0.5}, "handle_left": {"Y": 1.0, "X": 0.5}, "handle_type": 0}]}, "green": {"Points": [{"co": {"Y": 123.0, "X": 1.0}, "interpolation": 0, "handle_right": {"Y": 0.0, "X": 0.5}, "handle_left": {"Y": 1.0, "X": 0.5}, "handle_type": 0}]}, "alpha": {"Points": [{"co": {"Y": 255.0, "X": 1.0}, "interpolation": 0, "handle_right": {"Y": 0.0, "X": 0.5}, "handle_left": {"Y": 1.0, "X": 0.5}, "handle_type": 0}]}}, "display": 0, "location_y": {"Points": [{"co": {"Y": 0.0, "X": 1.0}, "interpolation": 2}]}, "time": {"Points": [{"co": {"Y": 1.0, "X": 1.0}, "interpolation": 2}]}, "start": 0.0, "perspective_c3_y": {"Points": [{"co": {"Y": -1.0, "X": 1.0}, "interpolation": 2}]}, "end": 10.0, "crop_height": {"Points": [{"co": {"Y": -1.0, "X": 1.0}, "interpolation": 2}]}, "rotation": {"Points": [{"co": {"Y": 0.0, "X": 1.0}, "interpolation": 2}]}, "scale_x": {"Points": [{"co": {"Y": 1.0, "X": 1.0}, "interpolation": 2}]}, "perspective_c1_y": {"Points": [{"co": {"Y": -1.0, "X": 1.0}, "interpolation": 2}]}, "crop_width": {"Points": [{"co": {"Y": -1.0, "X": 1.0}, "interpolation": 2}]}, "perspective_c4_y": {"Points": [{"co": {"Y": -1.0, "X": 1.0}, "interpolation": 2}]}, "volume": {"Points": [{"co": {"Y": 1.0, "X": 1.0}, "interpolation": 2}]}, "scale_y": {"Points": [{"co": {"Y": 1.0, "X": 1.0}, "interpolation": 2}]}, "has_video": {"Points": [{"co": {"Y": -1.0, "X": 1.0}, "interpolation": 2}]}, "perspective_c3_x": {"Points": [{"co": {"Y": -1.0, "X": 1.0}, "interpolation": 2}]}, "location_x": {"Points": [{"co": {"Y": 0.0, "X": 1.0}, "interpolation": 2}]}, "position": 210.7, "duration": 86400.0, "reader": {"pixel_format": -1, "audio_timebase": {"num": 1, "den": 1}, "pixel_ratio": {"num": 1, "den": 1}, "video_bit_rate": 0, "channels": 0, "video_stream_index": -1, "interlaced_frame": false, "audio_stream_index": -1, "display_ratio": {"num": 40, "den": 23}, "has_single_image": true, "top_field_first": true, "vcodec": "", "video_length": "2592000", "height": 1104, "channel_layout": 4, "fps": {"num": 30, "den": 1}, "audio_bit_rate": 0, "acodec": "", "type": "QtImageReader", "has_video": true, "file_size": "8478720", "path": "/home/milind/Data/Projects/CTTdemo/assets/ILUG-MSG.svg", "duration": 86400.0, "video_timebase": {"num": 1, "den": 30}, "has_audio": false, "sample_rate": 0, "width": 1920}, "has_audio": {"Points": [{"co": {"Y": -1.0, "X": 1.0}, "interpolation": 2}]}, "crop_y": {"Points": [{"co": {"Y": 0.0, "X": 1.0}, "interpolation": 2}]}, "waveform": false}, "type": "update", "key": ["clips", {"id": "MXGXM90EWM"}], "value": {"image": "/home/milind/.openshot_qt/thumbnail/YB8WHQZUJE.png", "layer": 4, "position": 227.7, "end": 10, "id": "MXGXM90EWM", "start": 0}, "partial": false}, {"old_values": {"channel_mapping": {"Points": [{"co": {"Y": -1.0, "X": 1.0}, "interpolation": 2}]}, "location_x": {"Points": [{"co": {"Y": 0.0, "X": 1.0}, "interpolation": 2}]}, "alpha": {"Points": [{"co": {"Y": 1.0, "X": 1.0}, "interpolation": 2}]}, "location_y": {"Points": [{"co": {"Y": 0.0, "X": 1.0}, "interpolation": 2}]}, "rotation": {"Points": [{"co": {"Y": 0.0, "X": 1.0}, "interpolation": 2}]}, "layer": 4, "id": "MXGXM90EWM", "gravity": 4, "perspective_c1_x": {"Points": [{"co": {"Y": -1.0, "X": 1.0}, "interpolation": 2}]}, "scale": 1, "waveform": false, "perspective_c2_x": {"Points": [{"co": {"Y": -1.0, "X": 1.0}, "interpolation": 2}]}, "image": "/home/milind/.openshot_qt/thumbnail/YB8WHQZUJE.png", "effects": [], "perspective_c4_x": {"Points": [{"co": {"Y": -1.0, "X": 1.0}, "interpolation": 2}]}, "title": "ILUG-MSG.svg", "shear_y": {"Points": [{"co": {"Y": 0.0, "X": 1.0}, "interpolation": 2}]}, "file_id": "YB8WHQZUJE", "shear_x": {"Points": [{"co": {"Y": 0.0, "X": 1.0}, "interpolation": 2}]}, "channel_filter": {"Points": [{"co": {"Y": -1.0, "X": 1.0}, "interpolation": 2}]}, "wave_color": {"blue": {"Points": [{"co": {"Y": 255.0, "X": 1.0}, "interpolation": 0, "handle_right": {"Y": 0.0, "X": 0.5}, "handle_left": {"Y": 1.0, "X": 0.5}, "handle_type": 0}]}, "red": {"Points": [{"co": {"Y": 0.0, "X": 1.0}, "interpolation": 0, "handle_right": {"Y": 0.0, "X": 0.5}, "handle_left": {"Y": 1.0, "X": 0.5}, "handle_type": 0}]}, "green": {"Points": [{"co": {"Y": 123.0, "X": 1.0}, "interpolation": 0, "handle_right": {"Y": 0.0, "X": 0.5}, "handle_left": {"Y": 1.0, "X": 0.5}, "handle_type": 0}]}, "alpha": {"Points": [{"co": {"Y": 255.0, "X": 1.0}, "interpolation": 0, "handle_right": {"Y": 0.0, "X": 0.5}, "handle_left": {"Y": 1.0, "X": 0.5}, "handle_type": 0}]}}, "display": 0, "time": {"Points": [{"co": {"Y": 1.0, "X": 1.0}, "interpolation": 2}]}, "crop_x": {"Points": [{"co": {"Y": 0.0, "X": 1.0}, "interpolation": 2}]}, "perspective_c2_y": {"Points": [{"co": {"Y": -1.0, "X": 1.0}, "interpolation": 2}]}, "end": 10, "crop_height": {"Points": [{"co": {"Y": -1.0, "X": 1.0}, "interpolation": 2}]}, "anchor": 0, "start": 0, "scale_x": {"Points": [{"co": {"Y": 1.0, "X": 1.0}, "interpolation": 2}]}, "perspective_c1_y": {"Points": [{"co": {"Y": -1.0, "X": 1.0}, "interpolation": 2}]}, "crop_width": {"Points": [{"co": {"Y": -1.0, "X": 1.0}, "interpolation": 2}]}, "perspective_c4_y": {"Points": [{"co": {"Y": -1.0, "X": 1.0}, "interpolation": 2}]}, "volume": {"Points": [{"co": {"Y": 1.0, "X": 1.0}, "interpolation": 2}]}, "scale_y": {"Points": [{"co": {"Y": 1.0, "X": 1.0}, "interpolation": 2}]}, "crop_y": {"Points": [{"co": {"Y": 0.0, "X": 1.0}, "interpolation": 2}]}, "perspective_c3_x": {"Points": [{"co": {"Y": -1.0, "X": 1.0}, "interpolation": 2}]}, "position": 227.7, "duration": 86400.0, "reader": {"pixel_format": -1, "audio_timebase": {"num": 1, "den": 1}, "pixel_ratio": {"num": 1, "den": 1}, "video_bit_rate": 0, "channels": 0, "video_stream_index": -1, "interlaced_frame": false, "audio_stream_index": -1, "display_ratio": {"num": 40, "den": 23}, "has_single_image": true, "top_field_first": true, "vcodec": "", "video_length": "2592000", "height": 1104, "channel_layout": 4, "fps": {"num": 30, "den": 1}, "audio_bit_rate": 0, "acodec": "", "type": "QtImageReader", "has_video": true, "file_size": "8478720", "path": "/home/milind/Data/Projects/CTTdemo/assets/ILUG-MSG.svg", "duration": 86400.0, "video_timebase": {"num": 1, "den": 30}, "has_audio": false, "sample_rate": 0, "width": 1920}, "has_audio": {"Points": [{"co": {"Y": -1.0, "X": 1.0}, "interpolation": 2}]}, "perspective_c3_y": {"Points": [{"co": {"Y": -1.0, "X": 1.0}, "interpolation": 2}]}, "has_video": {"Points": [{"co": {"Y": -1.0, "X": 1.0}, "interpolation": 2}]}}, "type": "update", "key": ["clips", {"id": "MXGXM90EWM"}], "value": {"channel_mapping": {"Points": [{"co": {"Y": -1.0, "X": 1.0}, "interpolation": 2}]}, "location_x": {"Points": [{"co": {"Y": 0.0, "X": 1.0}, "interpolation": 2}]}, "alpha": {"Points": [{"co": {"Y": 1.0, "X": 1.0}, "interpolation": 2}, {"co": {"Y": 0.0, "X": 1.0}, "interpolation": 0, "handle_right": {"Y": 0.0, "X": 0.5}, "handle_left": {"Y": 1.0, "X": 0.5}, "handle_type": 0}, {"co": {"Y": 1.0, "X": 73.0}, "interpolation": 0, "handle_right": {"Y": 0.0, "X": 0.5}, "handle_left": {"Y": 1.0, "X": 0.5}, "handle_type": 0}]}, "location_y": {"Points": [{"co": {"Y": 0.0, "X": 1.0}, "interpolation": 2}]}, "rotation": {"Points": [{"co": {"Y": 0.0, "X": 1.0}, "interpolation": 2}]}, "layer": 4, "id": "MXGXM90EWM", "gravity": 4, "perspective_c1_x": {"Points": [{"co": {"Y": -1.0, "X": 1.0}, "interpolation": 2}]}, "scale": 1, "perspective_c2_x": {"Points": [{"co": {"Y": -1.0, "X": 1.0}, "interpolation": 2}]}, "image": "/home/milind/.openshot_qt/thumbnail/YB8WHQZUJE.png", "effects": [], "perspective_c4_x": {"Points": [{"co": {"Y": -1.0, "X": 1.0}, "interpolation": 2}]}, "title": "ILUG-MSG.svg", "shear_y": {"Points": [{"co": {"Y": 0.0, "X": 1.0}, "interpolation": 2}]}, "file_id": "YB8WHQZUJE", "shear_x": {"Points": [{"co": {"Y": 0.0, "X": 1.0}, "interpolation": 2}]}, "channel_filter": {"Points": [{"co": {"Y": -1.0, "X": 1.0}, "interpolation": 2}]}, "wave_color": {"blue": {"Points": [{"co": {"Y": 255.0, "X": 1.0}, "interpolation": 0, "handle_right": {"Y": 0.0, "X": 0.5}, "handle_left": {"Y": 1.0, "X": 0.5}, "handle_type": 0}]}, "red": {"Points": [{"co": {"Y": 0.0, "X": 1.0}, "interpolation": 0, "handle_right": {"Y": 0.0, "X": 0.5}, "handle_left": {"Y": 1.0, "X": 0.5}, "handle_type": 0}]}, "green": {"Points": [{"co": {"Y": 123.0, "X": 1.0}, "interpolation": 0, "handle_right": {"Y": 0.0, "X": 0.5}, "handle_left": {"Y": 1.0, "X": 0.5}, "handle_type": 0}]}, "alpha": {"Points": [{"co": {"Y": 255.0, "X": 1.0}, "interpolation": 0, "handle_right": {"Y": 0.0, "X": 0.5}, "handle_left": {"Y": 1.0, "X": 0.5}, "handle_type": 0}]}}, "display": 0, "time": {"Points": [{"co": {"Y": 1.0, "X": 1.0}, "interpolation": 2}]}, "crop_x": {"Points": [{"co": {"Y": 0.0, "X": 1.0}, "interpolation": 2}]}, "perspective_c2_y": {"Points": [{"co": {"Y": -1.0, "X": 1.0}, "interpolation": 2}]}, "end": 10, "crop_height": {"Points": [{"co": {"Y": -1.0, "X": 1.0}, "interpolation": 2}]}, "anchor": 0, "start": 0, "scale_x": {"Points": [{"co": {"Y": 1.0, "X": 1.0}, "interpolation": 2}]}, "perspective_c1_y": {"Points": [{"co": {"Y": -1.0, "X": 1.0}, "interpolation": 2}]}, "crop_width": {"Points": [{"co": {"Y": -1.0, "X": 1.0}, "interpolation": 2}]}, "perspective_c4_y": {"Points": [{"co": {"Y": -1.0, "X": 1.0}, "interpolation": 2}]}, "volume": {"Points": [{"co": {"Y": 1.0, "X": 1.0}, "interpolation": 2}]}, "scale_y": {"Points": [{"co": {"Y": 1.0, "X": 1.0}, "interpolation": 2}]}, "crop_y": {"Points": [{"co": {"Y": 0.0, "X": 1.0}, "interpolation": 2}]}, "perspective_c3_x": {"Points": [{"co": {"Y": -1.0, "X": 1.0}, "interpolation": 2}]}, "position": 227.7, "duration": 86400.0, "waveform": false, "has_audio": {"Points": [{"co": {"Y": -1.0, "X": 1.0}, "interpolation": 2}]}, "perspective_c3_y": {"Points": [{"co": {"Y": -1.0, "X": 1.0}, "interpolation": 2}]}, "has_video": {"Points": [{"co": {"Y": -1.0, "X": 1.0}, "interpolation": 2}]}}, "partial": false}, {"old_values": {"channel_mapping": {"Points": [{"co": {"Y": -1.0, "X": 1.0}, "interpolation": 2}]}, "location_x": {"Points": [{"co": {"Y": 0.0, "X": 1.0}, "interpolation": 2}]}, "alpha": {"Points": [{"co": {"Y": 1.0, "X": 1.0}, "interpolation": 2}, {"co": {"Y": 0.0, "X": 1.0}, "interpolation": 0, "handle_right": {"Y": 0.0, "X": 0.5}, "handle_left": {"Y": 1.0, "X": 0.5}, "handle_type": 0}, {"co": {"Y": 1.0, "X": 73.0}, "interpolation": 0, "handle_right": {"Y": 0.0, "X": 0.5}, "handle_left": {"Y": 1.0, "X": 0.5}, "handle_type": 0}]}, "location_y": {"Points": [{"co": {"Y": 0.0, "X": 1.0}, "interpolation": 2}]}, "rotation": {"Points": [{"co": {"Y": 0.0, "X": 1.0}, "interpolation": 2}]}, "layer": 4, "id": "MXGXM90EWM", "gravity": 4, "perspective_c1_x": {"Points": [{"co": {"Y": -1.0, "X": 1.0}, "interpolation": 2}]}, "scale": 1, "waveform": false, "perspective_c2_x": {"Points": [{"co": {"Y": -1.0, "X": 1.0}, "interpolation": 2}]}, "image": "/home/milind/.openshot_qt/thumbnail/YB8WHQZUJE.png", "effects": [], "perspective_c4_x": {"Points": [{"co": {"Y": -1.0, "X": 1.0}, "interpolation": 2}]}, "title": "ILUG-MSG.svg", "shear_y": {"Points": [{"co": {"Y": 0.0, "X": 1.0}, "interpolation": 2}]}, "file_id": "YB8WHQZUJE", "shear_x": {"Points": [{"co": {"Y": 0.0, "X": 1.0}, "interpolation": 2}]}, "channel_filter": {"Points": [{"co": {"Y": -1.0, "X": 1.0}, "interpolation": 2}]}, "wave_color": {"blue": {"Points": [{"co": {"Y": 255.0, "X": 1.0}, "interpolation": 0, "handle_right": {"Y": 0.0, "X": 0.5}, "handle_left": {"Y": 1.0, "X": 0.5}, "handle_type": 0}]}, "red": {"Points": [{"co": {"Y": 0.0, "X": 1.0}, "interpolation": 0, "handle_right": {"Y": 0.0, "X": 0.5}, "handle_left": {"Y": 1.0, "X": 0.5}, "handle_type": 0}]}, "green": {"Points": [{"co": {"Y": 123.0, "X": 1.0}, "interpolation": 0, "handle_right": {"Y": 0.0, "X": 0.5}, "handle_left": {"Y": 1.0, "X": 0.5}, "handle_type": 0}]}, "alpha": {"Points": [{"co": {"Y": 255.0, "X": 1.0}, "interpolation": 0, "handle_right": {"Y": 0.0, "X": 0.5}, "handle_left": {"Y": 1.0, "X": 0.5}, "handle_type": 0}]}}, "display": 0, "time": {"Points": [{"co": {"Y": 1.0, "X": 1.0}, "interpolation": 2}]}, "crop_x": {"Points": [{"co": {"Y": 0.0, "X": 1.0}, "interpolation": 2}]}, "perspective_c2_y": {"Points": [{"co": {"Y": -1.0, "X": 1.0}, "interpolation": 2}]}, "end": 10, "crop_height": {"Points": [{"co": {"Y": -1.0, "X": 1.0}, "interpolation": 2}]}, "anchor": 0, "start": 0, "scale_x": {"Points": [{"co": {"Y": 1.0, "X": 1.0}, "interpolation": 2}]}, "perspective_c1_y": {"Points": [{"co": {"Y": -1.0, "X": 1.0}, "interpolation": 2}]}, "crop_width": {"Points": [{"co": {"Y": -1.0, "X": 1.0}, "interpolation": 2}]}, "perspective_c4_y": {"Points": [{"co": {"Y": -1.0, "X": 1.0}, "interpolation": 2}]}, "volume": {"Points": [{"co": {"Y": 1.0, "X": 1.0}, "interpolation": 2}]}, "scale_y": {"Points": [{"co": {"Y": 1.0, "X": 1.0}, "interpolation": 2}]}, "crop_y": {"Points": [{"co": {"Y": 0.0, "X": 1.0}, "interpolation": 2}]}, "perspective_c3_x": {"Points": [{"co": {"Y": -1.0, "X": 1.0}, "interpolation": 2}]}, "position": 227.7, "duration": 86400.0, "reader": {"pixel_format": -1, "audio_timebase": {"num": 1, "den": 1}, "pixel_ratio": {"num": 1, "den": 1}, "video_bit_rate": 0, "channels": 0, "video_stream_index": -1, "interlaced_frame": false, "audio_stream_index": -1, "display_ratio": {"num": 40, "den": 23}, "has_single_image": true, "top_field_first": true, "vcodec": "", "video_length": "2592000", "height": 1104, "channel_layout": 4, "fps": {"num": 30, "den": 1}, "audio_bit_rate": 0, "acodec": "", "type": "QtImageReader", "has_video": true, "file_size": "8478720", "path": "/home/milind/Data/Projects/CTTdemo/assets/ILUG-MSG.svg", "duration": 86400.0, "video_timebase": {"num": 1, "den": 30}, "has_audio": false, "sample_rate": 0, "width": 1920}, "has_audio": {"Points": [{"co": {"Y": -1.0, "X": 1.0}, "interpolation": 2}]}, "perspective_c3_y": {"Points": [{"co": {"Y": -1.0, "X": 1.0}, "interpolation": 2}]}, "has_video": {"Points": [{"co": {"Y": -1.0, "X": 1.0}, "interpolation": 2}]}}, "type": "update", "key": ["clips", {"id": "MXGXM90EWM"}], "value": {"channel_mapping": {"Points": [{"co": {"Y": -1.0, "X": 1.0}, "interpolation": 2}]}, "location_x": {"Points": [{"co": {"Y": 0.0, "X": 1.0}, "interpolation": 2}]}, "alpha": {"Points": [{"co": {"Y": 1.0, "X": 1.0}, "interpolation": 2}, {"co": {"Y": 0.0, "X": 1.0}, "interpolation": 0, "handle_right": {"Y": 0.0, "X": 0.5}, "handle_left": {"Y": 1.0, "X": 0.5}, "handle_type": 0}, {"co": {"Y": 1.0, "X": 73.0}, "interpolation": 0, "handle_right": {"Y": 0.0, "X": 0.5}, "handle_left": {"Y": 1.0, "X": 0.5}, "handle_type": 0}, {"co": {"Y": 1.0, "X": 169.0}, "interpolation": 0, "handle_right": {"Y": 0.0, "X": 0.5}, "handle_left": {"Y": 1.0, "X": 0.5}, "handle_type": 0}, {"co": {"Y": 0.0, "X": 241.0}, "interpolation": 0, "handle_right": {"Y": 0.0, "X": 0.5}, "handle_left": {"Y": 1.0, "X": 0.5}, "handle_type": 0}]}, "location_y": {"Points": [{"co": {"Y": 0.0, "X": 1.0}, "interpolation": 2}]}, "rotation": {"Points": [{"co": {"Y": 0.0, "X": 1.0}, "interpolation": 2}]}, "layer": 4, "id": "MXGXM90EWM", "gravity": 4, "perspective_c1_x": {"Points": [{"co": {"Y": -1.0, "X": 1.0}, "interpolation": 2}]}, "scale": 1, "perspective_c2_x": {"Points": [{"co": {"Y": -1.0, "X": 1.0}, "interpolation": 2}]}, "image": "/home/milind/.openshot_qt/thumbnail/YB8WHQZUJE.png", "effects": [], "perspective_c4_x": {"Points": [{"co": {"Y": -1.0, "X": 1.0}, "interpolation": 2}]}, "title": "ILUG-MSG.svg", "shear_y": {"Points": [{"co": {"Y": 0.0, "X": 1.0}, "interpolation": 2}]}, "file_id": "YB8WHQZUJE", "shear_x": {"Points": [{"co": {"Y": 0.0, "X": 1.0}, "interpolation": 2}]}, "channel_filter": {"Points": [{"co": {"Y": -1.0, "X": 1.0}, "interpolation": 2}]}, "wave_color": {"blue": {"Points": [{"co": {"Y": 255.0, "X": 1.0}, "interpolation": 0, "handle_right": {"Y": 0.0, "X": 0.5}, "handle_left": {"Y": 1.0, "X": 0.5}, "handle_type": 0}]}, "red": {"Points": [{"co": {"Y": 0.0, "X": 1.0}, "interpolation": 0, "handle_right": {"Y": 0.0, "X": 0.5}, "handle_left": {"Y": 1.0, "X": 0.5}, "handle_type": 0}]}, "green": {"Points": [{"co": {"Y": 123.0, "X": 1.0}, "interpolation": 0, "handle_right": {"Y": 0.0, "X": 0.5}, "handle_left": {"Y": 1.0, "X": 0.5}, "handle_type": 0}]}, "alpha": {"Points": [{"co": {"Y": 255.0, "X": 1.0}, "interpolation": 0, "handle_right": {"Y": 0.0, "X": 0.5}, "handle_left": {"Y": 1.0, "X": 0.5}, "handle_type": 0}]}}, "display": 0, "time": {"Points": [{"co": {"Y": 1.0, "X": 1.0}, "interpolation": 2}]}, "crop_x": {"Points": [{"co": {"Y": 0.0, "X": 1.0}, "interpolation": 2}]}, "perspective_c2_y": {"Points": [{"co": {"Y": -1.0, "X": 1.0}, "interpolation": 2}]}, "end": 10, "crop_height": {"Points": [{"co": {"Y": -1.0, "X": 1.0}, "interpolation": 2}]}, "anchor": 0, "start": 0, "scale_x": {"Points": [{"co": {"Y": 1.0, "X": 1.0}, "interpolation": 2}]}, "perspective_c1_y": {"Points": [{"co": {"Y": -1.0, "X": 1.0}, "interpolation": 2}]}, "crop_width": {"Points": [{"co": {"Y": -1.0, "X": 1.0}, "interpolation": 2}]}, "perspective_c4_y": {"Points": [{"co": {"Y": -1.0, "X": 1.0}, "interpolation": 2}]}, "volume": {"Points": [{"co": {"Y": 1.0, "X": 1.0}, "interpolation": 2}]}, "scale_y": {"Points": [{"co": {"Y": 1.0, "X": 1.0}, "interpolation": 2}]}, "crop_y": {"Points": [{"co": {"Y": 0.0, "X": 1.0}, "interpolation": 2}]}, "perspective_c3_x": {"Points": [{"co": {"Y": -1.0, "X": 1.0}, "interpolation": 2}]}, "position": 227.7, "duration": 86400.0, "waveform": false, "has_audio": {"Points": [{"co": {"Y": -1.0, "X": 1.0}, "interpolation": 2}]}, "perspective_c3_y": {"Points": [{"co": {"Y": -1.0, "X": 1.0}, "interpolation": 2}]}, "has_video": {"Points": [{"co": {"Y": -1.0, "X": 1.0}, "interpolation": 2}]}}, "partial": false}]}}